<svg width="69" height="76" viewBox="0 0 69 76" fill="none" xmlns="http://www.w3.org/2000/svg">
<rect x="0.756836" y="0.109924" width="47.0623" height="60.9763" fill="white"/>
<path d="M8.54148 10.0679C10.8628 9.13765 15.7661 7.31327 16.8083 7.45752C18.1109 7.63782 12.992 11.8266 14.0387 12.2163C15.0855 12.6061 26.1447 6.46439 28.2382 7.24389C30.3316 8.02339 23.9177 12.441 24.9606 12.6262C26.0035 12.8113 37.5784 6.45534 39.9278 7.02541C41.8074 7.48146 39.9037 10.3686 38.7169 11.7551" stroke="#1F7A44" stroke-width="2"/>
<path d="M4.63528 37.4498C6.30334 36.5982 9.92433 34.9252 11.0638 35.0463C12.4881 35.1977 9.38891 39.1895 10.5449 39.9297C11.7009 40.6698 18.3888 35.8246 20.0166 35.9976C21.6444 36.1706 16.0476 42.3663 17.1819 43.3099C18.3163 44.2535 26.3548 38.3172 29.0864 37.7844C31.818 37.2516 33.5196 38.667 35.2771 37.6191C36.6831 36.7808 37.7705 36.1007 38.1384 35.8655" stroke="#1F7A44" stroke-width="2"/>
<path d="M8.42891 23.6509C8.05264 24.7136 7.58677 26.8534 8.7335 26.9106C10.1669 26.9822 15.7936 23.5793 18.0938 22.7479C20.394 21.9164 19.9841 27.709 21.8509 27.329C23.7177 26.9491 31.3971 20.0662 34.2259 19.8019C37.0546 19.5376 31.6871 28.2595 32.7062 28.9864C33.7252 29.7132 41.6331 25.2751 42.9142 23.7168" stroke="#1F7A44" stroke-width="2"/>
<path d="M37.8029 41.4428C35.8026 39.7169 27.4199 36.1087 23.3416 35.3725L43.9957 50.8231C43.0761 47.529 42.5027 45.4981 37.8029 41.4428Z" fill="#71DB9C"/>
<path d="M32.6297 47.6124C36.3951 50.6501 41.7755 51.0188 43.995 50.8235L23.3408 35.3729C24.8682 38.187 28.8643 44.5746 32.6297 47.6124Z" fill="#48D080"/>
<path d="M53.3261 44.8091C55.052 42.8088 58.6603 34.4261 59.3964 30.3477L43.9458 51.0019C47.2399 50.0823 49.2708 49.5089 53.3261 44.8091Z" fill="#71DB9C"/>
<path d="M47.1572 39.6365C44.1195 43.4019 43.7507 48.7823 43.9461 51.0018L59.3967 30.3476C56.5826 31.875 50.195 35.8711 47.1572 39.6365Z" fill="#48D080"/>
<path d="M50.0165 60.2803C52.0167 62.0062 60.3994 65.6144 64.4778 66.3506L43.8236 50.9C44.7432 54.1941 45.3166 56.225 50.0165 60.2803Z" fill="#71DB9C"/>
<path d="M55.1896 54.1109C51.4243 51.0732 46.0439 50.7044 43.8243 50.8998L64.4785 66.3504C62.9511 63.5363 58.955 57.1487 55.1896 54.1109Z" fill="#48D080"/>
<path d="M34.5548 57.0549C32.8288 59.0552 29.2206 67.4379 28.4844 71.5162L43.935 50.8621C40.6409 51.7817 38.61 52.3551 34.5548 57.0549Z" fill="#71DB9C"/>
<path d="M40.7236 62.2276C43.7614 58.4622 44.1301 53.0818 43.9348 50.8623L28.4841 71.5165C31.2982 69.9891 37.6859 65.993 40.7236 62.2276Z" fill="#48D080"/>
</svg>
