<svg width="112" height="152" fill="none" xmlns="http://www.w3.org/2000/svg"><path d="M78.578 14.242C45.387 4.804 27.208 32.94 22.176 48.4a1.82 1.82 0 00-.087.456c-1.043 15.618 2.386 48.786 24.428 58.395 22.044 9.61 46.672-16.306 56.385-30.669.098-.144.17-.29.225-.454 5.688-16.86 8.642-52.448-24.55-61.886z" fill="#81EC40"/><path d="M34.908 142.914l-1.87-.727a2 2 0 01-1.158-2.54l21.362-59.491 24.62-70.604L55.1 81.79l-17.55 59.823a2 2 0 01-2.643 1.301z" fill="#81EC40" stroke="#000" stroke-width="17"/><path d="M23.373 49.464c-9.889 28.774 10.512 49.573 22.159 56.528.151.09.305.154.475.2 15.606 4.185 42.377 3.593 54.299-29.418 11.986-33.19-13.007-64.806-20.553-67.69-7.546-2.883-43.94 4.183-56.38 40.38z" stroke="#000" stroke-width="16"/></svg>