<svg width="976" height="235" fill="none" xmlns="http://www.w3.org/2000/svg"><path d="M25 187c-2.667 0-4.267-.2-4.8-.6-.533-.533-.8-2.267-.8-5.2V41.4c0-2.667.2-4.2.6-4.6.533-.533 2.067-.8 4.6-.8h71c1.467 0 2.333.267 2.6.8.267.4.4 1.2.4 2.4V54c0 1.333-.2 2.267-.6 2.8-.4.4-1.2.6-2.4.6H41.4v40.8H93c2 0 3 1.067 3 3.2v15c0 2.267-1 3.4-3 3.4H41.4v45.6H98c1.867 0 2.8 1.133 2.8 3.4v15c0 2.133-.933 3.2-2.8 3.2H25zM184.434 39.6c0 2.267-.6 3.267-1.8 3-1.6-.4-3.266-.733-5-1-1.733-.4-3.4-.6-5-.6-3.333 0-5.733.867-7.2 2.6-1.466 1.6-2.533 3.667-3.2 6.2-.266 1.333-.533 3.133-.8 5.4-.266 2.267-.4 4.8-.4 7.6v13.4h19.2c1.6 0 2.4.8 2.4 2.4V94c0 .667-.266 1.267-.8 1.8-.4.4-.933.6-1.6.6h-19.2v88.2c0 1.6-.8 2.4-2.4 2.4h-16.4c-1.6 0-2.4-.8-2.4-2.4V96.4h-16.8c-.666 0-1.266-.2-1.8-.6-.4-.533-.6-1.133-.6-1.8V78.6c0-.667.2-1.2.6-1.6.534-.533 1.134-.8 1.8-.8h16.6v-12c0-6.4.4-12.2 1.2-17.4.934-5.2 2.6-9.8 5-13.8 2.134-3.333 5.134-6.067 9-8.2 4-2.267 9-3.4 15-3.4 2.667 0 5.267.2 7.8.6 2.667.267 4.734.667 6.2 1.2.934.533 1.4 1.467 1.4 2.8l-.8 13.6zm72.657 0c0 2.267-.6 3.267-1.8 3a55.29 55.29 0 00-5-1c-1.734-.4-3.4-.6-5-.6-3.334 0-5.734.867-7.2 2.6-1.467 1.6-2.534 3.667-3.2 6.2-.267 1.333-.534 3.133-.8 5.4-.267 2.267-.4 4.8-.4 7.6v13.4h19.2c1.6 0 2.4.8 2.4 2.4V94c0 .667-.267 1.267-.8 1.8-.4.4-.934.6-1.6.6h-19.2v88.2c0 1.6-.8 2.4-2.4 2.4h-16.4c-1.6 0-2.4-.8-2.4-2.4V96.4h-16.8c-.667 0-1.267-.2-1.8-.6-.4-.533-.6-1.133-.6-1.8V78.6c0-.667.2-1.2.6-1.6.533-.533 1.133-.8 1.8-.8h16.6v-12c0-6.4.4-12.2 1.2-17.4.933-5.2 2.6-9.8 5-13.8 2.133-3.333 5.133-6.067 9-8.2 4-2.267 9-3.4 15-3.4 2.666 0 5.266.2 7.8.6 2.666.267 4.733.667 6.2 1.2.933.533 1.4 1.467 1.4 2.8l-.8 13.6zm20.256 157.6c-.667 0-1.267-.267-1.8-.8-.4-.4-.6-.933-.6-1.6V89.4c0-.667.2-1.2.6-1.6.533-.533 1.133-.8 1.8-.8h16.8a1.9 1.9 0 011.6.8c.533.4.8.933.8 1.6v105.4c0 .667-.267 1.2-.8 1.6-.4.533-.933.8-1.6.8h-16.8zm8.6-132c-3.867 0-7.133-1.267-9.8-3.8-2.533-2.667-3.8-5.867-3.8-9.6 0-3.867 1.267-7.133 3.8-9.8 2.667-2.667 5.933-4 9.8-4 3.867 0 7.133 1.333 9.8 4 2.667 2.667 4 5.933 4 9.8 0 3.733-1.333 6.933-4 9.6-2.667 2.533-5.933 3.8-9.8 3.8zm112.637 121.2c-1.466.533-3.266 1-5.4 1.4a88.37 88.37 0 01-7 1c-2.4.267-5 .4-7.8.4a76.278 76.278 0 01-7.8 0c-8.4-.533-15.866-2.333-22.4-5.4-6.4-3.2-11.8-7.333-16.2-12.4-4.4-5.067-7.733-11-10-17.8-2.133-6.933-3.2-14.4-3.2-22.4 0-8.4 1.334-16.133 4-23.2 2.667-7.067 6.4-13.133 11.2-18.2 4.934-5.2 10.8-9.2 17.6-12 6.8-2.8 14.4-4.2 22.8-4.2 4.134 0 8.267.267 12.4.8 4.267.4 8.4 1.267 12.4 2.6.534.133.934.4 1.2.8.267.4.334 1.2.2 2.4l-1.8 13.8c-.133.933-.466 1.6-1 2-.4.4-1.2.467-2.4.2-2.933-1.067-6.4-1.8-10.4-2.2-3.866-.4-7.533-.6-11-.6-10.8 0-19 3.467-24.6 10.4-5.6 6.933-8.4 16.067-8.4 27.4 0 10.933 2.6 19.733 7.8 26.4 5.334 6.667 13 10.6 23 11.8 9.2 1.067 17.4.467 24.6-1.8 1.334-.533 2.134-.6 2.4-.2.4.4.667 1 .8 1.8l1 13.8c.134 1.067.067 1.867-.2 2.4-.133.4-.733.733-1.8 1zm84.275.2c-.933 0-1.533-.067-1.8-.2-.266-.267-.4-.8-.4-1.6v-9c-3.333 4.667-7.6 8.2-12.8 10.6-5.066 2.267-10.2 3.4-15.4 3.4-5.466 0-10.533-.733-15.2-2.2-4.533-1.467-8.466-3.667-11.8-6.6-3.2-2.933-5.733-6.533-7.6-10.8-1.866-4.4-2.8-9.467-2.8-15.2 0-6.8 1.2-12.733 3.6-17.8 2.4-5.2 6.134-9.467 11.2-12.8 5.2-3.467 11.8-6 19.8-7.6 8-1.733 17.667-2.6 29-2.6 0-2.533-.266-5.067-.8-7.6-.533-2.533-1.466-4.8-2.8-6.8-1.2-2-2.933-3.6-5.2-4.8-2.266-1.333-5.133-2-8.6-2-6 0-11.466.8-16.4 2.4a63.394 63.394 0 00-13.6 6.4c-2.133 1.333-3.6 1.933-4.4 1.8-.666-.133-1-.867-1-2.2V86.2c0-.533-.066-1.067-.2-1.6 0-.667.134-1.2.4-1.6.4-.533 1.4-1.267 3-2.2a93.618 93.618 0 0113.8-5.6c4.8-1.467 10.8-2.2 18-2.2 13.467 0 23.4 3.267 29.8 9.8 6.534 6.533 9.8 16.8 9.8 30.8v59.2c.134 4 .4 7.533.8 10.6.267 2.133-.466 3.2-2.2 3.2h-16.2zm-3.6-53.4c-14.8 0-25.4 1.8-31.8 5.4-6.4 3.6-9.6 9-9.6 16.2 0 5.067 1.467 8.867 4.4 11.4 2.934 2.533 6.867 3.8 11.8 3.8 7.6 0 13.667-2.8 18.2-8.4 4.667-5.6 7-14.333 7-26.2v-2.2zm125.185 53.2c-1.467.533-3.267 1-5.4 1.4-2.134.4-4.467.733-7 1-2.4.267-5 .4-7.8.4a76.278 76.278 0 01-7.8 0c-8.4-.533-15.867-2.333-22.4-5.4-6.4-3.2-11.8-7.333-16.2-12.4-4.4-5.067-7.734-11-10-17.8-2.134-6.933-3.2-14.4-3.2-22.4 0-8.4 1.333-16.133 4-23.2 2.666-7.067 6.4-13.133 11.2-18.2 4.933-5.2 10.8-9.2 17.6-12 6.8-2.8 14.4-4.2 22.8-4.2 4.133 0 8.266.267 12.4.8 4.266.4 8.4 1.267 12.4 2.6.533.133.933.4 1.2.8.266.4.333 1.2.2 2.4l-1.8 13.8c-.134.933-.467 1.6-1 2-.4.4-1.2.467-2.4.2-2.934-1.067-6.4-1.8-10.4-2.2-3.867-.4-7.534-.6-11-.6-10.8 0-19 3.467-24.6 10.4-5.6 6.933-8.4 16.067-8.4 27.4 0 10.933 2.6 19.733 7.8 26.4 5.333 6.667 13 10.6 23 11.8 9.2 1.067 17.4.467 24.6-1.8 1.333-.533 2.133-.6 2.4-.2.4.4.666 1 .8 1.8l1 13.8c.133 1.067.066 1.867-.2 2.4-.134.4-.734.733-1.8 1zm26.075-157.2c3.733 0 6.8 1.533 9.2 4.6 2.4 3.067 3.733 6.6 4 10.6.4 4.933.066 9.2-1 12.8-.934 3.467-2.534 6.867-4.8 10.2-2 3.067-4.4 5.733-7.2 8-2.8 2.267-5.934 3.733-9.4 4.4-1.734.8-2.6.467-2.6-1V71c0-1.067.066-1.733.2-2 .266-.4.666-.733 1.2-1 2.266-1.067 4.2-2.6 5.8-4.6 1.733-2.133 2.666-4.533 2.8-7.2-2.8-.667-5.4-2-7.8-4-2.4-2.133-3.6-5-3.6-8.6 0-4.267 1.2-7.733 3.6-10.4 2.533-2.667 5.733-4 9.6-4zm219.823 157.2c-1.466.533-3.266 1-5.4 1.4a88.37 88.37 0 01-7 1c-2.4.267-5 .4-7.8.4a76.278 76.278 0 01-7.8 0c-8.4-.533-15.866-2.333-22.4-5.4-6.4-3.2-11.8-7.333-16.2-12.4-4.4-5.067-7.733-11-10-17.8-2.133-6.933-3.2-14.4-3.2-22.4 0-8.4 1.334-16.133 4-23.2 2.667-7.067 6.4-13.133 11.2-18.2 4.934-5.2 10.8-9.2 17.6-12 6.8-2.8 14.4-4.2 22.8-4.2 4.134 0 8.267.267 12.4.8 4.267.4 8.4 1.267 12.4 2.6.534.133.934.4 1.2.8.267.4.334 1.2.2 2.4l-1.8 13.8c-.133.933-.466 1.6-1 2-.4.4-1.2.467-2.4.2-2.933-1.067-6.4-1.8-10.4-2.2-3.866-.4-7.533-.6-11-.6-10.8 0-19 3.467-24.6 10.4-5.6 6.933-8.4 16.067-8.4 27.4 0 10.933 2.6 19.733 7.8 26.4 5.334 6.667 13 10.6 23 11.8 9.2 1.067 17.4.467 24.6-1.8 1.334-.533 2.134-.6 2.4-.2.4.4.667 1 .8 1.8l1 13.8c.134 1.067.067 1.867-.2 2.4-.133.4-.733.733-1.8 1z" fill="#000"/><path d="M737.499 164.481v-66.34c0-2.17-1.386-4.105-3.484-4.659-21.727-5.731-61.122-5.37-63.016 34.018-1.918 39.889 36.621 49.253 63.156 41.58 2.028-.586 3.344-2.488 3.344-4.599z" fill="#81EC40"/><path d="M737.6 186.4c-1.467.533-3.267 1-5.4 1.4-2.133.4-4.467.733-7 1-2.4.267-5 .4-7.8.4a76.278 76.278 0 01-7.8 0c-8.4-.533-15.867-2.333-22.4-5.4-6.4-3.2-11.8-7.333-16.2-12.4-4.4-5.067-7.733-11-10-17.8-2.133-6.933-3.2-14.4-3.2-22.4 0-8.4 1.333-16.133 4-23.2s6.4-13.133 11.2-18.2c4.933-5.2 10.8-9.2 17.6-12 6.8-2.8 14.4-4.2 22.8-4.2 4.133 0 8.267.267 12.4.8 4.267.4 8.4 1.267 12.4 2.6.533.133.933.4 1.2.8.267.4.333 1.2.2 2.4L737.8 94c-.133.933-.467 1.6-1 2-.4.4-1.2.467-2.4.2-2.933-1.067-6.4-1.8-10.4-2.2-3.867-.4-7.533-.6-11-.6-10.8 0-19 3.467-24.6 10.4-5.6 6.933-8.4 16.067-8.4 27.4 0 10.933 2.6 19.733 7.8 26.4 5.333 6.667 13 10.6 23 11.8 9.2 1.067 17.4.467 24.6-1.8 1.333-.533 2.133-.6 2.4-.2.4.4.667 1 .8 1.8l1 13.8c.133 1.067.067 1.867-.2 2.4-.133.4-.733.733-1.8 1z" fill="#000"/><rect x="645" y="106" width="74" height="20" rx="2" fill="#000"/><rect x="645" y="137" width="74" height="20" rx="2" fill="#000"/><path d="M941.63 88.93c-33.191-9.438-51.371 18.696-56.402 34.157a1.868 1.868 0 00-.088.456c-1.043 15.618 2.387 48.786 24.429 58.395 22.044 9.61 46.672-16.306 56.385-30.668.097-.145.169-.29.225-.455 5.688-16.859 8.642-52.447-24.549-61.885z" fill="#81EC40"/><path d="M897.96 217.601l-1.871-.727a2 2 0 01-1.158-2.54l21.362-59.491 24.621-70.604-22.762 72.238-17.548 59.823a2 2 0 01-2.644 1.301z" fill="#81EC40" stroke="#000" stroke-width="17"/><path d="M886.424 124.151c-9.888 28.774 10.512 49.573 22.16 56.528.151.09.305.155.475.2 15.606 4.185 42.377 3.593 54.298-29.418 11.987-33.19-13.007-64.806-20.552-67.69-7.546-2.883-43.941 4.183-56.381 40.38z" stroke="#000" stroke-width="16"/></svg>