<svg width="158" height="121" viewBox="0 0 158 121" fill="none" xmlns="http://www.w3.org/2000/svg">
<path d="M84.0394 40.3833C85.6837 40.7944 86.0947 41.9248 86.0947 42.4386H84.0394C82.4979 42.4386 79.2095 42.3358 78.3873 41.9247C77.5652 41.5136 75.3044 38.3279 74.7905 37.3003L76.332 36.2726L79.415 40.3833C80.2714 40.212 82.3952 39.9722 84.0394 40.3833Z" fill="#3D5C49"/>
<circle r="3.08296" transform="matrix(-1 0 0 1 74.7911 35.2449)" fill="#3D5C49"/>
<path d="M28.8639 45.3566C31.8327 44.0371 60.0637 44.8068 73.8081 45.3566V112.567C60.7509 112.292 32.7398 111.33 25.1529 109.68C15.6693 107.619 7.83496 93.1871 7.83496 87.8268C7.83496 82.4665 25.1529 47.0059 28.8639 45.3566Z" fill="#2E8551"/>
<path d="M118.34 45.3566C115.371 44.0371 87.1404 44.8068 73.396 45.3566V112.567C86.4532 112.292 114.464 111.33 122.051 109.68C131.535 107.619 139.369 92.7748 139.369 87.4144C139.369 82.0541 122.051 47.0059 118.34 45.3566Z" fill="#2E8551"/>
<path d="M26.8019 43.2949C20.8643 45.9339 7.28471 83.8409 8.24682 87.0021C9.07149 85.0779 25.1525 48.9027 28.4512 46.5936C31.7498 44.2845 60.3382 45.3566 73.8077 45.7689V40.8209C60.2007 40.821 32.7395 40.656 26.8019 43.2949Z" fill="#5C8A6E"/>
<path d="M118.752 42.8826C124.69 45.5215 139.919 83.0162 138.956 86.1774C138.132 84.2532 122.051 48.9026 118.752 46.5936C115.454 44.2845 86.8652 45.3566 73.3956 45.7689V40.8209C86.1779 40.8209 112.814 40.2437 118.752 42.8826Z" fill="#5C8A6E"/>
<path d="M29.2762 45.7689C26.3075 46.7585 23.3662 50.5794 22.2666 52.3662C23.2287 50.1671 25.4828 45.3565 26.8023 43.7072C28.4516 41.6456 111.743 42.8826 117.103 43.7072C121.391 44.367 123.838 48.9301 124.525 51.1292C123.975 50.5794 122.628 49.15 121.639 47.8305C120.649 46.5111 117.103 45.9063 115.454 45.7689C87.9648 45.3565 32.245 44.7793 29.2762 45.7689Z" fill="#5C8A6E"/>
<rect x="106.786" y="9.07129" width="47.0623" height="60.9763" transform="rotate(23.5065 106.786 9.07129)" fill="white"/>
<path d="M109.951 21.3084C112.451 21.3818 117.674 21.6655 118.572 22.2136C119.695 22.8988 113.33 24.697 114.134 25.472C114.938 26.2471 127.53 25.0286 129.138 26.5787C130.747 28.1288 123.103 29.6201 123.985 30.206C124.868 30.792 138.017 29.5828 139.944 31.043C141.485 32.2112 138.588 34.0988 136.946 34.8966" stroke="#1F7A44" stroke-width="2"/>
<path d="M95.4423 44.8571C97.3117 44.7419 101.299 44.6528 102.296 45.2185C103.542 45.9256 99.1069 48.3492 99.8715 49.4892C100.636 50.6291 108.702 48.8551 110.125 49.6633C111.549 50.4714 103.945 53.9192 104.608 55.237C105.272 56.5549 115.012 54.3194 117.729 54.9209C120.446 55.5223 121.442 57.4992 123.471 57.2396C125.095 57.032 126.363 56.8423 126.795 56.7734" stroke="#1F7A44" stroke-width="2"/>
<path d="M104.428 33.7185C103.659 34.5428 102.378 36.3188 103.406 36.8289C104.692 37.4665 111.209 36.5916 113.65 36.7471C116.091 36.9025 113.404 42.0504 115.267 42.4469C117.13 42.8435 126.918 39.5967 129.618 40.4831C132.317 41.3696 123.915 47.2252 124.559 48.2983C125.204 49.3714 134.226 48.4575 136.022 47.5398" stroke="#1F7A44" stroke-width="2"/>
<path d="M5.33691 12.0621L10.5212 10.5469L11.6867 14.5349L6.50244 16.0501L5.33691 12.0621Z" fill="#BEC0BF"/>
<path d="M5 12.8823L6.19638 12.5327L6.9734 15.1913L5.77702 15.5409L5 12.8823Z" fill="#BEC0BF"/>
<path d="M31.0322 15.8068C30.0579 17.015 30.1231 18.0444 30.2775 18.4081L20.7064 21.2054C19.8322 19.7775 17.7973 16.7314 16.6512 15.9698C15.2187 15.0178 14.3189 15.6415 11.7625 16.0279C9.71747 16.337 8.49876 12.6773 8.14504 10.8087C13.0928 8.97792 23.6886 5.34249 26.4895 5.44731C29.9906 5.57834 36.6543 9.61863 36.5612 11.5216C36.4681 13.4245 32.2501 14.2965 31.0322 15.8068Z" fill="#D8D9D9"/>
<path d="M46.2674 37.3255C42.8196 33.4275 35.4109 27.8254 32.1375 25.5117L24.0287 27.8816C23.0079 28.4204 20.6171 29.6137 20.4017 30.5288C19.8545 32.8529 22.4773 32.4471 22.9824 34.1752C23.4875 35.9033 21.8003 35.3143 22.2277 36.7765C22.655 38.2387 25.1981 38.7941 24.7113 40.0906C24.2245 41.3872 23.8206 42.2267 24.2674 43.7554C24.7141 45.2841 26.9269 44.7095 27.6651 47.2352C28.4033 49.7609 19.0314 57.1892 18.1377 58.8211C17.2439 60.4531 18.6115 74.2655 20.0694 80.9816C21.5272 87.6976 26.1814 99.1788 29.8143 102.229C33.4472 105.28 60.5733 97.1351 65.5154 93.31C70.4574 89.4849 66.7552 81.2606 64.3485 71.7918C61.9418 62.323 52.7723 49.7087 52.5003 48.7782C52.2283 47.8477 53.3941 47.1462 53.4933 46.2515C53.5925 45.3568 50.5772 42.1981 46.2674 37.3255Z" fill="#3BAB68"/>
<path d="M42.0004 44.1999C40.294 43.8906 28.5359 55.3975 22.8702 61.1896C22.147 65.8737 23.6129 77.0603 24.7068 81.7906C25.8008 86.5209 29.3659 97.2382 31.9068 99.0206C34.4478 100.803 60.0615 92.6677 61.9492 90.2403C63.8369 87.8129 60.4508 75.2396 57.3774 67.1922C54.304 59.1447 44.1334 44.5865 42.0004 44.1999Z" fill="#2E8551"/>
<path d="M19.8733 21.8096L21.9324 28.8549L33.0321 25.6109L30.973 18.5655C30.1826 18.4118 27.4719 18.4345 25.6109 18.9784C23.7498 19.5223 21.2319 21.0278 19.8733 21.8096Z" fill="#BEC0BF"/>
<path d="M9.46888 25.2112C9.64697 21.6241 10.2654 17.9805 10.2863 15.6659L13.6821 15.6834C13.0358 17.3392 12.5766 20.0465 12.1511 22.0466C11.8486 23.4689 8.73339 32.5683 8.23442 31.8484C7.73545 31.1285 9.33458 27.9164 9.46888 25.2112Z" fill="#BEC0BF"/>
<path d="M39.4249 65.3681C38.6102 64.023 34.5288 60.4381 32.3556 59.2709L41.2047 71.8175C41.2902 69.7836 41.3393 68.5284 39.4249 65.3681Z" fill="#48D080"/>
<path d="M35.3615 67.9086C36.9341 70.321 39.912 71.5197 41.2044 71.8175L32.3553 59.2709C32.7021 61.145 33.7889 65.4962 35.3615 67.9086Z" fill="#32C36D"/>
<path d="M47.5923 70.1297C48.9373 69.315 52.5222 65.2336 53.6894 63.0603L41.1428 71.9094C43.1767 71.995 44.4319 72.044 47.5923 70.1297Z" fill="#48D080"/>
<path d="M45.0516 66.0665C42.6392 67.6391 41.4405 70.617 41.1427 71.9094L53.6893 63.0603C51.8152 63.4071 47.464 64.494 45.0516 66.0665Z" fill="#32C36D"/>
<path d="M42.871 78.2785C43.6857 79.6236 47.7671 83.2085 49.9403 84.3757L41.0912 71.8291C41.0057 73.863 40.9566 75.1182 42.871 78.2785Z" fill="#48D080"/>
<path d="M46.9344 75.738C45.3618 73.3256 42.3839 72.1269 41.0915 71.8291L49.9406 84.3757C49.5938 82.5016 48.507 78.1505 46.9344 75.738Z" fill="#32C36D"/>
<path d="M34.7124 73.6079C33.3674 74.4227 29.7824 78.5041 28.6153 80.6773L41.1619 71.8282C39.1279 71.7426 37.8728 71.6936 34.7124 73.6079Z" fill="#48D080"/>
<path d="M37.2521 77.6711C39.6645 76.0985 40.8632 73.1206 41.161 71.8282L28.6145 80.6773C30.4885 80.3305 34.8397 79.2437 37.2521 77.6711Z" fill="#32C36D"/>
<path d="M127.898 48.4902C126.753 46.1095 120.506 39.456 117.06 37.1535L129.833 59.5625C130.305 56.1751 130.589 54.084 127.898 48.4902Z" fill="#71DB9C"/>
<path d="M120.693 52.0831C122.934 56.371 127.72 58.8561 129.833 59.5627L117.06 37.1537C117.337 40.3435 118.453 47.7951 120.693 52.0831Z" fill="#48D080"/>
<path d="M140.789 57.771C143.17 56.6256 149.823 50.379 152.126 46.9333L129.717 59.7064C133.104 60.1776 135.195 60.4622 140.789 57.771Z" fill="#71DB9C"/>
<path d="M137.197 50.5666C132.909 52.807 130.424 57.5934 129.717 59.7065L152.126 46.9334C148.937 47.2109 141.485 48.3262 137.197 50.5666Z" fill="#48D080"/>
<path d="M131.581 70.6364C132.726 73.0172 138.973 79.6707 142.418 81.9731L129.645 59.5641C129.174 62.9516 128.889 65.0426 131.581 70.6364Z" fill="#71DB9C"/>
<path d="M138.785 67.0437C136.545 62.7558 131.759 60.2707 129.645 59.5641L142.419 81.9731C142.141 78.7833 141.026 71.3317 138.785 67.0437Z" fill="#48D080"/>
<path d="M118.69 61.5092C116.309 62.6546 109.655 68.9012 107.353 72.347L129.762 59.5738C126.375 59.1026 124.284 58.818 118.69 61.5092Z" fill="#71DB9C"/>
<path d="M122.282 68.7138C126.57 66.4734 129.056 61.687 129.762 59.5739L107.353 72.347C110.543 72.0695 117.995 70.9542 122.282 68.7138Z" fill="#48D080"/>
<path d="M61.4313 46.9805C59.787 47.3916 59.376 48.522 59.376 49.0358H61.4313C62.9728 49.0358 66.2612 48.9331 67.0834 48.522C67.9055 48.1109 70.1663 44.9252 70.6802 43.8975L69.1387 42.8699L66.0557 46.9805C65.1993 46.8092 63.0755 46.5695 61.4313 46.9805Z" fill="#476B55"/>
<circle cx="70.6796" cy="41.8422" r="3.08296" fill="#476B55"/>
<path d="M28.8639 53.6032C31.8327 52.2837 60.0637 53.0534 73.8081 53.6032V120.813C60.7509 120.538 32.7398 119.576 25.1529 117.927C15.6693 115.865 7.83496 94.0117 7.83496 88.6514C7.83496 83.2911 25.1529 55.2525 28.8639 53.6032Z" fill="#3BAB68"/>
<path d="M118.34 53.6032C115.371 52.2837 87.1404 53.0534 73.396 53.6032V120.813C86.4532 120.538 114.464 119.576 122.051 117.927C131.535 115.865 139.369 94.0117 139.369 88.6514C139.369 83.2911 122.051 55.2525 118.34 53.6032Z" fill="#3BAB68"/>
<path d="M26.3894 50.7169C18.9673 54.0155 6.87226 83.8409 7.83436 87.0021C8.65904 85.0779 25.1524 57.1493 28.4511 54.8402C31.7497 52.5311 60.3381 53.6032 73.8076 54.0155V48.2429C60.2006 48.2429 32.327 48.078 26.3894 50.7169Z" fill="#5C8A6E"/>
<path d="M120.813 50.7169C126.751 53.3558 140.33 84.2532 139.368 87.4144C138.544 85.4902 122.05 57.1493 118.752 54.8402C115.453 52.5311 86.8647 53.6032 73.3952 54.0155V48.2429C86.1775 48.2429 114.876 48.0779 120.813 50.7169Z" fill="#5C8A6E"/>
<path d="M29.2753 54.0155C26.3065 55.0051 23.3652 58.826 22.2656 60.6128C23.2277 58.4137 25.4818 53.6031 26.8013 51.9538C28.4506 49.8922 111.742 51.1291 117.102 51.9538C121.39 52.6135 123.837 57.1767 124.524 59.3758C123.974 58.826 122.627 57.3966 121.638 56.0771C120.648 54.7577 117.102 54.1529 115.453 54.0155C87.9639 53.6031 32.2441 53.0259 29.2753 54.0155Z" fill="#5C8A6E"/>
</svg>
