<svg width="308" height="687" viewBox="0 0 308 687" fill="none" xmlns="http://www.w3.org/2000/svg">
<path d="M8.84181 163.554C16.827 131.192 88.1687 84.2268 122.841 64.7891H193.237C223.532 85.9779 286.748 135.395 297.255 163.554C310.389 198.752 285.698 215.563 273.615 265.996C261.532 316.429 294.103 532.345 297.255 565.967C300.407 599.589 280.444 650.022 273.615 663.155C266.785 676.289 168.021 679.966 154.887 679.966C141.754 679.966 37.2104 671.561 25.6528 663.155C14.0952 654.75 18.8236 641.616 8.84181 565.967C-1.13994 490.317 32.4823 361.608 37.2104 295.94C41.9384 230.272 -1.13972 204.005 8.84181 163.554Z" fill="white" stroke="#81EC40" stroke-width="13"/>
<path d="M121.789 35.8939V64.7878H191.134V35.8939L175.374 29.0644V7L138.6 7V29.0644L121.789 35.8939Z" fill="white" stroke="#81EC40" stroke-width="13"/>
</svg>
