<svg width="304" height="683" viewBox="0 0 304 683" fill="none" xmlns="http://www.w3.org/2000/svg">
<path d="M6.84181 161.554C14.827 129.192 86.1687 82.2268 120.841 62.7891L191.237 62.7891C221.532 83.9779 284.748 133.395 295.255 161.554C308.389 196.752 283.698 213.563 271.615 263.996C259.532 314.429 292.103 530.345 295.255 563.967C298.407 597.589 278.444 648.022 271.615 661.155C264.785 674.289 166.021 677.966 152.887 677.966C139.754 677.966 35.2104 669.561 23.6528 661.155C12.0952 652.75 16.8236 639.616 6.84181 563.967C-3.13994 488.317 30.4823 359.608 35.2104 293.94C39.9384 228.272 -3.13972 202.005 6.84181 161.554Z" fill="white" stroke="#D9D9D9" stroke-width="10"/>
<path d="M119.789 33.8939V62.7878H189.134V33.8939L173.374 27.0644V5L136.6 5V27.0644L119.789 33.8939Z" fill="white" stroke="#81EC40" stroke-width="10"/>
</svg>
