<svg width="283" height="663" fill="none" xmlns="http://www.w3.org/2000/svg"><path d="M10.083 339.5c-12.8 108 17.334 252 34 310.5 88 10.4 164.667 4.333 192.001 0 14.166-73.167 41.9-235.1 39.5-297.5-2.4-62.4-55.667-172.333-82-219.5h-104.5c-21 23.833-66.2 98.5-79 206.5z" fill="#fff"/><path d="M44.083 650l-6.25 1.781a6.5 6.5 0 005.488 4.674l.762-6.455zm192.001 0l1.017 6.42a6.5 6.5 0 005.364-5.184L236.084 650zm-42.5-517l5.675-3.169a6.501 6.501 0 00-5.675-3.331v6.5zm-104.5 0v-6.5a6.498 6.498 0 00-4.877 2.203L89.084 133zM3.629 338.735c-12.955 109.304 17.47 254.31 34.203 313.046l12.503-3.562c-16.6-58.264-46.442-201.258-33.797-307.954l-12.91-1.53zm39.692 317.72c88.616 10.473 165.882 4.388 193.78-.035l-2.035-12.84c-26.769 4.244-102.836 10.292-190.22-.035l-1.525 12.91zm199.144-5.219c7.098-36.661 17.591-95.536 26.013-153.082 8.39-57.339 14.827-114.009 13.601-145.904l-12.991.5c1.174 30.505-5.056 86.002-13.473 143.521-8.388 57.312-18.845 115.987-25.913 152.493l12.763 2.472zm39.614-298.986c-1.248-32.445-15.58-76.456-32.508-117.681-17.02-41.452-37.038-80.961-50.312-104.738l-11.351 6.338c13.059 23.39 32.841 62.431 49.638 103.337 16.889 41.133 30.39 83.289 31.542 113.244l12.991-.5zM193.584 126.5h-104.5v13h104.5v-13zm-109.377 2.203c-21.898 24.851-67.628 100.76-80.578 210.032l12.91 1.53C29.186 233.537 73.857 160.112 93.96 137.297l-9.753-8.594z" fill="#81EC40"/><path d="M102.586 52.5c-2.4 10.4-9 58-12 80.5h103c-4.5-21-13.5-66.5-13.5-80.5v-38c-6.333-2.5-22.5-7.5-36.5-7.5s-33.167 5-41 7.5c1 8.333 2.4 27.6 0 38z" fill="#fff" stroke="#81EC40" stroke-width="13" stroke-linejoin="round"/></svg>