<svg width="279" height="659" viewBox="0 0 279 659" fill="none" xmlns="http://www.w3.org/2000/svg">
<path d="M8.08342 337.5C-4.71658 445.5 25.4168 589.5 42.0834 648C130.083 658.4 206.75 652.333 234.084 648C248.25 574.833 275.984 412.9 273.584 350.5C271.184 288.1 217.917 178.167 191.584 131H87.0835C66.0835 154.833 20.8834 229.5 8.08342 337.5Z" fill="white"/>
<path d="M42.0834 648L37.2748 649.37C37.8276 651.311 39.4927 652.729 41.4966 652.965L42.0834 648ZM87.0835 131V126C85.6477 126 84.2812 126.617 83.332 127.694L87.0835 131ZM191.584 131L195.949 128.563C195.066 126.98 193.396 126 191.584 126V131ZM234.084 648L234.866 652.938C236.944 652.609 238.593 651.015 238.992 648.95L234.084 648ZM46.8921 646.63C30.2772 588.312 0.367528 445.086 13.0487 338.088L3.11817 336.912C-9.80068 445.914 20.5563 590.688 37.2748 649.37L46.8921 646.63ZM13.0487 338.088C25.7327 231.067 70.5251 157.356 90.835 134.306L83.332 127.694C61.6419 152.311 16.0342 227.933 3.11817 336.912L13.0487 338.088ZM87.0835 136H191.584V126H87.0835V136ZM187.218 133.437C200.302 156.872 220.111 195.967 236.933 236.937C253.827 278.08 267.424 320.45 268.587 350.692L278.58 350.308C277.343 318.15 263.107 274.353 246.184 233.138C229.189 191.749 209.199 152.294 195.949 128.563L187.218 133.437ZM268.587 350.692C269.767 381.358 263.513 436.99 255.099 494.489C246.708 551.828 236.246 610.526 229.175 647.05L238.992 648.95C246.087 612.308 256.576 553.456 264.993 495.936C273.387 438.577 279.8 382.042 278.58 350.308L268.587 350.692ZM233.301 643.062C206.402 647.326 130.196 653.379 42.6702 643.035L41.4966 652.965C129.971 663.421 207.099 657.341 234.866 652.938L233.301 643.062Z" fill="#D9D9D9"/>
<path d="M100.586 50.5C98.1859 60.9 91.5859 108.5 88.5859 131H141.586H191.586C187.086 110 178.086 64.5 178.086 50.5V12.5C171.753 10 155.586 5 141.586 5C127.586 5 108.419 10 100.586 12.5C101.586 20.8333 102.986 40.1 100.586 50.5Z" fill="white" stroke="#81EC40" stroke-width="10" stroke-linejoin="round"/>
</svg>
