<svg width="357" height="697" fill="none" xmlns="http://www.w3.org/2000/svg"><path d="M46.89 43.744V21.696l22.632-.134 2.53 22.182H46.891zm244.36 185.343c-16.798-35.696-58.794-92.215-77.692-116.013l-74.068.158c-8.574 1.75-18.483 5.19-21.997 11.391-8.924 15.748 11.024 18.373 11.024 32.022 0 13.648-11.024 5.774-11.024 17.323s17.323 20.998 11.024 29.397c-6.3 8.399-11.024 13.649-11.024 25.722 0 12.074 17.323 12.599 17.323 32.547 0 19.948-83.991 54.069-93.965 64.043-9.974 9.974-29.397 113.389-33.072 165.358-3.675 51.97 5.774 145.41 25.722 175.332 19.948 29.922 234.651 28.347 278.747 11.024 44.095-17.323 34.646-85.041 37.271-159.059 2.624-74.017-37.271-185.305-37.271-192.655 0-7.349 9.974-9.974 12.598-16.273 2.625-6.299-12.598-35.696-33.596-80.317z" fill="#fff" stroke="#81EC40" stroke-width="13"/><path d="M49.247 118.323c8.925-25.722 21.173-50.92 26.248-67.718 0 0 4.157 4.318 7.653 5.375 5.458 1.65 17.599 2.26 17.599 2.26C92.523 68.912 82.844 87.352 75.495 101c-5.227 9.706-47.246 69.293-49.345 62.994-2.1-6.3 16.367-26.272 23.097-45.671z" fill="#fff"/><path d="M75.495 50.605l4.681-4.508-7.695-7.992-3.209 10.62 6.223 1.88zm-26.248 67.718l-6.14-2.13 6.14 2.13zM26.15 163.994l-6.167 2.055 6.167-2.055zM75.495 101l-5.723-3.081L75.495 101zm25.252-42.76l5.149 3.967a6.5 6.5 0 00-4.822-10.46l-.327 6.492zm-17.599-2.26l1.881-6.222-1.88 6.221zm-13.876-7.254C66.85 56.748 62.664 66.913 57.81 78.63c-4.798 11.58-10.168 24.489-14.704 37.563l12.282 4.261c4.389-12.648 9.605-25.198 14.432-36.848 4.77-11.512 9.246-22.344 11.897-31.12l-12.445-3.76zm-26.166 67.467c-3.07 8.848-8.905 18.022-14.21 26.401-2.548 4.022-5.061 8.006-6.775 11.411-.86 1.709-1.656 3.533-2.137 5.335-.453 1.694-.85 4.161 0 6.709l12.332-4.111c.325.974.045 1.439.227.758.153-.57.508-1.492 1.19-2.845 1.367-2.718 3.498-6.12 6.146-10.303 5.086-8.032 11.849-18.543 15.51-29.094l-12.283-4.261zm-23.123 49.856c.453 1.357 1.484 3.1 3.536 4.142 1.934.982 3.78.827 4.862.59 1.924-.421 3.456-1.532 4.239-2.134 1.88-1.444 4.055-3.689 6.247-6.153 4.509-5.068 10.256-12.412 15.994-20.11 11.388-15.279 23.484-32.967 26.357-38.302l-11.446-6.163c-2.354 4.371-13.881 21.33-25.334 36.696-5.682 7.623-11.16 14.602-15.284 19.238-2.123 2.388-3.616 3.841-4.457 4.487-.577.444-.168-.024.908-.259a5.73 5.73 0 013.799.518 5.858 5.858 0 012.912 3.339l-12.333 4.111zm61.235-61.967c7.496-13.921 16.865-31.735 24.678-41.875l-10.298-7.935C86.963 65.48 76.974 84.542 69.772 97.92l11.446 6.163zm19.529-45.842l.327-6.492c.001 0 0 0 0 0h-.003l-.021-.002a98.264 98.264 0 01-1.845-.113 164.31 164.31 0 01-4.586-.375c-3.761-.363-7.557-.886-9.59-1.5l-3.762 12.444c3.425 1.035 8.43 1.642 12.103 1.996a177.03 177.03 0 006.889.525l.115.006.033.002h.009a.03.03 0 00.004 0l.327-6.491zm-15.718-8.482c-.44-.133-1.516-.755-2.895-1.887a27.787 27.787 0 01-1.865-1.682l-.09-.09-.012-.012.002.002.003.003.002.002.001.001s.002.002-4.68 4.51c-4.682 4.51-4.681 4.51-4.68 4.51v.002l.004.004a.608.608 0 01.007.008l.02.02a17.833 17.833 0 00.246.248 40.732 40.732 0 002.796 2.524c1.573 1.291 4.323 3.357 7.38 4.28l3.761-12.443z" fill="#81EC40"/><path d="M226.156 95.751c-9.659 6.72-11.373 14.349-11.023 17.324H139.54c-3.325-12.249-11.654-38.742-18.373-46.72-8.399-9.975-16.273-7.35-35.696-9.975-15.538-2.1-16.623-31.321-15.223-45.67 39.895-2.8 124.727-6.72 144.885 0 25.197 8.4 65.093 51.97 60.368 65.618-4.724 13.649-37.271 11.024-49.345 19.423z" fill="#fff" stroke="#81EC40" stroke-width="13"/></svg>