<svg width="353" height="693" viewBox="0 0 353 693" fill="none" xmlns="http://www.w3.org/2000/svg">
<path d="M44.8906 41.7447L44.8906 19.6969L67.5225 19.5635L70.0522 41.7447L44.8906 41.7447Z" fill="white" stroke="#81EC40" stroke-width="10"/>
<path d="M289.25 227.088C272.452 191.392 230.456 134.873 211.558 111.075L137.49 111.233C128.916 112.983 119.007 116.423 115.493 122.624C106.569 138.372 126.517 140.997 126.517 154.646C126.517 168.294 115.493 160.42 115.493 171.969C115.493 183.518 132.816 192.967 126.517 201.366C120.217 209.765 115.493 215.014 115.493 227.088C115.493 239.162 132.816 239.687 132.816 259.635C132.816 279.583 48.8248 313.704 38.8508 323.678C28.8768 333.652 9.45362 437.067 5.779 489.036C2.10437 541.006 11.5534 634.446 31.5013 664.368C51.4493 694.29 266.152 692.715 310.248 675.392C354.343 658.069 344.894 590.351 347.519 516.333C350.143 442.316 310.248 331.028 310.248 323.678C310.248 316.329 320.222 313.704 322.846 307.405C325.471 301.106 310.248 271.709 289.25 227.088Z" fill="white" stroke="#D9D9D9" stroke-width="10"/>
<path d="M47.2473 116.323C56.1716 90.6002 68.4202 65.4028 73.4947 48.6045C73.4947 48.6045 77.6524 52.9217 81.1484 53.9786C86.6059 55.6284 98.7473 56.2385 98.7473 56.2385C90.5232 66.9124 80.8438 85.3507 73.4946 98.9993C68.2683 108.706 26.2495 168.292 24.1497 161.993C22.0499 155.693 40.5169 135.721 47.2473 116.323Z" fill="white"/>
<path d="M73.4947 48.6045L77.0961 45.1361L71.1761 38.9891L68.7083 47.1586L73.4947 48.6045ZM47.2473 116.323L42.5236 114.684L42.5236 114.684L47.2473 116.323ZM24.1497 161.993L19.4063 163.574L24.1497 161.993ZM73.4946 98.9993L69.0923 96.6288L69.0923 96.6288L73.4946 98.9993ZM98.7473 56.2385L102.708 59.2902C103.844 57.8165 104.067 55.8343 103.288 54.1448C102.509 52.4554 100.856 51.3382 98.9983 51.2448L98.7473 56.2385ZM81.1484 53.9786L82.5952 49.1925L82.5952 49.1925L81.1484 53.9786ZM68.7083 47.1586C66.2587 55.2675 62.0402 65.5097 57.1954 77.2032C52.3947 88.7906 47.0425 101.659 42.5236 114.684L51.9711 117.961C56.3765 105.264 61.6107 92.6722 66.4339 81.0308C71.2131 69.4954 75.6561 58.7398 78.281 50.0504L68.7083 47.1586ZM42.5236 114.684C39.3857 123.728 33.4429 133.057 28.1629 141.395C25.604 145.436 23.1347 149.353 21.4604 152.679C20.6209 154.347 19.8765 156.066 19.4328 157.727C19.0115 159.303 18.6924 161.432 19.4063 163.574L28.8931 160.412C29.0821 160.979 28.8808 161.106 29.0938 160.308C29.2843 159.595 29.6908 158.569 30.3924 157.176C31.8005 154.379 33.9748 150.909 36.6116 146.745C41.7227 138.673 48.3786 128.316 51.9711 117.961L42.5236 114.684ZM19.4063 163.574C19.7693 164.663 20.5869 166.034 22.1978 166.852C23.7186 167.624 25.1789 167.507 26.0602 167.315C27.6388 166.97 28.9463 166.041 29.7056 165.457C31.4651 164.105 33.562 161.952 35.7466 159.496C40.2106 154.478 45.927 147.176 51.6587 139.486C63.0542 124.197 75.0841 106.594 77.897 101.37L69.0923 96.6288C66.6788 101.111 55.0862 118.154 43.6408 133.51C37.952 141.143 32.4434 148.163 28.275 152.849C26.1433 155.246 24.5722 156.79 23.6115 157.528C23.0107 157.99 23.195 157.705 23.9248 157.545C24.3818 157.446 25.4863 157.307 26.7245 157.935C28.053 158.61 28.6614 159.716 28.8931 160.412L19.4063 163.574ZM77.897 101.37C85.3591 87.5115 94.8 69.5539 102.708 59.2902L94.7866 53.1868C86.2465 64.2709 76.3285 83.1899 69.0923 96.6288L77.897 101.37ZM98.7473 56.2385C98.9983 51.2448 98.9985 51.2448 98.9987 51.2448C98.9987 51.2448 98.9988 51.2448 98.9988 51.2448C98.9988 51.2448 98.9986 51.2448 98.9983 51.2448C98.9975 51.2448 98.9961 51.2447 98.9939 51.2446C98.9896 51.2444 98.9823 51.244 98.9723 51.2435C98.9523 51.2424 98.921 51.2408 98.8791 51.2385C98.7953 51.234 98.6691 51.227 98.5049 51.2175C98.1765 51.1984 97.6972 51.1691 97.1033 51.1289C95.9134 51.0482 94.2743 50.924 92.4747 50.7503C88.7236 50.3884 84.7885 49.8555 82.5952 49.1925L79.7015 58.7647C82.9658 59.7515 87.8301 60.3486 91.5141 60.7041C93.4321 60.8892 95.1695 61.0207 96.4267 61.1059C97.0563 61.1486 97.5681 61.1799 97.925 61.2007C98.1035 61.211 98.2435 61.2188 98.3402 61.224C98.3886 61.2266 98.4262 61.2286 98.4524 61.2299C98.4655 61.2306 98.4758 61.2312 98.4831 61.2315C98.4868 61.2317 98.4898 61.2319 98.492 61.232C98.4931 61.232 98.494 61.2321 98.4947 61.2321C98.4951 61.2321 98.4955 61.2322 98.4957 61.2322C98.4961 61.2322 98.4964 61.2322 98.7473 56.2385ZM82.5952 49.1925C81.8535 48.9683 80.5839 48.18 79.1821 47.0298C78.5575 46.5173 78.0193 46.0276 77.6386 45.6667C77.4499 45.4878 77.3039 45.3444 77.2097 45.2506C77.1628 45.2038 77.129 45.1696 77.1096 45.1499C77.0999 45.14 77.0939 45.1338 77.0915 45.1314C77.0904 45.1302 77.0902 45.13 77.0909 45.1308C77.0913 45.1312 77.0919 45.1318 77.0928 45.1327C77.0932 45.1331 77.0937 45.1336 77.0942 45.1342C77.0945 45.1345 77.095 45.135 77.0951 45.1351C77.0956 45.1356 77.0961 45.1361 73.4947 48.6045C69.8932 52.0729 69.8938 52.0734 69.8943 52.074C69.8945 52.0742 69.895 52.0748 69.8954 52.0752C69.8962 52.076 69.8971 52.0769 69.8981 52.0779C69.8999 52.0798 69.902 52.082 69.9044 52.0845C69.9092 52.0894 69.915 52.0954 69.9218 52.1024C69.9355 52.1164 69.9532 52.1346 69.9748 52.1566C70.018 52.2006 70.077 52.2602 70.1505 52.3335C70.2974 52.4799 70.5036 52.6821 70.7592 52.9244C71.2674 53.4061 71.9872 54.0617 72.839 54.7606C74.39 56.0333 76.9473 57.9321 79.7015 58.7647L82.5952 49.1925Z" fill="#81EC40"/>
<path d="M224.153 93.7513C214.494 100.471 212.779 108.1 213.129 111.075L137.536 111.075C134.212 98.8258 125.882 72.3335 119.163 64.3543C110.764 54.3802 102.89 57.005 83.4671 54.3803C67.9287 52.2805 66.8438 23.0586 68.2437 8.71008C108.14 5.91037 192.971 1.99078 213.129 8.71009C238.326 17.1092 278.222 60.6797 273.498 74.3283C268.773 87.9769 236.226 85.3522 224.153 93.7513Z" fill="white" stroke="#81EC40" stroke-width="10"/>
</svg>
