<svg width="238" height="740" viewBox="0 0 238 740" fill="none" xmlns="http://www.w3.org/2000/svg">
<path d="M220.538 687.225C218.692 708.761 203.361 727.476 195.926 734.142L13.6435 734.142C-1.73904 734.142 6.72139 206.522 13.6435 195.754C20.5656 184.986 31.3334 177.295 58.2528 166.527C79.7883 157.913 108.759 130.122 120.552 117.303L180.544 68.8486C185.671 81.411 200.848 115.919 220.538 153.452C245.15 200.369 222.845 660.306 220.538 687.225Z" fill="white" stroke="#D9D9D9" stroke-width="10"/>
<path d="M112.851 6C119.517 9.58925 134.695 19.5366 142.078 30.612L99.0071 52.9166C101.468 46.1483 93.3669 27.5355 89.0085 19.0751L112.851 6Z" fill="white" stroke="#81EC40" stroke-width="10"/>
<path d="M156.159 24.4697L189 76.5394L115.164 119.61L86.7064 60.3877C86.7064 60.3877 105.86 40.3877 120.432 32.4287C135.004 24.4697 156.159 24.4697 156.159 24.4697Z" fill="white" stroke="#81EC40" stroke-width="10"/>
</svg>
