<svg width="241" height="743" viewBox="0 0 241 743" fill="none" xmlns="http://www.w3.org/2000/svg">
<path d="M222.538 689.224C220.692 710.76 205.361 729.475 197.926 736.141L15.6435 736.141C0.260959 736.141 8.72139 208.521 15.6435 197.753C22.5656 186.986 33.3334 179.294 60.2528 168.527C81.7883 159.912 110.759 132.121 122.552 119.303L182.544 70.8477C187.671 83.41 202.848 117.918 222.538 155.451C247.15 202.368 224.845 662.305 222.538 689.224Z" fill="white" stroke="#81EC40" stroke-width="13"/>
<path d="M114.851 8C121.517 11.5892 136.695 21.5366 144.078 32.612L101.007 54.9166C103.468 48.1483 95.3669 29.5355 91.0085 21.0751L114.851 8Z" fill="white" stroke="#81EC40" stroke-width="13"/>
<path d="M158.162 26.4687L191.004 78.5384L117.168 121.609L88.7103 62.3867C88.7103 62.3867 107.864 42.3867 122.436 34.4277C137.008 26.4687 158.162 26.4687 158.162 26.4687Z" fill="white" stroke="#81EC40" stroke-width="13"/>
</svg>
