<svg width="241" height="743" fill="none" xmlns="http://www.w3.org/2000/svg"><path d="M222.538 689.224c-1.846 21.536-17.177 40.251-24.612 46.917H15.644c-15.383 0-6.923-527.62 0-538.388 6.922-10.767 17.69-18.459 44.609-29.226 21.535-8.615 50.506-36.406 62.299-49.224l59.992-48.455c5.127 12.562 20.304 47.07 39.994 84.603 24.612 46.917 2.307 506.854 0 533.773zM114.851 8c6.666 3.59 21.844 13.537 29.227 24.612l-43.071 22.305c2.461-6.769-5.64-25.382-9.999-33.842L114.852 8z" fill="#fff" stroke="#81EC40" stroke-width="13"/><path d="M158.162 26.469l32.842 52.07-73.836 43.07L88.71 62.387s19.154-20 33.726-27.96c14.572-7.958 35.726-7.958 35.726-7.958z" fill="#fff" stroke="#81EC40" stroke-width="13"/></svg>