<svg width="378" height="440" viewBox="0 0 378 440" fill="none" xmlns="http://www.w3.org/2000/svg">
<path d="M223.025 51.5849C188.361 52.6853 63.2317 60.7553 5 64.6526C16.0044 77.7204 212.708 79.0959 243.658 80.4715C274.608 81.847 361.956 73.5937 369.521 64.6526C377.087 55.7116 266.355 50.2094 223.025 51.5849Z" fill="white" stroke="#D9D9D9" stroke-width="10" stroke-linejoin="round"/>
<path d="M319.831 27.1675C325.352 24.2922 336.364 25.2069 341.18 26.0237L353.399 37.0003C358.891 41.9336 359.2 49.1744 358.667 52.1781C357.186 62.4548 345.331 76.7072 330.715 93.8163C317.326 109.489 297.49 133.433 288.424 134.978C281.918 137.617 266.609 125.478 265.066 124.383C265.391 124.022 263.318 123.058 258.169 118.433C251.169 112.145 253.133 103.871 257.026 97.0843C260.918 90.298 299.176 46.0729 302.097 42.821C305.019 39.569 312.93 30.7617 319.831 27.1675Z" fill="white" stroke="#81EC40" stroke-width="10" stroke-linejoin="round"/>
<path d="M304.144 13.0718C309.665 10.1965 320.677 11.1112 325.493 11.928L337.712 22.9046C343.204 27.8379 343.512 35.0787 342.98 38.0824C341.499 48.3591 329.643 62.6115 315.027 79.7206C301.638 95.3938 281.802 119.338 272.736 120.882C266.23 123.522 250.922 111.382 249.378 110.288C249.703 109.926 247.631 108.963 242.482 104.337C235.482 98.0492 237.445 89.775 241.338 82.9886C245.231 76.2023 283.489 31.9772 286.41 28.7253C289.331 25.4733 297.243 16.666 304.144 13.0718Z" fill="white" stroke="#81EC40" stroke-width="10" stroke-linejoin="round"/>
<path d="M133.591 88.8168C127.856 91.2369 121.54 100.304 119.099 104.535L119.765 120.947C120.064 128.323 125.446 133.177 128.1 134.682C136.961 140.093 155.5 140.046 177.999 139.694C198.61 139.371 229.703 139.355 236.673 133.355C242.854 130.026 243.263 110.493 243.403 108.606C242.918 108.626 243.496 106.415 243.216 99.499C242.834 90.097 235.208 86.3345 227.498 85.0068C219.788 83.679 161.325 84.9572 156.957 85.1344C152.59 85.3116 140.76 85.7916 133.591 88.8168Z" fill="white" stroke="#81EC40" stroke-width="10" stroke-linejoin="round"/>
<path d="M132.982 73.8881C127.247 76.3082 120.931 85.3751 118.49 89.606L119.156 106.018C119.455 113.394 124.837 118.248 127.49 119.753C136.352 125.164 154.891 125.117 177.39 124.765C198.001 124.443 229.094 124.426 236.064 118.426C242.245 115.097 242.653 95.5638 242.794 93.6771C242.308 93.6968 242.887 91.4859 242.606 84.5703C242.225 75.1683 234.598 71.4058 226.888 70.078C219.178 68.7503 160.716 70.0285 156.348 70.2057C151.98 70.3829 140.151 70.8629 132.982 73.8881Z" fill="white" stroke="#81EC40" stroke-width="10" stroke-linejoin="round"/>
<path d="M132.732 67.7416C126.997 70.1617 120.681 79.2286 118.24 83.4595L118.906 99.8715C119.205 107.248 124.587 112.102 127.24 113.607C136.102 119.018 154.641 118.971 177.14 118.619C197.751 118.296 228.844 118.28 235.814 112.28C241.995 108.951 242.403 89.4173 242.544 87.5306C242.058 87.5503 242.637 85.3394 242.356 78.4238C241.975 69.0218 234.348 65.2593 226.638 63.9316C218.928 62.6038 160.466 63.882 156.098 64.0592C151.73 64.2365 139.901 64.7164 132.732 67.7416Z" fill="white" stroke="#81EC40" stroke-width="10" stroke-linejoin="round"/>
<path d="M373 248.536V63.2773C373 63.2773 344.941 75.5344 213.396 75.5344C117.795 75.5344 5 63.2773 5 63.2773C7.70282 119.914 13.1085 238.797 13.1085 261.239V424.267C55.1062 428.502 149.705 436.441 192.119 434.324C234.532 432.207 323.725 426.737 363.02 424.267C362.397 419.68 361.523 403.201 363.02 373.983C364.892 337.46 373 284 373 248.536Z" fill="white" stroke="#D9D9D9" stroke-width="10" stroke-linejoin="round"/>
</svg>
