<svg width="234" height="692" viewBox="0 0 234 692" fill="none" xmlns="http://www.w3.org/2000/svg">
<path d="M5 507.579C5 441.686 45.4855 266.062 65.7283 186.487H142.511C150.887 232.092 168.757 328.745 173.224 350.523C178.808 377.746 208.126 392.405 220.69 423.816C233.254 455.227 228.368 631.828 220.69 654.165C213.012 676.501 155.076 686.972 122.268 686.972C89.4611 686.972 43.3914 675.803 28.7329 672.313C14.0743 668.823 5 589.946 5 507.579Z" fill="white" stroke="#D9D9D9" stroke-width="10"/>
<path d="M64.8614 93.0681V186.487H142.237C140.488 151.164 138.04 77.5913 142.237 65.8791C146.433 54.1669 177.208 45.1969 192.071 42.1759V5.92384C187.481 5.22669 162.826 4.25067 100.926 5.92384C39.026 7.59701 20.491 64.7172 18.9609 93.0681H64.8614Z" fill="white" stroke="#81EC40" stroke-width="10"/>
<path d="M220.692 6.87402H191.375V41.0773H220.692V6.87402Z" fill="white" stroke="#81EC40" stroke-width="10"/>
<path d="M173.92 81.085C173.92 72.7087 181.598 48.7431 185.786 43.3916L168.336 47.5798L152.281 55.258C153.445 74.1047 163.17 103.282 170.43 113.892C184.39 134.296 202.539 152.982 223.48 147.397C206.727 143.874 173.92 97.8376 173.92 81.085Z" fill="white" stroke="#81EC40" stroke-width="10"/>
</svg>
