<svg width="326" height="714" viewBox="0 0 326 714" fill="none" xmlns="http://www.w3.org/2000/svg">
<mask id="mask0_1100_80" style="mask-type:alpha" maskUnits="userSpaceOnUse" x="0" y="0" width="326" height="714">
<rect width="326" height="714" fill="#D9D9D9"/>
</mask>
<g mask="url(#mask0_1100_80)">
<path d="M125.181 203.203C125.239 186.726 140.839 171.581 148.633 166.067L219.869 166.317C228.134 181.523 248.777 216.645 257.222 235.464C267.777 258.988 292.806 355.191 304.791 437.618C316.776 520.045 303.986 667.064 291.658 682.197C279.331 697.33 223.26 702.553 179.487 700.954C135.714 699.355 69.0142 702.012 42.4493 693.608C15.8844 685.204 9.0258 541.006 24.776 483.248C40.5262 425.489 134.297 287.065 138.865 267.93C143.432 248.795 125.109 223.799 125.181 203.203Z" fill="white" stroke="#D9D9D9" stroke-width="10"/>
<path d="M148.977 107.745L148.774 165.581L218.9 165.827L219.102 107.991L185.847 107.875L148.977 107.745Z" fill="white" stroke="#81EC40" stroke-width="10"/>
<path d="M111.492 76.8886C124.775 82.4297 141.774 100.25 148.613 108.468L218.739 108.714C219.599 104.138 223.272 94.198 231.091 91.0444C240.865 87.1025 255.658 95.1069 265.48 77.429C275.302 59.7512 248.967 44.4765 205.292 26.2493C170.352 11.6676 110.005 19.8903 84.1985 25.8244L84.0298 73.9004C91.6208 73.9271 98.2087 71.3475 111.492 76.8886Z" fill="white" stroke="#81EC40" stroke-width="10"/>
<path d="M83.5596 26.4599C74.8749 29.0803 57.6402 37.141 58.179 48.421C58.7178 59.7011 75.2123 70.29 83.3921 74.1745" stroke="#81EC40" stroke-width="10"/>
<path d="M109.334 108.48C118.512 103.417 127.581 94.213 130.969 90.244C117.172 75.5462 103.067 73.0729 97.7386 73.6734C96.6656 75.8812 94.2502 81.1982 93.1724 84.8036C91.825 89.3105 56.0026 128.462 50.644 137.732C45.2854 147.002 42.3495 148.849 50.5965 151.266C58.8435 153.684 69.8196 137.268 79.7035 128.545C89.5874 119.822 97.8605 114.809 109.334 108.48Z" fill="white" stroke="#81EC40" stroke-width="10"/>
</g>
</svg>
