<svg width="195" height="674" viewBox="0 0 195 674" fill="none" xmlns="http://www.w3.org/2000/svg">
<path d="M186.934 122.078L189.297 653.935C173.876 658.687 133.934 668.23 97.5261 668.392C61.118 668.554 23.2597 659.356 8.88152 654.737L6.51855 122.88C23.4899 119.149 65.7326 111.988 98.9326 113.188C132.133 114.388 171.433 119.615 186.934 122.078Z" fill="white" stroke="#D9D9D9" stroke-width="10"/>
<path d="M21.5747 35.8402C16.4211 46.5674 9.94071 100.117 6.52609 124.217C21.1395 120.807 58.3198 111.543 96.6831 112.443C135.046 113.343 173.38 119.685 186.935 122.078C189.287 102.666 184.858 57.0585 154.854 35.2481C124.85 13.4377 62.0789 6.44658 34.4438 5.67734C32.3014 11.262 26.7283 25.1131 21.5747 35.8402Z" fill="white" stroke="#81EC40" stroke-width="10"/>
<ellipse cx="29.2453" cy="61.0919" rx="7" ry="9.5" transform="rotate(-0.254556 29.2453 61.0919)" fill="white" stroke="#81EC40" stroke-width="10"/>
</svg>
