<svg width="198" height="676" fill="none" xmlns="http://www.w3.org/2000/svg"><path d="M188.938 123.079l2.363 531.857c-15.421 4.752-55.363 14.295-91.771 14.457-36.408.162-74.266-9.036-88.645-13.655L8.522 123.881c16.972-3.731 59.215-10.892 92.415-9.692 33.2 1.2 72.5 6.427 88.001 8.89z" fill="#fff" stroke="#81EC40" stroke-width="13"/><path d="M23.575 36.841C18.42 47.568 11.94 101.118 8.526 125.218c14.614-3.41 51.794-12.674 90.157-11.774 38.363.9 76.697 7.242 90.252 9.635 2.352-19.412-2.077-65.02-32.081-86.83-30.004-21.81-92.775-28.801-120.41-29.57-2.143 5.584-7.716 19.435-12.87 30.162z" fill="#fff" stroke="#81EC40" stroke-width="13"/><ellipse cx="31.249" cy="62.094" rx="7" ry="9.5" transform="rotate(-.255 31.25 62.094)" fill="#fff" stroke="#81EC40" stroke-width="13"/></svg>