<svg width="276" height="743" viewBox="0 0 276 743" fill="none" xmlns="http://www.w3.org/2000/svg">
<path d="M257.08 687.104C254.925 708.63 239.648 727.337 230.969 734C222.29 740.663 46.3499 735.227 41.9688 734C29.4688 730.5 9.43033 714.971 7.77729 684.5C1.25514 564.276 7.93098 265.933 10.4688 255.5C19.4688 218.5 41.9688 183.5 67.6365 166.636C93.3043 149.772 126.594 130.247 140.361 117.434L210.392 69C216.378 81.5568 234.095 116.05 257.08 153.566C285.81 200.462 259.773 660.197 257.08 687.104Z" fill="white" stroke="#D9D9D9" stroke-width="10"/>
<path d="M139.32 6C145.986 9.58925 161.163 19.5366 168.547 30.612L125.476 52.9166C127.937 46.1483 119.836 27.5355 115.477 19.0751L139.32 6Z" fill="white" stroke="#81EC40" stroke-width="10"/>
<path d="M182.635 24.4707L215.477 76.5403L141.641 119.611L113.183 60.3887C113.183 60.3887 132.337 40.3887 146.909 32.4297C161.481 24.4707 182.635 24.4707 182.635 24.4707Z" fill="white" stroke="#81EC40" stroke-width="10"/>
</svg>
