<svg width="279" height="746" fill="none" xmlns="http://www.w3.org/2000/svg"><path d="M259.08 689.104c-2.155 21.526-17.432 40.233-26.111 46.896-8.679 6.663-184.62 1.227-189 0-12.5-3.5-32.539-19.029-34.192-49.5-6.522-120.224.154-418.567 2.692-429 9-37 31.5-72 57.167-88.864 25.668-16.864 58.958-36.389 72.725-49.202L212.392 71c5.986 12.557 23.703 47.05 46.688 84.566 28.73 46.896 2.693 506.631 0 533.538zM141.324 8c6.666 3.59 21.843 13.537 29.227 24.612L127.48 54.917c2.461-6.769-5.64-25.382-9.999-33.842L141.324 8z" fill="#fff" stroke="#81EC40" stroke-width="13"/><path d="M184.635 26.469l32.842 52.07-73.836 43.07-28.458-59.222s19.154-20 33.726-27.96c14.572-7.958 35.726-7.958 35.726-7.958z" fill="#fff" stroke="#81EC40" stroke-width="13"/></svg>