<svg width="279" height="746" viewBox="0 0 279 746" fill="none" xmlns="http://www.w3.org/2000/svg">
<path d="M259.08 689.104C256.925 710.63 241.648 729.337 232.969 736C224.29 742.663 48.3499 737.227 43.9688 736C31.4688 732.5 11.4303 716.971 9.77729 686.5C3.25514 566.276 9.93098 267.933 12.4688 257.5C21.4688 220.5 43.9688 185.5 69.6365 168.636C95.3043 151.772 128.594 132.247 142.361 119.434L212.392 71C218.378 83.5568 236.095 118.05 259.08 155.566C287.81 202.462 261.773 662.197 259.08 689.104Z" fill="white" stroke="#81EC40" stroke-width="13"/>
<path d="M141.324 8C147.99 11.5892 163.167 21.5366 170.551 32.612L127.48 54.9166C129.941 48.1483 121.84 29.5355 117.481 21.0751L141.324 8Z" fill="white" stroke="#81EC40" stroke-width="13"/>
<path d="M184.635 26.4687L217.477 78.5384L143.641 121.609L115.183 62.3867C115.183 62.3867 134.337 42.3867 148.909 34.4277C163.481 26.4687 184.635 26.4687 184.635 26.4687Z" fill="white" stroke="#81EC40" stroke-width="13"/>
</svg>
