<svg width="375" height="667" viewBox="0 0 375 667" fill="none" xmlns="http://www.w3.org/2000/svg">
<g clip-path="url(#clip0_62_3)">
<rect width="375" height="667" fill="white"/>
<path d="M100.11 99.12C99.563 99.12 99.1097 99.0467 98.7497 98.9C98.3897 98.7533 98.083 98.56 97.8297 98.32C97.5764 98.08 97.3364 97.82 97.1097 97.54L92.9897 92.48C92.8164 92.2667 92.683 92.1333 92.5897 92.08C92.5097 92.0133 92.3964 91.9733 92.2497 91.96V91.36C93.5297 91.4667 94.5297 91.2867 95.2497 90.82C95.9697 90.3533 96.3297 89.64 96.3297 88.68C96.3297 88.0267 96.183 87.5333 95.8897 87.2C95.5964 86.8533 95.2164 86.62 94.7497 86.5C94.283 86.38 93.7897 86.32 93.2697 86.32C92.7897 86.32 92.4297 86.4 92.1897 86.56C91.963 86.7067 91.8497 87.0867 91.8497 87.7V97C91.8497 97.4533 91.8964 97.7867 91.9897 98C92.0964 98.2133 92.283 98.3533 92.5497 98.42C92.8164 98.4867 93.2097 98.5267 93.7297 98.54V99H88.7497V98.54C89.1097 98.5267 89.3897 98.4867 89.5897 98.42C89.803 98.3533 89.9497 98.2133 90.0297 98C90.1097 97.7867 90.1497 97.4533 90.1497 97V87.7C90.1497 87.2333 90.0964 86.9 89.9897 86.7C89.8964 86.4867 89.7164 86.3467 89.4497 86.28C89.183 86.2133 88.783 86.1733 88.2497 86.16V85.7H90.1497C91.0697 85.7 91.7964 85.6867 92.3297 85.66C92.863 85.62 93.3564 85.6 93.8097 85.6C95.3297 85.6 96.443 85.88 97.1497 86.44C97.8697 86.9867 98.2297 87.6867 98.2297 88.54C98.2297 89.42 97.8897 90.1467 97.2097 90.72C96.543 91.2933 95.6897 91.66 94.6497 91.82V91.86L98.7897 96.94C99.163 97.38 99.463 97.72 99.6897 97.96C99.9297 98.1867 100.156 98.34 100.37 98.42C100.583 98.5 100.836 98.54 101.13 98.54V99C100.956 99.0533 100.783 99.0867 100.61 99.1C100.436 99.1133 100.27 99.12 100.11 99.12ZM105.984 99.3C105.304 99.3 104.651 99.14 104.024 98.82C103.411 98.5 102.904 98.02 102.504 97.38C102.117 96.7267 101.924 95.9 101.924 94.9C101.924 93.8867 102.124 93.0067 102.524 92.26C102.924 91.5133 103.457 90.9333 104.124 90.52C104.791 90.1067 105.517 89.9 106.304 89.9C106.877 89.9 107.404 90.0133 107.884 90.24C108.377 90.4667 108.771 90.8133 109.064 91.28C109.371 91.7467 109.524 92.34 109.524 93.06L103.524 93.84C103.524 93.9067 103.524 93.98 103.524 94.06C103.524 95.2867 103.804 96.2467 104.364 96.94C104.924 97.6333 105.671 97.98 106.604 97.98C107.137 97.98 107.631 97.8733 108.084 97.66C108.537 97.4333 108.944 97.1533 109.304 96.82L109.624 97.14C109.251 97.78 108.751 98.3 108.124 98.7C107.511 99.1 106.797 99.3 105.984 99.3ZM105.884 90.64C105.191 90.64 104.657 90.8867 104.284 91.38C103.911 91.8733 103.677 92.48 103.584 93.2L107.724 92.66C107.644 92.0867 107.471 91.6067 107.204 91.22C106.937 90.8333 106.497 90.64 105.884 90.64ZM115.222 99.3C114.529 99.3 113.869 99.14 113.242 98.82C112.629 98.4867 112.129 97.9933 111.742 97.34C111.356 96.6733 111.162 95.8467 111.162 94.86C111.162 93.8067 111.382 92.9133 111.822 92.18C112.276 91.4333 112.869 90.8667 113.602 90.48C114.336 90.0933 115.116 89.9 115.942 89.9C116.356 89.9 116.802 89.9533 117.282 90.06C117.776 90.1667 118.216 90.3533 118.602 90.62V93.24H118.142C118.076 92.5467 117.902 92.0133 117.622 91.64C117.342 91.2667 117.016 91.0067 116.642 90.86C116.282 90.7133 115.922 90.64 115.562 90.64C114.682 90.64 114.002 90.9733 113.522 91.64C113.042 92.2933 112.802 93.1133 112.802 94.1C112.802 94.8867 112.936 95.5733 113.202 96.16C113.482 96.7333 113.862 97.18 114.342 97.5C114.822 97.82 115.362 97.98 115.962 97.98C116.429 97.98 116.889 97.88 117.342 97.68C117.809 97.4667 118.229 97.18 118.602 96.82L118.922 97.14C118.549 97.7667 118.042 98.2867 117.402 98.7C116.762 99.1 116.036 99.3 115.222 99.3ZM129.156 96.98C129.156 97.4467 129.196 97.7867 129.276 98C129.37 98.2133 129.536 98.3533 129.776 98.42C130.03 98.4867 130.383 98.5267 130.836 98.54V99H126.356V98.54C126.663 98.5267 126.903 98.4867 127.076 98.42C127.25 98.3533 127.37 98.2133 127.436 98C127.516 97.7867 127.556 97.4467 127.556 96.98V92.68C127.556 92.2133 127.456 91.8467 127.256 91.58C127.056 91.3133 126.696 91.18 126.176 91.18C125.75 91.18 125.29 91.2733 124.796 91.46C124.316 91.6467 123.823 91.94 123.316 92.34V96.98C123.316 97.4467 123.363 97.7867 123.456 98C123.55 98.2133 123.716 98.3533 123.956 98.42C124.21 98.4867 124.563 98.5267 125.016 98.54V99H120.516V98.54C120.823 98.5267 121.063 98.4867 121.236 98.42C121.41 98.3533 121.53 98.2133 121.596 98C121.676 97.7867 121.716 97.4467 121.716 96.98V85.86C121.716 85.4867 121.663 85.2467 121.556 85.14C121.45 85.0333 121.296 84.98 121.096 84.98C120.923 84.98 120.736 85.0067 120.536 85.06C120.35 85.1133 120.176 85.18 120.016 85.26L119.816 84.8L123.276 83.2L123.396 83.32C123.383 83.4267 123.363 83.7133 123.336 84.18C123.323 84.6467 123.316 85.2 123.316 85.84V91.72C123.836 91.1867 124.39 90.7533 124.976 90.42C125.563 90.0733 126.203 89.9 126.896 89.9C127.723 89.9 128.303 90.1133 128.636 90.54C128.983 90.9533 129.156 91.5067 129.156 92.2V96.98ZM136.121 99.3C135.441 99.3 134.787 99.14 134.161 98.82C133.547 98.5 133.041 98.02 132.641 97.38C132.254 96.7267 132.061 95.9 132.061 94.9C132.061 93.8867 132.261 93.0067 132.661 92.26C133.061 91.5133 133.594 90.9333 134.261 90.52C134.927 90.1067 135.654 89.9 136.441 89.9C137.014 89.9 137.541 90.0133 138.021 90.24C138.514 90.4667 138.907 90.8133 139.201 91.28C139.507 91.7467 139.661 92.34 139.661 93.06L133.661 93.84C133.661 93.9067 133.661 93.98 133.661 94.06C133.661 95.2867 133.941 96.2467 134.501 96.94C135.061 97.6333 135.807 97.98 136.741 97.98C137.274 97.98 137.767 97.8733 138.221 97.66C138.674 97.4333 139.081 97.1533 139.441 96.82L139.761 97.14C139.387 97.78 138.887 98.3 138.261 98.7C137.647 99.1 136.934 99.3 136.121 99.3ZM136.021 90.64C135.327 90.64 134.794 90.8867 134.421 91.38C134.047 91.8733 133.814 92.48 133.721 93.2L137.861 92.66C137.781 92.0867 137.607 91.6067 137.341 91.22C137.074 90.8333 136.634 90.64 136.021 90.64ZM141.359 99V98.54C141.666 98.5267 141.906 98.4867 142.079 98.42C142.252 98.3533 142.372 98.2133 142.439 98C142.519 97.7867 142.559 97.4467 142.559 96.98V92.4C142.559 92.0533 142.506 91.8267 142.399 91.72C142.292 91.6133 142.146 91.56 141.959 91.56C141.812 91.56 141.666 91.58 141.519 91.62C141.386 91.6467 141.246 91.6933 141.099 91.76L140.899 91.3L144.119 89.8L144.239 89.92C144.212 90.04 144.179 90.3 144.139 90.7C144.112 91.0867 144.099 91.5133 144.099 91.98H144.139C144.686 91.1667 145.286 90.62 145.939 90.34C146.606 90.06 147.299 89.9467 148.019 90C148.126 90.9867 148.126 91.9733 148.019 92.96H147.559C147.506 92.4133 147.379 92.0333 147.179 91.82C146.992 91.5933 146.726 91.48 146.379 91.48C145.939 91.48 145.546 91.5733 145.199 91.76C144.852 91.9467 144.506 92.2533 144.159 92.68V96.98C144.159 97.4467 144.206 97.7867 144.299 98C144.392 98.2133 144.572 98.3533 144.839 98.42C145.119 98.4867 145.526 98.5267 146.059 98.54V99H141.359ZM153.171 99.3C152.478 99.3 151.818 99.14 151.191 98.82C150.578 98.4867 150.078 97.9933 149.691 97.34C149.305 96.6733 149.111 95.8467 149.111 94.86C149.111 93.8067 149.331 92.9133 149.771 92.18C150.225 91.4333 150.818 90.8667 151.551 90.48C152.285 90.0933 153.065 89.9 153.891 89.9C154.305 89.9 154.751 89.9533 155.231 90.06C155.725 90.1667 156.165 90.3533 156.551 90.62V93.24H156.091C156.025 92.5467 155.851 92.0133 155.571 91.64C155.291 91.2667 154.965 91.0067 154.591 90.86C154.231 90.7133 153.871 90.64 153.511 90.64C152.631 90.64 151.951 90.9733 151.471 91.64C150.991 92.2933 150.751 93.1133 150.751 94.1C150.751 94.8867 150.885 95.5733 151.151 96.16C151.431 96.7333 151.811 97.18 152.291 97.5C152.771 97.82 153.311 97.98 153.911 97.98C154.378 97.98 154.838 97.88 155.291 97.68C155.758 97.4667 156.178 97.18 156.551 96.82L156.871 97.14C156.498 97.7667 155.991 98.2867 155.351 98.7C154.711 99.1 153.985 99.3 153.171 99.3ZM167.105 96.98C167.105 97.4467 167.145 97.7867 167.225 98C167.319 98.2133 167.485 98.3533 167.725 98.42C167.979 98.4867 168.332 98.5267 168.785 98.54V99H164.305V98.54C164.612 98.5267 164.852 98.4867 165.025 98.42C165.199 98.3533 165.319 98.2133 165.385 98C165.465 97.7867 165.505 97.4467 165.505 96.98V92.68C165.505 92.2133 165.405 91.8467 165.205 91.58C165.005 91.3133 164.645 91.18 164.125 91.18C163.699 91.18 163.239 91.2733 162.745 91.46C162.265 91.6467 161.772 91.94 161.265 92.34V96.98C161.265 97.4467 161.312 97.7867 161.405 98C161.499 98.2133 161.665 98.3533 161.905 98.42C162.159 98.4867 162.512 98.5267 162.965 98.54V99H158.465V98.54C158.772 98.5267 159.012 98.4867 159.185 98.42C159.359 98.3533 159.479 98.2133 159.545 98C159.625 97.7867 159.665 97.4467 159.665 96.98V85.86C159.665 85.4867 159.612 85.2467 159.505 85.14C159.399 85.0333 159.245 84.98 159.045 84.98C158.872 84.98 158.685 85.0067 158.485 85.06C158.299 85.1133 158.125 85.18 157.965 85.26L157.765 84.8L161.225 83.2L161.345 83.32C161.332 83.4267 161.312 83.7133 161.285 84.18C161.272 84.6467 161.265 85.2 161.265 85.84V91.72C161.785 91.1867 162.339 90.7533 162.925 90.42C163.512 90.0733 164.152 89.9 164.845 89.9C165.672 89.9 166.252 90.1133 166.585 90.54C166.932 90.9533 167.105 91.5067 167.105 92.2V96.98ZM174.07 99.3C173.39 99.3 172.737 99.14 172.11 98.82C171.497 98.5 170.99 98.02 170.59 97.38C170.203 96.7267 170.01 95.9 170.01 94.9C170.01 93.8867 170.21 93.0067 170.61 92.26C171.01 91.5133 171.543 90.9333 172.21 90.52C172.877 90.1067 173.603 89.9 174.39 89.9C174.963 89.9 175.49 90.0133 175.97 90.24C176.463 90.4667 176.857 90.8133 177.15 91.28C177.457 91.7467 177.61 92.34 177.61 93.06L171.61 93.84C171.61 93.9067 171.61 93.98 171.61 94.06C171.61 95.2867 171.89 96.2467 172.45 96.94C173.01 97.6333 173.757 97.98 174.69 97.98C175.223 97.98 175.717 97.8733 176.17 97.66C176.623 97.4333 177.03 97.1533 177.39 96.82L177.71 97.14C177.337 97.78 176.837 98.3 176.21 98.7C175.597 99.1 174.883 99.3 174.07 99.3ZM173.97 90.64C173.277 90.64 172.743 90.8867 172.37 91.38C171.997 91.8733 171.763 92.48 171.67 93.2L175.81 92.66C175.73 92.0867 175.557 91.6067 175.29 91.22C175.023 90.8333 174.583 90.64 173.97 90.64ZM179.308 99V98.54C179.615 98.5267 179.855 98.4867 180.028 98.42C180.201 98.3533 180.321 98.2133 180.388 98C180.468 97.7867 180.508 97.4467 180.508 96.98V92.4C180.508 92.0533 180.455 91.8267 180.348 91.72C180.241 91.6133 180.095 91.56 179.908 91.56C179.761 91.56 179.615 91.58 179.468 91.62C179.335 91.6467 179.195 91.6933 179.048 91.76L178.848 91.3L182.068 89.8L182.188 89.92C182.161 90.04 182.128 90.3 182.088 90.7C182.061 91.0867 182.048 91.5133 182.048 91.98H182.088C182.635 91.1667 183.235 90.62 183.888 90.34C184.555 90.06 185.248 89.9467 185.968 90C186.075 90.9867 186.075 91.9733 185.968 92.96H185.508C185.455 92.4133 185.328 92.0333 185.128 91.82C184.941 91.5933 184.675 91.48 184.328 91.48C183.888 91.48 183.495 91.5733 183.148 91.76C182.801 91.9467 182.455 92.2533 182.108 92.68V96.98C182.108 97.4467 182.155 97.7867 182.248 98C182.341 98.2133 182.521 98.3533 182.788 98.42C183.068 98.4867 183.475 98.5267 184.008 98.54V99H179.308ZM202.899 97.46L203.099 97.92L199.859 99.42L199.739 99.3C199.765 99.18 199.792 98.9467 199.819 98.6C199.859 98.24 199.879 97.86 199.879 97.46H199.839C199.319 97.9933 198.779 98.4333 198.219 98.78C197.672 99.1267 197.052 99.3 196.359 99.3C195.519 99.3 194.932 99.0867 194.599 98.66C194.279 98.2333 194.119 97.68 194.119 97V92.4C194.119 92.0533 194.059 91.8267 193.939 91.72C193.832 91.6133 193.685 91.56 193.499 91.56C193.232 91.56 192.945 91.6267 192.639 91.76L192.439 91.3L195.679 89.8L195.799 89.92C195.785 90.0267 195.765 90.3133 195.739 90.78C195.725 91.2333 195.719 91.7667 195.719 92.38V96.5C195.719 96.9667 195.812 97.3333 195.999 97.6C196.199 97.8667 196.552 98 197.059 98C197.485 98 197.925 97.9133 198.379 97.74C198.845 97.5533 199.325 97.26 199.819 96.86V92.4C199.819 92.0533 199.765 91.8267 199.659 91.72C199.552 91.6133 199.399 91.56 199.199 91.56C199.025 91.56 198.845 91.5933 198.659 91.66C198.472 91.7133 198.305 91.7733 198.159 91.84L197.959 91.38L201.379 89.8L201.499 89.92C201.485 90.0267 201.465 90.3133 201.439 90.78C201.425 91.2333 201.419 91.7667 201.419 92.38V96.76C201.419 97.1333 201.472 97.3733 201.579 97.48C201.699 97.5867 201.852 97.64 202.039 97.64C202.332 97.64 202.619 97.58 202.899 97.46ZM213.026 96.98C213.026 97.4467 213.066 97.7867 213.146 98C213.24 98.2133 213.406 98.3533 213.646 98.42C213.9 98.4867 214.26 98.5267 214.726 98.54V99H210.226V98.54C210.52 98.5267 210.753 98.4867 210.926 98.42C211.1 98.3533 211.226 98.2133 211.306 98C211.386 97.7867 211.426 97.4467 211.426 96.98V92.68C211.426 92.2133 211.32 91.8467 211.106 91.58C210.906 91.3133 210.553 91.18 210.046 91.18C209.606 91.18 209.146 91.2733 208.666 91.46C208.186 91.6467 207.693 91.94 207.186 92.34V96.98C207.186 97.4467 207.226 97.7867 207.306 98C207.4 98.2133 207.566 98.3533 207.806 98.42C208.06 98.4867 208.42 98.5267 208.886 98.54V99H204.386V98.54C204.693 98.5267 204.933 98.4867 205.106 98.42C205.28 98.3533 205.4 98.2133 205.466 98C205.546 97.7867 205.586 97.4467 205.586 96.98V92.44C205.586 92.08 205.533 91.8467 205.426 91.74C205.32 91.62 205.173 91.56 204.986 91.56C204.84 91.56 204.693 91.58 204.546 91.62C204.413 91.6467 204.273 91.6933 204.126 91.76L203.926 91.3L207.146 89.8L207.266 89.92C207.24 90.04 207.206 90.2733 207.166 90.62C207.14 90.9667 207.126 91.3333 207.126 91.72H207.166C207.673 91.1867 208.22 90.7533 208.806 90.42C209.406 90.0733 210.053 89.9 210.746 89.9C211.6 89.9 212.193 90.1133 212.526 90.54C212.86 90.9533 213.026 91.5067 213.026 92.2V96.98ZM226.545 103.04V103.5H221.845V103.04C222.152 103.027 222.392 102.987 222.565 102.92C222.739 102.853 222.859 102.713 222.925 102.5C223.005 102.287 223.045 101.947 223.045 101.48V92.44C223.045 92.08 222.992 91.8467 222.885 91.74C222.779 91.62 222.632 91.56 222.445 91.56C222.299 91.56 222.152 91.58 222.005 91.62C221.872 91.6467 221.732 91.6933 221.585 91.76L221.385 91.3L224.605 89.8L224.725 89.92C224.699 90.04 224.665 90.2733 224.625 90.62C224.599 90.9667 224.585 91.3333 224.585 91.72H224.625V91.74C224.972 91.2467 225.405 90.82 225.925 90.46C226.459 90.0867 227.092 89.9 227.825 89.9C228.452 89.9 229.032 90.0667 229.565 90.4C230.112 90.72 230.545 91.1933 230.865 91.82C231.199 92.4333 231.365 93.1933 231.365 94.1C231.365 94.9533 231.212 95.7067 230.905 96.36C230.612 97 230.212 97.54 229.705 97.98C229.212 98.42 228.659 98.7533 228.045 98.98C227.445 99.1933 226.839 99.3 226.225 99.3C225.919 99.3 225.632 99.28 225.365 99.24C225.112 99.2133 224.872 99.1733 224.645 99.12V101.48C224.645 101.947 224.692 102.287 224.785 102.5C224.879 102.713 225.059 102.853 225.325 102.92C225.605 102.987 226.012 103.027 226.545 103.04ZM226.745 98.4C227.612 98.4 228.325 98.1133 228.885 97.54C229.445 96.9533 229.725 96.0333 229.725 94.78C229.725 93.6333 229.492 92.7333 229.025 92.08C228.559 91.4267 227.952 91.1 227.205 91.1C226.752 91.1 226.305 91.22 225.865 91.46C225.425 91.7 225.019 91.9933 224.645 92.34V97.58C224.965 97.9133 225.319 98.1333 225.705 98.24C226.105 98.3467 226.452 98.4 226.745 98.4ZM233.273 99V98.54C233.58 98.5267 233.82 98.4867 233.993 98.42C234.166 98.3533 234.286 98.2133 234.353 98C234.433 97.7867 234.473 97.4467 234.473 96.98V92.4C234.473 92.0533 234.42 91.8267 234.313 91.72C234.206 91.6133 234.06 91.56 233.873 91.56C233.726 91.56 233.58 91.58 233.433 91.62C233.3 91.6467 233.16 91.6933 233.013 91.76L232.813 91.3L236.033 89.8L236.153 89.92C236.126 90.04 236.093 90.3 236.053 90.7C236.026 91.0867 236.013 91.5133 236.013 91.98H236.053C236.6 91.1667 237.2 90.62 237.853 90.34C238.52 90.06 239.213 89.9467 239.933 90C240.04 90.9867 240.04 91.9733 239.933 92.96H239.473C239.42 92.4133 239.293 92.0333 239.093 91.82C238.906 91.5933 238.64 91.48 238.293 91.48C237.853 91.48 237.46 91.5733 237.113 91.76C236.766 91.9467 236.42 92.2533 236.073 92.68V96.98C236.073 97.4467 236.12 97.7867 236.213 98C236.306 98.2133 236.486 98.3533 236.753 98.42C237.033 98.4867 237.44 98.5267 237.973 98.54V99H233.273ZM245.585 89.9C246.359 89.9 247.065 90.0933 247.705 90.48C248.359 90.8533 248.885 91.38 249.285 92.06C249.685 92.74 249.885 93.5333 249.885 94.44C249.885 95.24 249.745 95.9467 249.465 96.56C249.199 97.16 248.839 97.6667 248.385 98.08C247.932 98.48 247.432 98.7867 246.885 99C246.352 99.2 245.825 99.3 245.305 99.3C244.545 99.3 243.839 99.1133 243.185 98.74C242.532 98.3533 242.005 97.82 241.605 97.14C241.219 96.46 241.025 95.6667 241.025 94.76C241.025 93.96 241.159 93.26 241.425 92.66C241.705 92.0467 242.072 91.54 242.525 91.14C242.979 90.7267 243.472 90.42 244.005 90.22C244.539 90.0067 245.065 89.9 245.585 89.9ZM245.645 98.5C246.432 98.5 247.052 98.22 247.505 97.66C247.959 97.0867 248.185 96.2067 248.185 95.02C248.185 94.2067 248.059 93.4733 247.805 92.82C247.565 92.1667 247.225 91.6533 246.785 91.28C246.345 90.8933 245.832 90.7 245.245 90.7C244.472 90.7 243.859 90.9867 243.405 91.56C242.952 92.12 242.725 92.9933 242.725 94.18C242.725 94.98 242.845 95.7067 243.085 96.36C243.339 97.0133 243.685 97.5333 244.125 97.92C244.565 98.3067 245.072 98.5 245.645 98.5ZM261.529 97.46L261.729 97.92L258.469 99.42L258.349 99.3C258.375 99.18 258.402 98.9467 258.429 98.6C258.469 98.24 258.489 97.86 258.489 97.46H258.469C258.122 97.9533 257.682 98.3867 257.149 98.76C256.629 99.12 256.002 99.3 255.269 99.3C254.642 99.3 254.055 99.14 253.509 98.82C252.975 98.4867 252.542 98.0067 252.209 97.38C251.889 96.7533 251.729 95.9933 251.729 95.1C251.729 94.2467 251.875 93.5 252.169 92.86C252.475 92.2067 252.875 91.66 253.369 91.22C253.875 90.78 254.429 90.4533 255.029 90.24C255.642 90.0133 256.255 89.9 256.869 89.9C257.482 89.9 258.009 89.96 258.449 90.08V85.86C258.449 85.4867 258.389 85.2467 258.269 85.14C258.162 85.0333 258.015 84.98 257.829 84.98C257.655 84.98 257.469 85.0067 257.269 85.06C257.082 85.1133 256.909 85.18 256.749 85.26L256.549 84.8L260.009 83.2L260.129 83.32C260.115 83.4267 260.095 83.7133 260.069 84.18C260.055 84.6467 260.049 85.2 260.049 85.84V96.76C260.049 97.1333 260.102 97.3733 260.209 97.48C260.329 97.5867 260.482 97.64 260.669 97.64C260.949 97.64 261.235 97.58 261.529 97.46ZM255.889 98.1C256.355 98.1 256.802 97.98 257.229 97.74C257.669 97.5 258.075 97.2067 258.449 96.86V91.62C258.129 91.2733 257.769 91.0533 257.369 90.96C256.982 90.8533 256.642 90.8 256.349 90.8C255.495 90.8 254.782 91.0933 254.209 91.68C253.649 92.2533 253.369 93.1667 253.369 94.42C253.369 95.5667 253.602 96.4667 254.069 97.12C254.535 97.7733 255.142 98.1 255.889 98.1ZM272.938 97.46L273.138 97.92L269.898 99.42L269.778 99.3C269.804 99.18 269.831 98.9467 269.858 98.6C269.898 98.24 269.918 97.86 269.918 97.46H269.878C269.358 97.9933 268.818 98.4333 268.258 98.78C267.711 99.1267 267.091 99.3 266.398 99.3C265.558 99.3 264.971 99.0867 264.638 98.66C264.318 98.2333 264.158 97.68 264.158 97V92.4C264.158 92.0533 264.098 91.8267 263.978 91.72C263.871 91.6133 263.724 91.56 263.538 91.56C263.271 91.56 262.984 91.6267 262.678 91.76L262.478 91.3L265.718 89.8L265.838 89.92C265.824 90.0267 265.804 90.3133 265.778 90.78C265.764 91.2333 265.758 91.7667 265.758 92.38V96.5C265.758 96.9667 265.851 97.3333 266.038 97.6C266.238 97.8667 266.591 98 267.098 98C267.524 98 267.964 97.9133 268.418 97.74C268.884 97.5533 269.364 97.26 269.858 96.86V92.4C269.858 92.0533 269.804 91.8267 269.698 91.72C269.591 91.6133 269.438 91.56 269.238 91.56C269.064 91.56 268.884 91.5933 268.698 91.66C268.511 91.7133 268.344 91.7733 268.198 91.84L267.998 91.38L271.418 89.8L271.538 89.92C271.524 90.0267 271.504 90.3133 271.478 90.78C271.464 91.2333 271.458 91.7667 271.458 92.38V96.76C271.458 97.1333 271.511 97.3733 271.618 97.48C271.738 97.5867 271.891 97.64 272.078 97.64C272.371 97.64 272.658 97.58 272.938 97.46ZM277.245 96.98C277.245 97.4467 277.292 97.7867 277.385 98C277.479 98.2133 277.645 98.3533 277.885 98.42C278.139 98.4867 278.492 98.5267 278.945 98.54V99H274.445V98.54C274.739 98.5267 274.972 98.4867 275.145 98.42C275.319 98.3533 275.445 98.2133 275.525 98C275.605 97.7867 275.645 97.4467 275.645 96.98V92.46C275.645 92.0867 275.585 91.8467 275.465 91.74C275.359 91.62 275.212 91.56 275.025 91.56C274.852 91.56 274.665 91.5933 274.465 91.66C274.279 91.7133 274.105 91.7733 273.945 91.84L273.745 91.38L277.205 89.8L277.325 89.92C277.312 90.0267 277.292 90.3133 277.265 90.78C277.252 91.2467 277.245 91.8 277.245 92.44V96.98ZM276.445 87.92C276.152 87.92 275.905 87.82 275.705 87.62C275.505 87.42 275.405 87.1733 275.405 86.88C275.405 86.6 275.505 86.36 275.705 86.16C275.905 85.96 276.152 85.86 276.445 85.86C276.739 85.86 276.985 85.96 277.185 86.16C277.385 86.36 277.485 86.6 277.485 86.88C277.485 87.1733 277.385 87.42 277.185 87.62C276.985 87.82 276.739 87.92 276.445 87.92ZM285.745 97.26L286.065 97.58C285.745 98.06 285.378 98.4667 284.965 98.8C284.551 99.1333 284.011 99.3 283.345 99.3C282.811 99.3 282.385 99.1933 282.065 98.98C281.758 98.7667 281.538 98.4867 281.405 98.14C281.271 97.78 281.205 97.3933 281.205 96.98V91.02H279.825V90.2H281.205V87.46L282.905 87.16C282.865 87.6667 282.838 88.1733 282.825 88.68C282.811 89.1867 282.805 89.6933 282.805 90.2H285.765V91.02H283.425C283.198 91.02 283.038 91.0667 282.945 91.16C282.851 91.2533 282.805 91.4133 282.805 91.64V96.56C282.805 96.9867 282.878 97.3533 283.025 97.66C283.185 97.9667 283.505 98.12 283.985 98.12C284.265 98.12 284.551 98.0533 284.845 97.92C285.138 97.7733 285.438 97.5533 285.745 97.26Z" fill="black"/>
<rect x="47" y="169" width="281" height="46" fill="#C4C4C4"/>
<rect x="47" y="280" width="281" height="46" fill="#C4C4C4"/>
<path d="M48.82 140.7H59.6V143.82H59.14C59.1133 143.353 59.04 142.94 58.92 142.58C58.8 142.22 58.5733 141.94 58.24 141.74C57.9067 141.527 57.4 141.42 56.72 141.42H55.06V152C55.06 152.453 55.1067 152.787 55.2 153C55.3067 153.213 55.4933 153.353 55.76 153.42C56.04 153.487 56.44 153.527 56.96 153.54V154H51.96V153.54C52.32 153.527 52.6 153.487 52.8 153.42C53.0133 153.353 53.16 153.213 53.24 153C53.32 152.787 53.36 152.453 53.36 152V141.42H51.68C51.0133 141.42 50.5133 141.527 50.18 141.74C49.8467 141.94 49.62 142.22 49.5 142.58C49.38 142.94 49.3067 143.353 49.28 143.82H48.82V140.7ZM61.0011 158.7C60.5478 158.7 60.1878 158.553 59.9211 158.26C59.6544 157.98 59.5211 157.587 59.5211 157.08C59.5211 156.853 59.5478 156.627 59.6011 156.4C59.6544 156.173 59.7278 155.94 59.8211 155.7H60.2811C60.3211 156.273 60.4211 156.7 60.5811 156.98C60.7411 157.26 61.0011 157.4 61.3611 157.4C61.7611 157.4 62.1744 157.093 62.6011 156.48C63.0411 155.88 63.5478 155 64.1211 153.84L61.1411 147.16C60.9411 146.707 60.7611 146.38 60.6011 146.18C60.4544 145.98 60.2944 145.847 60.1211 145.78C59.9611 145.713 59.7611 145.673 59.5211 145.66V145.2H63.7811V145.66C63.3411 145.673 63.0278 145.72 62.8411 145.8C62.6678 145.867 62.5944 146.007 62.6211 146.22C62.6478 146.42 62.7478 146.733 62.9211 147.16L64.9211 151.76H64.9611L66.8211 147.16C67.0878 146.533 67.1278 146.133 66.9411 145.96C66.7544 145.787 66.3078 145.687 65.6011 145.66V145.2H69.1611V145.66C68.9611 145.673 68.7811 145.72 68.6211 145.8C68.4611 145.867 68.3078 146.007 68.1611 146.22C68.0278 146.42 67.8744 146.733 67.7011 147.16L65.5611 152.42C65.0011 153.807 64.4944 154.967 64.0411 155.9C63.6011 156.833 63.1411 157.533 62.6611 158C62.1944 158.467 61.6411 158.7 61.0011 158.7ZM74.5375 158.04V158.5H69.8375V158.04C70.1442 158.027 70.3842 157.987 70.5575 157.92C70.7308 157.853 70.8508 157.713 70.9175 157.5C70.9975 157.287 71.0375 156.947 71.0375 156.48V147.44C71.0375 147.08 70.9842 146.847 70.8775 146.74C70.7708 146.62 70.6242 146.56 70.4375 146.56C70.2908 146.56 70.1442 146.58 69.9975 146.62C69.8642 146.647 69.7242 146.693 69.5775 146.76L69.3775 146.3L72.5975 144.8L72.7175 144.92C72.6908 145.04 72.6575 145.273 72.6175 145.62C72.5908 145.967 72.5775 146.333 72.5775 146.72H72.6175V146.74C72.9642 146.247 73.3975 145.82 73.9175 145.46C74.4508 145.087 75.0842 144.9 75.8175 144.9C76.4442 144.9 77.0242 145.067 77.5575 145.4C78.1042 145.72 78.5375 146.193 78.8575 146.82C79.1908 147.433 79.3575 148.193 79.3575 149.1C79.3575 149.953 79.2042 150.707 78.8975 151.36C78.6042 152 78.2042 152.54 77.6975 152.98C77.2042 153.42 76.6508 153.753 76.0375 153.98C75.4375 154.193 74.8308 154.3 74.2175 154.3C73.9108 154.3 73.6242 154.28 73.3575 154.24C73.1042 154.213 72.8642 154.173 72.6375 154.12V156.48C72.6375 156.947 72.6842 157.287 72.7775 157.5C72.8708 157.713 73.0508 157.853 73.3175 157.92C73.5975 157.987 74.0042 158.027 74.5375 158.04ZM74.7375 153.4C75.6042 153.4 76.3175 153.113 76.8775 152.54C77.4375 151.953 77.7175 151.033 77.7175 149.78C77.7175 148.633 77.4842 147.733 77.0175 147.08C76.5508 146.427 75.9442 146.1 75.1975 146.1C74.7442 146.1 74.2975 146.22 73.8575 146.46C73.4175 146.7 73.0108 146.993 72.6375 147.34V152.58C72.9575 152.913 73.3108 153.133 73.6975 153.24C74.0975 153.347 74.4442 153.4 74.7375 153.4ZM85.2652 154.3C84.5852 154.3 83.9318 154.14 83.3052 153.82C82.6918 153.5 82.1852 153.02 81.7852 152.38C81.3985 151.727 81.2052 150.9 81.2052 149.9C81.2052 148.887 81.4052 148.007 81.8052 147.26C82.2052 146.513 82.7385 145.933 83.4052 145.52C84.0718 145.107 84.7985 144.9 85.5852 144.9C86.1585 144.9 86.6852 145.013 87.1652 145.24C87.6585 145.467 88.0518 145.813 88.3452 146.28C88.6518 146.747 88.8052 147.34 88.8052 148.06L82.8052 148.84C82.8052 148.907 82.8052 148.98 82.8052 149.06C82.8052 150.287 83.0852 151.247 83.6452 151.94C84.2052 152.633 84.9518 152.98 85.8852 152.98C86.4185 152.98 86.9118 152.873 87.3652 152.66C87.8185 152.433 88.2252 152.153 88.5852 151.82L88.9052 152.14C88.5318 152.78 88.0318 153.3 87.4052 153.7C86.7918 154.1 86.0785 154.3 85.2652 154.3ZM85.1652 145.64C84.4718 145.64 83.9385 145.887 83.5652 146.38C83.1918 146.873 82.9585 147.48 82.8652 148.2L87.0052 147.66C86.9252 147.087 86.7518 146.607 86.4852 146.22C86.2185 145.833 85.7785 145.64 85.1652 145.64Z" fill="black"/>
<path d="M56.64 265.16C56.5333 264.853 56.4067 264.547 56.26 264.24C56.1133 263.92 55.9133 263.48 55.66 262.92L51.84 254.42H51.8L51.4 263C51.3867 263.493 51.5 263.867 51.74 264.12C51.98 264.373 52.5067 264.513 53.32 264.54V265H49.06V264.54C49.58 264.513 49.94 264.373 50.14 264.12C50.3533 263.867 50.4667 263.493 50.48 263L50.94 253.7C50.9667 253.233 50.9333 252.9 50.84 252.7C50.76 252.487 50.5933 252.347 50.34 252.28C50.0867 252.213 49.7067 252.173 49.2 252.16V251.7H52.6C52.7067 252.047 52.82 252.373 52.94 252.68C53.0733 252.987 53.2267 253.327 53.4 253.7L57.44 262.58H57.48L61.2 253.7C61.3467 253.353 61.4733 253.02 61.58 252.7C61.7 252.367 61.8067 252.033 61.9 251.7H65.06V252.16C64.6867 252.173 64.3933 252.213 64.18 252.28C63.9667 252.347 63.82 252.487 63.74 252.7C63.6733 252.9 63.6467 253.233 63.66 253.7L64.08 263C64.1067 263.453 64.1667 263.787 64.26 264C64.3533 264.213 64.52 264.353 64.76 264.42C65.0133 264.473 65.36 264.513 65.8 264.54V265H61.16V264.54C61.48 264.513 61.7333 264.473 61.92 264.42C62.1067 264.353 62.2333 264.213 62.3 264C62.38 263.787 62.4067 263.453 62.38 263L62 254.28H61.96L58.3 262.92C58.0733 263.48 57.8933 263.92 57.76 264.24C57.64 264.547 57.54 264.853 57.46 265.16H56.64ZM69.7147 265.3C69.088 265.3 68.5747 265.14 68.1747 264.82C67.788 264.487 67.5947 264.013 67.5947 263.4C67.5947 262.907 67.748 262.453 68.0547 262.04C68.3614 261.627 68.868 261.247 69.5747 260.9C70.2814 260.553 71.2414 260.233 72.4547 259.94V258.64C72.4547 258.093 72.3347 257.64 72.0947 257.28C71.868 256.92 71.428 256.74 70.7747 256.74C70.148 256.74 69.648 256.94 69.2747 257.34C68.9147 257.727 68.6614 258.333 68.5147 259.16H68.0547V256.66C68.5214 256.433 69.0147 256.253 69.5347 256.12C70.068 255.973 70.6547 255.9 71.2947 255.9C72.028 255.9 72.588 256 72.9747 256.2C73.3747 256.387 73.6547 256.653 73.8147 257C73.9747 257.347 74.0547 257.753 74.0547 258.22V263.06C74.0547 263.767 74.2747 264.12 74.7147 264.12C74.8747 264.12 75.0547 264.067 75.2547 263.96C75.468 263.853 75.7147 263.633 75.9947 263.3L76.3147 263.62C75.7014 264.673 74.968 265.2 74.1147 265.2C73.2347 265.2 72.6947 264.753 72.4947 263.86H72.4547C71.7214 264.82 70.808 265.3 69.7147 265.3ZM70.4547 264.12C71.0947 264.12 71.7614 263.827 72.4547 263.24V260.56C71.4947 260.8 70.788 261.067 70.3347 261.36C69.8814 261.64 69.5814 261.927 69.4347 262.22C69.3014 262.5 69.2347 262.76 69.2347 263C69.2347 263.387 69.3547 263.673 69.5947 263.86C69.8347 264.033 70.1214 264.12 70.4547 264.12ZM80.1241 269.7C79.5774 269.7 79.0641 269.633 78.5841 269.5C78.1041 269.367 77.7174 269.153 77.4241 268.86C77.1307 268.567 76.9841 268.18 76.9841 267.7C76.9841 266.887 77.4774 266.187 78.4641 265.6L78.9241 265.68C78.7507 265.933 78.6174 266.207 78.5241 266.5C78.4307 266.807 78.3841 267.093 78.3841 267.36C78.3841 267.867 78.5641 268.26 78.9241 268.54C79.2841 268.833 79.8307 268.98 80.5641 268.98C81.2574 268.98 81.8707 268.86 82.4041 268.62C82.9507 268.38 83.3841 268.06 83.7041 267.66C84.0241 267.26 84.1841 266.827 84.1841 266.36C84.1841 266.053 84.0974 265.813 83.9241 265.64C83.7641 265.467 83.4641 265.347 83.0241 265.28L78.7641 264.56C78.2174 264.453 77.9441 264.087 77.9441 263.46C77.9441 263.113 78.0574 262.753 78.2841 262.38C78.5241 262.007 78.8774 261.633 79.3441 261.26C78.7974 261.087 78.3307 260.807 77.9441 260.42C77.5574 260.02 77.3641 259.5 77.3641 258.86C77.3641 258.247 77.5441 257.72 77.9041 257.28C78.2641 256.84 78.7307 256.5 79.3041 256.26C79.8774 256.02 80.4841 255.9 81.1241 255.9C81.5907 255.9 82.0574 255.967 82.5241 256.1C82.9907 256.233 83.3907 256.44 83.7241 256.72C84.0574 256.64 84.3374 256.427 84.5641 256.08C84.7907 255.733 84.9374 255.26 85.0041 254.66H85.4241C85.5441 254.807 85.6307 255 85.6841 255.24C85.7507 255.467 85.7841 255.673 85.7841 255.86C85.7841 256.26 85.6507 256.573 85.3841 256.8C85.1307 257.013 84.7241 257.14 84.1641 257.18C84.4441 257.58 84.5841 258.033 84.5841 258.54C84.5841 259.14 84.4041 259.667 84.0441 260.12C83.6841 260.56 83.2174 260.9 82.6441 261.14C82.0707 261.38 81.4641 261.5 80.8241 261.5C80.5041 261.5 80.1907 261.467 79.8841 261.4C79.6974 261.56 79.5441 261.74 79.4241 261.94C79.3174 262.14 79.2641 262.34 79.2641 262.54C79.2641 262.687 79.3041 262.82 79.3841 262.94C79.4774 263.06 79.6107 263.133 79.7841 263.16L83.9441 263.86C84.5441 263.953 85.0041 264.14 85.3241 264.42C85.6441 264.687 85.8041 265.08 85.8041 265.6C85.8041 266.067 85.6707 266.54 85.4041 267.02C85.1374 267.5 84.7574 267.94 84.2641 268.34C83.7707 268.753 83.1707 269.08 82.4641 269.32C81.7707 269.573 80.9907 269.7 80.1241 269.7ZM81.0841 260.82C81.6841 260.82 82.1507 260.627 82.4841 260.24C82.8174 259.853 82.9841 259.373 82.9841 258.8C82.9841 258.147 82.7841 257.613 82.3841 257.2C81.9974 256.787 81.4907 256.58 80.8641 256.58C80.2641 256.58 79.7974 256.773 79.4641 257.16C79.1307 257.533 78.9641 258.013 78.9641 258.6C78.9641 259.253 79.1641 259.787 79.5641 260.2C79.9641 260.613 80.4707 260.82 81.0841 260.82ZM89.2459 265.3C88.6193 265.3 88.1059 265.14 87.7059 264.82C87.3193 264.487 87.1259 264.013 87.1259 263.4C87.1259 262.907 87.2793 262.453 87.5859 262.04C87.8926 261.627 88.3993 261.247 89.1059 260.9C89.8126 260.553 90.7726 260.233 91.9859 259.94V258.64C91.9859 258.093 91.8659 257.64 91.6259 257.28C91.3993 256.92 90.9593 256.74 90.3059 256.74C89.6793 256.74 89.1793 256.94 88.8059 257.34C88.4459 257.727 88.1926 258.333 88.0459 259.16H87.5859V256.66C88.0526 256.433 88.5459 256.253 89.0659 256.12C89.5993 255.973 90.1859 255.9 90.8259 255.9C91.5593 255.9 92.1193 256 92.5059 256.2C92.9059 256.387 93.1859 256.653 93.3459 257C93.5059 257.347 93.5859 257.753 93.5859 258.22V263.06C93.5859 263.767 93.8059 264.12 94.2459 264.12C94.4059 264.12 94.5859 264.067 94.7859 263.96C94.9993 263.853 95.2459 263.633 95.5259 263.3L95.8459 263.62C95.2326 264.673 94.4993 265.2 93.6459 265.2C92.7659 265.2 92.2259 264.753 92.0259 263.86H91.9859C91.2526 264.82 90.3393 265.3 89.2459 265.3ZM89.9859 264.12C90.6259 264.12 91.2926 263.827 91.9859 263.24V260.56C91.0259 260.8 90.3193 261.067 89.8659 261.36C89.4126 261.64 89.1126 261.927 88.9659 262.22C88.8326 262.5 88.7659 262.76 88.7659 263C88.7659 263.387 88.8859 263.673 89.1259 263.86C89.3659 264.033 89.6526 264.12 89.9859 264.12ZM99.5153 265.3C98.5686 265.3 97.842 265.12 97.3353 264.76C96.8286 264.4 96.5753 263.94 96.5753 263.38C96.5753 263.18 96.6153 262.96 96.6953 262.72C96.7753 262.467 96.9153 262.22 97.1153 261.98H97.5753C97.5886 262.833 97.7686 263.487 98.1153 263.94C98.462 264.393 99.0086 264.62 99.7553 264.62C100.422 264.62 100.915 264.46 101.235 264.14C101.555 263.82 101.715 263.453 101.715 263.04C101.715 262.667 101.595 262.36 101.355 262.12C101.129 261.88 100.829 261.673 100.455 261.5C100.095 261.313 99.7086 261.14 99.2953 260.98C98.882 260.807 98.4886 260.62 98.1153 260.42C97.7553 260.207 97.4553 259.947 97.2153 259.64C96.9886 259.333 96.8753 258.947 96.8753 258.48C96.8753 257.747 97.1686 257.133 97.7553 256.64C98.342 256.147 99.162 255.9 100.215 255.9C100.629 255.9 101.049 255.94 101.475 256.02C101.902 256.087 102.302 256.227 102.675 256.44V258.74H102.215C102.122 257.953 101.869 257.4 101.455 257.08C101.042 256.747 100.555 256.58 99.9953 256.58C99.4486 256.58 99.0353 256.7 98.7553 256.94C98.4753 257.18 98.3353 257.493 98.3353 257.88C98.3353 258.24 98.4486 258.54 98.6753 258.78C98.9153 259.007 99.2153 259.207 99.5753 259.38C99.9486 259.553 100.335 259.727 100.735 259.9C101.149 260.06 101.535 260.253 101.895 260.48C102.269 260.693 102.569 260.967 102.795 261.3C103.035 261.62 103.155 262.027 103.155 262.52C103.155 263.413 102.809 264.1 102.115 264.58C101.422 265.06 100.555 265.3 99.5153 265.3ZM107.718 262.98C107.718 263.447 107.765 263.787 107.858 264C107.951 264.213 108.118 264.353 108.358 264.42C108.611 264.487 108.965 264.527 109.418 264.54V265H104.918V264.54C105.211 264.527 105.445 264.487 105.618 264.42C105.791 264.353 105.918 264.213 105.998 264C106.078 263.787 106.118 263.447 106.118 262.98V258.46C106.118 258.087 106.058 257.847 105.938 257.74C105.831 257.62 105.685 257.56 105.498 257.56C105.325 257.56 105.138 257.593 104.938 257.66C104.751 257.713 104.578 257.773 104.418 257.84L104.218 257.38L107.678 255.8L107.798 255.92C107.785 256.027 107.765 256.313 107.738 256.78C107.725 257.247 107.718 257.8 107.718 258.44V262.98ZM106.918 253.92C106.625 253.92 106.378 253.82 106.178 253.62C105.978 253.42 105.878 253.173 105.878 252.88C105.878 252.6 105.978 252.36 106.178 252.16C106.378 251.96 106.625 251.86 106.918 251.86C107.211 251.86 107.458 251.96 107.658 252.16C107.858 252.36 107.958 252.6 107.958 252.88C107.958 253.173 107.858 253.42 107.658 253.62C107.458 253.82 107.211 253.92 106.918 253.92ZM119.397 262.98C119.397 263.447 119.437 263.787 119.517 264C119.611 264.213 119.777 264.353 120.017 264.42C120.271 264.487 120.631 264.527 121.097 264.54V265H116.597V264.54C116.891 264.527 117.124 264.487 117.297 264.42C117.471 264.353 117.597 264.213 117.677 264C117.757 263.787 117.797 263.447 117.797 262.98V258.68C117.797 258.213 117.691 257.847 117.477 257.58C117.277 257.313 116.924 257.18 116.417 257.18C115.977 257.18 115.517 257.273 115.037 257.46C114.557 257.647 114.064 257.94 113.557 258.34V262.98C113.557 263.447 113.597 263.787 113.677 264C113.771 264.213 113.937 264.353 114.177 264.42C114.431 264.487 114.791 264.527 115.257 264.54V265H110.757V264.54C111.064 264.527 111.304 264.487 111.477 264.42C111.651 264.353 111.771 264.213 111.837 264C111.917 263.787 111.957 263.447 111.957 262.98V258.44C111.957 258.08 111.904 257.847 111.797 257.74C111.691 257.62 111.544 257.56 111.357 257.56C111.211 257.56 111.064 257.58 110.917 257.62C110.784 257.647 110.644 257.693 110.497 257.76L110.297 257.3L113.517 255.8L113.637 255.92C113.611 256.04 113.577 256.273 113.537 256.62C113.511 256.967 113.497 257.333 113.497 257.72H113.537C114.044 257.187 114.591 256.753 115.177 256.42C115.777 256.073 116.424 255.9 117.117 255.9C117.971 255.9 118.564 256.113 118.897 256.54C119.231 256.953 119.397 257.507 119.397 258.2V262.98Z" fill="black"/>
<path d="M60.66 195.98C60.66 196.447 60.7067 196.787 60.8 197C60.8933 197.213 61.06 197.353 61.3 197.42C61.5533 197.487 61.9067 197.527 62.36 197.54V198H57.86V197.54C58.1533 197.527 58.3867 197.487 58.56 197.42C58.7333 197.353 58.86 197.213 58.94 197C59.02 196.787 59.06 196.447 59.06 195.98V184.86C59.06 184.487 59 184.247 58.88 184.14C58.7733 184.033 58.6267 183.98 58.44 183.98C58.2667 183.98 58.08 184.007 57.88 184.06C57.6933 184.113 57.52 184.18 57.36 184.26L57.16 183.8L60.62 182.2L60.74 182.32C60.7267 182.427 60.7067 182.713 60.68 183.18C60.6667 183.647 60.66 184.2 60.66 184.84V195.98ZM67.7027 198.3C67.0227 198.3 66.3693 198.14 65.7427 197.82C65.1293 197.5 64.6227 197.02 64.2227 196.38C63.836 195.727 63.6427 194.9 63.6427 193.9C63.6427 192.887 63.8427 192.007 64.2427 191.26C64.6427 190.513 65.176 189.933 65.8427 189.52C66.5093 189.107 67.236 188.9 68.0227 188.9C68.596 188.9 69.1227 189.013 69.6027 189.24C70.096 189.467 70.4893 189.813 70.7827 190.28C71.0893 190.747 71.2427 191.34 71.2427 192.06L65.2427 192.84C65.2427 192.907 65.2427 192.98 65.2427 193.06C65.2427 194.287 65.5227 195.247 66.0827 195.94C66.6427 196.633 67.3893 196.98 68.3227 196.98C68.856 196.98 69.3493 196.873 69.8027 196.66C70.256 196.433 70.6627 196.153 71.0227 195.82L71.3427 196.14C70.9693 196.78 70.4693 197.3 69.8427 197.7C69.2293 198.1 68.516 198.3 67.7027 198.3ZM67.6027 189.64C66.9093 189.64 66.376 189.887 66.0027 190.38C65.6293 190.873 65.396 191.48 65.3027 192.2L69.4427 191.66C69.3627 191.087 69.1893 190.607 68.9227 190.22C68.656 189.833 68.216 189.64 67.6027 189.64ZM75.7809 198.3C74.8343 198.3 74.1076 198.12 73.6009 197.76C73.0943 197.4 72.8409 196.94 72.8409 196.38C72.8409 196.18 72.8809 195.96 72.9609 195.72C73.0409 195.467 73.1809 195.22 73.3809 194.98H73.8409C73.8543 195.833 74.0343 196.487 74.3809 196.94C74.7276 197.393 75.2743 197.62 76.0209 197.62C76.6876 197.62 77.1809 197.46 77.5009 197.14C77.8209 196.82 77.9809 196.453 77.9809 196.04C77.9809 195.667 77.8609 195.36 77.6209 195.12C77.3943 194.88 77.0943 194.673 76.7209 194.5C76.3609 194.313 75.9743 194.14 75.5609 193.98C75.1476 193.807 74.7543 193.62 74.3809 193.42C74.0209 193.207 73.7209 192.947 73.4809 192.64C73.2543 192.333 73.1409 191.947 73.1409 191.48C73.1409 190.747 73.4343 190.133 74.0209 189.64C74.6076 189.147 75.4276 188.9 76.4809 188.9C76.8943 188.9 77.3143 188.94 77.7409 189.02C78.1676 189.087 78.5676 189.227 78.9409 189.44V191.74H78.4809C78.3876 190.953 78.1343 190.4 77.7209 190.08C77.3076 189.747 76.8209 189.58 76.2609 189.58C75.7143 189.58 75.3009 189.7 75.0209 189.94C74.7409 190.18 74.6009 190.493 74.6009 190.88C74.6009 191.24 74.7143 191.54 74.9409 191.78C75.1809 192.007 75.4809 192.207 75.8409 192.38C76.2143 192.553 76.6009 192.727 77.0009 192.9C77.4143 193.06 77.8009 193.253 78.1609 193.48C78.5343 193.693 78.8343 193.967 79.0609 194.3C79.3009 194.62 79.4209 195.027 79.4209 195.52C79.4209 196.413 79.0743 197.1 78.3809 197.58C77.6876 198.06 76.8209 198.3 75.7809 198.3ZM84.0036 198.3C83.0569 198.3 82.3303 198.12 81.8236 197.76C81.3169 197.4 81.0636 196.94 81.0636 196.38C81.0636 196.18 81.1036 195.96 81.1836 195.72C81.2636 195.467 81.4036 195.22 81.6036 194.98H82.0636C82.0769 195.833 82.2569 196.487 82.6036 196.94C82.9503 197.393 83.4969 197.62 84.2436 197.62C84.9103 197.62 85.4036 197.46 85.7236 197.14C86.0436 196.82 86.2036 196.453 86.2036 196.04C86.2036 195.667 86.0836 195.36 85.8436 195.12C85.6169 194.88 85.3169 194.673 84.9436 194.5C84.5836 194.313 84.1969 194.14 83.7836 193.98C83.3703 193.807 82.9769 193.62 82.6036 193.42C82.2436 193.207 81.9436 192.947 81.7036 192.64C81.4769 192.333 81.3636 191.947 81.3636 191.48C81.3636 190.747 81.6569 190.133 82.2436 189.64C82.8303 189.147 83.6503 188.9 84.7036 188.9C85.1169 188.9 85.5369 188.94 85.9636 189.02C86.3903 189.087 86.7903 189.227 87.1636 189.44V191.74H86.7036C86.6103 190.953 86.3569 190.4 85.9436 190.08C85.5303 189.747 85.0436 189.58 84.4836 189.58C83.9369 189.58 83.5236 189.7 83.2436 189.94C82.9636 190.18 82.8236 190.493 82.8236 190.88C82.8236 191.24 82.9369 191.54 83.1636 191.78C83.4036 192.007 83.7036 192.207 84.0636 192.38C84.4369 192.553 84.8236 192.727 85.2236 192.9C85.6369 193.06 86.0236 193.253 86.3836 193.48C86.7569 193.693 87.0569 193.967 87.2836 194.3C87.5236 194.62 87.6436 195.027 87.6436 195.52C87.6436 196.413 87.2969 197.1 86.6036 197.58C85.9103 198.06 85.0436 198.3 84.0036 198.3ZM92.2063 195.98C92.2063 196.447 92.2529 196.787 92.3463 197C92.4396 197.213 92.6063 197.353 92.8463 197.42C93.0996 197.487 93.4529 197.527 93.9063 197.54V198H89.4063V197.54C89.6996 197.527 89.9329 197.487 90.1063 197.42C90.2796 197.353 90.4063 197.213 90.4863 197C90.5663 196.787 90.6063 196.447 90.6063 195.98V191.46C90.6063 191.087 90.5463 190.847 90.4263 190.74C90.3196 190.62 90.1729 190.56 89.9863 190.56C89.8129 190.56 89.6263 190.593 89.4263 190.66C89.2396 190.713 89.0663 190.773 88.9063 190.84L88.7063 190.38L92.1663 188.8L92.2863 188.92C92.2729 189.027 92.2529 189.313 92.2263 189.78C92.2129 190.247 92.2063 190.8 92.2063 191.44V195.98ZM91.4063 186.92C91.1129 186.92 90.8663 186.82 90.6663 186.62C90.4663 186.42 90.3663 186.173 90.3663 185.88C90.3663 185.6 90.4663 185.36 90.6663 185.16C90.8663 184.96 91.1129 184.86 91.4063 184.86C91.6996 184.86 91.9463 184.96 92.1463 185.16C92.3463 185.36 92.4463 185.6 92.4463 185.88C92.4463 186.173 92.3463 186.42 92.1463 186.62C91.9463 186.82 91.6996 186.92 91.4063 186.92ZM98.3498 198.2C98.2565 197.853 98.1632 197.553 98.0698 197.3C97.9898 197.047 97.8765 196.753 97.7298 196.42L95.4898 191.16C95.3032 190.707 95.1298 190.38 94.9698 190.18C94.8232 189.98 94.6632 189.847 94.4898 189.78C94.3298 189.713 94.1298 189.673 93.8898 189.66V189.2H98.1098V189.66C97.6565 189.673 97.3365 189.72 97.1498 189.8C96.9632 189.867 96.8832 190.007 96.9098 190.22C96.9365 190.42 97.0365 190.733 97.2098 191.16L99.1498 195.76H99.1898L101.09 191.16C101.357 190.533 101.403 190.133 101.23 189.96C101.07 189.787 100.637 189.687 99.9298 189.66V189.2H103.47V189.66C103.27 189.673 103.09 189.72 102.93 189.8C102.77 189.867 102.617 190.007 102.47 190.22C102.337 190.42 102.177 190.733 101.99 191.16L99.7698 196.42C99.6232 196.78 99.5165 197.08 99.4498 197.32C99.3832 197.56 99.3098 197.853 99.2298 198.2H98.3498ZM108.347 198.3C107.667 198.3 107.014 198.14 106.387 197.82C105.774 197.5 105.267 197.02 104.867 196.38C104.481 195.727 104.287 194.9 104.287 193.9C104.287 192.887 104.487 192.007 104.887 191.26C105.287 190.513 105.821 189.933 106.487 189.52C107.154 189.107 107.881 188.9 108.667 188.9C109.241 188.9 109.767 189.013 110.247 189.24C110.741 189.467 111.134 189.813 111.427 190.28C111.734 190.747 111.887 191.34 111.887 192.06L105.887 192.84C105.887 192.907 105.887 192.98 105.887 193.06C105.887 194.287 106.167 195.247 106.727 195.94C107.287 196.633 108.034 196.98 108.967 196.98C109.501 196.98 109.994 196.873 110.447 196.66C110.901 196.433 111.307 196.153 111.667 195.82L111.987 196.14C111.614 196.78 111.114 197.3 110.487 197.7C109.874 198.1 109.161 198.3 108.347 198.3ZM108.247 189.64C107.554 189.64 107.021 189.887 106.647 190.38C106.274 190.873 106.041 191.48 105.947 192.2L110.087 191.66C110.007 191.087 109.834 190.607 109.567 190.22C109.301 189.833 108.861 189.64 108.247 189.64Z" fill="white"/>
<path d="M61.98 310.3C61.2867 310.3 60.6267 310.14 60 309.82C59.3867 309.487 58.8867 308.993 58.5 308.34C58.1133 307.673 57.92 306.847 57.92 305.86C57.92 304.807 58.14 303.913 58.58 303.18C59.0333 302.433 59.6267 301.867 60.36 301.48C61.0933 301.093 61.8733 300.9 62.7 300.9C63.1133 300.9 63.56 300.953 64.04 301.06C64.5333 301.167 64.9733 301.353 65.36 301.62V304.24H64.9C64.8333 303.547 64.66 303.013 64.38 302.64C64.1 302.267 63.7733 302.007 63.4 301.86C63.04 301.713 62.68 301.64 62.32 301.64C61.44 301.64 60.76 301.973 60.28 302.64C59.8 303.293 59.56 304.113 59.56 305.1C59.56 305.887 59.6933 306.573 59.96 307.16C60.24 307.733 60.62 308.18 61.1 308.5C61.58 308.82 62.12 308.98 62.72 308.98C63.1867 308.98 63.6467 308.88 64.1 308.68C64.5667 308.467 64.9867 308.18 65.36 307.82L65.68 308.14C65.3067 308.767 64.8 309.287 64.16 309.7C63.52 310.1 62.7933 310.3 61.98 310.3ZM71.8941 300.9C72.6674 300.9 73.3741 301.093 74.0141 301.48C74.6674 301.853 75.1941 302.38 75.5941 303.06C75.9941 303.74 76.1941 304.533 76.1941 305.44C76.1941 306.24 76.0541 306.947 75.7741 307.56C75.5074 308.16 75.1474 308.667 74.6941 309.08C74.2407 309.48 73.7407 309.787 73.1941 310C72.6607 310.2 72.1341 310.3 71.6141 310.3C70.8541 310.3 70.1474 310.113 69.4941 309.74C68.8407 309.353 68.3141 308.82 67.9141 308.14C67.5274 307.46 67.3341 306.667 67.3341 305.76C67.3341 304.96 67.4674 304.26 67.7341 303.66C68.0141 303.047 68.3807 302.54 68.8341 302.14C69.2874 301.727 69.7807 301.42 70.3141 301.22C70.8474 301.007 71.3741 300.9 71.8941 300.9ZM71.9541 309.5C72.7407 309.5 73.3607 309.22 73.8141 308.66C74.2674 308.087 74.4941 307.207 74.4941 306.02C74.4941 305.207 74.3674 304.473 74.1141 303.82C73.8741 303.167 73.5341 302.653 73.0941 302.28C72.6541 301.893 72.1407 301.7 71.5541 301.7C70.7807 301.7 70.1674 301.987 69.7141 302.56C69.2607 303.12 69.0341 303.993 69.0341 305.18C69.0341 305.98 69.1541 306.707 69.3941 307.36C69.6474 308.013 69.9941 308.533 70.4341 308.92C70.8741 309.307 71.3807 309.5 71.9541 309.5ZM80.7772 307.98C80.7772 308.447 80.8239 308.787 80.9172 309C81.0105 309.213 81.1772 309.353 81.4172 309.42C81.6705 309.487 82.0239 309.527 82.4772 309.54V310H77.9772V309.54C78.2705 309.527 78.5039 309.487 78.6772 309.42C78.8505 309.353 78.9772 309.213 79.0572 309C79.1372 308.787 79.1772 308.447 79.1772 307.98V296.86C79.1772 296.487 79.1172 296.247 78.9972 296.14C78.8905 296.033 78.7439 295.98 78.5572 295.98C78.3839 295.98 78.1972 296.007 77.9972 296.06C77.8105 296.113 77.6372 296.18 77.4772 296.26L77.2772 295.8L80.7372 294.2L80.8572 294.32C80.8439 294.427 80.8239 294.713 80.7972 295.18C80.7839 295.647 80.7772 296.2 80.7772 296.84V307.98ZM83.8198 310V309.54C84.1265 309.527 84.3665 309.487 84.5398 309.42C84.7132 309.353 84.8332 309.213 84.8998 309C84.9798 308.787 85.0198 308.447 85.0198 307.98V303.4C85.0198 303.053 84.9665 302.827 84.8598 302.72C84.7532 302.613 84.6065 302.56 84.4198 302.56C84.2732 302.56 84.1265 302.58 83.9798 302.62C83.8465 302.647 83.7065 302.693 83.5598 302.76L83.3598 302.3L86.5798 300.8L86.6998 300.92C86.6732 301.04 86.6398 301.3 86.5998 301.7C86.5732 302.087 86.5598 302.513 86.5598 302.98H86.5998C87.1465 302.167 87.7465 301.62 88.3998 301.34C89.0665 301.06 89.7598 300.947 90.4798 301C90.5865 301.987 90.5865 302.973 90.4798 303.96H90.0198C89.9665 303.413 89.8398 303.033 89.6398 302.82C89.4532 302.593 89.1865 302.48 88.8398 302.48C88.3998 302.48 88.0065 302.573 87.6598 302.76C87.3132 302.947 86.9665 303.253 86.6198 303.68V307.98C86.6198 308.447 86.6665 308.787 86.7598 309C86.8532 309.213 87.0332 309.353 87.2998 309.42C87.5798 309.487 87.9865 309.527 88.5198 309.54V310H83.8198ZM101.492 308.46L101.692 308.92L98.4523 310.42L98.3323 310.3C98.359 310.18 98.3857 309.947 98.4123 309.6C98.4523 309.24 98.4723 308.86 98.4723 308.46H98.4323C97.9123 308.993 97.3723 309.433 96.8123 309.78C96.2657 310.127 95.6457 310.3 94.9523 310.3C94.1123 310.3 93.5257 310.087 93.1923 309.66C92.8723 309.233 92.7123 308.68 92.7123 308V303.4C92.7123 303.053 92.6523 302.827 92.5323 302.72C92.4257 302.613 92.279 302.56 92.0923 302.56C91.8257 302.56 91.539 302.627 91.2323 302.76L91.0323 302.3L94.2723 300.8L94.3923 300.92C94.379 301.027 94.359 301.313 94.3323 301.78C94.319 302.233 94.3123 302.767 94.3123 303.38V307.5C94.3123 307.967 94.4057 308.333 94.5923 308.6C94.7923 308.867 95.1457 309 95.6523 309C96.079 309 96.519 308.913 96.9723 308.74C97.439 308.553 97.919 308.26 98.4123 307.86V303.4C98.4123 303.053 98.359 302.827 98.2523 302.72C98.1457 302.613 97.9923 302.56 97.7923 302.56C97.619 302.56 97.439 302.593 97.2523 302.66C97.0657 302.713 96.899 302.773 96.7523 302.84L96.5523 302.38L99.9723 300.8L100.092 300.92C100.079 301.027 100.059 301.313 100.032 301.78C100.019 302.233 100.012 302.767 100.012 303.38V307.76C100.012 308.133 100.066 308.373 100.172 308.48C100.292 308.587 100.446 308.64 100.632 308.64C100.926 308.64 101.212 308.58 101.492 308.46ZM103.38 314.7C102.927 314.7 102.567 314.553 102.3 314.26C102.033 313.98 101.9 313.587 101.9 313.08C101.9 312.853 101.927 312.627 101.98 312.4C102.033 312.173 102.107 311.94 102.2 311.7H102.66C102.7 312.273 102.8 312.7 102.96 312.98C103.12 313.26 103.38 313.4 103.74 313.4C104.14 313.4 104.553 313.093 104.98 312.48C105.42 311.88 105.927 311 106.5 309.84L103.52 303.16C103.32 302.707 103.14 302.38 102.98 302.18C102.833 301.98 102.673 301.847 102.5 301.78C102.34 301.713 102.14 301.673 101.9 301.66V301.2H106.16V301.66C105.72 301.673 105.407 301.72 105.22 301.8C105.047 301.867 104.973 302.007 105 302.22C105.027 302.42 105.127 302.733 105.3 303.16L107.3 307.76H107.34L109.2 303.16C109.467 302.533 109.507 302.133 109.32 301.96C109.133 301.787 108.687 301.687 107.98 301.66V301.2H111.54V301.66C111.34 301.673 111.16 301.72 111 301.8C110.84 301.867 110.687 302.007 110.54 302.22C110.407 302.42 110.253 302.733 110.08 303.16L107.94 308.42C107.38 309.807 106.873 310.967 106.42 311.9C105.98 312.833 105.52 313.533 105.04 314C104.573 314.467 104.02 314.7 103.38 314.7ZM117.756 308.26L118.076 308.58C117.756 309.06 117.39 309.467 116.976 309.8C116.563 310.133 116.023 310.3 115.356 310.3C114.823 310.3 114.396 310.193 114.076 309.98C113.77 309.767 113.55 309.487 113.416 309.14C113.283 308.78 113.216 308.393 113.216 307.98V302.02H111.836V301.2H113.216V298.46L114.916 298.16C114.876 298.667 114.85 299.173 114.836 299.68C114.823 300.187 114.816 300.693 114.816 301.2H117.776V302.02H115.436C115.21 302.02 115.05 302.067 114.956 302.16C114.863 302.253 114.816 302.413 114.816 302.64V307.56C114.816 307.987 114.89 308.353 115.036 308.66C115.196 308.967 115.516 309.12 115.996 309.12C116.276 309.12 116.563 309.053 116.856 308.92C117.15 308.773 117.45 308.553 117.756 308.26Z" fill="white"/>
<rect x="109" y="373" width="158" height="39" fill="#C4C4C4"/>
<path d="M142.005 398V397.54C142.312 397.527 142.552 397.487 142.725 397.42C142.899 397.353 143.019 397.213 143.085 397C143.165 396.787 143.205 396.447 143.205 395.98V391.4C143.205 391.053 143.152 390.827 143.045 390.72C142.939 390.613 142.792 390.56 142.605 390.56C142.459 390.56 142.312 390.58 142.165 390.62C142.032 390.647 141.892 390.693 141.745 390.76L141.545 390.3L144.765 388.8L144.885 388.92C144.859 389.04 144.825 389.3 144.785 389.7C144.759 390.087 144.745 390.513 144.745 390.98H144.785C145.332 390.167 145.932 389.62 146.585 389.34C147.252 389.06 147.945 388.947 148.665 389C148.772 389.987 148.772 390.973 148.665 391.96H148.205C148.152 391.413 148.025 391.033 147.825 390.82C147.639 390.593 147.372 390.48 147.025 390.48C146.585 390.48 146.192 390.573 145.845 390.76C145.499 390.947 145.152 391.253 144.805 391.68V395.98C144.805 396.447 144.852 396.787 144.945 397C145.039 397.213 145.219 397.353 145.485 397.42C145.765 397.487 146.172 397.527 146.705 397.54V398H142.005ZM153.818 398.3C153.138 398.3 152.485 398.14 151.858 397.82C151.245 397.5 150.738 397.02 150.338 396.38C149.951 395.727 149.758 394.9 149.758 393.9C149.758 392.887 149.958 392.007 150.358 391.26C150.758 390.513 151.291 389.933 151.958 389.52C152.625 389.107 153.351 388.9 154.138 388.9C154.711 388.9 155.238 389.013 155.718 389.24C156.211 389.467 156.605 389.813 156.898 390.28C157.205 390.747 157.358 391.34 157.358 392.06L151.358 392.84C151.358 392.907 151.358 392.98 151.358 393.06C151.358 394.287 151.638 395.247 152.198 395.94C152.758 396.633 153.505 396.98 154.438 396.98C154.971 396.98 155.465 396.873 155.918 396.66C156.371 396.433 156.778 396.153 157.138 395.82L157.458 396.14C157.085 396.78 156.585 397.3 155.958 397.7C155.345 398.1 154.631 398.3 153.818 398.3ZM153.718 389.64C153.025 389.64 152.491 389.887 152.118 390.38C151.745 390.873 151.511 391.48 151.418 392.2L155.558 391.66C155.478 391.087 155.305 390.607 155.038 390.22C154.771 389.833 154.331 389.64 153.718 389.64ZM163.056 398.3C162.363 398.3 161.703 398.14 161.076 397.82C160.463 397.487 159.963 396.993 159.576 396.34C159.19 395.673 158.996 394.847 158.996 393.86C158.996 392.807 159.216 391.913 159.656 391.18C160.11 390.433 160.703 389.867 161.436 389.48C162.17 389.093 162.95 388.9 163.776 388.9C164.19 388.9 164.636 388.953 165.116 389.06C165.61 389.167 166.05 389.353 166.436 389.62V392.24H165.976C165.91 391.547 165.736 391.013 165.456 390.64C165.176 390.267 164.85 390.007 164.476 389.86C164.116 389.713 163.756 389.64 163.396 389.64C162.516 389.64 161.836 389.973 161.356 390.64C160.876 391.293 160.636 392.113 160.636 393.1C160.636 393.887 160.77 394.573 161.036 395.16C161.316 395.733 161.696 396.18 162.176 396.5C162.656 396.82 163.196 396.98 163.796 396.98C164.263 396.98 164.723 396.88 165.176 396.68C165.643 396.467 166.063 396.18 166.436 395.82L166.756 396.14C166.383 396.767 165.876 397.287 165.236 397.7C164.596 398.1 163.87 398.3 163.056 398.3ZM176.99 395.98C176.99 396.447 177.03 396.787 177.11 397C177.204 397.213 177.37 397.353 177.61 397.42C177.864 397.487 178.217 397.527 178.67 397.54V398H174.19V397.54C174.497 397.527 174.737 397.487 174.91 397.42C175.084 397.353 175.204 397.213 175.27 397C175.35 396.787 175.39 396.447 175.39 395.98V391.68C175.39 391.213 175.29 390.847 175.09 390.58C174.89 390.313 174.53 390.18 174.01 390.18C173.584 390.18 173.124 390.273 172.63 390.46C172.15 390.647 171.657 390.94 171.15 391.34V395.98C171.15 396.447 171.197 396.787 171.29 397C171.384 397.213 171.55 397.353 171.79 397.42C172.044 397.487 172.397 397.527 172.85 397.54V398H168.35V397.54C168.657 397.527 168.897 397.487 169.07 397.42C169.244 397.353 169.364 397.213 169.43 397C169.51 396.787 169.55 396.447 169.55 395.98V384.86C169.55 384.487 169.497 384.247 169.39 384.14C169.284 384.033 169.13 383.98 168.93 383.98C168.757 383.98 168.57 384.007 168.37 384.06C168.184 384.113 168.01 384.18 167.85 384.26L167.65 383.8L171.11 382.2L171.23 382.32C171.217 382.427 171.197 382.713 171.17 383.18C171.157 383.647 171.15 384.2 171.15 384.84V390.72C171.67 390.187 172.224 389.753 172.81 389.42C173.397 389.073 174.037 388.9 174.73 388.9C175.557 388.9 176.137 389.113 176.47 389.54C176.817 389.953 176.99 390.507 176.99 391.2V395.98ZM183.955 398.3C183.275 398.3 182.621 398.14 181.995 397.82C181.381 397.5 180.875 397.02 180.475 396.38C180.088 395.727 179.895 394.9 179.895 393.9C179.895 392.887 180.095 392.007 180.495 391.26C180.895 390.513 181.428 389.933 182.095 389.52C182.761 389.107 183.488 388.9 184.275 388.9C184.848 388.9 185.375 389.013 185.855 389.24C186.348 389.467 186.741 389.813 187.035 390.28C187.341 390.747 187.495 391.34 187.495 392.06L181.495 392.84C181.495 392.907 181.495 392.98 181.495 393.06C181.495 394.287 181.775 395.247 182.335 395.94C182.895 396.633 183.641 396.98 184.575 396.98C185.108 396.98 185.601 396.873 186.055 396.66C186.508 396.433 186.915 396.153 187.275 395.82L187.595 396.14C187.221 396.78 186.721 397.3 186.095 397.7C185.481 398.1 184.768 398.3 183.955 398.3ZM183.855 389.64C183.161 389.64 182.628 389.887 182.255 390.38C181.881 390.873 181.648 391.48 181.555 392.2L185.695 391.66C185.615 391.087 185.441 390.607 185.175 390.22C184.908 389.833 184.468 389.64 183.855 389.64ZM189.193 398V397.54C189.5 397.527 189.74 397.487 189.913 397.42C190.086 397.353 190.206 397.213 190.273 397C190.353 396.787 190.393 396.447 190.393 395.98V391.4C190.393 391.053 190.34 390.827 190.233 390.72C190.126 390.613 189.98 390.56 189.793 390.56C189.646 390.56 189.5 390.58 189.353 390.62C189.22 390.647 189.08 390.693 188.933 390.76L188.733 390.3L191.953 388.8L192.073 388.92C192.046 389.04 192.013 389.3 191.973 389.7C191.946 390.087 191.933 390.513 191.933 390.98H191.973C192.52 390.167 193.12 389.62 193.773 389.34C194.44 389.06 195.133 388.947 195.853 389C195.96 389.987 195.96 390.973 195.853 391.96H195.393C195.34 391.413 195.213 391.033 195.013 390.82C194.826 390.593 194.56 390.48 194.213 390.48C193.773 390.48 193.38 390.573 193.033 390.76C192.686 390.947 192.34 391.253 191.993 391.68V395.98C191.993 396.447 192.04 396.787 192.133 397C192.226 397.213 192.406 397.353 192.673 397.42C192.953 397.487 193.36 397.527 193.893 397.54V398H189.193ZM201.005 398.3C200.312 398.3 199.652 398.14 199.025 397.82C198.412 397.487 197.912 396.993 197.525 396.34C197.139 395.673 196.945 394.847 196.945 393.86C196.945 392.807 197.165 391.913 197.605 391.18C198.059 390.433 198.652 389.867 199.385 389.48C200.119 389.093 200.899 388.9 201.725 388.9C202.139 388.9 202.585 388.953 203.065 389.06C203.559 389.167 203.999 389.353 204.385 389.62V392.24H203.925C203.859 391.547 203.685 391.013 203.405 390.64C203.125 390.267 202.799 390.007 202.425 389.86C202.065 389.713 201.705 389.64 201.345 389.64C200.465 389.64 199.785 389.973 199.305 390.64C198.825 391.293 198.585 392.113 198.585 393.1C198.585 393.887 198.719 394.573 198.985 395.16C199.265 395.733 199.645 396.18 200.125 396.5C200.605 396.82 201.145 396.98 201.745 396.98C202.212 396.98 202.672 396.88 203.125 396.68C203.592 396.467 204.012 396.18 204.385 395.82L204.705 396.14C204.332 396.767 203.825 397.287 203.185 397.7C202.545 398.1 201.819 398.3 201.005 398.3ZM214.939 395.98C214.939 396.447 214.979 396.787 215.059 397C215.153 397.213 215.319 397.353 215.559 397.42C215.813 397.487 216.166 397.527 216.619 397.54V398H212.139V397.54C212.446 397.527 212.686 397.487 212.859 397.42C213.033 397.353 213.153 397.213 213.219 397C213.299 396.787 213.339 396.447 213.339 395.98V391.68C213.339 391.213 213.239 390.847 213.039 390.58C212.839 390.313 212.479 390.18 211.959 390.18C211.533 390.18 211.073 390.273 210.579 390.46C210.099 390.647 209.606 390.94 209.099 391.34V395.98C209.099 396.447 209.146 396.787 209.239 397C209.333 397.213 209.499 397.353 209.739 397.42C209.993 397.487 210.346 397.527 210.799 397.54V398H206.299V397.54C206.606 397.527 206.846 397.487 207.019 397.42C207.193 397.353 207.313 397.213 207.379 397C207.459 396.787 207.499 396.447 207.499 395.98V384.86C207.499 384.487 207.446 384.247 207.339 384.14C207.233 384.033 207.079 383.98 206.879 383.98C206.706 383.98 206.519 384.007 206.319 384.06C206.133 384.113 205.959 384.18 205.799 384.26L205.599 383.8L209.059 382.2L209.179 382.32C209.166 382.427 209.146 382.713 209.119 383.18C209.106 383.647 209.099 384.2 209.099 384.84V390.72C209.619 390.187 210.173 389.753 210.759 389.42C211.346 389.073 211.986 388.9 212.679 388.9C213.506 388.9 214.086 389.113 214.419 389.54C214.766 389.953 214.939 390.507 214.939 391.2V395.98ZM221.904 398.3C221.224 398.3 220.57 398.14 219.944 397.82C219.33 397.5 218.824 397.02 218.424 396.38C218.037 395.727 217.844 394.9 217.844 393.9C217.844 392.887 218.044 392.007 218.444 391.26C218.844 390.513 219.377 389.933 220.044 389.52C220.71 389.107 221.437 388.9 222.224 388.9C222.797 388.9 223.324 389.013 223.804 389.24C224.297 389.467 224.69 389.813 224.984 390.28C225.29 390.747 225.444 391.34 225.444 392.06L219.444 392.84C219.444 392.907 219.444 392.98 219.444 393.06C219.444 394.287 219.724 395.247 220.284 395.94C220.844 396.633 221.59 396.98 222.524 396.98C223.057 396.98 223.55 396.873 224.004 396.66C224.457 396.433 224.864 396.153 225.224 395.82L225.544 396.14C225.17 396.78 224.67 397.3 224.044 397.7C223.43 398.1 222.717 398.3 221.904 398.3ZM221.804 389.64C221.11 389.64 220.577 389.887 220.204 390.38C219.83 390.873 219.597 391.48 219.504 392.2L223.644 391.66C223.564 391.087 223.39 390.607 223.124 390.22C222.857 389.833 222.417 389.64 221.804 389.64ZM227.142 398V397.54C227.449 397.527 227.689 397.487 227.862 397.42C228.035 397.353 228.155 397.213 228.222 397C228.302 396.787 228.342 396.447 228.342 395.98V391.4C228.342 391.053 228.289 390.827 228.182 390.72C228.075 390.613 227.929 390.56 227.742 390.56C227.595 390.56 227.449 390.58 227.302 390.62C227.169 390.647 227.029 390.693 226.882 390.76L226.682 390.3L229.902 388.8L230.022 388.92C229.995 389.04 229.962 389.3 229.922 389.7C229.895 390.087 229.882 390.513 229.882 390.98H229.922C230.469 390.167 231.069 389.62 231.722 389.34C232.389 389.06 233.082 388.947 233.802 389C233.909 389.987 233.909 390.973 233.802 391.96H233.342C233.289 391.413 233.162 391.033 232.962 390.82C232.775 390.593 232.509 390.48 232.162 390.48C231.722 390.48 231.329 390.573 230.982 390.76C230.635 390.947 230.289 391.253 229.942 391.68V395.98C229.942 396.447 229.989 396.787 230.082 397C230.175 397.213 230.355 397.353 230.622 397.42C230.902 397.487 231.309 397.527 231.842 397.54V398H227.142Z" fill="black"/>
<rect x="-1" y="-1" width="377" height="38" fill="white" stroke="black" stroke-width="2"/>
<path d="M24 16.5V21H26.5V16.5H24Z" fill="black"/>
<path d="M28.5 15V21H31V15H28.5Z" fill="black"/>
<path d="M33 13.5V21H35.5V13.5H33Z" fill="black"/>
<path d="M37.5 11.5V21H40V11.5H37.5Z" fill="black"/>
<path d="M50 21L48 19C48 18.6667 48.4 18 50 18C51.6 18 52 18.6667 52 19L50 21Z" fill="black"/>
<path d="M54.5 16.5L53 18C52.6667 17.5 51.6 16.5 50 16.5C48.4 16.5 47.3333 17.5 47 18L45.5 16.5C46.1667 15.8333 48 14.5 50 14.5C52 14.5 53.8333 15.8333 54.5 16.5Z" fill="black"/>
<path d="M57 14L55.5 15.5C54.5 14.6667 52 13.3 50 13.3C48 13.3 45.8333 14.6667 45 15.5L43.5 14C44.1667 13 46.4 11 50 11C53.6 11 56.1667 13 57 14Z" fill="black"/>
<path d="M177.631 20.687C177.631 20.9903 177.665 21.2113 177.735 21.35C177.804 21.4887 177.943 21.5797 178.151 21.623C178.359 21.6663 178.666 21.6923 179.074 21.701V22H175.161V21.701C175.585 21.6923 175.897 21.6663 176.097 21.623C176.296 21.5797 176.426 21.4887 176.487 21.35C176.556 21.2113 176.591 20.9903 176.591 20.687V17.268L175.395 18.308L175.122 18.009L177.267 16.124H177.722C177.687 16.2887 177.661 16.4533 177.644 16.618C177.635 16.7827 177.631 16.9473 177.631 17.112V20.687ZM182.912 20.687C182.912 20.9903 182.947 21.2113 183.016 21.35C183.085 21.4887 183.224 21.5797 183.432 21.623C183.64 21.6663 183.948 21.6923 184.355 21.701V22H180.442V21.701C180.867 21.6923 181.179 21.6663 181.378 21.623C181.577 21.5797 181.707 21.4887 181.768 21.35C181.837 21.2113 181.872 20.9903 181.872 20.687V17.268L180.676 18.308L180.403 18.009L182.548 16.124H183.003C182.968 16.2887 182.942 16.4533 182.925 16.618C182.916 16.7827 182.912 16.9473 182.912 17.112V20.687ZM186.152 22.195C185.961 22.195 185.801 22.13 185.671 22C185.541 21.87 185.476 21.7097 185.476 21.519C185.476 21.337 185.541 21.181 185.671 21.051C185.801 20.921 185.961 20.856 186.152 20.856C186.343 20.856 186.503 20.921 186.633 21.051C186.763 21.181 186.828 21.337 186.828 21.519C186.828 21.7097 186.763 21.87 186.633 22C186.503 22.13 186.343 22.195 186.152 22.195ZM186.152 17.918C185.961 17.918 185.801 17.853 185.671 17.723C185.541 17.593 185.476 17.4327 185.476 17.242C185.476 17.06 185.541 16.904 185.671 16.774C185.801 16.644 185.961 16.579 186.152 16.579C186.343 16.579 186.503 16.644 186.633 16.774C186.763 16.904 186.828 17.06 186.828 17.242C186.828 17.4327 186.763 17.593 186.633 17.723C186.503 17.853 186.343 17.918 186.152 17.918ZM190.745 16.085C191.283 16.085 191.742 16.228 192.123 16.514C192.513 16.8 192.812 17.177 193.02 17.645C193.228 18.1043 193.332 18.6113 193.332 19.166C193.332 19.7293 193.224 20.2407 193.007 20.7C192.799 21.1593 192.5 21.5233 192.11 21.792C191.729 22.0607 191.27 22.195 190.732 22.195C190.204 22.195 189.744 22.0607 189.354 21.792C188.964 21.5233 188.661 21.1637 188.444 20.713C188.236 20.2537 188.132 19.7423 188.132 19.179C188.132 18.6243 188.236 18.113 188.444 17.645C188.652 17.177 188.951 16.8 189.341 16.514C189.74 16.228 190.208 16.085 190.745 16.085ZM190.745 21.116C191.109 21.116 191.447 21.0423 191.759 20.895C192.071 20.7477 192.323 20.5267 192.513 20.232C192.704 19.9373 192.799 19.5777 192.799 19.153C192.799 18.737 192.704 18.3817 192.513 18.087C192.331 17.7837 192.084 17.554 191.772 17.398C191.46 17.242 191.114 17.164 190.732 17.164C190.36 17.164 190.017 17.242 189.705 17.398C189.393 17.554 189.142 17.7837 188.951 18.087C188.769 18.3817 188.678 18.737 188.678 19.153C188.678 19.5777 188.774 19.9373 188.964 20.232C189.155 20.5267 189.406 20.7477 189.718 20.895C190.039 21.0423 190.381 21.116 190.745 21.116ZM197.372 16.085C197.91 16.085 198.369 16.228 198.75 16.514C199.14 16.8 199.439 17.177 199.647 17.645C199.855 18.1043 199.959 18.6113 199.959 19.166C199.959 19.7293 199.851 20.2407 199.634 20.7C199.426 21.1593 199.127 21.5233 198.737 21.792C198.356 22.0607 197.897 22.195 197.359 22.195C196.831 22.195 196.371 22.0607 195.981 21.792C195.591 21.5233 195.288 21.1637 195.071 20.713C194.863 20.2537 194.759 19.7423 194.759 19.179C194.759 18.6243 194.863 18.113 195.071 17.645C195.279 17.177 195.578 16.8 195.968 16.514C196.367 16.228 196.835 16.085 197.372 16.085ZM197.372 21.116C197.736 21.116 198.074 21.0423 198.386 20.895C198.698 20.7477 198.95 20.5267 199.14 20.232C199.331 19.9373 199.426 19.5777 199.426 19.153C199.426 18.737 199.331 18.3817 199.14 18.087C198.958 17.7837 198.711 17.554 198.399 17.398C198.087 17.242 197.741 17.164 197.359 17.164C196.987 17.164 196.644 17.242 196.332 17.398C196.02 17.554 195.769 17.7837 195.578 18.087C195.396 18.3817 195.305 18.737 195.305 19.153C195.305 19.5777 195.401 19.9373 195.591 20.232C195.782 20.5267 196.033 20.7477 196.345 20.895C196.666 21.0423 197.008 21.116 197.372 21.116Z" fill="black"/>
<path d="M303.491 19.99C303.491 20.2233 303.518 20.3933 303.571 20.5C303.625 20.6067 303.731 20.6767 303.891 20.71C304.051 20.7433 304.288 20.7633 304.601 20.77V21H301.591V20.77C301.918 20.7633 302.158 20.7433 302.311 20.71C302.465 20.6767 302.565 20.6067 302.611 20.5C302.665 20.3933 302.691 20.2233 302.691 19.99V17.36L301.771 18.16L301.561 17.93L303.211 16.48H303.561C303.535 16.6067 303.515 16.7333 303.501 16.86C303.495 16.9867 303.491 17.1133 303.491 17.24V19.99ZM307.574 16.45C307.987 16.45 308.34 16.56 308.634 16.78C308.934 17 309.164 17.29 309.324 17.65C309.484 18.0033 309.564 18.3933 309.564 18.82C309.564 19.2533 309.48 19.6467 309.314 20C309.154 20.3533 308.924 20.6333 308.624 20.84C308.33 21.0467 307.977 21.15 307.564 21.15C307.157 21.15 306.804 21.0467 306.504 20.84C306.204 20.6333 305.97 20.3567 305.804 20.01C305.644 19.6567 305.564 19.2633 305.564 18.83C305.564 18.4033 305.644 18.01 305.804 17.65C305.964 17.29 306.194 17 306.494 16.78C306.8 16.56 307.16 16.45 307.574 16.45ZM307.574 20.32C307.854 20.32 308.114 20.2633 308.354 20.15C308.594 20.0367 308.787 19.8667 308.934 19.64C309.08 19.4133 309.154 19.1367 309.154 18.81C309.154 18.49 309.08 18.2167 308.934 17.99C308.794 17.7567 308.604 17.58 308.364 17.46C308.124 17.34 307.857 17.28 307.564 17.28C307.277 17.28 307.014 17.34 306.774 17.46C306.534 17.58 306.34 17.7567 306.194 17.99C306.054 18.2167 305.984 18.49 305.984 18.81C305.984 19.1367 306.057 19.4133 306.204 19.64C306.35 19.8667 306.544 20.0367 306.784 20.15C307.03 20.2633 307.294 20.32 307.574 20.32ZM312.671 16.45C313.085 16.45 313.438 16.56 313.731 16.78C314.031 17 314.261 17.29 314.421 17.65C314.581 18.0033 314.661 18.3933 314.661 18.82C314.661 19.2533 314.578 19.6467 314.411 20C314.251 20.3533 314.021 20.6333 313.721 20.84C313.428 21.0467 313.075 21.15 312.661 21.15C312.255 21.15 311.901 21.0467 311.601 20.84C311.301 20.6333 311.068 20.3567 310.901 20.01C310.741 19.6567 310.661 19.2633 310.661 18.83C310.661 18.4033 310.741 18.01 310.901 17.65C311.061 17.29 311.291 17 311.591 16.78C311.898 16.56 312.258 16.45 312.671 16.45ZM312.671 20.32C312.951 20.32 313.211 20.2633 313.451 20.15C313.691 20.0367 313.885 19.8667 314.031 19.64C314.178 19.4133 314.251 19.1367 314.251 18.81C314.251 18.49 314.178 18.2167 314.031 17.99C313.891 17.7567 313.701 17.58 313.461 17.46C313.221 17.34 312.955 17.28 312.661 17.28C312.375 17.28 312.111 17.34 311.871 17.46C311.631 17.58 311.438 17.7567 311.291 17.99C311.151 18.2167 311.081 18.49 311.081 18.81C311.081 19.1367 311.155 19.4133 311.301 19.64C311.448 19.8667 311.641 20.0367 311.881 20.15C312.128 20.2633 312.391 20.32 312.671 20.32ZM323.828 15.3L324.138 15.46L320.438 21.26L320.128 21.1L323.828 15.3ZM320.088 15.57C320.328 15.57 320.548 15.6333 320.748 15.76C320.955 15.8867 321.118 16.07 321.238 16.31C321.365 16.55 321.428 16.8433 321.428 17.19C321.428 17.5367 321.365 17.8367 321.238 18.09C321.111 18.3367 320.945 18.5267 320.738 18.66C320.531 18.7867 320.308 18.85 320.068 18.85C319.835 18.85 319.615 18.7867 319.408 18.66C319.201 18.5333 319.035 18.35 318.908 18.11C318.781 17.8633 318.718 17.57 318.718 17.23C318.718 16.8767 318.781 16.5767 318.908 16.33C319.041 16.0833 319.211 15.8967 319.418 15.77C319.625 15.6367 319.848 15.57 320.088 15.57ZM320.108 18.6C320.301 18.6 320.455 18.4967 320.568 18.29C320.681 18.0767 320.738 17.74 320.738 17.28C320.738 16.8733 320.685 16.53 320.578 16.25C320.471 15.9633 320.295 15.82 320.048 15.82C319.861 15.82 319.708 15.9267 319.588 16.14C319.475 16.3467 319.418 16.68 319.418 17.14C319.418 17.5467 319.471 17.8933 319.578 18.18C319.685 18.46 319.861 18.6 320.108 18.6ZM324.158 17.87C324.391 17.87 324.608 17.9333 324.808 18.06C325.015 18.1867 325.181 18.37 325.308 18.61C325.435 18.85 325.498 19.1433 325.498 19.49C325.498 19.8367 325.435 20.1367 325.308 20.39C325.181 20.6367 325.015 20.8267 324.808 20.96C324.601 21.0867 324.378 21.15 324.138 21.15C323.905 21.15 323.685 21.0867 323.478 20.96C323.271 20.8333 323.105 20.65 322.978 20.41C322.851 20.1633 322.788 19.87 322.788 19.53C322.788 19.1767 322.851 18.8767 322.978 18.63C323.105 18.3833 323.271 18.1967 323.478 18.07C323.691 17.9367 323.918 17.87 324.158 17.87ZM324.178 20.9C324.371 20.9 324.525 20.7967 324.638 20.59C324.751 20.3767 324.808 20.04 324.808 19.58C324.808 19.1733 324.755 18.83 324.648 18.55C324.541 18.2633 324.365 18.12 324.118 18.12C323.931 18.12 323.778 18.2267 323.658 18.44C323.545 18.6467 323.488 18.98 323.488 19.44C323.488 19.8467 323.541 20.1933 323.648 20.48C323.755 20.76 323.931 20.9 324.178 20.9Z" fill="black"/>
<rect x="332" y="13" width="18" height="9" rx="2" fill="black"/>
<path d="M351.227 17.5C351.227 16.5182 350.136 16 349.591 15.8636V19.1364C350.136 19 351.227 18.4818 351.227 17.5Z" fill="black"/>
<rect y="615" width="90" height="52" fill="#C4C4C4"/>
<rect x="192" y="615" width="90" height="52" fill="#C4C4C4"/>
<rect x="296" y="615" width="90" height="52" fill="#C4C4C4"/>
<rect x="96" y="615" width="90" height="52" fill="#C4C4C4"/>
<path d="M0 614H-1V615V667V668H0H375H376V667V615V614H375H0Z" fill="white" stroke="black" stroke-width="2"/>
<path d="M130.769 645.424L125.859 654.424C125.617 654.869 126.113 655.351 126.55 655.096L136.724 649.161C136.892 649.063 137.102 649.072 137.262 649.184L145.606 655.024C146.015 655.311 146.545 654.887 146.356 654.426L142.664 645.4C142.57 645.17 142.658 644.906 142.872 644.78L151.925 639.43C152.363 639.172 152.18 638.5 151.671 638.5H141.841C141.635 638.5 141.451 638.374 141.376 638.182L137.401 628.024C137.244 627.624 136.69 627.594 136.492 627.974L131.14 638.231C131.054 638.396 130.883 638.5 130.697 638.5H121.829C121.32 638.5 121.137 639.172 121.575 639.43L130.584 644.754C130.816 644.891 130.898 645.188 130.769 645.424Z" stroke="black" stroke-width="2"/>
<rect x="226.09" y="636.631" width="26.6697" height="18.457" rx="9.22851" fill="white" stroke="black" stroke-width="2"/>
<path d="M231.063 644V650.271" stroke="black" stroke-width="2" stroke-linecap="round" stroke-linejoin="round"/>
<path d="M235.244 644V650.271" stroke="black" stroke-width="2" stroke-linecap="round" stroke-linejoin="round"/>
<path d="M239.425 644V650.271" stroke="black" stroke-width="2" stroke-linecap="round" stroke-linejoin="round"/>
<path d="M243.606 644V650.271" stroke="black" stroke-width="2" stroke-linecap="round" stroke-linejoin="round"/>
<path d="M247.787 644V650.271" stroke="black" stroke-width="2" stroke-linecap="round" stroke-linejoin="round"/>
<path d="M227.778 636.602L234.498 626" stroke="black" stroke-width="2" stroke-linecap="round" stroke-linejoin="round"/>
<path d="M251.222 636.602L244.502 626" stroke="black" stroke-width="2" stroke-linecap="round" stroke-linejoin="round"/>
<rect x="224" y="636.631" width="31" height="3.67421" rx="1.8371" fill="white" stroke="black" stroke-width="2"/>
<circle cx="341" cy="640.5" r="11" stroke="black" stroke-width="2"/>
<circle cx="341" cy="640.5" r="8" stroke="black" stroke-width="2"/>
<path d="M338 629.5V626.5C338 626.224 338.224 626 338.5 626H342.5C342.776 626 343 626.224 343 626.5V629.5" stroke="black" stroke-width="2"/>
<path d="M343 651.5L343 654.5C343 654.776 342.776 655 342.5 655L338.5 655C338.224 655 338 654.776 338 654.5L338 651.5" stroke="black" stroke-width="2"/>
<path d="M329.5 643L326.5 643C326.224 643 326 642.776 326 642.5L326 638.5C326 638.224 326.224 638 326.5 638L329.5 638" stroke="black" stroke-width="2"/>
<path d="M351.5 638L354.5 638C354.776 638 355 638.224 355 638.5L355 642.5C355 642.776 354.776 643 354.5 643L351.5 643" stroke="black" stroke-width="2"/>
<path d="M334.49 650.046L332.368 652.167C332.173 652.363 331.856 652.363 331.661 652.167L328.833 649.339C328.637 649.144 328.637 648.827 328.833 648.632L330.954 646.51" stroke="black" stroke-width="2"/>
<path d="M346.51 630.954L348.632 628.833C348.827 628.637 349.144 628.637 349.339 628.833L352.167 631.661C352.363 631.856 352.363 632.173 352.167 632.368L350.046 634.49" stroke="black" stroke-width="2"/>
<path d="M350.046 646.51L352.167 648.632C352.362 648.827 352.362 649.144 352.167 649.339L349.339 652.167C349.144 652.363 348.827 652.363 348.632 652.167L346.51 650.046" stroke="black" stroke-width="2"/>
<path d="M330.954 634.49L328.833 632.368C328.638 632.173 328.638 631.856 328.833 631.661L331.661 628.833C331.856 628.637 332.173 628.637 332.368 628.833L334.49 630.954" stroke="black" stroke-width="2"/>
<rect x="33.4142" y="641.243" width="4" height="20" transform="rotate(-45 33.4142 641.243)" fill="white" stroke="black" stroke-width="2"/>
<circle cx="32" cy="637" r="9" fill="white" stroke="black" stroke-width="2"/>
</g>
<defs>
<clipPath id="clip0_62_3">
<rect width="375" height="667" fill="white"/>
</clipPath>
</defs>
</svg>
