<svg width="375" height="667" fill="none" xmlns="http://www.w3.org/2000/svg"><g clip-path="url(#clip0_62_3)"><path fill="#fff" d="M0 0h375v667H0z"/><path d="M100.11 99.12c-.547 0-1-.073-1.36-.22a2.926 2.926 0 01-.92-.58c-.254-.24-.494-.5-.72-.78l-4.12-5.06c-.174-.213-.307-.347-.4-.4a.606.606 0 00-.34-.12v-.6c1.28.107 2.28-.073 3-.54.72-.467 1.08-1.18 1.08-2.14 0-.653-.147-1.147-.44-1.48a2.154 2.154 0 00-1.14-.7c-.467-.12-.96-.18-1.48-.18-.48 0-.84.08-1.08.24-.227.147-.34.527-.34 1.14V97c0 .453.046.787.14 1 .106.213.293.353.56.42.266.067.66.107 1.18.12V99h-4.98v-.46c.36-.013.64-.053.84-.12a.66.66 0 00.44-.42c.08-.213.12-.547.12-1v-9.3c0-.467-.054-.8-.16-1-.094-.213-.274-.353-.54-.42-.267-.067-.667-.107-1.2-.12v-.46h1.9c.92 0 1.646-.013 2.18-.04.533-.04 1.026-.06 1.48-.06 1.52 0 2.633.28 3.34.84.72.547 1.08 1.247 1.08 2.1 0 .88-.34 1.607-1.02 2.18-.667.573-1.52.94-2.56 1.1v.04l4.14 5.08c.373.44.673.78.9 1.02.24.227.466.38.68.46.213.08.466.12.76.12V99a2.398 2.398 0 01-.52.1c-.174.013-.34.02-.5.02zm5.874.18c-.68 0-1.333-.16-1.96-.48-.613-.32-1.12-.8-1.52-1.44-.387-.653-.58-1.48-.58-2.48 0-1.013.2-1.893.6-2.64.4-.747.933-1.327 1.6-1.74a4.06 4.06 0 012.18-.62c.573 0 1.1.113 1.58.34a2.7 2.7 0 011.18 1.04c.307.467.46 1.06.46 1.78l-6 .78v.22c0 1.227.28 2.187.84 2.88.56.693 1.307 1.04 2.24 1.04.533 0 1.027-.107 1.48-.32a5.23 5.23 0 001.22-.84l.32.32a4.533 4.533 0 01-1.5 1.56c-.613.4-1.327.6-2.14.6zm-.1-8.66c-.693 0-1.227.247-1.6.74s-.607 1.1-.7 1.82l4.14-.54c-.08-.573-.253-1.053-.52-1.44s-.707-.58-1.32-.58zm9.338 8.66c-.693 0-1.353-.16-1.98-.48-.613-.333-1.113-.827-1.5-1.48-.386-.667-.58-1.493-.58-2.48 0-1.053.22-1.947.66-2.68a4.542 4.542 0 011.78-1.7 4.949 4.949 0 012.34-.58c.414 0 .86.053 1.34.16.494.107.934.293 1.32.56v2.62h-.46c-.066-.693-.24-1.227-.52-1.6s-.606-.633-.98-.78c-.36-.147-.72-.22-1.08-.22-.88 0-1.56.333-2.04 1-.48.653-.72 1.473-.72 2.46 0 .787.134 1.473.4 2.06.28.573.66 1.02 1.14 1.34.48.32 1.02.48 1.62.48.467 0 .927-.1 1.38-.3a4.48 4.48 0 001.26-.86l.32.32a4.712 4.712 0 01-1.52 1.56c-.64.4-1.366.6-2.18.6zm13.934-2.32c0 .467.04.807.12 1.02a.73.73 0 00.5.42c.254.067.607.107 1.06.12V99h-4.48v-.46c.307-.013.547-.053.72-.12.174-.067.294-.207.36-.42.08-.213.12-.553.12-1.02v-4.3c0-.467-.1-.833-.3-1.1-.2-.267-.56-.4-1.08-.4-.426 0-.886.093-1.38.28-.48.187-.973.48-1.48.88v4.64c0 .467.047.807.14 1.02a.73.73 0 00.5.42c.254.067.607.107 1.06.12V99h-4.5v-.46c.307-.013.547-.053.72-.12.174-.067.294-.207.36-.42.08-.213.12-.553.12-1.02V85.86c0-.373-.053-.613-.16-.72-.106-.107-.26-.16-.46-.16-.173 0-.36.027-.56.08-.186.053-.36.12-.52.2l-.2-.46 3.46-1.6.12.12a20.15 20.15 0 00-.06.86c-.013.467-.02 1.02-.02 1.66v5.88a7.51 7.51 0 011.66-1.3 3.708 3.708 0 011.92-.52c.827 0 1.407.213 1.74.64.347.413.52.967.52 1.66v4.78zm6.965 2.32c-.68 0-1.334-.16-1.96-.48-.614-.32-1.12-.8-1.52-1.44-.387-.653-.58-1.48-.58-2.48 0-1.013.2-1.893.6-2.64.4-.747.933-1.327 1.6-1.74a4.057 4.057 0 012.18-.62c.573 0 1.1.113 1.58.34.493.227.886.573 1.18 1.04.306.467.46 1.06.46 1.78l-6 .78v.22c0 1.227.28 2.187.84 2.88.56.693 1.306 1.04 2.24 1.04a3.44 3.44 0 001.48-.32 5.23 5.23 0 001.22-.84l.32.32a4.552 4.552 0 01-1.5 1.56c-.614.4-1.327.6-2.14.6zm-.1-8.66c-.694 0-1.227.247-1.6.74-.374.493-.607 1.1-.7 1.82l4.14-.54c-.08-.573-.254-1.053-.52-1.44-.267-.387-.707-.58-1.32-.58zm5.338 8.36v-.46c.307-.013.547-.053.72-.12.173-.067.293-.207.36-.42.08-.213.12-.553.12-1.02V92.4c0-.347-.053-.573-.16-.68-.107-.107-.253-.16-.44-.16-.147 0-.293.02-.44.06a1.952 1.952 0 00-.42.14l-.2-.46 3.22-1.5.12.12c-.027.12-.06.38-.1.78-.027.387-.04.813-.04 1.28h.04c.547-.813 1.147-1.36 1.8-1.64a4.45 4.45 0 012.08-.34c.107.987.107 1.973 0 2.96h-.46c-.053-.547-.18-.927-.38-1.14-.187-.227-.453-.34-.8-.34-.44 0-.833.093-1.18.28-.347.187-.693.493-1.04.92v4.3c0 .467.047.807.14 1.02.093.213.273.353.54.42.28.067.687.107 1.22.12V99h-4.7zm11.812.3c-.693 0-1.353-.16-1.98-.48-.613-.333-1.113-.827-1.5-1.48-.386-.667-.58-1.493-.58-2.48 0-1.053.22-1.947.66-2.68a4.542 4.542 0 011.78-1.7 4.949 4.949 0 012.34-.58c.414 0 .86.053 1.34.16.494.107.934.293 1.32.56v2.62h-.46c-.066-.693-.24-1.227-.52-1.6s-.606-.633-.98-.78c-.36-.147-.72-.22-1.08-.22-.88 0-1.56.333-2.04 1-.48.653-.72 1.473-.72 2.46 0 .787.134 1.473.4 2.06.28.573.66 1.02 1.14 1.34.48.32 1.02.48 1.62.48.467 0 .927-.1 1.38-.3a4.48 4.48 0 001.26-.86l.32.32a4.712 4.712 0 01-1.52 1.56c-.64.4-1.366.6-2.18.6zm13.934-2.32c0 .467.04.807.12 1.02a.73.73 0 00.5.42c.254.067.607.107 1.06.12V99h-4.48v-.46c.307-.013.547-.053.72-.12.174-.067.294-.207.36-.42.08-.213.12-.553.12-1.02v-4.3c0-.467-.1-.833-.3-1.1-.2-.267-.56-.4-1.08-.4-.426 0-.886.093-1.38.28-.48.187-.973.48-1.48.88v4.64c0 .467.047.807.14 1.02a.73.73 0 00.5.42c.254.067.607.107 1.06.12V99h-4.5v-.46c.307-.013.547-.053.72-.12.174-.067.294-.207.36-.42.08-.213.12-.553.12-1.02V85.86c0-.373-.053-.613-.16-.72-.106-.107-.26-.16-.46-.16-.173 0-.36.027-.56.08-.186.053-.36.12-.52.2l-.2-.46 3.46-1.6.12.12a20.15 20.15 0 00-.06.86c-.013.467-.02 1.02-.02 1.66v5.88a7.51 7.51 0 011.66-1.3 3.708 3.708 0 011.92-.52c.827 0 1.407.213 1.74.64.347.413.52.967.52 1.66v4.78zm6.965 2.32c-.68 0-1.333-.16-1.96-.48-.613-.32-1.12-.8-1.52-1.44-.387-.653-.58-1.48-.58-2.48 0-1.013.2-1.893.6-2.64.4-.747.933-1.327 1.6-1.74a4.06 4.06 0 012.18-.62c.573 0 1.1.113 1.58.34a2.7 2.7 0 011.18 1.04c.307.467.46 1.06.46 1.78l-6 .78v.22c0 1.227.28 2.187.84 2.88.56.693 1.307 1.04 2.24 1.04.533 0 1.027-.107 1.48-.32a5.23 5.23 0 001.22-.84l.32.32a4.533 4.533 0 01-1.5 1.56c-.613.4-1.327.6-2.14.6zm-.1-8.66c-.693 0-1.227.247-1.6.74s-.607 1.1-.7 1.82l4.14-.54c-.08-.573-.253-1.053-.52-1.44s-.707-.58-1.32-.58zm5.338 8.36v-.46c.307-.013.547-.053.72-.12.173-.067.293-.207.36-.42.08-.213.12-.553.12-1.02V92.4c0-.347-.053-.573-.16-.68-.107-.107-.253-.16-.44-.16-.147 0-.293.02-.44.06a1.952 1.952 0 00-.42.14l-.2-.46 3.22-1.5.12.12c-.027.12-.06.38-.1.78-.027.387-.04.813-.04 1.28h.04c.547-.813 1.147-1.36 1.8-1.64a4.45 4.45 0 012.08-.34c.107.987.107 1.973 0 2.96h-.46c-.053-.547-.18-.927-.38-1.14-.187-.227-.453-.34-.8-.34-.44 0-.833.093-1.18.28-.347.187-.693.493-1.04.92v4.3c0 .467.047.807.14 1.02.093.213.273.353.54.42.28.067.687.107 1.22.12V99h-4.7zm23.591-1.54l.2.46-3.24 1.5-.12-.12c.026-.12.053-.353.08-.7.04-.36.06-.74.06-1.14h-.04a8.59 8.59 0 01-1.62 1.32 3.4 3.4 0 01-1.86.52c-.84 0-1.427-.213-1.76-.64-.32-.427-.48-.98-.48-1.66v-4.6c0-.347-.06-.573-.18-.68a.596.596 0 00-.44-.16c-.267 0-.554.067-.86.2l-.2-.46 3.24-1.5.12.12a17.08 17.08 0 00-.06.86c-.014.453-.02.987-.02 1.6v4.12c0 .467.093.833.28 1.1.2.267.553.4 1.06.4.426 0 .866-.087 1.32-.26.466-.187.946-.48 1.44-.88V92.4c0-.347-.054-.573-.16-.68-.107-.107-.26-.16-.46-.16-.174 0-.354.033-.54.1a3.55 3.55 0 00-.5.18l-.2-.46 3.42-1.58.12.12a17.08 17.08 0 00-.06.86c-.014.453-.02.987-.02 1.6v4.38c0 .373.053.613.16.72.12.107.273.16.46.16.293 0 .58-.06.86-.18zm10.127-.48c0 .467.04.807.12 1.02a.73.73 0 00.5.42c.254.067.614.107 1.08.12V99h-4.5v-.46c.294-.013.527-.053.7-.12.174-.067.3-.207.38-.42.08-.213.12-.553.12-1.02v-4.3c0-.467-.106-.833-.32-1.1-.2-.267-.553-.4-1.06-.4-.44 0-.9.093-1.38.28-.48.187-.973.48-1.48.88v4.64c0 .467.04.807.12 1.02a.73.73 0 00.5.42c.254.067.614.107 1.08.12V99h-4.5v-.46c.307-.013.547-.053.72-.12.174-.067.294-.207.36-.42.08-.213.12-.553.12-1.02v-4.54c0-.36-.053-.593-.16-.7a.557.557 0 00-.44-.18c-.146 0-.293.02-.44.06a1.952 1.952 0 00-.42.14l-.2-.46 3.22-1.5.12.12c-.026.12-.06.353-.1.7-.026.347-.04.713-.04 1.1h.04a7.129 7.129 0 011.64-1.3 3.81 3.81 0 011.94-.52c.854 0 1.447.213 1.78.64.334.413.5.967.5 1.66v4.78zm13.519 6.06v.46h-4.7v-.46c.307-.013.547-.053.72-.12.174-.067.294-.207.36-.42.08-.213.12-.553.12-1.02v-9.04c0-.36-.053-.593-.16-.7a.557.557 0 00-.44-.18c-.146 0-.293.02-.44.06a1.952 1.952 0 00-.42.14l-.2-.46 3.22-1.5.12.12c-.026.12-.06.353-.1.7-.026.347-.04.713-.04 1.1h.04v.02c.347-.493.78-.92 1.3-1.28.534-.373 1.167-.56 1.9-.56a3.22 3.22 0 011.74.5c.547.32.98.793 1.3 1.42.334.613.5 1.373.5 2.28 0 .853-.153 1.607-.46 2.26a4.71 4.71 0 01-1.2 1.62 5.153 5.153 0 01-1.66 1c-.6.213-1.206.32-1.82.32-.306 0-.593-.02-.86-.06a5.824 5.824 0 01-.72-.12v2.36c0 .467.047.807.14 1.02.094.213.274.353.54.42.28.067.687.107 1.22.12zm.2-4.64c.867 0 1.58-.287 2.14-.86.56-.587.84-1.507.84-2.76 0-1.147-.233-2.047-.7-2.7-.466-.653-1.073-.98-1.82-.98-.453 0-.9.12-1.34.36a6.05 6.05 0 00-1.22.88v5.24c.32.333.674.553 1.06.66.4.107.747.16 1.04.16zm6.528.6v-.46c.307-.013.547-.053.72-.12.173-.067.293-.207.36-.42.08-.213.12-.553.12-1.02V92.4c0-.347-.053-.573-.16-.68-.107-.107-.253-.16-.44-.16-.147 0-.293.02-.44.06a1.952 1.952 0 00-.42.14l-.2-.46 3.22-1.5.12.12c-.027.12-.06.38-.1.78-.027.387-.04.813-.04 1.28h.04c.547-.813 1.147-1.36 1.8-1.64a4.45 4.45 0 012.08-.34c.107.987.107 1.973 0 2.96h-.46c-.053-.547-.18-.927-.38-1.14-.187-.227-.453-.34-.8-.34-.44 0-.833.093-1.18.28-.347.187-.693.493-1.04.92v4.3c0 .467.047.807.14 1.02.093.213.273.353.54.42.28.067.687.107 1.22.12V99h-4.7zm12.312-9.1c.774 0 1.48.193 2.12.58.654.373 1.18.9 1.58 1.58.4.68.6 1.473.6 2.38 0 .8-.14 1.507-.42 2.12a4.481 4.481 0 01-1.08 1.52c-.453.4-.953.707-1.5.92-.533.2-1.06.3-1.58.3-.76 0-1.466-.187-2.12-.56a4.437 4.437 0 01-1.58-1.6c-.386-.68-.58-1.473-.58-2.38 0-.8.134-1.5.4-2.1.28-.613.647-1.12 1.1-1.52.454-.413.947-.72 1.48-.92a4.235 4.235 0 011.58-.32zm.06 8.6c.787 0 1.407-.28 1.86-.84.454-.573.68-1.453.68-2.64 0-.813-.126-1.547-.38-2.2-.24-.653-.58-1.167-1.02-1.54a2.26 2.26 0 00-1.54-.58c-.773 0-1.386.287-1.84.86-.453.56-.68 1.433-.68 2.62 0 .8.12 1.527.36 2.18.254.653.6 1.173 1.04 1.56.44.387.947.58 1.52.58zm15.884-1.04l.2.46-3.26 1.5-.12-.12c.026-.12.053-.353.08-.7.04-.36.06-.74.06-1.14h-.02a5.335 5.335 0 01-1.32 1.3c-.52.36-1.147.54-1.88.54-.627 0-1.214-.16-1.76-.48-.534-.333-.967-.813-1.3-1.44-.32-.627-.48-1.387-.48-2.28 0-.853.146-1.6.44-2.24a5.01 5.01 0 011.2-1.64 5.142 5.142 0 011.66-.98 5.271 5.271 0 011.84-.34c.613 0 1.14.06 1.58.18v-4.22c0-.373-.06-.613-.18-.72a.596.596 0 00-.44-.16c-.174 0-.36.027-.56.08a2.97 2.97 0 00-.52.2l-.2-.46 3.46-1.6.12.12a17.08 17.08 0 00-.06.86 56.76 56.76 0 00-.02 1.66v10.92c0 .373.053.613.16.72.12.107.273.16.46.16.28 0 .566-.06.86-.18zm-5.64.64c.466 0 .913-.12 1.34-.36a6.05 6.05 0 001.22-.88v-5.24c-.32-.347-.68-.567-1.08-.66a3.904 3.904 0 00-1.02-.16c-.854 0-1.567.293-2.14.88-.56.573-.84 1.487-.84 2.74 0 1.147.233 2.047.7 2.7.466.653 1.073.98 1.82.98zm17.049-.64l.2.46-3.24 1.5-.12-.12c.026-.12.053-.353.08-.7.04-.36.06-.74.06-1.14h-.04a8.59 8.59 0 01-1.62 1.32 3.4 3.4 0 01-1.86.52c-.84 0-1.427-.213-1.76-.64-.32-.427-.48-.98-.48-1.66v-4.6c0-.347-.06-.573-.18-.68a.596.596 0 00-.44-.16c-.267 0-.554.067-.86.2l-.2-.46 3.24-1.5.12.12a17.08 17.08 0 00-.06.86c-.014.453-.02.987-.02 1.6v4.12c0 .467.093.833.28 1.1.2.267.553.4 1.06.4.426 0 .866-.087 1.32-.26.466-.187.946-.48 1.44-.88V92.4c0-.347-.054-.573-.16-.68-.107-.107-.26-.16-.46-.16-.174 0-.354.033-.54.1a3.55 3.55 0 00-.5.18l-.2-.46 3.42-1.58.12.12a17.08 17.08 0 00-.06.86c-.014.453-.02.987-.02 1.6v4.38c0 .373.053.613.16.72.12.107.273.16.46.16.293 0 .58-.06.86-.18zm4.307-.48c0 .467.047.807.14 1.02a.73.73 0 00.5.42c.254.067.607.107 1.06.12V99h-4.5v-.46c.294-.013.527-.053.7-.12.174-.067.3-.207.38-.42.08-.213.12-.553.12-1.02v-4.52c0-.373-.06-.613-.18-.72a.557.557 0 00-.44-.18c-.173 0-.36.033-.56.1-.186.053-.36.113-.52.18l-.2-.46 3.46-1.58.12.12a20.15 20.15 0 00-.06.86c-.013.467-.02 1.02-.02 1.66v4.54zm-.8-9.06c-.293 0-.54-.1-.74-.3-.2-.2-.3-.447-.3-.74 0-.28.1-.52.3-.72.2-.2.447-.3.74-.3.294 0 .54.1.74.3.2.2.3.44.3.72 0 .293-.1.54-.3.74-.2.2-.446.3-.74.3zm9.3 9.34l.32.32c-.32.48-.687.887-1.1 1.22-.414.333-.954.5-1.62.5-.534 0-.96-.107-1.28-.32a1.776 1.776 0 01-.66-.84 3.3 3.3 0 01-.2-1.16v-5.96h-1.38v-.82h1.38v-2.74l1.7-.3c-.04.507-.067 1.013-.08 1.52-.014.507-.02 1.013-.02 1.52h2.96v.82h-2.34c-.227 0-.387.047-.48.14-.094.093-.14.253-.14.48v4.92c0 .427.073.793.22 1.1.16.307.48.46.96.46.28 0 .566-.067.86-.2.293-.147.593-.367.9-.66z" fill="#000"/><path fill="#C4C4C4" d="M47 169h281v46H47zm0 111h281v46H47z"/><path d="M48.82 140.7H59.6v3.12h-.46a4.79 4.79 0 00-.22-1.24c-.12-.36-.347-.64-.68-.84-.333-.213-.84-.32-1.52-.32h-1.66V152c0 .453.047.787.14 1 .107.213.293.353.56.42.28.067.68.107 1.2.12v.46h-5v-.46c.36-.013.64-.053.84-.12a.661.661 0 00.44-.42c.08-.213.12-.547.12-1v-10.58h-1.68c-.667 0-1.167.107-1.5.32-.333.2-.56.48-.68.84a4.79 4.79 0 00-.22 1.24h-.46v-3.12zm12.181 18c-.453 0-.813-.147-1.08-.44-.267-.28-.4-.673-.4-1.18 0-.227.027-.453.08-.68.053-.227.127-.46.22-.7h.46c.04.573.14 1 .3 1.28.16.28.42.42.78.42.4 0 .813-.307 1.24-.92.44-.6.947-1.48 1.52-2.64l-2.98-6.68c-.2-.453-.38-.78-.54-.98-.147-.2-.307-.333-.48-.4a1.819 1.819 0 00-.6-.12v-.46h4.26v.46c-.44.013-.753.06-.94.14-.173.067-.247.207-.22.42.027.2.127.513.3.94l2 4.6h.04l1.86-4.6c.267-.627.307-1.027.12-1.2-.187-.173-.633-.273-1.34-.3v-.46h3.56v.46c-.2.013-.38.06-.54.14-.16.067-.313.207-.46.42-.133.2-.287.513-.46.94l-2.14 5.26a56.811 56.811 0 01-1.52 3.48c-.44.933-.9 1.633-1.38 2.1-.467.467-1.02.7-1.66.7zm13.536-.66v.46h-4.7v-.46c.307-.013.547-.053.72-.12.174-.067.294-.207.36-.42.08-.213.12-.553.12-1.02v-9.04c0-.36-.053-.593-.16-.7a.558.558 0 00-.44-.18c-.146 0-.293.02-.44.06a1.94 1.94 0 00-.42.14l-.2-.46 3.22-1.5.12.12c-.026.12-.06.353-.1.7-.026.347-.04.713-.04 1.1h.04v.02c.347-.493.78-.92 1.3-1.28.534-.373 1.167-.56 1.9-.56.627 0 1.207.167 1.74.5.547.32.98.793 1.3 1.42.334.613.5 1.373.5 2.28 0 .853-.153 1.607-.46 2.26a4.717 4.717 0 01-1.2 1.62 5.169 5.169 0 01-1.66 1c-.6.213-1.206.32-1.82.32-.306 0-.593-.02-.86-.06a5.919 5.919 0 01-.72-.12v2.36c0 .467.047.807.14 1.02.094.213.274.353.54.42.28.067.687.107 1.22.12zm.2-4.64c.867 0 1.58-.287 2.14-.86.56-.587.84-1.507.84-2.76 0-1.147-.233-2.047-.7-2.7-.466-.653-1.073-.98-1.82-.98-.453 0-.9.12-1.34.36a6.02 6.02 0 00-1.22.88v5.24c.32.333.674.553 1.06.66.4.107.747.16 1.04.16zm10.528.9c-.68 0-1.333-.16-1.96-.48-.613-.32-1.12-.8-1.52-1.44-.386-.653-.58-1.48-.58-2.48 0-1.013.2-1.893.6-2.64.4-.747.933-1.327 1.6-1.74a4.062 4.062 0 012.18-.62c.574 0 1.1.113 1.58.34a2.7 2.7 0 011.18 1.04c.307.467.46 1.06.46 1.78l-6 .78v.22c0 1.227.28 2.187.84 2.88.56.693 1.307 1.04 2.24 1.04.533 0 1.027-.107 1.48-.32.454-.227.86-.507 1.22-.84l.32.32a4.54 4.54 0 01-1.5 1.56c-.613.4-1.326.6-2.14.6zm-.1-8.66c-.693 0-1.227.247-1.6.74s-.606 1.1-.7 1.82l4.14-.54c-.08-.573-.253-1.053-.52-1.44-.266-.387-.707-.58-1.32-.58zM56.64 265.16a8.939 8.939 0 00-.38-.92c-.147-.32-.347-.76-.6-1.32l-3.82-8.5h-.04l-.4 8.58c-.013.493.1.867.34 1.12.24.253.767.393 1.58.42v.46h-4.26v-.46c.52-.027.88-.167 1.08-.42.213-.253.327-.627.34-1.12l.46-9.3c.027-.467-.007-.8-.1-1-.08-.213-.247-.353-.5-.42s-.633-.107-1.14-.12v-.46h3.4c.107.347.22.673.34.98.133.307.287.647.46 1.02l4.04 8.88h.04l3.72-8.88c.147-.347.273-.68.38-1 .12-.333.227-.667.32-1h3.16v.46c-.373.013-.667.053-.88.12a.661.661 0 00-.44.42c-.067.2-.093.533-.08 1l.42 9.3c.027.453.087.787.18 1 .093.213.26.353.5.42.253.053.6.093 1.04.12v.46h-4.64v-.46a4.19 4.19 0 00.76-.12c.187-.067.313-.207.38-.42.08-.213.107-.547.08-1l-.38-8.72h-.04l-3.66 8.64c-.227.56-.407 1-.54 1.32-.12.307-.22.613-.3.92h-.82zm13.075.14c-.627 0-1.14-.16-1.54-.48-.387-.333-.58-.807-.58-1.42 0-.493.153-.947.46-1.36.306-.413.813-.793 1.52-1.14.706-.347 1.666-.667 2.88-.96v-1.3c0-.547-.12-1-.36-1.36-.227-.36-.667-.54-1.32-.54-.627 0-1.127.2-1.5.6-.36.387-.614.993-.76 1.82h-.46v-2.5c.466-.227.96-.407 1.48-.54a6.612 6.612 0 011.76-.22c.733 0 1.293.1 1.68.3.4.187.68.453.84.8.16.347.24.753.24 1.22v4.84c0 .707.22 1.06.66 1.06.16 0 .34-.053.54-.16.213-.107.46-.327.74-.66l.32.32c-.614 1.053-1.347 1.58-2.2 1.58-.88 0-1.42-.447-1.62-1.34h-.04c-.734.96-1.647 1.44-2.74 1.44zm.74-1.18c.64 0 1.306-.293 2-.88v-2.68c-.96.24-1.667.507-2.12.8-.454.28-.754.567-.9.86-.134.28-.2.54-.2.78 0 .387.12.673.36.86.24.173.526.26.86.26zm9.67 5.58c-.548 0-1.06-.067-1.54-.2s-.868-.347-1.16-.64c-.294-.293-.44-.68-.44-1.16 0-.813.492-1.513 1.48-2.1l.46.08a3.116 3.116 0 00-.4.82 2.96 2.96 0 00-.14.86c0 .507.18.9.54 1.18.36.293.906.44 1.64.44.692 0 1.306-.12 1.84-.36.546-.24.98-.56 1.3-.96.32-.4.48-.833.48-1.3 0-.307-.088-.547-.26-.72-.16-.173-.46-.293-.9-.36l-4.26-.72c-.548-.107-.82-.473-.82-1.1 0-.347.112-.707.34-1.08.24-.373.592-.747 1.06-1.12a3.391 3.391 0 01-1.4-.84c-.388-.4-.58-.92-.58-1.56 0-.613.18-1.14.54-1.58.36-.44.826-.78 1.4-1.02a4.66 4.66 0 011.82-.36c.466 0 .932.067 1.4.2.466.133.866.34 1.2.62.332-.08.612-.293.84-.64.226-.347.372-.82.44-1.42h.42c.12.147.206.34.26.58.066.227.1.433.1.62 0 .4-.134.713-.4.94-.254.213-.66.34-1.22.38.28.4.42.853.42 1.36 0 .6-.18 1.127-.54 1.58-.36.44-.828.78-1.4 1.02a4.666 4.666 0 01-2.76.26 2.2 2.2 0 00-.46.54c-.108.2-.16.4-.16.6 0 .147.04.28.12.4a.6.6 0 00.4.22l4.16.7c.6.093 1.06.28 1.38.56.32.267.48.66.48 1.18 0 .467-.134.94-.4 1.42-.268.48-.648.92-1.14 1.32-.494.413-1.094.74-1.8.98-.694.253-1.474.38-2.34.38zm.96-8.88c.6 0 1.066-.193 1.4-.58.332-.387.5-.867.5-1.44 0-.653-.2-1.187-.6-1.6-.388-.413-.894-.62-1.52-.62-.6 0-1.068.193-1.4.58-.334.373-.5.853-.5 1.44 0 .653.2 1.187.6 1.6.4.413.906.62 1.52.62zm8.16 4.48c-.626 0-1.14-.16-1.54-.48-.386-.333-.58-.807-.58-1.42 0-.493.154-.947.46-1.36.308-.413.814-.793 1.52-1.14.708-.347 1.668-.667 2.88-.96v-1.3c0-.547-.12-1-.36-1.36-.226-.36-.666-.54-1.32-.54-.626 0-1.126.2-1.5.6-.36.387-.612.993-.76 1.82h-.46v-2.5c.468-.227.96-.407 1.48-.54a6.613 6.613 0 011.76-.22c.734 0 1.294.1 1.68.3.4.187.68.453.84.8.16.347.24.753.24 1.22v4.84c0 .707.22 1.06.66 1.06.16 0 .34-.053.54-.16.214-.107.46-.327.74-.66l.32.32c-.612 1.053-1.346 1.58-2.2 1.58-.88 0-1.42-.447-1.62-1.34h-.04c-.732.96-1.646 1.44-2.74 1.44zm.74-1.18c.64 0 1.308-.293 2-.88v-2.68c-.96.24-1.666.507-2.12.8-.452.28-.752.567-.9.86-.132.28-.2.54-.2.78 0 .387.12.673.36.86.24.173.528.26.86.26zm9.53 1.18c-.946 0-1.673-.18-2.18-.54-.506-.36-.76-.82-.76-1.38 0-.2.04-.42.12-.66.08-.253.22-.5.42-.74h.46c.014.853.194 1.507.54 1.96.347.453.894.68 1.64.68.667 0 1.16-.16 1.48-.48.32-.32.48-.687.48-1.1 0-.373-.12-.68-.36-.92a2.878 2.878 0 00-.9-.62 11.53 11.53 0 00-1.16-.52c-.413-.173-.806-.36-1.18-.56a3.187 3.187 0 01-.9-.78c-.226-.307-.34-.693-.34-1.16 0-.733.294-1.347.88-1.84.587-.493 1.407-.74 2.46-.74.414 0 .834.04 1.26.12.427.067.827.207 1.2.42v2.3h-.46c-.093-.787-.346-1.34-.76-1.66-.413-.333-.9-.5-1.46-.5-.546 0-.96.12-1.24.36s-.42.553-.42.94c0 .36.114.66.34.9.24.227.54.427.9.6.374.173.76.347 1.16.52.414.16.8.353 1.16.58.374.213.674.487.9.82.24.32.36.727.36 1.22 0 .893-.346 1.58-1.04 2.06-.693.48-1.56.72-2.6.72zm8.203-2.32c0 .467.047.807.14 1.02.093.213.26.353.5.42.253.067.607.107 1.06.12v.46h-4.5v-.46c.293-.013.527-.053.7-.12.173-.067.3-.207.38-.42.08-.213.12-.553.12-1.02v-4.52c0-.373-.06-.613-.18-.72a.558.558 0 00-.44-.18c-.173 0-.36.033-.56.1-.187.053-.36.113-.52.18l-.2-.46 3.46-1.58.12.12a20.15 20.15 0 00-.06.86c-.013.467-.02 1.02-.02 1.66v4.54zm-.8-9.06c-.293 0-.54-.1-.74-.3-.2-.2-.3-.447-.3-.74 0-.28.1-.52.3-.72.2-.2.447-.3.74-.3s.54.1.74.3c.2.2.3.44.3.72 0 .293-.1.54-.3.74-.2.2-.447.3-.74.3zm12.479 9.06c0 .467.04.807.12 1.02a.73.73 0 00.5.42c.254.067.614.107 1.08.12v.46h-4.5v-.46c.294-.013.527-.053.7-.12.174-.067.3-.207.38-.42.08-.213.12-.553.12-1.02v-4.3c0-.467-.106-.833-.32-1.1-.2-.267-.553-.4-1.06-.4-.44 0-.9.093-1.38.28-.48.187-.973.48-1.48.88v4.64c0 .467.04.807.12 1.02a.73.73 0 00.5.42c.254.067.614.107 1.08.12v.46h-4.5v-.46c.307-.013.547-.053.72-.12.174-.067.294-.207.36-.42.08-.213.12-.553.12-1.02v-4.54c0-.36-.053-.593-.16-.7a.557.557 0 00-.44-.18c-.146 0-.293.02-.44.06a1.952 1.952 0 00-.42.14l-.2-.46 3.22-1.5.12.12c-.026.12-.06.353-.1.7-.026.347-.04.713-.04 1.1h.04a7.129 7.129 0 011.64-1.3 3.81 3.81 0 011.94-.52c.854 0 1.447.213 1.78.64.334.413.5.967.5 1.66v4.78z" fill="#000"/><path d="M60.66 195.98c0 .467.047.807.14 1.02.093.213.26.353.5.42.253.067.607.107 1.06.12v.46h-4.5v-.46c.293-.013.527-.053.7-.12.173-.067.3-.207.38-.42.08-.213.12-.553.12-1.02v-11.12c0-.373-.06-.613-.18-.72-.107-.107-.253-.16-.44-.16-.173 0-.36.027-.56.08a2.98 2.98 0 00-.52.2l-.2-.46 3.46-1.6.12.12a20.15 20.15 0 00-.06.86c-.013.467-.02 1.02-.02 1.66v11.14zm7.043 2.32c-.68 0-1.334-.16-1.96-.48-.614-.32-1.12-.8-1.52-1.44-.387-.653-.58-1.48-.58-2.48 0-1.013.2-1.893.6-2.64.4-.747.933-1.327 1.6-1.74a4.062 4.062 0 012.18-.62c.573 0 1.1.113 1.58.34a2.7 2.7 0 011.18 1.04c.306.467.46 1.06.46 1.78l-6 .78v.22c0 1.227.28 2.187.84 2.88.56.693 1.306 1.04 2.24 1.04a3.44 3.44 0 001.48-.32c.453-.227.86-.507 1.22-.84l.32.32a4.54 4.54 0 01-1.5 1.56c-.614.4-1.327.6-2.14.6zm-.1-8.66c-.694 0-1.227.247-1.6.74-.374.493-.607 1.1-.7 1.82l4.14-.54c-.08-.573-.254-1.053-.52-1.44-.267-.387-.707-.58-1.32-.58zm8.178 8.66c-.947 0-1.673-.18-2.18-.54-.507-.36-.76-.82-.76-1.38 0-.2.04-.42.12-.66.08-.253.22-.5.42-.74h.46c.013.853.193 1.507.54 1.96.347.453.893.68 1.64.68.667 0 1.16-.16 1.48-.48.32-.32.48-.687.48-1.1 0-.373-.12-.68-.36-.92a2.892 2.892 0 00-.9-.62c-.36-.187-.747-.36-1.16-.52-.413-.173-.807-.36-1.18-.56a3.187 3.187 0 01-.9-.78c-.227-.307-.34-.693-.34-1.16 0-.733.293-1.347.88-1.84.587-.493 1.407-.74 2.46-.74.413 0 .833.04 1.26.12.427.067.827.207 1.2.42v2.3h-.46c-.093-.787-.347-1.34-.76-1.66-.413-.333-.9-.5-1.46-.5-.547 0-.96.12-1.24.36s-.42.553-.42.94c0 .36.113.66.34.9.24.227.54.427.9.6.373.173.76.347 1.16.52.413.16.8.353 1.16.58.373.213.673.487.9.82.24.32.36.727.36 1.22 0 .893-.347 1.58-1.04 2.06-.693.48-1.56.72-2.6.72zm8.223 0c-.947 0-1.674-.18-2.18-.54-.507-.36-.76-.82-.76-1.38 0-.2.04-.42.12-.66.08-.253.22-.5.42-.74h.46c.013.853.193 1.507.54 1.96.346.453.893.68 1.64.68.666 0 1.16-.16 1.48-.48.32-.32.48-.687.48-1.1 0-.373-.12-.68-.36-.92a2.895 2.895 0 00-.9-.62c-.36-.187-.747-.36-1.16-.52-.414-.173-.807-.36-1.18-.56a3.187 3.187 0 01-.9-.78c-.227-.307-.34-.693-.34-1.16 0-.733.293-1.347.88-1.84.586-.493 1.406-.74 2.46-.74.413 0 .833.04 1.26.12.426.067.826.207 1.2.42v2.3h-.46c-.094-.787-.347-1.34-.76-1.66-.414-.333-.9-.5-1.46-.5-.547 0-.96.12-1.24.36s-.42.553-.42.94c0 .36.113.66.34.9.24.227.54.427.9.6.373.173.76.347 1.16.52.413.16.8.353 1.16.58.373.213.673.487.9.82.24.32.36.727.36 1.22 0 .893-.347 1.58-1.04 2.06-.694.48-1.56.72-2.6.72zm8.202-2.32c0 .467.047.807.14 1.02a.73.73 0 00.5.42c.254.067.607.107 1.06.12v.46h-4.5v-.46c.294-.013.527-.053.7-.12.174-.067.3-.207.38-.42.08-.213.12-.553.12-1.02v-4.52c0-.373-.06-.613-.18-.72a.559.559 0 00-.44-.18c-.173 0-.36.033-.56.1-.186.053-.36.113-.52.18l-.2-.46 3.46-1.58.12.12a20.15 20.15 0 00-.06.86c-.013.467-.02 1.02-.02 1.66v4.54zm-.8-9.06c-.293 0-.54-.1-.74-.3-.2-.2-.3-.447-.3-.74 0-.28.1-.52.3-.72.2-.2.447-.3.74-.3.294 0 .54.1.74.3.2.2.3.44.3.72 0 .293-.1.54-.3.74-.2.2-.446.3-.74.3zm6.944 11.28a10.52 10.52 0 00-.28-.9 8.838 8.838 0 00-.34-.88l-2.24-5.26c-.187-.453-.36-.78-.52-.98-.147-.2-.307-.333-.48-.4a1.819 1.819 0 00-.6-.12v-.46h4.22v.46c-.454.013-.773.06-.96.14-.187.067-.267.207-.24.42.026.2.127.513.3.94l1.94 4.6h.04l1.9-4.6c.267-.627.313-1.027.14-1.2-.16-.173-.593-.273-1.3-.3v-.46h3.54v.46c-.2.013-.38.06-.54.14-.16.067-.313.207-.46.42-.133.2-.293.513-.48.94l-2.22 5.26c-.147.36-.254.66-.32.9-.067.24-.14.533-.22.88h-.88zm9.997.1c-.68 0-1.333-.16-1.96-.48-.613-.32-1.12-.8-1.52-1.44-.386-.653-.58-1.48-.58-2.48 0-1.013.2-1.893.6-2.64.4-.747.934-1.327 1.6-1.74a4.064 4.064 0 012.18-.62c.574 0 1.1.113 1.58.34.494.227.887.573 1.18 1.04.307.467.46 1.06.46 1.78l-6 .78v.22c0 1.227.28 2.187.84 2.88.56.693 1.307 1.04 2.24 1.04.534 0 1.027-.107 1.48-.32.454-.227.86-.507 1.22-.84l.32.32a4.533 4.533 0 01-1.5 1.56c-.613.4-1.326.6-2.14.6zm-.1-8.66c-.693 0-1.226.247-1.6.74-.373.493-.606 1.1-.7 1.82l4.14-.54c-.08-.573-.253-1.053-.52-1.44-.266-.387-.706-.58-1.32-.58zM61.98 310.3c-.693 0-1.353-.16-1.98-.48-.613-.333-1.113-.827-1.5-1.48-.387-.667-.58-1.493-.58-2.48 0-1.053.22-1.947.66-2.68a4.535 4.535 0 011.78-1.7 4.941 4.941 0 012.34-.58c.413 0 .86.053 1.34.16.493.107.933.293 1.32.56v2.62h-.46c-.067-.693-.24-1.227-.52-1.6s-.607-.633-.98-.78c-.36-.147-.72-.22-1.08-.22-.88 0-1.56.333-2.04 1-.48.653-.72 1.473-.72 2.46 0 .787.133 1.473.4 2.06.28.573.66 1.02 1.14 1.34.48.32 1.02.48 1.62.48.467 0 .927-.1 1.38-.3a4.49 4.49 0 001.26-.86l.32.32a4.71 4.71 0 01-1.52 1.56c-.64.4-1.367.6-2.18.6zm9.914-9.4c.773 0 1.48.193 2.12.58.653.373 1.18.9 1.58 1.58.4.68.6 1.473.6 2.38 0 .8-.14 1.507-.42 2.12a4.498 4.498 0 01-1.08 1.52c-.453.4-.953.707-1.5.92-.533.2-1.06.3-1.58.3-.76 0-1.467-.187-2.12-.56a4.436 4.436 0 01-1.58-1.6c-.387-.68-.58-1.473-.58-2.38 0-.8.133-1.5.4-2.1.28-.613.647-1.12 1.1-1.52.453-.413.947-.72 1.48-.92a4.239 4.239 0 011.58-.32zm.06 8.6c.787 0 1.407-.28 1.86-.84.453-.573.68-1.453.68-2.64 0-.813-.127-1.547-.38-2.2-.24-.653-.58-1.167-1.02-1.54a2.259 2.259 0 00-1.54-.58c-.773 0-1.387.287-1.84.86-.453.56-.68 1.433-.68 2.62 0 .8.12 1.527.36 2.18.253.653.6 1.173 1.04 1.56.44.387.947.58 1.52.58zm8.823-1.52c0 .467.047.807.14 1.02.093.213.26.353.5.42.254.067.607.107 1.06.12v.46h-4.5v-.46c.293-.013.527-.053.7-.12.173-.067.3-.207.38-.42.08-.213.12-.553.12-1.02v-11.12c0-.373-.06-.613-.18-.72-.106-.107-.253-.16-.44-.16-.173 0-.36.027-.56.08a2.98 2.98 0 00-.52.2l-.2-.46 3.46-1.6.12.12a20.15 20.15 0 00-.06.86c-.013.467-.02 1.02-.02 1.66v11.14zM83.82 310v-.46c.306-.013.547-.053.72-.12.173-.067.293-.207.36-.42.08-.213.12-.553.12-1.02v-4.58c0-.347-.053-.573-.16-.68-.107-.107-.254-.16-.44-.16-.147 0-.294.02-.44.06a1.94 1.94 0 00-.42.14l-.2-.46 3.22-1.5.12.12c-.027.12-.06.38-.1.78-.027.387-.04.813-.04 1.28h.04c.547-.813 1.147-1.36 1.8-1.64a4.454 4.454 0 012.08-.34c.106.987.106 1.973 0 2.96h-.46c-.053-.547-.18-.927-.38-1.14-.187-.227-.454-.34-.8-.34-.44 0-.834.093-1.18.28-.347.187-.694.493-1.04.92v4.3c0 .467.046.807.14 1.02.093.213.273.353.54.42.28.067.687.107 1.22.12v.46h-4.7zm17.672-1.54l.2.46-3.24 1.5-.12-.12c.027-.12.054-.353.08-.7.04-.36.06-.74.06-1.14h-.04c-.52.533-1.06.973-1.62 1.32-.546.347-1.166.52-1.86.52-.84 0-1.426-.213-1.76-.64-.32-.427-.48-.98-.48-1.66v-4.6c0-.347-.06-.573-.18-.68-.106-.107-.253-.16-.44-.16-.266 0-.553.067-.86.2l-.2-.46 3.24-1.5.12.12a20.15 20.15 0 00-.06.86c-.013.453-.02.987-.02 1.6v4.12c0 .467.094.833.28 1.1.2.267.554.4 1.06.4a3.69 3.69 0 001.32-.26c.467-.187.947-.48 1.44-.88v-4.46c0-.347-.053-.573-.16-.68-.106-.107-.26-.16-.46-.16-.173 0-.353.033-.54.1a3.525 3.525 0 00-.5.18l-.2-.46 3.42-1.58.12.12a20.15 20.15 0 00-.06.86c-.013.453-.02.987-.02 1.6v4.38c0 .373.054.613.16.72.12.107.274.16.46.16.294 0 .58-.06.86-.18zm1.888 6.24c-.453 0-.813-.147-1.08-.44-.267-.28-.4-.673-.4-1.18 0-.227.027-.453.08-.68.053-.227.127-.46.22-.7h.46c.04.573.14 1 .3 1.28.16.28.42.42.78.42.4 0 .813-.307 1.24-.92.44-.6.947-1.48 1.52-2.64l-2.98-6.68c-.2-.453-.38-.78-.54-.98-.147-.2-.307-.333-.48-.4a1.819 1.819 0 00-.6-.12v-.46h4.26v.46c-.44.013-.753.06-.94.14-.173.067-.247.207-.22.42.027.2.127.513.3.94l2 4.6h.04l1.86-4.6c.267-.627.307-1.027.12-1.2-.187-.173-.633-.273-1.34-.3v-.46h3.56v.46c-.2.013-.38.06-.54.14-.16.067-.313.207-.46.42-.133.2-.287.513-.46.94l-2.14 5.26a56.998 56.998 0 01-1.52 3.48c-.44.933-.9 1.633-1.38 2.1-.467.467-1.02.7-1.66.7zm14.376-6.44l.32.32c-.32.48-.686.887-1.1 1.22-.413.333-.953.5-1.62.5-.533 0-.96-.107-1.28-.32a1.786 1.786 0 01-.66-.84c-.133-.36-.2-.747-.2-1.16v-5.96h-1.38v-.82h1.38v-2.74l1.7-.3c-.04.507-.066 1.013-.08 1.52-.013.507-.02 1.013-.02 1.52h2.96v.82h-2.34c-.226 0-.386.047-.48.14-.093.093-.14.253-.14.48v4.92c0 .427.074.793.22 1.1.16.307.48.46.96.46.28 0 .567-.067.86-.2.294-.147.594-.367.9-.66z" fill="#fff"/><path fill="#C4C4C4" d="M109 373h158v39H109z"/><path d="M142.005 398v-.46c.307-.013.547-.053.72-.12.174-.067.294-.207.36-.42.08-.213.12-.553.12-1.02v-4.58c0-.347-.053-.573-.16-.68-.106-.107-.253-.16-.44-.16-.146 0-.293.02-.44.06a1.952 1.952 0 00-.42.14l-.2-.46 3.22-1.5.12.12c-.026.12-.06.38-.1.78-.026.387-.04.813-.04 1.28h.04c.547-.813 1.147-1.36 1.8-1.64a4.454 4.454 0 012.08-.34c.107.987.107 1.973 0 2.96h-.46c-.053-.547-.18-.927-.38-1.14-.186-.227-.453-.34-.8-.34-.44 0-.833.093-1.18.28-.346.187-.693.493-1.04.92v4.3c0 .467.047.807.14 1.02.094.213.274.353.54.42.28.067.687.107 1.22.12v.46h-4.7zm11.813.3c-.68 0-1.333-.16-1.96-.48-.613-.32-1.12-.8-1.52-1.44-.387-.653-.58-1.48-.58-2.48 0-1.013.2-1.893.6-2.64.4-.747.933-1.327 1.6-1.74a4.062 4.062 0 012.18-.62c.573 0 1.1.113 1.58.34a2.7 2.7 0 011.18 1.04c.307.467.46 1.06.46 1.78l-6 .78v.22c0 1.227.28 2.187.84 2.88.56.693 1.307 1.04 2.24 1.04.533 0 1.027-.107 1.48-.32.453-.227.86-.507 1.22-.84l.32.32a4.533 4.533 0 01-1.5 1.56c-.613.4-1.327.6-2.14.6zm-.1-8.66c-.693 0-1.227.247-1.6.74s-.607 1.1-.7 1.82l4.14-.54c-.08-.573-.253-1.053-.52-1.44s-.707-.58-1.32-.58zm9.338 8.66c-.693 0-1.353-.16-1.98-.48-.613-.333-1.113-.827-1.5-1.48-.386-.667-.58-1.493-.58-2.48 0-1.053.22-1.947.66-2.68a4.542 4.542 0 011.78-1.7 4.945 4.945 0 012.34-.58c.414 0 .86.053 1.34.16.494.107.934.293 1.32.56v2.62h-.46c-.066-.693-.24-1.227-.52-1.6s-.606-.633-.98-.78c-.36-.147-.72-.22-1.08-.22-.88 0-1.56.333-2.04 1-.48.653-.72 1.473-.72 2.46 0 .787.134 1.473.4 2.06.28.573.66 1.02 1.14 1.34.48.32 1.02.48 1.62.48.467 0 .927-.1 1.38-.3a4.48 4.48 0 001.26-.86l.32.32a4.706 4.706 0 01-1.52 1.56c-.64.4-1.366.6-2.18.6zm13.934-2.32c0 .467.04.807.12 1.02a.73.73 0 00.5.42c.254.067.607.107 1.06.12v.46h-4.48v-.46c.307-.013.547-.053.72-.12.174-.067.294-.207.36-.42.08-.213.12-.553.12-1.02v-4.3c0-.467-.1-.833-.3-1.1-.2-.267-.56-.4-1.08-.4-.426 0-.886.093-1.38.28-.48.187-.973.48-1.48.88v4.64c0 .467.047.807.14 1.02a.73.73 0 00.5.42c.254.067.607.107 1.06.12v.46h-4.5v-.46c.307-.013.547-.053.72-.12.174-.067.294-.207.36-.42.08-.213.12-.553.12-1.02v-11.12c0-.373-.053-.613-.16-.72-.106-.107-.26-.16-.46-.16-.173 0-.36.027-.56.08-.186.053-.36.12-.52.2l-.2-.46 3.46-1.6.12.12a20.15 20.15 0 00-.06.86c-.013.467-.02 1.02-.02 1.66v5.88a7.51 7.51 0 011.66-1.3 3.705 3.705 0 011.92-.52c.827 0 1.407.213 1.74.64.347.413.52.967.52 1.66v4.78zm6.965 2.32c-.68 0-1.334-.16-1.96-.48-.614-.32-1.12-.8-1.52-1.44-.387-.653-.58-1.48-.58-2.48 0-1.013.2-1.893.6-2.64.4-.747.933-1.327 1.6-1.74a4.06 4.06 0 012.18-.62c.573 0 1.1.113 1.58.34.493.227.886.573 1.18 1.04.306.467.46 1.06.46 1.78l-6 .78v.22c0 1.227.28 2.187.84 2.88.56.693 1.306 1.04 2.24 1.04a3.44 3.44 0 001.48-.32c.453-.227.86-.507 1.22-.84l.32.32a4.552 4.552 0 01-1.5 1.56c-.614.4-1.327.6-2.14.6zm-.1-8.66c-.694 0-1.227.247-1.6.74-.374.493-.607 1.1-.7 1.82l4.14-.54c-.08-.573-.254-1.053-.52-1.44-.267-.387-.707-.58-1.32-.58zm5.338 8.36v-.46c.307-.013.547-.053.72-.12.173-.067.293-.207.36-.42.08-.213.12-.553.12-1.02v-4.58c0-.347-.053-.573-.16-.68-.107-.107-.253-.16-.44-.16-.147 0-.293.02-.44.06a1.952 1.952 0 00-.42.14l-.2-.46 3.22-1.5.12.12c-.027.12-.06.38-.1.78-.027.387-.04.813-.04 1.28h.04c.547-.813 1.147-1.36 1.8-1.64a4.454 4.454 0 012.08-.34c.107.987.107 1.973 0 2.96h-.46c-.053-.547-.18-.927-.38-1.14-.187-.227-.453-.34-.8-.34-.44 0-.833.093-1.18.28-.347.187-.693.493-1.04.92v4.3c0 .467.047.807.14 1.02.093.213.273.353.54.42.28.067.687.107 1.22.12v.46h-4.7zm11.812.3c-.693 0-1.353-.16-1.98-.48-.613-.333-1.113-.827-1.5-1.48-.386-.667-.58-1.493-.58-2.48 0-1.053.22-1.947.66-2.68a4.542 4.542 0 011.78-1.7 4.945 4.945 0 012.34-.58c.414 0 .86.053 1.34.16.494.107.934.293 1.32.56v2.62h-.46c-.066-.693-.24-1.227-.52-1.6s-.606-.633-.98-.78c-.36-.147-.72-.22-1.08-.22-.88 0-1.56.333-2.04 1-.48.653-.72 1.473-.72 2.46 0 .787.134 1.473.4 2.06.28.573.66 1.02 1.14 1.34.48.32 1.02.48 1.62.48.467 0 .927-.1 1.38-.3a4.48 4.48 0 001.26-.86l.32.32a4.706 4.706 0 01-1.52 1.56c-.64.4-1.366.6-2.18.6zm13.934-2.32c0 .467.04.807.12 1.02a.73.73 0 00.5.42c.254.067.607.107 1.06.12v.46h-4.48v-.46c.307-.013.547-.053.72-.12.174-.067.294-.207.36-.42.08-.213.12-.553.12-1.02v-4.3c0-.467-.1-.833-.3-1.1-.2-.267-.56-.4-1.08-.4-.426 0-.886.093-1.38.28-.48.187-.973.48-1.48.88v4.64c0 .467.047.807.14 1.02a.73.73 0 00.5.42c.254.067.607.107 1.06.12v.46h-4.5v-.46c.307-.013.547-.053.72-.12.174-.067.294-.207.36-.42.08-.213.12-.553.12-1.02v-11.12c0-.373-.053-.613-.16-.72-.106-.107-.26-.16-.46-.16-.173 0-.36.027-.56.08-.186.053-.36.12-.52.2l-.2-.46 3.46-1.6.12.12a20.15 20.15 0 00-.06.86c-.013.467-.02 1.02-.02 1.66v5.88a7.51 7.51 0 011.66-1.3 3.705 3.705 0 011.92-.52c.827 0 1.407.213 1.74.64.347.413.52.967.52 1.66v4.78zm6.965 2.32c-.68 0-1.334-.16-1.96-.48-.614-.32-1.12-.8-1.52-1.44-.387-.653-.58-1.48-.58-2.48 0-1.013.2-1.893.6-2.64.4-.747.933-1.327 1.6-1.74a4.06 4.06 0 012.18-.62c.573 0 1.1.113 1.58.34.493.227.886.573 1.18 1.04.306.467.46 1.06.46 1.78l-6 .78v.22c0 1.227.28 2.187.84 2.88.56.693 1.306 1.04 2.24 1.04a3.44 3.44 0 001.48-.32c.453-.227.86-.507 1.22-.84l.32.32a4.552 4.552 0 01-1.5 1.56c-.614.4-1.327.6-2.14.6zm-.1-8.66c-.694 0-1.227.247-1.6.74-.374.493-.607 1.1-.7 1.82l4.14-.54c-.08-.573-.254-1.053-.52-1.44-.267-.387-.707-.58-1.32-.58zm5.338 8.36v-.46c.307-.013.547-.053.72-.12.173-.067.293-.207.36-.42.08-.213.12-.553.12-1.02v-4.58c0-.347-.053-.573-.16-.68-.107-.107-.253-.16-.44-.16-.147 0-.293.02-.44.06a1.952 1.952 0 00-.42.14l-.2-.46 3.22-1.5.12.12c-.027.12-.06.38-.1.78-.027.387-.04.813-.04 1.28h.04c.547-.813 1.147-1.36 1.8-1.64a4.454 4.454 0 012.08-.34c.107.987.107 1.973 0 2.96h-.46c-.053-.547-.18-.927-.38-1.14-.187-.227-.453-.34-.8-.34-.44 0-.833.093-1.18.28-.347.187-.693.493-1.04.92v4.3c0 .467.047.807.14 1.02.093.213.273.353.54.42.28.067.687.107 1.22.12v.46h-4.7z" fill="#000"/><path fill="#fff" stroke="#000" stroke-width="2" d="M-1-1h377v38H-1z"/><path d="M24 16.5V21h2.5v-4.5H24zm4.5-1.5v6H31v-6h-2.5zm4.5-1.5V21h2.5v-7.5H33zm4.5-2V21H40v-9.5h-2.5zM50 21l-2-2c0-.333.4-1 2-1s2 .667 2 1l-2 2zm4.5-4.5L53 18c-.333-.5-1.4-1.5-3-1.5s-2.667 1-3 1.5l-1.5-1.5c.667-.667 2.5-2 4.5-2s3.833 1.333 4.5 2z" fill="#000"/><path d="M57 14l-1.5 1.5c-1-.833-3.5-2.2-5.5-2.2s-4.167 1.367-5 2.2L43.5 14c.667-1 2.9-3 6.5-3s6.167 2 7 3zm120.631 6.687c0 .303.034.524.104.663.069.139.208.23.416.273a5.4 5.4 0 00.923.078V22h-3.913v-.299c.424-.009.736-.035.936-.078.199-.043.329-.134.39-.273.069-.139.104-.36.104-.663v-3.419l-1.196 1.04-.273-.299 2.145-1.885h.455c-.035.165-.061.33-.078.494a9.05 9.05 0 00-.013.494v3.575zm5.281 0c0 .303.035.524.104.663.069.139.208.23.416.273.208.043.516.07.923.078V22h-3.913v-.299c.425-.009.737-.035.936-.078.199-.043.329-.134.39-.273.069-.139.104-.36.104-.663v-3.419l-1.196 1.04-.273-.299 2.145-1.885h.455c-.035.165-.061.33-.078.494a9.05 9.05 0 00-.013.494v3.575zm3.24 1.508a.653.653 0 01-.481-.195.654.654 0 01-.195-.481c0-.182.065-.338.195-.468s.29-.195.481-.195.351.065.481.195.195.286.195.468c0 .19-.065.351-.195.481a.653.653 0 01-.481.195zm0-4.277a.653.653 0 01-.481-.195.654.654 0 01-.195-.481c0-.182.065-.338.195-.468s.29-.195.481-.195.351.065.481.195.195.286.195.468c0 .19-.065.351-.195.481a.653.653 0 01-.481.195zm4.593-1.833c.538 0 .997.143 1.378.429.39.286.689.663.897 1.131.208.46.312.966.312 1.521 0 .563-.108 1.075-.325 1.534a2.59 2.59 0 01-.897 1.092c-.381.269-.84.403-1.378.403-.528 0-.988-.134-1.378-.403a2.707 2.707 0 01-.91-1.079 3.677 3.677 0 01-.312-1.534c0-.555.104-1.066.312-1.534.208-.468.507-.845.897-1.131.399-.286.867-.429 1.404-.429zm0 5.031a2.35 2.35 0 001.014-.221c.312-.147.564-.368.754-.663.191-.295.286-.654.286-1.079 0-.416-.095-.771-.286-1.066a1.774 1.774 0 00-.741-.689 2.29 2.29 0 00-1.04-.234c-.372 0-.715.078-1.027.234a1.862 1.862 0 00-.754.689c-.182.295-.273.65-.273 1.066 0 .425.096.784.286 1.079.191.295.442.516.754.663.321.147.663.221 1.027.221zm6.627-5.031c.538 0 .997.143 1.378.429.39.286.689.663.897 1.131.208.46.312.966.312 1.521 0 .563-.108 1.075-.325 1.534a2.59 2.59 0 01-.897 1.092c-.381.269-.84.403-1.378.403-.528 0-.988-.134-1.378-.403a2.707 2.707 0 01-.91-1.079 3.677 3.677 0 01-.312-1.534c0-.555.104-1.066.312-1.534.208-.468.507-.845.897-1.131.399-.286.867-.429 1.404-.429zm0 5.031a2.35 2.35 0 001.014-.221c.312-.147.564-.368.754-.663.191-.295.286-.654.286-1.079 0-.416-.095-.771-.286-1.066a1.774 1.774 0 00-.741-.689 2.29 2.29 0 00-1.04-.234c-.372 0-.715.078-1.027.234a1.862 1.862 0 00-.754.689c-.182.295-.273.65-.273 1.066 0 .425.096.784.286 1.079.191.295.442.516.754.663.321.147.663.221 1.027.221zm106.119-1.126c0 .233.027.403.08.51.054.107.16.177.32.21s.397.053.71.06V21h-3.01v-.23c.327-.007.567-.027.72-.06.154-.033.254-.103.3-.21.054-.107.08-.277.08-.51v-2.63l-.92.8-.21-.23 1.65-1.45h.35a4.164 4.164 0 00-.06.38c-.006.127-.01.253-.01.38v2.75zm4.083-3.54c.413 0 .766.11 1.06.33.3.22.53.51.69.87.16.353.24.743.24 1.17 0 .433-.084.827-.25 1.18-.16.353-.39.633-.69.84-.294.207-.647.31-1.06.31-.407 0-.76-.103-1.06-.31a2.075 2.075 0 01-.7-.83 2.828 2.828 0 01-.24-1.18c0-.427.08-.82.24-1.18.16-.36.39-.65.69-.87.306-.22.666-.33 1.08-.33zm0 3.87c.28 0 .54-.057.78-.17a1.38 1.38 0 00.58-.51c.146-.227.22-.503.22-.83 0-.32-.074-.593-.22-.82-.14-.233-.33-.41-.57-.53-.24-.12-.507-.18-.8-.18-.287 0-.55.06-.79.18s-.434.297-.58.53c-.14.227-.21.5-.21.82 0 .327.073.603.22.83.146.227.34.397.58.51.246.113.51.17.79.17zm5.097-3.87c.414 0 .767.11 1.06.33.3.22.53.51.69.87.16.353.24.743.24 1.17 0 .433-.083.827-.25 1.18-.16.353-.39.633-.69.84-.293.207-.646.31-1.06.31-.406 0-.76-.103-1.06-.31a2.083 2.083 0 01-.7-.83 2.828 2.828 0 01-.24-1.18c0-.427.08-.82.24-1.18.16-.36.39-.65.69-.87.307-.22.667-.33 1.08-.33zm0 3.87c.28 0 .54-.057.78-.17.24-.113.434-.283.58-.51.147-.227.22-.503.22-.83 0-.32-.073-.593-.22-.82-.14-.233-.33-.41-.57-.53-.24-.12-.506-.18-.8-.18-.286 0-.55.06-.79.18s-.433.297-.58.53c-.14.227-.21.5-.21.82 0 .327.074.603.22.83.147.227.34.397.58.51.247.113.51.17.79.17zm11.157-5.02l.31.16-3.7 5.8-.31-.16 3.7-5.8zm-3.74.27c.24 0 .46.063.66.19.207.127.37.31.49.55.127.24.19.533.19.88s-.063.647-.19.9a1.444 1.444 0 01-.5.57 1.26 1.26 0 01-1.33 0 1.384 1.384 0 01-.5-.55 1.9 1.9 0 01-.19-.88c0-.353.063-.653.19-.9.133-.247.303-.433.51-.56.207-.133.43-.2.67-.2zm.02 3.03c.193 0 .347-.103.46-.31.113-.213.17-.55.17-1.01 0-.407-.053-.75-.16-1.03-.107-.287-.283-.43-.53-.43-.187 0-.34.107-.46.32-.113.207-.17.54-.17 1 0 .407.053.753.16 1.04.107.28.283.42.53.42zm4.05-.73c.233 0 .45.063.65.19.207.127.373.31.5.55.127.24.19.533.19.88s-.063.647-.19.9a1.444 1.444 0 01-.5.57 1.26 1.26 0 01-1.33 0 1.384 1.384 0 01-.5-.55 1.9 1.9 0 01-.19-.88c0-.353.063-.653.19-.9a1.37 1.37 0 01.5-.56c.213-.133.44-.2.68-.2zm.02 3.03c.193 0 .347-.103.46-.31.113-.213.17-.55.17-1.01 0-.407-.053-.75-.16-1.03-.107-.287-.283-.43-.53-.43-.187 0-.34.107-.46.32-.113.207-.17.54-.17 1 0 .407.053.753.16 1.04.107.28.283.42.53.42z" fill="#000"/><rect x="332" y="13" width="18" height="9" rx="2" fill="#000"/><path d="M351.227 17.5c0-.982-1.091-1.5-1.636-1.636v3.272c.545-.136 1.636-.654 1.636-1.636z" fill="#000"/><path fill="#C4C4C4" d="M0 615h90v52H0zm192 0h90v52h-90zm104 0h90v52h-90zm-200 0h90v52H96z"/><path d="M0 614h-1v54h377v-54H0z" fill="#fff" stroke="#000" stroke-width="2"/><path d="M130.769 645.424l-4.91 9c-.242.445.254.927.691.672l10.174-5.935a.5.5 0 01.538.023l8.344 5.84c.409.287.939-.137.75-.598l-3.692-9.026a.5.5 0 01.208-.62l9.053-5.35c.438-.258.255-.93-.254-.93h-9.83a.499.499 0 01-.465-.318l-3.975-10.158a.5.5 0 00-.909-.05l-5.352 10.257a.5.5 0 01-.443.269h-8.868c-.509 0-.692.672-.254.93l9.009 5.324a.5.5 0 01.185.67z" stroke="#000" stroke-width="2"/><rect x="226.09" y="636.631" width="26.67" height="18.457" rx="9.229" fill="#fff" stroke="#000" stroke-width="2"/><path d="M231.063 644v6.271m4.181-6.271v6.271m4.181-6.271v6.271m4.181-6.271v6.271m4.181-6.271v6.271m-20.009-13.669l6.72-10.602m16.724 10.602L244.502 626" stroke="#000" stroke-width="2" stroke-linecap="round" stroke-linejoin="round"/><rect x="224" y="636.631" width="31" height="3.674" rx="1.837" fill="#fff" stroke="#000" stroke-width="2"/><circle cx="341" cy="640.5" r="11" stroke="#000" stroke-width="2"/><circle cx="341" cy="640.5" r="8" stroke="#000" stroke-width="2"/><path d="M338 629.5v-3a.5.5 0 01.5-.5h4a.5.5 0 01.5.5v3m0 22v3a.5.5 0 01-.5.5h-4a.5.5 0 01-.5-.5v-3m-8.5-8.5h-3a.5.5 0 01-.5-.5v-4a.5.5 0 01.5-.5h3m22 0h3a.5.5 0 01.5.5v4a.5.5 0 01-.5.5h-3m-17.01 7.046l-2.122 2.121a.499.499 0 01-.707 0l-2.828-2.828a.499.499 0 010-.707l2.121-2.122m15.556-15.556l2.122-2.121a.499.499 0 01.707 0l2.828 2.828a.499.499 0 010 .707l-2.121 2.122m0 12.02l2.121 2.122a.5.5 0 010 .707l-2.828 2.828a.499.499 0 01-.707 0l-2.122-2.121m-15.556-15.556l-2.121-2.122a.5.5 0 010-.707l2.828-2.828a.499.499 0 01.707 0l2.122 2.121" stroke="#000" stroke-width="2"/><path fill="#fff" stroke="#000" stroke-width="2" d="M33.414 641.243l2.828-2.828 14.143 14.142-2.829 2.828z"/><circle cx="32" cy="637" r="9" fill="#fff" stroke="#000" stroke-width="2"/></g><defs><clipPath id="clip0_62_3"><path fill="#fff" d="M0 0h375v667H0z"/></clipPath></defs></svg>