<svg width="260" height="655" viewBox="0 0 260 655" fill="none" xmlns="http://www.w3.org/2000/svg">
<path d="M103.162 41V2C112.162 2 133.062 2 144.662 2C156.262 2 168.495 2 173.162 2V41" stroke="black" stroke-width="3" stroke-dasharray="10 10"/>
<path d="M18.1623 642.5L16.6758 642.7L16.8208 643.777L17.8886 643.975L18.1623 642.5ZM8.16233 297.5L9.64813 297.706L9.64813 297.706L8.16233 297.5ZM92.6621 72L93.8809 72.8744L94.053 72.6345L94.1213 72.3474L92.6621 72ZM184.662 72L183.232 72.4539L183.284 72.6149L183.369 72.7605L184.662 72ZM256.662 319L258.16 318.923L256.662 319ZM246.662 642.5L247.031 643.954L248.06 643.693L248.156 642.636L246.662 642.5ZM98.7029 40.1526L97.7654 44.0901L100.684 44.7849L101.621 40.8474L98.7029 40.1526ZM95.8904 51.9651L94.0154 59.8401L96.9338 60.5349L98.8088 52.6599L95.8904 51.9651ZM92.1404 67.7151L91.2029 71.6526L94.1213 72.3474L95.0588 68.4099L92.1404 67.7151ZM91.4433 71.1256C90.5212 72.411 89.5555 73.7947 88.5503 75.2738L91.0316 76.96C92.0237 75.5002 92.9748 74.1374 93.8809 72.8744L91.4433 71.1256ZM82.9992 83.7954C81.3103 86.4891 79.5484 89.3867 77.7275 92.4789L80.3126 94.0011C82.12 90.9319 83.8674 88.0581 85.5409 85.3891L82.9992 83.7954ZM72.6816 101.288C71.0909 104.14 69.468 107.121 67.8211 110.225L70.4712 111.631C72.1084 108.545 73.7213 105.583 75.3017 102.749L72.6816 101.288ZM63.1657 119.211C61.6747 122.157 60.1707 125.196 58.6591 128.325L61.3603 129.63C62.8639 126.518 64.3598 123.495 65.8425 120.565L63.1657 119.211ZM54.3376 137.475C52.9468 140.488 51.5541 143.573 50.1638 146.726L52.9089 147.937C54.2921 144.799 55.6777 141.73 57.0614 138.732L54.3376 137.475ZM46.1471 156.052C44.8575 159.117 43.5736 162.24 42.2989 165.418L45.0832 166.535C46.3517 163.372 47.6292 160.265 48.9123 157.215L46.1471 156.052ZM38.6039 174.858C37.4121 177.98 36.2316 181.15 35.0654 184.366L37.8856 185.388C39.0461 182.188 40.2207 179.034 41.4066 175.928L38.6039 174.858ZM31.6863 193.935C30.5974 197.103 29.5243 200.313 28.4696 203.561L31.323 204.488C32.3724 201.256 33.44 198.062 34.5235 194.91L31.6863 193.935ZM25.4229 213.227C24.4427 216.432 23.482 219.673 22.5432 222.946L25.4269 223.773C26.3609 220.517 27.3166 217.293 28.2918 214.104L25.4229 213.227ZM19.8342 232.717C18.9659 235.961 18.1204 239.235 17.2999 242.537L20.2114 243.26C21.0275 239.976 21.8684 236.72 22.7322 233.493L19.8342 232.717ZM14.9444 252.402C14.1937 255.679 13.4689 258.982 12.772 262.31L15.7083 262.925C16.4013 259.616 17.1221 256.331 17.8687 253.072L14.9444 252.402ZM10.7873 272.258C10.1605 275.565 9.56245 278.893 8.99497 282.243L11.9528 282.744C12.517 279.414 13.1116 276.104 13.7348 272.817L10.7873 272.258ZM7.39992 292.263C7.15081 293.935 6.9096 295.612 6.67653 297.294L9.64813 297.706C9.8798 296.034 10.1196 294.367 10.3672 292.705L7.39992 292.263ZM6.67653 297.294C6.44664 298.953 6.224 300.627 6.0085 302.314L8.98433 302.694C9.19852 301.017 9.41974 299.354 9.64813 297.706L6.67653 297.294ZM4.81588 312.451C4.45514 315.791 4.11966 319.177 3.80846 322.606L6.79618 322.877C7.10591 319.464 7.43972 316.095 7.79853 312.774L4.81588 312.451ZM2.96507 332.774C2.71173 336.133 2.47978 339.527 2.26837 342.953L5.26268 343.138C5.47328 339.725 5.70431 336.344 5.95657 333L2.96507 332.774ZM1.70398 353.14C1.53772 356.511 1.38992 359.91 1.25982 363.332L4.25765 363.446C4.38734 360.035 4.53466 356.648 4.70034 353.287L1.70398 353.14ZM0.926034 373.513C0.83255 376.889 0.755165 380.284 0.693181 383.695L3.69269 383.749C3.7545 380.348 3.83167 376.962 3.92488 373.596L0.926034 373.513ZM0.553589 393.882C0.521965 397.267 0.504588 400.664 0.500796 404.072L3.50079 404.075C3.50458 400.676 3.52191 397.286 3.55346 393.91L0.553589 393.882ZM0.529132 414.263C0.551484 417.654 0.586514 421.051 0.633577 424.453L3.63329 424.411C3.58632 421.017 3.55137 417.627 3.52907 414.243L0.529132 414.263ZM0.80965 434.638C0.879822 438.032 0.961305 441.427 1.05346 444.821L4.05236 444.739C3.96037 441.352 3.87904 437.963 3.80901 434.576L0.80965 434.638ZM1.36168 455.004C1.47497 458.403 1.59837 461.798 1.73123 465.185L4.72893 465.067C4.59629 461.686 4.4731 458.297 4.36002 454.904L1.36168 455.004ZM2.15936 475.362C2.31201 478.763 2.47364 482.154 2.64361 485.532L5.63982 485.381C5.47012 482.008 5.30874 478.623 5.15635 475.227L2.15936 475.362ZM3.18179 495.693C3.37126 499.103 3.56868 502.495 3.77336 505.868L6.76785 505.686C6.56347 502.318 6.36635 498.931 6.17717 495.527L3.18179 495.693ZM4.41601 516.039C4.64018 519.452 4.87124 522.842 5.10843 526.205L8.101 525.993C7.86414 522.636 7.63341 519.251 7.40956 515.842L4.41601 516.039ZM5.8496 536.365C6.10718 539.784 6.37053 543.17 6.6388 546.519L9.62923 546.28C9.36132 542.935 9.09834 539.553 8.84112 536.139L5.8496 536.365ZM7.4757 556.668C7.76641 560.095 8.0616 563.478 8.36032 566.813L11.3484 566.545C11.0501 563.215 10.7553 559.837 10.465 556.415L7.4757 556.668ZM9.29316 576.954C9.61801 580.396 9.94575 583.777 10.2752 587.094L13.2605 586.797C12.9315 583.485 12.6043 580.109 12.2799 576.672L9.29316 576.954ZM11.3081 597.231C11.6699 600.694 12.0323 604.074 12.3939 607.364L15.3759 607.036C15.0149 603.752 14.6531 600.377 14.2918 596.92L11.3081 597.231ZM13.5353 617.483C13.9391 620.97 14.3398 624.335 14.7353 627.566L17.7131 627.202C17.3184 623.977 16.9184 620.619 16.5154 617.138L13.5353 617.483ZM16.0141 637.704C16.2374 639.419 16.4581 641.085 16.6758 642.7L19.6489 642.3C19.4318 640.689 19.2117 639.027 18.989 637.316L16.0141 637.704ZM17.8886 643.975C19.6156 644.295 21.3387 644.608 23.0576 644.912L23.5803 641.958C21.8696 641.655 20.1548 641.344 18.4361 641.025L17.8886 643.975ZM33.3883 646.651C36.8602 647.206 40.3132 647.729 43.7455 648.22L44.1704 645.25C40.7541 644.761 37.3174 644.241 33.8619 643.689L33.3883 646.651ZM54.1257 649.619C57.6163 650.06 61.0834 650.47 64.5251 650.849L64.8537 647.867C61.4278 647.49 57.9767 647.082 54.5023 646.642L54.1257 649.619ZM74.94 651.913C78.4486 652.243 81.9281 652.542 85.3766 652.811L85.6101 649.82C82.1772 649.552 78.7135 649.255 75.221 648.926L74.94 651.913ZM95.835 653.544C99.36 653.763 102.849 653.952 106.3 654.112L106.439 651.115C103.004 650.956 99.5302 650.768 96.0211 650.55L95.835 653.544ZM116.767 654.514C120.3 654.622 123.788 654.7 127.23 654.751L127.274 651.751C123.848 651.701 120.376 651.623 116.859 651.515L116.767 654.514ZM137.705 654.822C141.258 654.817 144.755 654.784 148.193 654.725L148.141 651.725C144.719 651.785 141.238 651.817 137.702 651.822L137.705 654.822ZM158.656 654.458C162.219 654.338 165.711 654.191 169.127 654.018L168.976 651.022C165.576 651.194 162.101 651.341 158.555 651.46L158.656 654.458ZM179.589 653.4C183.17 653.157 186.655 652.887 190.038 652.596L189.781 649.607C186.415 649.897 182.949 650.165 179.386 650.407L179.589 653.4ZM200.453 651.599C204.072 651.217 207.552 650.811 210.885 650.388L210.507 647.412C207.195 647.833 203.737 648.236 200.138 648.616L200.453 651.599ZM221.276 648.945C224.961 648.387 228.412 647.813 231.616 647.232L231.081 644.28C227.907 644.855 224.485 645.425 220.827 645.979L221.276 648.945ZM241.944 645.162C243.77 644.755 245.468 644.351 247.031 643.954L246.293 641.046C244.761 641.435 243.092 641.832 241.291 642.234L241.944 645.162ZM248.156 642.636C248.302 641.025 248.452 639.355 248.603 637.627L245.615 637.365C245.463 639.09 245.314 640.757 245.168 642.364L248.156 642.636ZM249.462 627.551C249.729 624.328 250 620.957 250.276 617.448L247.285 617.214C247.01 620.718 246.738 624.085 246.472 627.304L249.462 627.551ZM251.053 607.308C251.297 604.046 251.543 600.687 251.789 597.238L248.797 597.024C248.551 600.47 248.305 603.825 248.061 607.084L251.053 607.308ZM252.493 587.146C252.719 583.846 252.943 580.477 253.167 577.043L250.173 576.848C249.95 580.279 249.725 583.645 249.5 586.942L252.493 587.146ZM253.81 566.936C254.017 563.616 254.221 560.245 254.424 556.826L251.429 556.649C251.227 560.064 251.022 563.433 250.816 566.75L253.81 566.936ZM255.008 546.715C255.196 543.381 255.381 540.009 255.562 536.602L252.567 536.442C252.385 539.846 252.2 543.216 252.013 546.546L255.008 546.715ZM256.087 526.487C256.256 523.142 256.421 519.769 256.582 516.369L253.586 516.227C253.425 519.624 253.26 522.994 253.091 526.336L256.087 526.487ZM257.047 506.25C257.195 502.896 257.34 499.521 257.48 496.128L254.482 496.005C254.343 499.395 254.198 502.766 254.05 506.117L257.047 506.25ZM257.881 486.005C258.008 482.644 258.131 479.268 258.249 475.881L255.25 475.777C255.133 479.161 255.01 482.533 254.883 485.891L257.881 486.005ZM258.582 465.764C258.687 462.398 258.786 459.023 258.88 455.643L255.881 455.56C255.787 458.937 255.688 462.308 255.583 465.67L258.582 465.764ZM259.14 445.518C259.221 442.145 259.295 438.768 259.362 435.391L256.363 435.331C256.295 438.704 256.221 442.077 256.141 445.447L259.14 445.518ZM259.543 425.263C259.596 421.883 259.642 418.506 259.68 415.134L256.681 415.1C256.642 418.468 256.596 421.84 256.543 425.215L259.543 425.263ZM259.772 405.007C259.795 401.623 259.81 398.246 259.816 394.881L256.816 394.876C256.81 398.236 256.795 401.607 256.772 404.987L259.772 405.007ZM259.807 384.751C259.795 381.358 259.774 377.979 259.743 374.617L256.743 374.644C256.774 378.001 256.795 381.374 256.807 384.762L259.807 384.751ZM259.618 364.482C259.566 361.082 259.503 357.703 259.429 354.348L256.43 354.414C256.503 357.762 256.566 361.135 256.619 364.528L259.618 364.482ZM259.168 344.215C259.068 340.808 258.956 337.43 258.83 334.084L255.832 334.197C255.957 337.534 256.07 340.904 256.17 344.303L259.168 344.215ZM258.406 323.956C258.328 322.269 258.246 320.591 258.16 318.923L255.164 319.077C255.249 320.74 255.331 322.412 255.409 324.095L258.406 323.956ZM258.16 318.923C258.075 317.254 257.98 315.587 257.876 313.922L254.882 314.109C254.985 315.763 255.079 317.419 255.164 319.077L258.16 318.923ZM257.148 303.941C256.87 300.61 256.557 297.288 256.212 293.979L253.229 294.29C253.571 297.579 253.882 300.88 254.159 304.191L257.148 303.941ZM255.076 284.038C254.663 280.718 254.219 277.413 253.746 274.122L250.776 274.549C251.247 277.821 251.688 281.108 252.099 284.408L255.076 284.038ZM252.228 264.234C251.69 260.93 251.123 257.643 250.53 254.376L247.579 254.912C248.169 258.162 248.732 261.43 249.268 264.717L252.228 264.234ZM248.657 244.551C248.001 241.264 247.319 238 246.615 234.76L243.683 235.397C244.384 238.621 245.063 241.869 245.715 245.138L248.657 244.551ZM244.407 225.005C243.639 221.739 242.849 218.5 242.039 215.289L239.131 216.023C239.937 219.218 240.723 222.441 241.487 225.692L244.407 225.005ZM239.516 205.613C238.642 202.369 237.749 199.157 236.84 195.98L233.956 196.805C234.861 199.968 235.749 203.164 236.619 206.393L239.516 205.613ZM234.016 186.392C233.04 183.171 232.05 179.991 231.046 176.852L228.189 177.766C229.187 180.89 230.174 184.056 231.145 187.262L234.016 186.392ZM227.93 167.353C226.852 164.148 225.763 160.993 224.667 157.89L221.838 158.889C222.93 161.978 224.014 165.119 225.087 168.31L227.93 167.353ZM221.262 148.481C220.085 145.303 218.902 142.186 217.718 139.135L214.921 140.221C216.1 143.257 217.277 146.359 218.449 149.523L221.262 148.481ZM214.038 129.864C212.751 126.694 211.466 123.605 210.19 120.602L207.429 121.776C208.699 124.764 209.977 127.838 211.258 130.993L214.038 129.864ZM206.204 111.439C204.801 108.288 203.414 105.249 202.05 102.33L199.332 103.6C200.688 106.503 202.068 109.525 203.463 112.659L206.204 111.439ZM197.736 93.3308C196.179 90.1663 194.664 87.1789 193.203 84.379L190.543 85.7672C191.993 88.5452 193.497 91.5113 195.045 94.6553L197.736 93.3308ZM188.44 75.5678C187.583 74.0414 186.754 72.5977 185.955 71.2395L183.369 72.7605C184.157 74.1002 184.977 75.5263 185.824 77.0363L188.44 75.5678ZM186.092 71.5461L184.842 67.6086L181.982 68.5164L183.232 72.4539L186.092 71.5461ZM182.342 59.7336L179.842 51.8586L176.982 52.7664L179.482 60.6414L182.342 59.7336ZM177.342 43.9836L176.092 40.0461L173.232 40.9539L174.482 44.8914L177.342 43.9836Z" fill="black"/>
</svg>
