<svg width="300" height="679" viewBox="0 0 300 679" fill="none" xmlns="http://www.w3.org/2000/svg">
<path d="M118.841 60.7891C84.1687 80.2268 12.827 127.192 4.84181 159.554C-5.13972 200.005 37.9384 226.272 33.2104 291.94C28.4823 357.608 -5.13994 486.317 4.84181 561.967C14.8236 637.616 10.0952 650.75 21.6528 659.155C33.2104 667.561 137.754 675.966 150.887 675.966C164.021 675.966 262.785 672.289 269.615 659.155C276.444 646.022 296.407 595.589 293.255 561.967C290.103 528.345 257.532 312.429 269.615 261.996C281.698 211.563 306.389 194.752 293.255 159.554C282.748 131.395 219.532 81.9779 189.237 60.7891" stroke="#E0E0E0" stroke-width="5" stroke-dasharray="10 10"/>
<path d="M117.789 60.7878V31.8939L134.6 25.0644V3L171.374 3V25.0644L187.134 31.8939V60.7878" stroke="#E0E0E0" stroke-width="5" stroke-dasharray="10 10"/>
</svg>
