<svg width="298" height="676" viewBox="0 0 298 676" fill="none" xmlns="http://www.w3.org/2000/svg">
<path d="M117.841 59.3228C83.1687 78.7605 11.827 125.726 3.84181 158.087C-6.13972 198.539 36.9384 224.806 32.2104 290.474C27.4823 356.142 -6.13994 484.851 3.84181 560.5C13.8236 636.15 9.09519 649.283 20.6528 657.689C32.2104 666.094 136.754 674.5 149.887 674.5C163.021 674.5 261.785 670.823 268.615 657.689C275.444 644.555 295.407 594.122 292.255 560.5C289.103 526.878 256.532 310.962 268.615 260.529C280.698 210.096 305.389 193.285 292.255 158.087C281.748 129.929 218.532 80.5116 188.237 59.3228" stroke="black" stroke-width="3" stroke-dasharray="10 10"/>
<path d="M116.791 59.3229V30.429L133.602 23.5996V1.53516H170.376V23.5996L186.136 30.429V59.3229" stroke="black" stroke-width="3" stroke-dasharray="10 10"/>
</svg>
