<svg width="300" height="679" fill="none" xmlns="http://www.w3.org/2000/svg"><path d="M118.841 60.79c-34.672 19.437-106.014 66.402-114 98.764-9.98 40.451 33.097 66.718 28.37 132.386-4.729 65.668-38.35 194.377-28.37 270.027 9.983 75.649 5.254 88.783 16.812 97.188 11.557 8.406 116.101 16.811 129.234 16.811 13.134 0 111.898-3.677 118.728-16.811 6.829-13.133 26.792-63.566 23.64-97.188-3.152-33.622-35.723-249.538-23.64-299.971 12.083-50.433 36.774-67.244 23.64-102.442-10.507-28.159-73.723-77.576-104.018-98.765m-71.448-.001V31.894l16.811-6.83V3h36.774v22.064l15.76 6.83v28.894" stroke="#E0E0E0" stroke-width="5" stroke-dasharray="10 10"/></svg>