<svg width="275" height="655" fill="none" xmlns="http://www.w3.org/2000/svg"><path d="M85.084 129c-21 23.833-66.2 98.5-79 206.5-12.8 108 17.333 252 34 310.5 87.999 10.4 164.666 4.333 191.999 0 14.167-73.167 41.9-235.1 39.5-297.5-2.4-62.4-55.666-172.333-82-219.5" stroke="#E0E0E0" stroke-width="5" stroke-dasharray="10 10"/><path d="M86.586 129c3-22.5 9.6-70.1 12-80.5 2.4-10.4 1-29.667 0-38 7.833-2.5 27-7.5 41-7.5s30.167 5 36.5 7.5v38c0 14 9 59.5 13.5 80.5" stroke="#E0E0E0" stroke-width="5" stroke-linejoin="round" stroke-dasharray="10 10"/></svg>