<svg width="275" height="655" viewBox="0 0 275 655" fill="none" xmlns="http://www.w3.org/2000/svg">
<path d="M85.0835 129C64.0835 152.833 18.8834 227.5 6.0834 335.5C-6.7166 443.5 23.4167 587.5 40.0834 646C128.083 656.4 204.75 650.333 232.083 646C246.25 572.833 273.983 410.9 271.583 348.5C269.183 286.1 215.917 176.167 189.583 129" stroke="#E0E0E0" stroke-width="5" stroke-dasharray="10 10"/>
<path d="M86.5859 129C89.5859 106.5 96.1859 58.9 98.5859 48.5C100.986 38.1 99.5859 18.8333 98.5859 10.5C106.419 8 125.586 3 139.586 3C153.586 3 169.753 8 176.086 10.5C176.086 17.3333 176.086 34.5 176.086 48.5C176.086 62.5 185.086 108 189.586 129" stroke="#E0E0E0" stroke-width="5" stroke-linejoin="round" stroke-dasharray="10 10"/>
</svg>
