<svg width="273" height="649" viewBox="0 0 273 649" fill="none" xmlns="http://www.w3.org/2000/svg">
<path d="M86.6704 123C89.8915 99.1031 95.7657 57.1818 98 47.5C100.4 37.1 99 17.8333 98 9.5C105.833 7 125 2 139 2C153 2 169.167 7 175.5 9.5C175.5 16.3333 175.5 33.5 175.5 47.5C175.5 60.472 183.227 100.488 187.941 123" stroke="black" stroke-width="3" stroke-dasharray="10 10"/>
<path d="M39.4999 641L38.0573 641.411L38.3312 642.372L39.3239 642.49L39.4999 641ZM5.49993 330.5L6.9895 330.677L5.49993 330.5ZM231.5 641L231.735 642.481L232.773 642.317L232.973 641.285L231.5 641ZM83.3746 123.008C82.3312 124.193 81.2316 125.497 80.0823 126.92L82.4162 128.805C83.5412 127.412 84.6132 126.14 85.6255 124.992L83.3746 123.008ZM73.8801 135.111C72.0325 137.694 70.1048 140.512 68.116 143.558L70.6279 145.198C72.5947 142.186 74.4985 139.403 76.3202 136.856L73.8801 135.111ZM62.6787 152.22C60.9873 155.019 59.2665 157.966 57.5264 161.057L60.1406 162.528C61.8658 159.464 63.5711 156.544 65.2464 153.771L62.6787 152.22ZM52.638 170.037C51.0999 172.958 49.5542 175.986 48.0079 179.12L50.6981 180.448C52.2329 177.338 53.7666 174.333 55.2925 171.434L52.638 170.037ZM43.5945 188.355C42.1993 191.369 40.8088 194.469 39.4278 197.651L42.1798 198.845C43.5512 195.685 44.932 192.608 46.3171 189.614L43.5945 188.355ZM35.4717 207.068C34.2114 210.168 32.9634 213.339 31.7318 216.578L34.536 217.644C35.7594 214.426 36.999 211.277 38.2509 208.198L35.4717 207.068ZM28.2169 226.144C27.096 229.303 25.9927 232.522 24.9104 235.799L27.7591 236.74C28.8344 233.484 29.9305 230.286 31.0442 227.148L28.2169 226.144ZM21.8135 245.531C20.8286 248.747 19.8655 252.015 18.9269 255.333L21.8137 256.149C22.7463 252.852 23.7033 249.605 24.682 246.41L21.8135 245.531ZM16.2562 265.176C15.4106 268.43 14.5897 271.729 13.796 275.073L16.7149 275.766C17.5036 272.443 18.3194 269.164 19.1598 265.931L16.2562 265.176ZM11.545 285.023C10.8367 288.315 10.1556 291.647 9.5038 295.02L12.4493 295.589C13.097 292.237 13.774 288.926 14.4779 285.654L11.545 285.023ZM7.67247 305.058C7.10223 308.38 6.56115 311.738 6.05115 315.132L9.01785 315.578C9.52473 312.205 10.0625 308.867 10.6292 305.565L7.67247 305.058ZM4.63984 325.239C4.42212 326.925 4.21222 328.62 4.01035 330.323L6.9895 330.677C7.19014 328.984 7.39876 327.299 7.61515 325.623L4.63984 325.239ZM4.01035 330.323C3.81875 331.94 3.63675 333.565 3.46415 335.197L6.44752 335.512C6.61881 333.892 6.79941 332.28 6.9895 330.677L4.01035 330.323ZM2.54579 345.004C2.27959 348.254 2.04799 351.529 1.84954 354.827L4.84413 355.007C5.04132 351.73 5.27141 348.476 5.53577 345.249L2.54579 345.004ZM1.35731 364.661C1.2261 367.923 1.12518 371.204 1.05323 374.501L4.05251 374.566C4.12408 371.287 4.22444 368.025 4.35488 364.782L1.35731 364.661ZM0.923383 384.343C0.907793 387.611 0.918907 390.892 0.955473 394.183L3.95529 394.149C3.91889 390.874 3.90784 387.609 3.92335 384.357L0.923383 384.343ZM1.13844 404.013C1.22329 407.282 1.33179 410.558 1.46272 413.84L4.46034 413.72C4.32994 410.452 4.22191 407.19 4.13743 403.935L1.13844 404.013ZM1.91986 423.662C2.09338 426.933 2.2879 430.206 2.50226 433.479L5.49585 433.282C5.28228 430.022 5.08849 426.761 4.91564 423.504L1.91986 423.662ZM3.20313 443.286C3.45594 446.556 3.72741 449.822 4.01634 453.084L7.00464 452.819C6.71667 449.569 6.44613 446.313 6.1942 443.055L3.20313 443.286ZM4.93641 462.87C5.26099 466.136 5.60205 469.395 5.95838 472.643L8.94049 472.316C8.58525 469.077 8.24525 465.829 7.9217 462.573L4.93641 462.87ZM7.07836 482.406C7.46924 485.672 7.87456 488.925 8.29307 492.162L11.2683 491.777C10.851 488.549 10.4468 485.306 10.0571 482.049L7.07836 482.406ZM9.59869 501.906C10.0512 505.17 10.5162 508.415 10.9923 511.637L13.9601 511.199C13.4853 507.985 13.0216 504.749 12.5703 501.494L9.59869 501.906ZM12.4713 521.355C12.9823 524.617 13.5036 527.853 14.0338 531.059L16.9936 530.569C16.4648 527.372 15.9448 524.144 15.4352 520.891L12.4713 521.355ZM15.678 540.748C16.2456 544.01 16.8211 547.236 17.403 550.423L20.3542 549.885C19.7738 546.705 19.1997 543.487 18.6336 540.234L15.678 540.748ZM19.2081 560.084C19.8319 563.347 20.4609 566.564 21.0933 569.73L24.0351 569.142C23.4044 565.984 22.7769 562.776 22.1548 559.521L19.2081 560.084ZM23.0589 579.359C23.7404 582.626 24.4235 585.831 25.1061 588.968L28.0375 588.33C27.3568 585.202 26.6754 582.005 25.9958 578.746L23.0589 579.359ZM27.236 598.552C27.9785 601.823 28.7175 605.007 29.45 608.097L32.3691 607.405C31.6389 604.324 30.902 601.15 30.1616 597.888L27.236 598.552ZM31.7755 617.689C32.5976 621.003 33.4069 624.185 34.199 627.224L37.102 626.467C36.313 623.44 35.5066 620.27 34.6873 616.967L31.7755 617.689ZM36.7397 636.708C37.1871 638.331 37.6267 639.899 38.0573 641.411L40.9425 640.589C40.5143 639.086 40.077 637.526 39.6318 635.911L36.7397 636.708ZM39.3239 642.49C40.9275 642.679 42.5273 642.863 44.1231 643.042L44.457 640.061C42.8672 639.883 41.2734 639.699 39.676 639.51L39.3239 642.49ZM53.7097 644.057C56.9268 644.378 60.1255 644.678 63.3037 644.958L63.5665 641.969C60.3999 641.691 57.2129 641.392 54.0077 641.072L53.7097 644.057ZM72.9163 645.747C76.1486 645.993 79.3571 646.219 82.5397 646.426L82.7338 643.432C79.5624 643.226 76.3653 643.001 73.1445 642.755L72.9163 645.747ZM92.1647 646.995C95.4031 647.168 98.6113 647.322 101.787 647.457L101.914 644.459C98.7494 644.325 95.5522 644.172 92.3251 643.999L92.1647 646.995ZM111.424 647.812C114.678 647.914 117.894 647.996 121.069 648.061L121.13 645.062C117.966 644.997 114.761 644.915 111.518 644.813L111.424 647.812ZM130.7 648.204C133.965 648.235 137.182 648.246 140.346 648.241L140.341 645.241C137.188 645.246 133.982 645.235 130.728 645.204L130.7 648.204ZM149.989 648.171C153.266 648.129 156.48 648.069 159.626 647.993L159.553 644.994C156.419 645.07 153.216 645.13 149.95 645.172L149.989 648.171ZM169.264 647.704C172.567 647.586 175.783 647.45 178.906 647.3L178.762 644.304C175.651 644.453 172.447 644.588 169.156 644.706L169.264 647.704ZM188.528 646.777C191.863 646.574 195.07 646.355 198.143 646.125L197.918 643.133C194.86 643.362 191.666 643.58 188.345 643.782L188.528 646.777ZM207.765 645.328C211.198 645.016 214.409 644.692 217.384 644.363L217.055 641.381C214.1 641.708 210.908 642.03 207.493 642.34L207.765 645.328ZM226.974 643.183C228.693 642.947 230.282 642.712 231.735 642.481L231.265 639.519C229.835 639.745 228.266 639.977 226.564 640.211L226.974 643.183ZM232.973 641.285C233.279 639.703 233.592 638.08 233.91 636.417L230.964 635.853C230.645 637.514 230.333 639.135 230.027 640.715L232.973 641.285ZM235.787 626.52C236.382 623.354 236.992 620.077 237.615 616.701L234.665 616.156C234.042 619.53 233.433 622.803 232.839 625.966L235.787 626.52ZM239.419 606.853C240.003 603.636 240.596 600.346 241.197 596.99L238.244 596.462C237.644 599.815 237.051 603.103 236.467 606.316L239.419 606.853ZM242.949 587.12C243.52 583.878 244.096 580.584 244.675 577.245L241.719 576.732C241.14 580.069 240.565 583.36 239.994 586.599L242.949 587.12ZM246.375 567.366C246.932 564.105 247.491 560.809 248.05 557.482L245.092 556.985C244.533 560.309 243.975 563.603 243.418 566.861L246.375 567.366ZM249.699 547.594C250.24 544.319 250.781 541.019 251.32 537.701L248.359 537.22C247.82 540.535 247.28 543.832 246.739 547.105L249.699 547.594ZM252.914 527.804C253.439 524.515 253.961 521.213 254.48 517.901L251.516 517.437C250.998 520.746 250.476 524.045 249.952 527.331L252.914 527.804ZM256.014 507.995C256.52 504.695 257.021 501.39 257.517 498.085L254.55 497.64C254.055 500.942 253.554 504.243 253.049 507.54L256.014 507.995ZM258.984 488.172C259.469 484.859 259.946 481.551 260.416 478.252L257.446 477.829C256.977 481.124 256.5 484.429 256.016 487.738L258.984 488.172ZM261.809 468.323C262.268 464.995 262.719 461.682 263.159 458.387L260.185 457.99C259.746 461.28 259.296 464.589 258.837 467.912L261.809 468.323ZM264.461 448.443C264.891 445.099 265.308 441.781 265.712 438.492L262.735 438.126C262.331 441.409 261.915 444.722 261.486 448.061L264.461 448.443ZM266.905 428.533C267.297 425.171 267.673 421.847 268.032 418.567L265.05 418.241C264.692 421.513 264.316 424.83 263.925 428.186L266.905 428.533ZM269.083 408.592C269.425 405.207 269.747 401.877 270.046 398.611L267.058 398.338C266.76 401.594 266.44 404.914 266.098 408.29L269.083 408.592ZM270.903 388.628C271.177 385.201 271.422 381.859 271.635 378.611L268.642 378.414C268.429 381.647 268.186 384.975 267.913 388.389L270.903 388.628ZM272.207 368.55C272.372 365.059 272.493 361.706 272.565 358.503L269.566 358.435C269.494 361.61 269.375 364.939 269.211 368.408L272.207 368.55ZM272.625 348.445C272.603 346.716 272.561 345.047 272.499 343.442L269.501 343.558C269.562 345.135 269.603 346.778 269.626 348.484L272.625 348.445ZM272.499 343.442C272.437 341.825 272.341 340.177 272.213 338.502L269.221 338.731C269.347 340.371 269.44 341.98 269.501 343.558L272.499 343.442ZM271.142 328.653C270.701 325.469 270.166 322.205 269.543 318.872L266.594 319.423C267.209 322.714 267.737 325.932 268.17 329.064L271.142 328.653ZM267.539 309.198C266.827 306.049 266.048 302.85 265.208 299.609L262.304 300.361C263.137 303.575 263.908 306.743 264.613 309.86L267.539 309.198ZM262.603 290.08C261.708 286.959 260.763 283.808 259.774 280.632L256.909 281.524C257.892 284.68 258.831 287.81 259.72 290.907L262.603 290.08ZM256.751 271.258C255.722 268.165 254.655 265.056 253.557 261.936L250.727 262.933C251.82 266.037 252.881 269.13 253.905 272.205L256.751 271.258ZM250.21 252.668C249.076 249.598 247.914 246.524 246.729 243.452L243.93 244.531C245.11 247.591 246.267 250.652 247.396 253.708L250.21 252.668ZM243.128 234.288C241.908 231.24 240.669 228.198 239.415 225.168L236.643 226.316C237.893 229.335 239.127 232.366 240.343 235.402L243.128 234.288ZM235.598 216.092C234.304 213.062 232.999 210.049 231.686 207.059L228.94 208.265C230.248 211.246 231.549 214.249 232.839 217.27L235.598 216.092ZM227.687 198.071C226.327 195.054 224.963 192.069 223.6 189.12L220.877 190.378C222.236 193.319 223.596 196.296 224.952 199.304L227.687 198.071ZM219.425 180.195C218.001 177.186 216.582 174.224 215.174 171.317L212.474 172.625C213.878 175.524 215.293 178.478 216.714 181.479L219.425 180.195ZM210.852 162.496C209.359 159.482 207.884 156.54 206.433 153.679L203.757 155.035C205.204 157.888 206.675 160.822 208.164 163.828L210.852 162.496ZM201.943 144.928C200.371 141.9 198.839 138.988 197.356 136.204L194.708 137.614C196.186 140.389 197.714 143.292 199.281 146.31L201.943 144.928ZM192.688 127.567C191.874 126.083 191.08 124.649 190.31 123.269L187.69 124.731C188.457 126.105 189.247 127.532 190.058 129.01L192.688 127.567Z" fill="black"/>
</svg>
