<svg width="330" height="707" viewBox="0 0 330 707" fill="none" xmlns="http://www.w3.org/2000/svg">
<path d="M61.7422 8.53369H40.2422V38.5337H66" stroke="black" stroke-width="3" stroke-dasharray="10 10"/>
<path d="M200.242 103.034C199.909 100.2 201.542 92.9338 210.742 86.5338C222.242 78.5338 253.243 81.0338 257.743 68.0338C262.243 55.0338 224.242 13.5338 200.242 5.53377C181.043 -0.866229 100.243 2.8671 62.2426 5.53377C62.1378 6.60811 62.0476 7.77 61.9775 9M128.242 103.034C125.076 91.3671 117.142 66.1338 110.742 58.5337C104.893 51.5873 99.3106 51.0567 89.5001 50.2961M68.5454 44C67.0565 42.0567 65.8693 39.6639 64.9328 37" stroke="black" stroke-width="3" stroke-dasharray="10 10"/>
<path d="M117.742 160.862C112.794 162.519 108.645 164.559 107.242 167.034C98.7422 182.034 117.742 184.534 117.742 197.534C117.742 210.534 107.242 203.034 107.242 214.034C107.242 225.034 123.742 234.034 117.742 242.034C111.742 250.034 107.242 255.034 107.242 266.534C107.242 278.034 123.742 278.534 123.742 297.534C123.742 316.534 43.7422 349.034 34.2422 358.534C24.7422 368.034 6.24201 466.534 2.74201 516.034C-0.757992 565.534 8.24201 654.534 27.242 683.034C46.242 711.534 250.742 710.034 292.742 693.534C334.742 677.034 325.742 612.534 328.242 542.034C330.742 471.534 292.742 365.534 292.742 358.534C292.742 351.534 302.242 349.034 304.742 343.034C307.242 337.034 292.742 309.034 272.742 266.534C258.488 236.243 225.185 190.212 205.36 164.5V156.034" stroke="black" stroke-width="3" stroke-dasharray="10 10"/>
<path d="M121.242 158.534V105.534C123.35 105.023 125.807 104.414 128.5 103.763M204.742 158.534V105.534C203.752 105.023 202.26 104.414 200.396 103.763" stroke="black" stroke-width="3" stroke-dasharray="10 10"/>
<path d="M67.242 43.5337C62.4086 59.5337 50.7422 83.5337 42.242 108.034C35.8314 126.511 18.242 145.534 20.242 151.534C22.242 157.534 62.264 100.779 67.242 91.5337C74.2419 78.5337 82.9086 60.7004 90.7419 50.5337" stroke="black" stroke-width="3" stroke-dasharray="10 10"/>
</svg>
