<svg width="349" height="689" fill="none" xmlns="http://www.w3.org/2000/svg"><path d="M65.522 17.564l-22.631.133v22.048h25.161m141.506 69.33c18.898 23.798 60.894 80.317 77.692 116.013 20.998 44.621 36.221 74.018 33.596 80.317-2.624 6.299-12.598 8.924-12.598 16.273 0 7.35 39.895 118.638 37.271 192.655-2.625 74.018 6.824 141.736-37.271 159.059-44.096 17.323-258.799 18.898-278.747-11.024C9.553 632.446.104 539.006 3.78 487.036c3.675-51.969 23.098-155.384 33.072-165.358 9.974-9.974 93.965-44.095 93.965-64.043 0-19.948-17.323-20.473-17.323-32.547 0-12.074 4.724-17.323 11.024-25.722 6.299-8.399-11.024-17.848-11.024-29.397s11.024-3.675 11.024-17.323c0-13.649-19.948-16.274-11.024-32.022 3.514-6.201 13.423-9.641 21.997-11.391" stroke="#E0E0E0" stroke-width="5" stroke-dasharray="10 10"/><path d="M45.247 114.323l-2.361-.82 2.361.82zm26.248-17.324l-2.202-1.185L71.495 97zM69.1 45.882a125.92 125.92 0 01-1.365 4.23l4.732 1.614c.517-1.515.992-2.983 1.42-4.399L69.1 45.882zm-4.456 12.663a502.512 502.512 0 01-3.343 8.395l4.631 1.886a508.285 508.285 0 003.376-8.48l-4.664-1.801zm-6.794 16.78c-1.133 2.735-2.297 5.54-3.473 8.397l4.624 1.903c1.173-2.85 2.334-5.647 3.469-8.387l-4.62-1.914zm-6.905 16.83a624.761 624.761 0 00-3.34 8.483l4.668 1.795a617.692 617.692 0 013.312-8.416l-4.64-1.863zm-6.534 17.038a366.52 366.52 0 00-1.526 4.31l4.723 1.639a358.32 358.32 0 011.506-4.25l-4.703-1.699zm-1.526 4.31a63.097 63.097 0 01-1.489 3.859l4.606 1.945a68.503 68.503 0 001.606-4.165l-4.724-1.639zm-5.122 11.405a160.273 160.273 0 01-4.206 7.355l4.28 2.585a165.795 165.795 0 004.337-7.585l-4.411-2.355zm-8.724 14.617c-1.64 2.591-3.219 5.072-4.587 7.351l4.286 2.574c1.33-2.216 2.87-4.637 4.525-7.25l-4.224-2.675zm-8.735 15.416c-.67 1.828-1.16 3.946-.527 5.842l4.743-1.581c-.063-.19-.12-.909.479-2.539l-4.695-1.722zm-.527 5.842c.315.944 1.096 1.888 2.396 2.123 1.007.183 1.886-.158 2.386-.398 1.071-.513 2.242-1.479 3.385-2.556l-3.43-3.639c-1.102 1.039-1.795 1.532-2.115 1.686-.194.093.107-.114.666-.012.338.061.698.224.996.51.282.269.407.549.46.705l-4.744 1.581zm15.21-8.568c2-2.395 4.166-5.104 6.417-8l-3.949-3.067a293.17 293.17 0 01-6.305 7.862l3.838 3.205zm12.591-16.122a701.42 701.42 0 006.03-8.216l-4.051-2.93a700.514 700.514 0 01-5.987 8.157l4.008 2.989zm11.95-16.516c2.074-2.95 4.032-5.78 5.802-8.379l-4.133-2.814a669.036 669.036 0 01-5.76 8.317l4.09 2.876zm11.459-16.91c1.197-1.875 2.136-3.42 2.708-4.483l-4.403-2.37c-.479.89-1.334 2.305-2.52 4.163l4.215 2.69zm2.708-4.483c.945-1.754 1.93-3.591 2.941-5.474l-4.404-2.367c-1.015 1.889-1.996 3.718-2.94 5.471l4.403 2.37zm8.86-16.368a428.75 428.75 0 016.115-10.737l-4.304-2.544a434.17 434.17 0 00-6.187 10.863l4.376 2.418zm12.639-21.133a99.815 99.815 0 013.533-4.919l-3.961-3.051a104.742 104.742 0 00-3.712 5.166l4.14 2.804z" fill="#E0E0E0"/><path d="M211.129 109.075c-.35-2.975 1.364-10.604 11.024-17.324 12.073-8.399 44.62-5.774 49.345-19.423 4.724-13.648-35.172-57.219-60.369-65.618-20.158-6.72-104.989-2.8-144.885 0-.299 3.057-.484 6.789-.44 10.79m69.732 91.575c-3.324-12.25-11.654-38.742-18.373-46.72-5.703-6.773-11.164-7.737-20.163-8.48" stroke="#E0E0E0" stroke-width="5" stroke-dasharray="10 10"/></svg>