<svg width="233" height="734" viewBox="0 0 233 734" fill="none" xmlns="http://www.w3.org/2000/svg">
<path d="M178.544 65.8486C183.671 78.411 198.848 112.919 218.538 150.452C243.15 197.369 220.845 657.306 218.538 684.225C216.692 705.761 201.361 724.476 193.926 731.142C138.293 731.142 23.9495 731.142 11.6435 731.142C-3.73903 731.142 4.72139 203.522 11.6435 192.754C18.5656 181.986 29.3334 174.295 56.2528 163.527C74.9273 156.058 99.1925 134.168 113 120.125" stroke="#E0E0E0" stroke-width="5" stroke-dasharray="10 10"/>
<path d="M140.078 27.612C132.695 16.5366 117.517 6.58925 110.851 3L87.0085 16.0751C91.3669 24.5355 99.4683 43.1483 97.0071 49.9166" stroke="#E0E0E0" stroke-width="5" stroke-dasharray="10 10"/>
<path d="M187 73.5403L154.159 21.4707C154.159 21.4707 146.376 21.4707 137 23.2467M113.164 116.611L84.7064 57.3887C84.7064 57.3887 90.9398 50.88 99 43.811" stroke="#E0E0E0" stroke-width="5" stroke-dasharray="10 10"/>
</svg>
