<svg width="231" height="732" viewBox="0 0 231 732" fill="none" xmlns="http://www.w3.org/2000/svg">
<path d="M114.071 117C100.736 130.851 74.9018 154.669 55.2557 162.527C28.3363 173.295 17.5686 180.986 10.6464 191.754C3.72432 202.522 -4.7361 730.142 10.6464 730.142C22.9524 730.142 137.296 730.142 192.929 730.142C200.364 723.476 215.695 704.761 217.541 683.225C219.848 656.306 242.153 196.369 217.541 149.452C202.145 120.103 189.507 92.6033 182.277 76" stroke="black" stroke-width="3" stroke-dasharray="10 10"/>
<path d="M135.53 22C127.578 12.8527 115.578 5.08215 109.854 2L86.0109 15.0751C89.6218 22.0845 95.8019 36.0625 96.416 44.5" stroke="black" stroke-width="3" stroke-dasharray="10 10"/>
<path d="M112.17 115.611L83.7127 56.3882C83.7127 56.3882 88.985 50.8831 96.1017 44.5M183 76.5L186.006 72.5398L153.165 20.4702C153.165 20.4702 145.1 20.4702 135.5 22.3436" stroke="black" stroke-width="3" stroke-dasharray="10 10"/>
</svg>
