<svg width="233" height="734" fill="none" xmlns="http://www.w3.org/2000/svg"><path d="M178.544 65.849c5.127 12.562 20.304 47.07 39.994 84.603 24.612 46.917 2.307 506.854 0 533.773-1.846 21.536-17.177 40.251-24.612 46.917H11.644c-15.383 0-6.923-527.62 0-538.388 6.922-10.768 17.69-18.459 44.609-29.227 18.674-7.469 42.94-29.359 56.747-43.402m27.078-92.513C132.695 16.537 117.517 6.589 110.851 3L87.008 16.075c4.359 8.46 12.46 27.073 10 33.842" stroke="#E0E0E0" stroke-width="5" stroke-dasharray="10 10"/><path d="M187 73.54l-32.841-52.07s-7.783 0-17.159 1.777m-23.836 93.364L84.706 57.389S90.94 50.88 99 43.81" stroke="#E0E0E0" stroke-width="5" stroke-dasharray="10 10"/></svg>