<svg width="409" height="448" viewBox="0 0 409 448" fill="none" xmlns="http://www.w3.org/2000/svg">
<path d="M2 66.3353C66.0865 62.3363 203.797 54.0562 241.946 52.927C253.773 52.577 270.164 52.661 288 53.1254M403.171 66.3353C405.103 64.2072 400.029 62.269 390.5 60.5646" stroke="black" stroke-width="3" stroke-dasharray="10 10"/>
<path d="M371.998 26.7014C373.962 28.3465 379.401 32.9021 385.446 37.964C391.49 43.0259 391.829 50.4553 391.243 53.5373" stroke="black" stroke-width="3" stroke-dasharray="10 10"/>
<path d="M368.177 23.5017C362.132 18.4398 356.693 13.8842 354.729 12.2391C349.429 11.401 337.309 10.4625 331.233 13.4127C323.638 17.1005 314.931 26.1374 311.716 29.474C310.278 30.9672 301.051 40.8791 290.911 52.0001" stroke="black" stroke-width="3" stroke-dasharray="10 10"/>
<path d="M2 64.9238C4.97458 123.036 10.9237 245.016 10.9237 268.044C10.9237 291.072 10.9237 389.156 10.9237 435.319C57.1441 439.664 161.254 447.811 207.932 445.638C254.61 443.466 352.771 437.854 396.017 435.319C395.33 430.613 394.369 413.704 396.017 383.725C398.076 346.251 407 291.397 407 255.01C407 225.899 407 116.156 407 64.9238" stroke="black" stroke-width="3" stroke-dasharray="10 10"/>
</svg>
