<svg width="374" height="438" fill="none" xmlns="http://www.w3.org/2000/svg"><path d="M3 64.653c58.232-3.898 183.361-11.968 218.025-13.068 10.443-.332 24.801-.264 40.475.156m77.677-25.717L351.397 37c5.492 4.934 5.8 12.174 5.268 15.178m-20.954-29.273l-12.219-10.977c-4.816-.816-15.828-1.731-21.349 1.144-6.901 3.594-14.813 12.402-17.734 15.654-1.28 1.424-9.343 10.714-18.327 21.274" stroke="#E0E0E0" stroke-width="5" stroke-linejoin="round" stroke-dasharray="10 10"/><path d="M3 63.277c2.703 56.637 8.108 175.52 8.108 197.962v163.028c41.998 4.235 136.597 12.174 179.011 10.057 42.413-2.117 131.606-7.587 170.901-10.057-.623-4.587-1.497-21.066 0-50.284C362.892 337.46 371 284 371 248.536V63.277" stroke="#E0E0E0" stroke-width="5" stroke-linejoin="round" stroke-dasharray="10 10"/></svg>