<svg width="229" height="688" fill="none" xmlns="http://www.w3.org/2000/svg"><path d="M63.728 184.487C43.486 264.062 3 439.686 3 505.579c0 82.367 9.074 161.244 23.733 164.734 14.658 3.49 60.728 14.659 93.535 14.659 32.808 0 90.744-10.47 98.422-32.807 7.678-22.337 12.564-198.938 0-230.349s-41.882-46.07-47.466-73.293c-4.467-21.778-22.337-118.431-30.713-164.036m-77.65 0V91.068h-45.9c1.53-28.35 20.065-85.471 81.965-87.144 61.9-1.673 86.555-.697 91.145 0m-49.834 180.563c-1.749-35.323-4.197-108.896 0-120.608 1.167-3.26 4.394-6.306 8.763-9.072" stroke="#E0E0E0" stroke-width="5" stroke-dasharray="10 10"/><path d="M189.375 4.874h29.317v34.203h-29.317m-5.589 2.315c-4.188 5.351-11.866 29.317-11.866 37.693 0 16.753 32.807 62.789 49.56 66.312-20.941 5.585-39.09-13.101-53.05-33.505-7.26-10.61-16.985-39.787-18.149-58.634" stroke="#E0E0E0" stroke-width="5" stroke-dasharray="10 10"/></svg>