<svg width="227" height="686" viewBox="0 0 227 686" fill="none" xmlns="http://www.w3.org/2000/svg">
<path d="M62.7283 183.487C42.4855 263.062 2 438.686 2 504.579C2 586.946 11.0743 665.823 25.7329 669.313C40.3914 672.803 86.4611 683.972 119.268 683.972C152.076 683.972 210.012 673.502 217.69 651.165C225.368 628.828 230.254 452.227 217.69 420.816C205.126 389.405 175.808 374.746 170.224 347.523C165.757 325.745 147.887 229.092 139.511 183.487" stroke="black" stroke-width="3" stroke-dasharray="10 10"/>
<path d="M61.8604 183.487V90.0681H15.96C17.49 61.7172 36.025 4.59701 97.9251 2.92384C159.825 1.25067 184.48 2.22669 189.07 2.92384M189.07 39.1759C186.854 39.6264 184.283 40.2092 181.5 40.9137M139.236 183.487C138.013 158.785 136.448 115.376 137.053 87.5" stroke="black" stroke-width="3" stroke-dasharray="10 10"/>
<path d="M188.373 3.87451H217.69V38.0778H188.373" stroke="black" stroke-width="3" stroke-dasharray="10 10"/>
<path d="M182.789 40.3916C178.601 45.7431 170.922 69.7087 170.922 78.085C170.922 94.8376 203.729 140.874 220.482 144.397C199.541 149.982 181.392 131.296 167.432 110.892C165.054 107.416 162.41 101.946 159.89 95.5" stroke="black" stroke-width="3" stroke-dasharray="10 10"/>
<path d="M136.72 87.8564C139.28 86.9257 145.376 85.6227 149.285 87.8564C153.194 90.0901 158.139 92.9752 159.535 94.1386" stroke="black" stroke-width="3" stroke-dasharray="10 10"/>
</svg>
