<svg width="326" height="714" fill="none" xmlns="http://www.w3.org/2000/svg"><mask id="a" style="mask-type:alpha" maskUnits="userSpaceOnUse" x="0" y="0" width="326" height="714"><path fill="#D9D9D9" d="M0 0h326v714H0z"/></mask><g mask="url(#a)" stroke="#D9D9D9" stroke-width="5" stroke-dasharray="10 10"><path d="M148.633 166.066c-7.794 5.514-23.394 20.659-23.452 37.136-.072 20.596 18.251 45.592 13.684 64.727-4.568 19.135-98.339 157.559-114.089 215.318-15.75 57.758-8.892 201.956 17.673 210.36 26.565 8.404 93.265 5.747 137.038 7.346 43.773 1.599 99.844-3.624 112.171-18.757 12.328-15.133 25.118-162.152 13.133-244.579-11.985-82.427-37.014-178.63-47.569-202.154-8.445-18.819-29.088-53.941-37.353-69.147m-71.088-.736l.203-57.836m70.126.246l-.203 57.836m-70.294-57.359c-3.536-4.249-9.788-11.065-16.839-17.424M84.03 73.9c5.454.02 10.39-1.307 17.664 0M84.198 25.823c25.807-5.934 86.154-14.156 121.094.425 43.675 18.227 70.01 33.502 60.188 51.18-9.822 17.678-24.615 9.674-34.389 13.615-7.819 3.154-11.492 13.094-12.352 17.67M83.56 26.459c-8.685 2.62-25.92 10.681-25.381 21.961.539 11.28 17.033 21.869 25.213 25.754"/><path d="M130.969 90.242c-3.387 3.97-12.456 13.173-21.635 18.236-11.473 6.329-19.746 11.343-29.63 20.066-9.884 8.723-20.86 25.138-29.107 22.721-8.247-2.418-5.311-4.265.047-13.535 5.359-9.27 41.181-48.421 42.529-52.928 1.078-3.605 3.493-8.922 4.566-11.13"/></g></svg>