<svg width="297" height="687" viewBox="0 0 297 687" fill="none" xmlns="http://www.w3.org/2000/svg">
<path d="M132.805 150C125.032 155.54 109.484 170.741 109.484 187.217C109.484 207.814 127.896 232.746 123.395 251.896C118.894 271.047 25.61 409.8 10.0626 467.613C-5.48484 525.427 1.87972 669.599 28.474 677.91C55.0682 686.22 121.758 683.33 165.537 684.775C209.315 686.22 265.367 680.8 277.642 665.624C289.916 650.448 302.19 503.385 289.916 421.001C277.642 338.617 252.275 242.502 241.637 219.015C233.127 200.225 214.361 165.176 206.042 150" stroke="black" stroke-width="3" stroke-dasharray="10 10"/>
<path d="M130.951 149.513V91.6772M201.078 91.6772V149.513" stroke="black" stroke-width="3" stroke-dasharray="10 10"/>
<path d="M130.59 92.4002C126.974 88.086 120.531 81.1195 113.3 74.6878M65.8857 58.0599C70.4051 58.0599 74.5657 57.1374 80 57.5503M65.8857 9.98358C91.671 3.95898 151.989 -4.47546 186.98 9.98358C230.719 28.0574 257.107 43.2395 247.347 60.9518C237.587 78.664 222.766 70.7115 213.007 74.6878C205.199 77.8687 201.56 87.8214 200.716 92.4002" stroke="black" stroke-width="3" stroke-dasharray="10 10"/>
<path d="M66.2472 9.62207C57.5718 12.2729 40.3655 20.3941 40.9439 31.6721C41.5223 42.9502 58.0538 53.4812 66.2472 57.3369" stroke="black" stroke-width="3" stroke-dasharray="10 10"/>
<path d="M112.878 74.2391C109.505 78.2198 100.468 87.4553 91.3071 92.5507C79.8561 98.9199 71.6006 103.962 61.7474 112.72C51.8942 121.478 40.9757 137.932 32.7203 135.543C24.4649 133.155 27.3942 131.297 32.7203 122.008C38.0464 112.72 73.7311 73.4429 75.0627 68.9313C76.1279 65.3221 78.5246 59.9967 79.5898 57.7852" stroke="black" stroke-width="3" stroke-dasharray="10 10"/>
</svg>
