<svg width="300" height="689" viewBox="0 0 300 689" fill="none" xmlns="http://www.w3.org/2000/svg">
<path d="M135.633 151.068C127.839 156.582 112.239 171.727 112.181 188.204C112.109 208.8 130.432 233.796 125.865 252.931C121.297 272.066 27.5262 410.49 11.776 468.249C-3.9742 526.007 2.88436 670.205 29.4493 678.609C56.0142 687.013 122.714 684.356 166.487 685.955C210.26 687.554 266.331 682.331 278.658 667.198C290.986 652.065 303.776 505.046 291.791 422.619C279.806 340.192 254.777 243.989 244.222 220.465C235.777 201.646 215.134 166.524 206.869 151.318" stroke="#E0E0E0" stroke-width="5" stroke-dasharray="10 10"/>
<path d="M135.774 150.582L135.977 92.7461M206.102 92.9922L205.9 150.828" stroke="#E0E0E0" stroke-width="5" stroke-dasharray="10 10"/>
<path d="M135.613 93.4675C132.077 89.2187 125.825 82.4029 118.774 76.0444M71.0298 58.9004C74.9359 58.9141 78.5763 58.2378 83 58.3329M71.1985 10.8244C97.0048 4.89028 157.352 -3.33242 192.292 11.2493C235.967 29.4765 262.302 44.7512 252.48 62.429C242.658 80.1069 227.865 72.1025 218.091 76.0444C210.272 79.198 206.599 89.1379 205.739 93.7136" stroke="#E0E0E0" stroke-width="5" stroke-dasharray="10 10"/>
<path d="M70.5596 11.4609C61.8749 14.0813 44.6402 22.142 45.179 33.422C45.7178 44.702 62.2123 55.291 70.3921 59.1755" stroke="#E0E0E0" stroke-width="5" stroke-dasharray="10 10"/>
<path d="M117.969 75.2444C114.582 79.2133 105.513 88.417 96.3341 93.4802C84.8608 99.8092 76.5877 104.823 66.7038 113.546C56.8199 122.269 45.8438 138.684 37.5968 136.267C29.3498 133.849 32.2857 132.002 37.6443 122.732C43.0029 113.462 78.8253 74.3109 80.1727 69.804C81.2505 66.1985 83.6659 60.8816 84.7389 58.6738" stroke="#E0E0E0" stroke-width="5" stroke-dasharray="10 10"/>
</svg>
