<svg width="271" height="737" fill="none" xmlns="http://www.w3.org/2000/svg"><path d="M208.392 66c5.986 12.557 23.703 47.05 46.688 84.566 28.73 46.896 2.693 506.631 0 533.538-2.155 21.526-17.432 40.233-26.111 46.896-8.679 6.663-184.62 1.227-189 0-12.5-3.5-32.539-19.029-34.192-49.5-6.522-120.224.154-418.567 2.692-429 9-37 31.5-72 57.167-88.864 25.668-16.864 58.958-36.389 72.725-49.202m28.186-86.822C159.163 16.537 143.986 6.589 137.32 3l-23.843 13.075c4.359 8.46 12.46 27.073 9.999 33.842" stroke="#E0E0E0" stroke-width="5" stroke-dasharray="10 10"/><path d="M213.477 73.54l-32.842-52.07s-6.426 0-14.635 1.333m-26.359 93.808l-28.458-59.222s4.992-5.212 11.817-11.374" stroke="#E0E0E0" stroke-width="5" stroke-dasharray="10 10"/></svg>