<svg width="269" height="735" viewBox="0 0 269 735" fill="none" xmlns="http://www.w3.org/2000/svg">
<path d="M206.924 65C212.909 77.5568 230.626 112.05 253.611 149.566C282.342 196.462 256.304 656.197 253.611 683.104C251.456 704.63 236.179 723.337 227.5 730C218.821 736.663 42.8811 731.227 38.5 730C26 726.5 5.96158 710.971 4.30854 680.5C-2.21361 560.276 4.46223 261.933 7.00001 251.5C16 214.5 38.5 179.5 64.1678 162.636C89.8355 145.772 130.233 121.313 144 108.5" stroke="black" stroke-width="3" stroke-dasharray="10 10"/>
<path d="M177.081 26.612C169.697 15.5366 154.52 5.58925 147.854 2L124.011 15.0751C128.369 23.5355 136.471 42.1483 134.01 48.9166" stroke="black" stroke-width="3" stroke-dasharray="10 10"/>
<path d="M213.5 62L191.165 20.4702L177.5 27M144.5 105.5L121.713 56.3882L134 49" stroke="black" stroke-width="3" stroke-dasharray="10 10"/>
</svg>
