<svg width="535" height="625" fill="none" xmlns="http://www.w3.org/2000/svg"><rect x="110" y="42" width="315" height="581" rx="5" fill="#fff" stroke="#D9D9D9" stroke-width="4" stroke-linejoin="round"/><rect x="2" y="281" width="9" height="32" rx="4.5" fill="#fff" stroke="#D9D9D9" stroke-width="4" stroke-linejoin="round"/><path d="M16 9.562c0-3.585 3.66-6.005 6.958-4.601l84 35.744A5 5 0 01110 45.306v520.646a5 5 0 01-3.959 4.89l-84 17.873c-3.111.662-6.041-1.711-6.041-4.891V9.562z" fill="#fff" stroke="#D9D9D9" stroke-width="4" stroke-linejoin="round"/><path d="M9 6.5A4.5 4.5 0 0113.5 2v0A4.5 4.5 0 0118 6.5v579a4.5 4.5 0 01-4.5 4.5v0a4.5 4.5 0 01-4.5-4.5V6.5z" fill="#fff" stroke="#D9D9D9" stroke-width="4" stroke-linejoin="round"/><rect width="9" height="32" rx="4.5" transform="matrix(-1 0 0 1 533 281)" fill="#fff" stroke="#D9D9D9" stroke-width="4" stroke-linejoin="round"/><path d="M519 9.562c0-3.585-3.66-6.005-6.958-4.601l-84 35.744A5 5 0 00425 45.306v520.646a5 5 0 003.959 4.89l84 17.873c3.111.662 6.041-1.711 6.041-4.891V9.562z" fill="#fff" stroke="#D9D9D9" stroke-width="4" stroke-linejoin="round"/><path d="M526 6.5a4.5 4.5 0 00-4.5-4.5v0a4.5 4.5 0 00-4.5 4.5v579a4.5 4.5 0 004.5 4.5v0a4.5 4.5 0 004.5-4.5V6.5z" fill="#fff" stroke="#D9D9D9" stroke-width="4" stroke-linejoin="round"/><rect x="126" y="56" width="284" height="150" rx="5" stroke="#D9D9D9" stroke-width="4" stroke-linejoin="round"/><path d="M125 237a5 5 0 015-5h275a5 5 0 015 5v137a5 5 0 01-5 5H130a5 5 0 01-5-5V237z" stroke="#D9D9D9" stroke-width="4" stroke-linejoin="round"/><rect x="125" y="405" width="284" height="202" rx="5" stroke="#D9D9D9" stroke-width="4" stroke-linejoin="round"/><path d="M268 407.5v198" stroke="#D9D9D9" stroke-width="4"/><rect x="279" y="502" width="38" height="10" rx="5" stroke="#D9D9D9" stroke-width="4"/><rect x="219" y="502" width="38" height="10" rx="5" stroke="#D9D9D9" stroke-width="4"/></svg>