<svg width="535" height="625" viewBox="0 0 535 625" fill="none" xmlns="http://www.w3.org/2000/svg">
<rect x="110" y="42" width="315" height="581" rx="5" fill="white" stroke="#D9D9D9" stroke-width="4" stroke-linejoin="round"/>
<rect x="2" y="281" width="9" height="32" rx="4.5" fill="white" stroke="#D9D9D9" stroke-width="4" stroke-linejoin="round"/>
<path d="M16 9.56154C16 5.97749 19.6599 3.5574 22.9578 4.96076L106.958 40.7054C108.803 41.4904 110 43.3014 110 45.3062V565.952C110 568.312 108.349 570.351 106.041 570.842L22.0405 588.715C18.9299 589.377 16 587.004 16 583.824V9.56154Z" fill="white" stroke="#D9D9D9" stroke-width="4" stroke-linejoin="round"/>
<path d="M9 6.5C9 4.01472 11.0147 2 13.5 2V2C15.9853 2 18 4.01472 18 6.5V585.5C18 587.985 15.9853 590 13.5 590V590C11.0147 590 9 587.985 9 585.5V6.5Z" fill="white" stroke="#D9D9D9" stroke-width="4" stroke-linejoin="round"/>
<rect width="9" height="32" rx="4.5" transform="matrix(-1 0 0 1 533 281)" fill="white" stroke="#D9D9D9" stroke-width="4" stroke-linejoin="round"/>
<path d="M519 9.56154C519 5.97749 515.34 3.5574 512.042 4.96076L428.042 40.7054C426.197 41.4904 425 43.3014 425 45.3062V565.952C425 568.312 426.651 570.351 428.959 570.842L512.959 588.715C516.07 589.377 519 587.004 519 583.824V9.56154Z" fill="white" stroke="#D9D9D9" stroke-width="4" stroke-linejoin="round"/>
<path d="M526 6.5C526 4.01472 523.985 2 521.5 2V2C519.015 2 517 4.01472 517 6.5V585.5C517 587.985 519.015 590 521.5 590V590C523.985 590 526 587.985 526 585.5V6.5Z" fill="white" stroke="#D9D9D9" stroke-width="4" stroke-linejoin="round"/>
<rect x="126" y="56" width="284" height="150" rx="5" stroke="#D9D9D9" stroke-width="4" stroke-linejoin="round"/>
<path d="M125 237C125 234.239 127.239 232 130 232H405C407.761 232 410 234.239 410 237V374C410 376.761 407.761 379 405 379H130C127.239 379 125 376.761 125 374V237Z" stroke="#D9D9D9" stroke-width="4" stroke-linejoin="round"/>
<rect x="125" y="405" width="284" height="202" rx="5" stroke="#D9D9D9" stroke-width="4" stroke-linejoin="round"/>
<path d="M268 407.5V605.5" stroke="#D9D9D9" stroke-width="4"/>
<rect x="279" y="502" width="38" height="10" rx="5" stroke="#D9D9D9" stroke-width="4"/>
<rect x="219" y="502" width="38" height="10" rx="5" stroke="#D9D9D9" stroke-width="4"/>
</svg>
