<svg width="452" height="613" viewBox="0 0 452 613" fill="none" xmlns="http://www.w3.org/2000/svg">
<rect width="452" height="613" fill="#DEE1E3"/>
<circle cx="227" cy="309" r="174" fill="#C5C5C5"/>
<circle cx="227" cy="309" r="141" fill="#252525"/>
<path d="M330.157 256.145L371.876 233.051C376.852 230.296 383.119 232.24 385.317 237.485C391.119 251.331 398.878 274.371 400.5 300C402.623 333.536 392.491 364.189 384.181 383.085C381.981 388.088 376.046 390.095 371.122 387.723L330.659 368.227C327.199 366.56 325 363.059 325 359.218V264.894C325 261.257 326.975 257.907 330.157 256.145Z" fill="#C5C5C5"/>
<circle cx="400.5" cy="54.5" r="33.5" fill="#CCCCCC"/>
<circle cx="400.5" cy="54.4999" r="27.119" fill="#BFBFBF"/>
<circle cx="400.5" cy="54.5001" r="20.7381" fill="#B3B3B3"/>
<path d="M11 91V18C11 15.2386 13.2386 13 16 13H149C151.761 13 154 15.2386 154 18V78.1257C154 80.1973 152.723 82.0543 150.788 82.7951L117.163 95.6694C116.593 95.888 115.987 96 115.376 96H16C13.2386 96 11 93.7614 11 91Z" fill="#CCCCCC"/>
<path d="M137 60H46C43.2386 60 41 62.2386 41 65V81C41 83.7614 43.2386 86 46 86H111.52C112.1 86 112.675 85.8992 113.221 85.702L138.7 76.4874C140.681 75.7712 142 73.8912 142 71.7854V65C142 62.2386 139.761 60 137 60Z" fill="#BABABA"/>
<rect x="227" y="34" width="82" height="43" fill="#252525"/>
</svg>
