<svg width="456" height="617" fill="none" xmlns="http://www.w3.org/2000/svg"><rect x="2" y="2" width="452" height="613" rx="5" fill="#fff" stroke="#D9D9D9" stroke-width="4" stroke-linejoin="round"/><circle cx="229" cy="311" r="174" fill="#fff" stroke="#D9D9D9" stroke-width="4" stroke-linejoin="round"/><circle cx="229" cy="311" r="141" fill="#fff" stroke="#D9D9D9" stroke-width="4" stroke-linejoin="round"/><path d="M329.578 259.573l48.86-27.048c2.488-1.377 5.624-.405 6.799 2.185 5.833 12.865 15.437 38.436 17.263 67.29 2.3 36.343-9.791 69.3-18.359 87.577-1.16 2.474-4.118 3.47-6.58 2.284l-47.731-22.998a5 5 0 01-2.83-4.504V263.947c0-1.818.987-3.494 2.578-4.374z" fill="#fff" stroke="#D9D9D9" stroke-width="4" stroke-linejoin="round"/><circle cx="402.502" cy="51.119" r="27.119" fill="#fff" stroke="#D9D9D9" stroke-width="4" stroke-linejoin="round"/><circle cx="402.504" cy="51.121" r="20.738" fill="#fff" stroke="#D9D9D9" stroke-width="4" stroke-linejoin="round"/><path d="M20 74V27a5 5 0 015-5h89a5 5 0 015 5v38.638a5 5 0 01-3.225 4.674l-22.017 8.362a5 5 0 01-1.775.326H25a5 5 0 01-5-5z" fill="#fff" stroke="#D9D9D9" stroke-width="4" stroke-linejoin="round"/><rect x="205" y="30" width="82" height="43" rx="5" fill="#fff" stroke="#D9D9D9" stroke-width="4"/></svg>