<svg width="458" height="619" viewBox="0 0 458 619" fill="none" xmlns="http://www.w3.org/2000/svg">
<rect x="3" y="3" width="452" height="613" rx="5" fill="white" stroke="#D9D9D9" stroke-width="5" stroke-linejoin="round"/>
<circle cx="230" cy="312" r="174" fill="white" stroke="#D9D9D9" stroke-width="5" stroke-linejoin="round"/>
<circle cx="230" cy="312" r="141" fill="white" stroke="#D9D9D9" stroke-width="5" stroke-linejoin="round"/>
<path d="M330.578 260.573L379.438 233.525C381.926 232.148 385.062 233.12 386.237 235.71C392.07 248.575 401.674 274.146 403.5 303C405.8 339.343 393.709 372.3 385.141 390.577C383.981 393.051 381.023 394.047 378.561 392.861L330.83 369.863C329.1 369.03 328 367.279 328 365.359V264.947C328 263.129 328.987 261.453 330.578 260.573Z" fill="white" stroke="#D9D9D9" stroke-width="5" stroke-linejoin="round"/>
<circle cx="403.502" cy="52.119" r="27.119" fill="white" stroke="#D9D9D9" stroke-width="5" stroke-linejoin="round"/>
<circle cx="403.504" cy="52.119" r="20.7381" fill="white" stroke="#D9D9D9" stroke-width="5" stroke-linejoin="round"/>
<path d="M21 75V28C21 25.2386 23.2386 23 26 23H115C117.761 23 120 25.2386 120 28V66.6375C120 68.714 118.717 70.5744 116.775 71.3117L94.7578 79.6742C94.1907 79.8896 93.5891 80 92.9825 80H26C23.2386 80 21 77.7614 21 75Z" fill="white" stroke="#D9D9D9" stroke-width="5" stroke-linejoin="round"/>
<rect x="206" y="31" width="82" height="43" rx="5" fill="white" stroke="#D9D9D9" stroke-width="5"/>
</svg>
