<svg width="430" height="593" viewBox="0 0 430 593" fill="none" xmlns="http://www.w3.org/2000/svg">
<path d="M94.5 248V222.5H323V248H94.5Z" fill="#CCCCCC"/>
<path d="M108.5 291C95.3 289.8 59.3333 278.167 43 272.5C60.2 264.9 114.167 263.333 139 263.5V291C134.333 291.5 121.7 292.2 108.5 291Z" fill="#BFBFBF"/>
<path d="M326.5 291C339.7 289.8 375.667 278.167 392 272.5C374.8 264.9 320.833 263.333 296 263.5V291C300.667 291.5 313.3 292.2 326.5 291Z" fill="#BFBFBF"/>
<path d="M137.5 287V264C211.9 252.8 276.166 259.333 299 264V287H340C370 389 387.6 593 218 593C48.3998 593 63.9998 389 92.9998 287H137.5Z" fill="#D9D9D9"/>
<ellipse cx="217" cy="438" rx="92" ry="112" fill="#BFBFBF"/>
<path d="M213.5 364C200.3 365.2 187.667 372.5 183 376C178.5 402 178.3 454.3 213.5 455.5C248.7 456.7 250.5 403 247 376C241.333 371.5 226.7 362.8 213.5 364Z" fill="#999999"/>
<path d="M37 262V272.5C71.5 269 156.9 262 222.5 262C288.1 262 364.5 269 394.5 272.5V262C380.333 254.333 326.1 238.7 222.5 237.5C118.9 236.3 55.6667 253.333 37 262Z" fill="#E6E6E6"/>
<path d="M0 89C0 39.8467 39.8467 0 89 0H341C390.153 0 430 39.8467 430 89V178C430 178 385.5 234.5 215 234.5C44.5 234.5 0 178 0 178V89Z" fill="#E6E6E6"/>
<circle cx="206" cy="70" r="30" fill="#CDCDCD"/>
<circle cx="206" cy="70" r="21" fill="#B3B3B3"/>
</svg>
