<svg width="436" height="599" fill="none" xmlns="http://www.w3.org/2000/svg"><path d="M97.5 246v-15.5a5 5 0 015-5H321a5 5 0 015 5V246a5 5 0 01-5 5H102.5a5 5 0 01-5-5zm14 48c-10.656-.969-40.708-10.691-60.49-17.384-4.3-1.455-4.24-6.548.242-7.272 22.897-3.696 63.544-3.104 85.785-2.887a5.011 5.011 0 014.963 5.01v18.04c0 2.555-1.923 4.696-4.474 4.849-6.119.367-15.906.564-26.026-.356zm218 0c10.616-.965 39.189-9.648 58.467-15.958 4.315-1.413 4.283-6.541-.187-7.336-22.475-4-61.788-4.317-83.816-4.232a4.986 4.986 0 00-4.964 4.993v18.04c0 2.556 1.923 4.696 4.474 4.849 6.119.367 15.906.564 26.026-.356z" fill="#fff" stroke="#D9D9D9" stroke-width="5" stroke-linejoin="round"/><path d="M140.501 285.001v-13.697a4.976 4.976 0 014.267-4.928c68.65-9.766 128.062-4.594 153.247-.132 2.339.414 3.986 2.462 3.986 4.838v13.919a5 5 0 005 5h32.259c2.218 0 4.156 1.401 4.764 3.535 29.354 103.099 44.639 302.465-123.023 302.465-167.64 0-154.336-199.311-126-302.422.592-2.155 2.542-3.578 4.776-3.578h35.724a5 5 0 005-5z" fill="#fff" stroke="#D9D9D9" stroke-width="5" stroke-linejoin="round"/><ellipse cx="220" cy="441" rx="92" ry="112" fill="#fff" stroke="#D9D9D9" stroke-width="5" stroke-linejoin="round"/><path d="M216.499 367c-11.89 1.081-23.32 7.111-28.882 10.855-1.058.712-1.741 1.832-1.939 3.092-4.168 26.572-3.521 76.382 30.821 77.553 34.35 1.171 36.894-49.939 33.744-77.499-.148-1.292-.803-2.459-1.859-3.218-6.505-4.678-19.796-11.882-31.885-10.783zM40 268.191v1.776c0 2.961 2.525 5.276 5.472 4.99C82.882 271.326 163.138 265 225.5 265c61.866 0 133.338 6.226 166.437 9.87a5.012 5.012 0 005.563-4.988v-1.903c0-1.836-.98-3.526-2.65-4.289-17.524-8.005-71.35-22.055-169.35-23.19-98.778-1.144-160.859 14.287-182.604 23.238-1.8.74-2.896 2.507-2.896 4.453zM3 128C3 58.964 58.964 3 128 3h180c69.036 0 125 55.964 125 125v51.267c0 1.123-.365 2.195-1.132 3.014C424.009 190.676 373.215 237.5 218 237.5S11.991 190.676 4.132 182.281C3.365 181.461 3 180.39 3 179.267V128z" fill="#fff" stroke="#D9D9D9" stroke-width="5" stroke-linejoin="round"/><circle cx="209" cy="73" r="30" fill="#fff" stroke="#D9D9D9" stroke-width="5" stroke-linejoin="round"/><circle cx="209" cy="73" r="21" fill="#fff" stroke="#D9D9D9" stroke-width="5" stroke-linejoin="round"/></svg>