<svg width="545" height="610" fill="none" xmlns="http://www.w3.org/2000/svg"><rect x="48" y="3" width="450" height="451" rx="5" fill="#fff" stroke="#D9D9D9" stroke-width="5" stroke-linejoin="round"/><path d="M477 23H71a5 5 0 00-5 5v418a5 5 0 005 5h406a5 5 0 005-5V28a5 5 0 00-5-5z" fill="#fff" stroke="#D9D9D9" stroke-width="5" stroke-linejoin="round"/><path d="M479.972 377.65l-57.099-27.602a2 2 0 00-2.87 1.8v8.362a2 2 0 001.129 1.8l57.099 27.602c1.328.642 2.871-.325 2.871-1.8v-8.362a2 2 0 00-1.13-1.8zM66.24 371.686l58.098-23.891a2 2 0 012.761 1.85v8.479a2 2 0 01-1.24 1.85l-58.098 23.891a2 2 0 01-2.761-1.85v-8.479a2 2 0 011.24-1.85z" fill="#fff" stroke="#D9D9D9" stroke-width="5" stroke-linejoin="round"/><path fill-rule="evenodd" clip-rule="evenodd" d="M118.733 410.818c-4.966 0-6.895-6.456-2.743-9.18l13.695-8.987a4.997 4.997 0 012.743-.82h281.069c.989 0 1.956.293 2.778.843l12.943 8.651.347.209c4.343 2.612 2.491 9.284-2.577 9.284H118.733zm11.91-11.451a4.997 4.997 0 013.035-1.026h277.883c.883 0 1.751.234 2.515.679l4.425 2.576.139.095c4.058 2.776 2.094 9.127-2.823 9.127H130.406c-4.938 0-6.781-6.469-2.681-9.222l2.918-2.229z" fill="#fff"/><path d="M429.218 401.325l-1.389 2.078.1.064 1.289-2.142zm-10.717.271l1.411-2.064a3.036 3.036 0 00-.153-.097l-1.258 2.161zm.139.095l1.412-2.063-1.412 2.063zm10.925-.157l-1.288 2.142 1.288-2.142zm-13.29-8.86l1.389-2.078-1.389 2.078zm-286.59-.023l1.372 2.09-1.372-2.09zm-1.372-2.09l-13.695 8.987 2.743 4.18 13.696-8.987-2.744-4.18zm285.184-1.23H132.428v5h281.069v-5zm17.11 9.915l-12.943-8.65-2.778 4.157 12.943 8.65 2.778-4.157zm.247.145l-.348-.209-2.577 4.285.348.209 2.577-4.285zm-312.121 13.927h308.255v-5H118.733v5zm292.828-17.477H133.678v5h277.883v-5zm8.198 3.594l-4.425-2.576-2.516 4.321 4.425 2.576 2.516-4.321zm.293.193l-.14-.096-2.823 4.127.14.096 2.823-4.127zm-289.646 13.69h285.411v-5H130.406v5zm-1.281-15.938l-2.918 2.229 3.035 3.974 2.918-2.229-3.035-3.974zm1.281 10.938c-2.298 0-3.48-3.174-1.288-4.647l-2.787-4.151c-6.006 4.034-3.504 13.798 4.075 13.798v-5zm286.823-4.563c2.029 1.388 1.046 4.563-1.412 4.563v5c7.375 0 10.321-9.527 4.235-13.69l-2.823 4.127zm-283.551-7.914a7.505 7.505 0 00-4.553 1.539l3.035 3.974a2.5 2.5 0 011.518-.513v-5zm294.599 7.835c2.171 1.306 1.245 4.642-1.289 4.642v5c7.602 0 10.38-10.008 3.866-13.927l-2.577 4.285zm-14.78-9.345a2.5 2.5 0 011.389.422l2.778-4.157a7.495 7.495 0 00-4.167-1.265v5zm-298.879 5.217c-6.228 4.086-3.334 13.77 4.115 13.77v-5c-2.483 0-3.448-3.228-1.372-4.59l-2.743-4.18zm296.943 1.293c.441 0 .875.117 1.257.339l2.516-4.321a7.5 7.5 0 00-3.773-1.018v5zm-280.504-6.1c.407-.267.884-.41 1.371-.41v-5a7.496 7.496 0 00-4.115 1.23l2.744 4.18z" fill="#D9D9D9"/><path d="M122.859 318.595a2.713 2.713 0 015.425 0v70.701c0 .952-.5 1.835-1.317 2.326-1.808 1.084-4.108-.218-4.108-2.326v-70.701zm299.453 0a2.712 2.712 0 10-5.424 0v70.701c0 .952.5 1.835 1.317 2.326 1.807 1.084 4.107-.218 4.107-2.326v-70.701zm-210.484 29.837a3.797 3.797 0 017.595 0v55.334a3.798 3.798 0 11-7.595 0v-55.334zm112.836 0a3.797 3.797 0 017.595 0v55.334a3.798 3.798 0 01-7.595 0v-55.334z" fill="#fff" stroke="#D9D9D9" stroke-width="5" stroke-linejoin="round"/><path fill-rule="evenodd" clip-rule="evenodd" d="M450.524 316a5 5 0 00-5-5H101.82a5 5 0 00-5 5v90.903a5 5 0 005 5h343.704a5 5 0 005-5V316zm-7.595 6.51a5 5 0 00-5-5H109.415a5 5 0 00-5 5v77.883a5 5 0 005 5h328.514a5 5 0 005-5V322.51z" fill="#fff"/><path d="M101.82 313.5h343.704v-5H101.82v5zm-2.5 93.403V316h-5v90.903h5zm346.204 2.5H101.82v5h343.704v-5zm2.5-93.403v90.903h5V316h-5zm-338.609 4.01h328.514v-5H109.415v5zm-2.5 80.383V322.51h-5v77.883h5zm331.014 2.5H109.415v5h328.514v-5zm2.5-80.383v77.883h5V322.51h-5zm-2.5 85.383a7.5 7.5 0 007.5-7.5h-5a2.5 2.5 0 01-2.5 2.5v5zm-336.014-7.5a7.5 7.5 0 007.5 7.5v-5a2.5 2.5 0 01-2.5-2.5h-5zm336.014-80.383a2.5 2.5 0 012.5 2.5h5a7.5 7.5 0 00-7.5-7.5v5zm-328.514-5a7.5 7.5 0 00-7.5 7.5h5a2.5 2.5 0 012.5-2.5v-5zm336.109 99.393a7.5 7.5 0 007.5-7.5h-5a2.5 2.5 0 01-2.5 2.5v5zm-351.204-7.5a7.5 7.5 0 007.5 7.5v-5a2.5 2.5 0 01-2.5-2.5h-5zM445.524 313.5a2.5 2.5 0 012.5 2.5h5a7.5 7.5 0 00-7.5-7.5v5zm-343.704-5a7.5 7.5 0 00-7.5 7.5h5a2.5 2.5 0 012.5-2.5v-5z" fill="#D9D9D9"/><path d="M479.33 147.492l-57.098-6.575a2 2 0 00-2.229 1.987v8.777a2 2 0 001.771 1.987l57.099 6.575a2 2 0 002.229-1.987v-8.777a2 2 0 00-1.772-1.987zm-412.65.932l58.1-9.389a2 2 0 012.319 1.974v8.753a2 2 0 01-1.681 1.974l-58.099 9.389A2 2 0 0165 159.151v-8.752a2 2 0 011.68-1.975z" fill="#fff" stroke="#D9D9D9" stroke-width="5" stroke-linejoin="round"/><path fill-rule="evenodd" clip-rule="evenodd" d="M118.733 202.818c-4.966 0-6.895-6.456-2.743-9.18l13.695-8.987a4.997 4.997 0 012.743-.82h281.069c.989 0 1.956.293 2.778.843l12.943 8.651.347.209c4.343 2.612 2.491 9.284-2.577 9.284H118.733zm11.91-11.451a4.997 4.997 0 013.035-1.026h277.883c.883 0 1.751.234 2.515.679l4.425 2.576.139.095c4.058 2.776 2.094 9.127-2.823 9.127H130.406c-4.938 0-6.781-6.469-2.681-9.222l2.918-2.229z" fill="#fff"/><path d="M429.218 193.325l-1.389 2.078.1.064 1.289-2.142zm-10.717.271l1.411-2.064a3.036 3.036 0 00-.153-.097l-1.258 2.161zm.139.095l1.412-2.063-1.412 2.063zm10.925-.157l-1.288 2.142 1.288-2.142zm-13.29-8.86l1.389-2.078-1.389 2.078zm-286.59-.023l1.372 2.09-1.372-2.09zm-1.372-2.09l-13.695 8.987 2.743 4.18 13.696-8.987-2.744-4.18zm285.184-1.23H132.428v5h281.069v-5zm17.11 9.915l-12.943-8.65-2.778 4.157 12.943 8.65 2.778-4.157zm.247.145l-.348-.209-2.577 4.285.348.209 2.577-4.285zm-312.121 13.927h308.255v-5H118.733v5zm292.828-17.477H133.678v5h277.883v-5zm8.198 3.594l-4.425-2.576-2.516 4.321 4.425 2.576 2.516-4.321zm.293.193l-.14-.096-2.823 4.127.14.096 2.823-4.127zm-289.646 13.69h285.411v-5H130.406v5zm-1.281-15.938l-2.918 2.229 3.035 3.974 2.918-2.229-3.035-3.974zm1.281 10.938c-2.298 0-3.48-3.174-1.288-4.647l-2.787-4.151c-6.006 4.034-3.504 13.798 4.075 13.798v-5zm286.823-4.563c2.029 1.388 1.046 4.563-1.412 4.563v5c7.375 0 10.321-9.527 4.235-13.69l-2.823 4.127zm-283.551-7.914a7.505 7.505 0 00-4.553 1.539l3.035 3.974a2.5 2.5 0 011.518-.513v-5zm294.599 7.835c2.171 1.306 1.245 4.642-1.289 4.642v5c7.602 0 10.38-10.008 3.866-13.927l-2.577 4.285zm-14.78-9.345a2.5 2.5 0 011.389.422l2.778-4.157a7.495 7.495 0 00-4.167-1.265v5zm-298.879 5.217c-6.228 4.086-3.334 13.77 4.115 13.77v-5c-2.483 0-3.448-3.228-1.372-4.59l-2.743-4.18zm296.943 1.293c.441 0 .875.117 1.257.339l2.516-4.321a7.5 7.5 0 00-3.773-1.018v5zm-280.504-6.1c.407-.267.884-.41 1.371-.41v-5a7.496 7.496 0 00-4.115 1.23l2.744 4.18z" fill="#D9D9D9"/><path d="M122.859 110.595a2.713 2.713 0 015.425 0v70.701c0 .952-.5 1.835-1.317 2.326-1.808 1.084-4.108-.218-4.108-2.326v-70.701zm299.453 0a2.712 2.712 0 10-5.424 0v70.701c0 .952.5 1.835 1.317 2.326 1.807 1.084 4.107-.218 4.107-2.326v-70.701zm-210.484 29.837a3.797 3.797 0 017.595 0v55.334a3.798 3.798 0 11-7.595 0v-55.334zm112.836 0a3.797 3.797 0 017.595 0v55.334a3.798 3.798 0 01-7.595 0v-55.334z" fill="#fff" stroke="#D9D9D9" stroke-width="5" stroke-linejoin="round"/><path fill-rule="evenodd" clip-rule="evenodd" d="M450.524 108a5 5 0 00-5-5H101.82a5 5 0 00-5 5v90.903a5 5 0 005 5h343.704a5 5 0 005-5V108zm-7.595 6.51a5 5 0 00-5-5H109.415a5 5 0 00-5 5v77.883a5 5 0 005 5h328.514a5 5 0 005-5V114.51z" fill="#fff"/><path d="M101.82 105.5h343.704v-5H101.82v5zm-2.5 93.403V108h-5v90.903h5zm346.204 2.5H101.82v5h343.704v-5zm2.5-93.403v90.903h5V108h-5zm-338.609 4.01h328.514v-5H109.415v5zm-2.5 80.383V114.51h-5v77.883h5zm331.014 2.5H109.415v5h328.514v-5zm2.5-80.383v77.883h5V114.51h-5zm-2.5 85.383a7.5 7.5 0 007.5-7.5h-5a2.5 2.5 0 01-2.5 2.5v5zm-336.014-7.5a7.5 7.5 0 007.5 7.5v-5a2.5 2.5 0 01-2.5-2.5h-5zm336.014-80.383a2.5 2.5 0 012.5 2.5h5a7.5 7.5 0 00-7.5-7.5v5zm-328.514-5a7.5 7.5 0 00-7.5 7.5h5a2.5 2.5 0 012.5-2.5v-5zm336.109 99.393a7.5 7.5 0 007.5-7.5h-5a2.5 2.5 0 01-2.5 2.5v5zm-351.204-7.5a7.5 7.5 0 007.5 7.5v-5a2.5 2.5 0 01-2.5-2.5h-5zM445.524 105.5a2.5 2.5 0 012.5 2.5h5a7.5 7.5 0 00-7.5-7.5v5zm-343.704-5a7.5 7.5 0 00-7.5 7.5h5a2.5 2.5 0 012.5-2.5v-5z" fill="#D9D9D9"/><rect x="3" y="579" width="539" height="28" rx="5" fill="#fff" stroke="#D9D9D9" stroke-width="5" stroke-linejoin="round"/><path d="M47.035 453.852L5.32 573.352C4.186 576.602 6.599 580 10.04 580h525.067c3.4 0 5.808-3.32 4.754-6.551l-39.006-119.5a5 5 0 00-4.753-3.449H51.755a5 5 0 00-4.72 3.352z" fill="#fff" stroke="#D9D9D9" stroke-width="5" stroke-linejoin="round"/><path d="M63.63 453.808l-37.223 103.5c-1.172 3.258 1.242 6.692 4.705 6.692h176.761a5 5 0 004.863-3.837l3.438-14.373a5 5 0 014.863-3.837h106.747a5 5 0 014.916 4.085l2.581 13.877a5 5 0 004.916 4.085h172.846c3.419 0 5.829-3.354 4.74-6.594l-34.806-103.5a5 5 0 00-4.739-3.406H68.335a5 5 0 00-4.705 3.308z" fill="#fff" stroke="#D9D9D9" stroke-width="5" stroke-linejoin="round"/><path d="M220.353 558.915l1.335-6a4.998 4.998 0 014.88-3.915H265a5 5 0 015 5v6a5 5 0 01-5 5h-39.766c-3.199 0-5.575-2.963-4.881-6.085zm107.325.02l-1.308-6a5.001 5.001 0 00-4.886-3.935H284a5 5 0 00-5 5v6a5 5 0 005 5h38.792c3.191 0 5.565-2.948 4.886-6.065z" fill="#fff" stroke="#D9D9D9" stroke-width="5" stroke-linejoin="round"/></svg>