<svg width="243" height="269" viewBox="0 0 243 269" fill="none" xmlns="http://www.w3.org/2000/svg">
<rect x="23.3418" width="197.934" height="217.489" fill="#141414"/>
<path d="M213.646 8.58521H30.9736V217.489H213.646V8.58521Z" fill="#2F2F2F"/>
<path d="M213.733 185.289L185.116 171.002V176.631L213.733 190.918V185.289Z" fill="#555555"/>
<path d="M213.733 200.235L185.116 183.75V189.379L213.733 205.864V200.235Z" fill="#555555"/>
<path d="M30.8174 185.289L59.4344 171.002V176.631L30.8174 190.918V185.289Z" fill="#555555"/>
<path d="M30.8174 200.235L59.4344 183.75V189.379L30.8174 205.864V200.235Z" fill="#555555"/>
<path d="M30.8174 65.8057L59.4344 72.9728V78.6015L30.8174 71.4343V65.8057Z" fill="#555555"/>
<path d="M30.8174 85.7211L59.4344 85.7209V91.3496L30.8174 91.3497V85.7211Z" fill="#555555"/>
<path d="M213.733 65.8057L185.116 72.9728V78.6015L213.733 71.4343V65.8057Z" fill="#555555"/>
<path d="M213.733 85.7211L185.116 85.7209V91.3496L213.733 91.3497V85.7211Z" fill="#555555"/>
<path d="M57.6826 25.7556H186.459V197.458H57.6826V25.7556Z" fill="#242424"/>
<path d="M214.122 8.10791L185.744 26.709H57.6825L30.2578 8.10791H214.122Z" fill="#272727"/>
<path fill-rule="evenodd" clip-rule="evenodd" d="M44.5664 108.269L57.6825 99.9219H186.459L192.898 104.095L200.052 108.269H44.5664ZM58.1591 102.783H185.505L188.039 104.214L194.151 108.268H50.0025L56.2271 104.214L58.1591 102.783Z" fill="#555555"/>
<path d="M57.6823 62.481L44.8047 65.1042H200.052L185.982 62.481H57.6823Z" fill="#555555"/>
<path d="M56.252 66.5349H58.6367V99.9214L56.252 101.352V66.5349Z" fill="#555555"/>
<path d="M187.891 66.5349H185.506V99.9214L187.891 101.352V66.5349Z" fill="#555555"/>
<path d="M95.3613 79.1741H98.7V106.837H95.3613V79.1741Z" fill="#6E6E6E"/>
<path d="M144.964 79.1741H148.303V106.837H144.964V79.1741Z" fill="#6E6E6E"/>
<rect x="44.8047" y="72.9741" width="155.486" height="2.38475" fill="#878787"/>
<rect x="44.8047" y="85.374" width="155.486" height="2.38475" fill="#878787"/>
<rect x="44.8047" y="97.7751" width="155.486" height="2.38475" fill="#878787"/>
<path fill-rule="evenodd" clip-rule="evenodd" d="M200.292 64.3889H44.8057V108.745H200.292V64.3889ZM196.953 67.2503H48.1443V105.883H196.953V67.2503Z" fill="#878787"/>
<path fill-rule="evenodd" clip-rule="evenodd" d="M44.5664 206.678L57.6825 198.331H186.459L192.898 202.504L200.052 206.678H44.5664ZM58.1591 201.193H185.505L188.039 202.624L194.151 206.678H50.0025L56.2271 202.624L58.1591 201.193Z" fill="#555555"/>
<path d="M57.6823 160.891L44.8047 163.514H200.052L185.982 160.891H57.6823Z" fill="#555555"/>
<path d="M56.252 164.945H58.6367V198.331L56.252 199.762V164.945Z" fill="#555555"/>
<path d="M187.891 164.945H185.506V198.331L187.891 199.762V164.945Z" fill="#555555"/>
<path d="M95.3613 177.584H98.7V205.247H95.3613V177.584Z" fill="#6E6E6E"/>
<path d="M144.964 177.584H148.303V205.247H144.964V177.584Z" fill="#6E6E6E"/>
<rect x="44.8047" y="171.383" width="155.486" height="2.38475" fill="#878787"/>
<rect x="44.8047" y="183.784" width="155.486" height="2.38475" fill="#878787"/>
<rect x="44.8047" y="196.185" width="155.486" height="2.38475" fill="#878787"/>
<path fill-rule="evenodd" clip-rule="evenodd" d="M200.292 162.798H44.8057V207.154H200.292V162.798ZM196.953 165.661H48.1443V204.294H196.953V165.661Z" fill="#878787"/>
<path d="M0.925781 256.6L29.0381 216.536H213.197L242.263 256.6H0.925781Z" fill="#141414"/>
<rect x="0.925781" y="255.646" width="240.86" height="13.3546" fill="#2F2F2F"/>
<rect x="12.8496" y="243.245" width="217.966" height="13.3546" rx="5" fill="#2F2F2F"/>
<path d="M31.2323 216.536L12.8496 244.199H230.816L213.627 216.536H31.2323Z" fill="#242424"/>
<path d="M39.9546 216.536L23.3418 241.814H97.7461L99.8923 232.037H146.633L148.303 241.814H220.322L204.788 216.536H39.9546Z" fill="#141414"/>
<path d="M41.4668 241.813L50.2774 228.936H196.009L202.438 241.061L148.849 241.813L146.431 231.446H99.395L96.7574 241.813H41.4668Z" fill="black"/>
<path d="M100.607 241.337L102.038 234.421H121.116V241.337H100.607Z" fill="black"/>
<path d="M144.965 241.337L143.534 234.421H124.456V241.337H144.965Z" fill="black"/>
</svg>
