<svg width="737" height="412" viewBox="0 0 737 412" fill="none" xmlns="http://www.w3.org/2000/svg">
<path d="M63.8171 1H663.454L715 109H21L63.8171 1Z" fill="#CCC09E"/>
<path d="M22 107H715V139H22V107Z" fill="#BBAA7C"/>
<rect x="713" y="107" width="23" height="303" fill="#BBAA7C"/>
<rect y="107" width="24" height="303" fill="#BBAA7C"/>
<rect x="51" y="139" width="24" height="165" fill="#B19D68"/>
<rect x="661" y="139" width="24" height="165" fill="#B19D68"/>
<path d="M45.6519 0.759766L0 109H23.3481L66 1.00027L45.6519 0.759766Z" fill="#BBAA7C"/>
<path d="M685.667 2.75949L737 109H712.34L660 0L685.667 2.75949Z" fill="#BBAA7C"/>
<path d="M705 400.161L715 411V139H705V400.161Z" fill="#AA945A"/>
<path d="M33 401.121L22 412V139H33V401.121Z" fill="#AA945A"/>
<path d="M652 297.425L663 304V139H652V297.425Z" fill="#97834E"/>
<path d="M83 297.425L72 304V139H83V297.425Z" fill="#97834E"/>
</svg>
