<svg width="743" height="414" fill="none" xmlns="http://www.w3.org/2000/svg"><rect x="663.5" y="140.5" width="24" height="165" rx="5" fill="#fff" stroke="#D9D9D9" stroke-width="5" stroke-linejoin="round"/><path d="M656.474 298.507l7 4.184c1.333.797 3.026-.163 3.026-1.716V141.5a2 2 0 00-2-2h-7a2 2 0 00-2 2v155.29a2 2 0 00.974 1.717zm-569.948 0l-7 4.184c-1.333.797-3.026-.163-3.026-1.716V141.5a2 2 0 012-2h7a2 2 0 012 2v155.29a2 2 0 01-.974 1.717z" fill="#fff" stroke="#D9D9D9" stroke-width="5" stroke-linejoin="round"/><rect x="53.5" y="139.5" width="24" height="165" rx="5" fill="#fff" stroke="#D9D9D9" stroke-width="5" stroke-linejoin="round"/><path d="M34.089 396.159l-7 9.15c-1.162 1.519-3.589.698-3.589-1.215V135.5a2 2 0 012-2h7a2 2 0 012 2v259.444c0 .439-.145.867-.411 1.215zm672.823 0l7 9.15c1.162 1.519 3.588.698 3.588-1.215V135.5a2 2 0 00-2-2h-7a2 2 0 00-2 2v259.444c0 .439.145.867.412 1.215z" fill="#fff" stroke="#D9D9D9" stroke-width="5" stroke-linejoin="round"/><path d="M24.5 113.5a5 5 0 015-5h683a5 5 0 015 5v22a5 5 0 01-5 5h-683a5 5 0 01-5-5v-22z" fill="#fff" stroke="#D9D9D9" stroke-width="5" stroke-linejoin="round"/><rect x="715.5" y="108.5" width="25" height="303" rx="2" fill="#fff" stroke="#D9D9D9" stroke-width="5" stroke-linejoin="round"/><rect x="2.5" y="108.5" width="24" height="303" rx="2" fill="#fff" stroke="#D9D9D9" stroke-width="5" stroke-linejoin="round"/><path d="M47.185 5.983l-42.092 95.5c-1.457 3.305.963 7.017 4.575 7.017h722.929c3.671 0 6.091-3.824 4.518-7.141l-45.26-95.5A5.001 5.001 0 00687.337 3H51.76a5 5 0 00-4.575 2.983z" stroke="#D9D9D9" stroke-width="5" stroke-linejoin="round"/></svg>