<svg width="919" height="657" fill="none" xmlns="http://www.w3.org/2000/svg"><rect x="3" y="3" width="913" height="586.693" rx="5" fill="#fff" stroke="#D9D9D9" stroke-width="5" stroke-linejoin="round"/><path d="M227.518 494.958c3.729 4.839 24.808.022 34.881-2.99 11.047-2.84 22.936-17.674 24.65-18.995 1.713-1.32 5.26.556 8.006 2.212 2.747 1.655 8.297-12.68 8.602-15.01.305-2.331 4.087-3.149 10.27-3.304 6.183-.155 2.732-13.63 5.368-15.662 2.637-2.031 7.693.987 12.559 1.848 4.865.861 14.511-15.792 11.168-20.131s-16.9 5.06-19.23 2.036c-2.33-3.024 13.16-6.369 11.024-12.685-2.136-6.317-26.938-11.512-32.502-15.188-5.563-3.675-4.161-11.67-7.809-13.679-3.649-2.008-22.577 5.873-26.572 8.322-3.994 2.45 8.711 16.757-.647 21.244-9.357 4.487-6.804-18.645-13.069-16.961-6.265 1.685-13.313 10.26-16.609 12.799-3.295 2.539-7.589-6.305-9.219-11.964-1.63-5.659 1.423-9.059 7.131-12.829 5.708-3.771 5.42-16.959-1.123-30.357s-13.069-16.96-15.906-20.641c-2.837-3.682-12.258-18.634-16.412-21.299-4.155-2.666-25.114 13.485-28.5 13.998-3.385.514-12.655-12.878-20.049-2.571-7.393 10.307 8.365 21.214 12.66 27.334 4.295 6.119 1.483 18.554 1.025 22.05-.457 3.496-.848 15.531.875 17.766 1.722 2.235 8.704 7.751 10.73 10.381 2.026 2.629 6.645 10.804 16.928 25.511 10.282 14.707 41.305 3.165 45.724 2.903 4.42-.263 12.549 1.017 12.862 4.967.312 3.95-13.016 1.648-20.111.619-7.096-1.028-10.018 7.72-11.996 9.244-1.977 1.523-6.272-4.596-8.311-2.607-2.038 1.99-3.574 15.537-4.234 18.77-.66 3.232-15.996 2.687-15.136 5.167.664 1.914 9.862 7.715 14.86 10.666.355.209.681.458.974.747 4.487 4.421 13.533 13.61 17.138 18.289z" fill="#fff" stroke="#D9D9D9" stroke-width="5" stroke-linejoin="round"/><path d="M252.341 359.47c1.39 2.482 8.064 5.494 11.228 6.69.92.361 8.773.709 11.718-.214 2.945-.924 4.303-5.94 5.221-9.07.918-3.13 5.374-6.16 7.336-11.239 1.963-5.079-1.58-26.708-6.171-31.649-4.591-4.941-17.222-5.234-22.43-2.163-5.208 3.071-9.091 12.86-11.513 18.36-2.422 5.5 2.873 26.183 4.611 29.285zm73.72 174.131c-3.757-.011-11.551-5.677-14.979-8.508-1.011-.817-6.503-9.497-7.35-13.417-.846-3.919 4.047-8.62 7.053-11.633 3.007-3.014 15.218 8.34 19.79 2.915 4.573-5.426 20.149-33.356 28.812-31.267 8.663 2.09 17.189 16.221 17.031 24.059-.157 7.838-8.905 18.409-13.665 24.62-4.759 6.211-31.995 13.246-36.692 13.231zm357.502-311.48c-.901-6.392-22.786-12.97-33.617-15.46-11.634-3.157-30.304 4.269-32.568 4.588-2.264.319-4.544-3.258-6.204-6.213-1.659-2.955-14.244 7.322-15.741 9.304-1.497 1.983-5.399.761-11.162-2.325-5.763-3.086-9.626 11.1-13.11 11.591-3.483.49-6.554-4.923-10.576-8.254-4.022-3.331-21.58 6.937-20.773 12.67.808 5.732 18.172 4.172 18.735 8.167.563 3.996-15.418-1.016-16.753 5.904-1.334 6.92 18.747 24.641 21.941 30.923 3.194 6.283-2.268 12.898.036 16.648 2.305 3.75 23.813 6.39 28.763 6.224 4.95-.166.743-19.947 11.685-19.185 10.942.762-3.481 20.686 3.156 22.409 6.637 1.722 17.591-2.478 21.945-3.092 4.354-.613 3.683 9.757 2.227 15.808-1.457 6.052-6.037 7.583-13.251 8.067-7.214.485-13.833 12.756-14.815 28.484-.981 15.729 3.157 22.409 3.842 27.273.685 4.864 1.538 23.523 3.964 28.142 2.427 4.618 30.119.717 33.499 2.013 3.379 1.295 4.907 18.442 17.082 12.829 12.176-5.613 3.388-23.862 2.635-31.729-.752-7.866 8.324-17.825 10.569-20.799 2.246-2.974 8.887-13.83 8.471-16.783-.416-2.953-3.953-11.667-4.442-15.142-.49-3.474-.467-13.398-2.239-32.282-1.772-18.883-36.307-24.471-40.505-26.537-4.199-2.066-11.001-7.485-9.227-11.278 1.775-3.793 12.822 5.28 18.806 9.929 5.983 4.649 13.236-1.865 15.849-2.233 2.612-.368 3.365 7.498 6.277 6.734 2.912-.765 11.395-12.412 13.689-15.038 2.295-2.627 16.104 5.88 16.608 3.152.389-2.109-5.056-12.276-8.106-17.589a5.059 5.059 0 01-.479-1.132c-1.812-6.393-5.339-19.595-6.211-25.788zm53.684 153.137c.018-3.007-4.543-9.259-6.826-12.01-.658-.812-7.692-5.231-10.881-5.92-3.188-.689-7.055 3.213-9.533 5.61-2.477 2.397-8.154 2.855-12.609 6.498-4.455 3.643-12.49 25.37-10.851 32.307 1.64 6.938 13.096 13.801 19.485 13.697 6.389-.103 15.068-7.072 20.164-10.862 5.097-3.79 11.028-25.562 11.051-29.32zM626.293 136.922c3.448 1.972 7.653 11.248 9.324 15.639.504 1.278 1.019 12.123-.249 16.167-1.268 4.044-8.219 5.81-12.555 7.009-4.336 1.2-9.63-15.609-16.665-13.01-7.034 2.599-35.929 20.135-42.8 13.693-6.87-6.442-7.329-23.88-3.092-31.001 4.237-7.12 17.794-12.268 25.41-15.492 7.617-3.223 36.318 4.53 40.627 6.995z" fill="#fff" stroke="#D9D9D9" stroke-width="5" stroke-linejoin="round"/><path d="M527.619 421.745c-5.951 2.5-6.732 25.34-6.378 36.447-.086 12.055 11.855 28.214 12.74 30.322.886 2.108-1.991 5.225-4.425 7.583-2.434 2.358 10.711 11.906 13.01 12.848 2.298.942 2.112 5.027.598 11.387-1.514 6.359 13.187 6.478 14.55 9.721 1.362 3.243-3.089 7.593-5.285 12.331-2.195 4.738 12.211 19.098 17.548 16.856 5.337-2.243-.599-18.635 3.121-20.198 3.72-1.563 2.948 15.168 9.98 14.694 7.031-.475 19.047-24.41 24.307-29.101 5.26-4.69 13.05-1.095 16.088-4.279 3.039-3.185.107-24.655-1.316-29.399-1.422-4.744-19.476 4.367-21.53-6.407-2.053-10.775 20.891-1.909 20.864-8.766-.027-6.857-6.881-16.377-8.585-20.431-1.23-2.929 3.752-4.784 8.959-5.638 3.011-.494 5.302-3.246 4.792-6.255l-4.667-27.561a5 5 0 00-3.331-3.903l-10.52-3.551c-1.08-.364-2.265-.375-3.284.134-15.982 7.989-12.818 40.794-13.716 45.236-.927 4.587-4.433 12.546-8.553 11.797-4.121-.748 1.836-13.744 4.806-20.715 2.97-6.971-5.178-12.324-6.2-14.756-1.022-2.432 6.392-5.166 4.91-7.786-1.481-2.621-14.907-7.854-18.031-9.403-3.125-1.549 1.58-17.071-1.187-16.863-2.138.162-10.581 8.019-14.94 12.323a5.025 5.025 0 01-.973.751c-5.72 3.383-17.586 10.159-23.352 12.582z" stroke="#D9D9D9" stroke-width="5" stroke-linejoin="round"/><path d="M437.13 534.684c-3.2-2.351-6.321-12.046-7.481-16.599-.354-1.327.368-12.16 2.089-16.033 1.721-3.874 8.827-4.836 13.272-5.534 4.445-.697 7.79 16.605 15.074 14.824 7.285-1.78 37.99-15.911 44.082-8.727 6.091 7.183 4.56 24.559-.46 31.151-5.02 6.591-19.076 10.161-27.01 12.496-7.934 2.335-35.566-8.638-39.566-11.578zm1.032-290.077c6.459-2.372 7.904-28.012 7.819-40.535.413-13.557-11.981-32.625-12.877-35.063-.895-2.437 2.278-5.73 4.954-8.203 2.677-2.472-11.186-14.191-13.63-15.422-2.443-1.23-2.135-5.812-.339-12.855 1.795-7.043-13.991-8.268-15.368-12.018-1.377-3.75 3.519-8.314 6.003-13.482 2.484-5.168-12.606-22.395-18.398-20.268-5.791 2.127.148 21.012-3.888 22.494-4.036 1.483-2.763-17.285-10.327-17.273-7.564.012-21.105 26.05-26.879 30.937-5.773 4.887-14.044.264-17.392 3.621-3.347 3.357-.769 27.732.632 33.176 1.402 5.443 21.033-3.469 22.952 8.807 1.919 12.275-22.485.597-22.639 8.314-.153 7.717 6.955 18.937 8.676 23.625 1.722 4.687-9.283 6.175-15.97 5.865-6.686-.311-9.423-5.051-11.72-12.932-2.297-7.881-16.765-12.568-33.448-10.272-16.683 2.297-22.639 8.315-27.553 10.119-4.914 1.805-24.206 6.762-28.431 10.442-4.225 3.679 6.723 33.492 6.208 37.511-.516 4.02-18.059 9.398-9.171 21.668 8.888 12.27 25.782-1.383 33.817-3.908s20.698 5.379 24.363 7.225c3.665 1.846 16.661 6.861 19.644 5.766 2.984-1.096 11.214-6.885 14.724-8.174 3.51-1.289 13.889-3.398 33.187-9.422 19.298-6.023 16.569-45.451 17.687-50.542 1.117-5.092 5.094-13.787 9.499-12.639 4.405 1.149-2.337 15.328-5.712 22.951-3.375 7.623 5.233 14.25 6.266 17.063 1.033 2.812-7.002 5.338-5.48 8.396 1.521 3.059 15.801 9.944 19.115 11.918 3.314 1.975-2.151 19.09.826 19.061 2.303-.023 11.588-8.247 16.382-12.764a5.048 5.048 0 011.05-.762c6.229-3.379 19.16-10.127 25.418-12.425z" fill="#fff" stroke="#D9D9D9" stroke-width="5" stroke-linejoin="round"/><path d="M283.167 169.126c3.146-.627 8.55-7.02 10.859-10.139.685-.902 3.559-9.64 3.488-13.317-.072-3.677-5.109-7.118-8.229-9.345-3.12-2.227-5.008-8.412-9.921-12.559-4.913-4.148-29.617-8.369-36.461-5.061-6.844 3.307-11.175 17.463-9.482 24.512 1.694 7.05 11.131 15.158 16.357 19.984 5.227 4.826 29.455 6.708 33.389 5.925zm234.064 4.37c-1.206 4.24-9.858 10.889-14.033 13.684-1.211.832-12.418 3.736-16.96 3.202-4.542-.534-8.112-7.847-10.441-12.389-2.33-4.542 13.925-14.018 9.463-21.245-4.462-7.227-29.961-35.438-24.932-44.429 5.029-8.99 23.142-13.249 31.636-10.091 8.493 3.158 17.238 17.057 22.497 24.794 5.259 7.737 4.277 41.174 2.77 46.474z" fill="#fff" stroke="#D9D9D9" stroke-width="5" stroke-linejoin="round"/><circle cx="465.298" cy="339.744" r="178.955" fill="#fff" stroke="#D9D9D9" stroke-width="5" stroke-linejoin="round"/><circle cx="465.297" cy="338.086" r="102.696" fill="#fff" stroke="#D9D9D9" stroke-width="5" stroke-linejoin="round"/></svg>