<svg width="913" height="615" viewBox="0 0 913 615" fill="none" xmlns="http://www.w3.org/2000/svg">
<rect y="0.194824" width="913" height="586.693" fill="#CCC09E"/>
<path d="M312.561 429.542C317.232 426.93 315.754 408.041 314.431 398.923C313.382 388.983 302.044 376.779 301.119 375.125C300.193 373.471 302.274 370.636 304.06 368.467C305.847 366.298 294.13 359.653 292.149 359.09C290.168 358.527 289.942 355.145 290.599 349.765C291.256 344.385 279.133 345.653 277.709 343.107C276.286 340.562 279.549 336.565 280.918 332.457C282.287 328.35 269.084 317.857 264.896 320.2C260.707 322.544 267.12 335.497 264.2 337.13C261.281 338.764 260.363 324.908 254.614 325.952C248.865 326.995 241.189 347.831 237.291 352.183C233.393 356.536 226.641 354.297 224.434 357.203C222.226 360.109 226.636 377.525 228.248 381.301C229.861 385.078 243.888 375.894 246.581 384.58C249.273 393.266 229.548 388.093 230.206 393.74C230.865 399.386 237.396 406.593 239.176 409.775C240.956 412.956 232.739 415.547 227.625 416.236C222.511 416.925 219.954 413.844 217.416 408.413C214.878 402.982 203.409 401.545 190.958 405.503C178.506 409.46 174.583 414.662 171.029 416.65C167.475 418.638 153.308 424.892 150.466 428.153C147.624 431.414 158.943 451.648 158.955 454.649C158.967 457.65 146.172 463.972 154.161 471.7C162.15 479.428 173.621 467.163 179.475 464.222C185.33 461.282 195.749 465.311 198.721 466.155C201.693 466.999 212.076 468.877 214.234 467.67C216.392 466.463 222.067 461.116 224.605 459.696C227.144 458.276 234.822 455.318 248.886 448.286C262.951 441.254 256.914 412.885 257.252 409.02C257.59 405.155 259.739 398.272 263.203 398.506C266.667 398.741 262.967 410 261.167 416.019C259.368 422.038 266.578 425.691 267.645 427.6C268.713 429.509 262.859 432.45 264.323 434.471C265.787 436.492 277.334 439.557 280.052 440.543C282.77 441.529 280.335 454.754 282.595 454.325C284.403 453.982 291.006 446.223 294.081 442.386C298.295 439.193 307.89 432.155 312.561 429.542Z" fill="#C1B28B"/>
<path d="M206.016 396.574C208.346 395.686 211.811 390.286 213.253 387.697C213.683 386.945 214.989 380.182 214.566 377.511C214.142 374.84 209.967 373.021 207.371 371.825C204.775 370.629 202.719 366.379 198.567 364.027C194.416 361.676 175.213 361.98 170.342 365.328C165.472 368.676 163.602 379.588 165.598 384.495C167.593 389.402 175.582 394.021 180.04 396.824C184.498 399.627 203.105 397.683 206.016 396.574Z" fill="#C1B28B"/>
<path d="M339.831 366.542C339.34 369.797 333.432 375.829 330.538 378.438C329.702 379.21 321.474 382.861 317.968 383.093C314.462 383.325 311.013 378.483 308.785 375.49C306.558 372.498 317.962 363.366 313.844 358.708C309.726 354.05 287.507 336.974 290.427 329.732C293.346 322.49 306.687 316.907 313.461 318.046C320.235 319.186 328.28 328.121 333.055 333.042C337.831 337.962 340.444 362.472 339.831 366.542Z" fill="#C1B28B"/>
<path d="M106.874 276.808C101.821 278.573 100.005 297.432 99.728 306.641C99.0388 316.612 108.091 330.596 108.716 332.385C109.341 334.175 106.801 336.606 104.665 338.433C102.53 340.26 112.918 348.834 114.772 349.732C116.626 350.629 116.262 354 114.683 359.184C113.104 364.369 125.263 365.221 126.225 367.974C127.186 370.728 123.28 374.099 121.22 377.907C119.16 381.715 130.345 394.337 134.876 392.755C139.408 391.173 135.336 377.304 138.494 376.201C141.652 375.098 140.156 388.904 145.999 388.872C151.841 388.84 163.011 369.649 167.605 366.038C172.198 362.426 178.459 365.8 181.137 363.321C183.814 360.842 182.489 342.925 181.555 338.926C180.621 334.928 165.215 341.542 164.068 332.521C162.921 323.5 181.452 332.012 181.781 326.337C182.111 320.662 176.927 312.432 175.725 308.991C174.523 305.549 183.064 304.42 188.221 304.628C193.377 304.836 195.361 308.313 196.92 314.101C198.478 319.89 209.526 323.292 222.474 321.551C235.423 319.811 240.188 315.367 244.033 314.025C247.877 312.682 262.913 308.977 266.277 306.258C269.641 303.539 261.999 281.65 262.507 278.693C263.015 275.735 276.712 271.725 270.183 262.73C263.653 253.735 250.231 263.827 243.956 265.709C237.68 267.591 228.116 261.817 225.335 260.471C222.555 259.125 212.654 255.477 210.32 256.292C207.986 257.107 201.47 261.39 198.724 262.348C195.978 263.307 187.904 264.891 172.833 269.38C157.763 273.869 158.794 302.855 157.792 306.602C156.789 310.35 153.48 316.757 150.109 315.926C146.738 315.095 152.333 304.647 155.148 299.031C157.963 293.414 151.495 288.568 150.774 286.503C150.053 284.438 156.328 282.556 155.237 280.311C154.145 278.067 143.304 273.048 140.798 271.606C138.292 270.164 142.981 257.561 140.681 257.592C138.841 257.617 130.993 264.115 127.3 267.361C122.597 269.775 111.927 275.044 106.874 276.808Z" fill="#C1B28B"/>
<path d="M204.357 342.649C201.909 343.119 197.561 347.838 195.692 350.138C195.139 350.804 192.68 357.238 192.635 359.942C192.589 362.646 196.386 365.161 198.735 366.789C201.085 368.417 202.374 372.959 206.055 375.994C209.737 379.029 228.702 382.056 234.079 379.603C239.456 377.149 243.188 366.726 242.072 361.547C240.957 356.368 233.889 350.435 229.984 346.902C226.079 343.369 207.417 342.061 204.357 342.649Z" fill="#C1B28B"/>
<path d="M67.3624 349.045C68.4095 345.923 75.2739 341.007 78.5752 338.938C79.5332 338.323 88.2688 336.153 91.7622 336.531C95.2556 336.91 97.8133 342.277 99.4887 345.61C101.164 348.942 88.35 355.961 91.599 361.262C94.8481 366.563 113.773 387.23 109.643 393.857C105.513 400.484 91.4061 403.671 84.9318 401.375C78.4575 399.079 72.0828 388.885 68.232 383.212C64.3812 377.539 66.0535 352.947 67.3624 349.045Z" fill="#C1B28B"/>
<path d="M550.336 446.88C551.223 452.159 569.506 457.13 578.536 458.956C588.248 461.317 603.558 454.752 605.428 454.438C607.297 454.124 609.265 457.038 610.706 459.451C612.146 461.863 622.35 453.07 623.547 451.394C624.744 449.718 628.005 450.645 632.849 453.076C637.693 455.507 640.584 443.665 643.46 443.182C646.336 442.699 649 447.118 652.407 449.791C655.813 452.463 670.14 443.567 669.344 438.834C668.549 434.1 654.192 435.775 653.638 432.476C653.084 429.177 666.439 432.98 667.393 427.216C668.346 421.451 651.315 407.205 648.53 402.069C645.745 396.932 650.126 391.329 648.134 388.272C646.142 385.215 628.258 383.5 624.159 383.746C620.061 383.992 623.982 400.293 614.897 399.902C605.811 399.511 617.327 382.681 611.788 381.4C606.25 380.118 597.264 383.839 593.669 384.443C590.074 385.047 590.402 376.438 591.476 371.391C592.551 366.344 596.313 364.974 602.281 364.414C608.249 363.854 613.466 353.539 613.934 340.482C614.402 327.425 610.826 321.979 610.151 317.963C609.476 313.947 608.36 298.502 606.248 294.727C604.135 290.953 581.27 294.794 578.441 293.795C575.611 292.795 573.969 278.618 564.001 283.537C554.034 288.456 561.717 303.388 562.514 309.891C563.311 316.394 556.007 324.847 554.211 327.361C552.416 329.875 547.15 339.018 547.56 341.457C547.969 343.895 551.092 351.039 551.574 353.908C552.056 356.777 552.255 365.002 554.138 380.613C556.021 396.225 584.766 400.097 588.291 401.717C591.816 403.337 597.573 407.679 596.185 410.862C594.798 414.045 585.443 406.768 580.382 403.046C575.32 399.324 569.452 404.882 567.295 405.244C565.138 405.607 564.342 399.104 561.945 399.801C559.549 400.499 552.773 410.339 550.93 412.566C549.086 414.792 537.454 408.045 537.097 410.318C536.811 412.135 541.892 420.966 544.469 425.154C546.055 430.197 549.45 441.602 550.336 446.88Z" fill="#C1B28B"/>
<path d="M617.267 357.668C617.318 360.16 621.236 365.243 623.188 367.472C623.751 368.13 629.678 371.639 632.336 372.139C634.994 372.64 638.112 369.322 640.113 367.281C642.114 365.24 646.809 364.735 650.421 361.618C654.033 358.501 660.216 340.318 658.704 334.605C657.193 328.891 647.548 323.455 642.255 323.681C636.963 323.907 629.923 329.873 625.782 333.126C621.641 336.379 617.203 354.553 617.267 357.668Z" fill="#C1B28B"/>
<path d="M600.468 493.78C597.568 492.221 593.879 484.626 592.398 481.023C591.952 479.975 591.287 470.998 592.249 467.619C593.211 464.239 598.933 462.623 602.5 461.534C606.068 460.445 610.825 474.259 616.598 471.95C622.371 469.642 645.933 454.474 651.769 459.662C657.604 464.851 658.367 479.293 655.012 485.287C651.657 491.282 640.534 495.846 634.293 498.685C628.051 501.523 604.094 495.728 600.468 493.78Z" fill="#C1B28B"/>
<path d="M427.539 543.301C432.781 544.379 444.015 529.122 448.976 521.358C454.682 513.152 454.084 496.505 454.466 494.648C454.848 492.792 458.276 492.007 461.045 491.535C463.815 491.062 459.296 478.373 458.165 476.651C457.034 474.93 459.075 472.224 463.09 468.583C467.105 464.942 457.104 457.974 457.692 455.117C458.279 452.261 463.362 451.37 467.083 449.158C470.804 446.945 467.677 430.374 462.976 429.407C458.275 428.441 454.656 442.435 451.379 441.762C448.103 441.088 456.469 430.005 451.437 427.035C446.405 424.066 426.972 434.81 421.177 435.554C415.382 436.298 411.737 430.189 408.167 430.944C404.597 431.699 396.545 447.759 395.295 451.671C394.046 455.582 410.664 457.807 407.021 466.139C403.378 474.471 391.837 457.659 388.643 462.362C385.449 467.064 385.678 476.788 384.944 480.359C384.21 483.929 376.299 480.517 371.98 477.694C367.66 474.871 367.741 470.868 369.372 465.1C371.003 459.331 363.265 450.744 351.257 445.596C339.248 440.448 332.879 441.819 328.89 440.999C324.901 440.179 310.093 435.647 305.811 436.255C301.528 436.864 296.86 459.574 294.907 461.852C292.954 464.13 279.139 460.546 280.131 471.617C281.122 482.688 297.82 480.91 304.172 482.514C310.524 484.117 315.773 493.979 317.469 496.561C319.166 499.143 325.793 507.353 328.215 507.851C330.637 508.348 338.427 508.014 341.276 508.6C344.126 509.185 351.869 511.968 367.108 515.845C382.347 519.721 396.331 494.311 399.113 491.608C401.896 488.905 408.023 485.102 410.491 487.545C412.958 489.987 402.796 496.086 397.499 499.463C392.202 502.841 395.267 510.319 394.827 512.461C394.387 514.604 388.035 513 387.82 515.487C387.606 517.974 394.338 527.843 395.75 530.366C397.161 532.889 386.672 541.303 388.662 542.456C390.254 543.379 400.323 541.826 405.159 540.934C410.435 541.274 422.296 542.224 427.539 543.301Z" fill="#C1B28B"/>
<path d="M368.487 448.688C370.83 449.54 376.983 447.72 379.767 446.704C380.584 446.416 385.995 442.154 387.421 439.856C388.846 437.558 386.877 433.452 385.696 430.85C384.514 428.247 385.737 423.687 384.134 419.193C382.53 414.7 367.803 402.373 361.929 401.721C356.055 401.068 347.505 408.102 345.806 413.12C344.107 418.137 347.131 426.856 348.67 431.892C350.21 436.927 365.559 447.624 368.487 448.688Z" fill="#C1B28B"/>
<path d="M489.368 513.469C486.867 515.611 478.453 516.311 474.558 516.393C473.42 516.43 464.808 513.812 462.003 511.695C459.199 509.578 459.756 503.659 460.028 499.938C460.299 496.218 474.899 496.766 474.829 490.549C474.759 484.332 469.115 456.884 476.059 453.314C483.004 449.744 496.748 454.243 501.128 459.535C505.508 464.827 505.752 476.848 506.147 483.693C506.542 490.538 492.493 510.791 489.368 513.469Z" fill="#C1B28B"/>
<path d="M509.212 374.587C505.891 370.39 487.476 374.847 478.684 377.6C469.037 380.213 458.787 393.344 457.3 394.52C455.814 395.696 452.685 394.092 450.26 392.673C447.835 391.253 443.133 403.876 442.892 405.921C442.651 407.966 439.347 408.726 433.931 408.931C428.515 409.136 431.691 420.905 429.404 422.714C427.117 424.524 422.652 421.936 418.379 421.237C414.107 420.537 405.842 435.237 408.82 439.001C411.799 442.765 423.571 434.377 425.646 437.001C427.722 439.624 414.188 442.729 416.13 448.239C418.073 453.75 439.863 458.022 444.779 461.18C449.695 464.338 448.556 471.359 451.775 473.078C454.995 474.796 471.49 467.679 474.963 465.487C478.436 463.296 467.142 450.903 475.291 446.867C483.44 442.83 481.462 463.126 486.933 461.58C492.403 460.033 498.482 452.441 501.341 450.179C504.2 447.917 508.062 455.618 509.554 460.558C511.045 465.498 508.409 468.512 503.45 471.879C498.491 475.247 498.892 486.799 504.776 498.465C510.659 510.13 516.417 513.178 518.944 516.371C521.471 519.565 529.894 532.559 533.565 534.848C537.235 537.137 555.417 522.75 558.378 522.262C561.338 521.774 569.611 533.404 575.973 524.29C582.335 515.175 568.406 505.796 564.573 500.482C560.741 495.169 563.065 484.242 563.427 481.174C563.789 478.106 563.995 467.557 562.461 465.618C560.926 463.679 554.747 458.924 552.942 456.643C551.137 454.362 546.998 447.251 537.823 434.48C528.648 421.71 501.597 432.172 497.727 432.452C493.858 432.732 486.721 431.702 486.403 428.245C486.084 424.788 497.788 426.654 504.017 427.476C510.245 428.297 512.707 420.599 514.423 419.242C516.138 417.885 519.97 423.198 521.734 421.432C523.497 419.665 524.691 407.779 525.233 404.939C525.775 402.099 539.218 402.404 538.436 400.241C537.811 398.51 529.102 393.222 524.826 390.794C521.005 387.141 512.533 378.784 509.212 374.587Z" fill="#C1B28B"/>
<path d="M493.57 485.014C492.324 482.855 486.442 480.29 483.657 479.278C482.847 478.973 475.962 478.756 473.392 479.598C470.822 480.44 469.689 484.851 468.92 487.604C468.151 490.356 464.281 493.061 462.618 497.533C460.956 502.006 464.303 520.917 468.382 525.194C472.46 529.472 483.53 529.586 488.059 526.837C492.587 524.088 495.88 515.467 497.94 510.621C500 505.775 495.127 487.712 493.57 485.014Z" fill="#C1B28B"/>
<path d="M442.681 357.66C445.974 357.628 452.867 362.505 455.902 364.947C456.797 365.651 461.707 373.195 462.493 376.62C463.279 380.044 459.044 384.218 456.444 386.892C453.843 389.566 443.017 379.755 439.071 384.561C435.126 389.366 421.793 414.013 414.179 412.28C406.565 410.547 398.935 398.261 398.985 391.392C399.035 384.523 406.581 375.162 410.681 369.666C414.782 364.171 438.566 357.701 442.681 357.66Z" fill="#C1B28B"/>
<path d="M671.981 238.07C669.404 233.379 650.504 234.712 641.377 235.965C631.429 236.938 619.139 248.182 617.477 249.094C615.816 250.007 612.997 247.905 610.842 246.102C608.687 244.299 601.952 255.964 601.374 257.94C600.796 259.917 597.412 260.117 592.037 259.419C586.662 258.721 587.837 270.853 585.281 272.257C582.725 273.661 578.752 270.367 574.656 268.967C570.559 267.567 559.965 280.688 562.276 284.895C564.587 289.101 577.59 282.788 579.2 285.72C580.811 288.652 566.949 289.463 567.948 295.22C568.948 300.977 589.723 308.813 594.046 312.744C598.368 316.676 596.078 323.41 598.967 325.64C601.856 327.869 619.305 323.594 623.094 322.01C626.882 320.427 617.807 306.329 626.513 303.704C635.22 301.078 629.895 320.763 635.547 320.148C641.198 319.532 648.455 313.057 651.65 311.301C654.845 309.546 657.373 317.782 658.023 322.902C658.672 328.021 655.571 330.554 650.121 333.05C644.671 335.546 643.146 347.004 647.008 359.486C650.87 371.967 656.041 375.93 658.002 379.499C659.963 383.068 666.108 397.283 669.346 400.15C672.585 403.017 692.906 391.854 695.907 391.865C698.908 391.876 705.131 404.719 712.92 396.79C720.709 388.86 708.533 377.295 705.638 371.418C702.742 365.542 706.851 355.153 707.718 352.188C708.585 349.223 710.542 338.855 709.352 336.688C708.161 334.521 702.858 328.805 701.458 326.255C700.057 323.706 697.158 316.005 690.235 301.887C683.311 287.769 654.896 293.588 651.034 293.22C647.172 292.853 640.306 290.651 640.567 287.188C640.828 283.726 652.058 287.513 658.063 289.359C664.068 291.204 667.777 284.023 669.694 282.97C671.611 281.917 674.506 287.793 676.539 286.345C678.572 284.896 681.725 273.374 682.732 270.663C683.738 267.953 696.944 270.489 696.533 268.226C696.203 266.416 688.495 259.753 684.682 256.648C681.522 252.41 674.558 242.761 671.981 238.07Z" fill="#C1B28B"/>
<path d="M638.196 344.359C637.327 342.023 631.953 338.516 629.375 337.055C628.626 336.619 621.874 335.26 619.2 335.664C616.526 336.067 614.675 340.228 613.459 342.814C612.242 345.401 607.976 347.424 605.593 351.558C603.21 355.691 603.367 374.896 606.677 379.792C609.987 384.688 620.885 386.642 625.807 384.684C630.73 382.726 635.41 374.773 638.247 370.336C641.084 365.9 639.283 347.279 638.196 344.359Z" fill="#C1B28B"/>
<path d="M609.192 210.317C612.444 210.833 618.43 216.788 621.016 219.701C621.782 220.544 625.369 228.799 625.575 232.307C625.78 235.815 620.911 239.226 617.902 241.431C614.893 243.635 605.848 232.161 601.159 236.243C596.47 240.326 579.224 262.413 572.004 259.438C564.784 256.463 559.304 243.079 560.495 236.314C561.687 229.549 570.684 221.573 575.641 216.836C580.598 212.098 605.127 209.673 609.192 210.317Z" fill="#C1B28B"/>
<path d="M597.178 290.021C602.528 290.145 610.855 273.126 614.349 264.601C618.497 255.507 614.934 239.235 614.978 237.34C615.022 235.445 618.254 234.061 620.895 233.101C623.536 232.141 616.823 220.463 615.402 218.971C613.982 217.48 615.506 214.452 618.806 210.153C622.106 205.853 611.021 200.784 611.088 197.868C611.156 194.953 615.998 193.168 619.264 190.327C622.53 187.485 616.492 171.739 611.694 171.628C606.896 171.517 605.836 185.933 602.491 185.856C599.147 185.778 605.398 173.379 599.916 171.356C594.435 169.334 577.235 183.376 571.666 185.144C566.097 186.912 561.42 181.553 558.042 182.933C554.664 184.314 549.611 201.555 549.08 205.626C548.55 209.698 565.298 208.918 563.203 217.767C561.107 226.616 546.748 212.136 544.446 217.334C542.143 222.532 544.106 232.058 544.022 235.702C543.937 239.347 535.544 237.403 530.79 235.397C526.035 233.391 525.399 229.438 525.973 223.471C526.548 217.504 517.4 210.438 504.665 207.518C491.93 204.599 485.908 207.085 481.837 206.992C477.765 206.898 462.386 205.084 458.281 206.448C454.177 207.812 453.642 230.991 452.127 233.581C450.612 236.172 436.38 235.114 439.333 245.83C442.286 256.545 458.398 251.812 464.935 252.255C471.471 252.697 478.397 261.463 480.528 263.7C482.658 265.937 490.646 272.831 493.118 272.888C495.59 272.945 503.195 271.224 506.103 271.291C509.011 271.359 517.126 272.713 532.813 273.804C548.5 274.895 557.718 247.395 559.973 244.238C562.228 241.081 567.577 236.246 570.441 238.208C573.306 240.17 564.396 247.987 559.788 252.256C555.179 256.526 559.532 263.335 559.482 265.522C559.431 267.709 552.895 267.266 553.128 269.751C553.362 272.236 561.749 280.744 563.589 282.974C565.429 285.204 556.611 295.357 558.775 296.136C560.507 296.759 570.136 293.432 574.735 291.691C579.986 291.083 591.827 289.898 597.178 290.021Z" fill="#C1B28B"/>
<path d="M522.172 207.482C524.629 207.901 530.358 205.011 532.916 203.514C533.668 203.085 538.23 197.925 539.223 195.409C540.215 192.893 537.544 189.205 535.916 186.856C534.289 184.506 534.678 179.8 532.297 175.666C529.916 171.531 513.223 162.034 507.327 162.442C501.432 162.85 494.275 171.298 493.5 176.538C492.725 181.779 497.259 189.817 499.673 194.496C502.088 199.176 519.101 206.957 522.172 207.482Z" fill="#C1B28B"/>
<path d="M652.682 249.621C650.605 252.176 642.45 254.368 638.633 255.144C637.52 255.384 628.579 254.347 625.441 252.765C622.303 251.184 621.794 245.26 621.396 241.551C620.998 237.842 635.461 235.773 634.282 229.669C633.102 223.564 622.644 197.566 628.839 192.812C635.034 188.059 649.361 190.03 654.616 194.454C659.871 198.878 662.259 210.662 663.871 217.327C665.483 223.991 655.278 246.428 652.682 249.621Z" fill="#C1B28B"/>
<path d="M414.111 114.603C409.019 116.25 406.768 135.062 406.279 144.263C405.36 154.215 414.087 168.404 414.67 170.207C415.254 172.011 412.658 174.383 410.481 176.16C408.305 177.937 418.492 186.749 420.325 187.689C422.157 188.629 421.716 191.99 420.018 197.137C418.319 202.284 430.456 203.416 431.353 206.191C432.251 208.966 428.267 212.246 426.121 216.006C423.974 219.765 434.864 232.641 439.431 231.164C443.997 229.687 440.247 215.728 443.429 214.699C446.612 213.669 444.798 227.436 450.64 227.539C456.482 227.642 468.092 208.714 472.767 205.21C477.442 201.705 483.624 205.223 486.358 202.806C489.092 200.389 488.18 182.446 487.339 178.427C486.498 174.408 470.943 180.666 470.004 171.62C469.066 162.575 487.395 171.513 487.856 165.846C488.316 160.18 483.323 151.834 482.201 148.365C481.079 144.896 489.644 143.965 494.794 144.292C499.944 144.619 501.848 148.141 503.272 153.963C504.697 159.786 515.663 163.442 528.648 162.001C541.634 160.56 546.5 156.227 550.374 154.974C554.249 153.721 569.367 150.364 572.793 147.723C576.219 145.082 569.083 123.022 569.659 120.077C570.236 117.132 584.021 113.44 577.701 104.296C571.381 95.1527 557.729 104.932 551.412 106.669C545.095 108.406 535.667 102.413 532.918 101.003C530.169 99.5934 520.355 95.7178 518.003 96.4787C515.65 97.2396 509.038 101.371 506.27 102.266C503.503 103.161 495.394 104.558 480.224 108.698C465.055 112.838 465.416 141.84 464.328 145.564C463.239 149.287 459.783 155.616 456.432 154.707C453.081 153.799 458.916 143.483 461.86 137.933C464.803 132.383 458.449 127.388 457.776 125.307C457.103 123.226 463.42 121.49 462.38 119.22C461.341 116.951 450.618 111.684 448.146 110.185C445.674 108.685 450.652 96.1938 448.352 96.1715C446.512 96.1536 438.517 102.469 434.749 105.629C429.992 107.934 419.204 112.956 414.111 114.603Z" fill="#C1B28B"/>
<path d="M512.133 167.806C509.675 168.22 505.218 172.837 503.297 175.094C502.728 175.747 500.122 182.122 500.014 184.825C499.906 187.527 503.644 190.129 505.955 191.81C508.266 193.492 509.45 198.063 513.061 201.182C516.671 204.301 535.562 207.765 540.994 205.436C546.426 203.108 550.397 192.773 549.401 187.57C548.406 182.367 541.477 176.272 537.654 172.65C533.832 169.028 515.205 167.289 512.133 167.806Z" fill="#C1B28B"/>
<path d="M375.027 171.04C376.146 167.943 383.122 163.186 386.47 161.195C387.442 160.601 396.225 158.633 399.709 159.092C403.193 159.551 405.626 164.976 407.224 168.347C408.822 171.717 395.849 178.438 398.975 183.812C402.101 189.187 420.544 210.285 416.262 216.815C411.981 223.345 397.804 226.206 391.384 223.761C384.965 221.317 378.827 210.978 375.108 205.218C371.389 199.457 373.628 174.91 375.027 171.04Z" fill="#C1B28B"/>
<path d="M407.619 139.473C407.619 134.121 390.413 126.189 381.809 122.893C372.623 118.955 356.437 122.893 354.541 122.893C352.646 122.893 351.187 119.693 350.167 117.075C349.146 114.457 337.626 121.438 336.168 122.893C334.71 124.347 331.648 122.893 327.273 119.693C322.899 116.493 318.087 127.692 315.17 127.692C312.254 127.692 310.358 122.893 307.442 119.693C304.525 116.493 288.923 122.893 288.923 127.692C288.923 132.492 303.359 133.219 303.359 136.564C303.359 139.909 290.818 133.946 288.923 139.473C287.027 145 301.463 161.871 303.359 167.398C305.254 172.925 300.005 177.724 301.463 181.069C302.921 184.414 320.274 189.069 324.357 189.505C328.44 189.941 327.273 173.215 336.168 175.106C345.063 176.997 330.919 191.686 336.168 193.868C341.418 196.05 350.896 193.868 354.541 193.868C358.187 193.868 356.437 202.304 354.541 207.103C352.646 211.903 348.708 212.63 342.73 212.194C336.751 211.757 329.898 221.066 327.273 233.865C324.648 246.663 327.273 252.627 327.273 256.699C327.273 260.771 325.815 276.188 327.273 280.26C328.731 284.333 351.917 284.333 354.541 285.787C357.166 287.242 356.437 301.495 367.082 298.295C377.726 295.095 372.623 279.097 372.914 272.552C373.206 266.007 381.809 258.881 383.997 256.699C386.184 254.517 392.892 246.373 392.892 243.9C392.892 241.428 390.996 233.865 390.996 230.956C390.996 228.047 392.163 219.902 392.892 204.194C393.621 188.487 365.915 179.906 362.707 177.724C359.499 175.542 354.541 170.307 356.437 167.398C358.333 164.489 366.353 173.215 370.727 177.724C375.102 182.233 381.809 177.724 383.997 177.724C386.184 177.724 385.892 184.269 388.371 183.978C390.85 183.687 399.162 175.106 401.349 173.215C403.536 171.325 413.89 179.906 414.619 177.724C415.202 175.979 411.654 166.428 409.807 161.871C409.078 156.635 407.619 144.825 407.619 139.473Z" fill="#C1B28B"/>
<path d="M316.348 302.745C321.025 305.348 336.323 294.17 343.388 288.256C351.295 282.143 355.726 266.086 356.648 264.429C357.57 262.773 361.075 263.055 363.859 263.436C366.643 263.817 366.144 250.356 365.583 248.375C365.021 246.393 367.781 244.425 372.704 242.158C377.627 239.892 370.182 230.241 371.6 227.693C373.018 225.145 378.134 225.822 382.348 224.83C386.562 223.838 388.558 207.092 384.364 204.758C380.17 202.424 372.515 214.685 369.592 213.058C366.669 211.431 377.978 203.373 374.07 199.029C370.163 194.685 348.401 199.095 342.65 198.064C336.898 197.032 335.257 190.111 331.625 189.759C327.993 189.406 315.488 202.305 313.121 205.661C310.754 209.016 325.937 216.131 319.959 222.983C313.981 229.836 308.024 210.334 303.565 213.86C299.106 217.386 296.403 226.729 294.63 229.914C292.857 233.099 286.337 227.468 283.065 223.478C279.793 219.487 281.072 215.693 284.361 210.682C287.65 205.67 282.849 195.155 272.942 186.637C263.035 178.12 256.548 177.513 252.989 175.533C249.431 173.552 236.669 164.781 232.401 164.075C228.134 163.369 216.859 183.628 214.312 185.214C211.764 186.8 199.665 179.232 197.284 190.089C194.903 200.946 211.365 204.267 216.942 207.705C222.519 211.142 224.562 222.125 225.405 225.097C226.247 228.07 230.102 237.892 232.263 239.094C234.423 240.296 241.954 242.318 244.495 243.732C247.037 245.147 253.587 250.127 266.957 258.403C280.328 266.678 301.299 246.642 304.766 244.9C308.232 243.158 315.218 241.372 316.838 244.443C318.458 247.514 306.932 250.278 300.865 251.908C294.798 253.538 295.476 261.591 294.412 263.503C293.349 265.414 287.772 261.976 286.82 264.284C285.869 266.591 289.325 278.027 289.914 280.858C290.502 283.688 277.969 288.562 279.521 290.26C280.762 291.618 290.833 293.162 295.714 293.765C300.643 295.674 311.672 300.143 316.348 302.745Z" fill="#C1B28B"/>
<path d="M165.034 341.071C162.335 341.115 158.828 334.248 159.69 330.146C169.092 321.833 207.572 325.057 225.238 328.906L237.649 337.388C236.397 338.406 232.777 340.683 228.315 341.645C222.737 342.847 186.107 340.722 165.034 341.071Z" fill="#FAE576"/>
<path d="M159.9 332.838C162.88 333.332 200.496 326.997 228.905 332.837L225.351 343.566C205.743 343.014 166.031 341.744 164.042 341.081C162.054 340.418 159.071 334.453 159.9 332.838Z" fill="#F6D213"/>
<path d="M287.494 307.95C289.347 305.217 286.851 295.307 285.371 290.693L279.457 285.544C268.548 294.488 243.016 316.214 228.162 331.566C213.307 346.918 166.462 388.87 144.896 407.928L145.403 418.531L151.985 430.262L217.809 367.014C240.265 348.465 285.64 310.684 287.494 307.95Z" fill="#FAE576"/>
<path d="M234.625 333.383C227.467 341.754 171.607 395.402 146.229 419.522L151.614 430.558C173.155 409.57 217.065 367.095 220.379 365.107C223.693 363.119 268.708 324.511 290.801 305.456L284.592 290.606L284.168 290.947C271.867 300.841 241.7 325.108 234.625 333.383Z" fill="#F6D213"/>
<circle cx="462.299" cy="336.939" r="178.955" fill="#E8E8E8"/>
<circle cx="462.3" cy="335.281" r="102.696" fill="#CFCFCF"/>
<path d="M372.981 270.118C338.126 284.591 310.881 340.161 301.616 366.137C302.004 368.211 303.494 373.298 306.345 377.057C309.196 380.817 316.758 377.253 320.182 375.002L349.141 324.764C363.465 312.42 394.705 286.387 405.075 281.01C415.445 275.632 463.502 262.013 486.233 255.875L496.88 239.658L469.401 244.807C451.784 247.213 407.836 255.645 372.981 270.118Z" fill="#FAE576"/>
<path d="M388.502 274.187C410.719 264.442 458.615 254.073 479.786 250.106L496.269 240.833L488.813 255.746L417.562 274.187C417.562 274.187 370.982 298.801 350.454 324.51C335.917 342.717 323.942 373.392 321.457 375.877C318.972 378.363 308.201 378.362 308.201 378.362L313.8 363.854C313.99 363.54 314.183 363.222 314.379 362.9C330.337 336.717 366.555 283.812 388.502 274.187Z" fill="#F6D213"/>
<path d="M407.278 287.037C396.234 293.4 367.373 331.365 354.322 349.553C352.028 343.99 347.902 331.328 349.757 325.185C352.074 317.505 382.684 284.668 398.093 276.683C410.42 270.294 466.872 258.519 493.557 253.429L492.341 264.122C468.588 269.109 418.322 280.674 407.278 287.037Z" fill="#F6D213"/>
<path d="M567.048 246.1C569.679 244.104 570.49 233.917 570.566 229.072L566.614 222.299C553.414 227.277 522.267 239.678 503.277 249.462C484.287 259.245 426.471 283.978 399.936 295.121L397.018 305.328L399.496 318.549L482.114 279.724C509.329 269.347 564.417 248.096 567.048 246.1Z" fill="#FAE576"/>
<path d="M508.818 253.253C499.356 258.89 433.453 289.736 401.685 304.453L396.848 304.453L400.162 317.883L490.468 277.287L569.175 244.976L570.832 230.286L564.086 230.286C549.606 235.593 518.281 247.616 508.818 253.253Z" fill="#F6D213"/>
<path d="M361.678 344.418C349.713 355.032 353.514 369.114 356.911 374.828C371.224 363.381 403.042 338.331 415.81 329.714C428.578 321.096 483.133 292.323 508.815 279.014L489.066 273.859C488.01 274.185 485.731 274.983 482.025 276.384C475.34 278.912 464.013 283.403 446.858 290.623C413.529 304.649 376.634 331.15 361.678 344.418Z" fill="#FAE576"/>
<path d="M413.334 316.493C401.979 321.196 371.497 346.693 357.675 358.853C356.925 359.833 353.767 362.621 353.767 365.935C353.767 369.249 356.925 372.839 357.675 374.22C376.532 358.755 415.738 328.819 421.704 326.167C427.669 323.516 481.079 291.923 506.21 278.115L487.983 273.972L480.706 277.212C462.027 288.915 424.421 311.9 413.334 316.493Z" fill="#F6D213"/>
<path d="M360.175 310.621C355.338 320.501 372.687 323.93 376.878 323.86C386.82 316.201 388.435 278.135 388 260.059L377.536 240.016C376.3 241.052 373.379 244.176 371.589 248.375C369.353 253.624 365.32 300.114 360.175 310.621Z" fill="#FAE576"/>
<path d="M378.014 311.304C378.092 308.284 379.736 273.235 380.549 256.089L378.014 242.49L389.392 261.546L384.421 304.627C383.975 307.389 384.233 315.398 382.205 318.712C380.768 321.062 377.594 322.717 376.461 323.679L376.357 324.511C375.875 324.35 375.997 324.073 376.461 323.679L378.014 311.304Z" fill="#F6D213"/>
<path d="M423.776 249.062C409.829 249.1 366.012 244.859 345.846 242.734C348.11 238.106 354.516 228.283 362.034 226.015C371.431 223.181 420.91 233.768 448.421 234.516C470.429 235.115 491.301 241.867 498.985 245.168L478.619 252.472C466.149 251.32 437.723 249.025 423.776 249.062Z" fill="#FAE576"/>
<path d="M446.33 244.836C440.99 244.978 385.002 238.796 357.675 235.687L351.281 234.205L345.482 242.49L413.418 249.592L479.698 253.26L485.497 249.946L475.623 247.935C468.084 246.843 451.671 244.694 446.33 244.836Z" fill="#F6D213"/>
<path d="M378.049 291.44C378.165 298.932 390.386 313.369 396.483 319.65C397.764 312.165 400.31 295.964 400.245 291.038C400.165 284.882 414.606 250.244 418.77 243.829C422.935 237.413 447.275 196.896 446.595 193.266L444.021 179.527C439.662 183.474 428.579 192.778 419.116 198.415C407.288 205.461 377.904 282.076 378.049 291.44Z" fill="#FAE576"/>
<path d="M438.146 258.445C440.506 251.563 454.599 236.937 461.35 230.484C464.119 245.26 451.705 270.663 448.82 278.18C446.512 284.194 436.471 303.929 431.739 313.044L410.418 309.526C410.818 307.841 411.848 303.408 412.768 299.157C413.919 293.843 422.54 286.861 426.007 282.455C429.475 278.048 435.196 267.048 438.146 258.445Z" fill="#FAE576"/>
<path d="M425.629 326.264L428.398 341.041C432.805 340.215 540.715 288.869 544.183 284.463C547.651 280.056 551.395 269.963 548.641 266.722C545.887 263.482 517.274 272.6 513.126 273.377C508.978 274.154 488.011 288.279 481.87 291.308C475.729 294.337 455.654 303.197 447.132 306.404C438.609 309.611 425.143 323.672 425.629 326.264Z" fill="#FAE576"/>
<path d="M415.125 232.973C417.317 226.337 433.734 201.49 441.669 189.896L444.072 185.324L446.557 194.437C437.202 210.731 419.474 242.821 416.782 247.461C413.418 253.261 400.99 285.572 400.99 289.714C400.99 293.028 398.781 313.188 397.676 321.197L389.391 312.084C392.705 301.865 396.516 279.607 398.504 272.316C400.493 265.025 402.564 261.638 403.35 260.855C405.258 254.326 412.934 239.609 415.125 232.973Z" fill="#F6D213"/>
<path d="M431.172 300.002C430.135 303.631 431.542 311.023 431.548 313.437C437.25 313.437 435.787 303.798 448.214 278.943C458.032 259.309 462.298 238.347 462.298 229.234L456.228 235.643C454.898 242.868 451.779 261.901 449.938 266.969C447.636 273.303 432.469 295.465 431.172 300.002Z" fill="#F6D213"/>
<path d="M515.797 287.635C506.555 292.157 451.344 315.769 425.722 327.01L427.503 341.909C444.901 333.9 483.177 315.397 490.468 312.083C497.759 308.769 528.303 294.133 542.663 286.4C542.663 287.364 545.172 285.565 548.58 277.287C551.988 269.008 548.343 267.367 546.923 267.581C540.399 272.381 525.039 283.112 515.797 287.635Z" fill="#F6D213"/>
<path d="M410.933 308.769L411.761 299.656L428.331 299.656L429.989 299.656L431.645 299.656L431.645 313.74L410.933 308.769Z" fill="#F6D213"/>
</svg>
