<svg width="645" height="588" fill="none" xmlns="http://www.w3.org/2000/svg"><path d="M641.919 152.42v418.695c0 2.166-1.386 4.089-3.464 4.704C625.126 579.762 598.073 586 573.244 586c-24.74 0-50.35-6.193-62.877-10.139-2.028-.638-3.367-2.537-3.367-4.662v-418.82a5.001 5.001 0 013.426-4.746l61.272-20.32a5.004 5.004 0 013.097-.016l63.648 20.36a5 5 0 013.476 4.763z" fill="#fff" stroke="#D9D9D9" stroke-width="4" stroke-linejoin="round"/><path d="M518.547 79.112c-3.455 7.615-7.804 42.284-10.579 63.457-.458 3.497 2.729 6.348 6.16 5.529 13.487-3.218 36.619-8.075 60.332-7.366 24.674.737 49.319 4.699 62.175 7.043 2.862.522 5.573-1.463 5.671-4.37.593-17.428-4.003-48.51-24.089-64.293-21.141-16.614-64.224-22.725-86.328-23.948-2.164-.12-4.116 1.213-4.88 3.24-2.033 5.396-5.351 13.852-8.462 20.708z" fill="#fff" stroke="#D9D9D9" stroke-width="4" stroke-linejoin="round"/><ellipse cx="524.018" cy="99.472" rx="3.646" ry="5.358" fill="#fff" stroke="#D9D9D9" stroke-width="4" stroke-linejoin="round"/><path d="M479.872 74.366c10.033 0 22.425 7.135 27.925 11.08.385.277.798.5 1.238.674 4.636 1.84 12.48 6.172 11.337 10.746-1.5 6-17.5 14.5-28.5 14.5h-23.151c-.885 0-1.748.237-2.523.665-4.45 2.453-12.718 6.335-17.826 6.335h-21.757c-.496 0-.98.073-1.454.215-6.052 1.821-18.11 5.121-24.515 5.723a5.8 5.8 0 00-1.495.337c-23.446 8.784-65.175 7.16-83.279 5.225h-39.549c-2.08 0-3.928 1.291-4.746 3.202-3.456 8.069-10.068 20.352-16.705 22.798-6.955 2.562-30.072 6.157-43.526 8.026-2.088.29-3.721 1.873-4.45 3.851-4.276 11.596-15.844 14.501-24.05 14.461-2.554-.013-4.959 1.532-5.818 3.937-4.463 12.488-15.636 31.368-34.156 31.725-20.201.388-42.981-5.795-52.673-9.205a5.452 5.452 0 00-1.702-.305c-6.259-.129-19.327-1.622-27.997-6.856-9.097-5.492-22.457-17.622-28-23-10.556-12.831-11.989-25.956-11.746-36.129.044-1.85-.893-3.573-2.345-4.721C11.099 131.868 1.95 118.558 2 96.866c.018-8.01 1.29-17.162 4.372-27.5 5.247-12.997 25.236-40.496 63.585-48.138 1.223-.244 2.317-.924 3.197-1.807 5.359-5.38 20.496-14.502 48.218-17.055 29.966-2.76 62.07 10.771 74.953 18.182.372.214.748.374 1.161.49C208.615 24.175 231.54 31.181 239 35.5c7.6 4.4 25.748 14.41 33.872 18.866 12 7 42.5 5.5 63 6 16.137.393 48.443 9.21 63.289 13.78.48.148.963.22 1.465.22H432c8.774 0 19.92 2.31 26.094 3.888 1.448.37 2.986.103 4.34-.527 3.267-1.52 9.288-3.361 17.438-3.361z" fill="#fff" stroke="#D9D9D9" stroke-width="4" stroke-linejoin="round"/></svg>