<svg width="633" height="581" viewBox="0 0 633 581" fill="none" xmlns="http://www.w3.org/2000/svg">
<path d="M631.919 143.769V569.748C620.372 573.498 590.471 581 563.244 581C536.017 581 507.737 573.498 497 569.748V143.769L563.244 121.8L631.919 143.769Z" fill="#BF66CE"/>
<path d="M508.547 74.112C504.658 82.6852 499.634 125.551 497 144.841C507.939 142.161 535.774 134.874 564.46 135.732C593.145 136.589 621.79 141.804 631.919 143.769C633.743 128.23 630.582 91.687 608.217 74.112C585.852 56.537 538.934 50.7144 518.271 50C516.65 54.4652 512.437 65.5388 508.547 74.112Z" fill="#AF3EC1"/>
<ellipse cx="514.017" cy="94.4738" rx="7.29293" ry="10.7164" fill="#585858"/>
<ellipse cx="514.017" cy="94.473" rx="3.64647" ry="5.35822" fill="#404040"/>
<path d="M562.782 233.598C586.703 234.553 618.598 257.08 631.555 268.224V375.086C627.767 367.922 617.322 351.087 605.84 341.057C591.487 328.52 542.45 306.432 523.911 283.746C509.08 265.597 499.791 229.22 497 213.3C508.961 219.668 538.862 232.643 562.782 233.598Z" fill="#CF8BDA"/>
<path d="M477.872 72.3657C488.272 72.3657 501.205 80.0323 506.372 83.8657C510.872 85.5323 519.572 90.0656 518.372 94.8656C516.872 100.866 500.872 109.366 489.872 109.366H465.372C461.372 111.699 451.972 116.366 446.372 116.366H423.872C417.872 118.199 404.272 121.966 397.872 122.366C374.569 131.458 332.163 129.821 313.872 127.866H270.872C268.039 135.366 260.472 151.066 252.872 153.866C245.272 156.666 218.372 160.699 205.872 162.366C202.17 179.458 184.663 181.154 176.372 179.866C173.205 191.699 161.672 215.466 140.872 215.866C120.072 216.266 96.5387 209.699 87.3721 206.366C81.5387 206.366 67.5975 204.992 58.5 199.5C49.4025 194.008 36.0427 181.878 30.5 176.5C18.8719 162.366 18.314 147.873 18.8719 137.366C11.357 132.857 -0.0545526 119.086 0.000196324 94.8656C0.0183014 86.8561 1.29033 77.7037 4.37188 67.3657C9.70521 54.1542 30.2719 25.9582 69.8719 18.8657C73.7052 13.8657 88.9719 3.16567 119.372 0.36567C149.772 -2.43433 182.372 11.5323 194.872 18.8657C205.748 21.9104 229.4 29.1 237 33.5C244.6 37.9 262.748 47.9104 270.872 52.3657C282.872 59.3657 313.372 57.8657 333.872 58.3657C350.272 58.7657 383.372 67.8657 397.872 72.3657H430C440 72.3657 453.081 75.3657 458.372 76.8657C460.539 75.3657 467.472 72.3657 477.872 72.3657Z" fill="#BF66CE" fill-opacity="0.3"/>
</svg>
