<svg width="646" height="590" viewBox="0 0 646 590" fill="none" xmlns="http://www.w3.org/2000/svg">
<path d="M642.927 153.42V572.115C642.927 574.281 641.54 576.204 639.463 576.819C626.133 580.762 599.081 587 574.252 587C549.512 587 523.902 580.807 511.375 576.861C509.347 576.223 508.008 574.324 508.008 572.199V153.379C508.008 151.224 509.389 149.312 511.434 148.633L572.706 128.313C573.711 127.98 574.795 127.975 575.803 128.297L639.451 148.657C641.522 149.32 642.927 151.245 642.927 153.42Z" fill="white" stroke="#D9D9D9" stroke-width="5" stroke-linejoin="round"/>
<path d="M519.555 80.112C516.1 87.7268 511.75 122.396 508.976 143.569C508.517 147.066 511.705 149.917 515.136 149.098C528.623 145.88 551.754 141.023 575.467 141.732C600.142 142.469 624.787 146.431 637.643 148.775C640.504 149.297 643.215 147.312 643.314 144.405C643.907 126.977 639.31 95.8956 619.225 80.112C598.083 63.4983 555.001 57.3865 532.897 56.1642C530.733 56.0445 528.781 57.3767 528.017 59.4047C525.983 64.8003 522.666 73.2558 519.555 80.112Z" fill="white" stroke="#D9D9D9" stroke-width="5" stroke-linejoin="round"/>
<ellipse cx="525.021" cy="100.473" rx="3.64647" ry="5.35822" fill="white" stroke="#D9D9D9" stroke-width="5" stroke-linejoin="round"/>
<path d="M480.872 75.3657C490.905 75.3657 503.297 82.5015 508.797 86.4466C509.182 86.7226 509.595 86.9457 510.035 87.1204C514.671 88.9606 522.515 93.2921 521.372 97.8656C519.872 103.866 503.872 112.366 492.872 112.366H469.721C468.836 112.366 467.973 112.603 467.198 113.031C462.748 115.484 454.48 119.366 449.372 119.366H427.615C427.119 119.366 426.635 119.439 426.161 119.581C420.109 121.402 408.051 124.702 401.646 125.304C401.131 125.353 400.635 125.46 400.151 125.641C376.705 134.425 334.976 132.801 316.872 130.866H277.323C275.243 130.866 273.395 132.157 272.577 134.068C269.121 142.137 262.509 154.42 255.872 156.866C248.917 159.428 225.8 163.023 212.346 164.892C210.258 165.182 208.625 166.765 207.896 168.743C203.62 180.339 192.052 183.244 183.846 183.204C181.292 183.191 178.887 184.736 178.028 187.141C173.565 199.629 162.392 218.509 143.872 218.866C123.671 219.254 100.891 213.071 91.1987 209.661C90.6489 209.468 90.0794 209.368 89.4968 209.356C83.2383 209.227 70.1697 207.734 61.5 202.5C52.4025 197.008 39.0427 184.878 33.5 179.5C22.9444 166.669 21.5111 153.544 21.7538 143.371C21.798 141.521 20.8607 139.798 19.4088 138.65C12.0997 132.868 2.95116 119.558 3.0002 97.8656C3.0183 89.8561 4.29033 80.7037 7.37188 70.3657C12.6186 57.3688 32.6078 29.8702 70.9572 22.2278C72.1799 21.9842 73.274 21.3039 74.1539 20.4207C79.5128 15.0416 94.6502 5.91898 122.372 3.36567C152.338 0.605618 184.442 14.1372 197.325 21.5478C197.697 21.7622 198.073 21.9217 198.486 22.0383C209.615 25.1747 232.54 32.1811 240 36.5C247.6 40.9 265.748 50.9104 273.872 55.3657C285.872 62.3657 316.372 60.8657 336.872 61.3657C353.009 61.7593 385.315 70.5762 400.161 75.1458C400.641 75.2937 401.124 75.3657 401.626 75.3657H433C441.774 75.3657 452.92 77.6751 459.094 79.2545C460.542 79.6248 462.08 79.3569 463.434 78.727C466.701 77.2079 472.722 75.3657 480.872 75.3657Z" fill="white" stroke="#D9D9D9" stroke-width="5" stroke-linejoin="round"/>
</svg>
