<svg width="429" height="442" viewBox="0 0 429 442" fill="none" xmlns="http://www.w3.org/2000/svg">
<path d="M3 7.99999C3 5.23857 5.23858 3 8 3H421C423.761 3 426 5.23858 426 8V434C426 436.761 423.761 439 421 439H7.99999C5.23857 439 3 436.761 3 434V7.99999Z" fill="white" stroke="#D9D9D9" stroke-width="5" stroke-linejoin="round"/>
<rect x="44" y="35" width="307" height="371" rx="70" fill="white" stroke="#D9D9D9" stroke-width="5" stroke-linejoin="round"/>
<rect x="79" y="74" width="262" height="323" rx="70" fill="white" stroke="#D9D9D9" stroke-width="5" stroke-linejoin="round"/>
<circle cx="255" cy="251" r="20" fill="white" stroke="#D9D9D9" stroke-width="5" stroke-linejoin="round"/>
<circle cx="255" cy="251" r="3" fill="white" stroke="#D9D9D9" stroke-width="5" stroke-linejoin="round"/>
<circle cx="255" cy="239" r="3" fill="white" stroke="#D9D9D9" stroke-width="5" stroke-linejoin="round"/>
<circle cx="267" cy="251" r="3" fill="white" stroke="#D9D9D9" stroke-width="5" stroke-linejoin="round"/>
<circle cx="255" cy="263" r="3" fill="white" stroke="#D9D9D9" stroke-width="5" stroke-linejoin="round"/>
<circle cx="243" cy="251" r="3" fill="white" stroke="#D9D9D9" stroke-width="5" stroke-linejoin="round"/>
<path d="M320.5 69.4999C310.5 79.4999 296.167 95.8333 270 123C267.569 125.523 256.259 125.73 250 123C248.129 122.184 247.335 120.768 246.73 119.415C245.674 117.056 244.137 113.945 245.4 111.69C246.595 109.555 248.788 106.946 253 102.5C262 93 350 12.4999 365 9.99992C376.802 8.03288 382.156 22.0265 383.439 29.6236C383.482 29.8773 383.5 30.1292 383.5 30.3865V49.8394C383.5 52.006 381.3 56.4394 372.5 56.8394C364.276 57.2132 360.069 51.5024 358.738 48.0325C358.563 47.5782 358.5 47.0921 358.5 46.6055V40.7848C358.5 40.5954 358.479 40.4067 358.438 40.2218C358.013 38.3095 355.71 37.5369 354.229 38.8194C345.05 46.7696 329.33 60.6692 320.5 69.4999Z" fill="white" stroke="#D9D9D9" stroke-width="5" stroke-linejoin="round"/>
<path d="M355.5 39.3398L367.5 29.3398" stroke="#D9D9D9" stroke-width="5" stroke-linejoin="round"/>
<path d="M270 124V130.5C267.333 132.167 257 135.5 252 133C247 130.5 245.333 128.167 244 124V114C245.667 117.333 250.954 121.475 255.5 124C260 126.5 267 124 270 124Z" fill="white" stroke="#D9D9D9" stroke-width="5" stroke-linejoin="round"/>
</svg>
