<svg width="427" height="440" fill="none" xmlns="http://www.w3.org/2000/svg"><path d="M2 7a5 5 0 015-5h413a5 5 0 015 5v426a5 5 0 01-5 5H7a5 5 0 01-5-5V7z" fill="#fff" stroke="#D9D9D9" stroke-width="3" stroke-linejoin="round"/><rect x="43" y="34" width="307" height="371" rx="70" fill="#fff" stroke="#D9D9D9" stroke-width="3" stroke-linejoin="round"/><rect x="78" y="73" width="262" height="323" rx="70" fill="#fff" stroke="#D9D9D9" stroke-width="3" stroke-linejoin="round"/><circle cx="254" cy="250" r="20" fill="#fff" stroke="#D9D9D9" stroke-width="3" stroke-linejoin="round"/><circle cx="254" cy="250" r="3" fill="#fff" stroke="#D9D9D9" stroke-width="3" stroke-linejoin="round"/><circle cx="254" cy="238" r="3" fill="#fff" stroke="#D9D9D9" stroke-width="3" stroke-linejoin="round"/><circle cx="266" cy="250" r="3" fill="#fff" stroke="#D9D9D9" stroke-width="3" stroke-linejoin="round"/><circle cx="254" cy="262" r="3" fill="#fff" stroke="#D9D9D9" stroke-width="3" stroke-linejoin="round"/><circle cx="242" cy="250" r="3" fill="#fff" stroke="#D9D9D9" stroke-width="3" stroke-linejoin="round"/><path d="M319.5 68.5c-10 10-24.333 26.333-50.5 53.5-2.431 2.523-13.741 2.73-20 0-1.871-.816-2.665-2.232-3.27-3.585-1.056-2.359-2.593-5.47-1.33-7.725 1.195-2.135 3.388-4.744 7.6-9.19 9-9.5 97-90 112-92.5 11.802-1.967 17.156 12.026 18.439 19.624.043.253.061.505.061.763v19.452c0 2.167-2.2 6.6-11 7-8.224.374-12.431-5.337-13.762-8.806-.175-.455-.238-.94-.238-1.428v-5.82a2.6 2.6 0 00-.062-.563c-.425-1.913-2.728-2.685-4.209-1.403-9.179 7.95-24.899 21.85-33.729 30.68z" fill="#fff" stroke="#D9D9D9" stroke-width="3" stroke-linejoin="round"/><path d="M354.5 38.34l12-10" stroke="#D9D9D9" stroke-width="3" stroke-linejoin="round"/><path d="M269 123v6.5c-2.667 1.667-13 5-18 2.5s-6.667-4.833-8-9v-10c1.667 3.333 6.954 7.475 11.5 10 4.5 2.5 11.5 0 14.5 0z" fill="#fff" stroke="#D9D9D9" stroke-width="3" stroke-linejoin="round"/></svg>