<svg width="895" height="523" viewBox="0 0 895 523" fill="none" xmlns="http://www.w3.org/2000/svg">
<rect y="43" width="868" height="436" fill="#8C8C8C"/>
<rect x="19" y="57" width="830" height="408" rx="41" fill="#A7A7A7"/>
<rect x="41" y="76" width="307" height="371" rx="78" fill="#7A7A7A"/>
<rect x="76" y="115" width="262" height="323" rx="68" fill="#B4B4B4"/>
<path d="M205.728 159.467C205.201 156.474 194.797 153.732 189.661 152.736C184.136 151.438 175.472 155.233 174.412 155.42C173.352 155.607 172.221 153.961 171.392 152.597C170.564 151.234 164.809 156.272 164.136 157.229C163.464 158.186 161.608 157.674 158.847 156.315C156.085 154.956 154.497 161.693 152.866 161.98C151.235 162.267 149.702 159.77 147.756 158.267C145.81 156.765 137.714 161.88 138.187 164.564C138.659 167.248 146.804 166.234 147.134 168.105C147.463 169.975 139.863 167.875 139.346 171.152C138.83 174.43 148.565 182.444 150.169 185.348C151.773 188.253 149.31 191.454 150.455 193.181C151.6 194.908 161.762 195.803 164.089 195.645C166.415 195.487 164.116 186.248 169.277 186.429C174.437 186.611 167.973 196.219 171.124 196.922C174.274 197.625 179.36 195.472 181.399 195.113C183.438 194.755 183.289 199.644 182.702 202.515C182.114 205.386 179.984 206.18 176.597 206.525C173.211 206.869 170.294 212.75 170.087 220.166C169.879 227.582 171.934 230.659 172.334 232.936C172.735 235.214 173.438 243.979 174.654 246.113C175.87 248.247 188.837 245.965 190.448 246.52C192.059 247.075 193.054 255.118 198.693 252.28C204.331 249.443 199.901 240.998 199.42 237.309C198.939 233.62 203.049 228.787 204.057 227.352C205.066 225.917 208.015 220.701 207.772 219.319C207.529 217.936 205.724 213.893 205.437 212.266C205.151 210.639 205.002 205.969 203.863 197.113C202.725 188.257 186.385 186.185 184.376 185.281C182.368 184.377 179.079 181.936 179.853 180.123C180.627 178.31 185.971 182.4 188.862 184.491C191.752 186.582 195.059 183.4 196.283 183.185C197.506 182.97 197.987 186.659 199.345 186.252C200.703 185.845 204.506 180.228 205.543 178.955C206.58 177.682 213.215 181.462 213.408 180.17C213.563 179.137 210.638 174.145 209.156 171.778C208.233 168.922 206.255 162.461 205.728 159.467Z" fill="#BFBFBF"/>
<path d="M168.116 210.422C168.076 209.007 165.829 206.138 164.711 204.881C164.388 204.51 161.007 202.544 159.496 202.271C157.984 201.999 156.228 203.897 155.101 205.065C153.974 206.233 151.31 206.54 149.273 208.326C147.236 210.112 143.806 220.464 144.689 223.702C145.573 226.939 151.073 229.984 154.078 229.832C157.082 229.68 161.053 226.261 163.39 224.395C165.727 222.53 168.166 212.19 168.116 210.422Z" fill="#BFBFBF"/>
<path d="M177.053 133.059C178.707 133.931 180.835 138.227 181.692 140.267C181.95 140.86 182.367 145.954 181.836 147.877C181.305 149.801 178.063 150.744 176.042 151.378C174.021 152.012 171.259 144.189 167.991 145.526C164.723 146.862 151.41 155.58 148.074 152.659C144.737 149.739 144.24 141.542 146.118 138.123C147.997 134.704 154.293 132.063 157.824 130.423C161.356 128.784 174.986 131.969 177.053 133.059Z" fill="#BFBFBF"/>
<path d="M85.354 241.167C85.3544 244.206 95.1258 248.709 100.011 250.581C105.228 252.816 114.419 250.579 115.496 250.579C116.572 250.578 117.4 252.395 117.98 253.882C118.56 255.368 125.101 251.403 125.929 250.577C126.757 249.751 128.496 250.577 130.98 252.394C133.465 254.21 136.196 247.851 137.852 247.85C139.509 247.85 140.585 250.575 142.242 252.392C143.898 254.209 152.757 250.574 152.757 247.848C152.757 245.123 144.559 244.711 144.559 242.811C144.559 240.912 151.68 244.297 152.756 241.159C153.832 238.02 145.634 228.441 144.557 225.303C143.48 222.164 146.46 219.438 145.632 217.539C144.804 215.64 134.95 212.998 132.631 212.75C130.313 212.503 130.976 222.001 125.925 220.928C120.874 219.855 128.905 211.512 125.924 210.274C122.943 209.035 117.561 210.275 115.491 210.275C113.421 210.275 114.414 205.485 115.49 202.759C116.566 200.034 118.802 199.62 122.196 199.868C125.591 200.115 129.483 194.829 130.972 187.561C132.462 180.293 130.971 176.907 130.971 174.594C130.97 172.282 131.797 163.527 130.969 161.215C130.141 158.902 116.975 158.904 115.484 158.078C113.994 157.253 114.407 149.159 108.362 150.976C102.318 152.794 105.217 161.879 105.052 165.595C104.887 169.312 100.002 173.359 98.7599 174.598C97.5179 175.837 93.7096 180.463 93.7097 181.867C93.7099 183.271 94.7869 187.565 94.7871 189.217C94.7873 190.869 94.1255 195.494 93.7126 204.414C93.2997 213.333 109.033 218.204 110.855 219.443C112.677 220.682 115.492 223.654 114.416 225.306C113.34 226.958 108.785 222.003 106.301 219.443C103.816 216.883 100.008 219.444 98.7655 219.444C97.5234 219.445 97.6886 215.728 96.2809 215.893C94.8733 216.059 90.1541 220.932 88.9122 222.006C87.6702 223.08 81.7906 218.208 81.3767 219.447C81.0456 220.438 83.0612 225.861 84.1103 228.449C84.5247 231.422 85.3536 238.128 85.354 241.167Z" fill="#BFBFBF"/>
<path d="M138.895 201.222C138.689 202.622 140.405 205.837 141.289 207.269C141.542 207.69 144.532 210.212 145.973 210.743C147.414 211.273 149.473 209.708 150.785 208.753C152.098 207.798 154.774 207.957 157.09 206.551C159.406 205.145 164.578 195.543 164.268 192.201C163.959 188.86 159.069 184.908 156.084 184.537C153.098 184.166 148.595 186.846 145.97 188.278C143.345 189.711 139.152 199.472 138.895 201.222Z" fill="#BFBFBF"/>
<path d="M116.692 275.866C115.214 274.721 113.862 270.121 113.371 267.964C113.22 267.335 113.692 262.245 114.548 260.443C115.405 258.641 118.761 258.274 120.861 257.999C122.961 257.725 124.327 265.908 127.777 265.158C131.227 264.408 145.848 258.129 148.628 261.583C151.408 265.037 150.478 273.197 148.036 276.238C145.593 279.28 138.935 280.79 135.173 281.793C131.411 282.796 118.539 277.298 116.692 275.866Z" fill="#BFBFBF"/>
<g opacity="0.8">
<path d="M469.146 88.3874C467.741 85.6925 456.995 86.2169 451.797 86.816C446.138 87.2457 439.022 93.478 438.068 93.9757C437.113 94.4734 435.539 93.2452 434.338 92.1951C433.136 91.145 429.169 97.6847 428.817 98.7999C428.465 99.9151 426.541 99.9868 423.498 99.5244C420.455 99.0619 420.973 105.964 419.505 106.73C418.036 107.496 415.821 105.577 413.513 104.731C411.204 103.886 405.029 111.205 406.289 113.622C407.549 116.038 415.009 112.614 415.887 114.298C416.765 115.983 408.885 116.273 409.382 119.553C409.879 122.834 421.577 127.538 423.983 129.823C426.388 132.108 425.006 135.903 426.618 137.204C428.231 138.506 438.19 136.293 440.36 135.441C442.53 134.588 437.551 126.473 442.526 125.09C447.502 123.706 444.237 134.816 447.453 134.536C450.669 134.256 454.868 130.669 456.704 129.712C458.539 128.755 459.873 133.462 460.179 136.376C460.485 139.29 458.693 140.69 455.568 142.04C452.444 143.391 451.437 149.877 453.476 157.01C455.515 164.144 458.402 166.457 459.471 168.507C460.541 170.558 463.854 178.703 465.658 180.371C467.461 182.038 479.135 175.951 480.839 175.994C482.542 176.037 485.917 183.405 490.437 178.999C494.957 174.593 488.186 167.878 486.614 164.506C485.043 161.134 487.503 155.286 488.032 153.614C488.56 151.941 489.799 146.079 489.15 144.834C488.501 143.589 485.561 140.279 484.797 138.814C484.033 137.349 482.482 132.942 478.725 124.842C474.967 116.742 458.764 119.696 456.576 119.439C454.388 119.183 450.517 117.849 450.708 115.886C450.899 113.924 457.228 116.212 460.614 117.334C464.001 118.455 466.194 114.424 467.296 113.85C468.397 113.275 469.969 116.647 471.14 115.85C472.312 115.052 474.244 108.55 474.849 107.023C475.454 105.497 482.92 107.099 482.714 105.809C482.549 104.777 478.255 100.9 476.129 99.0906C474.387 96.6457 470.552 91.0823 469.146 88.3874Z" fill="#BFBFBF"/>
<path d="M448.658 148.314C448.193 146.977 445.185 144.92 443.739 144.059C443.32 143.802 439.503 142.948 437.98 143.144C436.457 143.34 435.355 145.679 434.633 147.133C433.91 148.586 431.464 149.683 430.06 152C428.656 154.317 428.509 165.222 430.328 168.042C432.147 170.863 438.31 172.106 441.129 171.055C443.947 170.004 446.702 165.546 448.367 163.062C450.032 160.579 449.239 149.985 448.658 148.314Z" fill="#BFBFBF"/>
<path d="M433.84 71.8593C435.68 72.1919 439.005 75.6463 440.438 77.3319C440.862 77.8198 442.797 82.5506 442.871 84.5446C442.944 86.5386 440.138 88.4156 438.402 89.63C436.667 90.8445 431.673 84.2191 428.961 86.4791C426.249 88.7391 416.186 101.066 412.124 99.2886C408.062 97.5109 405.115 89.8453 405.874 86.0192C406.634 82.1931 411.84 77.7759 414.712 75.1473C417.585 72.5187 431.54 71.4435 433.84 71.8593Z" fill="#BFBFBF"/>
<path d="M379.026 202.593C379.944 205.491 390.618 206.836 395.841 207.147C401.489 207.704 409.577 202.799 410.603 202.474C411.629 202.149 412.967 203.631 413.968 204.874C414.97 206.116 420.01 200.362 420.55 199.325C421.09 198.288 422.997 198.55 425.914 199.533C428.83 200.516 429.516 193.628 431.095 193.128C432.674 192.629 434.523 194.902 436.65 196.135C438.777 197.367 446.128 191.229 445.305 188.63C444.483 186.032 436.543 188.112 435.969 186.301C435.396 184.49 443.207 185.569 443.286 182.252C443.365 178.936 432.659 172.276 430.685 169.608C428.712 166.941 430.731 163.443 429.369 161.882C428.006 160.321 417.814 160.775 415.529 161.239C413.244 161.702 416.742 170.557 411.602 171.058C406.463 171.559 411.603 161.182 408.387 160.901C405.171 160.619 400.414 163.424 398.44 164.049C396.467 164.674 395.968 159.807 396.172 156.884C396.376 153.961 398.383 152.892 401.694 152.104C405.005 151.316 407.121 145.102 406.348 137.723C405.576 130.344 403.133 127.566 402.435 125.361C401.737 123.156 399.885 114.56 398.397 112.605C396.91 110.651 384.358 114.624 382.688 114.286C381.018 113.949 378.97 106.107 373.755 109.664C368.541 113.22 374.046 121.007 375.009 124.6C375.973 128.193 372.537 133.526 371.726 135.082C370.916 136.638 368.68 142.196 369.104 143.535C369.528 144.874 371.85 148.643 372.349 150.218C372.847 151.793 373.611 156.402 375.908 165.031C378.206 173.66 394.675 173.557 396.786 174.189C398.896 174.82 402.478 176.805 401.95 178.704C401.422 180.604 395.585 177.254 392.444 175.563C389.303 173.872 386.444 177.462 385.26 177.837C384.076 178.212 383.112 174.619 381.82 175.201C380.528 175.783 377.499 181.853 376.639 183.252C375.778 184.65 368.703 181.779 368.682 183.085C368.665 184.129 372.223 188.692 374.004 190.842C375.296 193.552 378.109 199.696 379.026 202.593Z" fill="#BFBFBF"/>
<path d="M418.024 148.358C418.25 149.755 420.856 152.302 422.13 153.401C422.499 153.727 426.11 155.229 427.644 155.3C429.178 155.371 430.669 153.258 431.632 151.951C432.595 150.645 435.195 149.989 436.979 147.95C438.763 145.911 440.797 135.196 439.494 132.103C438.191 129.011 432.337 126.719 429.379 127.266C426.42 127.812 422.935 131.725 420.865 133.883C418.794 136.041 417.741 146.612 418.024 148.358Z" fill="#BFBFBF"/>
<path d="M419.372 226.223C417.618 225.577 414.941 221.598 413.822 219.69C413.489 219.136 412.403 214.142 412.676 212.165C412.949 210.188 416.038 208.826 417.957 207.931C419.877 207.035 423.647 214.425 426.71 212.669C429.773 210.914 441.819 200.516 445.512 202.971C449.204 205.425 450.779 213.485 449.368 217.122C447.957 220.759 442.065 224.207 438.78 226.298C435.496 228.39 421.565 227.031 419.372 226.223Z" fill="#BFBFBF"/>
</g>
<path d="M79.0695 368.97C77.9705 371.732 85.2211 379.358 88.9838 382.826C92.916 386.744 102.077 388.036 103.055 388.425C104.033 388.815 104.129 390.765 104.118 392.326C104.107 393.886 111.485 392.649 112.536 392.198C113.587 391.747 114.869 393.126 116.469 395.676C118.07 398.225 122.853 393.434 124.358 394.033C125.862 394.632 125.855 397.498 126.703 399.748C127.551 401.998 136.917 401.899 137.902 399.422C138.888 396.946 131.587 393.606 132.274 391.88C132.961 390.154 138.208 395.806 140.321 393.343C142.434 390.88 138.449 379.21 138.606 375.969C138.762 372.727 142.457 371.329 142.391 369.303C142.325 367.277 134.327 361.313 132.309 360.249C130.292 359.185 127.46 368.056 123.258 365.254C119.056 362.452 129.371 357.776 127.11 355.572C124.849 353.368 119.51 352.548 117.629 351.799C115.748 351.051 118.383 347.057 120.347 344.97C122.31 342.882 124.491 343.315 127.487 344.768C130.483 346.221 135.93 342.825 139.913 336.759C143.896 330.693 143.765 327.077 144.602 324.976C145.438 322.874 149.356 315.218 149.44 312.817C149.523 310.416 137.559 305.655 136.503 304.366C135.447 303.076 138.75 295.871 132.6 295.336C126.45 294.802 125.799 304.106 124.304 307.423C122.81 310.741 116.907 312.652 115.33 313.328C113.754 314.005 108.62 316.831 108.112 318.107C107.604 319.382 107.03 323.674 106.432 325.175C105.835 326.677 103.561 330.64 99.9592 338.596C96.3576 346.552 108.893 356.669 110.1 358.454C111.308 360.238 112.791 363.958 111.215 365.07C109.64 366.182 107.293 360.032 105.962 356.807C104.63 353.582 100.243 354.531 99.114 354.082C97.9853 353.633 99.4797 350.315 98.1407 349.957C96.8018 349.598 90.7507 352.319 89.2337 352.846C87.7168 353.372 84.1362 346.818 83.312 347.794C82.6526 348.575 82.5226 354.232 82.5399 356.963C81.8411 359.815 80.1685 366.208 79.0695 368.97Z" fill="#BFBFBF"/>
<path d="M145.354 303.282C144.66 304.48 145.057 308.021 145.342 309.642C145.42 310.117 147.224 313.49 148.342 314.493C149.46 315.497 151.897 314.819 153.434 314.426C154.972 314.033 157.347 315.145 159.96 314.705C162.573 314.265 170.746 307.411 171.674 304.263C172.601 301.114 169.587 295.755 167.008 294.338C164.43 292.921 159.368 293.727 156.465 294.079C153.562 294.431 146.22 301.784 145.354 303.282Z" fill="#BFBFBF"/>
<path d="M89.3699 405.68C88.4415 404.104 88.8771 399.435 89.211 397.297C89.3014 396.671 91.5704 392.217 93.0007 390.889C94.4309 389.561 97.6134 390.442 99.6213 390.952C101.629 391.462 99.9098 399.392 103.316 399.958C106.722 400.525 122.28 400.107 123.557 404.252C124.834 408.396 121.037 415.474 117.718 417.355C114.398 419.235 107.802 418.199 104.02 417.75C100.238 417.301 90.5304 407.649 89.3699 405.68Z" fill="#BFBFBF"/>
<path d="M148.457 417.203C148.401 420.176 157.873 424.758 162.616 426.678C167.677 428.96 176.706 426.941 177.758 426.961C178.811 426.981 179.587 428.773 180.127 430.237C180.667 431.701 187.136 427.944 187.961 427.152C188.785 426.359 190.471 427.199 192.867 429.021C195.263 430.843 198.051 424.674 199.67 424.705C201.29 424.735 202.293 427.42 203.879 429.227C205.465 431.034 214.196 427.642 214.245 424.977C214.295 422.312 206.286 421.758 206.321 419.901C206.356 418.043 213.258 421.484 214.368 418.435C215.478 415.386 207.636 405.868 206.641 402.779C205.646 399.69 208.611 397.08 207.836 395.207C207.061 393.334 197.473 390.57 195.211 390.285C192.948 390.001 193.422 399.3 188.502 398.158C183.583 397.016 191.59 389.006 188.697 387.74C185.805 386.474 180.519 387.587 178.495 387.549C176.47 387.511 177.53 382.845 178.632 380.2C179.734 377.554 181.928 377.191 185.244 377.496C188.559 377.8 192.461 372.702 194.051 365.622C195.642 358.543 194.246 355.204 194.288 352.943C194.331 350.681 195.3 342.136 194.533 339.859C193.765 337.583 180.891 337.342 179.449 336.507C178.006 335.673 178.559 327.765 172.615 329.432C166.671 331.098 169.339 340.035 169.109 343.666C168.879 347.297 164.028 351.165 162.79 352.354C161.553 353.543 157.744 357.996 157.718 359.369C157.693 360.742 158.667 364.961 158.637 366.576C158.606 368.192 157.874 372.702 157.306 381.417C156.738 390.132 172.034 395.184 173.793 396.429C175.552 397.674 178.25 400.633 177.167 402.228C176.085 403.824 171.722 398.895 169.339 396.346C166.957 393.797 163.185 396.231 161.971 396.208C160.756 396.185 160.986 392.554 159.607 392.69C158.227 392.826 153.523 397.504 152.288 398.532C151.054 399.559 145.394 394.686 144.967 395.89C144.625 396.853 146.496 402.194 147.474 404.743C147.825 407.658 148.512 414.231 148.457 417.203Z" fill="#BFBFBF"/>
<path d="M156.143 368.548C157.033 367.488 157.256 363.931 157.256 362.285C157.262 361.804 156.069 358.169 155.142 356.988C154.215 355.806 151.697 356.051 150.114 356.172C148.532 356.293 146.386 354.786 143.736 354.766C141.086 354.747 131.85 360.082 130.39 363.022C128.931 365.962 130.972 371.763 133.266 373.605C135.56 375.447 140.684 375.53 143.605 375.686C146.525 375.842 155.029 369.873 156.143 368.548Z" fill="#BFBFBF"/>
<path d="M212.964 317.827C213.606 319.539 212.368 324.062 211.669 326.11C211.471 326.71 208.465 330.704 206.826 331.764C205.188 332.824 202.206 331.406 200.317 330.556C198.427 329.705 201.495 322.193 198.238 321.045C194.981 319.897 179.586 317.613 179.047 313.31C178.507 309.007 183.473 302.694 187.068 301.417C190.663 300.14 196.98 302.303 200.627 303.401C204.273 304.498 212.163 315.686 212.964 317.827Z" fill="#BFBFBF"/>
<g opacity="0.8">
<path d="M648.88 196.904C649.924 199.687 660.418 200.457 665.535 200.494C671.08 200.75 678.73 195.547 679.716 195.177C680.701 194.808 682.084 196.188 683.125 197.35C684.166 198.512 688.796 192.636 689.27 191.595C689.745 190.554 691.621 190.714 694.52 191.525C697.419 192.336 697.738 185.574 699.254 185.005C700.771 184.436 702.693 186.563 704.833 187.658C706.973 188.754 713.84 182.383 712.904 179.888C711.968 177.392 704.319 179.828 703.667 178.088C703.015 176.349 710.699 177.005 710.607 173.761C710.515 170.517 699.718 164.558 697.655 162.054C695.592 159.549 697.386 156.03 695.975 154.574C694.565 153.119 684.633 154.082 682.425 154.651C680.217 155.22 684.084 163.691 679.09 164.442C674.096 165.193 678.587 154.796 675.432 154.685C672.277 154.574 667.773 157.557 665.877 158.267C663.981 158.978 663.247 154.25 663.297 151.385C663.347 148.519 665.252 147.373 668.446 146.435C671.641 145.496 673.39 139.319 672.259 132.151C671.129 124.984 668.601 122.394 667.807 120.276C667.013 118.159 664.766 109.857 663.213 108.024C661.661 106.19 649.604 110.711 647.955 110.466C646.307 110.221 643.907 102.667 638.995 106.406C634.083 110.146 639.857 117.471 640.981 120.931C642.105 124.392 639.021 129.775 638.309 131.336C637.597 132.897 635.696 138.441 636.179 139.726C636.661 141.012 639.121 144.576 639.688 146.088C640.255 147.601 641.237 152.064 643.92 160.375C646.604 168.685 662.685 167.746 664.778 168.255C666.872 168.764 670.471 170.52 670.052 172.403C669.634 174.285 663.762 171.311 660.608 169.819C657.454 168.327 654.844 171.98 653.707 172.406C652.569 172.832 651.445 169.372 650.213 170.007C648.98 170.641 646.331 176.724 645.562 178.134C644.793 179.544 637.736 177.1 637.782 178.377C637.819 179.398 641.527 183.673 643.376 185.683C644.776 188.263 647.837 194.121 648.88 196.904Z" fill="#BFBFBF"/>
<path d="M653.777 103.713C654.069 105.066 656.744 107.42 658.045 108.429C658.422 108.728 662.025 110.011 663.527 110.002C665.029 109.993 666.378 107.853 667.252 106.528C668.126 105.203 670.632 104.43 672.27 102.347C673.908 100.265 675.349 89.6962 673.919 86.7418C672.489 83.7874 666.654 81.8472 663.792 82.5322C660.931 83.2171 657.726 87.2167 655.814 89.4296C653.902 91.6425 653.412 102.021 653.777 103.713Z" fill="#BFBFBF"/>
<path d="M681.187 217.15C679.44 216.608 676.623 212.859 675.433 211.052C675.079 210.528 673.764 205.705 673.93 203.76C674.096 201.816 677.043 200.328 678.872 199.355C680.702 198.383 684.761 205.409 687.663 203.538C690.565 201.667 701.801 190.897 705.533 193.106C709.264 195.315 711.213 203.108 710.02 206.732C708.827 210.356 703.248 214.024 700.147 216.234C697.045 218.444 683.37 217.827 681.187 217.15Z" fill="#BFBFBF"/>
<path d="M732.672 185.952C734.63 188.19 744.722 185.213 749.524 183.445C754.804 181.731 760.13 174.167 760.923 173.474C761.715 172.78 763.495 173.585 764.879 174.306C766.263 175.027 768.525 167.896 768.603 166.755C768.681 165.614 770.492 165.102 773.491 164.84C776.49 164.577 774.406 158.137 775.625 157.07C776.844 156.004 779.392 157.317 781.781 157.588C784.17 157.859 788.352 149.478 786.597 147.472C784.842 145.466 778.541 150.441 777.318 149.042C776.095 147.644 783.517 145.551 782.289 142.547C781.06 139.544 768.856 137.771 766.043 136.154C763.229 134.536 763.669 130.611 761.836 129.745C760.003 128.88 751.048 133.28 749.181 134.591C747.315 135.902 753.919 142.467 749.509 144.929C745.1 147.391 745.641 136.079 742.648 137.086C739.656 138.094 736.492 142.472 734.968 143.805C733.444 145.138 731.091 140.972 730.128 138.273C729.166 135.573 730.546 133.829 733.204 131.826C735.863 129.822 735.324 123.425 731.741 117.115C728.158 110.805 724.88 109.272 723.391 107.57C721.901 105.867 716.873 98.8898 714.775 97.7207C712.676 96.5517 702.984 105.03 701.355 105.382C699.726 105.734 694.819 99.5091 691.539 104.739C688.26 109.969 696.244 114.791 698.515 117.633C700.786 120.476 699.796 126.601 699.68 128.312C699.563 130.024 699.738 135.882 700.642 136.915C701.546 137.949 705.104 140.417 706.168 141.633C707.231 142.849 709.722 146.68 715.161 153.513C720.6 160.345 735.32 153.801 737.458 153.54C739.597 153.278 743.584 153.654 743.856 155.563C744.127 157.472 737.583 156.757 734.106 156.472C730.629 156.187 729.473 160.525 728.559 161.325C727.645 162.125 725.373 159.282 724.444 160.31C723.514 161.338 723.177 167.965 722.954 169.555C722.731 171.145 715.266 171.344 715.759 172.523C716.153 173.465 721.129 176.16 723.568 177.39C725.787 179.312 730.715 183.715 732.672 185.952Z" fill="#BFBFBF"/>
<path d="M705.647 144.769C705.593 143.386 703.367 140.603 702.26 139.385C701.941 139.025 698.614 137.136 697.133 136.885C695.652 136.634 693.954 138.508 692.863 139.661C691.773 140.815 689.171 141.142 687.197 142.91C685.222 144.677 681.972 154.836 682.869 157.994C683.766 161.151 689.176 164.073 692.113 163.894C695.05 163.715 698.899 160.331 701.166 158.483C703.432 156.635 705.713 146.498 705.647 144.769Z" fill="#BFBFBF"/>
<path d="M713.603 69.0191C715.23 69.8554 717.355 74.0358 718.214 76.0215C718.471 76.5991 718.932 81.5769 718.431 83.4633C717.931 85.3496 714.77 86.3046 712.8 86.9454C710.83 87.5863 708.049 79.9632 704.867 81.3033C701.684 82.6434 688.753 91.3036 685.46 88.4813C682.168 85.659 681.599 77.647 683.401 74.2845C685.204 70.9221 691.334 68.2755 694.772 66.6362C698.209 64.9969 711.571 67.9738 713.603 69.0191Z" fill="#BFBFBF"/>
</g>
<path d="M331.42 338.765C331.457 336.043 322.761 331.89 318.408 330.154C313.763 328.089 305.505 329.979 304.541 329.966C303.576 329.953 302.857 328.316 302.356 326.977C301.855 325.639 295.948 329.11 295.196 329.839C294.445 330.569 292.898 329.808 290.695 328.15C288.492 326.493 285.968 332.155 284.484 332.135C283.001 332.115 282.07 329.661 280.609 328.013C279.148 326.366 271.169 329.513 271.136 331.954C271.103 334.395 278.439 334.864 278.416 336.565C278.393 338.267 272.057 335.147 271.054 337.945C270.052 340.743 277.277 349.423 278.203 352.247C279.129 355.07 276.426 357.475 277.145 359.186C277.863 360.898 286.656 363.385 288.729 363.635C290.803 363.885 290.325 355.37 294.836 356.393C299.346 357.416 292.052 364.79 294.706 365.935C297.361 367.081 302.196 366.037 304.05 366.062C305.904 366.087 304.956 370.365 303.959 372.793C302.962 375.221 300.954 375.564 297.917 375.3C294.879 375.037 291.329 379.724 289.906 386.215C288.483 392.706 289.777 395.757 289.748 397.828C289.72 399.899 288.872 407.729 289.586 409.81C290.299 411.892 302.091 412.052 303.415 412.81C304.74 413.567 304.271 420.811 309.707 419.257C315.142 417.704 312.657 409.532 312.851 406.205C313.044 402.879 317.469 399.314 318.596 398.22C319.724 397.125 323.191 393.029 323.209 391.772C323.226 390.514 322.314 386.655 322.334 385.176C322.354 383.696 323.004 379.562 323.483 371.579C323.962 363.595 309.931 359.04 308.315 357.908C306.698 356.777 304.213 354.079 305.197 352.613C306.181 351.147 310.2 355.64 312.393 357.964C314.587 360.287 318.03 358.04 319.142 358.055C320.254 358.07 320.061 361.397 321.324 361.266C322.586 361.135 326.873 356.829 327.998 355.882C329.124 354.936 334.33 359.371 334.715 358.267C335.024 357.383 333.286 352.502 332.378 350.171C332.043 347.503 331.383 341.487 331.42 338.765Z" fill="#BFBFBF"/>
<path d="M296.2 416.631C296.401 415.38 294.904 412.48 294.13 411.187C293.908 410.806 291.261 408.51 289.977 408.018C288.693 407.525 286.83 408.902 285.643 409.741C284.456 410.58 282.061 410.405 279.969 411.636C277.878 412.866 273.128 421.402 273.364 424.399C273.6 427.396 277.931 430.994 280.6 431.363C283.27 431.732 287.336 429.388 289.704 428.137C292.072 426.886 295.948 418.196 296.2 416.631Z" fill="#BFBFBF"/>
<path d="M310.606 310.731C311.915 311.776 313.069 315.912 313.482 317.85C313.61 318.415 313.125 322.967 312.336 324.571C311.547 326.174 308.537 326.462 306.652 326.682C304.768 326.902 303.646 319.556 300.547 320.186C297.448 320.815 284.276 326.26 281.828 323.132C279.38 320.004 280.314 312.708 282.539 310.014C284.763 307.32 290.745 306.049 294.127 305.197C297.508 304.345 308.969 309.426 310.606 310.731Z" fill="#BFBFBF"/>
<path d="M256.293 320.195C255.368 317.634 245.767 316.812 241.082 316.72C236.007 316.423 228.944 321.102 228.037 321.429C227.13 321.757 225.88 320.478 224.939 319.402C223.999 318.326 219.693 323.655 219.247 324.602C218.801 325.55 217.084 325.383 214.439 324.608C211.794 323.833 211.426 330.021 210.03 330.525C208.635 331.029 206.899 329.06 204.952 328.033C203.004 327.006 196.645 332.762 197.474 335.058C198.303 337.354 205.334 335.209 205.912 336.809C206.49 338.409 199.461 337.722 199.508 340.694C199.556 343.665 209.376 349.243 211.237 351.56C213.098 353.877 211.416 357.079 212.691 358.428C213.967 359.776 223.072 359.006 225.1 358.51C227.129 358.013 223.682 350.213 228.264 349.581C232.846 348.95 228.616 358.42 231.504 358.557C234.393 358.694 238.55 356.014 240.294 355.384C242.038 354.755 242.658 359.092 242.58 361.716C242.502 364.339 240.744 365.367 237.809 366.191C234.873 367.015 233.202 372.651 234.157 379.228C235.111 385.804 237.397 388.203 238.1 390.152C238.803 392.1 240.768 399.727 242.169 401.423C243.57 403.12 254.662 399.116 256.169 399.358C257.676 399.601 259.788 406.545 264.328 403.176C268.868 399.807 263.664 393.035 262.673 389.853C261.682 386.672 264.567 381.777 265.237 380.355C265.906 378.934 267.709 373.879 267.282 372.696C266.855 371.513 264.642 368.223 264.139 366.831C263.637 365.439 262.788 361.342 260.424 353.701C258.06 346.061 243.324 346.74 241.413 346.251C239.501 345.761 236.225 344.112 236.63 342.393C237.034 340.674 242.378 343.464 245.249 344.865C248.121 346.267 250.551 342.952 251.598 342.574C252.644 342.196 253.635 345.378 254.77 344.81C255.906 344.243 258.401 338.702 259.12 337.42C259.84 336.138 266.275 338.455 266.247 337.285C266.225 336.35 262.878 332.393 261.207 330.532C259.954 328.153 257.217 322.755 256.293 320.195Z" fill="#BFBFBF"/>
<path d="M265.629 364.329C265.214 365.527 266.186 368.642 266.724 370.05C266.877 370.464 269.086 373.183 270.265 373.89C271.445 374.598 273.518 373.565 274.832 372.944C276.147 372.323 278.476 372.911 280.749 372.061C283.022 371.211 289.178 363.627 289.465 360.635C289.752 357.643 286.109 353.348 283.545 352.522C280.98 351.697 276.569 353.301 274.02 354.123C271.471 354.944 266.148 362.832 265.629 364.329Z" fill="#BFBFBF"/>
<path d="M233.608 426.298C232.499 425.042 232.079 420.769 232.007 418.788C231.98 418.21 233.245 413.81 234.301 412.368C235.356 410.925 238.37 411.164 240.264 411.273C242.158 411.383 241.991 418.812 245.152 418.729C248.314 418.646 262.23 415.566 264.098 419.07C265.967 422.574 263.784 429.599 261.126 431.867C258.468 434.135 252.357 434.35 248.878 434.604C245.4 434.857 234.993 427.866 233.608 426.298Z" fill="#BFBFBF"/>
<g opacity="0.8">
<path d="M491.247 220.302C491.003 217.591 481.924 214.36 477.415 213.083C472.581 211.509 464.562 214.244 463.602 214.33C462.642 214.417 461.757 212.863 461.12 211.583C460.483 210.304 454.967 214.367 454.295 215.171C453.623 215.974 452.005 215.377 449.643 213.957C447.28 212.536 445.355 218.429 443.878 218.562C442.4 218.695 441.221 216.351 439.597 214.863C437.973 213.376 430.362 217.331 430.582 219.762C430.801 222.194 438.147 221.902 438.3 223.596C438.453 225.291 431.828 222.844 431.121 225.73C430.413 228.616 438.497 236.502 439.71 239.215C440.923 241.928 438.484 244.6 439.375 246.228C440.267 247.855 449.27 249.419 451.358 249.454C453.446 249.488 452.09 241.069 456.683 241.62C461.275 242.171 454.782 250.259 457.541 251.124C460.3 251.989 465.001 250.45 466.848 250.284C468.694 250.117 468.194 254.47 467.453 256.988C466.712 259.506 464.751 260.054 461.703 260.107C458.654 260.159 455.608 265.188 454.864 271.791C454.12 278.394 455.722 281.295 455.908 283.358C456.094 285.421 456.061 293.297 456.986 295.293C457.911 297.289 469.655 296.229 471.051 296.846C472.447 297.463 472.73 304.716 477.976 302.608C483.222 300.501 479.905 292.63 479.753 289.301C479.602 285.973 483.634 281.969 484.642 280.764C485.65 279.559 488.675 275.126 488.562 273.874C488.449 272.621 487.143 268.877 487.01 267.404C486.877 265.93 487.096 261.751 486.747 253.761C486.398 245.77 471.971 242.691 470.246 241.732C468.521 240.774 465.77 238.348 466.597 236.788C467.425 235.228 471.886 239.282 474.309 241.366C476.731 243.449 479.922 240.859 481.03 240.759C482.138 240.659 482.29 243.987 483.532 243.727C484.775 243.466 488.593 238.739 489.614 237.681C490.636 236.623 496.273 240.497 496.542 239.358C496.758 238.448 494.524 233.772 493.38 231.548C492.771 228.929 491.492 223.013 491.247 220.302Z" fill="#BFBFBF"/>
<path d="M464.269 301.393C464.34 300.127 462.551 297.398 461.647 296.192C461.387 295.836 458.517 293.827 457.189 293.47C455.861 293.112 454.15 294.674 453.056 295.632C451.962 296.589 449.562 296.663 447.609 298.103C445.656 299.543 441.815 308.525 442.359 311.481C442.904 314.437 447.584 317.569 450.277 317.659C452.97 317.75 456.772 314.998 458.998 313.509C461.224 312.02 464.18 302.976 464.269 301.393Z" fill="#BFBFBF"/>
<path d="M467.645 194.572C469.055 195.475 470.631 199.47 471.242 201.354C471.427 201.903 471.416 206.481 470.797 208.158C470.178 209.834 467.214 210.431 465.362 210.845C463.511 211.259 461.635 204.069 458.617 205.016C455.6 205.962 443.062 212.74 440.304 209.882C437.546 207.024 437.72 199.67 439.654 196.761C441.588 193.851 447.406 191.968 450.681 190.771C453.957 189.573 465.882 193.443 467.645 194.572Z" fill="#BFBFBF"/>
<path d="M414.602 209.602C413.417 207.151 403.782 207.326 399.113 207.719C394.035 207.949 387.493 213.333 386.625 213.753C385.757 214.172 384.381 213.029 383.334 212.056C382.288 211.083 378.556 216.829 378.21 217.818C377.864 218.806 376.14 218.818 373.429 218.32C370.717 217.823 370.991 224.016 369.656 224.662C368.32 225.307 366.39 223.528 364.347 222.708C362.303 221.888 356.573 228.271 357.635 230.469C358.697 232.667 365.469 229.806 366.21 231.338C366.95 232.87 359.887 232.914 360.242 235.864C360.597 238.815 370.941 243.347 373.032 245.459C375.123 247.571 373.78 250.93 375.188 252.14C376.596 253.349 385.573 251.641 387.539 250.938C389.506 250.234 385.271 242.832 389.763 241.73C394.255 240.628 391.027 250.485 393.914 250.322C396.801 250.16 400.659 247.064 402.329 246.257C403.998 245.451 405.063 249.701 405.257 252.319C405.451 254.936 403.808 256.14 400.974 257.263C398.139 258.386 397.06 264.166 398.69 270.608C400.32 277.05 402.841 279.2 403.742 281.065C404.643 282.93 407.386 290.313 408.955 291.856C410.524 293.398 421.142 288.268 422.666 288.354C424.19 288.439 427.01 295.128 431.177 291.307C435.344 287.487 429.467 281.289 428.152 278.227C426.838 275.165 429.201 269.998 429.72 268.515C430.239 267.032 431.509 261.818 430.962 260.685C430.415 259.553 427.873 256.509 427.23 255.177C426.586 253.844 425.318 249.856 422.177 242.501C419.035 235.146 404.448 237.346 402.496 237.057C400.544 236.768 397.115 235.467 397.34 233.715C397.565 231.964 403.168 234.186 406.169 235.283C409.17 236.38 411.245 232.831 412.246 232.347C413.248 231.863 414.563 234.925 415.633 234.243C416.704 233.561 418.612 227.792 419.196 226.442C419.779 225.093 426.419 226.732 426.27 225.571C426.151 224.643 422.413 221.054 420.559 219.376C419.067 217.139 415.786 212.053 414.602 209.602Z" fill="#BFBFBF"/>
<path d="M428.452 252.534C428.163 253.768 429.453 256.766 430.134 258.111C430.328 258.506 432.806 260.982 434.053 261.564C435.299 262.146 437.254 260.904 438.497 260.151C439.741 259.397 442.118 259.741 444.29 258.66C446.463 257.58 451.802 249.4 451.778 246.394C451.754 243.388 447.687 239.493 445.051 238.937C442.414 238.381 438.193 240.433 435.743 241.514C433.292 242.595 428.814 250.991 428.452 252.534Z" fill="#BFBFBF"/>
<path d="M403.013 317.481C401.78 316.348 400.92 312.14 400.644 310.178C400.557 309.605 401.361 305.098 402.261 303.555C403.162 302.011 406.185 301.936 408.08 301.849C409.975 301.762 410.577 309.169 413.713 308.759C416.848 308.35 430.371 303.847 432.592 307.139C434.813 310.431 433.368 317.644 430.959 320.174C428.55 322.705 422.494 323.552 419.061 324.163C415.627 324.775 404.553 318.898 403.013 317.481Z" fill="#BFBFBF"/>
</g>
<g opacity="0.8">
<path d="M365.679 416.108C366.348 418.747 375.823 420.508 380.476 421.058C385.497 421.851 392.986 417.888 393.92 417.651C394.855 417.414 395.974 418.809 396.804 419.972C397.634 421.135 402.442 416.254 402.979 415.355C403.516 414.456 405.207 414.79 407.764 415.821C410.321 416.852 411.294 410.729 412.732 410.365C414.169 410 415.704 412.13 417.541 413.343C419.379 414.556 426.272 409.451 425.672 407.085C425.073 404.719 417.864 406.164 417.446 404.515C417.028 402.865 423.956 404.238 424.2 401.277C424.444 398.315 415.219 391.801 413.593 389.313C411.968 386.825 413.957 383.803 412.82 382.335C411.683 380.868 402.546 380.742 400.478 381.037C398.411 381.332 401.076 389.433 396.454 389.612C391.833 389.791 396.971 380.781 394.11 380.362C391.249 379.942 386.849 382.202 385.051 382.658C383.254 383.113 383.063 378.736 383.398 376.132C383.732 373.529 385.583 372.679 388.585 372.147C391.587 371.615 393.803 366.169 393.498 359.531C393.192 352.893 391.153 350.281 390.644 348.273C390.135 346.265 388.928 338.482 387.7 336.656C386.472 334.831 375.041 337.728 373.566 337.339C372.09 336.95 370.668 329.831 365.82 332.739C360.971 335.647 365.487 342.897 366.161 346.16C366.835 349.423 363.484 354.012 362.678 355.361C361.872 356.71 359.583 361.563 359.892 362.783C360.201 364.002 362.08 367.493 362.444 368.928C362.807 370.362 363.25 374.523 364.853 382.359C366.456 390.194 381.188 390.963 383.043 391.637C384.897 392.312 387.996 394.274 387.424 395.945C386.853 397.616 381.809 394.316 379.089 392.64C376.368 390.963 373.625 394.024 372.546 394.298C371.468 394.571 370.794 391.308 369.608 391.761C368.422 392.214 365.397 397.483 364.554 398.689C363.712 399.894 357.536 396.957 357.449 398.124C357.379 399.058 360.322 403.323 361.802 405.339C362.816 407.829 365.011 413.47 365.679 416.108Z" fill="#BFBFBF"/>
<path d="M379.546 331.78C379.676 333.041 381.873 335.455 382.955 336.504C383.268 336.814 386.418 338.346 387.786 338.49C389.154 338.633 390.597 336.821 391.527 335.704C392.456 334.586 394.815 334.135 396.517 332.405C398.218 330.675 400.597 321.2 399.593 318.367C398.59 315.533 393.475 313.178 390.801 313.513C388.128 313.847 384.807 317.164 382.843 318.985C380.879 320.806 379.385 330.204 379.546 331.78Z" fill="#BFBFBF"/>
<path d="M393.04 437.8C391.505 437.13 389.32 433.433 388.419 431.668C388.15 431.156 387.439 426.633 387.787 424.88C388.134 423.127 390.967 422.07 392.731 421.369C394.494 420.669 397.479 427.474 400.31 426.064C403.14 424.654 414.454 415.986 417.628 418.374C420.802 420.761 421.788 428.051 420.337 431.229C418.885 434.407 413.436 437.182 410.39 438.881C407.344 440.579 394.959 438.637 393.04 437.8Z" fill="#BFBFBF"/>
<path d="M443.054 414.601C444.609 416.836 454.096 415.145 458.646 414.021C463.624 412.994 469.236 406.647 470.027 406.096C470.819 405.545 472.357 406.457 473.544 407.253C474.731 408.049 477.51 401.787 477.696 400.756C477.882 399.725 479.583 399.442 482.339 399.506C485.095 399.57 483.849 393.497 485.066 392.65C486.283 391.802 488.469 393.255 490.617 393.743C492.764 394.23 497.417 387.025 496.022 385.021C494.627 383.018 488.39 386.91 487.417 385.514C486.445 384.118 493.413 382.962 492.598 380.104C491.783 377.246 480.854 374.4 478.456 372.644C476.059 370.888 476.855 367.359 475.274 366.386C473.693 365.414 465.098 368.515 463.266 369.519C461.435 370.524 466.783 377.166 462.521 378.962C458.259 380.758 459.894 370.516 457.068 371.131C454.243 371.746 450.921 375.411 449.399 376.471C447.878 377.53 446.156 373.5 445.553 370.946C444.949 368.392 446.381 366.944 449.003 365.389C451.626 363.833 451.781 357.956 449.157 351.851C446.532 345.746 443.704 344.02 442.52 342.32C441.337 340.62 437.465 333.761 435.672 332.485C433.88 331.209 424.203 337.948 422.684 338.103C421.166 338.259 417.328 332.098 413.815 336.527C410.302 340.957 417.082 346.151 418.862 348.968C420.642 351.784 419.123 357.259 418.844 358.806C418.565 360.352 418.132 365.701 418.851 366.733C419.569 367.765 422.559 370.371 423.404 371.585C424.25 372.799 426.13 376.538 430.391 383.306C434.652 390.075 448.71 385.604 450.683 385.582C452.656 385.561 456.247 386.305 456.301 388.07C456.355 389.835 450.472 388.524 447.335 387.913C444.199 387.303 442.71 391.134 441.797 391.77C440.884 392.406 439.103 389.589 438.153 390.431C437.203 391.273 436.228 397.27 435.864 398.695C435.501 400.12 428.685 399.547 429.015 400.67C429.279 401.568 433.536 404.523 435.631 405.888C437.457 407.862 441.498 412.367 443.054 414.601Z" fill="#BFBFBF"/>
<path d="M422.613 374.388C422.704 373.123 420.958 370.366 420.074 369.145C419.819 368.785 416.982 366.73 415.66 366.352C414.337 365.974 412.602 367.508 411.493 368.448C410.384 369.388 407.983 369.423 406.007 370.832C404.031 372.242 400.048 381.16 400.545 384.125C401.042 387.09 405.672 390.295 408.363 390.429C411.054 390.563 414.9 387.871 417.149 386.418C419.399 384.965 422.499 375.968 422.613 374.388Z" fill="#BFBFBF"/>
<path d="M437.504 306.243C438.9 307.168 440.412 311.188 440.994 313.082C441.17 313.634 441.086 318.211 440.44 319.878C439.794 321.544 436.821 322.094 434.963 322.478C433.105 322.863 431.344 315.643 428.312 316.542C425.28 317.44 412.635 324.017 409.923 321.116C407.211 318.214 407.502 310.864 409.482 307.986C411.463 305.107 417.31 303.317 420.604 302.172C423.898 301.027 435.76 305.086 437.504 306.243Z" fill="#BFBFBF"/>
</g>
<g opacity="0.8">
<path d="M536.395 320.603C534.056 319.21 526.112 324.665 522.432 327.566C518.321 330.556 515.828 338.654 515.335 339.482C514.842 340.31 513.064 340.115 511.654 339.879C510.245 339.644 510.297 346.495 510.553 347.511C510.809 348.526 509.377 349.486 506.84 350.565C504.303 351.644 507.944 356.661 507.185 357.936C506.426 359.21 503.836 358.789 501.678 359.231C499.521 359.672 498.257 368.156 500.354 369.405C502.451 370.654 506.526 364.535 507.988 365.406C509.45 366.277 503.58 370.205 505.502 372.471C507.424 374.738 518.553 372.821 521.462 373.431C524.37 374.041 525.101 377.584 526.943 377.818C528.784 378.051 535.334 371.68 536.587 370.009C537.841 368.338 530.228 364.495 533.369 361.1C536.511 357.705 539.248 367.709 541.568 365.983C543.888 364.257 545.401 359.548 546.35 357.955C547.299 356.362 550.53 359.322 552.134 361.399C553.737 363.477 553.031 365.386 551.284 367.885C549.537 370.384 551.821 375.802 556.731 380.28C561.64 384.758 564.929 385.163 566.709 386.223C568.488 387.283 574.846 391.933 577.005 392.355C579.164 392.778 585.198 382.647 586.517 381.878C587.836 381.11 593.874 385.138 595.247 379.654C596.619 374.169 588.299 372.236 585.515 370.405C582.731 368.574 581.856 362.959 581.472 361.436C581.088 359.912 579.275 354.861 578.194 354.218C577.114 353.574 573.316 352.434 572.045 351.677C570.773 350.92 567.518 348.291 560.844 343.884C554.17 339.477 543.209 349.35 541.421 350.184C539.632 351.018 536.054 351.822 535.276 350.237C534.499 348.651 540.399 347.418 543.508 346.68C546.617 345.942 546.392 341.837 546.962 340.881C547.531 339.925 550.315 341.756 550.833 340.597C551.351 339.438 549.765 333.573 549.508 332.125C549.251 330.677 555.695 328.386 554.932 327.5C554.321 326.791 549.224 325.856 546.752 325.477C544.274 324.433 538.734 321.996 536.395 320.603Z" fill="#BFBFBF"/>
<path d="M586.218 390.038C585.235 389.238 581.975 389.085 580.468 389.108C580.027 389.11 576.716 390.254 575.647 391.12C574.579 391.986 574.839 394.287 574.972 395.735C575.105 397.183 573.756 399.169 573.776 401.596C573.797 404.023 578.814 412.404 581.527 413.698C584.24 414.992 589.523 413.04 591.177 410.913C592.831 408.786 592.833 404.093 592.934 401.416C593.035 398.74 587.447 391.038 586.218 390.038Z" fill="#BFBFBF"/>
<path d="M501.709 324.613C503.268 324.001 507.428 325.07 509.313 325.68C509.866 325.853 513.566 328.548 514.56 330.034C515.554 331.519 514.298 334.27 513.546 336.012C512.795 337.754 505.872 335.053 504.868 338.051C503.863 341.05 501.992 355.179 498.06 355.735C494.127 356.291 488.275 351.834 487.054 348.561C485.834 345.287 487.724 339.471 488.677 336.117C489.63 332.762 499.761 325.378 501.709 324.613Z" fill="#BFBFBF"/>
<path d="M482.748 376.381C480.068 375.901 474.555 383.805 472.133 387.817C469.339 392.063 469.859 400.519 469.689 401.468C469.519 402.418 467.786 402.861 466.384 403.137C464.982 403.414 467.445 409.807 468.042 410.667C468.64 411.528 467.637 412.93 465.643 414.834C463.649 416.737 468.824 420.15 468.563 421.61C468.301 423.07 465.729 423.589 463.865 424.762C462.002 425.936 463.807 434.321 466.21 434.751C468.613 435.181 470.271 428.019 471.946 428.319C473.621 428.619 469.511 434.363 472.108 435.807C474.705 437.252 484.446 431.536 487.383 431.083C490.32 430.629 492.252 433.687 494.058 433.257C495.863 432.827 499.749 424.557 500.333 422.551C500.918 420.546 492.439 419.631 494.183 415.347C495.927 411.064 502.014 419.462 503.577 417.029C505.139 414.597 504.897 409.656 505.223 407.83C505.55 406.005 509.617 407.638 511.85 409.017C514.083 410.396 514.094 412.432 513.34 415.387C512.585 418.341 516.631 422.606 522.804 425.068C528.976 427.529 532.197 426.749 534.236 427.114C536.275 427.479 543.863 429.591 546.032 429.226C548.202 428.861 550.28 417.254 551.243 416.07C552.207 414.886 559.277 416.529 558.63 410.913C557.982 405.296 549.515 406.417 546.264 405.685C543.013 404.952 540.217 400.006 539.32 398.715C538.424 397.425 534.948 393.336 533.71 393.115C532.472 392.893 528.516 393.164 527.059 392.904C525.603 392.643 521.63 391.329 513.831 389.556C506.032 387.783 499.253 400.885 497.873 402.295C496.493 403.706 493.427 405.719 492.141 404.509C490.854 403.299 495.942 400.066 498.592 398.28C501.241 396.494 499.585 392.731 499.781 391.636C499.977 390.541 503.228 391.274 503.304 390.007C503.381 388.74 499.83 383.809 499.079 382.545C498.329 381.28 503.553 376.866 502.526 376.305C501.704 375.857 496.605 376.777 494.158 377.293C491.471 377.189 485.427 376.861 482.748 376.381Z" fill="#BFBFBF"/>
<path d="M525.637 390.362C526.467 391.321 529.651 392.036 531.14 392.274C531.574 392.349 535.033 391.796 536.236 391.128C537.438 390.46 537.58 388.148 537.7 386.7C537.82 385.251 539.492 383.528 539.893 381.135C540.294 378.741 536.804 369.618 534.356 367.873C531.908 366.129 526.368 367.135 524.37 368.944C522.373 370.752 521.557 375.374 520.994 377.993C520.431 380.611 524.6 389.164 525.637 390.362Z" fill="#BFBFBF"/>
<path d="M563.293 449.078C561.651 449.41 557.74 447.637 555.99 446.709C555.475 446.443 552.297 443.147 551.576 441.512C550.854 439.877 552.568 437.386 553.61 435.8C554.651 434.215 561.002 438.074 562.51 435.295C564.019 432.516 568.31 418.924 572.279 419.058C576.248 419.192 581.24 424.595 581.875 428.031C582.51 431.466 579.641 436.867 578.121 440.006C576.602 443.145 565.344 448.662 563.293 449.078Z" fill="#BFBFBF"/>
</g>
<g opacity="0.8">
<path d="M583.112 324.499C585.808 324.874 591.01 316.762 593.274 312.659C595.902 308.308 595.053 299.878 595.186 298.923C595.319 297.968 597.033 297.458 598.424 297.127C599.814 296.796 597.105 290.504 596.474 289.667C595.844 288.831 596.791 287.39 598.71 285.41C600.628 283.431 595.324 280.222 595.529 278.753C595.733 277.283 598.284 276.665 600.1 275.42C601.917 274.175 599.787 265.867 597.369 265.53C594.951 265.194 593.573 272.415 591.887 272.18C590.202 271.946 594.086 266.047 591.434 264.704C588.783 263.362 579.272 269.451 576.355 270.019C573.438 270.586 571.388 267.605 569.6 268.105C567.813 268.605 564.252 277.02 563.746 279.047C563.24 281.073 571.747 281.658 570.171 286.006C568.595 290.355 562.187 282.199 560.72 284.691C559.252 287.182 559.687 292.11 559.431 293.947C559.176 295.783 555.049 294.31 552.764 293.019C550.479 291.727 550.389 289.693 551.028 286.712C551.667 283.73 547.458 279.625 541.194 277.406C534.931 275.186 531.743 276.09 529.691 275.805C527.64 275.519 519.976 273.704 517.822 274.153C515.668 274.602 514.043 286.282 513.126 287.502C512.209 288.722 505.08 287.356 505.946 292.942C506.811 298.529 515.229 297.08 518.505 297.686C521.782 298.291 524.769 303.125 525.714 304.38C526.66 305.635 530.293 309.585 531.538 309.758C532.784 309.932 536.727 309.507 538.192 309.711C539.657 309.915 543.679 311.073 551.541 312.542C559.402 314.011 565.668 300.655 566.992 299.192C568.316 297.729 571.301 295.599 572.633 296.757C573.966 297.916 569.007 301.345 566.429 303.232C563.851 305.12 565.652 308.815 565.499 309.917C565.346 311.019 562.069 310.413 562.042 311.682C562.014 312.951 565.755 317.74 566.554 318.975C567.353 320.209 562.304 324.823 563.352 325.343C564.19 325.759 569.25 324.642 571.676 324.031C574.364 324.03 580.416 324.124 583.112 324.499Z" fill="#BFBFBF"/>
<path d="M510.232 279.866C511.449 280.222 514.512 279.097 515.892 278.49C516.297 278.317 518.904 275.977 519.552 274.764C520.201 273.551 519.067 271.531 518.382 270.249C517.697 268.967 518.169 266.612 517.208 264.383C516.247 262.155 508.368 256.381 505.365 256.242C502.362 256.104 498.253 259.953 497.555 262.556C496.857 265.158 498.677 269.484 499.624 271.99C500.57 274.496 508.711 279.422 510.232 279.866Z" fill="#BFBFBF"/>
<path d="M613.517 307.332C612.318 308.502 608.07 309.132 606.096 309.301C605.52 309.357 601.063 308.311 599.57 307.328C598.077 306.345 598.166 303.323 598.182 301.426C598.198 299.529 605.626 299.329 605.387 296.175C605.148 293.022 601.385 279.275 604.792 277.236C608.2 275.196 615.324 277.03 617.72 279.572C620.117 282.115 620.634 288.208 621.059 291.67C621.483 295.131 615.016 305.871 613.517 307.332Z" fill="#BFBFBF"/>
<path d="M610.882 252.265C613.538 251.666 615.549 242.241 616.222 237.604C617.148 232.605 613.384 225.015 613.172 224.074C612.96 223.134 614.384 222.052 615.569 221.253C616.754 220.454 612.002 215.519 611.117 214.958C610.232 214.397 610.611 212.715 611.709 210.187C612.808 207.659 606.713 206.524 606.387 205.077C606.06 203.63 608.23 202.152 609.491 200.347C610.753 198.542 605.832 191.517 603.451 192.054C601.069 192.59 602.323 199.834 600.664 200.209C599.004 200.583 600.56 193.694 597.606 193.371C594.651 193.049 587.895 202.099 585.365 203.658C582.835 205.216 579.866 203.149 578.37 204.246C576.873 205.344 576.505 214.474 576.745 216.549C576.985 218.623 585.153 216.174 585.21 220.799C585.267 225.423 576.396 220.049 575.901 222.897C575.406 225.746 577.549 230.205 577.956 232.013C578.364 233.822 573.983 233.897 571.389 233.494C568.796 233.09 567.995 231.218 567.543 228.203C567.09 225.188 561.705 222.828 555.061 222.958C548.417 223.087 545.752 225.056 543.732 225.512C541.711 225.967 533.899 226.968 532.041 228.147C530.184 229.326 532.777 240.83 532.349 242.295C531.921 243.76 524.768 244.992 527.546 249.916C530.324 254.84 537.691 250.518 540.971 249.931C544.251 249.343 548.749 252.815 550.077 253.656C551.404 254.497 556.195 256.914 557.422 256.638C558.649 256.361 562.189 254.575 563.632 254.249C565.076 253.924 569.247 253.592 577.122 252.197C584.998 250.801 586.156 236.095 586.88 234.259C587.603 232.423 589.647 229.378 591.302 229.993C592.957 230.608 589.525 235.564 587.777 238.238C586.029 240.913 589.016 243.737 589.261 244.822C589.506 245.908 586.226 246.495 586.647 247.692C587.069 248.89 592.256 252.054 593.439 252.928C594.622 253.802 591.522 259.898 592.686 260.016C593.618 260.11 597.959 257.281 600.014 255.855C602.53 254.908 608.227 252.863 610.882 252.265Z" fill="#BFBFBF"/>
<path d="M565.93 256.039C564.793 255.478 561.581 256.055 560.117 256.414C559.687 256.514 556.715 258.367 555.866 259.45C555.017 260.532 555.784 262.717 556.236 264.099C556.689 265.48 555.816 267.718 556.377 270.079C556.937 272.44 563.697 279.492 566.63 280.149C569.563 280.806 574.278 277.726 575.416 275.284C576.554 272.841 575.511 268.265 575.013 265.634C574.515 263.002 567.351 256.74 565.93 256.039Z" fill="#BFBFBF"/>
<path d="M508.425 216.558C509.809 215.614 514.102 215.729 516.075 215.905C516.653 215.949 520.861 217.752 522.161 218.979C523.461 220.205 522.849 223.167 522.505 225.032C522.161 226.898 514.81 225.808 514.499 228.955C514.189 232.102 515.514 246.293 511.804 247.711C508.095 249.13 501.396 246.089 499.477 243.17C497.557 240.251 498.103 234.16 498.284 230.678C498.466 227.195 506.696 217.738 508.425 216.558Z" fill="#BFBFBF"/>
</g>
<g opacity="0.8">
<path d="M705.112 340.499C707.808 340.874 713.01 332.762 715.274 328.659C717.902 324.308 717.053 315.878 717.186 314.923C717.319 313.968 719.033 313.458 720.424 313.127C721.814 312.796 719.105 306.504 718.474 305.667C717.844 304.831 718.791 303.39 720.71 301.41C722.628 299.431 717.324 296.222 717.529 294.753C717.733 293.283 720.284 292.665 722.1 291.42C723.917 290.175 721.787 281.867 719.369 281.53C716.951 281.194 715.573 288.415 713.887 288.18C712.202 287.946 716.086 282.047 713.434 280.704C710.783 279.362 701.272 285.451 698.355 286.019C695.438 286.586 693.388 283.605 691.6 284.105C689.813 284.605 686.252 293.02 685.746 295.047C685.24 297.073 693.747 297.658 692.171 302.006C690.595 306.355 684.187 298.199 682.72 300.691C681.252 303.182 681.687 308.11 681.431 309.947C681.176 311.783 677.049 310.31 674.764 309.019C672.479 307.727 672.389 305.693 673.028 302.712C673.667 299.73 669.458 295.625 663.194 293.406C656.931 291.186 653.743 292.09 651.691 291.805C649.64 291.519 641.976 289.704 639.822 290.153C637.668 290.602 636.043 302.282 635.126 303.502C634.209 304.722 627.08 303.356 627.946 308.942C628.811 314.529 637.229 313.08 640.505 313.686C643.782 314.291 646.769 319.125 647.714 320.38C648.66 321.635 652.293 325.585 653.538 325.758C654.784 325.932 658.727 325.507 660.192 325.711C661.657 325.915 665.679 327.073 673.541 328.542C681.402 330.011 687.668 316.655 688.992 315.192C690.316 313.729 693.301 311.599 694.633 312.757C695.966 313.916 691.007 317.345 688.429 319.232C685.851 321.12 687.652 324.815 687.499 325.917C687.346 327.019 684.069 326.413 684.042 327.682C684.014 328.951 687.755 333.74 688.554 334.975C689.353 336.209 684.304 340.823 685.352 341.343C686.19 341.759 691.25 340.642 693.676 340.031C696.364 340.03 702.416 340.124 705.112 340.499Z" fill="#BFBFBF"/>
<path d="M632.232 295.866C633.449 296.222 636.512 295.097 637.892 294.49C638.297 294.317 640.904 291.977 641.552 290.764C642.201 289.551 641.067 287.531 640.382 286.249C639.697 284.967 640.169 282.612 639.208 280.383C638.247 278.155 630.368 272.381 627.365 272.242C624.362 272.104 620.253 275.953 619.555 278.556C618.857 281.158 620.677 285.484 621.624 287.99C622.57 290.496 630.711 295.422 632.232 295.866Z" fill="#BFBFBF"/>
<path d="M735.517 323.332C734.318 324.502 730.07 325.132 728.096 325.301C727.52 325.357 723.063 324.311 721.57 323.328C720.077 322.345 720.166 319.323 720.182 317.426C720.198 315.529 727.626 315.329 727.387 312.175C727.148 309.022 723.385 295.275 726.792 293.236C730.2 291.196 737.324 293.03 739.72 295.572C742.117 298.115 742.634 304.208 743.059 307.67C743.483 311.131 737.016 321.871 735.517 323.332Z" fill="#BFBFBF"/>
<path d="M732.882 268.265C735.538 267.666 737.549 258.241 738.222 253.604C739.148 248.605 735.384 241.015 735.172 240.074C734.96 239.134 736.384 238.052 737.569 237.253C738.754 236.454 734.002 231.519 733.117 230.958C732.232 230.397 732.611 228.715 733.709 226.187C734.808 223.659 728.713 222.524 728.387 221.077C728.06 219.63 730.23 218.152 731.491 216.347C732.753 214.542 727.832 207.517 725.451 208.054C723.069 208.59 724.323 215.834 722.664 216.209C721.004 216.583 722.56 209.694 719.606 209.371C716.651 209.049 709.895 218.099 707.365 219.658C704.835 221.216 701.866 219.149 700.37 220.246C698.873 221.344 698.505 230.474 698.745 232.549C698.985 234.623 707.153 232.174 707.21 236.799C707.267 241.423 698.396 236.049 697.901 238.897C697.406 241.746 699.549 246.205 699.956 248.013C700.364 249.822 695.983 249.897 693.389 249.494C690.796 249.09 689.995 247.218 689.543 244.203C689.09 241.188 683.705 238.828 677.061 238.958C670.417 239.087 667.752 241.056 665.732 241.512C663.711 241.967 655.899 242.968 654.041 244.147C652.184 245.326 654.777 256.83 654.349 258.295C653.921 259.76 646.768 260.992 649.546 265.916C652.324 270.84 659.691 266.518 662.971 265.931C666.251 265.343 670.749 268.815 672.077 269.656C673.404 270.497 678.195 272.914 679.422 272.638C680.649 272.361 684.189 270.575 685.632 270.249C687.076 269.924 691.247 269.592 699.122 268.197C706.998 266.801 708.156 252.095 708.88 250.259C709.603 248.423 711.647 245.378 713.302 245.993C714.957 246.608 711.525 251.564 709.777 254.238C708.029 256.913 711.016 259.737 711.261 260.822C711.506 261.908 708.226 262.495 708.647 263.692C709.069 264.89 714.256 268.054 715.439 268.928C716.622 269.802 713.522 275.898 714.686 276.016C715.618 276.11 719.959 273.281 722.014 271.855C724.53 270.908 730.227 268.863 732.882 268.265Z" fill="#BFBFBF"/>
<path d="M687.93 272.039C686.793 271.478 683.581 272.055 682.117 272.414C681.687 272.514 678.715 274.367 677.866 275.45C677.017 276.532 677.784 278.717 678.236 280.099C678.689 281.48 677.816 283.718 678.377 286.079C678.937 288.44 685.697 295.492 688.63 296.149C691.563 296.806 696.278 293.726 697.416 291.284C698.554 288.841 697.511 284.265 697.013 281.634C696.515 279.002 689.351 272.74 687.93 272.039Z" fill="#BFBFBF"/>
<path d="M630.425 232.558C631.809 231.614 636.102 231.729 638.075 231.905C638.653 231.949 642.861 233.752 644.161 234.979C645.461 236.205 644.849 239.167 644.505 241.032C644.161 242.898 636.81 241.808 636.499 244.955C636.189 248.102 637.514 262.293 633.804 263.711C630.095 265.13 623.396 262.089 621.477 259.17C619.557 256.251 620.103 250.16 620.284 246.678C620.466 243.195 628.696 233.738 630.425 232.558Z" fill="#BFBFBF"/>
</g>
<g opacity="0.8">
<path d="M675.112 449.499C677.808 449.874 683.01 441.762 685.274 437.659C687.902 433.308 687.053 424.878 687.186 423.923C687.319 422.968 689.033 422.458 690.424 422.127C691.814 421.796 689.105 415.504 688.474 414.667C687.844 413.831 688.791 412.39 690.71 410.41C692.628 408.431 687.324 405.222 687.529 403.753C687.733 402.283 690.284 401.665 692.1 400.42C693.917 399.175 691.787 390.867 689.369 390.53C686.951 390.194 685.573 397.415 683.887 397.18C682.202 396.946 686.086 391.047 683.434 389.704C680.783 388.362 671.272 394.451 668.355 395.019C665.438 395.586 663.388 392.605 661.6 393.105C659.813 393.605 656.252 402.02 655.746 404.047C655.24 406.073 663.747 406.658 662.171 411.006C660.595 415.355 654.187 407.199 652.72 409.691C651.252 412.182 651.687 417.11 651.431 418.947C651.176 420.783 647.049 419.31 644.764 418.019C642.479 416.727 642.389 414.693 643.028 411.712C643.667 408.73 639.458 404.625 633.194 402.406C626.931 400.186 623.743 401.09 621.691 400.805C619.64 400.519 611.976 398.704 609.822 399.153C607.668 399.602 606.043 411.282 605.126 412.502C604.209 413.722 597.08 412.356 597.946 417.942C598.811 423.529 607.229 422.08 610.505 422.686C613.782 423.291 616.769 428.125 617.714 429.38C618.66 430.635 622.293 434.585 623.538 434.758C624.784 434.932 628.727 434.507 630.192 434.711C631.657 434.915 635.679 436.073 643.541 437.542C651.402 439.011 657.668 425.655 658.992 424.192C660.316 422.729 663.301 420.599 664.633 421.757C665.966 422.916 661.007 426.345 658.429 428.232C655.851 430.12 657.652 433.815 657.499 434.917C657.346 436.019 654.069 435.413 654.042 436.682C654.014 437.951 657.755 442.74 658.554 443.975C659.353 445.209 654.304 449.823 655.352 450.343C656.19 450.759 661.25 449.642 663.676 449.031C666.364 449.03 672.416 449.124 675.112 449.499Z" fill="#BFBFBF"/>
<path d="M602.232 404.866C603.449 405.222 606.512 404.097 607.892 403.49C608.297 403.317 610.904 400.977 611.552 399.764C612.201 398.551 611.067 396.531 610.382 395.249C609.697 393.967 610.169 391.612 609.208 389.383C608.247 387.155 600.368 381.381 597.365 381.242C594.362 381.104 590.253 384.953 589.555 387.556C588.857 390.158 590.677 394.484 591.624 396.99C592.57 399.496 600.711 404.422 602.232 404.866Z" fill="#BFBFBF"/>
<path d="M705.517 432.332C704.318 433.502 700.07 434.132 698.096 434.301C697.52 434.357 693.063 433.311 691.57 432.328C690.077 431.345 690.166 428.323 690.182 426.426C690.198 424.529 697.626 424.329 697.387 421.175C697.148 418.022 693.385 404.275 696.792 402.236C700.2 400.196 707.324 402.03 709.72 404.572C712.117 407.115 712.634 413.208 713.059 416.67C713.483 420.131 707.016 430.871 705.517 432.332Z" fill="#BFBFBF"/>
<path d="M702.882 377.265C705.538 376.666 707.549 367.241 708.222 362.604C709.148 357.605 705.384 350.015 705.172 349.074C704.96 348.134 706.384 347.052 707.569 346.253C708.754 345.454 704.002 340.519 703.117 339.958C702.232 339.397 702.611 337.715 703.709 335.187C704.808 332.659 698.713 331.524 698.387 330.077C698.06 328.63 700.23 327.152 701.491 325.347C702.753 323.542 697.832 316.517 695.451 317.054C693.069 317.59 694.323 324.834 692.664 325.209C691.004 325.583 692.56 318.694 689.606 318.371C686.651 318.049 679.895 327.099 677.365 328.658C674.835 330.216 671.866 328.149 670.37 329.246C668.873 330.344 668.505 339.474 668.745 341.549C668.985 343.623 677.153 341.174 677.21 345.799C677.267 350.423 668.396 345.049 667.901 347.897C667.406 350.746 669.549 355.205 669.956 357.013C670.364 358.822 665.983 358.897 663.389 358.494C660.796 358.09 659.995 356.218 659.543 353.203C659.09 350.188 653.705 347.828 647.061 347.958C640.417 348.087 637.752 350.056 635.732 350.512C633.711 350.967 625.899 351.968 624.041 353.147C622.184 354.326 624.777 365.83 624.349 367.295C623.921 368.76 616.768 369.992 619.546 374.916C622.324 379.84 629.691 375.518 632.971 374.931C636.251 374.343 640.749 377.815 642.077 378.656C643.404 379.497 648.195 381.914 649.422 381.638C650.649 381.361 654.189 379.575 655.632 379.249C657.076 378.924 661.247 378.592 669.122 377.197C676.998 375.801 678.156 361.095 678.88 359.259C679.603 357.423 681.647 354.378 683.302 354.993C684.957 355.608 681.525 360.564 679.777 363.238C678.029 365.913 681.016 368.737 681.261 369.822C681.506 370.908 678.226 371.495 678.647 372.692C679.069 373.89 684.256 377.054 685.439 377.928C686.622 378.802 683.522 384.898 684.686 385.016C685.618 385.11 689.959 382.281 692.014 380.855C694.53 379.908 700.227 377.863 702.882 377.265Z" fill="#BFBFBF"/>
<path d="M657.93 381.039C656.793 380.478 653.581 381.055 652.117 381.414C651.687 381.514 648.715 383.367 647.866 384.45C647.017 385.532 647.784 387.717 648.236 389.099C648.689 390.48 647.816 392.718 648.377 395.079C648.937 397.44 655.697 404.492 658.63 405.149C661.563 405.806 666.278 402.726 667.416 400.284C668.554 397.841 667.511 393.265 667.013 390.634C666.515 388.002 659.351 381.74 657.93 381.039Z" fill="#BFBFBF"/>
<path d="M600.425 341.558C601.809 340.614 606.102 340.729 608.075 340.905C608.653 340.949 612.861 342.752 614.161 343.979C615.461 345.205 614.849 348.167 614.505 350.032C614.161 351.898 606.81 350.808 606.499 353.955C606.189 357.102 607.514 371.293 603.804 372.711C600.095 374.13 593.396 371.089 591.477 368.17C589.557 365.251 590.103 359.16 590.284 355.678C590.466 352.195 598.696 342.738 600.425 341.558Z" fill="#BFBFBF"/>
</g>
<g opacity="0.8">
<path d="M824.247 188.302C824.003 185.591 814.924 182.36 810.415 181.083C805.581 179.509 797.562 182.244 796.602 182.33C795.642 182.417 794.757 180.863 794.12 179.583C793.483 178.304 787.967 182.367 787.295 183.171C786.623 183.974 785.005 183.377 782.643 181.957C780.28 180.536 778.355 186.429 776.878 186.562C775.4 186.695 774.221 184.351 772.597 182.863C770.973 181.376 763.362 185.331 763.582 187.762C763.801 190.194 771.147 189.902 771.3 191.596C771.453 193.291 764.828 190.844 764.121 193.73C763.413 196.616 771.497 204.502 772.71 207.215C773.923 209.928 771.484 212.6 772.375 214.228C773.267 215.855 782.27 217.419 784.358 217.454C786.446 217.488 785.09 209.069 789.683 209.62C794.275 210.171 787.782 218.259 790.541 219.124C793.3 219.989 798.001 218.45 799.848 218.284C801.694 218.117 801.194 222.47 800.453 224.988C799.712 227.506 797.751 228.054 794.703 228.107C791.654 228.159 788.608 233.188 787.864 239.791C787.12 246.394 788.722 249.295 788.908 251.358C789.094 253.421 789.061 261.297 789.986 263.293C790.911 265.289 802.655 264.229 804.051 264.846C805.447 265.463 805.73 272.716 810.976 270.608C816.222 268.501 812.905 260.63 812.753 257.301C812.602 253.973 816.634 249.969 817.642 248.764C818.65 247.559 821.675 243.126 821.562 241.874C821.449 240.621 820.143 236.877 820.01 235.404C819.877 233.93 820.096 229.751 819.747 221.761C819.398 213.77 804.971 210.691 803.246 209.732C801.521 208.774 798.77 206.348 799.597 204.788C800.425 203.228 804.886 207.282 807.309 209.366C809.731 211.449 812.922 208.859 814.03 208.759C815.138 208.659 815.29 211.987 816.532 211.727C817.775 211.466 821.593 206.739 822.614 205.681C823.636 204.623 829.273 208.497 829.542 207.358C829.758 206.448 827.524 201.772 826.38 199.548C825.771 196.929 824.492 191.013 824.247 188.302Z" fill="#BFBFBF"/>
<path d="M797.269 269.393C797.34 268.127 795.551 265.398 794.647 264.192C794.387 263.836 791.517 261.827 790.189 261.47C788.861 261.112 787.15 262.674 786.056 263.632C784.962 264.589 782.562 264.663 780.609 266.103C778.656 267.543 774.815 276.525 775.359 279.481C775.904 282.437 780.584 285.569 783.277 285.659C785.97 285.75 789.772 282.998 791.998 281.509C794.224 280.02 797.18 270.976 797.269 269.393Z" fill="#BFBFBF"/>
<path d="M800.645 162.572C802.055 163.475 803.631 167.47 804.242 169.354C804.427 169.903 804.416 174.481 803.797 176.158C803.178 177.834 800.214 178.431 798.362 178.845C796.511 179.259 794.635 172.069 791.617 173.016C788.6 173.962 776.062 180.74 773.304 177.882C770.546 175.024 770.72 167.67 772.654 164.761C774.588 161.851 780.406 159.968 783.681 158.771C786.957 157.573 798.882 161.443 800.645 162.572Z" fill="#BFBFBF"/>
<path d="M747.602 177.602C746.417 175.151 736.782 175.326 732.113 175.719C727.035 175.949 720.493 181.333 719.625 181.753C718.757 182.172 717.381 181.029 716.334 180.056C715.288 179.083 711.556 184.829 711.21 185.818C710.864 186.806 709.14 186.818 706.429 186.32C703.717 185.823 703.991 192.016 702.656 192.662C701.32 193.307 699.39 191.528 697.347 190.708C695.303 189.888 689.573 196.271 690.635 198.469C691.697 200.667 698.469 197.806 699.21 199.338C699.95 200.87 692.887 200.914 693.242 203.864C693.597 206.815 703.941 211.347 706.032 213.459C708.123 215.571 706.78 218.93 708.188 220.14C709.596 221.349 718.573 219.641 720.539 218.938C722.506 218.234 718.271 210.832 722.763 209.73C727.255 208.628 724.027 218.485 726.914 218.322C729.801 218.16 733.659 215.064 735.329 214.257C736.998 213.451 738.063 217.701 738.257 220.319C738.451 222.936 736.808 224.14 733.974 225.263C731.139 226.386 730.06 232.166 731.69 238.608C733.32 245.05 735.841 247.2 736.742 249.065C737.643 250.93 740.386 258.313 741.955 259.856C743.524 261.398 754.142 256.268 755.666 256.354C757.19 256.439 760.01 263.128 764.177 259.307C768.344 255.487 762.467 249.289 761.152 246.227C759.838 243.165 762.201 237.998 762.72 236.515C763.239 235.032 764.509 229.818 763.962 228.685C763.415 227.553 760.873 224.509 760.23 223.177C759.586 221.844 758.318 217.856 755.177 210.501C752.035 203.146 737.448 205.346 735.496 205.057C733.544 204.768 730.115 203.467 730.34 201.715C730.565 199.964 736.168 202.186 739.169 203.283C742.17 204.38 744.245 200.831 745.246 200.347C746.248 199.863 747.563 202.925 748.633 202.243C749.704 201.561 751.612 195.792 752.196 194.442C752.779 193.093 759.419 194.732 759.27 193.571C759.151 192.643 755.413 189.054 753.559 187.376C752.067 185.139 748.786 180.053 747.602 177.602Z" fill="#BFBFBF"/>
<path d="M761.452 220.534C761.163 221.768 762.453 224.766 763.134 226.111C763.328 226.506 765.806 228.982 767.053 229.564C768.299 230.146 770.254 228.904 771.497 228.151C772.741 227.397 775.118 227.741 777.29 226.66C779.463 225.58 784.802 217.4 784.778 214.394C784.754 211.388 780.687 207.493 778.051 206.937C775.414 206.381 771.193 208.433 768.743 209.514C766.292 210.595 761.814 218.991 761.452 220.534Z" fill="#BFBFBF"/>
<path d="M736.013 285.481C734.78 284.348 733.92 280.14 733.644 278.178C733.557 277.605 734.361 273.098 735.261 271.555C736.162 270.011 739.185 269.936 741.08 269.849C742.975 269.762 743.577 277.169 746.713 276.759C749.848 276.35 763.371 271.847 765.592 275.139C767.813 278.431 766.368 285.644 763.959 288.174C761.55 290.705 755.494 291.552 752.061 292.163C748.627 292.775 737.553 286.898 736.013 285.481Z" fill="#BFBFBF"/>
</g>
<g opacity="0.8">
<path d="M834.247 338.302C834.003 335.591 824.924 332.36 820.415 331.083C815.581 329.509 807.562 332.244 806.602 332.33C805.642 332.417 804.757 330.863 804.12 329.583C803.483 328.304 797.967 332.367 797.295 333.171C796.623 333.974 795.005 333.377 792.643 331.957C790.28 330.536 788.355 336.429 786.878 336.562C785.4 336.695 784.221 334.351 782.597 332.863C780.973 331.376 773.362 335.331 773.582 337.762C773.801 340.194 781.147 339.902 781.3 341.596C781.453 343.291 774.828 340.844 774.121 343.73C773.413 346.616 781.497 354.502 782.71 357.215C783.923 359.928 781.484 362.6 782.375 364.228C783.267 365.855 792.27 367.419 794.358 367.454C796.446 367.488 795.09 359.069 799.683 359.62C804.275 360.171 797.782 368.259 800.541 369.124C803.3 369.989 808.001 368.45 809.848 368.284C811.694 368.117 811.194 372.47 810.453 374.988C809.712 377.506 807.751 378.054 804.703 378.107C801.654 378.159 798.608 383.188 797.864 389.791C797.12 396.394 798.722 399.295 798.908 401.358C799.094 403.421 799.061 411.297 799.986 413.293C800.911 415.289 812.655 414.229 814.051 414.846C815.447 415.463 815.73 422.716 820.976 420.608C826.222 418.501 822.905 410.63 822.753 407.301C822.602 403.973 826.634 399.969 827.642 398.764C828.65 397.559 831.675 393.126 831.562 391.874C831.449 390.621 830.143 386.877 830.01 385.404C829.877 383.93 830.096 379.751 829.747 371.761C829.398 363.77 814.971 360.691 813.246 359.732C811.521 358.774 808.77 356.348 809.597 354.788C810.425 353.228 814.886 357.282 817.309 359.366C819.731 361.449 822.922 358.859 824.03 358.759C825.138 358.659 825.29 361.987 826.532 361.727C827.775 361.466 831.593 356.739 832.614 355.681C833.636 354.623 839.273 358.497 839.542 357.358C839.758 356.448 837.524 351.772 836.38 349.548C835.771 346.929 834.492 341.013 834.247 338.302Z" fill="#BFBFBF"/>
<path d="M807.269 419.393C807.34 418.127 805.551 415.398 804.647 414.192C804.387 413.836 801.517 411.827 800.189 411.47C798.861 411.112 797.15 412.674 796.056 413.632C794.962 414.589 792.562 414.663 790.609 416.103C788.656 417.543 784.815 426.525 785.359 429.481C785.904 432.437 790.584 435.569 793.277 435.659C795.97 435.75 799.772 432.998 801.998 431.509C804.224 430.02 807.18 420.976 807.269 419.393Z" fill="#BFBFBF"/>
<path d="M810.645 312.572C812.055 313.475 813.631 317.47 814.242 319.354C814.427 319.903 814.416 324.481 813.797 326.158C813.178 327.834 810.214 328.431 808.362 328.845C806.511 329.259 804.635 322.069 801.617 323.016C798.6 323.962 786.062 330.74 783.304 327.882C780.546 325.024 780.72 317.67 782.654 314.761C784.588 311.851 790.406 309.968 793.681 308.771C796.957 307.573 808.882 311.443 810.645 312.572Z" fill="#BFBFBF"/>
<path d="M757.602 327.602C756.417 325.151 746.782 325.326 742.113 325.719C737.035 325.949 730.493 331.333 729.625 331.753C728.757 332.172 727.381 331.029 726.334 330.056C725.288 329.083 721.556 334.829 721.21 335.818C720.864 336.806 719.14 336.818 716.429 336.32C713.717 335.823 713.991 342.016 712.656 342.662C711.32 343.307 709.39 341.528 707.347 340.708C705.303 339.888 699.573 346.271 700.635 348.469C701.697 350.667 708.469 347.806 709.21 349.338C709.95 350.87 702.887 350.914 703.242 353.864C703.597 356.815 713.941 361.347 716.032 363.459C718.123 365.571 716.78 368.93 718.188 370.14C719.596 371.349 728.573 369.641 730.539 368.938C732.506 368.234 728.271 360.832 732.763 359.73C737.255 358.628 734.027 368.485 736.914 368.322C739.801 368.16 743.659 365.064 745.329 364.257C746.998 363.451 748.063 367.701 748.257 370.319C748.451 372.936 746.808 374.14 743.974 375.263C741.139 376.386 740.06 382.166 741.69 388.608C743.32 395.05 745.841 397.2 746.742 399.065C747.643 400.93 750.386 408.313 751.955 409.856C753.524 411.398 764.142 406.268 765.666 406.354C767.19 406.439 770.01 413.128 774.177 409.307C778.344 405.487 772.467 399.289 771.152 396.227C769.838 393.165 772.201 387.998 772.72 386.515C773.239 385.032 774.509 379.818 773.962 378.685C773.415 377.553 770.873 374.509 770.23 373.177C769.586 371.844 768.318 367.856 765.177 360.501C762.035 353.146 747.448 355.346 745.496 355.057C743.544 354.768 740.115 353.467 740.34 351.715C740.565 349.964 746.168 352.186 749.169 353.283C752.17 354.38 754.245 350.831 755.246 350.347C756.248 349.863 757.563 352.925 758.633 352.243C759.704 351.561 761.612 345.792 762.196 344.442C762.779 343.093 769.419 344.732 769.27 343.571C769.151 342.643 765.413 339.054 763.559 337.376C762.067 335.139 758.786 330.053 757.602 327.602Z" fill="#BFBFBF"/>
<path d="M771.452 370.534C771.163 371.768 772.453 374.766 773.134 376.111C773.328 376.506 775.806 378.982 777.053 379.564C778.299 380.146 780.254 378.904 781.497 378.151C782.741 377.397 785.118 377.741 787.29 376.66C789.463 375.58 794.802 367.4 794.778 364.394C794.754 361.388 790.687 357.493 788.051 356.937C785.414 356.381 781.193 358.433 778.743 359.514C776.292 360.595 771.814 368.991 771.452 370.534Z" fill="#BFBFBF"/>
<path d="M746.013 435.481C744.78 434.348 743.92 430.14 743.644 428.178C743.557 427.605 744.361 423.098 745.261 421.555C746.162 420.011 749.185 419.936 751.08 419.849C752.975 419.762 753.577 427.169 756.713 426.759C759.848 426.35 773.371 421.847 775.592 425.139C777.813 428.431 776.368 435.644 773.959 438.174C771.55 440.705 765.494 441.552 762.061 442.163C758.627 442.775 747.553 436.898 746.013 435.481Z" fill="#BFBFBF"/>
</g>
<path d="M306.609 148.177C305.906 145.403 295.947 143.553 291.056 142.974C285.778 142.141 277.907 146.307 276.925 146.556C275.942 146.805 274.766 145.338 273.894 144.115C273.021 142.893 267.968 148.024 267.403 148.969C266.839 149.914 265.061 149.563 262.373 148.479C259.686 147.395 258.663 153.831 257.152 154.214C255.641 154.597 254.028 152.359 252.096 151.084C250.165 149.809 242.92 155.174 243.55 157.661C244.18 160.149 251.757 158.629 252.196 160.363C252.636 162.097 245.354 160.653 245.097 163.767C244.841 166.88 254.538 173.727 256.246 176.342C257.954 178.957 255.864 182.134 257.059 183.676C258.254 185.218 267.858 185.351 270.031 185.04C272.204 184.73 269.403 176.216 274.261 176.027C279.119 175.839 273.718 185.309 276.725 185.75C279.732 186.191 284.358 183.816 286.247 183.337C288.136 182.858 288.337 187.46 287.985 190.196C287.633 192.932 285.688 193.826 282.533 194.385C279.377 194.944 277.048 200.668 277.369 207.646C277.69 214.623 279.833 217.369 280.368 219.479C280.903 221.589 282.172 229.77 283.463 231.689C284.753 233.608 296.768 230.563 298.32 230.972C299.871 231.381 301.365 238.863 306.461 235.807C311.557 232.75 306.811 225.13 306.103 221.7C305.394 218.27 308.917 213.447 309.764 212.029C310.611 210.611 313.017 205.509 312.692 204.228C312.367 202.947 310.392 199.276 310.01 197.769C309.628 196.261 309.162 191.887 307.477 183.651C305.792 175.416 290.307 174.608 288.358 173.898C286.409 173.189 283.152 171.127 283.752 169.37C284.353 167.614 289.655 171.083 292.514 172.845C295.373 174.607 298.257 171.389 299.391 171.102C300.524 170.815 301.233 174.245 302.479 173.769C303.726 173.292 306.906 167.754 307.791 166.486C308.676 165.219 315.169 168.307 315.26 167.08C315.333 166.099 312.24 161.616 310.684 159.497C309.619 156.879 307.312 150.95 306.609 148.177Z" fill="#BFBFBF"/>
<path d="M292.033 236.815C291.897 235.49 289.588 232.953 288.45 231.85C288.121 231.524 284.81 229.914 283.372 229.763C281.934 229.612 280.417 231.516 279.44 232.691C278.463 233.866 275.984 234.34 274.195 236.159C272.407 237.977 269.907 247.936 270.961 250.914C272.016 253.892 277.393 256.368 280.203 256.016C283.013 255.664 286.503 252.178 288.568 250.264C290.632 248.35 292.203 238.472 292.033 236.815Z" fill="#BFBFBF"/>
<path d="M277.85 125.377C279.463 126.081 281.76 129.967 282.707 131.822C282.99 132.361 283.737 137.114 283.372 138.957C283.007 140.8 280.029 141.911 278.175 142.647C276.322 143.383 273.184 136.23 270.209 137.712C267.234 139.195 255.342 148.305 252.006 145.796C248.67 143.286 247.633 135.624 249.158 132.284C250.684 128.943 256.412 126.026 259.613 124.241C262.815 122.455 275.833 124.497 277.85 125.377Z" fill="#BFBFBF"/>
<path d="M225.282 149.76C223.646 147.412 213.674 149.189 208.893 150.371C203.66 151.45 197.761 158.122 196.929 158.701C196.098 159.28 194.48 158.321 193.233 157.485C191.985 156.648 189.064 163.23 188.868 164.313C188.673 165.397 186.885 165.694 183.989 165.627C181.092 165.559 182.402 171.943 181.122 172.834C179.843 173.725 177.545 172.198 175.288 171.685C173.031 171.172 168.14 178.746 169.607 180.852C171.073 182.958 177.629 178.867 178.651 180.334C179.672 181.802 172.349 183.017 173.206 186.021C174.062 189.024 185.55 192.016 188.07 193.862C190.59 195.708 189.753 199.417 191.415 200.439C193.076 201.461 202.111 198.202 204.036 197.147C205.96 196.091 200.339 189.109 204.819 187.221C209.299 185.333 207.581 196.099 210.551 195.453C213.52 194.806 217.012 190.953 218.612 189.84C220.211 188.726 222.02 192.962 222.655 195.646C223.289 198.331 221.784 199.853 219.028 201.488C216.272 203.123 216.108 209.3 218.867 215.718C221.625 222.135 224.598 223.949 225.842 225.736C227.086 227.522 231.156 234.732 233.04 236.073C234.924 237.414 245.096 230.331 246.692 230.168C248.288 230.004 252.322 236.48 256.015 231.824C259.707 227.169 252.581 221.709 250.709 218.748C248.838 215.788 250.435 210.033 250.729 208.407C251.022 206.782 251.477 201.16 250.721 200.075C249.966 198.99 246.824 196.251 245.935 194.975C245.047 193.699 243.07 189.769 238.592 182.655C234.113 175.541 219.336 180.239 217.262 180.262C215.188 180.285 211.414 179.503 211.357 177.647C211.3 175.792 217.484 177.171 220.781 177.812C224.078 178.454 225.643 174.427 226.603 173.759C227.562 173.09 229.434 176.051 230.433 175.166C231.431 174.281 232.456 167.977 232.838 166.48C233.221 164.982 240.384 165.584 240.038 164.404C239.76 163.46 235.286 160.354 233.083 158.919C231.164 156.844 226.917 152.108 225.282 149.76Z" fill="#BFBFBF"/>
<path d="M246.767 192.029C246.671 193.358 248.506 196.256 249.435 197.539C249.703 197.917 252.685 200.077 254.075 200.475C255.465 200.872 257.289 199.26 258.455 198.272C259.62 197.284 262.144 197.247 264.221 195.766C266.297 194.285 270.485 184.91 269.962 181.794C269.439 178.678 264.573 175.308 261.744 175.168C258.916 175.027 254.874 177.856 252.509 179.384C250.145 180.911 246.886 190.367 246.767 192.029Z" fill="#BFBFBF"/>
<path d="M231.114 263.656C229.647 262.683 228.058 258.458 227.447 256.467C227.262 255.887 227.35 251.076 228.029 249.324C228.707 247.573 231.833 246.995 233.786 246.591C235.738 246.187 237.59 253.775 240.777 252.831C243.964 251.886 257.254 244.973 260.105 248.023C262.956 251.073 262.65 258.798 260.568 261.824C258.487 264.849 252.341 266.731 248.878 267.934C245.416 269.138 232.948 264.872 231.114 263.656Z" fill="#BFBFBF"/>
<path d="M191.832 267.724C191.367 270.547 199.754 276.226 204.006 278.713C208.51 281.588 217.39 280.917 218.39 281.082C219.39 281.247 219.881 283.061 220.192 284.531C220.503 286 227.186 283.319 228.082 282.678C228.978 282.038 230.467 283.071 232.496 285.139C234.526 287.207 238.037 281.718 239.576 281.971C241.114 282.224 241.697 284.921 242.957 286.862C244.218 288.803 253.004 286.783 253.421 284.252C253.838 281.72 246.286 280.082 246.577 278.317C246.868 276.553 252.965 280.788 254.445 278.037C255.925 275.286 249.776 265.133 249.256 262.052C248.736 258.972 251.922 256.897 251.444 255.005C250.965 253.114 242.216 249.151 240.1 248.566C237.985 247.981 237.147 256.906 232.619 255.135C228.091 253.365 236.829 246.845 234.249 245.238C231.669 243.632 226.48 243.959 224.557 243.642C222.634 243.325 224.29 239.028 225.707 236.66C227.124 234.293 229.264 234.252 232.38 235.002C235.496 235.751 239.92 231.437 242.416 224.913C244.913 218.39 244.047 215.016 244.4 212.868C244.754 210.72 246.863 202.714 246.448 200.439C246.032 198.164 233.802 196.15 232.544 195.155C231.286 194.159 232.909 186.704 227.016 187.467C221.122 188.23 222.424 197.113 221.702 200.54C220.979 203.967 215.822 206.979 214.479 207.939C213.135 208.9 208.889 212.614 208.674 213.918C208.46 215.222 208.802 219.376 208.55 220.911C208.297 222.445 206.974 226.64 205.224 234.863C203.475 243.085 217.344 250.019 218.847 251.449C220.35 252.878 222.51 256.071 221.257 257.441C220.004 258.81 216.532 253.51 214.616 250.752C212.7 247.993 208.77 249.789 207.617 249.599C206.463 249.409 207.185 245.982 205.852 245.92C204.519 245.858 199.389 249.662 198.071 250.469C196.753 251.277 192.038 245.851 191.463 246.938C191.004 247.808 192.046 253.154 192.624 255.719C192.554 258.544 192.297 264.9 191.832 267.724Z" fill="#BFBFBF"/>
<path d="M240.643 192.314C240.238 193.583 241.34 196.832 241.941 198.297C242.112 198.728 244.503 201.528 245.761 202.241C247.018 202.955 249.17 201.816 250.536 201.13C251.901 200.444 254.363 201.001 256.729 200.05C259.096 199.098 265.37 190.971 265.595 187.82C265.819 184.668 261.882 180.249 259.165 179.447C256.449 178.645 251.856 180.445 249.198 181.373C246.54 182.302 241.15 190.727 240.643 192.314Z" fill="#BFBFBF"/>
<path d="M209.072 300.123C207.874 298.833 207.323 294.352 207.197 292.274C207.153 291.666 208.37 287.011 209.442 285.468C210.514 283.925 213.688 284.098 215.681 284.164C217.674 284.231 217.689 292.042 221.008 291.873C224.328 291.705 238.872 288.111 240.925 291.745C242.979 295.379 240.865 302.817 238.131 305.268C235.396 307.719 228.98 308.103 225.332 308.458C221.683 308.814 210.568 301.736 209.072 300.123Z" fill="#BFBFBF"/>
<path d="M267.004 298.8C267.563 301.606 277.413 303.966 282.269 304.795C287.497 305.899 295.571 302.143 296.565 301.945C297.559 301.747 298.658 303.272 299.467 304.538C300.275 305.804 305.586 300.94 306.198 300.025C306.811 299.11 308.568 299.552 311.196 300.773C313.824 301.993 315.176 295.618 316.705 295.314C318.235 295.009 319.73 297.327 321.594 298.7C323.457 300.073 330.968 295.087 330.467 292.57C329.965 290.054 322.32 291.182 321.971 289.428C321.621 287.674 328.819 289.49 329.236 286.394C329.652 283.298 320.32 275.961 318.748 273.262C317.177 270.562 319.427 267.497 318.313 265.896C317.199 264.294 307.615 263.668 305.429 263.866C303.242 264.064 305.602 272.711 300.741 272.649C295.88 272.588 301.76 263.408 298.78 262.813C295.8 262.217 291.058 264.352 289.147 264.733C287.236 265.114 287.271 260.508 287.764 257.794C288.256 255.079 290.244 254.287 293.424 253.89C296.604 253.494 299.225 247.898 299.263 240.913C299.302 233.928 297.302 231.076 296.877 228.941C296.451 226.806 295.604 218.571 294.414 216.588C293.224 214.605 281.068 217.028 279.54 216.54C278.012 216.052 276.904 208.503 271.658 211.293C266.411 214.083 270.759 221.938 271.29 225.4C271.821 228.862 268.056 233.497 267.137 234.87C266.218 236.242 263.552 241.213 263.811 242.51C264.069 243.806 265.854 247.573 266.158 249.098C266.462 250.623 266.701 255.015 267.961 263.327C269.22 271.639 284.643 273.242 286.553 274.051C288.463 274.859 291.61 277.086 290.92 278.809C290.23 280.533 285.113 276.795 282.348 274.889C279.583 272.982 276.538 276.047 275.391 276.276C274.244 276.504 273.713 273.042 272.444 273.454C271.174 273.866 267.714 279.233 266.764 280.453C265.815 281.673 259.49 278.256 259.336 279.476C259.213 280.452 262.071 285.089 263.516 287.285C264.445 289.954 266.444 295.993 267.004 298.8Z" fill="#BFBFBF"/>
<path d="M264.217 251.466C264.836 250.286 264.314 246.895 263.975 245.348C263.881 244.894 262.012 241.722 260.897 240.801C259.782 239.881 257.465 240.63 256.002 241.069C254.538 241.508 252.21 240.533 249.714 241.06C247.218 241.587 239.631 248.504 238.864 251.569C238.097 254.634 241.209 259.669 243.746 260.929C246.282 262.189 251.118 261.213 253.896 260.758C256.674 260.304 263.443 252.94 264.217 251.466Z" fill="#BFBFBF"/>
<path d="M307.211 192.077C308.167 193.556 307.934 198.064 307.697 200.133C307.635 200.738 305.63 205.113 304.308 206.447C302.985 207.781 299.889 207.061 297.938 206.65C295.986 206.239 297.324 198.544 294.026 198.135C290.727 197.725 275.781 198.746 274.388 194.81C272.995 190.875 276.365 183.917 279.483 181.976C282.601 180.035 288.986 180.769 292.641 181.051C296.296 181.333 306.017 190.23 307.211 192.077Z" fill="#BFBFBF"/>
<g opacity="0.8">
<path d="M627.07 125.907C627.716 123.12 619.711 116.912 615.628 114.157C611.319 110.998 602.414 111.095 601.427 110.867C600.44 110.638 600.066 108.795 599.851 107.309C599.635 105.822 592.793 108.068 591.858 108.649C590.923 109.231 589.504 108.104 587.611 105.909C585.719 103.715 581.862 108.967 580.343 108.615C578.824 108.263 578.416 105.534 577.283 103.516C576.15 101.498 567.252 102.948 566.673 105.447C566.094 107.947 573.524 110.068 573.121 111.81C572.717 113.552 566.905 108.933 565.251 111.583C563.597 114.233 569.079 124.761 569.4 127.869C569.72 130.976 566.407 132.842 566.762 134.76C567.118 136.678 575.594 141.196 577.668 141.916C579.741 142.636 581.152 133.784 585.557 135.843C589.961 137.901 580.822 143.844 583.293 145.614C585.763 147.384 590.963 147.391 592.862 147.831C594.76 148.271 592.831 152.453 591.264 154.724C589.698 156.995 587.56 156.899 584.498 155.95C581.437 155.001 576.745 159.022 573.833 165.371C570.922 171.72 571.569 175.143 571.078 177.264C570.586 179.385 567.966 187.238 568.234 189.535C568.502 191.832 580.577 194.63 581.769 195.704C582.96 196.778 580.86 204.113 586.79 203.732C592.72 203.35 591.993 194.402 592.935 191.028C593.877 187.655 599.217 184.981 600.62 184.109C602.022 183.237 606.499 179.804 606.797 178.517C607.095 177.229 607.021 173.061 607.372 171.546C607.723 170.031 609.313 165.93 611.589 157.838C613.864 149.745 600.47 141.932 599.063 140.409C597.655 138.885 595.705 135.56 597.043 134.274C598.382 132.988 601.505 138.501 603.24 141.377C604.974 144.253 609.011 142.714 610.151 142.978C611.29 143.242 610.348 146.615 611.674 146.763C613 146.911 618.365 143.445 619.732 142.724C621.099 142.003 625.456 147.722 626.099 146.674C626.613 145.835 625.918 140.433 625.506 137.836C625.758 135.021 626.424 128.695 627.07 125.907Z" fill="#BFBFBF"/>
<path d="M573.503 198.017C573.989 196.777 573.099 193.464 572.593 191.962C572.45 191.522 570.244 188.573 569.035 187.78C567.826 186.988 565.605 187.985 564.199 188.582C562.792 189.179 560.371 188.464 557.948 189.261C555.525 190.058 548.74 197.764 548.314 200.895C547.887 204.026 551.531 208.689 554.19 209.664C556.849 210.639 561.549 209.139 564.261 208.384C566.973 207.628 572.895 199.568 573.503 198.017Z" fill="#BFBFBF"/>
<path d="M611.951 92.465C613.063 93.8298 613.325 98.3362 613.316 100.419C613.321 101.028 611.807 105.595 610.638 107.066C609.469 108.537 606.313 108.16 604.328 107.965C602.344 107.77 602.832 99.9747 599.508 99.929C596.185 99.8834 581.44 102.533 579.624 98.7743C577.809 95.0152 580.397 87.7296 583.284 85.4593C586.171 83.1891 592.598 83.2197 596.262 83.0997C599.926 82.9798 610.562 90.7591 611.951 92.465Z" fill="#BFBFBF"/>
<path d="M570.472 119.448C572.438 117.369 568.665 107.968 566.533 103.528C564.41 98.6248 556.675 94.2106 555.939 93.5145C555.202 92.8183 555.811 91.0397 556.376 89.6477C556.94 88.2557 549.901 86.7377 548.8 86.7673C547.7 86.7969 547.044 85.1073 546.52 82.2577C545.995 79.408 540.013 81.992 538.88 80.921C537.747 79.85 538.773 77.2891 538.815 74.975C538.856 72.6609 530.444 69.4175 528.682 71.2822C526.919 73.147 532.261 78.7308 531.033 80.0305C529.804 81.3302 527.122 74.4082 524.356 75.8593C521.59 77.3105 521.003 89.1667 519.71 92.0101C518.417 94.8536 514.614 94.7905 513.953 96.6257C513.291 98.4609 518.323 106.641 519.749 108.31C521.176 109.979 526.865 103.052 529.626 107.054C532.388 111.055 521.498 111.568 522.736 114.343C523.975 117.118 528.458 119.751 529.875 121.09C531.291 122.429 527.513 125.064 525.014 126.232C522.515 127.401 520.718 126.238 518.556 123.873C516.393 121.508 510.312 122.607 504.592 126.616C498.873 130.625 497.702 133.906 496.207 135.488C494.711 137.07 488.483 142.524 487.554 144.642C486.626 146.76 495.634 155.274 496.119 156.803C496.605 158.332 491.087 163.602 496.398 166.268C501.709 168.934 505.601 160.844 508.118 158.408C510.635 155.972 516.594 156.363 518.245 156.318C519.896 156.274 525.493 155.573 526.401 154.612C527.309 153.652 529.35 150.017 530.418 148.887C531.487 147.757 534.931 145.021 540.982 139.186C547.034 133.351 539.421 119.842 538.976 117.817C538.531 115.791 538.527 111.936 540.332 111.502C542.136 111.068 542.048 117.404 542.092 120.762C542.136 124.12 546.397 124.831 547.247 125.635C548.097 126.438 545.58 128.874 546.65 129.671C547.72 130.468 554.101 130.187 555.645 130.255C557.189 130.324 558.06 137.46 559.145 136.88C560.012 136.416 562.141 131.402 563.097 128.954C564.736 126.652 568.507 121.528 570.472 119.448Z" fill="#BFBFBF"/>
<path d="M548.275 132.754C547.581 133.891 547.884 137.308 548.122 138.875C548.186 139.333 549.848 142.619 550.901 143.61C551.955 144.6 554.315 144.002 555.803 143.658C557.292 143.314 559.553 144.437 562.077 144.072C564.602 143.707 572.619 137.292 573.582 134.283C574.544 131.274 571.763 126.049 569.313 124.629C566.863 123.208 561.974 123.87 559.172 124.145C556.371 124.419 549.142 131.332 548.275 132.754Z" fill="#BFBFBF"/>
<path d="M500.467 163.868C501.7 162.612 506.15 161.854 508.221 161.632C508.826 161.56 513.533 162.56 515.123 163.559C516.714 164.558 516.688 167.737 516.714 169.731C516.74 171.725 508.938 172.101 509.26 175.41C509.582 178.718 513.846 193.08 510.31 195.299C506.775 197.519 499.248 195.752 496.673 193.134C494.097 190.516 493.417 184.124 492.893 180.496C492.369 176.868 498.925 165.437 500.467 163.868Z" fill="#BFBFBF"/>
</g>
<circle cx="252" cy="292" r="33" fill="#9C9C9C"/>
<circle cx="252" cy="292" r="20" fill="#828282"/>
<circle cx="252" cy="292" r="4.5" fill="black" stroke="black"/>
<circle cx="247" cy="282" r="4.5" fill="black" stroke="black"/>
<circle cx="260" cy="284" r="4.5" fill="black" stroke="black"/>
<circle cx="265" cy="294" r="4.5" fill="black" stroke="black"/>
<circle cx="257" cy="303" r="4.5" fill="black" stroke="black"/>
<circle cx="245" cy="302" r="4.5" fill="black" stroke="black"/>
<circle cx="240" cy="292" r="4.5" fill="black" stroke="black"/>
<path d="M355.5 76.5L368.5 66" stroke="black"/>
<path d="M317.5 110.5C307.5 120.5 252.667 177.333 226.5 204.5C224.069 207.023 212.759 207.23 206.5 204.5C202.46 202.738 203.442 198.178 200.5 197.5C201 193.833 202.3 191.6 209.5 184C218.5 174.5 347 53.4999 362 50.9999C374 48.9999 379.333 63.4999 380.5 70.9999C379.333 72.9999 376.3 77.8999 373.5 81.4999C370.7 85.0999 360.667 82.9999 355.5 81.4999L354.5 76.9999C346.333 83.9999 327.5 100.5 317.5 110.5Z" fill="#949494"/>
<path d="M355 86.5V76.5C356.833 76.5 359.9 81.5 367.5 81.5C375.1 81.5 379.833 70.8333 380 68L386.5 86.5C385.167 89.8333 380 96.5 370 96.5C360 96.5 355.833 89.8333 355 86.5Z" fill="#7A7A7A"/>
<path d="M226.5 205V211.5C223.833 213.167 213.5 216.5 208.5 214C203.5 211.5 201.833 209.167 200.5 205V195C202.167 198.333 207.454 202.475 212 205C216.5 207.5 223.5 205 226.5 205Z" fill="#7A7A7A"/>
</svg>
