<svg width="834" height="720" fill="none" xmlns="http://www.w3.org/2000/svg"><rect x="3" y="3" width="828" height="714" rx="5" fill="#fff" stroke="#D9D9D9" stroke-width="5" stroke-linejoin="round"/><rect x="41.781" y="35.777" width="537.51" height="649.564" rx="70" fill="#fff" stroke="#D9D9D9" stroke-width="5" stroke-linejoin="round"/><rect x="103.062" y="104.061" width="458.721" height="565.523" rx="70" fill="#fff" stroke="#D9D9D9" stroke-width="5" stroke-linejoin="round"/><circle cx="411.215" cy="413.961" r="57.778" fill="#fff" stroke="#D9D9D9" stroke-width="5" stroke-linejoin="round"/><circle cx="411.212" cy="413.96" r="35.017" fill="#fff" stroke="#D9D9D9" stroke-width="5" stroke-linejoin="round"/><circle cx="411.215" cy="413.961" r="8.754" fill="#fff" stroke="#D9D9D9" stroke-width="5" stroke-linejoin="round"/><circle cx="402.457" cy="396.451" r="8.754" fill="#fff" stroke="#D9D9D9" stroke-width="5" stroke-linejoin="round"/><circle cx="425.223" cy="399.953" r="8.754" fill="#fff" stroke="#D9D9D9" stroke-width="5" stroke-linejoin="round"/><circle cx="433.973" cy="417.462" r="8.754" fill="#fff" stroke="#D9D9D9" stroke-width="5" stroke-linejoin="round"/><circle cx="419.965" cy="433.22" r="8.754" fill="#fff" stroke="#D9D9D9" stroke-width="5" stroke-linejoin="round"/><circle cx="398.957" cy="431.469" r="8.754" fill="#fff" stroke="#D9D9D9" stroke-width="5" stroke-linejoin="round"/><circle cx="390.2" cy="413.961" r="8.754" fill="#fff" stroke="#D9D9D9" stroke-width="5" stroke-linejoin="round"/><path fill-rule="evenodd" clip-rule="evenodd" d="M511.908 289.486c-1.577-2.887.014-6.483 3.211-7.256 13.347-3.23 35.348-8.561 50.694-12.308 11.279-2.754 62.99-34.827 113.303-66.033 50.834-31.529 100.242-62.174 105.081-60.8 6.988 1.984 11.084 7.232 14.648 11.797 1.346 1.725 2.616 3.353 3.938 4.67 4.819 4.804 9.642 11.67 8.279 18.546-1.191 6.003-66.774 46.169-93 62.231a1923.555 1923.555 0 00-8.624 5.298c-3.359 2.086-10.815 6.417-20.364 11.963-31.455 18.267-85.62 49.725-90.881 57.643-4.841 7.288-25.003 32.628-37.846 48.573-2.232 2.771-6.555 2.372-8.261-.75l-40.178-73.574zm269.578-118.203c-3.853-6.957-12.617-9.474-19.574-5.622l-10.018 5.547c-6.958 3.853-9.475 12.616-5.622 19.574 3.852 6.958 12.616 9.475 19.574 5.623l10.017-5.547c6.958-3.853 9.475-12.617 5.623-19.575z" fill="#fff"/><path d="M565.813 269.922l-.593-2.429.593 2.429zm113.303-66.033l-1.318-2.125 1.318 2.125zm105.081-60.8l.683-2.405-.683 2.405zm14.648 11.797l-1.971 1.539 1.971-1.539zm3.938 4.67l1.765-1.771-1.765 1.771zm8.279 18.546l2.452.486-2.452-.486zm-93 62.231l1.305 2.132-1.305-2.132zm-8.624 5.298l1.319 2.123-1.319-2.123zm-20.364 11.963l-1.256-2.162 1.256 2.162zm-90.881 57.643l2.083 1.384-2.083-1.384zm163.719-149.576l-1.211-2.187 1.211 2.187zm-10.018 5.547l1.211 2.187-1.211-2.187zm-5.622 19.574l2.187-1.211-2.187 1.211zm19.574 5.623l1.211 2.187-1.211-2.187zm10.017-5.547l-1.211-2.188 1.211 2.188zM560.347 363.81l-1.947-1.568 1.947 1.568zm-45.228-81.58l-.588-2.43.588 2.43zm50.101-14.737a29713.132 29713.132 0 01-50.689 12.307l1.176 4.86c13.347-3.23 35.35-8.562 50.699-12.309l-1.186-4.858zm112.578-65.729c-25.163 15.608-50.647 31.414-71.249 43.662-10.303 6.126-19.36 11.347-26.533 15.203-7.288 3.918-12.345 6.266-14.796 6.864l1.186 4.858c3.187-.779 8.824-3.472 15.977-7.318 7.267-3.907 16.397-9.171 26.721-15.309 20.651-12.278 46.179-28.111 71.33-43.71l-2.636-4.25zm107.082-61.08c-.981-.279-2.019-.079-2.697.087-.802.196-1.729.518-2.737.923-2.026.813-4.635 2.064-7.713 3.663-6.171 3.205-14.437 7.921-24.102 13.642-19.338 11.447-44.424 27.006-69.833 42.765l2.636 4.25c25.425-15.77 50.46-31.298 69.744-42.713 9.646-5.709 17.816-10.368 23.86-13.507 3.028-1.573 5.469-2.737 7.271-3.46.905-.364 1.586-.59 2.063-.707.603-.147.518-.026.142-.133l1.366-4.81zm15.935 12.664c-3.507-4.493-8.057-10.427-15.935-12.664l-1.366 4.81c6.097 1.731 9.74 6.293 13.36 10.931l3.941-3.077zm3.733 4.437c-1.19-1.186-2.362-2.68-3.733-4.437l-3.941 3.077c1.322 1.693 2.691 3.453 4.144 4.902l3.53-3.542zm8.966 20.803c.827-4.171-.253-8.194-2.051-11.682-1.797-3.486-4.397-6.611-6.915-9.121l-3.53 3.542c2.302 2.294 4.523 5.004 6.001 7.871 1.477 2.865 2.127 5.714 1.59 8.418l4.905.972zm-94.147 63.877c13.11-8.029 36.087-22.101 55.939-34.919 9.922-6.406 19.095-12.52 25.875-17.42 3.383-2.446 6.216-4.621 8.259-6.399 1.018-.885 1.889-1.715 2.546-2.462.329-.374.638-.765.891-1.165.237-.375.515-.895.637-1.512l-4.905-.972c.048-.241.125-.32.043-.189a4.733 4.733 0 01-.42.536c-.448.509-1.133 1.173-2.074 1.992-1.874 1.631-4.564 3.703-7.906 6.118-6.672 4.822-15.757 10.879-25.658 17.272-19.794 12.781-42.721 26.823-55.838 34.856l2.611 4.264zm-8.61 5.289c1.822-1.131 4.794-2.952 8.61-5.289l-2.611-4.264c-3.809 2.333-6.799 4.164-8.638 5.306l2.639 4.247zm-20.428 12.002c9.526-5.533 17.028-9.89 20.428-12.002l-2.639-4.247c-3.317 2.061-10.727 6.365-20.3 11.925l2.511 4.324zm-90.053 56.865c.422-.636 1.563-1.783 3.614-3.44 1.976-1.597 4.588-3.507 7.718-5.664 6.255-4.311 14.459-9.529 23.511-15.09 18.1-11.119 39.477-23.534 55.21-32.671l-2.511-4.324c-15.721 9.13-37.154 21.578-55.316 32.734-9.078 5.577-17.368 10.849-23.731 15.234-3.18 2.191-5.908 4.182-8.024 5.892-2.041 1.65-3.743 3.218-4.636 4.562l4.165 2.767zm-37.982 48.757c12.796-15.887 33.059-41.347 37.982-48.757l-4.165-2.767c-4.76 7.165-24.822 32.385-37.711 48.388l3.894 3.136zm-52.58-74.693l40.178 73.573 4.388-2.397-40.178-73.573-4.388 2.397zm253.409-122.837c5.75-3.184 12.992-1.103 16.176 4.647l4.374-2.423c-4.522-8.165-14.807-11.119-22.972-6.598l2.422 4.374zm-10.018 5.547l10.018-5.547-2.422-4.374-10.018 5.547 2.422 4.374zm-4.646 16.176c-3.184-5.75-1.104-12.992 4.646-16.176l-2.422-4.374c-8.166 4.522-11.12 14.807-6.598 22.972l4.374-2.422zm16.176 4.646c-5.75 3.184-12.992 1.104-16.176-4.646l-4.374 2.422c4.521 8.166 14.806 11.12 22.972 6.599l-2.422-4.375zm10.017-5.547l-10.017 5.547 2.422 4.375 10.017-5.547-2.422-4.375zm4.647-16.175c3.183 5.749 1.103 12.992-4.647 16.175l2.422 4.375c8.166-4.522 11.12-14.807 6.599-22.973l-4.374 2.423zM558.4 362.242c-1.107 1.374-3.263 1.188-4.12-.381l-4.388 2.397c2.554 4.677 9.045 5.288 12.402 1.12l-3.894-3.136zM514.531 279.8c-4.797 1.16-7.181 6.556-4.817 10.885l4.388-2.397a2.499 2.499 0 011.605-3.628l-1.176-4.86z" fill="#D9D9D9"/><circle cx="335.815" cy="438.018" r="232.337" transform="rotate(-.093 335.815 438.018)" fill="#fff" stroke="#D9D9D9" stroke-width="5" stroke-linejoin="round"/><circle cx="345.437" cy="439.377" r="101.733" transform="rotate(-.093 345.437 439.377)" fill="#fff" stroke="#D9D9D9" stroke-width="5" stroke-linejoin="round"/></svg>