<svg width="1073" height="764" viewBox="0 0 1073 764" fill="none" xmlns="http://www.w3.org/2000/svg">
<rect width="1519.73" height="763.368" fill="#8C8C8C"/>
<rect x="33.2656" y="24.5117" width="1453.2" height="714.345" rx="41" fill="#A7A7A7"/>
<rect x="71.7852" y="57.7778" width="537.51" height="649.564" rx="78" fill="#7A7A7A"/>
<rect x="133.064" y="126.061" width="458.721" height="565.523" rx="68" fill="#B4B4B4"/>
<circle cx="441.213" cy="435.961" r="57.7779" fill="#9C9C9C"/>
<circle cx="441.212" cy="435.96" r="35.0169" fill="#828282"/>
<circle cx="441.213" cy="435.961" r="8.25423" fill="black" stroke="black"/>
<circle cx="432.459" cy="418.452" r="8.25423" fill="black" stroke="black"/>
<circle cx="455.219" cy="421.954" r="8.25423" fill="black" stroke="black"/>
<circle cx="463.975" cy="439.462" r="8.25423" fill="black" stroke="black"/>
<circle cx="449.966" cy="455.22" r="8.25423" fill="black" stroke="black"/>
<circle cx="428.957" cy="453.469" r="8.25423" fill="black" stroke="black"/>
<circle cx="420.202" cy="435.961" r="8.25423" fill="black" stroke="black"/>
<path d="M622.426 58.6534L645.187 40.2695" stroke="black"/>
<path fill-rule="evenodd" clip-rule="evenodd" d="M538.786 312.763C550.238 309.995 577.677 303.351 595.817 298.923C607.096 296.169 658.806 264.096 709.12 232.89C759.954 201.36 809.362 170.715 814.201 172.089C821.188 174.074 825.285 179.321 828.848 183.887C830.195 185.612 831.465 187.239 832.787 188.557C837.606 193.36 842.429 200.227 841.065 207.103C839.875 213.106 774.292 253.271 748.066 269.333C744.253 271.668 741.272 273.494 739.441 274.631C736.083 276.718 728.627 281.048 719.077 286.594C687.623 304.862 633.457 336.32 628.197 344.238C622.712 352.495 597.558 383.927 585.667 398.61L538.786 312.763ZM811.49 200.284C807.637 193.326 798.873 190.809 791.916 194.662L781.898 200.209C774.94 204.061 772.423 212.825 776.276 219.783C780.128 226.74 788.892 229.258 795.85 225.405L805.867 219.858C812.825 216.005 815.342 207.242 811.49 200.284Z" fill="#464137"/>
<circle cx="365.814" cy="467.018" r="232.337" transform="rotate(-0.0928106 365.814 467.018)" fill="#3A3A3A"/>
<circle cx="365.813" cy="467.017" r="222.714" transform="rotate(-0.0928106 365.813 467.017)" fill="#4A4A4A"/>
<circle cx="375.439" cy="468.377" r="101.733" transform="rotate(-0.0928106 375.439 468.377)" fill="#545454"/>
<path d="M564.285 113.814C547.424 130.676 506.784 168.759 462.664 214.566C458.565 218.821 439.495 219.17 428.941 214.566C422.13 211.595 423.784 203.907 418.824 202.763C419.667 196.58 421.859 192.815 433.999 180C449.175 163.982 614.026 17.7047 639.318 13.4894C659.552 10.1171 668.545 34.566 670.512 47.212C668.545 50.5843 663.43 58.8464 658.709 64.9165C653.988 70.9865 637.07 67.4457 628.358 64.9165L626.672 57.3289C612.902 69.1318 581.146 96.953 564.285 113.814Z" fill="#949494"/>
<path d="M627.516 73.3468V56.4855C630.607 56.4855 635.778 64.9161 648.592 64.9161C661.407 64.9161 669.388 46.9307 669.669 42.1533L680.629 73.3468C678.381 78.9673 669.669 90.2082 652.808 90.2082C635.946 90.2082 628.921 78.9673 627.516 73.3468Z" fill="#7A7A7A"/>
<path d="M463 216.096V228.509C458.487 231.692 441 238.057 432.538 233.283C424.077 228.509 421.256 224.053 419 216.096V197C421.821 203.365 430.769 211.274 438.462 216.096C446.077 220.871 457.923 216.096 463 216.096Z" fill="#7A7A7A"/>
</svg>
