<svg width="194" height="210" fill="none" xmlns="http://www.w3.org/2000/svg"><path d="M104.84 30.36C88.622 32.643 30.276 42.67 3.13 47.4c5.798 5.147 98.199-4.463 112.793-5.468 14.595-1.005 55.197-9.151 58.316-13.457 3.118-4.306-49.126-.965-69.399 1.887z" fill="#283857"/><path d="M149.106 14.649c2.452-1.545 7.666-1.716 9.966-1.609l6.267 4.17c2.817 1.873 3.312 5.026 3.207 6.368-.197 4.575-5.073 11.427-11.105 19.674-5.526 7.554-13.679 19.063-17.86 20.21-2.926 1.492-10.699-3.026-11.477-3.425.135-.175-.884-.489-3.525-2.246-3.59-2.388-3.069-6.111-1.57-9.283 1.499-3.172 17.317-24.513 18.53-26.088 1.214-1.575 4.502-5.84 7.567-7.771z" fill="#fff"/><path d="M143.405 10.857c2.452-1.545 7.666-1.717 9.966-1.61l6.267 4.17c2.817 1.874 3.312 5.027 3.207 6.37-.197 4.573-5.073 11.426-11.105 19.673-5.527 7.554-13.679 19.062-17.86 20.209-2.926 1.493-10.699-3.025-11.477-3.424.135-.175-.884-.49-3.525-2.246-3.59-2.388-3.069-6.111-1.57-9.284 1.498-3.172 17.316-24.512 18.53-26.087 1.214-1.575 4.501-5.84 7.567-7.771z" fill="#2D74A9"/><path d="M141.058 9.295c2.453-1.545 7.666-1.716 9.966-1.609l6.267 4.17c2.817 1.873 3.312 5.026 3.208 6.368-.198 4.575-5.073 11.427-11.106 19.674-5.526 7.554-13.678 19.063-17.859 20.21-2.927 1.492-10.7-3.026-11.477-3.425.134-.175-.885-.489-3.526-2.246-3.59-2.388-3.069-6.111-1.57-9.283 1.499-3.172 17.317-24.513 18.53-26.088 1.214-1.575 4.502-5.84 7.567-7.771z" fill="#66A6D6"/><path d="M36.204 47.33c-1.6-2.278-6.334-4.25-8.502-4.951l-7.57 1.665c-3.402.749-5.211 3.485-5.69 4.759-1.781 4.288-.226 12.304 1.8 22.009 1.855 8.89 4.435 22.34 7.8 24.853 2.058 2.395 11.167.932 12.055.834-.05-.208 1.026-.143 4.215-.845 4.337-.954 5.454-4.57 5.432-8.016-.02-3.447-5.452-28.633-5.896-30.508-.444-1.875-1.646-6.953-3.644-9.8z" fill="#fff"/><path d="M43.09 45.815c-1.6-2.278-6.334-4.25-8.502-4.95l-7.57 1.665c-3.402.748-5.212 3.484-5.691 4.758-1.78 4.288-.225 12.305 1.8 22.01 1.856 8.89 4.436 22.34 7.8 24.852 2.059 2.395 11.167.932 12.056.835-.05-.209 1.025-.144 4.215-.845 4.336-.954 5.453-4.57 5.432-8.017-.021-3.447-5.453-28.633-5.896-30.508-.444-1.875-1.646-6.952-3.645-9.8z" fill="#2D74A9"/><path d="M45.925 45.191c-1.6-2.278-6.334-4.25-8.502-4.95l-7.57 1.665c-3.402.748-5.212 3.484-5.691 4.758-1.78 4.288-.225 12.305 1.8 22.01 1.856 8.89 4.436 22.34 7.8 24.852 2.059 2.395 11.167.933 12.056.835-.05-.208 1.025-.144 4.215-.845 4.336-.954 5.453-4.57 5.432-8.017-.021-3.447-5.453-28.633-5.896-30.508-.444-1.874-1.646-6.952-3.645-9.8z" fill="#66A6D6"/><path d="M73.75 51.69c-2.63 1.26-5.34 5.459-6.365 7.4l.795 7.19c.357 3.23 3.034 5.18 4.328 5.75 4.333 2.075 13.063 1.421 23.65.499 9.697-.845 24.341-1.914 27.448-4.788 2.813-1.674 2.433-10.27 2.443-11.104-.228.025-.02-.966-.355-3.995-.455-4.118-4.158-5.51-7.828-5.831-3.67-.32-31.168 2.237-33.22 2.464-2.052.227-7.609.841-10.897 2.415z" fill="#fff"/><path d="M73.027 45.152c-2.63 1.259-5.339 5.458-6.365 7.4l.795 7.189c.358 3.23 3.035 5.18 4.329 5.75 4.332 2.076 13.062 1.422 23.648.5 9.698-.846 24.342-1.914 27.449-4.788 2.814-1.674 2.433-10.27 2.444-11.104-.228.025-.021-.966-.356-3.995-.455-4.118-4.157-5.511-7.828-5.831-3.67-.32-31.167 2.236-33.22 2.463-2.051.227-7.609.842-10.896 2.416z" fill="#2D74A9"/><path d="M72.729 42.46c-2.63 1.258-5.339 5.458-6.364 7.4l.794 7.189c.358 3.23 3.035 5.18 4.329 5.75 4.332 2.075 13.062 1.422 23.649.499 9.698-.845 24.341-1.913 27.448-4.788 2.814-1.673 2.433-10.27 2.444-11.104-.228.025-.02-.966-.355-3.995-.456-4.118-4.158-5.51-7.828-5.83-3.671-.321-31.168 2.236-33.22 2.463-2.052.227-7.61.842-10.897 2.415z" fill="#66A6D6"/><path d="M184.771 108.768l-8.967-81.076s-12.578 6.82-74.326 13.65c-44.875 4.963-98.415 5.455-98.415 5.455 4.01 24.646 12.301 76.392 13.388 86.214l7.89 71.347c19.92-.327 64.71-1.764 84.516-4.892 19.806-3.129 61.41-10.153 79.735-13.274-.514-1.975-1.722-9.142-2.434-22.006-.889-16.081.33-39.898-1.387-55.418z" fill="#49669F"/></svg>