<svg width="141" height="261" fill="none" xmlns="http://www.w3.org/2000/svg"><path d="M75.402 43.063l62.888 191.982c-4.65 3.395-17.019 11.19-29.289 15.209-12.271 4.02-26.124 4.814-31.517 4.709L14.596 62.982 41.208 43.3l34.194-.238z" fill="#BF66CE"/><path d="M9.516 29.884c-.488 4.438 3.577 24.498 5.238 33.58C19.288 60.642 30.757 53.25 43.812 49.4c13.054-3.849 26.734-5.727 31.59-6.337-1.473-7.272-8.292-23.275-20.967-27.894-12.674-4.619-34.678-.317-44.097 2.412-.07 2.252-.335 7.865-.822 12.303z" fill="#AF3EC1"/><ellipse cx="14.986" cy="38.253" rx="3.459" ry="5.082" transform="rotate(-18.137 14.986 38.253)" fill="#585858"/><ellipse cx="14.986" cy="38.252" rx="1.729" ry="2.541" transform="rotate(-18.137 14.986 38.252)" fill="#404040"/><path d="M57.503 93.755c10.922-3.101 28.622 2.342 36.106 5.452l15.777 48.161c-2.765-2.67-9.958-8.715-16.613-11.54-8.32-3.531-33.68-6.247-45.385-13.734-9.363-5.99-18.92-21.013-22.528-27.776 6.33 1.105 21.721 2.538 32.643-.563z" fill="#CF8BDA"/></svg>