<svg width="135" height="230" fill="none" xmlns="http://www.w3.org/2000/svg"><path d="M44.185 70.16c-1.349-5.034 1.602-10.801 3.246-13.056l19.758-5.294c3.487 4.034 11.419 13.385 15.253 18.51 4.792 6.405 19.503 33.933 29.558 58.213s18.781 70.093 16.712 75.617c-2.069 5.523-16.748 11.231-28.677 13.954-11.93 2.723-29.685 8.427-37.54 7.811-7.855-.616-21.643-44.127-22.181-62.912-.538-18.785 13.272-67.915 12.919-74.09-.354-6.176-7.362-12.462-9.048-18.754z" fill="#E4E3C6"/><path d="M41.653 39.96l4.733 17.66L67.8 51.882l-4.732-17.66-10.156 2.72-11.259 3.017z" fill="#85898C"/><path d="M27.66 33.653c4.512.59 11.175 4.617 13.942 6.557l21.415-5.738c-.117-1.467.18-4.804 2.303-6.415 2.655-2.012 7.832-.797 9.363-7.004 1.53-6.207-7.77-8.684-22.604-10.625C40.21 8.877 22.48 16.389 15.1 20.337l3.933 14.68c2.318-.62 4.114-1.954 8.626-1.364z" fill="#9FA39E"/><path d="M9.259 29c-1.1-3.396 3.49-7.284 5.922-8.803l3.905 14.57c-2.818-.507-8.728-2.37-9.827-5.767z" fill="#85898C"/><path d="M29.62 43.47c2.38-2.306 4.384-5.866 5.088-7.357-5.427-3.34-9.935-2.926-11.51-2.3-.145.762-.441 2.584-.471 3.773-.038 1.487-7.721 16.4-8.587 19.673-.867 3.272-1.61 4.079 1.107 4.133 2.716.054 4.704-5.864 6.997-9.345 2.292-3.48 4.4-5.696 7.376-8.578z" fill="#B1B5B0"/><path d="M71.022 101.913c-11.117 2.676-13.56 18.753-15.437 27.32-1.876 8.567-3.173 12.694-4.621 31.353-1.584 20.402 3.54 45.294 11.005 52.869 5.973 6.06 24.059.61 34.204-2.109 7.785-2.086 22.374-6.146 24.298-10.291 2.405-5.18 6.073-18.385-3.735-42.721-9.808-24.336-31.818-59.767-45.714-56.421z" fill="#A1AAB9"/></svg>