<svg width="141" height="235" fill="none" xmlns="http://www.w3.org/2000/svg"><path d="M90.19 9.4l-3.394 12.666 11.042 2.959 11.692 3.133 3.394-12.667-9.256-2.48-13.479-3.612z" fill="#A5AAC0"/><path fill-rule="evenodd" clip-rule="evenodd" d="M6.844 210.024c3.05-23.723 12.674-79.521 26.775-112.92C47.72 63.707 70.874 39.267 80.687 31.22l5.178-9.578 24.196 6.484.506 11.1c3.832 13.849 9.574 50.534 1.889 86.487-7.684 35.954-24.135 84.445-31.4 104.196-11.158-.146-41.621-4.329-74.212-19.885zm85.709-103.568c.519-8.215 2.446-24.199 6.005-22.41 4.448 2.236 4.536 18.795 3.414 24.934-1.123 6.139-4.865 20.104-8.6 19.103-2.988-.8-1.791-14.751-.819-21.627z" fill="#DADEE9"/><path d="M89.195 70.92c6.114 3.167 4.67 10.07 3.49 15.556-2.915 10.88-5.93 35.901-2.46 46.856 3.47 10.955 13.147 11.994 17.39 11.1 0 0-3.151 14.272-5.794 23.249-2.644 8.978-7.744 22.728-7.744 22.728-4.042 8.373-16.836 24.38-35.676 21.421-23.55-3.7-30.073-28.074-29.857-36.022.31-11.421 18.189-77.626 25.936-89.648 7.746-12.023 21.419-22.126 34.715-15.24z" fill="#F1F1F4"/></svg>