<svg width="1314" height="2628" fill="none" xmlns="http://www.w3.org/2000/svg"><path d="M13.378 283.934C12.091 136.425 135.858 18.6 283.126 27.136l768.824 44.568c133.96 7.765 238.98 118.011 240.23 252.185l18.38 1962.661c1.25 133.79-101.11 245.79-234.47 256.56l-769.141 62.1c-147.561 11.91-274.22-103.91-275.512-251.95L13.378 283.934z" fill="#34985C"/><path d="M59.497 284.211c-1.29-147.76 122.883-265.678 270.379-256.76l722.754 43.697c133.69 8.083 238.35 118.221 239.6 252.154l18.34 1963.888c1.25 133.52-100.72 245.4-233.79 256.5l-723.045 60.33c-147.798 12.33-274.898-103.59-276.192-251.9L59.497 284.211z" fill="#3BAB68"/><ellipse cx="737.709" cy="211.204" rx="23.5" ry="24" transform="rotate(-.5 737.709 211.204)" fill="#3D3D3D"/><circle cx="772.435" cy="2411.43" r="78.751" transform="rotate(-.5 772.435 2411.43)" stroke="#99E5B8" stroke-width="10"/><path d="M121.745 324.678L1243.7 387l17.34 1849.5-1121.955 75.1-17.34-1986.922z" fill="#99E5B8"/><rect x=".709" y="436.468" width="29" height="195" rx="5" transform="rotate(-.5 .709 436.468)" fill="#34985C"/><rect x="2.925" y="690.458" width="29" height="195" rx="5" transform="rotate(-.5 2.925 690.458)" fill="#34985C"/></svg>