<svg width="142" height="134" fill="none" xmlns="http://www.w3.org/2000/svg"><path d="M103.851 44.27c5.026.287 12.299 5.48 15.307 8.04l3.947 12.684c1.774 5.701-1.009 10.86-2.622 12.726-5.282 6.528-19.419 11.523-36.655 17.361-15.79 5.349-39.482 13.775-46.42 11.096-5.613-.859-11.225-15.63-11.844-17.029.375-.116-.666-1.644-2.329-6.988-2.261-7.267 2.528-12.203 8.041-15.307 5.513-3.104 50.4-17.997 53.775-19.047 3.376-1.05 12.518-3.896 18.8-3.537z" fill="#E6E6E6"/><path d="M100.261 32.732c5.026.287 12.298 5.48 15.306 8.041l3.947 12.684c1.774 5.7-1.008 10.86-2.622 12.726-5.282 6.527-19.418 11.523-36.654 17.361-15.79 5.348-39.482 13.775-46.42 11.095-5.613-.858-11.225-15.629-11.844-17.028.375-.117-.666-1.644-2.33-6.989-2.26-7.266 2.529-12.202 8.042-15.306 5.513-3.104 50.399-17.997 53.775-19.048 3.375-1.05 12.517-3.895 18.8-3.536z" fill="#2D74A9"/><path d="M98.782 27.982c5.026.287 12.299 5.48 15.307 8.04l3.947 12.685c1.774 5.7-1.009 10.859-2.622 12.725-5.282 6.528-19.419 11.523-36.655 17.361-15.79 5.349-39.481 13.775-46.42 11.096-5.612-.859-11.225-15.63-11.844-17.029.375-.116-.666-1.644-2.329-6.988-2.261-7.267 2.528-12.203 8.041-15.307 5.514-3.104 50.4-17.997 53.775-19.047 3.376-1.05 12.518-3.896 18.8-3.537z" fill="#66A6D6"/></svg>