<svg width="134" height="188" viewBox="0 0 134 188" fill="none" xmlns="http://www.w3.org/2000/svg">
<rect x="100.155" width="170.545" height="102.116" transform="rotate(78.7527 100.155 0)" fill="#EBF1A9"/>
<ellipse cx="96.3476" cy="139.073" rx="3.48583" ry="2.10549" transform="rotate(116.882 96.3476 139.073)" fill="#A3AF1D"/>
<ellipse cx="111.76" cy="152.524" rx="4.54409" ry="2.65106" transform="rotate(66.5936 111.76 152.524)" fill="#A3AF1D"/>
<ellipse cx="120.862" cy="155.842" rx="2.79007" ry="2.17948" transform="rotate(66.5936 120.862 155.842)" fill="#A3AF1D"/>
<ellipse cx="69.1737" cy="128.016" rx="2.79007" ry="2.17948" transform="rotate(66.5936 69.1737 128.016)" fill="#A3AF1D"/>
<ellipse cx="79.4539" cy="166.223" rx="2.79007" ry="2.17948" transform="rotate(-36.3123 79.4539 166.223)" fill="#A3AF1D"/>
<ellipse cx="58.1883" cy="71.135" rx="2.79007" ry="2.17948" transform="rotate(-36.3123 58.1883 71.135)" fill="#A3AF1D"/>
<ellipse cx="51.1722" cy="68.2373" rx="2.79007" ry="2.17948" transform="rotate(-1.60314 51.1722 68.2373)" fill="#A3AF1D"/>
<ellipse cx="100.379" cy="95.2226" rx="4.09403" ry="3.19808" transform="rotate(-47.7849 100.379 95.2226)" fill="#A3AF1D"/>
<ellipse cx="110.077" cy="100.808" rx="2.37606" ry="1.85608" transform="rotate(-47.7849 110.077 100.808)" fill="#A3AF1D"/>
<ellipse cx="106.557" cy="82.7283" rx="2.37606" ry="1.85608" transform="rotate(-47.7849 106.557 82.7283)" fill="#A3AF1D"/>
<ellipse cx="103.166" cy="68.3755" rx="3.25784" ry="2.54489" transform="rotate(-47.7849 103.166 68.3755)" fill="#A3AF1D"/>
<ellipse cx="67.8121" cy="58.2588" rx="3.25784" ry="2.54489" transform="rotate(-47.7849 67.8121 58.2588)" fill="#A3AF1D"/>
<ellipse cx="57.021" cy="14.7866" rx="3.25784" ry="2.54489" transform="rotate(-72.2134 57.021 14.7866)" fill="#A3AF1D"/>
<ellipse cx="36.8159" cy="16.7593" rx="3.25784" ry="2.54489" transform="rotate(-72.2134 36.8159 16.7593)" fill="#A3AF1D"/>
<ellipse cx="25.3432" cy="29.2375" rx="3.25784" ry="2.54489" transform="rotate(-72.2134 25.3432 29.2375)" fill="#A3AF1D"/>
<ellipse cx="12.368" cy="24.7027" rx="2.09003" ry="2.19997" transform="rotate(-72.2134 12.368 24.7027)" fill="#A3AF1D"/>
<ellipse cx="20.5848" cy="26.2582" rx="1.45359" ry="2.19997" transform="rotate(-47.9589 20.5848 26.2582)" fill="#A3AF1D"/>
<ellipse cx="32.169" cy="97.243" rx="1.45359" ry="2.19997" transform="rotate(0.0872365 32.169 97.243)" fill="#A3AF1D"/>
<ellipse cx="39.5096" cy="139.06" rx="1.45359" ry="2.19997" transform="rotate(-32.2424 39.5096 139.06)" fill="#A3AF1D"/>
<ellipse cx="78.4631" cy="81.4198" rx="1.45359" ry="2.19997" transform="rotate(1.06861 78.4631 81.4198)" fill="#A3AF1D"/>
<ellipse cx="89.723" cy="73.2771" rx="1.45359" ry="2.19997" transform="rotate(47.8148 89.723 73.2771)" fill="#A3AF1D"/>
<ellipse cx="76.4632" cy="94.0779" rx="1.45359" ry="2.19997" transform="rotate(47.8148 76.4632 94.0779)" fill="#A3AF1D"/>
<ellipse cx="74.157" cy="48.0036" rx="2.24823" ry="2.19997" transform="rotate(47.8148 74.157 48.0036)" fill="#A3AF1D"/>
<ellipse cx="93.6224" cy="47.6638" rx="3.21767" ry="2.19997" transform="rotate(47.8148 93.6224 47.6638)" fill="#A3AF1D"/>
<ellipse cx="58.9039" cy="129.167" rx="3.21674" ry="2.19934" transform="rotate(95.6484 58.9039 129.167)" fill="#A3AF1D"/>
</svg>
