<svg width="136" height="189" fill="none" xmlns="http://www.w3.org/2000/svg"><rect x="101.156" y="1" width="170.545" height="102.116" rx="5" transform="rotate(78.753 101.156 1)" fill="#fff" stroke="#81EC40" stroke-width="3" stroke-linejoin="round"/><ellipse cx="98.456" cy="133.059" rx="3.486" ry="2.105" transform="rotate(116.882 98.456 133.059)" fill="#fff" stroke="#81EC40" stroke-width="3" stroke-linejoin="round"/><ellipse cx="112.763" cy="153.524" rx="4.544" ry="2.651" transform="rotate(66.594 112.763 153.524)" fill="#fff" stroke="#81EC40" stroke-width="3" stroke-linejoin="round"/><ellipse cx="80.457" cy="167.221" rx="2.79" ry="2.179" transform="rotate(-36.312 80.457 167.221)" fill="#fff" stroke="#81EC40" stroke-width="3" stroke-linejoin="round"/><ellipse cx="52.174" cy="69.237" rx="2.79" ry="2.179" transform="rotate(-1.603 52.174 69.237)" fill="#fff" stroke="#81EC40" stroke-width="3" stroke-linejoin="round"/><ellipse cx="111.077" cy="101.808" rx="2.376" ry="1.856" transform="rotate(-47.785 111.077 101.808)" fill="#fff" stroke="#81EC40" stroke-width="3" stroke-linejoin="round"/><ellipse cx="104.168" cy="69.375" rx="3.258" ry="2.545" transform="rotate(-47.785 104.168 69.375)" fill="#fff" stroke="#81EC40" stroke-width="3" stroke-linejoin="round"/><ellipse cx="60.418" cy="18.878" rx="3.258" ry="2.545" transform="rotate(-72.213 60.418 18.878)" fill="#fff" stroke="#81EC40" stroke-width="3" stroke-linejoin="round"/><ellipse cx="26.344" cy="30.238" rx="3.258" ry="2.545" transform="rotate(-72.213 26.344 30.238)" fill="#fff" stroke="#81EC40" stroke-width="3" stroke-linejoin="round"/><ellipse cx="13.37" cy="25.701" rx="2.09" ry="2.2" transform="rotate(-72.213 13.37 25.701)" fill="#fff" stroke="#81EC40" stroke-width="3" stroke-linejoin="round"/><ellipse cx="33.169" cy="98.241" rx="1.454" ry="2.2" transform="rotate(.087 33.169 98.241)" fill="#fff" stroke="#81EC40" stroke-width="3" stroke-linejoin="round"/><ellipse cx="40.513" cy="140.062" rx="1.454" ry="2.2" transform="rotate(-32.242 40.513 140.062)" fill="#fff" stroke="#81EC40" stroke-width="3" stroke-linejoin="round"/><ellipse cx="77.463" cy="95.078" rx="1.454" ry="2.2" transform="rotate(47.815 77.463 95.078)" fill="#fff" stroke="#81EC40" stroke-width="3" stroke-linejoin="round"/><ellipse cx="75.157" cy="49.003" rx="2.248" ry="2.2" transform="rotate(47.815 75.157 49.003)" fill="#fff" stroke="#81EC40" stroke-width="3" stroke-linejoin="round"/></svg>