<svg width="136" height="189" viewBox="0 0 136 189" fill="none" xmlns="http://www.w3.org/2000/svg">
<rect x="101.156" y="1" width="170.545" height="102.116" rx="5" transform="rotate(78.7527 101.156 1)" fill="white" stroke="#81EC40" stroke-width="3" stroke-linejoin="round"/>
<ellipse cx="98.456" cy="133.059" rx="3.48583" ry="2.10549" transform="rotate(116.882 98.456 133.059)" fill="white" stroke="#81EC40" stroke-width="3" stroke-linejoin="round"/>
<ellipse cx="112.763" cy="153.524" rx="4.54409" ry="2.65106" transform="rotate(66.5936 112.763 153.524)" fill="white" stroke="#81EC40" stroke-width="3" stroke-linejoin="round"/>
<ellipse cx="80.4569" cy="167.221" rx="2.79007" ry="2.17948" transform="rotate(-36.3123 80.4569 167.221)" fill="white" stroke="#81EC40" stroke-width="3" stroke-linejoin="round"/>
<ellipse cx="52.1742" cy="69.2373" rx="2.79007" ry="2.17948" transform="rotate(-1.60314 52.1742 69.2373)" fill="white" stroke="#81EC40" stroke-width="3" stroke-linejoin="round"/>
<ellipse cx="111.077" cy="101.808" rx="2.37606" ry="1.85608" transform="rotate(-47.7849 111.077 101.808)" fill="white" stroke="#81EC40" stroke-width="3" stroke-linejoin="round"/>
<ellipse cx="104.168" cy="69.3752" rx="3.25784" ry="2.54489" transform="rotate(-47.7849 104.168 69.3752)" fill="white" stroke="#81EC40" stroke-width="3" stroke-linejoin="round"/>
<ellipse cx="60.4184" cy="18.8784" rx="3.25784" ry="2.54489" transform="rotate(-72.2134 60.4184 18.8784)" fill="white" stroke="#81EC40" stroke-width="3" stroke-linejoin="round"/>
<ellipse cx="26.3442" cy="30.2378" rx="3.25784" ry="2.54489" transform="rotate(-72.2134 26.3442 30.2378)" fill="white" stroke="#81EC40" stroke-width="3" stroke-linejoin="round"/>
<ellipse cx="13.37" cy="25.7014" rx="2.09003" ry="2.19997" transform="rotate(-72.2134 13.37 25.7014)" fill="white" stroke="#81EC40" stroke-width="3" stroke-linejoin="round"/>
<ellipse cx="33.169" cy="98.2412" rx="1.45359" ry="2.19997" transform="rotate(0.0872365 33.169 98.2412)" fill="white" stroke="#81EC40" stroke-width="3" stroke-linejoin="round"/>
<ellipse cx="40.5125" cy="140.062" rx="1.45359" ry="2.19997" transform="rotate(-32.2424 40.5125 140.062)" fill="white" stroke="#81EC40" stroke-width="3" stroke-linejoin="round"/>
<ellipse cx="77.4632" cy="95.0779" rx="1.45359" ry="2.19997" transform="rotate(47.8148 77.4632 95.0779)" fill="white" stroke="#81EC40" stroke-width="3" stroke-linejoin="round"/>
<ellipse cx="75.157" cy="49.0026" rx="2.24823" ry="2.19997" transform="rotate(47.8148 75.157 49.0026)" fill="white" stroke="#81EC40" stroke-width="3" stroke-linejoin="round"/>
</svg>
