<svg width="241" height="848" viewBox="0 0 241 848" fill="none" xmlns="http://www.w3.org/2000/svg">
<mask id="mask0_1062_1123" style="mask-type:alpha" maskUnits="userSpaceOnUse" x="0" y="0" width="241" height="848">
<rect width="241" height="848" fill="#D9D9D9"/>
</mask>
<g mask="url(#mask0_1062_1123)">
<path d="M25.4698 793.224C27.3157 814.76 42.6469 833.475 50.0818 840.141L232.364 840.141C247.747 840.141 239.286 312.521 232.364 301.753C225.442 290.986 214.674 283.294 187.755 272.527C166.22 263.912 137.249 236.121 125.456 223.303L65.4642 174.848C60.3367 187.41 45.1593 221.918 25.4697 259.451C0.857718 306.368 23.1624 766.305 25.4698 793.224Z" fill="white" stroke="#D9D9D9" stroke-width="5"/>
<path d="M133.156 112C126.491 115.589 111.313 125.537 103.93 136.612L147.001 158.917C144.539 152.148 152.641 133.535 156.999 125.075L133.156 112Z" fill="white" stroke="#81EC40" stroke-width="5"/>
<path d="M89.8493 130.471L57.0078 182.54L130.844 225.611L159.301 166.389C159.301 166.389 140.147 146.389 125.575 138.43C111.003 130.471 89.8493 130.471 89.8493 130.471Z" fill="white" stroke="#81EC40" stroke-width="5"/>
</g>
</svg>
