<svg width="253" height="848" fill="none" xmlns="http://www.w3.org/2000/svg"><mask id="a" style="mask-type:alpha" maskUnits="userSpaceOnUse" x="0" y="0" width="253" height="848"><path fill="#D9D9D9" d="M0 0h253v848H0z"/></mask><g mask="url(#a)" fill="#fff" stroke="#81EC40" stroke-width="9"><path d="M25.47 793.224c1.846 21.536 17.177 40.251 24.612 46.917h182.282c15.383 0 6.922-527.62 0-538.388-6.922-10.767-17.69-18.459-44.609-29.226-21.535-8.615-50.506-36.406-62.299-49.224l-59.992-48.455c-5.127 12.562-20.305 47.07-39.994 84.603-24.612 46.917-2.308 506.854 0 533.773zM133.156 112c-6.665 3.589-21.843 13.537-29.226 24.612l43.071 22.305c-2.462-6.769 5.64-25.382 9.998-33.842L133.156 112z"/><path d="M89.85 130.469l-32.842 52.069 73.836 43.071 28.457-59.222s-19.154-20-33.726-27.959-35.726-7.959-35.726-7.959z"/></g></svg>