<svg width="729" height="228" viewBox="0 0 729 228" fill="none" xmlns="http://www.w3.org/2000/svg">
<path d="M46.9165 11.4697C25.381 13.3156 6.66559 28.6468 -0.000123647 36.0817L-0.000131615 218.364C-0.000132288 233.747 527.62 225.286 538.387 218.364C549.155 211.442 556.846 200.674 567.614 173.755C576.228 152.22 604.019 123.249 616.838 111.456L665.293 51.4642C652.731 46.3367 618.223 31.1593 580.689 11.4697C533.773 -13.1423 73.8359 9.16231 46.9165 11.4697Z" fill="#D9DBDA"/>
<path d="M728.142 119.157C724.552 112.491 714.605 97.3138 703.53 89.9302L681.225 133.001C687.993 130.54 706.606 138.641 715.066 143L728.142 119.157Z" fill="#EC1D16"/>
<path d="M709.671 75.8459L657.602 43.0044L614.531 116.84L673.753 145.298C673.753 145.298 693.753 126.144 701.712 111.572C709.671 97 709.671 75.8459 709.671 75.8459Z" fill="#D41811"/>
</svg>
