<svg width="233" height="734" viewBox="0 0 233 734" fill="none" xmlns="http://www.w3.org/2000/svg">
<path d="M218.538 684.224C216.692 705.76 201.361 724.475 193.926 731.141L11.6435 731.141C-3.73904 731.141 4.72139 203.521 11.6435 192.753C18.5656 181.986 29.3334 174.294 56.2528 163.527C77.7883 154.912 106.759 127.121 118.552 114.303L178.544 65.8477C183.671 78.41 198.848 112.918 218.538 150.451C243.15 197.368 220.845 657.305 218.538 684.224Z" fill="white" stroke="#D9D9D9" stroke-width="5"/>
<path d="M110.851 3C117.517 6.58925 132.695 16.5366 140.078 27.612L97.0071 49.9166C99.4683 43.1483 91.3669 24.5355 87.0085 16.0751L110.851 3Z" fill="white" stroke="#81EC40" stroke-width="5"/>
<path d="M154.159 21.4707L187 73.5403L113.164 116.611L84.7064 57.3887C84.7064 57.3887 103.86 37.3887 118.432 29.4297C133.004 21.4707 154.159 21.4707 154.159 21.4707Z" fill="white" stroke="#81EC40" stroke-width="5"/>
</svg>
