<svg width="302" height="354" fill="none" xmlns="http://www.w3.org/2000/svg"><path d="M178.324 41.717c-26.211.832-116.378 6.591-166.485 9.913-4.087.27-4.743 3.215-.733 4.048 35.822 7.44 161.859 8.42 183.904 9.4 25.031 1.113 95.671-5.562 101.79-12.793 6.118-7.231-83.434-11.68-118.476-10.568z" fill="#fff" stroke="#81EC40" stroke-width="3" stroke-linejoin="round"/><path d="M256.626 21.97c3.982-2.073 11.495-1.71 15.836-1.138.938.123 1.803.549 2.507 1.18l8.805 7.91c4.442 3.99 4.691 9.846 4.26 12.275-1.197 8.311-10.786 19.837-22.606 33.674-10.577 12.381-26.128 31.145-33.678 33.173-.349.094-.69.196-1.041.282-3.539.873-9.607-2.621-13.819-5.461-2.478-1.671-6.49-4.933-8.758-6.879a81.36 81.36 0 01-1.374-1.207c-5.661-5.085-4.073-11.777-.925-17.265 3.149-5.488 34.089-41.254 36.451-43.884 2.363-2.63 8.761-9.753 14.342-12.66z" fill="#fff" stroke="#81EC40" stroke-width="3" stroke-linejoin="round"/><path d="M243.935 10.572c3.982-2.074 11.494-1.71 15.836-1.139a4.682 4.682 0 012.507 1.181l8.805 7.91c4.441 3.99 4.69 9.845 4.26 12.275-1.198 8.31-10.786 19.837-22.606 33.674-10.577 12.381-26.128 31.144-33.678 33.172-.349.094-.691.197-1.042.283-3.538.872-9.606-2.621-13.818-5.462-2.478-1.67-6.49-4.932-8.758-6.878a78.026 78.026 0 01-1.374-1.207c-5.661-5.085-4.073-11.777-.925-17.265 3.148-5.489 34.089-41.255 36.451-43.885 2.363-2.63 8.761-9.753 14.342-12.66z" fill="#fff" stroke="#81EC40" stroke-width="3" stroke-linejoin="round"/><path d="M105.995 71.828c-4.136 1.745-8.645 7.764-10.973 11.474-.503.801-.727 1.739-.689 2.684l.48 11.826c.242 5.966 4.595 9.891 6.741 11.108 7.166 4.376 22.159 4.338 40.355 4.053 16.282-.254 40.652-.273 47.028-4.796.295-.209.591-.407.882-.622 2.928-2.17 4.105-9.072 4.602-14.128.292-2.974.338-8.145.285-11.133a85.91 85.91 0 00-.054-1.827c-.309-7.604-6.477-10.647-12.712-11.72-6.235-1.075-53.516-.04-57.048.103-3.533.143-13.099.531-18.897 2.978z" fill="#fff" stroke="#81EC40" stroke-width="3" stroke-linejoin="round"/><path d="M105.507 59.757c-4.136 1.746-8.646 7.765-10.974 11.475-.503.8-.726 1.738-.688 2.684l.48 11.826c.242 5.965 4.594 9.89 6.74 11.108 7.167 4.376 22.16 4.338 40.356 4.053 16.281-.255 40.652-.273 47.027-4.796.295-.21.592-.407.882-.623 2.928-2.17 4.106-9.072 4.603-14.127.292-2.975.338-8.145.284-11.133a79.754 79.754 0 00-.054-1.828c-.308-7.603-6.476-10.646-12.711-11.72-6.236-1.074-53.516-.04-57.049.103-3.532.144-13.099.532-18.896 2.978z" fill="#fff" stroke="#81EC40" stroke-width="3" stroke-linejoin="round"/><path d="M105.304 54.785c-4.136 1.745-8.646 7.765-10.974 11.474a4.674 4.674 0 00-.688 2.684l.48 11.826c.242 5.966 4.594 9.891 6.74 11.108 7.167 4.376 22.16 4.338 40.355 4.053 16.282-.254 40.652-.273 47.028-4.796.295-.209.592-.407.882-.622 2.928-2.17 4.106-9.072 4.603-14.128.292-2.974.337-8.145.284-11.133a79.73 79.73 0 00-.054-1.827c-.308-7.604-6.476-10.647-12.711-11.72-6.236-1.075-53.516-.04-57.049.103-3.532.143-13.099.531-18.896 2.978z" fill="#fff" stroke="#81EC40" stroke-width="3" stroke-linejoin="round"/><path d="M299.613 200.996V58.801c0-3.605-3.808-6.368-7.327-5.586-13.068 2.902-46.437 7.87-121.749 7.87-65.743 0-141.54-7.168-162.758-9.313a4.99 4.99 0 00-5.503 5.213c2.257 47.662 6.282 136.871 6.282 154.285v127.345a4.944 4.944 0 004.473 4.945c35.81 3.503 107.43 9.33 140.298 7.689 32.496-1.622 98.946-5.677 132.872-7.798 2.898-.182 5.062-2.79 4.919-5.691-.327-6.58-.451-18.265.422-35.311 1.514-29.537 8.071-72.772 8.071-101.453z" fill="#fff" stroke="#81EC40" stroke-width="3" stroke-linejoin="round"/></svg>