<svg width="405" height="446" viewBox="0 0 405 446" fill="none" xmlns="http://www.w3.org/2000/svg">
<path d="M239.946 52.927C201.797 54.0562 64.0865 62.3363 0 66.3353C12.1108 79.7435 228.592 81.1549 262.654 82.5663C296.715 83.9777 392.845 75.5093 401.171 66.3353C409.498 57.1612 287.632 51.5157 239.946 52.927Z" fill="#283857"/>
<path d="M346.502 27.875C352.578 24.9248 364.698 25.8633 369.998 26.7014L383.446 37.964C389.49 43.0258 389.829 50.4553 389.243 53.5372C387.613 64.0817 374.565 78.7055 358.48 96.2603C343.745 112.342 321.915 136.91 311.937 138.494C304.777 141.203 287.929 128.747 286.231 127.624C286.588 127.253 284.307 126.264 278.641 121.519C270.937 115.067 273.098 106.577 277.382 99.6135C281.666 92.6504 323.771 47.273 326.985 43.9363C330.2 40.5997 338.907 31.5628 346.502 27.875Z" fill="#E6E6E6"/>
<path d="M334.27 17.6306C340.346 14.6804 352.466 15.6189 357.766 16.457L371.214 27.7196C377.258 32.7814 377.597 40.2109 377.011 43.2929C375.381 53.8373 362.333 68.4611 346.248 86.0159C331.513 102.098 309.683 126.665 299.705 128.25C292.545 130.958 275.697 118.503 273.999 117.38C274.356 117.009 272.075 116.02 266.409 111.274C258.705 104.822 260.866 96.3323 265.15 89.3691C269.434 82.406 311.539 37.0286 314.753 33.6919C317.968 30.3553 326.675 21.3184 334.27 17.6306Z" fill="#2D74A9"/>
<path d="M329.233 13.4126C335.309 10.4624 347.428 11.4009 352.729 12.239L366.177 23.5015C372.221 28.5634 372.56 35.9929 371.974 39.0748C370.344 49.6193 357.296 64.2431 341.211 81.7979C326.476 97.8795 304.646 122.447 294.668 124.032C287.508 126.74 270.66 114.285 268.962 113.162C269.319 112.791 267.038 111.802 261.372 107.056C253.668 100.604 255.829 92.1143 260.113 85.1511C264.397 78.188 306.501 32.8106 309.716 29.4739C312.931 26.1372 321.638 17.1004 329.233 13.4126Z" fill="#66A6D6"/>
<path d="M76.6227 74.6488C73.5029 68.9626 63.0408 63.1828 58.1998 61.0036L40.2402 62.9218C32.1684 63.7839 27.276 69.6568 25.8388 72.4855C20.6159 81.961 22.1661 100.928 24.3711 123.925C26.3911 144.991 28.922 176.807 36.0709 183.487C40.2247 189.561 61.6969 188.507 63.779 188.508C63.7182 188.013 66.1916 188.439 73.7593 187.631C84.0478 186.532 87.5609 178.444 88.395 170.455C89.2292 162.465 83.1006 102.737 82.553 98.2812C82.0055 93.8251 80.5226 81.7565 76.6227 74.6488Z" fill="#E6E6E6"/>
<path d="M92.9587 72.9039C89.8388 67.2177 79.3767 61.4379 74.5357 59.2587L56.5762 61.1769C48.5044 62.0391 43.612 67.912 42.1747 70.7406C36.9519 80.2161 38.5021 99.1831 40.7071 122.18C42.727 143.246 45.258 175.062 52.4068 181.742C56.5606 187.816 78.0328 186.762 80.1149 186.764C80.0541 186.268 82.5275 186.694 90.0952 185.886C100.384 184.787 103.897 176.699 104.731 168.71C105.565 160.72 99.4365 100.992 98.889 96.5363C98.3414 92.0802 96.8585 80.0117 92.9587 72.9039Z" fill="#2D74A9"/>
<path d="M99.6847 72.1857C96.5649 66.4995 86.1028 60.7196 81.2618 58.5405L63.3022 60.4587C55.2305 61.3208 50.338 67.1937 48.9008 70.0224C43.6779 79.4978 45.2281 98.4648 47.4331 121.461C49.4531 142.528 51.984 174.344 59.1329 181.024C63.2867 187.098 84.7589 186.044 86.841 186.045C86.7802 185.55 89.2536 185.976 96.8213 185.168C107.11 184.069 110.623 175.981 111.457 167.991C112.291 160.002 106.163 100.274 105.615 95.818C105.068 91.362 103.585 79.2934 99.6847 72.1857Z" fill="#66A6D6"/>
<path d="M162.471 94.3665C156.057 96.6091 148.707 105.642 145.834 109.878L145.834 126.731C145.834 134.306 151.535 139.506 154.386 141.159C163.889 147.076 184.277 147.798 209.034 148.373C231.713 148.9 265.905 150.177 273.837 144.315C280.783 141.159 282.103 121.151 282.342 119.222C281.807 119.222 282.542 116.98 282.542 109.878C282.542 100.223 274.323 96.0485 265.905 94.3665C257.486 92.6845 193.141 91.5632 188.33 91.5632C183.519 91.5632 170.49 91.5632 162.471 94.3665Z" fill="#E6E6E6"/>
<path d="M162.471 79.0369C156.057 81.2795 148.707 90.3123 145.834 94.5483L145.834 111.402C145.834 118.977 151.535 124.177 154.386 125.83C163.889 131.746 184.277 132.469 209.034 133.044C231.713 133.57 265.905 134.847 273.837 128.986C280.783 125.83 282.103 105.821 282.342 103.893C281.807 103.893 282.542 101.65 282.542 94.5483C282.542 84.8934 274.323 80.7189 265.905 79.0369C257.486 77.355 193.141 76.2336 188.33 76.2337C183.519 76.2337 170.49 76.2337 162.471 79.0369Z" fill="#2D74A9"/>
<path d="M162.471 72.7244C156.057 74.967 148.707 83.9998 145.834 88.2358L145.834 105.089C145.834 112.664 151.535 117.864 154.386 119.517C163.889 125.433 184.277 126.156 209.034 126.731C231.713 127.258 265.905 128.535 273.837 122.673C280.783 119.517 282.103 99.5085 282.342 97.58C281.807 97.58 282.542 95.3374 282.542 88.2358C282.542 78.5809 274.323 74.4064 265.905 72.7244C257.486 71.0425 193.141 69.9211 188.33 69.9212C183.519 69.9212 170.49 69.9212 162.471 72.7244Z" fill="#66A6D6"/>
<path d="M405 255.01V64.9238C405 64.9238 374.12 77.5002 229.349 77.5002C124.136 77.5002 0 64.9238 0 64.9238C2.97458 123.036 8.92373 245.016 8.92373 268.044V435.319C55.1441 439.664 159.254 447.811 205.932 445.638C252.61 443.466 350.771 437.854 394.017 435.319C393.331 430.613 392.369 413.704 394.017 383.725C396.076 346.251 405 291.397 405 255.01Z" fill="#49669F"/>
</svg>
