<svg width="298" height="352" viewBox="0 0 298 352" fill="none" xmlns="http://www.w3.org/2000/svg">
<path d="M176.324 41.7171C148.29 42.6071 47.0938 49.1335 0 52.2854C8.89962 62.8537 167.98 63.9662 193.01 65.0786C218.041 66.1911 288.681 59.5164 294.8 52.2854C300.918 45.0545 211.366 40.6047 176.324 41.7171Z" fill="#283857"/>
<path d="M254.627 21.9711C259.092 19.6458 267.998 20.3855 271.893 21.0461L281.775 29.9232C286.217 33.9129 286.466 39.7688 286.035 42.198C284.838 50.5091 275.249 62.0355 263.429 75.8721C252.601 88.5475 236.559 107.912 229.227 109.161C223.966 111.295 211.585 101.478 210.337 100.593C210.599 100.301 208.924 99.5211 204.759 95.7805C199.098 90.6951 200.686 84.0034 203.834 78.5151C206.983 73.0267 237.923 37.2605 240.285 34.6306C242.648 32.0006 249.046 24.8779 254.627 21.9711Z" fill="white"/>
<path d="M245.638 13.8964C250.103 11.5711 259.009 12.3108 262.904 12.9714L272.786 21.8485C277.227 25.8382 277.477 31.6941 277.046 34.1233C275.848 42.4344 266.26 53.9608 254.44 67.7974C243.612 80.4728 227.57 99.8369 220.238 101.086C214.976 103.221 202.596 93.4033 201.348 92.518C201.61 92.2258 199.934 91.4464 195.77 87.7058C190.109 82.6204 191.697 75.9287 194.845 70.4404C197.993 64.952 228.934 29.1858 231.296 26.5559C233.659 23.9259 240.057 16.8031 245.638 13.8964Z" fill="#2D74A9"/>
<path d="M241.937 10.5717C246.402 8.24637 255.308 8.98613 259.202 9.64668L269.085 18.5238C273.526 22.5135 273.775 28.3694 273.345 30.7986C272.147 39.1097 262.559 50.6361 250.739 64.4727C239.911 77.1481 223.869 96.5122 216.537 97.7613C211.275 99.8959 198.894 90.0786 197.647 89.1933C197.909 88.9011 196.233 88.1217 192.069 84.3811C186.408 79.2957 187.996 72.604 191.144 67.1157C194.292 61.6273 225.233 25.8611 227.595 23.2312C229.958 20.6012 236.356 13.4784 241.937 10.5717Z" fill="#66A6D6"/>
<path d="M56.3064 58.8378C54.0138 54.356 46.3258 49.8004 42.7683 48.0828L29.5708 49.5947C23.6393 50.2742 20.0441 54.9032 18.9879 57.1328C15.1499 64.6013 16.2891 79.551 17.9094 97.6767C19.3938 114.281 21.2537 139.358 26.507 144.624C29.5594 149.411 45.3382 148.58 46.8682 148.581C46.8235 148.191 48.6411 148.527 54.2022 147.89C61.7627 147.023 64.3443 140.649 64.9573 134.351C65.5702 128.054 61.0667 80.977 60.6643 77.4648C60.2619 73.9525 59.1722 64.4401 56.3064 58.8378Z" fill="white"/>
<path d="M68.3103 57.4628C66.0177 52.981 58.3297 48.4254 54.7722 46.7078L41.5747 48.2197C35.6432 48.8992 32.048 53.5282 30.9919 55.7578C27.1539 63.2263 28.293 78.176 29.9134 96.3017C31.3977 112.906 33.2576 137.983 38.5109 143.249C41.5633 148.036 57.3421 147.205 58.8721 147.206C58.8274 146.816 60.645 147.152 66.2061 146.515C73.7666 145.648 76.3482 139.274 76.9612 132.976C77.5741 126.679 73.0706 79.602 72.6682 76.0898C72.2658 72.5775 71.1761 63.0651 68.3103 57.4628Z" fill="#2D74A9"/>
<path d="M73.2537 56.8964C70.9611 52.4146 63.273 47.859 59.7156 46.1414L46.5181 47.6533C40.5865 48.3328 36.9914 52.9618 35.9352 55.1914C32.0972 62.6599 33.2364 77.6096 34.8567 95.7353C36.3411 112.34 38.2009 137.417 43.4543 142.682C46.5066 147.47 62.2855 146.639 63.8155 146.64C63.7708 146.25 65.5884 146.585 71.1495 145.948C78.71 145.082 81.2916 138.707 81.9045 132.41C82.5175 126.113 78.0139 79.0356 77.6116 75.5234C77.2092 72.0111 76.1195 62.4987 73.2537 56.8964Z" fill="#66A6D6"/>
<path d="M119.391 74.379C114.678 76.1466 109.277 83.2661 107.165 86.605L107.165 99.8888C107.165 105.859 111.355 109.958 113.45 111.261C120.433 115.924 135.415 116.494 153.608 116.947C170.273 117.362 195.399 118.368 201.228 113.749C206.332 111.261 207.302 95.49 207.478 93.97C207.085 93.97 207.625 92.2024 207.625 86.605C207.625 78.995 201.586 75.7047 195.399 74.379C189.212 73.0532 141.929 72.1694 138.393 72.1694C134.858 72.1694 125.283 72.1694 119.391 74.379Z" fill="white"/>
<path d="M119.391 62.296C114.678 64.0636 109.277 71.1831 107.165 74.522L107.165 87.8058C107.165 93.7761 111.355 97.8748 113.45 99.1779C120.433 103.841 135.415 104.411 153.608 104.864C170.273 105.279 195.399 106.285 201.228 101.665C206.332 99.1779 207.302 83.407 207.478 81.887C207.085 81.887 207.625 80.1194 207.625 74.522C207.625 66.912 201.586 63.6217 195.399 62.2959C189.212 60.9702 141.929 60.0864 138.393 60.0864C134.858 60.0864 125.283 60.0864 119.391 62.296Z" fill="#2D74A9"/>
<path d="M119.391 57.3209C114.678 59.0885 109.277 66.208 107.165 69.5469L107.165 82.8307C107.165 88.801 111.355 92.8997 113.45 94.2028C120.433 98.8659 135.415 99.4356 153.608 99.8888C170.273 100.304 195.399 101.31 201.228 96.6904C206.332 94.2028 207.302 78.4319 207.478 76.9119C207.085 76.9119 207.625 75.1443 207.625 69.5469C207.625 61.9369 201.586 58.6466 195.399 57.3209C189.212 55.9951 141.929 55.1113 138.393 55.1113C134.858 55.1113 125.283 55.1113 119.391 57.3209Z" fill="#66A6D6"/>
<path d="M297.613 200.997V51.1729C297.613 51.1729 274.921 61.0855 168.537 61.0855C91.2211 61.0855 0 51.1729 0 51.1729C2.18586 96.9764 6.55758 193.121 6.55758 211.271V343.117C40.5225 346.541 117.028 352.962 151.329 351.25C185.63 349.538 257.763 345.114 289.542 343.117C289.038 339.407 288.332 326.08 289.542 302.45C291.056 272.913 297.613 229.678 297.613 200.997Z" fill="#49669F"/>
</svg>
