<svg width="304" height="355" viewBox="0 0 304 355" fill="none" xmlns="http://www.w3.org/2000/svg">
<path d="M179.324 41.7166C153.113 42.5487 62.9464 48.308 12.8393 51.6297C8.75205 51.9006 8.09559 54.8448 12.1062 55.6778C47.928 63.1185 173.965 64.0983 196.01 65.0781C221.041 66.1906 291.681 59.5159 297.8 52.2849C303.918 45.054 214.366 40.6042 179.324 41.7166Z" fill="white" stroke="#D9D9D9" stroke-width="5" stroke-linejoin="round"/>
<path d="M257.623 21.9711C261.604 19.8976 269.117 20.2613 273.459 20.8327C274.396 20.9562 275.261 21.3815 275.965 22.0137L284.77 29.9232C289.212 33.9129 289.461 39.7688 289.03 42.198C287.833 50.5091 278.245 62.0355 266.424 75.8721C255.848 88.2534 240.296 107.016 232.747 109.045C232.397 109.139 232.056 109.241 231.705 109.327C228.166 110.2 222.098 106.706 217.886 103.866C215.409 102.195 211.396 98.9334 209.128 96.9872C208.704 96.6237 208.247 96.2228 207.755 95.7805C202.093 90.6951 203.681 84.0034 206.83 78.5151C209.978 73.0267 240.918 37.2605 243.281 34.6306C245.643 32.0006 252.041 24.8779 257.623 21.9711Z" fill="white" stroke="#D9D9D9" stroke-width="5" stroke-linejoin="round"/>
<path d="M244.935 10.5717C248.917 8.49816 256.429 8.86186 260.771 9.43331C261.709 9.55676 262.574 9.98204 263.278 10.6143L272.083 18.5238C276.524 22.5135 276.773 28.3694 276.343 30.7986C275.145 39.1097 265.557 50.6361 253.737 64.4727C243.16 76.854 227.609 95.6171 220.059 97.6454C219.71 97.7392 219.368 97.8415 219.017 97.928C215.479 98.8001 209.411 95.3067 205.199 92.4663C202.721 90.7953 198.709 87.5339 196.441 85.5878C196.017 85.2242 195.559 84.8234 195.067 84.3811C189.406 79.2957 190.994 72.604 194.142 67.1157C197.29 61.6273 228.231 25.8611 230.593 23.2312C232.956 20.6012 239.354 13.4784 244.935 10.5717Z" fill="white" stroke="#D9D9D9" stroke-width="5" stroke-linejoin="round"/>
<path d="M106.999 71.8286C102.863 73.5739 98.3535 79.5935 96.0255 83.3029C95.5226 84.1042 95.2989 85.0416 95.3372 85.9869L95.817 97.8131C96.0591 103.779 100.412 107.704 102.557 108.921C109.724 113.297 124.717 113.259 142.913 112.974C159.195 112.72 183.565 112.701 189.941 108.178C190.235 107.969 190.532 107.771 190.823 107.556C193.751 105.386 194.928 98.4836 195.425 93.4278C195.717 90.4537 195.763 85.2832 195.709 82.2951C195.699 81.737 195.682 81.1289 195.656 80.4676C195.347 72.8639 189.179 69.8211 182.944 68.7473C176.709 67.6735 129.428 68.7072 125.896 68.8505C122.363 68.9939 112.796 69.382 106.999 71.8286Z" fill="white" stroke="#D9D9D9" stroke-width="5" stroke-linejoin="round"/>
<path d="M106.507 59.7553C102.371 61.5006 97.8613 67.5203 95.5333 71.2296C95.0304 72.0309 94.8067 72.9684 94.845 73.9136L95.3248 85.7399C95.5669 91.7053 99.9193 95.6307 102.065 96.8478C109.232 101.224 124.225 101.186 142.421 100.901C158.702 100.646 183.073 100.628 189.448 96.105C189.743 95.8958 190.04 95.6978 190.33 95.4825C193.258 93.3124 194.436 86.4103 194.933 81.3546C195.225 78.3804 195.271 73.2099 195.217 70.2219C195.207 69.6637 195.19 69.0556 195.163 68.3944C194.855 60.7907 188.687 57.7479 182.452 56.674C176.216 55.6002 128.936 56.634 125.403 56.7773C121.871 56.9206 112.304 57.3088 106.507 59.7553Z" fill="white" stroke="#D9D9D9" stroke-width="5" stroke-linejoin="round"/>
<path d="M106.304 54.7846C102.168 56.5299 97.6582 62.5496 95.3302 66.2589C94.8273 67.0602 94.6035 67.9977 94.6419 68.9429L95.1217 80.7692C95.3638 86.7346 99.7162 90.66 101.862 91.8771C109.029 96.2533 124.022 96.2152 142.217 95.9305C158.499 95.6757 182.869 95.6574 189.245 91.1343C189.54 90.9251 189.837 90.727 190.127 90.5118C193.055 88.3417 194.233 81.4396 194.73 76.3839C195.022 73.4097 195.067 68.2392 195.014 65.2512C195.004 64.693 194.987 64.0849 194.96 63.4237C194.652 55.82 188.484 52.7772 182.249 51.7033C176.013 50.6295 128.733 51.6633 125.2 51.8066C121.668 51.9499 112.101 52.3381 106.304 54.7846Z" fill="white" stroke="#D9D9D9" stroke-width="5" stroke-linejoin="round"/>
<path d="M300.613 200.997V58.8019C300.613 55.1974 296.805 52.4344 293.286 53.2158C280.218 56.1177 246.849 61.0855 171.537 61.0855C105.794 61.0855 29.9978 53.9184 8.77922 51.7727C5.72375 51.4637 3.13107 53.9187 3.27634 56.9864C5.53332 104.648 9.55758 193.857 9.55758 211.271V338.616C9.55758 341.184 11.4764 343.311 14.0314 343.561C49.8417 347.064 121.461 352.891 154.329 351.25C186.825 349.628 253.275 345.573 287.201 343.452C290.099 343.27 292.263 340.662 292.12 337.761C291.793 331.181 291.669 319.496 292.542 302.45C294.056 272.913 300.613 229.678 300.613 200.997Z" fill="white" stroke="#D9D9D9" stroke-width="5" stroke-linejoin="round"/>
</svg>
