<svg width="103" height="65" fill="none" xmlns="http://www.w3.org/2000/svg"><path d="M89.234 20.268c4.203 1.576 8.953 7.408 11.429 11.02.535.78.797 1.708.797 2.654v11.836c0 5.97-4.19 10.069-6.285 11.372-6.983 4.663-21.965 5.233-40.158 5.686-16.279.406-40.63 1.375-47.183-2.886-.304-.197-.608-.383-.907-.586-3.013-2.05-4.47-8.898-5.171-13.93-.413-2.96-.668-8.124-.736-11.112A80.505 80.505 0 011 32.494c0-7.61 6.04-10.9 12.226-12.226 6.187-1.326 53.47-2.21 57.006-2.21 3.535 0 13.11 0 19.002 2.21z" fill="#fff" stroke="#81EC40" stroke-width="2" stroke-linejoin="round"/><path d="M89.234 3.21c4.203 1.576 8.953 7.408 11.429 11.02.535.78.797 1.707.797 2.653V28.72c0 5.97-4.19 10.07-6.285 11.372-6.983 4.663-21.965 5.233-40.158 5.687-16.279.405-40.63 1.375-47.183-2.886-.304-.197-.608-.383-.907-.587-3.013-2.05-4.47-8.898-5.171-13.93-.413-2.96-.668-8.123-.736-11.111a80.521 80.521 0 01-.02-1.83c0-7.61 6.04-10.9 12.226-12.225C19.413 1.884 66.696 1 70.232 1c3.535 0 13.11 0 19.002 2.21z" fill="#fff" stroke="#81EC40" stroke-width="2" stroke-linejoin="round"/></svg>