<svg width="119" height="108" viewBox="0 0 119 108" fill="none" xmlns="http://www.w3.org/2000/svg">
<path d="M85.4058 23.5583C90.3349 22.5349 98.7037 25.6689 102.272 27.3639L109.367 38.594C112.556 43.6414 111.203 49.3443 110.128 51.5648C106.716 59.2369 94.3539 67.721 79.2161 77.8213C65.3487 87.0739 44.645 101.345 37.2495 100.553C31.6058 101.176 22.3618 88.3615 21.4017 87.1702C21.7338 86.9604 20.3331 85.7545 17.3433 81.0224C13.2786 74.589 16.6268 68.5815 21.1489 64.1562C25.671 59.731 65.1727 33.7281 68.1614 31.8398C71.1501 29.9515 79.2445 24.8374 85.4058 23.5583Z" fill="white"/>
<path d="M78.9517 13.3434C83.8808 12.3201 92.2496 15.4541 95.8179 17.149L102.913 28.3792C106.102 33.4265 104.749 39.1294 103.674 41.3499C100.262 49.0221 87.8998 57.5062 72.762 67.6064C58.8946 76.859 38.1909 91.1302 30.7953 90.338C25.1517 90.9612 15.9077 78.1467 14.9476 76.9554C15.2797 76.7455 13.879 75.5397 10.8892 70.8076C6.82448 64.3741 10.1727 58.3666 14.6948 53.9414C19.2169 49.5162 58.7186 23.5133 61.7073 21.625C64.696 19.7367 72.7904 14.6226 78.9517 13.3434Z" fill="#2D74A9"/>
<path d="M76.2945 9.13736C81.2235 8.114 89.5924 11.248 93.1607 12.943L100.256 24.1731C103.445 29.2205 102.092 34.9234 101.017 37.1439C97.6043 44.816 85.2426 53.3001 70.1048 63.4004C56.2374 72.653 35.5337 86.9241 28.1381 86.1319C22.4944 86.7551 13.2505 73.9406 12.2904 72.7493C12.6225 72.5395 11.2217 71.3336 8.23195 66.6015C4.16725 60.1681 7.51545 54.1606 12.0376 49.7353C16.5597 45.3101 56.0614 19.3072 59.0501 17.4189C62.0388 15.5306 70.1332 10.4166 76.2945 9.13736Z" fill="#66A6D6"/>
</svg>
