<svg width="106" height="68" viewBox="0 0 106 68" fill="none" xmlns="http://www.w3.org/2000/svg">
<path d="M91.2336 22.2681C95.4368 23.8443 100.187 29.6762 102.663 33.2881C103.198 34.0684 103.46 34.996 103.46 35.942V47.778C103.46 53.7483 99.2699 57.847 97.175 59.15C90.1918 63.8131 75.2096 64.3829 57.0173 64.8361C40.7384 65.2416 16.3876 66.2112 9.83355 61.9503C9.53048 61.7532 9.22594 61.5674 8.92704 61.3641C5.91361 59.3145 4.45734 52.4658 3.75586 47.4343C3.3432 44.4745 3.08801 39.3101 3.02022 36.3223C3.00755 35.7642 3 35.1559 3 34.4941C3 26.8842 9.03936 23.5938 15.226 22.2681C21.4127 20.9424 68.6964 20.0586 72.2317 20.0586C75.7669 20.0586 85.3415 20.0586 91.2336 22.2681Z" fill="white" stroke="#D9D9D9" stroke-width="5" stroke-linejoin="round"/>
<path d="M91.2336 5.20952C95.4368 6.78573 100.187 12.6176 102.663 16.2295C103.198 17.0098 103.46 17.9374 103.46 18.8834V30.7194C103.46 36.6897 99.2699 40.7884 97.175 42.0914C90.1918 46.7545 75.2096 47.3243 57.0173 47.7775C40.7384 48.183 16.3876 49.1526 9.83355 44.8917C9.53048 44.6947 9.22594 44.5088 8.92704 44.3055C5.91361 42.2559 4.45734 35.4072 3.75586 30.3757C3.3432 27.4159 3.08801 22.2515 3.02022 19.2638C3.00755 18.7056 3 18.0973 3 17.4355C3 9.8256 9.03936 6.53523 15.226 5.20952C21.4127 3.88381 68.6964 3 72.2317 3C75.7669 3 85.3415 3 91.2336 5.20952Z" fill="white" stroke="#D9D9D9" stroke-width="5" stroke-linejoin="round"/>
</svg>
