<svg width="101" height="63" viewBox="0 0 101 63" fill="none" xmlns="http://www.w3.org/2000/svg">
<path d="M88.2336 19.2676C92.9472 21.0352 98.3483 28.1548 100.46 31.4936V44.7775C100.46 50.7478 96.2699 54.8465 94.175 56.1495C87.1918 60.8126 72.2096 61.3824 54.0173 61.8356C37.3516 62.2507 12.226 63.2571 6.39692 58.6372C1.29289 56.1495 0.322682 40.3787 0.147301 38.8587C0.540105 38.8587 -2.0896e-06 37.0911 0 31.4936C2.8409e-06 23.8837 6.03936 20.5933 12.226 19.2676C18.4127 17.9419 65.6964 17.0581 69.2317 17.0581C72.7669 17.0581 82.3415 17.0581 88.2336 19.2676Z" fill="white"/>
<path d="M88.2336 7.18462C92.9472 8.95224 98.3483 16.0718 100.46 19.4106V32.6945C100.46 38.6648 96.2699 42.7635 94.175 44.0665C87.1918 48.7296 72.2096 49.2994 54.0173 49.7526C37.3516 50.1677 12.226 51.1741 6.39692 46.5542C1.29289 44.0665 0.322682 28.2957 0.147301 26.7757C0.540105 26.7757 -2.0896e-06 25.0081 0 19.4106C2.8409e-06 11.8007 6.03936 8.51033 12.226 7.18462C18.4127 5.85891 65.6964 4.9751 69.2317 4.9751C72.7669 4.9751 82.3415 4.9751 88.2336 7.18462Z" fill="#2D74A9"/>
<path d="M88.2336 2.20952C92.9472 3.97714 98.3483 11.0967 100.46 14.4355V27.7194C100.46 33.6897 96.2699 37.7884 94.175 39.0914C87.1918 43.7545 72.2096 44.3243 54.0173 44.7775C37.3516 45.1926 12.226 46.199 6.39692 41.5791C1.29289 39.0914 0.322682 23.3206 0.147301 21.8006C0.540105 21.8006 -2.0896e-06 20.033 0 14.4355C2.8409e-06 6.8256 6.03936 3.53523 12.226 2.20952C18.4127 0.883809 65.6964 0 69.2317 0C72.7669 0 82.3415 0 88.2336 2.20952Z" fill="#66A6D6"/>
</svg>
