<svg width="119" height="105" fill="none" xmlns="http://www.w3.org/2000/svg"><path d="M97.886 60.803c2.852 3.466 4.049 10.892 4.388 15.258a4.676 4.676 0 01-.637 2.697l-5.918 10.25c-2.985 5.17-8.663 6.625-11.129 6.706-8.379.547-21.639-6.45-37.62-15.154-14.301-7.79-35.874-19.124-39.42-26.092-.164-.322-.334-.635-.492-.96-1.585-3.282.579-9.941 2.487-14.65 1.122-2.77 3.484-7.37 4.919-9.99.268-.49.566-1.02.896-1.594 3.805-6.59 10.68-6.42 16.701-4.475 6.021 1.945 47.412 24.822 50.473 26.59 3.062 1.767 11.354 6.554 15.352 11.414z" fill="#fff" stroke="#D9D9D9" stroke-width="5" stroke-linejoin="round"/><path d="M106.417 46.03c2.852 3.467 4.05 10.892 4.388 15.259.074.943-.164 1.877-.637 2.696l-5.918 10.25c-2.985 5.17-8.663 6.626-11.128 6.707-8.38.547-21.64-6.451-37.621-15.155-14.3-7.788-35.874-19.124-39.42-26.091-.163-.322-.334-.635-.491-.96-1.585-3.283.578-9.942 2.486-14.65 1.123-2.77 3.484-7.37 4.919-9.991a81.2 81.2 0 01.897-1.594c3.805-6.59 10.68-6.42 16.7-4.474 6.021 1.945 47.412 24.821 50.474 26.589 3.061 1.767 11.353 6.555 15.351 11.414z" fill="#fff" stroke="#D9D9D9" stroke-width="5" stroke-linejoin="round"/></svg>