<svg width="63" height="101" viewBox="0 0 63 101" fill="none" xmlns="http://www.w3.org/2000/svg">
<path d="M19.2676 12.449C21.0352 7.7354 28.1548 2.33434 31.4936 0.223022L44.7775 0.223021C50.7478 0.223021 54.8465 4.41275 56.1495 6.50761C60.8126 13.4908 61.3824 28.473 61.8356 46.6654C62.2507 63.331 63.2571 88.4566 58.6372 94.2857C56.1495 99.3897 40.3787 100.36 38.8587 100.535C38.8587 100.143 37.0911 100.683 31.4936 100.683C23.8837 100.683 20.5933 94.6433 19.2676 88.4566C17.9419 82.2699 17.0581 34.9862 17.0581 31.4509C17.0581 27.9157 17.0581 18.3411 19.2676 12.449Z" fill="#E6E6E6"/>
<path d="M7.18462 12.449C8.95223 7.7354 16.0718 2.33434 19.4106 0.223022L32.6945 0.223021C38.6648 0.223021 42.7635 4.41275 44.0665 6.50761C48.7296 13.4908 49.2994 28.473 49.7526 46.6654C50.1677 63.331 51.1741 88.4566 46.5542 94.2857C44.0665 99.3897 28.2957 100.36 26.7757 100.535C26.7757 100.143 25.0081 100.683 19.4106 100.683C11.8007 100.683 8.51033 94.6433 7.18462 88.4566C5.85891 82.2699 4.97509 34.9862 4.97509 31.4509C4.97509 27.9157 4.97509 18.3411 7.18462 12.449Z" fill="#2D74A9"/>
<path d="M2.20952 12.449C3.97713 7.7354 11.0967 2.33434 14.4355 0.223022L27.7194 0.223021C33.6897 0.223021 37.7884 4.41275 39.0914 6.50761C43.7545 13.4908 44.3243 28.473 44.7775 46.6654C45.1926 63.331 46.199 88.4566 41.5791 94.2857C39.0914 99.3897 23.3206 100.36 21.8006 100.535C21.8006 100.143 20.033 100.683 14.4355 100.683C6.8256 100.683 3.53523 94.6433 2.20952 88.4566C0.883808 82.2699 -2.87168e-06 34.9862 -3.02621e-06 31.4509C-3.18074e-06 27.9157 -3.59926e-06 18.3411 2.20952 12.449Z" fill="#66A6D6"/>
</svg>
