<svg width="224" height="682" viewBox="0 0 224 682" fill="none" xmlns="http://www.w3.org/2000/svg">
<path d="M0 502.579C0 436.686 40.4855 261.062 60.7283 181.487H137.511C145.887 227.092 163.757 323.745 168.224 345.523C173.808 372.746 203.126 387.405 215.69 418.816C228.254 450.227 223.368 626.828 215.69 649.165C208.012 671.501 150.076 681.972 117.268 681.972C84.4611 681.972 38.3914 670.803 23.7329 667.313C9.07434 663.823 0 584.946 0 502.579Z" fill="#EFD6AC"/>
<path d="M59.8604 88.0681V181.487H137.236C135.487 146.164 133.039 72.5913 137.236 60.8791C141.432 49.1669 172.207 40.1969 187.07 37.1759V0.923844C182.48 0.226689 157.825 -0.749326 95.9251 0.923844C34.025 2.59701 15.49 59.7172 13.96 88.0681H59.8604Z" fill="#BE1B1E"/>
<path d="M215.69 1.87451H186.373V36.0778H215.69V1.87451Z" fill="#9C1619"/>
<path d="M168.922 76.085C168.922 67.7087 176.6 43.7431 180.788 38.3916L163.338 42.5798L147.283 50.258C148.447 69.1047 158.172 98.2822 165.432 108.892C179.392 129.296 197.541 147.982 218.482 142.397C201.729 138.874 168.922 92.8376 168.922 76.085Z" fill="#9C1619"/>
<path d="M147.285 85.8567C143.376 83.623 137.28 84.926 134.72 85.8567C134.72 78.8764 135.279 63.799 137.512 59.3317C139.746 54.8643 144.958 51.4207 147.285 50.2573L157.535 92.1389C156.139 90.9755 151.194 88.0904 147.285 85.8567Z" fill="#861315"/>
</svg>
