<svg width="229" height="688" viewBox="0 0 229 688" fill="none" xmlns="http://www.w3.org/2000/svg">
<path d="M3 505.578C3 439.685 43.4855 264.061 63.7283 184.486H140.511C148.887 230.091 166.757 326.744 171.224 348.522C176.808 375.745 206.126 390.404 218.69 421.815C231.254 453.226 226.368 629.827 218.69 652.164C211.012 674.501 153.076 684.971 120.268 684.971C87.4611 684.971 41.3914 673.802 26.7329 670.312C12.0743 666.822 3 587.945 3 505.578Z" fill="white" stroke="#D9D9D9" stroke-width="5"/>
<path d="M62.8614 91.0681V184.487H140.237C138.488 149.164 136.04 75.5913 140.237 63.8791C144.433 52.1669 175.208 43.1969 190.071 40.1759V3.92384C185.481 3.22669 160.826 2.25067 98.9261 3.92384C37.026 5.59701 18.491 62.7172 16.9609 91.0681H62.8614Z" fill="white" stroke="#81EC40" stroke-width="5"/>
<path d="M218.692 4.875H189.375V39.0783H218.692V4.875Z" fill="white" stroke="#81EC40" stroke-width="5"/>
<path d="M171.92 79.084C171.92 70.7077 179.598 46.7422 183.786 41.3906L166.336 45.5788L150.281 53.2571C151.445 72.1038 161.17 101.281 168.43 111.891C182.39 132.295 200.539 150.981 221.48 145.396C204.727 141.873 171.92 95.8366 171.92 79.084Z" fill="white" stroke="#81EC40" stroke-width="5"/>
</svg>
