<svg width="231" height="690" viewBox="0 0 231 690" fill="none" xmlns="http://www.w3.org/2000/svg">
<path d="M4 506.58C4 440.687 44.4855 265.063 64.7283 185.488H141.511C149.887 231.093 167.757 327.746 172.224 349.524C177.808 376.747 207.126 391.406 219.69 422.817C232.254 454.228 227.368 630.829 219.69 653.166C212.012 675.502 154.076 685.973 121.268 685.973C88.4611 685.973 42.3914 674.804 27.7329 671.314C13.0743 667.824 4 588.947 4 506.58Z" fill="white" stroke="#81EC40" stroke-width="7"/>
<path d="M63.8614 92.0681V185.487H141.237C139.488 150.164 137.04 76.5913 141.237 64.8791C145.433 53.1669 176.208 44.1969 191.071 41.1759V4.92384C186.481 4.22669 161.826 3.25067 99.9261 4.92384C38.026 6.59701 19.491 63.7172 17.9609 92.0681H63.8614Z" fill="white" stroke="#81EC40" stroke-width="7"/>
<path d="M219.688 5.875H190.371V40.0783H219.688V5.875Z" fill="white" stroke="#81EC40" stroke-width="7"/>
<path d="M172.924 80.084C172.924 71.7077 180.602 47.7422 184.79 42.3906L167.34 46.5788L151.285 54.2571C152.449 73.1038 162.174 102.281 169.434 112.891C183.394 133.295 201.543 151.981 222.484 146.396C205.731 142.873 172.924 96.8366 172.924 80.084Z" fill="white" stroke="#81EC40" stroke-width="7"/>
</svg>
