<svg width="240" height="282" fill="none" xmlns="http://www.w3.org/2000/svg"><path fill="#AD9494" d="M49.033 18.144h142.885v263.544H49.033z"/><rect x=".951" y="126.556" width="4.082" height="14.515" rx="2.041" fill="#7C5F5F"/><path d="M7.3 0l42.64 18.144v239.503L7.3 266.719V0z" fill="#C3B1B1"/><path fill="#977777" d="M4.125.454h4.082v265.812H4.125z"/><path d="M233.649 0l-42.638 18.144v239.503l42.638 9.072V0z" fill="#C3B1B1"/><path fill="#977777" d="M236.825.454h-4.082v265.812h4.082z"/><rect width="4.082" height="14.515" rx="2.041" transform="matrix(-1 0 0 1 240 126.556)" fill="#7C5F5F"/><path fill="#7C5F5F" d="M56.289 25.402h128.37V250.39H56.289z"/><path fill="#977777" d="M56.289 92.535h128.37v12.247H56.289z"/><path fill="#977777" d="M123.879 25.402v68.04h-6.804v-68.04zm0 78.473v68.041h-6.804v-68.041zm0 78.474v68.041h-6.804v-68.041z"/><path fill="#977777" d="M56.289 171.009h128.37v12.247H56.289z"/></svg>