<svg width="452" height="613" fill="none" xmlns="http://www.w3.org/2000/svg"><path fill="#DEE1E3" d="M0 0h452v613H0z"/><circle cx="227" cy="309" r="174" fill="#C5C5C5"/><circle cx="227" cy="309" r="141" fill="#252525"/><path d="M330.157 256.145l41.719-23.094c4.976-2.755 11.243-.811 13.441 4.434 5.802 13.846 13.561 36.886 15.183 62.515 2.123 33.536-8.009 64.189-16.319 83.085-2.2 5.003-8.135 7.01-13.059 4.638l-40.463-19.496a10 10 0 01-5.659-9.009v-94.324c0-3.637 1.975-6.987 5.157-8.749z" fill="#C5C5C5"/><circle cx="400.5" cy="54.5" r="33.5" fill="#CCC"/><circle cx="400.5" cy="54.5" r="27.119" fill="#BFBFBF"/><circle cx="400.5" cy="54.5" r="20.738" fill="#B3B3B3"/><path d="M11 91V18a5 5 0 015-5h133a5 5 0 015 5v60.126a5 5 0 01-3.212 4.67l-33.625 12.873a4.983 4.983 0 01-1.787.331H16a5 5 0 01-5-5z" fill="#CCC"/><path d="M137 60H46a5 5 0 00-5 5v16a5 5 0 005 5h65.52c.58 0 1.155-.1 1.701-.298l25.479-9.215a5 5 0 003.3-4.702V65a5 5 0 00-5-5z" fill="#BABABA"/><path fill="#252525" d="M227 34h82v43h-82z"/></svg>