<svg width="430" height="593" fill="none" xmlns="http://www.w3.org/2000/svg"><path d="M94.5 248v-25.5H323V248H94.5z" fill="#CCC"/><path d="M108.5 291c-13.2-1.2-49.167-12.833-65.5-18.5 17.2-7.6 71.167-9.167 96-9V291c-4.667.5-17.3 1.2-30.5 0zm218 0c13.2-1.2 49.167-12.833 65.5-18.5-17.2-7.6-71.167-9.167-96-9V291c4.667.5 17.3 1.2 30.5 0z" fill="#BFBFBF"/><path d="M137.5 287v-23c74.4-11.2 138.666-4.667 161.5 0v23h41c30 102 47.6 306-122 306S64 389 93 287h44.5z" fill="#D9D9D9"/><ellipse cx="217" cy="438" rx="92" ry="112" fill="#BFBFBF"/><path d="M213.5 364c-13.2 1.2-25.833 8.5-30.5 12-4.5 26-4.7 78.3 30.5 79.5 35.2 1.2 37-52.5 33.5-79.5-5.667-4.5-20.3-13.2-33.5-12z" fill="#999"/><path d="M37 262v10.5C71.5 269 156.9 262 222.5 262s142 7 172 10.5V262c-14.167-7.667-68.4-23.3-172-24.5C118.9 236.3 55.667 253.333 37 262zM0 89C0 39.847 39.847 0 89 0h252c49.153 0 89 39.847 89 89v89s-44.5 56.5-215 56.5S0 178 0 178V89z" fill="#E6E6E6"/><circle cx="206" cy="70" r="30" fill="#CDCDCD"/><circle cx="206" cy="70" r="21" fill="#B3B3B3"/></svg>