<svg width="243" height="269" fill="none" xmlns="http://www.w3.org/2000/svg"><path fill="#141414" d="M23.342 0h197.934v217.489H23.342z"/><path d="M213.646 8.585H30.974V217.49h182.672V8.585z" fill="#2F2F2F"/><path d="M213.733 185.289l-28.617-14.287v5.629l28.617 14.287v-5.629zm0 14.946l-28.617-16.485v5.629l28.617 16.485v-5.629zM30.817 185.289l28.617-14.287v5.629l-28.617 14.287v-5.629zm0 14.946l28.617-16.485v5.629l-28.617 16.485v-5.629zm0-134.429l28.617 7.167v5.629l-28.617-7.168v-5.628zm0 19.915h28.617v5.629H30.817v-5.63zm182.916-19.915l-28.617 7.167v5.629l28.617-7.168v-5.628zm0 19.915h-28.617v5.629h28.617v-5.63z" fill="#555"/><path d="M57.683 25.756h128.776v171.702H57.683V25.756z" fill="#242424"/><path d="M214.122 8.108l-28.378 18.601H57.683L30.258 8.108h183.864z" fill="#272727"/><path fill-rule="evenodd" clip-rule="evenodd" d="M44.566 108.269l13.116-8.347H186.46l6.439 4.173 7.154 4.174H44.566zm13.593-5.486h127.346l2.534 1.431 6.112 4.054H50.002l6.225-4.054 1.932-1.431z" fill="#555"/><path d="M57.682 62.481l-12.877 2.623h155.247l-14.07-2.623h-128.3zm-1.43 4.054h2.385V99.92l-2.385 1.431V66.535zm131.639 0h-2.385V99.92l2.385 1.431V66.535z" fill="#555"/><path d="M95.361 79.174H98.7v27.663h-3.339V79.174zm49.603 0h3.339v27.663h-3.339V79.174z" fill="#6E6E6E"/><path fill="#878787" d="M44.805 72.974h155.486v2.385H44.805zm0 12.4h155.486v2.385H44.805zm0 12.401h155.486v2.385H44.805z"/><path fill-rule="evenodd" clip-rule="evenodd" d="M200.292 64.389H44.806v44.356h155.486V64.389zm-3.339 2.861H48.144v38.633h148.809V67.25z" fill="#878787"/><path fill-rule="evenodd" clip-rule="evenodd" d="M44.566 206.678l13.116-8.347H186.46l6.439 4.173 7.154 4.174H44.566zm13.593-5.485h127.346l2.534 1.431 6.112 4.054H50.002l6.225-4.054 1.932-1.431z" fill="#555"/><path d="M57.682 160.891l-12.877 2.623h155.247l-14.07-2.623h-128.3zm-1.43 4.054h2.385v33.386l-2.385 1.431v-34.817zm131.639 0h-2.385v33.386l2.385 1.431v-34.817z" fill="#555"/><path d="M95.361 177.584H98.7v27.663h-3.339v-27.663zm49.603 0h3.339v27.663h-3.339v-27.663z" fill="#6E6E6E"/><path fill="#878787" d="M44.805 171.383h155.486v2.385H44.805zm0 12.401h155.486v2.385H44.805zm0 12.401h155.486v2.385H44.805z"/><path fill-rule="evenodd" clip-rule="evenodd" d="M200.292 162.798H44.806v44.356h155.486v-44.356zm-3.339 2.863H48.144v38.633h148.809v-38.633z" fill="#878787"/><path d="M.926 256.6l28.112-40.064h184.159l29.066 40.064H.926z" fill="#141414"/><path fill="#2F2F2F" d="M.926 255.646h240.86v13.355H.926z"/><rect x="12.85" y="243.245" width="217.966" height="13.355" rx="5" fill="#2F2F2F"/><path d="M31.232 216.536L12.85 244.199h217.966l-17.189-27.663H31.232z" fill="#242424"/><path d="M39.955 216.536l-16.613 25.278h74.404l2.146-9.777h46.741l1.67 9.777h72.019l-15.534-25.278H39.955z" fill="#141414"/><path d="M41.467 241.813l8.81-12.877H196.01l6.429 12.125-53.589.752-2.418-10.367H99.395l-2.638 10.367h-55.29z" fill="#000"/><path d="M100.607 241.337l1.431-6.916h19.078v6.916h-20.509zm44.358 0l-1.431-6.916h-19.078v6.916h20.509z" fill="#000"/></svg>