<svg width="737" height="412" fill="none" xmlns="http://www.w3.org/2000/svg"><path d="M63.817 1h599.637L715 109H21L63.817 1z" fill="#CCC09E"/><path d="M22 107h693v32H22v-32z" fill="#BBAA7C"/><path fill="#BBAA7C" d="M713 107h23v303h-23zM0 107h24v303H0z"/><path fill="#B19D68" d="M51 139h24v165H51zm610 0h24v165h-24z"/><path d="M45.652.76L0 109h23.348L66 1 45.652.76zm640.015 2L737 109h-24.66L660 0l25.667 2.76z" fill="#BBAA7C"/><path d="M705 400.161L715 411V139h-10v261.161zm-672 .96L22 412V139h11v262.121z" fill="#AA945A"/><path d="M652 297.425L663 304V139h-11v158.425zm-569 0L72 304V139h11v158.425z" fill="#97834E"/></svg>