<svg width="913" height="615" fill="none" xmlns="http://www.w3.org/2000/svg"><path fill="#CCC09E" d="M0 .195h913v586.693H0z"/><path d="M312.561 429.542c4.671-2.612 3.193-21.501 1.87-30.619-1.049-9.94-12.387-22.144-13.312-23.798-.926-1.654 1.155-4.489 2.941-6.658 1.787-2.169-9.93-8.814-11.911-9.377-1.981-.563-2.207-3.945-1.55-9.325.657-5.38-11.466-4.112-12.89-6.658-1.423-2.545 1.84-6.542 3.209-10.65 1.369-4.107-11.834-14.6-16.022-12.257-4.189 2.344 2.224 15.297-.696 16.93-2.919 1.634-3.837-12.222-9.586-11.178-5.749 1.043-13.425 21.879-17.323 26.231-3.898 4.353-10.65 2.114-12.857 5.02-2.208 2.906 2.202 20.322 3.814 24.098 1.613 3.777 15.64-5.407 18.333 3.279 2.692 8.686-17.033 3.513-16.375 9.16.659 5.646 7.19 12.853 8.97 16.035 1.78 3.181-6.437 5.772-11.551 6.461-5.114.689-7.671-2.392-10.209-7.823-2.538-5.431-14.007-6.868-26.458-2.91-12.452 3.957-16.375 9.159-19.929 11.147-3.554 1.988-17.721 8.242-20.563 11.503-2.842 3.261 8.477 23.495 8.489 26.496.012 3.001-12.783 9.323-4.794 17.051 7.989 7.728 19.46-4.537 25.314-7.478 5.855-2.94 16.274 1.089 19.246 1.933 2.972.844 13.355 2.722 15.513 1.515 2.158-1.207 7.833-6.554 10.371-7.974 2.539-1.42 10.217-4.378 24.281-11.41 14.065-7.032 8.028-35.401 8.366-39.266.338-3.865 2.487-10.748 5.951-10.514 3.464.235-.236 11.494-2.036 17.513-1.799 6.019 5.411 9.672 6.478 11.581 1.068 1.909-4.786 4.85-3.322 6.871 1.464 2.021 13.011 5.086 15.729 6.072 2.718.986.283 14.211 2.543 13.782 1.808-.343 8.411-8.102 11.486-11.939 4.214-3.193 13.809-10.231 18.48-12.844z" fill="#C1B28B"/><path d="M206.016 396.574c2.33-.888 5.795-6.288 7.237-8.877.43-.752 1.736-7.515 1.313-10.186-.424-2.671-4.599-4.49-7.195-5.686-2.596-1.196-4.652-5.446-8.804-7.798-4.151-2.351-23.354-2.047-28.225 1.301-4.87 3.348-6.74 14.26-4.744 19.167 1.995 4.907 9.984 9.526 14.442 12.329 4.458 2.803 23.065.859 25.976-.25zm133.815-30.032c-.491 3.255-6.399 9.287-9.293 11.896-.836.772-9.064 4.423-12.57 4.655-3.506.232-6.955-4.61-9.183-7.603-2.227-2.992 9.177-12.124 5.059-16.782-4.118-4.658-26.337-21.734-23.417-28.976 2.919-7.242 16.26-12.825 23.034-11.686 6.774 1.14 14.819 10.075 19.594 14.996 4.776 4.92 7.389 29.43 6.776 33.5z" fill="#C1B28B"/><path d="M106.874 276.808c-5.053 1.765-6.869 20.624-7.146 29.833-.69 9.971 8.363 23.955 8.988 25.744.625 1.79-1.915 4.221-4.051 6.048-2.135 1.827 8.253 10.401 10.107 11.299 1.854.897 1.49 4.268-.089 9.452-1.579 5.185 10.58 6.037 11.542 8.79.961 2.754-2.945 6.125-5.005 9.933s9.125 16.43 13.656 14.848c4.532-1.582.46-15.451 3.618-16.554 3.158-1.103 1.662 12.703 7.505 12.671 5.842-.032 17.012-19.223 21.606-22.834 4.593-3.612 10.854-.238 13.532-2.717 2.677-2.479 1.352-20.396.418-24.395-.934-3.998-16.34 2.616-17.487-6.405-1.147-9.021 17.384-.509 17.713-6.184.33-5.675-4.854-13.905-6.056-17.346-1.202-3.442 7.339-4.571 12.496-4.363 5.156.208 7.14 3.685 8.699 9.473 1.558 5.789 12.606 9.191 25.554 7.45 12.949-1.74 17.714-6.184 21.559-7.526 3.844-1.343 18.88-5.048 22.244-7.767 3.364-2.719-4.278-24.608-3.77-27.565.508-2.958 14.205-6.968 7.676-15.963-6.53-8.995-19.952 1.097-26.227 2.979-6.276 1.882-15.84-3.892-18.621-5.238-2.78-1.346-12.681-4.994-15.015-4.179-2.334.815-8.85 5.098-11.596 6.056-2.746.959-10.82 2.543-25.891 7.032-15.07 4.489-14.039 33.475-15.041 37.222-1.003 3.748-4.312 10.155-7.683 9.324-3.371-.831 2.224-11.279 5.039-16.895 2.815-5.617-3.653-10.463-4.374-12.528-.721-2.065 5.554-3.947 4.463-6.192-1.092-2.244-11.933-7.263-14.439-8.705-2.506-1.442 2.183-14.045-.117-14.014-1.84.025-9.688 6.523-13.381 9.769-4.703 2.414-15.373 7.683-20.426 9.447z" fill="#C1B28B"/><path d="M204.357 342.649c-2.448.47-6.796 5.189-8.665 7.489-.553.666-3.012 7.1-3.057 9.804-.046 2.704 3.751 5.219 6.1 6.847 2.35 1.628 3.639 6.17 7.32 9.205 3.682 3.035 22.647 6.062 28.024 3.609 5.377-2.454 9.109-12.877 7.993-18.056-1.115-5.179-8.183-11.112-12.088-14.645-3.905-3.533-22.567-4.841-25.627-4.253zm-136.995 6.396c1.047-3.122 7.912-8.038 11.213-10.107.958-.615 9.694-2.785 13.187-2.407 3.494.379 6.051 5.746 7.727 9.079 1.675 3.332-11.139 10.351-7.89 15.652 3.25 5.301 22.174 25.968 18.044 32.595-4.13 6.627-18.237 9.814-24.711 7.518-6.475-2.296-12.85-12.49-16.7-18.163-3.85-5.673-2.178-30.265-.87-34.167zm482.974 97.835c.887 5.279 19.17 10.25 28.2 12.076 9.712 2.361 25.022-4.204 26.892-4.518 1.869-.314 3.837 2.6 5.278 5.013 1.44 2.412 11.644-6.381 12.841-8.057 1.197-1.676 4.458-.749 9.302 1.682 4.844 2.431 7.735-9.411 10.611-9.894 2.876-.483 5.54 3.936 8.947 6.609 3.406 2.672 17.733-6.224 16.937-10.957-.795-4.734-15.152-3.059-15.706-6.358-.554-3.299 12.801.504 13.755-5.26.953-5.765-16.078-20.011-18.863-25.147-2.785-5.137 1.596-10.74-.396-13.797-1.992-3.057-19.876-4.772-23.975-4.526-4.098.246-.177 16.547-9.262 16.156-9.086-.391 2.43-17.221-3.109-18.502-5.538-1.282-14.524 2.439-18.119 3.043-3.595.604-3.267-8.005-2.193-13.052 1.075-5.047 4.837-6.417 10.805-6.977 5.968-.56 11.185-10.875 11.653-23.932.468-13.057-3.108-18.503-3.783-22.519-.675-4.016-1.791-19.461-3.903-23.236-2.113-3.774-24.978.067-27.807-.932-2.83-1-4.472-15.177-14.44-10.258-9.967 4.919-2.284 19.851-1.487 26.354.797 6.503-6.507 14.956-8.303 17.47-1.795 2.514-7.061 11.657-6.651 14.096.409 2.438 3.532 9.582 4.014 12.451.482 2.869.681 11.094 2.564 26.705 1.883 15.612 30.628 19.484 34.153 21.104 3.525 1.62 9.282 5.962 7.894 9.145-1.387 3.183-10.742-4.094-15.803-7.816-5.062-3.722-10.93 1.836-13.087 2.198-2.157.363-2.953-6.14-5.35-5.443-2.396.698-9.172 10.538-11.015 12.765-1.844 2.226-13.476-4.521-13.833-2.248-.286 1.817 4.795 10.648 7.372 14.836 1.586 5.043 4.981 16.448 5.867 21.726z" fill="#C1B28B"/><path d="M617.267 357.668c.051 2.492 3.969 7.575 5.921 9.804.563.658 6.49 4.167 9.148 4.667 2.658.501 5.776-2.817 7.777-4.858 2.001-2.041 6.696-2.546 10.308-5.663 3.612-3.117 9.795-21.3 8.283-27.013-1.511-5.714-11.156-11.15-16.449-10.924-5.292.226-12.332 6.192-16.473 9.445-4.141 3.253-8.579 21.427-8.515 24.542zM600.468 493.78c-2.9-1.559-6.589-9.154-8.07-12.757-.446-1.048-1.111-10.025-.149-13.404.962-3.38 6.684-4.996 10.251-6.085 3.568-1.089 8.325 12.725 14.098 10.416 5.773-2.308 29.335-17.476 35.171-12.288 5.835 5.189 6.598 19.631 3.243 25.625-3.355 5.995-14.478 10.559-20.719 13.398-6.242 2.838-30.199-2.957-33.825-4.905zm-172.929 49.521c5.242 1.078 16.476-14.179 21.437-21.943 5.706-8.206 5.108-24.853 5.49-26.71.382-1.856 3.81-2.641 6.579-3.113 2.77-.473-1.749-13.162-2.88-14.884-1.131-1.721.91-4.427 4.925-8.068s-5.986-10.609-5.398-13.466c.587-2.856 5.67-3.747 9.391-5.959 3.721-2.213.594-18.784-4.107-19.751-4.701-.966-8.32 13.028-11.597 12.355-3.276-.674 5.09-11.757.058-14.727-5.032-2.969-24.465 7.775-30.26 8.519-5.795.744-9.44-5.365-13.01-4.61-3.57.755-11.622 16.815-12.872 20.727-1.249 3.911 15.369 6.136 11.726 14.468-3.643 8.332-15.184-8.48-18.378-3.777-3.194 4.702-2.965 14.426-3.699 17.997-.734 3.57-8.645.158-12.964-2.665-4.32-2.823-4.239-6.826-2.608-12.594 1.631-5.769-6.107-14.356-18.115-19.504-12.009-5.148-18.378-3.777-22.367-4.597-3.989-.82-18.797-5.352-23.079-4.744-4.283.609-8.951 23.319-10.904 25.597-1.953 2.278-15.768-1.306-14.776 9.765.991 11.071 17.689 9.293 24.041 10.897 6.352 1.603 11.601 11.465 13.297 14.047 1.697 2.582 8.324 10.792 10.746 11.29 2.422.497 10.212.163 13.061.749 2.85.585 10.593 3.368 25.832 7.245 15.239 3.876 29.223-21.534 32.005-24.237 2.783-2.703 8.91-6.506 11.378-4.063 2.467 2.442-7.695 8.541-12.992 11.918-5.297 3.378-2.232 10.856-2.672 12.998-.44 2.143-6.792.539-7.007 3.026-.214 2.487 6.518 12.356 7.93 14.879 1.411 2.523-9.078 10.937-7.088 12.09 1.592.923 11.661-.63 16.497-1.522 5.276.34 17.137 1.29 22.38 2.367z" fill="#C1B28B"/><path d="M368.487 448.688c2.343.852 8.496-.968 11.28-1.984.817-.288 6.228-4.55 7.654-6.848 1.425-2.298-.544-6.404-1.725-9.006-1.182-2.603.041-7.163-1.562-11.657-1.604-4.493-16.331-16.82-22.205-17.472-5.874-.653-14.424 6.381-16.123 11.399-1.699 5.017 1.325 13.736 2.864 18.772 1.54 5.035 16.889 15.732 19.817 16.796zm120.881 64.781c-2.501 2.142-10.915 2.842-14.81 2.924-1.138.037-9.75-2.581-12.555-4.698-2.804-2.117-2.247-8.036-1.975-11.757.271-3.72 14.871-3.172 14.801-9.389-.07-6.217-5.714-33.665 1.23-37.235 6.945-3.57 20.689.929 25.069 6.221 4.38 5.292 4.624 17.313 5.019 24.158.395 6.845-13.654 27.098-16.779 29.776z" fill="#C1B28B"/><path d="M509.212 374.587c-3.321-4.197-21.736.26-30.528 3.013-9.647 2.613-19.897 15.744-21.384 16.92-1.486 1.176-4.615-.428-7.04-1.847-2.425-1.42-7.127 11.203-7.368 13.248-.241 2.045-3.545 2.805-8.961 3.01-5.416.205-2.24 11.974-4.527 13.783-2.287 1.81-6.752-.778-11.025-1.477-4.272-.7-12.537 14-9.559 17.764 2.979 3.764 14.751-4.624 16.826-2 2.076 2.623-11.458 5.728-9.516 11.238 1.943 5.511 23.733 9.783 28.649 12.941 4.916 3.158 3.777 10.179 6.996 11.898 3.22 1.718 19.715-5.399 23.188-7.591 3.473-2.191-7.821-14.584.328-18.62 8.149-4.037 6.171 16.259 11.642 14.713 5.47-1.547 11.549-9.139 14.408-11.401 2.859-2.262 6.721 5.439 8.213 10.379 1.491 4.94-1.145 7.954-6.104 11.321-4.959 3.368-4.558 14.92 1.326 26.586 5.883 11.665 11.641 14.713 14.168 17.906 2.527 3.194 10.95 16.188 14.621 18.477 3.67 2.289 21.852-12.098 24.813-12.586 2.96-.488 11.233 11.142 17.595 2.028 6.362-9.115-7.567-18.494-11.4-23.808-3.832-5.313-1.508-16.24-1.146-19.308.362-3.068.568-13.617-.966-15.556-1.535-1.939-7.714-6.694-9.519-8.975-1.805-2.281-5.944-9.392-15.119-22.163-9.175-12.77-36.226-2.308-40.096-2.028-3.869.28-11.006-.75-11.324-4.207-.319-3.457 11.385-1.591 17.614-.769 6.228.821 8.69-6.877 10.406-8.234 1.715-1.357 5.547 3.956 7.311 2.19 1.763-1.767 2.957-13.653 3.499-16.493.542-2.84 13.985-2.535 13.203-4.698-.625-1.731-9.334-7.019-13.61-9.447-3.821-3.653-12.293-12.01-15.614-16.207z" fill="#C1B28B"/><path d="M493.57 485.014c-1.246-2.159-7.128-4.724-9.913-5.736-.81-.305-7.695-.522-10.265.32-2.57.842-3.703 5.253-4.472 8.006-.769 2.752-4.639 5.457-6.302 9.929-1.662 4.473 1.685 23.384 5.764 27.661 4.078 4.278 15.148 4.392 19.677 1.643 4.528-2.749 7.821-11.37 9.881-16.216 2.06-4.846-2.813-22.909-4.37-25.607zM442.681 357.66c3.293-.032 10.186 4.845 13.221 7.287.895.704 5.805 8.248 6.591 11.673.786 3.424-3.449 7.598-6.049 10.272-2.601 2.674-13.427-7.137-17.373-2.331-3.945 4.805-17.278 29.452-24.892 27.719-7.614-1.733-15.244-14.019-15.194-20.888.05-6.869 7.596-16.23 11.696-21.726 4.101-5.495 27.885-11.965 32-12.006zm229.3-119.59c-2.577-4.691-21.477-3.358-30.604-2.105-9.948.973-22.238 12.217-23.9 13.129-1.661.913-4.48-1.189-6.635-2.992-2.155-1.803-8.89 9.862-9.468 11.838-.578 1.977-3.962 2.177-9.337 1.479s-4.2 11.434-6.756 12.838-6.529-1.89-10.625-3.29c-4.097-1.4-14.691 11.721-12.38 15.928 2.311 4.206 15.314-2.107 16.924.825 1.611 2.932-12.251 3.743-11.252 9.5 1 5.757 21.775 13.593 26.098 17.524 4.322 3.932 2.032 10.666 4.921 12.896 2.889 2.229 20.338-2.046 24.127-3.63 3.788-1.583-5.287-15.681 3.419-18.306 8.707-2.626 3.382 17.059 9.034 16.444 5.651-.616 12.908-7.091 16.103-8.847 3.195-1.755 5.723 6.481 6.373 11.601.649 5.119-2.452 7.652-7.902 10.148-5.45 2.496-6.975 13.954-3.113 26.436 3.862 12.481 9.033 16.444 10.994 20.013 1.961 3.569 8.106 17.784 11.344 20.651 3.239 2.867 23.56-8.296 26.561-8.285 3.001.011 9.224 12.854 17.013 4.925 7.789-7.93-4.387-19.495-7.282-25.372-2.896-5.876 1.213-16.265 2.08-19.23s2.824-13.333 1.634-15.5c-1.191-2.167-6.494-7.883-7.894-10.433-1.401-2.549-4.3-10.25-11.223-24.368-6.924-14.118-35.339-8.299-39.201-8.667-3.862-.367-10.728-2.569-10.467-6.032.261-3.462 11.491.325 17.496 2.171 6.005 1.845 9.714-5.336 11.631-6.389 1.917-1.053 4.812 4.823 6.845 3.375 2.033-1.449 5.186-12.971 6.193-15.682 1.006-2.71 14.212-.174 13.801-2.437-.33-1.81-8.038-8.473-11.851-11.578-3.16-4.238-10.124-13.887-12.701-18.578z" fill="#C1B28B"/><path d="M638.196 344.359c-.869-2.336-6.243-5.843-8.821-7.304-.749-.436-7.501-1.795-10.175-1.391-2.674.403-4.525 4.564-5.741 7.15-1.217 2.587-5.483 4.61-7.866 8.744-2.383 4.133-2.226 23.338 1.084 28.234 3.31 4.896 14.208 6.85 19.13 4.892 4.923-1.958 9.603-9.911 12.44-14.348 2.837-4.436 1.036-23.057-.051-25.977zm-29.004-134.042c3.252.516 9.238 6.471 11.824 9.384.766.843 4.353 9.098 4.559 12.606.205 3.508-4.664 6.919-7.673 9.124-3.009 2.204-12.054-9.27-16.743-5.188-4.689 4.083-21.935 26.17-29.155 23.195-7.22-2.975-12.7-16.359-11.509-23.124 1.192-6.765 10.189-14.741 15.146-19.478 4.957-4.738 29.486-7.163 33.551-6.519z" fill="#C1B28B"/><path d="M597.178 290.021c5.35.124 13.677-16.895 17.171-25.42 4.148-9.094.585-25.366.629-27.261.044-1.895 3.276-3.279 5.917-4.239s-4.072-12.638-5.493-14.13c-1.42-1.491.104-4.519 3.404-8.818 3.3-4.3-7.785-9.369-7.718-12.285.068-2.915 4.91-4.7 8.176-7.541 3.266-2.842-2.772-18.588-7.57-18.699-4.798-.111-5.858 14.305-9.203 14.228-3.344-.078 2.907-12.477-2.575-14.5-5.481-2.022-22.681 12.02-28.25 13.788-5.569 1.768-10.246-3.591-13.624-2.211-3.378 1.381-8.431 18.622-8.962 22.693-.53 4.072 16.218 3.292 14.123 12.141-2.096 8.849-16.455-5.631-18.757-.433-2.303 5.198-.34 14.724-.424 18.368-.085 3.645-8.478 1.701-13.232-.305-4.755-2.006-5.391-5.959-4.817-11.926.575-5.967-8.573-13.033-21.308-15.953-12.735-2.919-18.757-.433-22.828-.526-4.072-.094-19.451-1.908-23.556-.544-4.104 1.364-4.639 24.543-6.154 27.133-1.515 2.591-15.747 1.533-12.794 12.249 2.953 10.715 19.065 5.982 25.602 6.425 6.536.442 13.462 9.208 15.593 11.445 2.13 2.237 10.118 9.131 12.59 9.188 2.472.057 10.077-1.664 12.985-1.597 2.908.068 11.023 1.422 26.71 2.513 15.687 1.091 24.905-26.409 27.16-29.566 2.255-3.157 7.604-7.992 10.468-6.03 2.865 1.962-6.045 9.779-10.653 14.048-4.609 4.27-.256 11.079-.306 13.266-.051 2.187-6.587 1.744-6.354 4.229.234 2.485 8.621 10.993 10.461 13.223 1.84 2.23-6.978 12.383-4.814 13.162 1.732.623 11.361-2.704 15.96-4.445 5.251-.608 17.092-1.793 22.443-1.67z" fill="#C1B28B"/><path d="M522.172 207.482c2.457.419 8.186-2.471 10.744-3.968.752-.429 5.314-5.589 6.307-8.105.992-2.516-1.679-6.204-3.307-8.553-1.627-2.35-1.238-7.056-3.619-11.19-2.381-4.135-19.074-13.632-24.97-13.224-5.895.408-13.052 8.856-13.827 14.096-.775 5.241 3.759 13.279 6.173 17.958 2.415 4.68 19.428 12.461 22.499 12.986zm130.51 42.139c-2.077 2.555-10.232 4.747-14.049 5.523-1.113.24-10.054-.797-13.192-2.379-3.138-1.581-3.647-7.505-4.045-11.214-.398-3.709 14.065-5.778 12.886-11.882-1.18-6.105-11.638-32.103-5.443-36.857 6.195-4.753 20.522-2.782 25.777 1.642 5.255 4.424 7.643 16.208 9.255 22.873 1.612 6.664-8.593 29.101-11.189 32.294z" fill="#C1B28B"/><path d="M414.111 114.603c-5.092 1.647-7.343 20.459-7.832 29.66-.919 9.952 7.808 24.141 8.391 25.944.584 1.804-2.012 4.176-4.189 5.953-2.176 1.777 8.011 10.589 9.844 11.529 1.832.94 1.391 4.301-.307 9.448-1.699 5.147 10.438 6.279 11.335 9.054.898 2.775-3.086 6.055-5.232 9.815-2.147 3.759 8.743 16.635 13.31 15.158 4.566-1.477.816-15.436 3.998-16.465 3.183-1.03 1.369 12.737 7.211 12.84 5.842.103 17.452-18.825 22.127-22.329 4.675-3.505 10.857.013 13.591-2.404s1.822-20.36.981-24.379c-.841-4.019-16.396 2.239-17.335-6.807-.938-9.045 17.391-.107 17.852-5.774.46-5.666-4.533-14.012-5.655-17.481-1.122-3.469 7.443-4.4 12.593-4.073 5.15.327 7.054 3.849 8.478 9.671 1.425 5.823 12.391 9.479 25.376 8.038 12.986-1.441 17.852-5.774 21.726-7.027 3.875-1.253 18.993-4.61 22.419-7.251 3.426-2.641-3.71-24.701-3.134-27.646.577-2.945 14.362-6.637 8.042-15.781-6.32-9.143-19.972.636-26.289 2.373s-15.745-4.256-18.494-5.666c-2.749-1.41-12.563-5.285-14.915-4.524-2.353.76-8.965 4.892-11.733 5.787-2.767.895-10.876 2.292-26.046 6.432-15.169 4.14-14.808 33.142-15.896 36.866-1.089 3.723-4.545 10.052-7.896 9.143-3.351-.908 2.484-11.224 5.428-16.774 2.943-5.55-3.411-10.545-4.084-12.626-.673-2.081 5.644-3.817 4.604-6.087-1.039-2.269-11.762-7.536-14.234-9.035-2.472-1.5 2.506-13.991.206-14.014-1.84-.017-9.835 6.298-13.603 9.458-4.757 2.305-15.545 7.327-20.638 8.974z" fill="#C1B28B"/><path d="M512.133 167.806c-2.458.414-6.915 5.031-8.836 7.288-.569.653-3.175 7.028-3.283 9.731-.108 2.702 3.63 5.304 5.941 6.985 2.311 1.682 3.495 6.253 7.106 9.372 3.61 3.119 22.501 6.583 27.933 4.254 5.432-2.328 9.403-12.663 8.407-17.866-.995-5.203-7.924-11.298-11.747-14.92-3.822-3.622-22.449-5.361-25.521-4.844zm-137.106 3.234c1.119-3.097 8.095-7.854 11.443-9.845.972-.594 9.755-2.562 13.239-2.103 3.484.459 5.917 5.884 7.515 9.255 1.598 3.37-11.375 10.091-8.249 15.465 3.126 5.375 21.569 26.473 17.287 33.003-4.281 6.53-18.458 9.391-24.878 6.946-6.419-2.444-12.557-12.783-16.276-18.543-3.719-5.761-1.48-30.308-.081-34.178z" fill="#C1B28B"/><path d="M407.619 139.473c0-5.352-17.206-13.284-25.81-16.58-9.186-3.938-25.372 0-27.268 0-1.895 0-3.354-3.2-4.374-5.818-1.021-2.618-12.541 4.363-13.999 5.818-1.458 1.454-4.52 0-8.895-3.2-4.374-3.2-9.186 7.999-12.103 7.999-2.916 0-4.812-4.799-7.728-7.999-2.917-3.2-18.519 3.2-18.519 7.999 0 4.8 14.436 5.527 14.436 8.872 0 3.345-12.541-2.618-14.436 2.909-1.896 5.527 12.54 22.398 14.436 27.925 1.895 5.527-3.354 10.326-1.896 13.671 1.458 3.345 18.811 8 22.894 8.436 4.083.436 2.916-16.29 11.811-14.399s-5.249 16.58 0 18.762c5.25 2.182 14.728 0 18.373 0 3.646 0 1.896 8.436 0 13.235-1.895 4.8-5.833 5.527-11.811 5.091-5.979-.437-12.832 8.872-15.457 21.671-2.625 12.798 0 18.762 0 22.834 0 4.072-1.458 19.489 0 23.561 1.458 4.073 24.644 4.073 27.268 5.527 2.625 1.455 1.896 15.708 12.541 12.508 10.644-3.2 5.541-19.198 5.832-25.743.292-6.545 8.895-13.671 11.083-15.853 2.187-2.182 8.895-10.326 8.895-12.799 0-2.472-1.896-10.035-1.896-12.944 0-2.909 1.167-11.054 1.896-26.762.729-15.707-26.977-24.288-30.185-26.47-3.208-2.182-8.166-7.417-6.27-10.326 1.896-2.909 9.916 5.817 14.29 10.326 4.375 4.509 11.082 0 13.27 0 2.187 0 1.895 6.545 4.374 6.254 2.479-.291 10.791-8.872 12.978-10.763 2.187-1.89 12.541 6.691 13.27 4.509.583-1.745-2.965-11.296-4.812-15.853-.729-5.236-2.188-17.046-2.188-22.398z" fill="#C1B28B"/><path d="M316.348 302.745c4.677 2.603 19.975-8.575 27.04-14.489 7.907-6.113 12.338-22.17 13.26-23.827.922-1.656 4.427-1.374 7.211-.993 2.784.381 2.285-13.08 1.724-15.061-.562-1.982 2.198-3.95 7.121-6.217 4.923-2.266-2.522-11.917-1.104-14.465 1.418-2.548 6.534-1.871 10.748-2.863 4.214-.992 6.21-17.738 2.016-20.072-4.194-2.334-11.849 9.927-14.772 8.3-2.923-1.627 8.386-9.685 4.478-14.029-3.907-4.344-25.669.066-31.42-.965-5.752-1.032-7.393-7.953-11.025-8.305-3.632-.353-16.137 12.546-18.504 15.902-2.367 3.355 12.816 10.47 6.838 17.322-5.978 6.853-11.935-12.649-16.394-9.123-4.459 3.526-7.162 12.869-8.935 16.054-1.773 3.185-8.293-2.446-11.565-6.436-3.272-3.991-1.993-7.785 1.296-12.796 3.289-5.012-1.512-15.527-11.419-24.045-9.907-8.517-16.394-9.124-19.953-11.104-3.558-1.981-16.32-10.752-20.588-11.458-4.267-.706-15.542 19.553-18.089 21.139-2.548 1.586-14.647-5.982-17.028 4.875-2.381 10.857 14.081 14.178 19.658 17.616 5.577 3.437 7.62 14.42 8.463 17.392.842 2.973 4.697 12.795 6.858 13.997 2.16 1.202 9.691 3.224 12.232 4.638 2.542 1.415 9.092 6.395 22.462 14.671 13.371 8.275 34.342-11.761 37.809-13.503 3.466-1.742 10.452-3.528 12.072-.457 1.62 3.071-9.906 5.835-15.973 7.465s-5.389 9.683-6.453 11.595c-1.063 1.911-6.64-1.527-7.592.781-.951 2.307 2.505 13.743 3.094 16.574.588 2.83-11.945 7.704-10.393 9.402 1.241 1.358 11.312 2.902 16.193 3.505 4.929 1.909 15.958 6.378 20.634 8.98z" fill="#C1B28B"/><path d="M165.034 341.071c-2.699.044-6.206-6.823-5.344-10.925 9.402-8.313 47.882-5.089 65.548-1.24l12.411 8.482c-1.252 1.018-4.872 3.295-9.334 4.257-5.578 1.202-42.208-.923-63.281-.574z" fill="#FAE576"/><path d="M159.9 332.838c2.98.494 40.596-5.841 69.005-.001l-3.554 10.729c-19.608-.552-59.32-1.822-61.309-2.485-1.988-.663-4.971-6.628-4.142-8.243z" fill="#F6D213"/><path d="M287.494 307.95c1.853-2.733-.643-12.643-2.123-17.257l-5.914-5.149c-10.909 8.944-36.441 30.67-51.295 46.022-14.855 15.352-61.7 57.304-83.266 76.362l.507 10.603 6.582 11.731 65.824-63.248c22.456-18.549 67.831-56.33 69.685-59.064z" fill="#FAE576"/><path d="M234.625 333.383c-7.158 8.371-63.018 62.019-88.396 86.139l5.385 11.036c21.541-20.988 65.451-63.463 68.765-65.451 3.314-1.988 48.329-40.596 70.422-59.651l-6.209-14.85-.424.341c-12.301 9.894-42.468 34.161-49.543 42.436z" fill="#F6D213"/><circle cx="462.299" cy="336.939" r="178.955" fill="#E8E8E8"/><circle cx="462.3" cy="335.281" r="102.696" fill="#CFCFCF"/><path d="M372.981 270.118c-34.855 14.473-62.1 70.043-71.365 96.019.388 2.074 1.878 7.161 4.729 10.92 2.851 3.76 10.413.196 13.837-2.055l28.959-50.238c14.324-12.344 45.564-38.377 55.934-43.754 10.37-5.378 58.427-18.997 81.158-25.135l10.647-16.217-27.479 5.149c-17.617 2.406-61.565 10.838-96.42 25.311z" fill="#FAE576"/><path d="M388.502 274.187c22.217-9.745 70.113-20.114 91.284-24.081l16.483-9.273-7.456 14.913-71.251 18.441s-46.58 24.614-67.108 50.323c-14.537 18.207-26.512 48.882-28.997 51.367-2.485 2.486-13.256 2.485-13.256 2.485l5.599-14.508.579-.954c15.958-26.183 52.176-79.088 74.123-88.713z" fill="#F6D213"/><path d="M407.278 287.037c-11.044 6.363-39.905 44.328-52.956 62.516-2.294-5.563-6.42-18.225-4.565-24.368 2.317-7.68 32.927-40.517 48.336-48.502 12.327-6.389 68.779-18.164 95.464-23.254l-1.216 10.693c-23.753 4.987-74.019 16.552-85.063 22.915z" fill="#F6D213"/><path d="M567.048 246.1c2.631-1.996 3.442-12.183 3.518-17.028l-3.952-6.773c-13.2 4.978-44.347 17.379-63.337 27.163-18.99 9.783-76.806 34.516-103.341 45.659l-2.918 10.207 2.478 13.221 82.618-38.825c27.215-10.377 82.303-31.628 84.934-33.624z" fill="#FAE576"/><path d="M508.818 253.253c-9.462 5.637-75.365 36.483-107.133 51.2h-4.837l3.314 13.43 90.306-40.596 78.707-32.311 1.657-14.69h-6.746c-14.48 5.307-45.805 17.33-55.268 22.967z" fill="#F6D213"/><path d="M361.678 344.418c-11.965 10.614-8.164 24.696-4.767 30.41 14.313-11.447 46.131-36.497 58.899-45.114 12.768-8.618 67.323-37.391 93.005-50.7l-19.749-5.155c-1.056.326-3.335 1.124-7.041 2.525-6.685 2.528-18.012 7.019-35.167 14.239-33.329 14.026-70.224 40.527-85.18 53.795z" fill="#FAE576"/><path d="M413.334 316.493c-11.355 4.703-41.837 30.2-55.659 42.36-.75.98-3.908 3.768-3.908 7.082s3.158 6.904 3.908 8.285c18.857-15.465 58.063-45.401 64.029-48.053 5.965-2.651 59.375-34.244 84.506-48.052l-18.227-4.143-7.277 3.24c-18.679 11.703-56.285 34.688-67.372 39.281z" fill="#F6D213"/><path d="M360.175 310.621c-4.837 9.88 12.512 13.309 16.703 13.239 9.942-7.659 11.557-45.725 11.122-63.801l-10.464-20.043c-1.236 1.036-4.157 4.16-5.947 8.359-2.236 5.249-6.269 51.739-11.414 62.246z" fill="#FAE576"/><path d="M378.014 311.304c.078-3.02 1.722-38.069 2.535-55.215l-2.535-13.599 11.378 19.056-4.971 43.081c-.446 2.762-.188 10.771-2.216 14.085-1.437 2.35-4.611 4.005-5.744 4.967l-.104.832c-.482-.161-.36-.438.104-.832l1.553-12.375z" fill="#F6D213"/><path d="M423.776 249.062c-13.947.038-57.764-4.203-77.93-6.328 2.264-4.628 8.67-14.451 16.188-16.719 9.397-2.834 58.876 7.753 86.387 8.501 22.008.599 42.88 7.351 50.564 10.652l-20.366 7.304c-12.47-1.152-40.896-3.447-54.843-3.41z" fill="#FAE576"/><path d="M446.33 244.836c-5.34.142-61.328-6.04-88.655-9.149l-6.394-1.482-5.799 8.285 67.936 7.102 66.28 3.668 5.799-3.314-9.874-2.011c-7.539-1.092-23.952-3.241-29.293-3.099z" fill="#F6D213"/><path d="M378.049 291.44c.116 7.492 12.337 21.929 18.434 28.21 1.281-7.485 3.827-23.686 3.762-28.612-.08-6.156 14.361-40.794 18.525-47.209 4.165-6.416 28.505-46.933 27.825-50.563l-2.574-13.739c-4.359 3.947-15.442 13.251-24.905 18.888-11.828 7.046-41.212 83.661-41.067 93.025zm60.097-32.995c2.36-6.882 16.453-21.508 23.204-27.961 2.769 14.776-9.645 40.179-12.53 47.696-2.308 6.014-12.349 25.749-17.081 34.864l-21.321-3.518c.4-1.685 1.43-6.118 2.35-10.369 1.151-5.314 9.772-12.296 13.239-16.702 3.468-4.407 9.189-15.407 12.139-24.01zm-12.517 67.819l2.769 14.777c4.407-.826 112.317-52.172 115.785-56.578 3.468-4.407 7.212-14.5 4.458-17.741-2.754-3.24-31.367 5.878-35.515 6.655-4.148.777-25.115 14.902-31.256 17.931-6.141 3.029-26.216 11.889-34.738 15.096-8.523 3.207-21.989 17.268-21.503 19.86z" fill="#FAE576"/><path d="M415.125 232.973c2.192-6.636 18.609-31.483 26.544-43.077l2.403-4.572 2.485 9.113c-9.355 16.294-27.083 48.384-29.775 53.024-3.364 5.8-15.792 38.111-15.792 42.253 0 3.314-2.209 23.474-3.314 31.483l-8.285-9.113c3.314-10.219 7.125-32.477 9.113-39.768 1.989-7.291 4.06-10.678 4.846-11.461 1.908-6.529 9.584-21.246 11.775-27.882zm16.047 67.029c-1.037 3.629.37 11.021.376 13.435 5.702 0 4.239-9.639 16.666-34.494 9.818-19.634 14.084-40.596 14.084-49.709l-6.07 6.409c-1.33 7.225-4.449 26.258-6.29 31.326-2.302 6.334-17.469 28.496-18.766 33.033zm84.625-12.367c-9.242 4.522-64.453 28.134-90.075 39.375l1.781 14.899c17.398-8.009 55.674-26.512 62.965-29.826 7.291-3.314 37.835-17.95 52.195-25.683 0 .964 2.509-.835 5.917-9.113 3.408-8.279-.237-9.92-1.657-9.706-6.524 4.8-21.884 15.531-31.126 20.054z" fill="#F6D213"/><path d="M410.933 308.769l.828-9.113h19.884v14.084l-20.712-4.971z" fill="#F6D213"/></svg>