<svg width="633" height="581" fill="none" xmlns="http://www.w3.org/2000/svg"><path d="M631.919 143.769v425.979C620.372 573.498 590.471 581 563.244 581c-27.227 0-55.507-7.502-66.244-11.252V143.769l66.244-21.969 68.675 21.969z" fill="#BF66CE"/><path d="M508.547 74.112c-3.889 8.573-8.913 51.439-11.547 70.729 10.939-2.68 38.774-9.967 67.46-9.109 28.685.857 57.33 6.072 67.459 8.037 1.824-15.539-1.337-52.082-23.702-69.657C585.852 56.537 538.934 50.714 518.271 50c-1.621 4.465-5.834 15.539-9.724 24.112z" fill="#AF3EC1"/><ellipse cx="514.017" cy="94.474" rx="7.293" ry="10.716" fill="#585858"/><ellipse cx="514.017" cy="94.473" rx="3.646" ry="5.358" fill="#404040"/><path d="M562.782 233.598c23.921.955 55.816 23.482 68.773 34.626v106.862c-3.788-7.164-14.233-23.999-25.715-34.029-14.353-12.537-63.39-34.625-81.929-57.311C509.08 265.597 499.791 229.22 497 213.3c11.961 6.368 41.862 19.343 65.782 20.298z" fill="#CF8BDA"/><path d="M477.872 72.366c10.4 0 23.333 7.666 28.5 11.5 4.5 1.666 13.2 6.2 12 11-1.5 6-17.5 14.5-28.5 14.5h-24.5c-4 2.333-13.4 7-19 7h-22.5c-6 1.833-19.6 5.6-26 6-23.303 9.092-65.709 7.455-84 5.5h-43c-2.833 7.5-10.4 23.2-18 26-7.6 2.8-34.5 6.833-47 8.5-3.702 17.092-21.209 18.788-29.5 17.5-3.167 11.833-14.7 35.6-35.5 36-20.8.4-44.333-6.167-53.5-9.5-5.833 0-19.775-1.374-28.872-6.866-9.097-5.492-22.457-17.622-28-23-11.628-14.134-12.186-28.627-11.628-39.134-7.515-4.509-18.927-18.28-18.872-42.5.018-8.01 1.29-17.162 4.372-27.5 5.333-13.212 25.9-41.408 65.5-48.5 3.833-5 19.1-15.7 49.5-18.5 30.4-2.8 63 11.166 75.5 18.5C205.748 21.91 229.4 29.1 237 33.5c7.6 4.4 25.748 14.41 33.872 18.866 12 7 42.5 5.5 63 6 16.4.4 49.5 9.5 64 14H430c10 0 23.081 3 28.372 4.5 2.167-1.5 9.1-4.5 19.5-4.5z" fill="#BF66CE" fill-opacity=".3"/></svg>