<svg width="895" height="523" fill="none" xmlns="http://www.w3.org/2000/svg"><path fill="#8C8C8C" d="M0 43h868v436H0z"/><rect x="19" y="57" width="830" height="408" rx="41" fill="#A7A7A7"/><rect x="41" y="76" width="307" height="371" rx="78" fill="#7A7A7A"/><rect x="76" y="115" width="262" height="323" rx="68" fill="#B4B4B4"/><path d="M205.728 159.467c-.527-2.993-10.931-5.735-16.067-6.731-5.525-1.298-14.189 2.497-15.249 2.684-1.06.187-2.191-1.459-3.02-2.823-.828-1.363-6.583 3.675-7.256 4.632-.672.957-2.528.445-5.289-.914-2.762-1.359-4.35 5.378-5.981 5.665-1.631.287-3.164-2.21-5.11-3.713-1.946-1.502-10.042 3.613-9.569 6.297.472 2.684 8.617 1.67 8.947 3.541.329 1.87-7.271-.23-7.788 3.047-.516 3.278 9.219 11.292 10.823 14.196 1.604 2.905-.859 6.106.286 7.833 1.145 1.727 11.307 2.622 13.634 2.464 2.326-.158.027-9.397 5.188-9.216 5.16.182-1.304 9.79 1.847 10.493 3.15.703 8.236-1.45 10.275-1.809 2.039-.358 1.89 4.531 1.303 7.402-.588 2.871-2.718 3.665-6.105 4.01-3.386.344-6.303 6.225-6.51 13.641-.208 7.416 1.847 10.493 2.247 12.77.401 2.278 1.104 11.043 2.32 13.177 1.216 2.134 14.183-.148 15.794.407 1.611.555 2.606 8.598 8.245 5.76 5.638-2.837 1.208-11.282.727-14.971s3.629-8.522 4.637-9.957c1.009-1.435 3.958-6.651 3.715-8.033-.243-1.383-2.048-5.426-2.335-7.053-.286-1.627-.435-6.297-1.574-15.153-1.138-8.856-17.478-10.928-19.487-11.832-2.008-.904-5.297-3.345-4.523-5.158.774-1.813 6.118 2.277 9.009 4.368 2.89 2.091 6.197-1.091 7.421-1.306 1.223-.215 1.704 3.474 3.062 3.067 1.358-.407 5.161-6.024 6.198-7.297 1.037-1.273 7.672 2.507 7.865 1.215.155-1.033-2.77-6.025-4.252-8.392-.923-2.856-2.901-9.317-3.428-12.311z" fill="#BFBFBF"/><path d="M168.116 210.422c-.04-1.415-2.287-4.284-3.405-5.541-.323-.371-3.704-2.337-5.215-2.61-1.512-.272-3.268 1.626-4.395 2.794-1.127 1.168-3.791 1.475-5.828 3.261-2.037 1.786-5.467 12.138-4.584 15.376.884 3.237 6.384 6.282 9.389 6.13 3.004-.152 6.975-3.571 9.312-5.437 2.337-1.865 4.776-12.205 4.726-13.973zm8.937-77.363c1.654.872 3.782 5.168 4.639 7.208.258.593.675 5.687.144 7.61-.531 1.924-3.773 2.867-5.794 3.501-2.021.634-4.783-7.189-8.051-5.852-3.268 1.336-16.581 10.054-19.917 7.133-3.337-2.92-3.834-11.117-1.956-14.536 1.879-3.419 8.175-6.06 11.706-7.7 3.532-1.639 17.162 1.546 19.229 2.636z" fill="#BFBFBF"/><path d="M85.354 241.167c0 3.039 9.772 7.542 14.657 9.414 5.217 2.235 14.408-.002 15.485-.002 1.076-.001 1.904 1.816 2.484 3.303.58 1.486 7.121-2.479 7.949-3.305.828-.826 2.567 0 5.051 1.817 2.485 1.816 5.216-4.543 6.872-4.544 1.657 0 2.733 2.725 4.39 4.542 1.656 1.817 10.515-1.818 10.515-4.544 0-2.725-8.198-3.137-8.198-5.037 0-1.899 7.121 1.486 8.197-1.652 1.076-3.139-7.122-12.718-8.199-15.856-1.077-3.139 1.903-5.865 1.075-7.764-.828-1.899-10.682-4.541-13.001-4.789-2.318-.247-1.655 9.251-6.706 8.178-5.051-1.073 2.98-9.416-.001-10.654-2.981-1.239-8.363.001-10.433.001-2.07 0-1.077-4.79-.001-7.516 1.076-2.725 3.312-3.139 6.706-2.891 3.395.247 7.287-5.039 8.776-12.307 1.49-7.268-.001-10.654-.001-12.967-.001-2.312.826-11.067-.002-13.379-.828-2.313-13.994-2.311-15.485-3.137-1.49-.825-1.077-8.919-7.122-7.102-6.044 1.818-3.145 10.903-3.31 14.619-.165 3.717-5.05 7.764-6.292 9.003-1.242 1.239-5.05 5.865-5.05 7.269s1.077 5.698 1.077 7.35c0 1.652-.662 6.277-1.074 15.197-.413 8.919 15.32 13.79 17.142 15.029 1.822 1.239 4.637 4.211 3.561 5.863-1.076 1.652-5.631-3.303-8.115-5.863-2.485-2.56-6.293.001-7.535.001-1.243.001-1.077-3.716-2.485-3.551-1.408.166-6.127 5.039-7.369 6.113-1.242 1.074-7.121-3.798-7.535-2.559-.331.991 1.684 6.414 2.733 9.002.415 2.973 1.244 9.679 1.244 12.718z" fill="#BFBFBF"/><path d="M138.895 201.222c-.206 1.4 1.51 4.615 2.394 6.047.253.421 3.243 2.943 4.684 3.474 1.441.53 3.5-1.035 4.812-1.99 1.313-.955 3.989-.796 6.305-2.202s7.488-11.008 7.178-14.35c-.309-3.341-5.199-7.293-8.184-7.664-2.986-.371-7.489 2.309-10.114 3.741-2.625 1.433-6.818 11.194-7.075 12.944zm-22.203 74.644c-1.478-1.145-2.83-5.745-3.321-7.902-.151-.629.321-5.719 1.177-7.521.857-1.802 4.213-2.169 6.313-2.444 2.1-.274 3.466 7.909 6.916 7.159s18.071-7.029 20.851-3.575c2.78 3.454 1.85 11.614-.592 14.655-2.443 3.042-9.101 4.552-12.863 5.555-3.762 1.003-16.634-4.495-18.481-5.927z" fill="#BFBFBF"/><g opacity=".8" fill="#BFBFBF"><path d="M469.146 88.387c-1.405-2.695-12.151-2.17-17.349-1.571-5.659.43-12.775 6.662-13.729 7.16-.955.497-2.529-.73-3.73-1.78-1.202-1.051-5.169 5.489-5.521 6.604-.352 1.115-2.276 1.187-5.319.724-3.043-.462-2.525 6.44-3.993 7.206-1.469.766-3.684-1.153-5.992-1.999-2.309-.845-8.484 6.474-7.224 8.891 1.26 2.416 8.72-1.008 9.598.676.878 1.685-7.002 1.975-6.505 5.255.497 3.281 12.195 7.985 14.601 10.27 2.405 2.285 1.023 6.08 2.635 7.381 1.613 1.302 11.572-.911 13.742-1.763 2.17-.853-2.809-8.968 2.166-10.351 4.976-1.384 1.711 9.726 4.927 9.446 3.216-.28 7.415-3.867 9.251-4.824 1.835-.957 3.169 3.75 3.475 6.664.306 2.914-1.486 4.314-4.611 5.664-3.124 1.351-4.131 7.837-2.092 14.97 2.039 7.134 4.926 9.447 5.995 11.497 1.07 2.051 4.383 10.196 6.187 11.864 1.803 1.667 13.477-4.42 15.181-4.377 1.703.043 5.078 7.411 9.598 3.005 4.52-4.406-2.251-11.121-3.823-14.493-1.571-3.372.889-9.22 1.418-10.892.528-1.673 1.767-7.535 1.118-8.78-.649-1.245-3.589-4.555-4.353-6.02-.764-1.465-2.315-5.872-6.072-13.972-3.758-8.1-19.961-5.146-22.149-5.403-2.188-.256-6.059-1.59-5.868-3.553.191-1.962 6.52.326 9.906 1.448 3.387 1.121 5.58-2.91 6.682-3.484 1.101-.575 2.673 2.797 3.844 2 1.172-.798 3.104-7.3 3.709-8.827.605-1.526 8.071.076 7.865-1.214-.165-1.032-4.459-4.909-6.585-6.718-1.742-2.445-5.577-8.009-6.983-10.704z"/><path d="M448.658 148.314c-.465-1.337-3.473-3.394-4.919-4.255-.419-.257-4.236-1.111-5.759-.915-1.523.196-2.625 2.535-3.347 3.989-.723 1.453-3.169 2.55-4.573 4.867-1.404 2.317-1.551 13.222.268 16.042 1.819 2.821 7.982 4.064 10.801 3.013 2.818-1.051 5.573-5.509 7.238-7.993 1.665-2.483.872-13.077.291-14.748zM433.84 71.86c1.84.332 5.165 3.786 6.598 5.472.424.488 2.359 5.219 2.433 7.213.073 1.994-2.733 3.87-4.469 5.085-1.735 1.215-6.729-5.41-9.441-3.15-2.712 2.26-12.775 14.586-16.837 12.809-4.062-1.778-7.009-9.444-6.25-13.27.76-3.826 5.966-8.243 8.838-10.872 2.873-2.628 16.828-3.704 19.128-3.288z"/><path d="M379.026 202.593c.918 2.898 11.592 4.243 16.815 4.554 5.648.557 13.736-4.348 14.762-4.673 1.026-.325 2.364 1.157 3.365 2.4 1.002 1.242 6.042-4.512 6.582-5.549.54-1.037 2.447-.775 5.364.208 2.916.983 3.602-5.905 5.181-6.405 1.579-.499 3.428 1.774 5.555 3.007 2.127 1.232 9.478-4.906 8.655-7.505-.822-2.598-8.762-.518-9.336-2.329-.573-1.811 7.238-.732 7.317-4.049.079-3.316-10.627-9.976-12.601-12.644-1.973-2.667.046-6.165-1.316-7.726-1.363-1.561-11.555-1.107-13.84-.643-2.285.463 1.213 9.318-3.927 9.819-5.139.501.001-9.876-3.215-10.157-3.216-.282-7.973 2.523-9.947 3.148-1.973.625-2.472-4.242-2.268-7.165.204-2.923 2.211-3.992 5.522-4.78 3.311-.788 5.427-7.002 4.654-14.381-.772-7.379-3.215-10.157-3.913-12.362s-2.55-10.801-4.038-12.756c-1.487-1.954-14.039 2.019-15.709 1.681-1.67-.337-3.718-8.179-8.933-4.622-5.214 3.556.291 11.343 1.254 14.936.964 3.593-2.472 8.926-3.283 10.482-.81 1.556-3.046 7.114-2.622 8.453.424 1.339 2.746 5.108 3.245 6.683.498 1.575 1.262 6.184 3.559 14.813 2.298 8.629 18.767 8.526 20.878 9.158 2.11.631 5.692 2.616 5.164 4.515-.528 1.9-6.365-1.45-9.506-3.141s-6 1.899-7.184 2.274c-1.184.375-2.148-3.218-3.44-2.636-1.292.582-4.321 6.652-5.181 8.051-.861 1.398-7.936-1.473-7.957-.167-.017 1.044 3.541 5.607 5.322 7.757 1.292 2.71 4.105 8.854 5.022 11.751z"/><path d="M418.024 148.358c.226 1.397 2.832 3.944 4.106 5.043.369.326 3.98 1.828 5.514 1.899 1.534.071 3.025-2.042 3.988-3.349.963-1.306 3.563-1.962 5.347-4.001 1.784-2.039 3.818-12.754 2.515-15.847-1.303-3.092-7.157-5.384-10.115-4.837-2.959.546-6.444 4.459-8.514 6.617-2.071 2.158-3.124 12.729-2.841 14.475zm1.348 77.865c-1.754-.646-4.431-4.625-5.55-6.533-.333-.554-1.419-5.548-1.146-7.525.273-1.977 3.362-3.339 5.281-4.234 1.92-.896 5.69 6.494 8.753 4.738 3.063-1.755 15.109-12.153 18.802-9.698 3.692 2.454 5.267 10.514 3.856 14.151-1.411 3.637-7.303 7.085-10.588 9.176-3.284 2.092-17.215.733-19.408-.075z"/></g><path d="M79.07 368.97c-1.1 2.762 6.151 10.388 9.914 13.856 3.932 3.918 13.093 5.21 14.071 5.599.978.39 1.074 2.34 1.063 3.901-.011 1.56 7.367.323 8.418-.128 1.051-.451 2.333.928 3.933 3.478 1.601 2.549 6.384-2.242 7.889-1.643 1.504.599 1.497 3.465 2.345 5.715.848 2.25 10.214 2.151 11.199-.326.986-2.476-6.315-5.816-5.628-7.542.687-1.726 5.934 3.926 8.047 1.463 2.113-2.463-1.872-14.133-1.715-17.374.156-3.242 3.851-4.64 3.785-6.666-.066-2.026-8.064-7.99-10.082-9.054-2.017-1.064-4.849 7.807-9.051 5.005-4.202-2.802 6.113-7.478 3.852-9.682-2.261-2.204-7.6-3.024-9.481-3.773-1.881-.748.754-4.742 2.718-6.829 1.963-2.088 4.144-1.655 7.14-.202 2.996 1.453 8.443-1.943 12.426-8.009 3.983-6.066 3.852-9.682 4.689-11.783.836-2.102 4.754-9.758 4.838-12.159.083-2.401-11.881-7.162-12.937-8.451-1.056-1.29 2.247-8.495-3.903-9.03-6.15-.534-6.801 8.77-8.296 12.087-1.494 3.318-7.397 5.229-8.974 5.905-1.576.677-6.71 3.503-7.218 4.779-.508 1.275-1.082 5.567-1.68 7.068-.597 1.502-2.871 5.465-6.473 13.421-3.601 7.956 8.934 18.073 10.141 19.858 1.208 1.784 2.691 5.504 1.115 6.616-1.575 1.112-3.922-5.038-5.253-8.263-1.332-3.225-5.719-2.276-6.848-2.725-1.129-.449.366-3.767-.973-4.125-1.34-.359-7.39 2.362-8.907 2.889-1.517.526-5.098-6.028-5.922-5.052-.66.781-.79 6.438-.772 9.169-.699 2.852-2.372 9.245-3.47 12.007z" fill="#BFBFBF"/><path d="M145.354 303.282c-.694 1.198-.297 4.739-.012 6.36.078.475 1.882 3.848 3 4.851 1.118 1.004 3.555.326 5.092-.067 1.538-.393 3.913.719 6.526.279 2.613-.44 10.786-7.294 11.714-10.442.927-3.149-2.087-8.508-4.666-9.925-2.578-1.417-7.64-.611-10.543-.259-2.903.352-10.245 7.705-11.111 9.203zM89.37 405.68c-.928-1.576-.493-6.245-.159-8.383.09-.626 2.36-5.08 3.79-6.408 1.43-1.328 4.612-.447 6.62.063s.289 8.44 3.695 9.006c3.406.567 18.964.149 20.241 4.294 1.277 4.144-2.52 11.222-5.839 13.103-3.32 1.88-9.916.844-13.698.395-3.782-.449-13.49-10.101-14.65-12.07zm59.087 11.523c-.056 2.973 9.416 7.555 14.159 9.475 5.061 2.282 14.09.263 15.142.283 1.053.02 1.829 1.812 2.369 3.276.54 1.464 7.009-2.293 7.834-3.085.824-.793 2.51.047 4.906 1.869s5.184-4.347 6.803-4.316c1.62.03 2.623 2.715 4.209 4.522 1.586 1.807 10.317-1.585 10.366-4.25.05-2.665-7.959-3.219-7.924-5.076.035-1.858 6.937 1.583 8.047-1.466 1.11-3.049-6.732-12.567-7.727-15.656-.995-3.089 1.97-5.699 1.195-7.572-.775-1.873-10.363-4.637-12.625-4.922-2.263-.284-1.789 9.015-6.709 7.873-4.919-1.142 3.088-9.152.195-10.418-2.892-1.266-8.178-.153-10.202-.191-2.025-.038-.965-4.704.137-7.349 1.102-2.646 3.296-3.009 6.612-2.704 3.315.304 7.217-4.794 8.807-11.874 1.591-7.079.195-10.418.237-12.679.043-2.262 1.012-10.807.245-13.084-.768-2.276-13.642-2.517-15.084-3.352-1.443-.834-.89-8.742-6.834-7.075-5.944 1.666-3.276 10.603-3.506 14.234-.23 3.631-5.081 7.499-6.319 8.688-1.237 1.189-5.046 5.642-5.072 7.015-.025 1.373.949 5.592.919 7.207-.031 1.616-.763 6.126-1.331 14.841s14.728 13.767 16.487 15.012c1.759 1.245 4.457 4.204 3.374 5.799-1.082 1.596-5.445-3.333-7.828-5.882-2.382-2.549-6.154-.115-7.368-.138-1.215-.023-.985-3.654-2.364-3.518-1.38.136-6.084 4.814-7.319 5.842-1.234 1.027-6.894-3.846-7.321-2.642-.342.963 1.529 6.304 2.507 8.853.351 2.915 1.038 9.488.983 12.46z" fill="#BFBFBF"/><path d="M156.143 368.548c.89-1.06 1.113-4.617 1.113-6.263.006-.481-1.187-4.116-2.114-5.297-.927-1.182-3.445-.937-5.028-.816-1.582.121-3.728-1.386-6.378-1.406-2.65-.019-11.886 5.316-13.346 8.256-1.459 2.94.582 8.741 2.876 10.583 2.294 1.842 7.418 1.925 10.339 2.081 2.92.156 11.424-5.813 12.538-7.138zm56.821-50.721c.642 1.712-.596 6.235-1.295 8.283-.198.6-3.204 4.594-4.843 5.654-1.638 1.06-4.62-.358-6.509-1.208-1.89-.851 1.178-8.363-2.079-9.511-3.257-1.148-18.652-3.432-19.191-7.735-.54-4.303 4.426-10.616 8.021-11.893 3.595-1.277 9.912.886 13.559 1.984 3.646 1.097 11.536 12.285 12.337 14.426z" fill="#BFBFBF"/><g opacity=".8" fill="#BFBFBF"><path d="M648.88 196.904c1.044 2.783 11.538 3.553 16.655 3.59 5.545.256 13.195-4.947 14.181-5.317.985-.369 2.368 1.011 3.409 2.173 1.041 1.162 5.671-4.714 6.145-5.755.475-1.041 2.351-.881 5.25-.07 2.899.811 3.218-5.951 4.734-6.52 1.517-.569 3.439 1.558 5.579 2.653 2.14 1.096 9.007-5.275 8.071-7.77-.936-2.496-8.585-.06-9.237-1.8-.652-1.739 7.032-1.083 6.94-4.327-.092-3.244-10.889-9.203-12.952-11.707-2.063-2.505-.269-6.024-1.68-7.48-1.41-1.455-11.342-.492-13.55.077s1.659 9.04-3.335 9.791c-4.994.751-.503-9.646-3.658-9.757-3.155-.111-7.659 2.872-9.555 3.582-1.896.711-2.63-4.017-2.58-6.882.05-2.866 1.955-4.012 5.149-4.95 3.195-.939 4.944-7.116 3.813-14.284-1.13-7.167-3.658-9.757-4.452-11.875-.794-2.117-3.041-10.419-4.594-12.252-1.552-1.834-13.609 2.687-15.258 2.442-1.648-.245-4.048-7.799-8.96-4.06-4.912 3.74.862 11.065 1.986 14.525 1.124 3.461-1.96 8.844-2.672 10.405-.712 1.561-2.613 7.105-2.13 8.39.482 1.286 2.942 4.85 3.509 6.362.567 1.513 1.549 5.976 4.232 14.287 2.684 8.31 18.765 7.371 20.858 7.88 2.094.509 5.693 2.265 5.274 4.148-.418 1.882-6.29-1.092-9.444-2.584-3.154-1.492-5.764 2.161-6.901 2.587-1.138.426-2.262-3.034-3.494-2.399-1.233.634-3.882 6.717-4.651 8.127-.769 1.41-7.826-1.034-7.78.243.037 1.021 3.745 5.296 5.594 7.306 1.4 2.58 4.461 8.438 5.504 11.221z"/><path d="M653.777 103.713c.292 1.353 2.967 3.707 4.268 4.716.377.299 3.98 1.582 5.482 1.573 1.502-.009 2.851-2.149 3.725-3.474.874-1.325 3.38-2.098 5.018-4.181 1.638-2.082 3.079-12.65 1.649-15.605-1.43-2.955-7.265-4.895-10.127-4.21-2.861.685-6.066 4.685-7.978 6.898-1.912 2.212-2.402 12.591-2.037 14.283zm27.41 113.437c-1.747-.542-4.564-4.291-5.754-6.098-.354-.524-1.669-5.347-1.503-7.292.166-1.944 3.113-3.432 4.942-4.405 1.83-.972 5.889 6.054 8.791 4.183 2.902-1.871 14.138-12.641 17.87-10.432 3.731 2.209 5.68 10.002 4.487 13.626-1.193 3.624-6.772 7.292-9.873 9.502-3.102 2.21-16.777 1.593-18.96.916zm51.485-31.198c1.958 2.238 12.05-.739 16.852-2.507 5.28-1.714 10.606-9.278 11.399-9.971.792-.694 2.572.111 3.956.832s3.646-6.41 3.724-7.551c.078-1.141 1.889-1.653 4.888-1.915 2.999-.263.915-6.703 2.134-7.77 1.219-1.066 3.767.247 6.156.518s6.571-8.11 4.816-10.116c-1.755-2.006-8.056 2.969-9.279 1.57-1.223-1.398 6.199-3.491 4.971-6.495-1.229-3.003-13.433-4.776-16.246-6.393-2.814-1.618-2.374-5.543-4.207-6.409-1.833-.865-10.788 3.535-12.655 4.846-1.866 1.311 4.738 7.876.328 10.338-4.409 2.462-3.868-8.85-6.861-7.843-2.992 1.008-6.156 5.386-7.68 6.719-1.524 1.333-3.877-2.833-4.84-5.532-.962-2.7.418-4.444 3.076-6.447 2.659-2.004 2.12-8.401-1.463-14.711-3.583-6.31-6.861-7.843-8.35-9.545-1.49-1.703-6.518-8.68-8.616-9.85-2.099-1.168-11.791 7.31-13.42 7.662-1.629.352-6.536-5.873-9.816-.643-3.279 5.23 4.705 10.052 6.976 12.894 2.271 2.843 1.281 8.968 1.165 10.679-.117 1.712.058 7.57.962 8.603.904 1.034 4.462 3.502 5.526 4.718 1.063 1.216 3.554 5.047 8.993 11.88 5.439 6.832 20.159.288 22.297.027 2.139-.262 6.126.114 6.398 2.023.271 1.909-6.273 1.194-9.75.909-3.477-.285-4.633 4.053-5.547 4.853-.914.8-3.186-2.043-4.115-1.015-.93 1.028-1.267 7.655-1.49 9.245-.223 1.59-7.688 1.789-7.195 2.968.394.942 5.37 3.637 7.809 4.867 2.219 1.922 7.147 6.325 9.104 8.562z"/><path d="M705.647 144.769c-.054-1.383-2.28-4.166-3.387-5.384-.319-.36-3.646-2.249-5.127-2.5-1.481-.251-3.179 1.623-4.27 2.776-1.09 1.154-3.692 1.481-5.666 3.249-1.975 1.767-5.225 11.926-4.328 15.084.897 3.157 6.307 6.079 9.244 5.9 2.937-.179 6.786-3.563 9.053-5.411 2.266-1.848 4.547-11.985 4.481-13.714zm7.956-75.749c1.627.835 3.752 5.016 4.611 7.002.257.577.718 5.555.217 7.441-.5 1.887-3.661 2.842-5.631 3.482-1.97.641-4.751-6.982-7.933-5.642-3.183 1.34-16.114 10-19.407 7.178-3.292-2.822-3.861-10.834-2.059-14.197 1.803-3.362 7.933-6.009 11.371-7.648 3.437-1.64 16.799 1.338 18.831 2.383z"/></g><path d="M331.42 338.765c.037-2.722-8.659-6.875-13.012-8.611-4.645-2.065-12.903-.175-13.867-.188-.965-.013-1.684-1.65-2.185-2.989-.501-1.338-6.408 2.133-7.16 2.862-.751.73-2.298-.031-4.501-1.689-2.203-1.657-4.727 4.005-6.211 3.985-1.483-.02-2.414-2.474-3.875-4.122-1.461-1.647-9.44 1.5-9.473 3.941-.033 2.441 7.303 2.91 7.28 4.611-.023 1.702-6.359-1.418-7.362 1.38-1.002 2.798 6.223 11.478 7.149 14.302.926 2.823-1.777 5.228-1.058 6.939.718 1.712 9.511 4.199 11.584 4.449 2.074.25 1.596-8.265 6.107-7.242 4.51 1.023-2.784 8.397-.13 9.542 2.655 1.146 7.49.102 9.344.127 1.854.025.906 4.303-.091 6.731s-3.005 2.771-6.042 2.507c-3.038-.263-6.588 4.424-8.011 10.915-1.423 6.491-.129 9.542-.158 11.613-.028 2.071-.876 9.901-.162 11.982.713 2.082 12.505 2.242 13.829 3 1.325.757.856 8.001 6.292 6.447 5.435-1.553 2.95-9.725 3.144-13.052.193-3.326 4.618-6.891 5.745-7.985 1.128-1.095 4.595-5.191 4.613-6.448.017-1.258-.895-5.117-.875-6.596.02-1.48.67-5.614 1.149-13.597.479-7.984-13.552-12.539-15.168-13.671-1.617-1.131-4.102-3.829-3.118-5.295.984-1.466 5.003 3.027 7.196 5.351 2.194 2.323 5.637.076 6.749.091s.919 3.342 2.182 3.211c1.262-.131 5.549-4.437 6.674-5.384 1.126-.946 6.332 3.489 6.717 2.385.309-.884-1.429-5.765-2.337-8.096-.335-2.668-.995-8.684-.958-11.406z" fill="#BFBFBF"/><path d="M296.2 416.631c.201-1.251-1.296-4.151-2.07-5.444-.222-.381-2.869-2.677-4.153-3.169-1.284-.493-3.147.884-4.334 1.723-1.187.839-3.582.664-5.674 1.895-2.091 1.23-6.841 9.766-6.605 12.763.236 2.997 4.567 6.595 7.236 6.964 2.67.369 6.736-1.975 9.104-3.226 2.368-1.251 6.244-9.941 6.496-11.506zm14.406-105.9c1.309 1.045 2.463 5.181 2.876 7.119.128.565-.357 5.117-1.146 6.721-.789 1.603-3.799 1.891-5.684 2.111-1.884.22-3.006-7.126-6.105-6.496-3.099.629-16.271 6.074-18.719 2.946-2.448-3.128-1.514-10.424.711-13.118 2.224-2.694 8.206-3.965 11.588-4.817 3.381-.852 14.842 4.229 16.479 5.534zm-54.313 9.464c-.925-2.561-10.526-3.383-15.211-3.475-5.075-.297-12.138 4.382-13.045 4.709-.907.328-2.157-.951-3.098-2.027-.94-1.076-5.246 4.253-5.692 5.2-.446.948-2.163.781-4.808.006s-3.013 5.413-4.409 5.917c-1.395.504-3.131-1.465-5.078-2.492-1.948-1.027-8.307 4.729-7.478 7.025.829 2.296 7.86.151 8.438 1.751.578 1.6-6.451.913-6.404 3.885.048 2.971 9.868 8.549 11.729 10.866 1.861 2.317.179 5.519 1.454 6.868 1.276 1.348 10.381.578 12.409.082 2.029-.497-1.418-8.297 3.164-8.929 4.582-.631.352 8.839 3.24 8.976 2.889.137 7.046-2.543 8.79-3.173 1.744-.629 2.364 3.708 2.286 6.332-.078 2.623-1.836 3.651-4.771 4.475-2.936.824-4.607 6.46-3.652 13.037.954 6.576 3.24 8.975 3.943 10.924.703 1.948 2.668 9.575 4.069 11.271 1.401 1.697 12.493-2.307 14-2.065 1.507.243 3.619 7.187 8.159 3.818 4.54-3.369-.664-10.141-1.655-13.323-.991-3.181 1.894-8.076 2.564-9.498.669-1.421 2.472-6.476 2.045-7.659-.427-1.183-2.64-4.473-3.143-5.865-.502-1.392-1.351-5.489-3.715-13.13-2.364-7.64-17.1-6.961-19.011-7.45-1.912-.49-5.188-2.139-4.783-3.858.404-1.719 5.748 1.071 8.619 2.472 2.872 1.402 5.302-1.913 6.349-2.291 1.046-.378 2.037 2.804 3.172 2.236 1.136-.567 3.631-6.108 4.35-7.39.72-1.282 7.155 1.035 7.127-.135-.022-.935-3.369-4.892-5.04-6.753-1.253-2.379-3.99-7.777-4.914-10.337z" fill="#BFBFBF"/><path d="M265.629 364.329c-.415 1.198.557 4.313 1.095 5.721.153.414 2.362 3.133 3.541 3.84 1.18.708 3.253-.325 4.567-.946 1.315-.621 3.644-.033 5.917-.883 2.273-.85 8.429-8.434 8.716-11.426.287-2.992-3.356-7.287-5.92-8.113-2.565-.825-6.976.779-9.525 1.601-2.549.821-7.872 8.709-8.391 10.206zm-32.021 61.969c-1.109-1.256-1.529-5.529-1.601-7.51-.027-.578 1.238-4.978 2.294-6.42 1.055-1.443 4.069-1.204 5.963-1.095 1.894.11 1.727 7.539 4.888 7.456 3.162-.083 17.078-3.163 18.946.341 1.869 3.504-.314 10.529-2.972 12.797-2.658 2.268-8.769 2.483-12.248 2.737-3.478.253-13.885-6.738-15.27-8.306z" fill="#BFBFBF"/><g opacity=".8" fill="#BFBFBF"><path d="M491.247 220.302c-.244-2.711-9.323-5.942-13.832-7.219-4.834-1.574-12.853 1.161-13.813 1.247-.96.087-1.845-1.467-2.482-2.747-.637-1.279-6.153 2.784-6.825 3.588-.672.803-2.29.206-4.652-1.214-2.363-1.421-4.288 4.472-5.765 4.605-1.478.133-2.657-2.211-4.281-3.699-1.624-1.487-9.235 2.468-9.015 4.899.219 2.432 7.565 2.14 7.718 3.834.153 1.695-6.472-.752-7.179 2.134-.708 2.886 7.376 10.772 8.589 13.485 1.213 2.713-1.226 5.385-.335 7.013.892 1.627 9.895 3.191 11.983 3.226 2.088.034.732-8.385 5.325-7.834 4.592.551-1.901 8.639.858 9.504 2.759.865 7.46-.674 9.307-.84 1.846-.167 1.346 4.186.605 6.704-.741 2.518-2.702 3.066-5.75 3.119-3.049.052-6.095 5.081-6.839 11.684-.744 6.603.858 9.504 1.044 11.567.186 2.063.153 9.939 1.078 11.935.925 1.996 12.669.936 14.065 1.553 1.396.617 1.679 7.87 6.925 5.762 5.246-2.107 1.929-9.978 1.777-13.307-.151-3.328 3.881-7.332 4.889-8.537 1.008-1.205 4.033-5.638 3.92-6.89-.113-1.253-1.419-4.997-1.552-6.47-.133-1.474.086-5.653-.263-13.643-.349-7.991-14.776-11.07-16.501-12.029-1.725-.958-4.476-3.384-3.649-4.944.828-1.56 5.289 2.494 7.712 4.578 2.422 2.083 5.613-.507 6.721-.607 1.108-.1 1.26 3.228 2.502 2.968 1.243-.261 5.061-4.988 6.082-6.046 1.022-1.058 6.659 2.816 6.928 1.677.216-.91-2.018-5.586-3.162-7.81-.609-2.619-1.888-8.535-2.133-11.246z"/><path d="M464.269 301.393c.071-1.266-1.718-3.995-2.622-5.201-.26-.356-3.13-2.365-4.458-2.722-1.328-.358-3.039 1.204-4.133 2.162-1.094.957-3.494 1.031-5.447 2.471-1.953 1.44-5.794 10.422-5.25 13.378.545 2.956 5.225 6.088 7.918 6.178 2.693.091 6.495-2.661 8.721-4.15 2.226-1.489 5.182-10.533 5.271-12.116zm3.376-106.821c1.41.903 2.986 4.898 3.597 6.782.185.549.174 5.127-.445 6.804-.619 1.676-3.583 2.273-5.435 2.687-1.851.414-3.727-6.776-6.745-5.829-3.017.946-15.555 7.724-18.313 4.866-2.758-2.858-2.584-10.212-.65-13.121 1.934-2.91 7.752-4.793 11.027-5.99 3.276-1.198 15.201 2.672 16.964 3.801zm-53.043 15.03c-1.185-2.451-10.82-2.276-15.489-1.883-5.078.23-11.62 5.614-12.488 6.034-.868.419-2.244-.724-3.291-1.697-1.046-.973-4.778 4.773-5.124 5.762-.346.988-2.07 1-4.781.502-2.712-.497-2.438 5.696-3.773 6.342-1.336.645-3.266-1.134-5.309-1.954-2.044-.82-7.774 5.563-6.712 7.761 1.062 2.198 7.834-.663 8.575.869.74 1.532-6.323 1.576-5.968 4.526.355 2.951 10.699 7.483 12.79 9.595 2.091 2.112.748 5.471 2.156 6.681 1.408 1.209 10.385-.499 12.351-1.202 1.967-.704-2.268-8.106 2.224-9.208 4.492-1.102 1.264 8.755 4.151 8.592 2.887-.162 6.745-3.258 8.415-4.065 1.669-.806 2.734 3.444 2.928 6.062.194 2.617-1.449 3.821-4.283 4.944-2.835 1.123-3.914 6.903-2.284 13.345 1.63 6.442 4.151 8.592 5.052 10.457.901 1.865 3.644 9.248 5.213 10.791 1.569 1.542 12.187-3.588 13.711-3.502 1.524.085 4.344 6.774 8.511 2.953 4.167-3.82-1.71-10.018-3.025-13.08-1.314-3.062 1.049-8.229 1.568-9.712.519-1.483 1.789-6.697 1.242-7.83-.547-1.132-3.089-4.176-3.732-5.508-.644-1.333-1.912-5.321-5.053-12.676-3.142-7.355-17.729-5.155-19.681-5.444-1.952-.289-5.381-1.59-5.156-3.342.225-1.751 5.828.471 8.829 1.568 3.001 1.097 5.076-2.452 6.077-2.936 1.002-.484 2.317 2.578 3.387 1.896 1.071-.682 2.979-6.451 3.563-7.801.583-1.349 7.223.29 7.074-.871-.119-.928-3.857-4.517-5.711-6.195-1.492-2.237-4.773-7.323-5.957-9.774z"/><path d="M428.452 252.534c-.289 1.234 1.001 4.232 1.682 5.577.194.395 2.672 2.871 3.919 3.453 1.246.582 3.201-.66 4.444-1.413 1.244-.754 3.621-.41 5.793-1.491 2.173-1.08 7.512-9.26 7.488-12.266-.024-3.006-4.091-6.901-6.727-7.457-2.637-.556-6.858 1.496-9.308 2.577-2.451 1.081-6.929 9.477-7.291 11.02zm-25.439 64.947c-1.233-1.133-2.093-5.341-2.369-7.303-.087-.573.717-5.08 1.617-6.623.901-1.544 3.924-1.619 5.819-1.706 1.895-.087 2.497 7.32 5.633 6.91 3.135-.409 16.658-4.912 18.879-1.62s.776 10.505-1.633 13.035c-2.409 2.531-8.465 3.378-11.898 3.989-3.434.612-14.508-5.265-16.048-6.682z"/></g><g opacity=".8" fill="#BFBFBF"><path d="M365.679 416.108c.669 2.639 10.144 4.4 14.797 4.95 5.021.793 12.51-3.17 13.444-3.407.935-.237 2.054 1.158 2.884 2.321.83 1.163 5.638-3.718 6.175-4.617.537-.899 2.228-.565 4.785.466s3.53-5.092 4.968-5.456c1.437-.365 2.972 1.765 4.809 2.978 1.838 1.213 8.731-3.892 8.131-6.258-.599-2.366-7.808-.921-8.226-2.57-.418-1.65 6.51-.277 6.754-3.238.244-2.962-8.981-9.476-10.607-11.964-1.625-2.488.364-5.51-.773-6.978-1.137-1.467-10.274-1.593-12.342-1.298-2.067.295.598 8.396-4.024 8.575-4.621.179.517-8.831-2.344-9.25-2.861-.42-7.261 1.84-9.059 2.296-1.797.455-1.988-3.922-1.653-6.526.334-2.603 2.185-3.453 5.187-3.985 3.002-.532 5.218-5.978 4.913-12.616-.306-6.638-2.345-9.25-2.854-11.258-.509-2.008-1.716-9.791-2.944-11.617-1.228-1.825-12.659 1.072-14.134.683-1.476-.389-2.898-7.508-7.746-4.6-4.849 2.908-.333 10.158.341 13.421s-2.677 7.852-3.483 9.201c-.806 1.349-3.095 6.202-2.786 7.422.309 1.219 2.188 4.71 2.552 6.145.363 1.434.806 5.595 2.409 13.431 1.603 7.835 16.335 8.604 18.19 9.278 1.854.675 4.953 2.637 4.381 4.308-.571 1.671-5.615-1.629-8.335-3.305-2.721-1.677-5.464 1.384-6.543 1.658-1.078.273-1.752-2.99-2.938-2.537-1.186.453-4.211 5.722-5.054 6.928-.842 1.205-7.018-1.732-7.105-.565-.07.934 2.873 5.199 4.353 7.215 1.014 2.49 3.209 8.131 3.877 10.769z"/><path d="M379.546 331.78c.13 1.261 2.327 3.675 3.409 4.724.313.31 3.463 1.842 4.831 1.986 1.368.143 2.811-1.669 3.741-2.786.929-1.118 3.288-1.569 4.99-3.299 1.701-1.73 4.08-11.205 3.076-14.038-1.003-2.834-6.118-5.189-8.792-4.854-2.673.334-5.994 3.651-7.958 5.472-1.964 1.821-3.458 11.219-3.297 12.795zM393.04 437.8c-1.535-.67-3.72-4.367-4.621-6.132-.269-.512-.98-5.035-.632-6.788.347-1.753 3.18-2.81 4.944-3.511 1.763-.7 4.748 6.105 7.579 4.695 2.83-1.41 14.144-10.078 17.318-7.69 3.174 2.387 4.16 9.677 2.709 12.855-1.452 3.178-6.901 5.953-9.947 7.652-3.046 1.698-15.431-.244-17.35-1.081zm50.014-23.199c1.555 2.235 11.042.544 15.592-.58 4.978-1.027 10.59-7.374 11.381-7.925.792-.551 2.33.361 3.517 1.157 1.187.796 3.966-5.466 4.152-6.497.186-1.031 1.887-1.314 4.643-1.25 2.756.064 1.51-6.009 2.727-6.856 1.217-.848 3.403.605 5.551 1.093 2.147.487 6.8-6.718 5.405-8.722-1.395-2.003-7.632 1.889-8.605.493-.972-1.396 5.996-2.552 5.181-5.41-.815-2.858-11.744-5.704-14.142-7.46-2.397-1.756-1.601-5.285-3.182-6.258-1.581-.972-10.176 2.129-12.008 3.133-1.831 1.005 3.517 7.647-.745 9.443-4.262 1.796-2.627-8.446-5.453-7.831-2.825.615-6.147 4.28-7.669 5.34-1.521 1.059-3.243-2.971-3.846-5.525-.604-2.554.828-4.002 3.45-5.557 2.623-1.556 2.778-7.433.154-13.538-2.625-6.105-5.453-7.831-6.637-9.531-1.183-1.7-5.055-8.559-6.848-9.835-1.792-1.276-11.469 5.463-12.988 5.618-1.518.156-5.356-6.005-8.869-1.576-3.513 4.43 3.267 9.624 5.047 12.441 1.78 2.816.261 8.291-.018 9.838-.279 1.546-.712 6.895.007 7.927.718 1.032 3.708 3.638 4.553 4.852.846 1.214 2.726 4.953 6.987 11.721 4.261 6.769 18.319 2.298 20.292 2.276 1.973-.021 5.564.723 5.618 2.488.054 1.765-5.829.454-8.966-.157-3.136-.61-4.625 3.221-5.538 3.857-.913.636-2.694-2.181-3.644-1.339-.95.842-1.925 6.839-2.289 8.264-.363 1.425-7.179.852-6.849 1.975.264.898 4.521 3.853 6.616 5.218 1.826 1.974 5.867 6.479 7.423 8.713z"/><path d="M422.613 374.388c.091-1.265-1.655-4.022-2.539-5.243-.255-.36-3.092-2.415-4.414-2.793-1.323-.378-3.058 1.156-4.167 2.096-1.109.94-3.51.975-5.486 2.384-1.976 1.41-5.959 10.328-5.462 13.293.497 2.965 5.127 6.17 7.818 6.304 2.691.134 6.537-2.558 8.786-4.011 2.25-1.453 5.35-10.45 5.464-12.03zm14.891-68.145c1.396.925 2.908 4.945 3.49 6.839.176.552.092 5.129-.554 6.796-.646 1.666-3.619 2.216-5.477 2.6-1.858.385-3.619-6.835-6.651-5.936-3.032.898-15.677 7.475-18.389 4.574-2.712-2.902-2.421-10.252-.441-13.13 1.981-2.879 7.828-4.669 11.122-5.814 3.294-1.145 15.156 2.914 16.9 4.071z"/></g><g opacity=".8" fill="#BFBFBF"><path d="M536.395 320.603c-2.339-1.393-10.283 4.062-13.963 6.963-4.111 2.99-6.604 11.088-7.097 11.916-.493.828-2.271.633-3.681.397-1.409-.235-1.357 6.616-1.101 7.632.256 1.015-1.176 1.975-3.713 3.054-2.537 1.079 1.104 6.096.345 7.371-.759 1.274-3.349.853-5.507 1.295-2.157.441-3.421 8.925-1.324 10.174 2.097 1.249 6.172-4.87 7.634-3.999 1.462.871-4.408 4.799-2.486 7.065 1.922 2.267 13.051.35 15.96.96 2.908.61 3.639 4.153 5.481 4.387 1.841.233 8.391-6.138 9.644-7.809 1.254-1.671-6.359-5.514-3.218-8.909 3.142-3.395 5.879 6.609 8.199 4.883 2.32-1.726 3.833-6.435 4.782-8.028.949-1.593 4.18 1.367 5.784 3.444 1.603 2.078.897 3.987-.85 6.486-1.747 2.499.537 7.917 5.447 12.395 4.909 4.478 8.198 4.883 9.978 5.943 1.779 1.06 8.137 5.71 10.296 6.132 2.159.423 8.193-9.708 9.512-10.477 1.319-.768 7.357 3.26 8.73-2.224 1.372-5.485-6.948-7.418-9.732-9.249-2.784-1.831-3.659-7.446-4.043-8.969-.384-1.524-2.197-6.575-3.278-7.218-1.08-.644-4.878-1.784-6.149-2.541-1.272-.757-4.527-3.386-11.201-7.793s-17.635 5.466-19.423 6.3c-1.789.834-5.367 1.638-6.145.053-.777-1.586 5.123-2.819 8.232-3.557 3.109-.738 2.884-4.843 3.454-5.799.569-.956 3.353.875 3.871-.284.518-1.159-1.068-7.024-1.325-8.472-.257-1.448 6.187-3.739 5.424-4.625-.611-.709-5.708-1.644-8.18-2.023-2.478-1.044-8.018-3.481-10.357-4.874z"/><path d="M586.218 390.038c-.983-.8-4.243-.953-5.75-.93-.441.002-3.752 1.146-4.821 2.012-1.068.866-.808 3.167-.675 4.615.133 1.448-1.216 3.434-1.196 5.861.021 2.427 5.038 10.808 7.751 12.102 2.713 1.294 7.996-.658 9.65-2.785 1.654-2.127 1.656-6.82 1.757-9.497.101-2.676-5.487-10.378-6.716-11.378zm-84.509-65.425c1.559-.612 5.719.457 7.604 1.067.553.173 4.253 2.868 5.247 4.354.994 1.485-.262 4.236-1.014 5.978-.751 1.742-7.674-.959-8.678 2.039-1.005 2.999-2.876 17.128-6.808 17.684-3.933.556-9.785-3.901-11.006-7.174-1.22-3.274.67-9.09 1.623-12.444.953-3.355 11.084-10.739 13.032-11.504zm-18.961 51.768c-2.68-.48-8.193 7.424-10.615 11.436-2.794 4.246-2.274 12.702-2.444 13.651-.17.95-1.903 1.393-3.305 1.669-1.402.277 1.061 6.67 1.658 7.53.598.861-.405 2.263-2.399 4.167-1.994 1.903 3.181 5.316 2.92 6.776-.262 1.46-2.834 1.979-4.698 3.152-1.863 1.174-.058 9.559 2.345 9.989 2.403.43 4.061-6.732 5.736-6.432 1.675.3-2.435 6.044.162 7.488 2.597 1.445 12.338-4.271 15.275-4.724 2.937-.454 4.869 2.604 6.675 2.174 1.805-.43 5.691-8.7 6.275-10.706.585-2.005-7.894-2.92-6.15-7.204 1.744-4.283 7.831 4.115 9.394 1.682 1.562-2.432 1.32-7.373 1.646-9.199.327-1.825 4.394-.192 6.627 1.187 2.233 1.379 2.244 3.415 1.49 6.37-.755 2.954 3.291 7.219 9.464 9.681 6.172 2.461 9.393 1.681 11.432 2.046 2.039.365 9.627 2.477 11.796 2.112 2.17-.365 4.248-11.972 5.211-13.156.964-1.184 8.034.459 7.387-5.157-.648-5.617-9.115-4.496-12.366-5.228-3.251-.733-6.047-5.679-6.944-6.97-.896-1.29-4.372-5.379-5.61-5.6-1.238-.222-5.194.049-6.651-.211-1.456-.261-5.429-1.575-13.228-3.348-7.799-1.773-14.578 11.329-15.958 12.739-1.38 1.411-4.446 3.424-5.732 2.214-1.287-1.21 3.801-4.443 6.451-6.229 2.649-1.786.993-5.549 1.189-6.644.196-1.095 3.447-.362 3.523-1.629.077-1.267-3.474-6.198-4.225-7.462-.75-1.265 4.474-5.679 3.447-6.24-.822-.448-5.921.472-8.368.988-2.687-.104-8.731-.432-11.41-.912z"/><path d="M525.637 390.362c.83.959 4.014 1.674 5.503 1.912.434.075 3.893-.478 5.096-1.146 1.202-.668 1.344-2.98 1.464-4.428.12-1.449 1.792-3.172 2.193-5.565.401-2.394-3.089-11.517-5.537-13.262-2.448-1.744-7.988-.738-9.986 1.071-1.997 1.808-2.813 6.43-3.376 9.049-.563 2.618 3.606 11.171 4.643 12.369zm37.656 58.716c-1.642.332-5.553-1.441-7.303-2.369-.515-.266-3.693-3.562-4.414-5.197-.722-1.635.992-4.126 2.034-5.712 1.041-1.585 7.392 2.274 8.9-.505 1.509-2.779 5.8-16.371 9.769-16.237 3.969.134 8.961 5.537 9.596 8.973.635 3.435-2.234 8.836-3.754 11.975-1.519 3.139-12.777 8.656-14.828 9.072z"/></g><g opacity=".8" fill="#BFBFBF"><path d="M583.112 324.499c2.696.375 7.898-7.737 10.162-11.84 2.628-4.351 1.779-12.781 1.912-13.736.133-.955 1.847-1.465 3.238-1.796 1.39-.331-1.319-6.623-1.95-7.46-.63-.836.317-2.277 2.236-4.257 1.918-1.979-3.386-5.188-3.181-6.657.204-1.47 2.755-2.088 4.571-3.333 1.817-1.245-.313-9.553-2.731-9.89-2.418-.336-3.796 6.885-5.482 6.65-1.685-.234 2.199-6.133-.453-7.476-2.651-1.342-12.162 4.747-15.079 5.315-2.917.567-4.967-2.414-6.755-1.914-1.787.5-5.348 8.915-5.854 10.942-.506 2.026 8.001 2.611 6.425 6.959-1.576 4.349-7.984-3.807-9.451-1.315-1.468 2.491-1.033 7.419-1.289 9.256-.255 1.836-4.382.363-6.667-.928-2.285-1.292-2.375-3.326-1.736-6.307.639-2.982-3.57-7.087-9.834-9.306-6.263-2.22-9.451-1.316-11.503-1.601-2.051-.286-9.715-2.101-11.869-1.652-2.154.449-3.779 12.129-4.696 13.349-.917 1.22-8.046-.146-7.18 5.44.865 5.587 9.283 4.138 12.559 4.744 3.277.605 6.264 5.439 7.209 6.694.946 1.255 4.579 5.205 5.824 5.378 1.246.174 5.189-.251 6.654-.047 1.465.204 5.487 1.362 13.349 2.831 7.861 1.469 14.127-11.887 15.451-13.35 1.324-1.463 4.309-3.593 5.641-2.435 1.333 1.159-3.626 4.588-6.204 6.475-2.578 1.888-.777 5.583-.93 6.685-.153 1.102-3.43.496-3.457 1.765-.028 1.269 3.713 6.058 4.512 7.293.799 1.234-4.25 5.848-3.202 6.368.838.416 5.898-.701 8.324-1.312 2.688-.001 8.74.093 11.436.468z"/><path d="M510.232 279.866c1.217.356 4.28-.769 5.66-1.376.405-.173 3.012-2.513 3.66-3.726.649-1.213-.485-3.233-1.17-4.515-.685-1.282-.213-3.637-1.174-5.866-.961-2.228-8.84-8.002-11.843-8.141-3.003-.138-7.112 3.711-7.81 6.314-.698 2.602 1.122 6.928 2.069 9.434.946 2.506 9.087 7.432 10.608 7.876zm103.285 27.466c-1.199 1.17-5.447 1.8-7.421 1.969-.576.056-5.033-.99-6.526-1.973-1.493-.983-1.404-4.005-1.388-5.902.016-1.897 7.444-2.097 7.205-5.251-.239-3.153-4.002-16.9-.595-18.939 3.408-2.04 10.532-.206 12.928 2.336 2.397 2.543 2.914 8.636 3.339 12.098.424 3.461-6.043 14.201-7.542 15.662zm-2.635-55.067c2.656-.599 4.667-10.024 5.34-14.661.926-4.999-2.838-12.589-3.05-13.53-.212-.94 1.212-2.022 2.397-2.821 1.185-.799-3.567-5.734-4.452-6.295-.885-.561-.506-2.243.592-4.771 1.099-2.528-4.996-3.663-5.322-5.11-.327-1.447 1.843-2.925 3.104-4.73 1.262-1.805-3.659-8.83-6.04-8.293-2.382.536-1.128 7.78-2.787 8.155-1.66.374-.104-6.515-3.058-6.838-2.955-.322-9.711 8.728-12.241 10.287-2.53 1.558-5.499-.509-6.995.588-1.497 1.098-1.865 10.228-1.625 12.303.24 2.074 8.408-.375 8.465 4.25.057 4.624-8.814-.75-9.309 2.098-.495 2.849 1.648 7.308 2.055 9.116.408 1.809-3.973 1.884-6.567 1.481-2.593-.404-3.394-2.276-3.846-5.291-.453-3.015-5.838-5.375-12.482-5.245-6.644.129-9.309 2.098-11.329 2.554-2.021.455-9.833 1.456-11.691 2.635-1.857 1.179.736 12.683.308 14.148-.428 1.465-7.581 2.697-4.803 7.621 2.778 4.924 10.145.602 13.425.015 3.28-.588 7.778 2.884 9.106 3.725 1.327.841 6.118 3.258 7.345 2.982 1.227-.277 4.767-2.063 6.21-2.389 1.444-.325 5.615-.657 13.49-2.052 7.876-1.396 9.034-16.102 9.758-17.938.723-1.836 2.767-4.881 4.422-4.266 1.655.615-1.777 5.571-3.525 8.245-1.748 2.675 1.239 5.499 1.484 6.584.245 1.086-3.035 1.673-2.614 2.87.422 1.198 5.609 4.362 6.792 5.236 1.183.874-1.917 6.97-.753 7.088.932.094 5.273-2.735 7.328-4.161 2.516-.947 8.213-2.992 10.868-3.59z"/><path d="M565.93 256.039c-1.137-.561-4.349.016-5.813.375-.43.1-3.402 1.953-4.251 3.036-.849 1.082-.082 3.267.37 4.649.453 1.381-.42 3.619.141 5.98.56 2.361 7.32 9.413 10.253 10.07s7.648-2.423 8.786-4.865c1.138-2.443.095-7.019-.403-9.65-.498-2.632-7.662-8.894-9.083-9.595zm-57.505-39.481c1.384-.944 5.677-.829 7.65-.653.578.044 4.786 1.847 6.086 3.074 1.3 1.226.688 4.188.344 6.053-.344 1.866-7.695.776-8.006 3.923-.31 3.147 1.015 17.338-2.695 18.756-3.709 1.419-10.408-1.622-12.327-4.541-1.92-2.919-1.374-9.01-1.193-12.492.182-3.483 8.412-12.94 10.141-14.12z"/></g><g opacity=".8" fill="#BFBFBF"><path d="M705.112 340.499c2.696.375 7.898-7.737 10.162-11.84 2.628-4.351 1.779-12.781 1.912-13.736.133-.955 1.847-1.465 3.238-1.796 1.39-.331-1.319-6.623-1.95-7.46-.63-.836.317-2.277 2.236-4.257 1.918-1.979-3.386-5.188-3.181-6.657.204-1.47 2.755-2.088 4.571-3.333 1.817-1.245-.313-9.553-2.731-9.89-2.418-.336-3.796 6.885-5.482 6.65-1.685-.234 2.199-6.133-.453-7.476-2.651-1.342-12.162 4.747-15.079 5.315-2.917.567-4.967-2.414-6.755-1.914-1.787.5-5.348 8.915-5.854 10.942-.506 2.026 8.001 2.611 6.425 6.959-1.576 4.349-7.984-3.807-9.451-1.315-1.468 2.491-1.033 7.419-1.289 9.256-.255 1.836-4.382.363-6.667-.928-2.285-1.292-2.375-3.326-1.736-6.307.639-2.982-3.57-7.087-9.834-9.306-6.263-2.22-9.451-1.316-11.503-1.601-2.051-.286-9.715-2.101-11.869-1.652-2.154.449-3.779 12.129-4.696 13.349-.917 1.22-8.046-.146-7.18 5.44.865 5.587 9.283 4.138 12.559 4.744 3.277.605 6.264 5.439 7.209 6.694.946 1.255 4.579 5.205 5.824 5.378 1.246.174 5.189-.251 6.654-.047 1.465.204 5.487 1.362 13.349 2.831 7.861 1.469 14.127-11.887 15.451-13.35 1.324-1.463 4.309-3.593 5.641-2.435 1.333 1.159-3.626 4.588-6.204 6.475-2.578 1.888-.777 5.583-.93 6.685-.153 1.102-3.43.496-3.457 1.765-.028 1.269 3.713 6.058 4.512 7.293.799 1.234-4.25 5.848-3.202 6.368.838.416 5.898-.701 8.324-1.312 2.688-.001 8.74.093 11.436.468z"/><path d="M632.232 295.866c1.217.356 4.28-.769 5.66-1.376.405-.173 3.012-2.513 3.66-3.726.649-1.213-.485-3.233-1.17-4.515-.685-1.282-.213-3.637-1.174-5.866-.961-2.228-8.84-8.002-11.843-8.141-3.003-.138-7.112 3.711-7.81 6.314-.698 2.602 1.122 6.928 2.069 9.434.946 2.506 9.087 7.432 10.608 7.876zm103.285 27.466c-1.199 1.17-5.447 1.8-7.421 1.969-.576.056-5.033-.99-6.526-1.973-1.493-.983-1.404-4.005-1.388-5.902.016-1.897 7.444-2.097 7.205-5.251-.239-3.153-4.002-16.9-.595-18.939 3.408-2.04 10.532-.206 12.928 2.336 2.397 2.543 2.914 8.636 3.339 12.098.424 3.461-6.043 14.201-7.542 15.662zm-2.635-55.067c2.656-.599 4.667-10.024 5.34-14.661.926-4.999-2.838-12.589-3.05-13.53-.212-.94 1.212-2.022 2.397-2.821 1.185-.799-3.567-5.734-4.452-6.295-.885-.561-.506-2.243.592-4.771 1.099-2.528-4.996-3.663-5.322-5.11-.327-1.447 1.843-2.925 3.104-4.73 1.262-1.805-3.659-8.83-6.04-8.293-2.382.536-1.128 7.78-2.787 8.155-1.66.374-.104-6.515-3.058-6.838-2.955-.322-9.711 8.728-12.241 10.287-2.53 1.558-5.499-.509-6.995.588-1.497 1.098-1.865 10.228-1.625 12.303.24 2.074 8.408-.375 8.465 4.25.057 4.624-8.814-.75-9.309 2.098-.495 2.849 1.648 7.308 2.055 9.116.408 1.809-3.973 1.884-6.567 1.481-2.593-.404-3.394-2.276-3.846-5.291-.453-3.015-5.838-5.375-12.482-5.245-6.644.129-9.309 2.098-11.329 2.554-2.021.455-9.833 1.456-11.691 2.635-1.857 1.179.736 12.683.308 14.148-.428 1.465-7.581 2.697-4.803 7.621 2.778 4.924 10.145.602 13.425.015 3.28-.588 7.778 2.884 9.106 3.725 1.327.841 6.118 3.258 7.345 2.982 1.227-.277 4.767-2.063 6.21-2.389 1.444-.325 5.615-.657 13.49-2.052 7.876-1.396 9.034-16.102 9.758-17.938.723-1.836 2.767-4.881 4.422-4.266 1.655.615-1.777 5.571-3.525 8.245-1.748 2.675 1.239 5.499 1.484 6.584.245 1.086-3.035 1.673-2.614 2.87.422 1.198 5.609 4.362 6.792 5.236 1.183.874-1.917 6.97-.753 7.088.932.094 5.273-2.735 7.328-4.161 2.516-.947 8.213-2.992 10.868-3.59z"/><path d="M687.93 272.039c-1.137-.561-4.349.016-5.813.375-.43.1-3.402 1.953-4.251 3.036-.849 1.082-.082 3.267.37 4.649.453 1.381-.42 3.619.141 5.98.56 2.361 7.32 9.413 10.253 10.07s7.648-2.423 8.786-4.865c1.138-2.443.095-7.019-.403-9.65-.498-2.632-7.662-8.894-9.083-9.595zm-57.505-39.481c1.384-.944 5.677-.829 7.65-.653.578.044 4.786 1.847 6.086 3.074 1.3 1.226.688 4.188.344 6.053-.344 1.866-7.695.776-8.006 3.923-.31 3.147 1.015 17.338-2.695 18.756-3.709 1.419-10.408-1.622-12.327-4.541-1.92-2.919-1.374-9.01-1.193-12.492.182-3.483 8.412-12.94 10.141-14.12z"/></g><g opacity=".8" fill="#BFBFBF"><path d="M675.112 449.499c2.696.375 7.898-7.737 10.162-11.84 2.628-4.351 1.779-12.781 1.912-13.736.133-.955 1.847-1.465 3.238-1.796 1.39-.331-1.319-6.623-1.95-7.46-.63-.836.317-2.277 2.236-4.257 1.918-1.979-3.386-5.188-3.181-6.657.204-1.47 2.755-2.088 4.571-3.333 1.817-1.245-.313-9.553-2.731-9.89-2.418-.336-3.796 6.885-5.482 6.65-1.685-.234 2.199-6.133-.453-7.476-2.651-1.342-12.162 4.747-15.079 5.315-2.917.567-4.967-2.414-6.755-1.914-1.787.5-5.348 8.915-5.854 10.942-.506 2.026 8.001 2.611 6.425 6.959-1.576 4.349-7.984-3.807-9.451-1.315-1.468 2.491-1.033 7.419-1.289 9.256-.255 1.836-4.382.363-6.667-.928-2.285-1.292-2.375-3.326-1.736-6.307.639-2.982-3.57-7.087-9.834-9.306-6.263-2.22-9.451-1.316-11.503-1.601-2.051-.286-9.715-2.101-11.869-1.652-2.154.449-3.779 12.129-4.696 13.349-.917 1.22-8.046-.146-7.18 5.44.865 5.587 9.283 4.138 12.559 4.744 3.277.605 6.264 5.439 7.209 6.694.946 1.255 4.579 5.205 5.824 5.378 1.246.174 5.189-.251 6.654-.047 1.465.204 5.487 1.362 13.349 2.831 7.861 1.469 14.127-11.887 15.451-13.35 1.324-1.463 4.309-3.593 5.641-2.435 1.333 1.159-3.626 4.588-6.204 6.475-2.578 1.888-.777 5.583-.93 6.685-.153 1.102-3.43.496-3.457 1.765-.028 1.269 3.713 6.058 4.512 7.293.799 1.234-4.25 5.848-3.202 6.368.838.416 5.898-.701 8.324-1.312 2.688-.001 8.74.093 11.436.468z"/><path d="M602.232 404.866c1.217.356 4.28-.769 5.66-1.376.405-.173 3.012-2.513 3.66-3.726.649-1.213-.485-3.233-1.17-4.515-.685-1.282-.213-3.637-1.174-5.866-.961-2.228-8.84-8.002-11.843-8.141-3.003-.138-7.112 3.711-7.81 6.314-.698 2.602 1.122 6.928 2.069 9.434.946 2.506 9.087 7.432 10.608 7.876zm103.285 27.466c-1.199 1.17-5.447 1.8-7.421 1.969-.576.056-5.033-.99-6.526-1.973-1.493-.983-1.404-4.005-1.388-5.902.016-1.897 7.444-2.097 7.205-5.251-.239-3.153-4.002-16.9-.595-18.939 3.408-2.04 10.532-.206 12.928 2.336 2.397 2.543 2.914 8.636 3.339 12.098.424 3.461-6.043 14.201-7.542 15.662zm-2.635-55.067c2.656-.599 4.667-10.024 5.34-14.661.926-4.999-2.838-12.589-3.05-13.53-.212-.94 1.212-2.022 2.397-2.821 1.185-.799-3.567-5.734-4.452-6.295-.885-.561-.506-2.243.592-4.771 1.099-2.528-4.996-3.663-5.322-5.11-.327-1.447 1.843-2.925 3.104-4.73 1.262-1.805-3.659-8.83-6.04-8.293-2.382.536-1.128 7.78-2.787 8.155-1.66.374-.104-6.515-3.058-6.838-2.955-.322-9.711 8.728-12.241 10.287-2.53 1.558-5.499-.509-6.995.588-1.497 1.098-1.865 10.228-1.625 12.303.24 2.074 8.408-.375 8.465 4.25.057 4.624-8.814-.75-9.309 2.098-.495 2.849 1.648 7.308 2.055 9.116.408 1.809-3.973 1.884-6.567 1.481-2.593-.404-3.394-2.276-3.846-5.291-.453-3.015-5.838-5.375-12.482-5.245-6.644.129-9.309 2.098-11.329 2.554-2.021.455-9.833 1.456-11.691 2.635-1.857 1.179.736 12.683.308 14.148-.428 1.465-7.581 2.697-4.803 7.621 2.778 4.924 10.145.602 13.425.015 3.28-.588 7.778 2.884 9.106 3.725 1.327.841 6.118 3.258 7.345 2.982 1.227-.277 4.767-2.063 6.21-2.389 1.444-.325 5.615-.657 13.49-2.052 7.876-1.396 9.034-16.102 9.758-17.938.723-1.836 2.767-4.881 4.422-4.266 1.655.615-1.777 5.571-3.525 8.245-1.748 2.675 1.239 5.499 1.484 6.584.245 1.086-3.035 1.673-2.614 2.87.422 1.198 5.609 4.362 6.792 5.236 1.183.874-1.917 6.97-.753 7.088.932.094 5.273-2.735 7.328-4.161 2.516-.947 8.213-2.992 10.868-3.59z"/><path d="M657.93 381.039c-1.137-.561-4.349.016-5.813.375-.43.1-3.402 1.953-4.251 3.036-.849 1.082-.082 3.267.37 4.649.453 1.381-.42 3.619.141 5.98.56 2.361 7.32 9.413 10.253 10.07s7.648-2.423 8.786-4.865c1.138-2.443.095-7.019-.403-9.65-.498-2.632-7.662-8.894-9.083-9.595zm-57.505-39.481c1.384-.944 5.677-.829 7.65-.653.578.044 4.786 1.847 6.086 3.074 1.3 1.226.688 4.188.344 6.053-.344 1.866-7.695.776-8.006 3.923-.31 3.147 1.015 17.338-2.695 18.756-3.709 1.419-10.408-1.622-12.327-4.541-1.92-2.919-1.374-9.01-1.193-12.492.182-3.483 8.412-12.94 10.141-14.12z"/></g><g opacity=".8" fill="#BFBFBF"><path d="M824.247 188.302c-.244-2.711-9.323-5.942-13.832-7.219-4.834-1.574-12.853 1.161-13.813 1.247-.96.087-1.845-1.467-2.482-2.747-.637-1.279-6.153 2.784-6.825 3.588-.672.803-2.29.206-4.652-1.214-2.363-1.421-4.288 4.472-5.765 4.605-1.478.133-2.657-2.211-4.281-3.699-1.624-1.487-9.235 2.468-9.015 4.899.219 2.432 7.565 2.14 7.718 3.834.153 1.695-6.472-.752-7.179 2.134-.708 2.886 7.376 10.772 8.589 13.485 1.213 2.713-1.226 5.385-.335 7.013.892 1.627 9.895 3.191 11.983 3.226 2.088.034.732-8.385 5.325-7.834 4.592.551-1.901 8.639.858 9.504 2.759.865 7.46-.674 9.307-.84 1.846-.167 1.346 4.186.605 6.704-.741 2.518-2.702 3.066-5.75 3.119-3.049.052-6.095 5.081-6.839 11.684-.744 6.603.858 9.504 1.044 11.567.186 2.063.153 9.939 1.078 11.935.925 1.996 12.669.936 14.065 1.553 1.396.617 1.679 7.87 6.925 5.762 5.246-2.107 1.929-9.978 1.777-13.307-.151-3.328 3.881-7.332 4.889-8.537 1.008-1.205 4.033-5.638 3.92-6.89-.113-1.253-1.419-4.997-1.552-6.47-.133-1.474.086-5.653-.263-13.643-.349-7.991-14.776-11.07-16.501-12.029-1.725-.958-4.476-3.384-3.649-4.944.828-1.56 5.289 2.494 7.712 4.578 2.422 2.083 5.613-.507 6.721-.607 1.108-.1 1.26 3.228 2.502 2.968 1.243-.261 5.061-4.988 6.082-6.046 1.022-1.058 6.659 2.816 6.928 1.677.216-.91-2.018-5.586-3.162-7.81-.609-2.619-1.888-8.535-2.133-11.246z"/><path d="M797.269 269.393c.071-1.266-1.718-3.995-2.622-5.201-.26-.356-3.13-2.365-4.458-2.722-1.328-.358-3.039 1.204-4.133 2.162-1.094.957-3.494 1.031-5.447 2.471-1.953 1.44-5.794 10.422-5.25 13.378.545 2.956 5.225 6.088 7.918 6.178 2.693.091 6.495-2.661 8.721-4.15 2.226-1.489 5.182-10.533 5.271-12.116zm3.376-106.821c1.41.903 2.986 4.898 3.597 6.782.185.549.174 5.127-.445 6.804-.619 1.676-3.583 2.273-5.435 2.687-1.851.414-3.727-6.776-6.745-5.829-3.017.946-15.555 7.724-18.313 4.866-2.758-2.858-2.584-10.212-.65-13.121 1.934-2.91 7.752-4.793 11.027-5.99 3.276-1.198 15.201 2.672 16.964 3.801zm-53.043 15.03c-1.185-2.451-10.82-2.276-15.489-1.883-5.078.23-11.62 5.614-12.488 6.034-.868.419-2.244-.724-3.291-1.697-1.046-.973-4.778 4.773-5.124 5.762-.346.988-2.07 1-4.781.502-2.712-.497-2.438 5.696-3.773 6.342-1.336.645-3.266-1.134-5.309-1.954-2.044-.82-7.774 5.563-6.712 7.761 1.062 2.198 7.834-.663 8.575.869.74 1.532-6.323 1.576-5.968 4.526.355 2.951 10.699 7.483 12.79 9.595 2.091 2.112.748 5.471 2.156 6.681 1.408 1.209 10.385-.499 12.351-1.202 1.967-.704-2.268-8.106 2.224-9.208 4.492-1.102 1.264 8.755 4.151 8.592 2.887-.162 6.745-3.258 8.415-4.065 1.669-.806 2.734 3.444 2.928 6.062.194 2.617-1.449 3.821-4.283 4.944-2.835 1.123-3.914 6.903-2.284 13.345 1.63 6.442 4.151 8.592 5.052 10.457.901 1.865 3.644 9.248 5.213 10.791 1.569 1.542 12.187-3.588 13.711-3.502 1.524.085 4.344 6.774 8.511 2.953 4.167-3.82-1.71-10.018-3.025-13.08-1.314-3.062 1.049-8.229 1.568-9.712.519-1.483 1.789-6.697 1.242-7.83-.547-1.132-3.089-4.176-3.732-5.508-.644-1.333-1.912-5.321-5.053-12.676-3.142-7.355-17.729-5.155-19.681-5.444-1.952-.289-5.381-1.59-5.156-3.342.225-1.751 5.828.471 8.829 1.568 3.001 1.097 5.076-2.452 6.077-2.936 1.002-.484 2.317 2.578 3.387 1.896 1.071-.682 2.979-6.451 3.563-7.801.583-1.349 7.223.29 7.074-.871-.119-.928-3.857-4.517-5.711-6.195-1.492-2.237-4.773-7.323-5.957-9.774z"/><path d="M761.452 220.534c-.289 1.234 1.001 4.232 1.682 5.577.194.395 2.672 2.871 3.919 3.453 1.246.582 3.201-.66 4.444-1.413 1.244-.754 3.621-.41 5.793-1.491 2.173-1.08 7.512-9.26 7.488-12.266-.024-3.006-4.091-6.901-6.727-7.457-2.637-.556-6.858 1.496-9.308 2.577-2.451 1.081-6.929 9.477-7.291 11.02zm-25.439 64.947c-1.233-1.133-2.093-5.341-2.369-7.303-.087-.573.717-5.08 1.617-6.623.901-1.544 3.924-1.619 5.819-1.706 1.895-.087 2.497 7.32 5.633 6.91 3.135-.409 16.658-4.912 18.879-1.62s.776 10.505-1.633 13.035c-2.409 2.531-8.465 3.378-11.898 3.989-3.434.612-14.508-5.265-16.048-6.682z"/></g><g opacity=".8" fill="#BFBFBF"><path d="M834.247 338.302c-.244-2.711-9.323-5.942-13.832-7.219-4.834-1.574-12.853 1.161-13.813 1.247-.96.087-1.845-1.467-2.482-2.747-.637-1.279-6.153 2.784-6.825 3.588-.672.803-2.29.206-4.652-1.214-2.363-1.421-4.288 4.472-5.765 4.605-1.478.133-2.657-2.211-4.281-3.699-1.624-1.487-9.235 2.468-9.015 4.899.219 2.432 7.565 2.14 7.718 3.834.153 1.695-6.472-.752-7.179 2.134-.708 2.886 7.376 10.772 8.589 13.485 1.213 2.713-1.226 5.385-.335 7.013.892 1.627 9.895 3.191 11.983 3.226 2.088.034.732-8.385 5.325-7.834 4.592.551-1.901 8.639.858 9.504 2.759.865 7.46-.674 9.307-.84 1.846-.167 1.346 4.186.605 6.704-.741 2.518-2.702 3.066-5.75 3.119-3.049.052-6.095 5.081-6.839 11.684-.744 6.603.858 9.504 1.044 11.567.186 2.063.153 9.939 1.078 11.935.925 1.996 12.669.936 14.065 1.553 1.396.617 1.679 7.87 6.925 5.762 5.246-2.107 1.929-9.978 1.777-13.307-.151-3.328 3.881-7.332 4.889-8.537 1.008-1.205 4.033-5.638 3.92-6.89-.113-1.253-1.419-4.997-1.552-6.47-.133-1.474.086-5.653-.263-13.643-.349-7.991-14.776-11.07-16.501-12.029-1.725-.958-4.476-3.384-3.649-4.944.828-1.56 5.289 2.494 7.712 4.578 2.422 2.083 5.613-.507 6.721-.607 1.108-.1 1.26 3.228 2.502 2.968 1.243-.261 5.061-4.988 6.082-6.046 1.022-1.058 6.659 2.816 6.928 1.677.216-.91-2.018-5.586-3.162-7.81-.609-2.619-1.888-8.535-2.133-11.246z"/><path d="M807.269 419.393c.071-1.266-1.718-3.995-2.622-5.201-.26-.356-3.13-2.365-4.458-2.722-1.328-.358-3.039 1.204-4.133 2.162-1.094.957-3.494 1.031-5.447 2.471-1.953 1.44-5.794 10.422-5.25 13.378.545 2.956 5.225 6.088 7.918 6.178 2.693.091 6.495-2.661 8.721-4.15 2.226-1.489 5.182-10.533 5.271-12.116zm3.376-106.821c1.41.903 2.986 4.898 3.597 6.782.185.549.174 5.127-.445 6.804-.619 1.676-3.583 2.273-5.435 2.687-1.851.414-3.727-6.776-6.745-5.829-3.017.946-15.555 7.724-18.313 4.866-2.758-2.858-2.584-10.212-.65-13.121 1.934-2.91 7.752-4.793 11.027-5.99 3.276-1.198 15.201 2.672 16.964 3.801zm-53.043 15.03c-1.185-2.451-10.82-2.276-15.489-1.883-5.078.23-11.62 5.614-12.488 6.034-.868.419-2.244-.724-3.291-1.697-1.046-.973-4.778 4.773-5.124 5.762-.346.988-2.07 1-4.781.502-2.712-.497-2.438 5.696-3.773 6.342-1.336.645-3.266-1.134-5.309-1.954-2.044-.82-7.774 5.563-6.712 7.761 1.062 2.198 7.834-.663 8.575.869.74 1.532-6.323 1.576-5.968 4.526.355 2.951 10.699 7.483 12.79 9.595 2.091 2.112.748 5.471 2.156 6.681 1.408 1.209 10.385-.499 12.351-1.202 1.967-.704-2.268-8.106 2.224-9.208 4.492-1.102 1.264 8.755 4.151 8.592 2.887-.162 6.745-3.258 8.415-4.065 1.669-.806 2.734 3.444 2.928 6.062.194 2.617-1.449 3.821-4.283 4.944-2.835 1.123-3.914 6.903-2.284 13.345 1.63 6.442 4.151 8.592 5.052 10.457.901 1.865 3.644 9.248 5.213 10.791 1.569 1.542 12.187-3.588 13.711-3.502 1.524.085 4.344 6.774 8.511 2.953 4.167-3.82-1.71-10.018-3.025-13.08-1.314-3.062 1.049-8.229 1.568-9.712.519-1.483 1.789-6.697 1.242-7.83-.547-1.132-3.089-4.176-3.732-5.508-.644-1.333-1.912-5.321-5.053-12.676-3.142-7.355-17.729-5.155-19.681-5.444-1.952-.289-5.381-1.59-5.156-3.342.225-1.751 5.828.471 8.829 1.568 3.001 1.097 5.076-2.452 6.077-2.936 1.002-.484 2.317 2.578 3.387 1.896 1.071-.682 2.979-6.451 3.563-7.801.583-1.349 7.223.29 7.074-.871-.119-.928-3.857-4.517-5.711-6.195-1.492-2.237-4.773-7.323-5.957-9.774z"/><path d="M771.452 370.534c-.289 1.234 1.001 4.232 1.682 5.577.194.395 2.672 2.871 3.919 3.453 1.246.582 3.201-.66 4.444-1.413 1.244-.754 3.621-.41 5.793-1.491 2.173-1.08 7.512-9.26 7.488-12.266-.024-3.006-4.091-6.901-6.727-7.457-2.637-.556-6.858 1.496-9.308 2.577-2.451 1.081-6.929 9.477-7.291 11.02zm-25.439 64.947c-1.233-1.133-2.093-5.341-2.369-7.303-.087-.573.717-5.08 1.617-6.623.901-1.544 3.924-1.619 5.819-1.706 1.895-.087 2.497 7.32 5.633 6.91 3.135-.409 16.658-4.912 18.879-1.62s.776 10.505-1.633 13.035c-2.409 2.531-8.465 3.378-11.898 3.989-3.434.612-14.508-5.265-16.048-6.682z"/></g><path d="M306.609 148.177c-.703-2.774-10.662-4.624-15.553-5.203-5.278-.833-13.149 3.333-14.131 3.582-.983.249-2.159-1.218-3.031-2.441-.873-1.222-5.926 3.909-6.491 4.854-.564.945-2.342.594-5.03-.49-2.687-1.084-3.71 5.352-5.221 5.735-1.511.383-3.124-1.855-5.056-3.13-1.931-1.275-9.176 4.09-8.546 6.577.63 2.488 8.207.968 8.646 2.702.44 1.734-6.842.29-7.099 3.404-.256 3.113 9.441 9.96 11.149 12.575 1.708 2.615-.382 5.792.813 7.334 1.195 1.542 10.799 1.675 12.972 1.364 2.173-.31-.628-8.824 4.23-9.013 4.858-.188-.543 9.282 2.464 9.723 3.007.441 7.633-1.934 9.522-2.413 1.889-.479 2.09 4.123 1.738 6.859-.352 2.736-2.297 3.63-5.452 4.189-3.156.559-5.485 6.283-5.164 13.261.321 6.977 2.464 9.723 2.999 11.833.535 2.11 1.804 10.291 3.095 12.21 1.29 1.919 13.305-1.126 14.857-.717 1.551.409 3.045 7.891 8.141 4.835 5.096-3.057.35-10.677-.358-14.107-.709-3.43 2.814-8.253 3.661-9.671.847-1.418 3.253-6.52 2.928-7.801-.325-1.281-2.3-4.952-2.682-6.459-.382-1.508-.848-5.882-2.533-14.118-1.685-8.235-17.17-9.043-19.119-9.753-1.949-.709-5.206-2.771-4.606-4.528.601-1.756 5.903 1.713 8.762 3.475 2.859 1.762 5.743-1.456 6.877-1.743 1.133-.287 1.842 3.143 3.088 2.667 1.247-.477 4.427-6.015 5.312-7.283.885-1.267 7.378 1.821 7.469.594.073-.981-3.02-5.464-4.576-7.583-1.065-2.618-3.372-8.547-4.075-11.32z" fill="#BFBFBF"/><path d="M292.033 236.815c-.136-1.325-2.445-3.862-3.583-4.965-.329-.326-3.64-1.936-5.078-2.087-1.438-.151-2.955 1.753-3.932 2.928-.977 1.175-3.456 1.649-5.245 3.468-1.788 1.818-4.288 11.777-3.234 14.755 1.055 2.978 6.432 5.454 9.242 5.102 2.81-.352 6.3-3.838 8.365-5.752 2.064-1.914 3.635-11.792 3.465-13.449zM277.85 125.377c1.613.704 3.91 4.59 4.857 6.445.283.539 1.03 5.292.665 7.135s-3.343 2.954-5.197 3.69c-1.853.736-4.991-6.417-7.966-4.935-2.975 1.483-14.867 10.593-18.203 8.084-3.336-2.51-4.373-10.172-2.848-13.512 1.526-3.341 7.254-6.258 10.455-8.043 3.202-1.786 16.22.256 18.237 1.136zm-52.568 24.383c-1.636-2.348-11.608-.571-16.389.611-5.233 1.079-11.132 7.751-11.964 8.33-.831.579-2.449-.38-3.696-1.216-1.248-.837-4.169 5.745-4.365 6.828-.195 1.084-1.983 1.381-4.879 1.314-2.897-.068-1.587 6.316-2.867 7.207-1.279.891-3.577-.636-5.834-1.149-2.257-.513-7.148 7.061-5.681 9.167 1.466 2.106 8.022-1.985 9.044-.518 1.021 1.468-6.302 2.683-5.445 5.687.856 3.003 12.344 5.995 14.864 7.841 2.52 1.846 1.683 5.555 3.345 6.577 1.661 1.022 10.696-2.237 12.621-3.292 1.924-1.056-3.697-8.038.783-9.926s2.762 8.878 5.732 8.232c2.969-.647 6.461-4.5 8.061-5.613 1.599-1.114 3.408 3.122 4.043 5.806.634 2.685-.871 4.207-3.627 5.842-2.756 1.635-2.92 7.812-.161 14.23 2.758 6.417 5.731 8.231 6.975 10.018 1.244 1.786 5.314 8.996 7.198 10.337 1.884 1.341 12.056-5.742 13.652-5.905 1.596-.164 5.63 6.312 9.323 1.656 3.692-4.655-3.434-10.115-5.306-13.076-1.871-2.96-.274-8.715.02-10.341.293-1.625.748-7.247-.008-8.332-.755-1.085-3.897-3.824-4.786-5.1-.888-1.276-2.865-5.206-7.343-12.32-4.479-7.114-19.256-2.416-21.33-2.393-2.074.023-5.848-.759-5.905-2.615-.057-1.855 6.127-.476 9.424.165 3.297.642 4.862-3.385 5.822-4.053.959-.669 2.831 2.292 3.83 1.407.998-.885 2.023-7.189 2.405-8.686.383-1.498 7.546-.896 7.2-2.076-.278-.944-4.752-4.05-6.955-5.485-1.919-2.075-6.166-6.811-7.801-9.159z" fill="#BFBFBF"/><path d="M246.767 192.029c-.096 1.329 1.739 4.227 2.668 5.51.268.378 3.25 2.538 4.64 2.936 1.39.397 3.214-1.215 4.38-2.203 1.165-.988 3.689-1.025 5.766-2.506 2.076-1.481 6.264-10.856 5.741-13.972-.523-3.116-5.389-6.486-8.218-6.626-2.828-.141-6.87 2.688-9.235 4.216-2.364 1.527-5.623 10.983-5.742 12.645zm-15.653 71.627c-1.467-.973-3.056-5.198-3.667-7.189-.185-.58-.097-5.391.582-7.143.678-1.751 3.804-2.329 5.757-2.733 1.952-.404 3.804 7.184 6.991 6.24 3.187-.945 16.477-7.858 19.328-4.808 2.851 3.05 2.545 10.775.463 13.801-2.081 3.025-8.227 4.907-11.69 6.11-3.462 1.204-15.93-3.062-17.764-4.278z" fill="#BFBFBF"/><path d="M191.832 267.724c-.465 2.823 7.922 8.502 12.174 10.989 4.504 2.875 13.384 2.204 14.384 2.369 1 .165 1.491 1.979 1.802 3.449.311 1.469 6.994-1.212 7.89-1.853.896-.64 2.385.393 4.414 2.461 2.03 2.068 5.541-3.421 7.08-3.168 1.538.253 2.121 2.95 3.381 4.891 1.261 1.941 10.047-.079 10.464-2.61.417-2.532-7.135-4.17-6.844-5.935.291-1.764 6.388 2.471 7.868-.28 1.48-2.751-4.669-12.904-5.189-15.985-.52-3.08 2.666-5.155 2.188-7.047-.479-1.891-9.228-5.854-11.344-6.439-2.115-.585-2.953 8.34-7.481 6.569-4.528-1.77 4.21-8.29 1.63-9.897-2.58-1.606-7.769-1.279-9.692-1.596-1.923-.317-.267-4.614 1.15-6.982 1.417-2.367 3.557-2.408 6.673-1.658 3.116.749 7.54-3.565 10.036-10.089 2.497-6.523 1.631-9.897 1.984-12.045.354-2.148 2.463-10.154 2.048-12.429-.416-2.275-12.646-4.289-13.904-5.284-1.258-.996.365-8.451-5.528-7.688-5.894.763-4.592 9.646-5.314 13.073-.723 3.427-5.88 6.439-7.223 7.399-1.344.961-5.59 4.675-5.805 5.979-.214 1.304.128 5.458-.124 6.993-.253 1.534-1.576 5.729-3.326 13.952-1.749 8.222 12.12 15.156 13.623 16.586 1.503 1.429 3.663 4.622 2.41 5.992-1.253 1.369-4.725-3.931-6.641-6.689-1.916-2.759-5.846-.963-6.999-1.153-1.154-.19-.432-3.617-1.765-3.679-1.333-.062-6.463 3.742-7.781 4.549-1.318.808-6.033-4.618-6.608-3.531-.459.87.583 6.216 1.161 8.781-.07 2.825-.327 9.181-.792 12.005z" fill="#BFBFBF"/><path d="M240.643 192.314c-.405 1.269.697 4.518 1.298 5.983.171.431 2.562 3.231 3.82 3.944 1.257.714 3.409-.425 4.775-1.111 1.365-.686 3.827-.129 6.193-1.08 2.367-.952 8.641-9.079 8.866-12.23.224-3.152-3.713-7.571-6.43-8.373-2.716-.802-7.309.998-9.967 1.926-2.658.929-8.048 9.354-8.555 10.941zm-31.571 107.809c-1.198-1.29-1.749-5.771-1.875-7.849-.044-.608 1.173-5.263 2.245-6.806 1.072-1.543 4.246-1.37 6.239-1.304 1.993.067 2.008 7.878 5.327 7.709 3.32-.168 17.864-3.762 19.917-.128 2.054 3.634-.06 11.072-2.794 13.523-2.735 2.451-9.151 2.835-12.799 3.19-3.649.356-14.764-6.722-16.26-8.335zm57.932-1.323c.559 2.806 10.409 5.166 15.265 5.995 5.228 1.104 13.302-2.652 14.296-2.85.994-.198 2.093 1.327 2.902 2.593.808 1.266 6.119-3.598 6.731-4.513.613-.915 2.37-.473 4.998.748 2.628 1.22 3.98-5.155 5.509-5.459 1.53-.305 3.025 2.013 4.889 3.386 1.863 1.373 9.374-3.613 8.873-6.13-.502-2.516-8.147-1.388-8.496-3.142-.35-1.754 6.848.062 7.265-3.034.416-3.096-8.916-10.433-10.488-13.132-1.571-2.7.679-5.765-.435-7.366-1.114-1.602-10.698-2.228-12.884-2.03-2.187.198.173 8.845-4.688 8.783-4.861-.061 1.019-9.241-1.961-9.836-2.98-.596-7.722 1.539-9.633 1.92-1.911.381-1.876-4.225-1.383-6.939.492-2.715 2.48-3.507 5.66-3.904 3.18-.396 5.801-5.992 5.839-12.977.039-6.985-1.961-9.837-2.386-11.972-.426-2.135-1.273-10.37-2.463-12.353-1.19-1.983-13.346.44-14.874-.048-1.528-.488-2.636-8.037-7.882-5.247-5.247 2.79-.899 10.645-.368 14.107.531 3.462-3.234 8.097-4.153 9.47-.919 1.372-3.585 6.343-3.326 7.64.258 1.296 2.043 5.063 2.347 6.588.304 1.525.543 5.917 1.803 14.229 1.259 8.312 16.682 9.915 18.592 10.724 1.91.808 5.057 3.035 4.367 4.758-.69 1.724-5.807-2.014-8.572-3.92-2.765-1.907-5.81 1.158-6.957 1.387-1.147.228-1.678-3.234-2.947-2.822-1.27.412-4.73 5.779-5.68 6.999-.949 1.22-7.274-2.197-7.428-.977-.123.976 2.735 5.613 4.18 7.809.929 2.669 2.928 8.708 3.488 11.515z" fill="#BFBFBF"/><path d="M264.217 251.466c.619-1.18.097-4.571-.242-6.118-.094-.454-1.963-3.626-3.078-4.547-1.115-.92-3.432-.171-4.895.268-1.464.439-3.792-.536-6.288-.009-2.496.527-10.083 7.444-10.85 10.509-.767 3.065 2.345 8.1 4.882 9.36 2.536 1.26 7.372.284 10.15-.171 2.778-.454 9.547-7.818 10.321-9.292zm42.994-59.389c.956 1.479.723 5.987.486 8.056-.062.605-2.067 4.98-3.389 6.314-1.323 1.334-4.419.614-6.37.203-1.952-.411-.614-8.106-3.912-8.515-3.299-.41-18.245.611-19.638-3.325-1.393-3.935 1.977-10.893 5.095-12.834 3.118-1.941 9.503-1.207 13.158-.925 3.655.282 13.376 9.179 14.57 11.026z" fill="#BFBFBF"/><g opacity=".8" fill="#BFBFBF"><path d="M627.07 125.907c.646-2.787-7.359-8.995-11.442-11.75-4.309-3.159-13.214-3.062-14.201-3.29-.987-.229-1.361-2.072-1.576-3.558-.216-1.487-7.058.759-7.993 1.34-.935.582-2.354-.545-4.247-2.74-1.892-2.194-5.749 3.058-7.268 2.706-1.519-.352-1.927-3.081-3.06-5.099-1.133-2.018-10.031-.568-10.61 1.931-.579 2.5 6.851 4.621 6.448 6.363-.404 1.742-6.216-2.877-7.87-.227s3.828 13.178 4.149 16.286c.32 3.107-2.993 4.973-2.638 6.891.356 1.918 8.832 6.436 10.906 7.156 2.073.72 3.484-8.132 7.889-6.073 4.404 2.058-4.735 8.001-2.264 9.771 2.47 1.77 7.67 1.777 9.569 2.217 1.898.44-.031 4.622-1.598 6.893-1.566 2.271-3.704 2.175-6.766 1.226-3.061-.949-7.753 3.072-10.665 9.421-2.911 6.349-2.264 9.772-2.755 11.893-.492 2.121-3.112 9.974-2.844 12.271.268 2.297 12.343 5.095 13.535 6.169 1.191 1.074-.909 8.409 5.021 8.028 5.93-.382 5.203-9.33 6.145-12.704.942-3.373 6.282-6.047 7.685-6.919 1.402-.872 5.879-4.305 6.177-5.592.298-1.288.224-5.456.575-6.971.351-1.515 1.941-5.616 4.217-13.708 2.275-8.093-11.119-15.906-12.526-17.429-1.408-1.524-3.358-4.849-2.02-6.135 1.339-1.286 4.462 4.227 6.197 7.103 1.734 2.876 5.771 1.337 6.911 1.601 1.139.264.197 3.637 1.523 3.785 1.326.148 6.691-3.318 8.058-4.039 1.367-.721 5.724 4.998 6.367 3.95.514-.839-.181-6.241-.593-8.838.252-2.815.918-9.141 1.564-11.929z"/><path d="M573.503 198.017c.486-1.24-.404-4.553-.91-6.055-.143-.44-2.349-3.389-3.558-4.182-1.209-.792-3.43.205-4.836.802-1.407.597-3.828-.118-6.251.679-2.423.797-9.208 8.503-9.634 11.634-.427 3.131 3.217 7.794 5.876 8.769 2.659.975 7.359-.525 10.071-1.28 2.712-.756 8.634-8.816 9.242-10.367zm38.448-105.552c1.112 1.365 1.374 5.871 1.365 7.954.005.609-1.509 5.176-2.678 6.647s-4.325 1.094-6.31.899c-1.984-.195-1.496-7.99-4.82-8.036-3.323-.046-18.068 2.604-19.884-1.155-1.815-3.759.773-11.044 3.66-13.315 2.887-2.27 9.314-2.24 12.978-2.36 3.664-.12 14.3 7.66 15.689 9.366zm-41.479 26.983c1.966-2.079-1.807-11.48-3.939-15.92-2.123-4.903-9.858-9.317-10.594-10.014-.737-.696-.128-2.474.437-3.866.564-1.392-6.475-2.91-7.576-2.88-1.1.029-1.756-1.66-2.28-4.51-.525-2.85-6.507-.266-7.64-1.337s-.107-3.632-.065-5.946c.041-2.314-8.371-5.557-10.133-3.693-1.763 1.865 3.579 7.449 2.351 8.749-1.229 1.3-3.911-5.623-6.677-4.172-2.766 1.452-3.353 13.308-4.646 16.151-1.293 2.844-5.096 2.78-5.757 4.616-.662 1.835 4.37 10.015 5.796 11.684 1.427 1.669 7.116-5.258 9.877-1.256 2.762 4.001-8.128 4.514-6.89 7.289 1.239 2.775 5.722 5.408 7.139 6.747 1.416 1.339-2.362 3.974-4.861 5.142-2.499 1.169-4.296.006-6.458-2.359-2.163-2.365-8.244-1.266-13.964 2.743-5.719 4.009-6.89 7.29-8.385 8.872-1.496 1.582-7.724 7.036-8.653 9.154-.928 2.118 8.08 10.632 8.565 12.161.486 1.529-5.032 6.799.279 9.465 5.311 2.666 9.203-5.424 11.72-7.86 2.517-2.436 8.476-2.045 10.127-2.09 1.651-.044 7.248-.745 8.156-1.706.908-.96 2.949-4.595 4.017-5.725 1.069-1.13 4.513-3.866 10.564-9.701 6.052-5.835-1.561-19.344-2.006-21.369-.445-2.026-.449-5.881 1.356-6.315 1.804-.434 1.716 5.902 1.76 9.26.044 3.358 4.305 4.069 5.155 4.873.85.803-1.667 3.239-.597 4.036 1.07.797 7.451.516 8.995.584 1.544.069 2.415 7.205 3.5 6.625.867-.464 2.996-5.478 3.952-7.926 1.639-2.302 5.41-7.426 7.375-9.506z"/><path d="M548.275 132.754c-.694 1.137-.391 4.554-.153 6.121.064.458 1.726 3.744 2.779 4.735 1.054.99 3.414.392 4.902.048 1.489-.344 3.75.779 6.274.414 2.525-.365 10.542-6.78 11.505-9.789.962-3.009-1.819-8.234-4.269-9.654-2.45-1.421-7.339-.759-10.141-.484-2.801.274-10.03 7.187-10.897 8.609zm-47.808 31.114c1.233-1.256 5.683-2.014 7.754-2.236.605-.072 5.312.928 6.902 1.927 1.591.999 1.565 4.178 1.591 6.172.026 1.994-7.776 2.37-7.454 5.679.322 3.308 4.586 17.67 1.05 19.889-3.535 2.22-11.062.453-13.637-2.165-2.576-2.618-3.256-9.01-3.78-12.638s6.032-15.059 7.574-16.628z"/></g><circle cx="252" cy="292" r="33" fill="#9C9C9C"/><circle cx="252" cy="292" r="20" fill="#828282"/><circle cx="252" cy="292" r="4.5" fill="#000" stroke="#000"/><circle cx="247" cy="282" r="4.5" fill="#000" stroke="#000"/><circle cx="260" cy="284" r="4.5" fill="#000" stroke="#000"/><circle cx="265" cy="294" r="4.5" fill="#000" stroke="#000"/><circle cx="257" cy="303" r="4.5" fill="#000" stroke="#000"/><circle cx="245" cy="302" r="4.5" fill="#000" stroke="#000"/><circle cx="240" cy="292" r="4.5" fill="#000" stroke="#000"/><path d="M355.5 76.5l13-10.5" stroke="#000"/><path d="M317.5 110.5c-10 10-64.833 66.833-91 94-2.431 2.523-13.741 2.73-20 0-4.04-1.762-3.058-6.322-6-7 .5-3.667 1.8-5.9 9-13.5 9-9.5 137.5-130.5 152.5-133 12-2 17.333 12.5 18.5 20-1.167 2-4.2 6.9-7 10.5-2.8 3.6-12.833 1.5-18 0l-1-4.5c-8.167 7-27 23.5-37 33.5z" fill="#949494"/><path d="M355 86.5v-10c1.833 0 4.9 5 12.5 5S379.833 70.833 380 68l6.5 18.5c-1.333 3.333-6.5 10-16.5 10s-14.167-6.667-15-10zM226.5 205v6.5c-2.667 1.667-13 5-18 2.5s-6.667-4.833-8-9v-10c1.667 3.333 6.954 7.475 11.5 10 4.5 2.5 11.5 0 14.5 0z" fill="#7A7A7A"/></svg>