<svg width="1073" height="764" fill="none" xmlns="http://www.w3.org/2000/svg"><path fill="#8C8C8C" d="M0 0h1519.73v763.368H0z"/><rect x="33.266" y="24.512" width="1453.2" height="714.345" rx="41" fill="#A7A7A7"/><rect x="71.785" y="57.778" width="537.51" height="649.564" rx="78" fill="#7A7A7A"/><rect x="133.064" y="126.061" width="458.721" height="565.523" rx="68" fill="#B4B4B4"/><circle cx="441.213" cy="435.961" r="57.778" fill="#9C9C9C"/><circle cx="441.212" cy="435.96" r="35.017" fill="#828282"/><circle cx="441.213" cy="435.961" r="8.254" fill="#000" stroke="#000"/><circle cx="432.459" cy="418.452" r="8.254" fill="#000" stroke="#000"/><circle cx="455.219" cy="421.954" r="8.254" fill="#000" stroke="#000"/><circle cx="463.975" cy="439.462" r="8.254" fill="#000" stroke="#000"/><circle cx="449.966" cy="455.22" r="8.254" fill="#000" stroke="#000"/><circle cx="428.957" cy="453.469" r="8.254" fill="#000" stroke="#000"/><circle cx="420.202" cy="435.961" r="8.254" fill="#000" stroke="#000"/><path d="M622.426 58.653l22.761-18.383" stroke="#000"/><path fill-rule="evenodd" clip-rule="evenodd" d="M538.786 312.763c11.452-2.768 38.891-9.412 57.031-13.84 11.279-2.754 62.989-34.827 113.303-66.033 50.834-31.53 100.242-62.175 105.081-60.801 6.987 1.985 11.084 7.232 14.647 11.798 1.347 1.725 2.617 3.352 3.939 4.67 4.819 4.803 9.642 11.67 8.278 18.546-1.19 6.003-66.773 46.168-92.999 62.23a1998.543 1998.543 0 00-8.625 5.298c-3.358 2.087-10.814 6.417-20.364 11.963-31.454 18.268-85.62 49.726-90.88 57.644-5.485 8.257-30.639 39.689-42.53 54.372l-46.881-85.847zM811.49 200.284c-3.853-6.958-12.617-9.475-19.574-5.622l-10.018 5.547c-6.958 3.852-9.475 12.616-5.622 19.574 3.852 6.957 12.616 9.475 19.574 5.622l10.017-5.547c6.958-3.853 9.475-12.616 5.623-19.574z" fill="#464137"/><circle cx="365.814" cy="467.018" r="232.337" transform="rotate(-.093 365.814 467.018)" fill="#3A3A3A"/><circle cx="365.813" cy="467.017" r="222.714" transform="rotate(-.093 365.813 467.017)" fill="#4A4A4A"/><circle cx="375.439" cy="468.377" r="101.733" transform="rotate(-.093 375.439 468.377)" fill="#545454"/><path d="M564.285 113.814c-16.861 16.862-57.501 54.945-101.621 100.752-4.099 4.255-23.169 4.604-33.723 0-6.811-2.971-5.157-10.659-10.117-11.803.843-6.183 3.035-9.948 15.175-22.763 15.176-16.018 180.027-162.295 205.319-166.51 20.234-3.373 29.227 21.076 31.194 33.722-1.967 3.372-7.082 11.634-11.803 17.704-4.721 6.07-21.639 2.53-30.351 0l-1.686-7.587c-13.77 11.803-45.526 39.624-62.387 56.485z" fill="#949494"/><path d="M627.516 73.347V56.486c3.091 0 8.262 8.43 21.076 8.43 12.815 0 20.796-17.985 21.077-22.763l10.96 31.194c-2.248 5.62-10.96 16.861-27.821 16.861-16.862 0-23.887-11.24-25.292-16.861zM463 216.096v12.413c-4.513 3.183-22 9.548-30.462 4.774-8.461-4.774-11.282-9.23-13.538-17.187V197c2.821 6.365 11.769 14.274 19.462 19.096 7.615 4.775 19.461 0 24.538 0z" fill="#7A7A7A"/></svg>