<svg width="26" height="33" viewBox="0 0 26 33" fill="none" xmlns="http://www.w3.org/2000/svg">
<path fill-rule="evenodd" clip-rule="evenodd" d="M1.48438 0.227074C0.656002 0.235699 -0.00854216 0.914228 8.30188e-05 1.74261L0.303419 30.8757C0.312044 31.7041 0.990574 32.3686 1.81896 32.36L23.6197 32.133C24.4481 32.1244 25.1126 31.4458 25.104 30.6174L24.8006 1.48438C24.792 0.656002 24.1135 -0.00854216 23.2851 8.30188e-05L1.48438 0.227074ZM4.23553 8.51659L4.23554 8.51659C5.75779 8.00742 8.10598 7.22199 8.48447 7.60048C8.88447 8.00048 7.98447 9.10047 7.48447 9.60047C7.78512 9.46171 8.12488 9.30108 8.48881 9.12903C10.7476 8.0612 13.9373 6.55325 14.4845 7.10047C14.8844 7.50049 14.3178 8.93381 13.9845 9.60048C15.8178 8.60047 19.6845 6.70046 20.4845 7.10047C21.2845 7.50048 20.4845 9.60048 19.9845 10.6005L19.4845 10.1005C19.9845 9.60048 20.1791 8.29507 19.9845 8.10048C19.7345 7.85047 17.8595 8.72548 15.9845 9.60048C14.1095 10.4755 12.2345 11.3505 11.9845 11.1005C11.7345 10.8505 12.2345 10.2255 12.7345 9.60048C13.2345 8.97548 13.7345 8.35048 13.4845 8.10048C13.3426 7.95858 12.0259 8.51338 10.5003 9.15623C8.2248 10.1151 5.48447 11.2698 5.48447 10.6005C5.48447 10.3505 5.85946 9.97548 6.23446 9.60048L6.23446 9.60048C6.60947 9.22548 6.98447 8.85048 6.98447 8.60048C6.98447 8.20048 4.98447 9.10048 3.98447 9.60048V8.60048L4.23553 8.51659ZM5.48447 15.6763L4.70372 15.4664C4.27528 15.8979 3.58978 17.0197 4.27528 18.0553C4.77168 18.8051 6.13077 17.9622 7.35303 17.2041C8.24064 16.6536 9.05608 16.1478 9.41657 16.3293C9.78381 16.5142 9.91496 16.9369 10.0461 17.3596C10.221 17.9232 10.3959 18.4867 11.1303 18.4867C11.5469 18.4867 12.6722 17.569 13.7679 16.6755C14.9262 15.7309 16.0515 14.8132 16.2716 15.0349C16.4408 15.2053 16.2091 15.6449 15.9194 16.1943C15.4757 17.0359 14.8963 18.135 15.4147 18.9182C16.1002 19.9538 19.4135 17.6238 20.9845 16.3293L20.556 15.4664C20.1863 15.6991 19.6582 16.074 19.1035 16.4676L19.1035 16.4676C17.9442 17.2904 16.6692 18.1953 16.4845 18.0553C16.2819 17.9017 16.4896 17.4014 16.7419 16.7934C17.1125 15.9005 17.5794 14.7754 16.9845 14.1763C16.2693 13.4561 14.3979 14.9152 12.9491 16.0449C12.0687 16.7314 11.3443 17.2962 11.1303 17.1763C10.9832 17.0938 10.8709 16.8787 10.7368 16.6218C10.5296 16.2249 10.2704 15.7283 9.75027 15.4664C8.89339 15.0349 5.91291 16.7448 5.48447 17.1763C5.05603 17.6077 4.76521 15.9936 5.48447 15.6763ZM4.98447 22.8402C5.84933 22.3075 7.29257 21.7596 7.98447 22.0792C8.50854 22.3213 8.23869 23.0044 8.04087 23.5051C7.91224 23.8307 7.81407 24.0792 7.98447 24.0792C8.11474 24.0792 8.49641 23.8706 8.98984 23.6009C10.1344 22.9752 11.8801 22.0209 12.4845 22.5792C13.0414 23.0938 12.287 24.1897 11.7947 24.9049C11.5226 25.3003 11.3305 25.5792 11.4845 25.5792C11.6401 25.5792 12.1771 25.297 12.8645 24.9358C14.0868 24.2933 15.7849 23.4009 16.6601 23.4009C16.9517 23.4009 17.2335 23.4463 17.512 23.4912C18.0598 23.5794 18.5953 23.6657 19.1686 23.4009C19.5891 23.2067 20.0627 22.8096 20.4342 22.498C20.6741 22.2969 20.8714 22.1315 20.9845 22.0792V23.2397C20.6962 23.6392 19.8601 24.4382 18.8223 24.4382H16.6601C16.1248 24.4382 15.074 24.9144 13.9635 25.4177C12.383 26.1339 10.6816 26.905 10.1737 26.4357C9.66703 25.9676 10.1991 25.2254 10.6399 24.6106C10.9516 24.1758 11.2176 23.8047 11.0385 23.6392C10.8594 23.4737 10.3093 23.788 9.66485 24.1563C8.75343 24.6771 7.65325 25.3057 7.14663 24.8377C6.64 24.3696 6.87531 24.0387 7.07025 23.7645C7.20809 23.5706 7.32575 23.4052 7.14663 23.2397C6.80068 22.9201 5.84933 23.3728 5.4169 23.6392L4.98447 22.8402Z" fill="#D9D9D9"/>
</svg>
