<svg width="27" height="27" fill="none" xmlns="http://www.w3.org/2000/svg"><path d="M11 1v1.5a1 1 0 001 1h3a1 1 0 001-1V1a1 1 0 00-1-1h-3a1 1 0 00-1 1zm5 25v-1.5a1 1 0 00-1-1h-3a1 1 0 00-1 1V26a1 1 0 001 1h3a1 1 0 001-1zM1 16h1.5a1 1 0 001-1v-3a1 1 0 00-1-1H1a1 1 0 00-1 1v3a1 1 0 001 1zm25-5h-1.5a1 1 0 00-1 1v3a1 1 0 001 1H26a1 1 0 001-1v-3a1 1 0 00-1-1zM6.722 23.814l1.06-1.061a1 1 0 000-1.414l-2.12-2.121a1 1 0 00-1.415 0l-1.06 1.06a1 1 0 000 1.414l2.12 2.122a1 1 0 001.415 0zM20.278 3.186l-1.06 1.061a1 1 0 000 1.414l2.12 2.122a1 1 0 001.415 0l1.06-1.061a1 1 0 000-1.414l-2.12-2.122a1 1 0 00-1.415 0zm3.536 17.092l-1.061-1.06a1 1 0 00-1.414 0l-2.121 2.12a1 1 0 000 1.415l1.06 1.06a1 1 0 001.414 0l2.122-2.12a1 1 0 000-1.415zM3.186 6.722l1.061 1.06a1 1 0 001.414 0l2.122-2.12a1 1 0 000-1.415l-1.061-1.06a1 1 0 00-1.414 0l-2.122 2.12a1 1 0 000 1.415z" fill="#D9D9D9"/><path fill-rule="evenodd" clip-rule="evenodd" d="M13.5 24C19.299 24 24 19.299 24 13.5S19.299 3 13.5 3 3 7.701 3 13.5 7.701 24 13.5 24zm0-2.625a7.875 7.875 0 100-15.75 7.875 7.875 0 000 15.75z" fill="#D9D9D9"/></svg>