<svg width="56" height="69" viewBox="0 0 56 69" fill="none" xmlns="http://www.w3.org/2000/svg">
<rect width="43.4566" height="44.5931" rx="1.5" transform="matrix(0.999952 -0.00983219 0.011025 0.999939 6.42139 12.4506)" fill="#181818"/>
<path fill-rule="evenodd" clip-rule="evenodd" d="M2.32821 1.50546C1.49982 1.5136 0.835686 2.19173 0.84482 3.02011L1.5456 66.5794C1.55473 67.4078 2.23368 68.0727 3.06207 68.0646L54.4605 67.5592C55.2889 67.551 55.953 66.8729 55.9439 66.0445L55.2431 2.48523C55.2339 1.65686 54.555 0.991927 53.7266 1.00007L2.32821 1.50546ZM10.153 18.6585L10.1531 18.6585C13.492 17.6038 18.6426 15.9769 19.4728 16.7609C20.3502 17.5894 18.3761 19.8679 17.2794 20.9036C17.9388 20.6162 18.684 20.2835 19.4822 19.9271L19.4823 19.9271C24.4368 17.7152 31.4332 14.5917 32.6334 15.7252C33.5107 16.5538 32.2678 19.5227 31.5366 20.9036C35.5579 18.8322 44.0392 14.8966 45.7939 15.7252C47.5487 16.5537 45.7939 20.9036 44.6972 22.975L43.6005 21.9393C44.6972 20.9036 45.124 18.1996 44.6972 17.7966C44.1488 17.2787 40.0362 19.0912 35.9235 20.9036C31.8108 22.7161 27.6981 24.5285 27.1498 24.0107C26.6014 23.4928 27.6981 22.1982 28.7949 20.9036C29.8916 19.609 30.9883 18.3144 30.4399 17.7966C30.1287 17.5026 27.2407 18.6519 23.8944 19.9834C18.9032 21.9696 12.8925 24.3614 12.8925 22.975C12.8925 22.4571 13.715 21.6804 14.5376 20.9036C15.3601 20.1269 16.1826 19.3501 16.1826 18.8323C16.1826 18.0037 11.7958 19.8679 9.60236 20.9036V18.8322C9.77861 18.7768 9.96178 18.7189 10.1508 18.6592L10.153 18.6585ZM12.8924 33.4888L11.1799 33.0542C10.2402 33.9479 8.73657 36.2716 10.2402 38.4166C11.329 39.9698 14.3101 38.2238 16.991 36.6535C18.9379 35.5132 20.7265 34.4656 21.5172 34.8416C22.3227 35.2246 22.6104 36.1001 22.8981 36.9756C23.2817 38.143 23.6652 39.3103 25.2762 39.3103C26.1899 39.3103 28.6582 37.4095 31.0616 35.5585C33.6022 33.6019 36.0704 31.7011 36.5533 32.1603C36.9244 32.5133 36.4161 33.4239 35.7808 34.5619C34.8076 36.3051 33.5366 38.5818 34.6738 40.2041C36.1774 42.3491 43.4448 37.5228 46.8906 34.8416L45.9508 33.0542C45.1399 33.5361 43.9815 34.3126 42.765 35.1279L42.7648 35.128C40.2219 36.8324 37.4254 38.7067 37.0201 38.4166C36.5759 38.0986 37.0314 37.0622 37.5848 35.8029C38.3977 33.9532 39.4218 31.6229 38.1169 30.3818C36.5481 28.8899 32.4433 31.9125 29.2655 34.2524C27.3344 35.6744 25.7456 36.8444 25.2762 36.5959C24.9535 36.425 24.7072 35.9795 24.4131 35.4473C23.9587 34.6253 23.39 33.5967 22.2492 33.0542C20.3697 32.1604 13.8322 35.7021 12.8924 36.5959C11.9527 37.4896 11.3148 34.1462 12.8924 33.4888ZM11.7959 48.3279C13.6929 47.2246 16.8585 46.0898 18.3761 46.7518C19.5257 47.2532 18.9338 48.6681 18.4999 49.7053C18.2177 50.3798 18.0024 50.8945 18.3761 50.8945C18.6619 50.8945 19.4991 50.4623 20.5814 49.9036C23.0918 48.6077 26.921 46.631 28.2466 47.7874C29.4682 48.8533 27.8134 51.1234 26.7336 52.6047C26.1367 53.4237 25.7155 54.0016 26.0531 54.0016C26.3945 54.0016 27.5723 53.417 29.0801 52.6687C31.7612 51.3379 35.4858 49.4894 37.4056 49.4894C38.0451 49.4894 38.6631 49.5834 39.2742 49.6764C40.4757 49.8592 41.6502 50.0379 42.9078 49.4894C43.83 49.0871 44.8688 48.2646 45.6838 47.6192C46.2098 47.2027 46.6427 46.86 46.8907 46.7518V49.1555C46.2584 49.983 44.4246 51.638 42.1482 51.638H37.4056C36.2314 51.638 33.9264 52.6245 31.4907 53.6669C28.0239 55.1505 24.2922 56.7476 23.178 55.7756C22.0667 54.8061 23.2338 53.2687 24.2007 51.9951C24.8843 51.0945 25.4679 50.3258 25.075 49.983C24.6821 49.6402 23.4755 50.2913 22.0619 51.0541C20.0628 52.1328 17.6497 53.435 16.5384 52.4655C15.4272 51.496 15.9433 50.8105 16.3709 50.2426C16.6732 49.841 16.9313 49.4983 16.5384 49.1555C15.7796 48.4934 13.6929 49.4313 12.7444 49.983L11.7959 48.3279Z" fill="white"/>
<rect x="0.758232" y="0.74258" width="52.9009" height="65.0631" rx="0.75" transform="matrix(0.999952 -0.00983219 0.011025 0.999939 0.819975 1.5277)" stroke="black" stroke-width="1.5"/>
</svg>
