<svg width="95" height="103" viewBox="0 0 95 103" fill="none" xmlns="http://www.w3.org/2000/svg">
<path d="M6.10108 74.0557C2.74471 82.764 8.43979 88.3474 11.7069 90.0506L36.7685 55.7016L32.9085 57.4595C30.3911 58.606 10.2965 63.1702 6.10108 74.0557Z" stroke="black" stroke-width="1.3" stroke-linejoin="round"/>
<path d="M29.5916 89.4036C22.2754 95.3614 13.9948 92.9499 11.269 90.4995L37.2248 55.1048C36.1753 56.5842 37.0208 57.0826 36.7982 59.2402C36.5201 61.9372 38.7368 81.9564 29.5916 89.4036Z" stroke="black" stroke-width="1.3" stroke-linejoin="round"/>
<path d="M3.91797 100.164L22.9939 74.4453L4.84399 101.554L3.91797 100.164Z" stroke="black" stroke-width="1.3"/>
<path d="M27.1365 15.9811L30.9783 13.9002L32.6734 16.691L28.8315 18.772L27.1365 15.9811Z" stroke="black" stroke-width="1.3"/>
<path d="M27.0249 16.6597L27.9115 16.1795L29.0415 18.0401L28.1549 18.5203L27.0249 16.6597Z" stroke="black" stroke-width="1.3"/>
<path d="M48.3394 14.1398C47.7948 15.2261 48.0445 15.9892 48.2374 16.235L41.1447 20.0768C40.1736 19.1604 37.9663 17.2363 36.9064 16.8708C35.5816 16.4139 34.9841 17.0467 33.0204 17.8012C31.4494 18.4048 29.775 15.8707 29.1342 14.5282C32.7268 12.2525 40.4755 7.59393 42.7284 7.16484C45.5447 6.62848 51.6329 8.46152 51.9241 9.91098C52.2153 11.3605 49.0203 12.782 48.3394 14.1398Z" stroke="black" stroke-width="1.3"/>
<path d="M64.6174 27.5766C61.1202 25.2674 54.1382 22.3937 51.0843 21.2455L45.0752 24.5003C44.3649 25.0911 42.6882 26.4231 42.6922 27.151C42.7024 29 44.7154 28.2188 45.4499 29.4281C46.1844 30.6375 44.7263 30.5 45.3478 31.5233C45.9693 32.5466 48.1033 32.5035 47.9642 33.5679C47.8252 34.6322 47.6644 35.3375 48.3142 36.4073C48.9639 37.4771 50.6176 36.6432 51.6911 38.4107C52.7647 40.1783 46.7202 47.4703 46.3212 48.8609C45.9221 50.2516 49.6651 60.4019 52.1172 65.1935C54.5692 69.9851 60.4845 77.7844 63.9664 79.4219C67.4484 81.0594 87.5088 70.0082 90.7139 66.2322C93.919 62.4562 89.3881 56.9361 85.651 50.2443C81.9139 43.5525 72.1813 35.7192 71.7858 35.068C71.3903 34.4168 72.1849 33.6773 72.0921 32.9857C71.9994 32.2942 68.989 30.4631 64.6174 27.5766Z" stroke="black" stroke-width="1.3"/>
<path d="M62.5356 33.5257C61.1159 33.6024 53.9525 44.3976 50.5482 49.7856C50.8714 53.4432 54.1884 61.5989 55.969 64.9616C57.7495 68.3242 62.65 75.7459 65.0179 76.6269C67.3858 77.5078 86.2423 66.7378 87.281 64.568C88.3196 62.3982 83.2055 53.5469 79.2098 48.046C75.2141 42.5451 64.3103 33.4299 62.5356 33.5257Z" stroke="black" stroke-width="1.3"/>
<path d="M40.5963 20.6828L43.5909 25.6132L51.8164 21.1578L48.8218 16.2274C48.1622 16.255 46.0056 16.7638 44.6265 17.5108C43.2473 18.2578 41.5292 19.8477 40.5963 20.6828Z" stroke="black" stroke-width="1.3"/>
<path d="M32.9553 25.1306C32.4083 22.3979 32.2015 19.5427 31.7736 17.7964L34.4841 17.1937C34.2869 18.5574 34.4408 20.6789 34.4857 22.2617C34.5177 23.3874 33.7819 30.8026 33.2459 30.3512C32.7099 29.8997 33.3678 27.1916 32.9553 25.1306Z" stroke="black" stroke-width="1.3"/>
</svg>
