<svg width="95" height="103" fill="none" xmlns="http://www.w3.org/2000/svg"><g clip-path="url(#clip0_1031_1800)" stroke="#000" stroke-width="1.8" stroke-linejoin="round"><path d="M28 16.86l1.5-1.36 1.5 2-1.87 1.22L28 16.86z"/><path d="M48.34 14.14c-.545 1.086-.296 1.85-.103 2.095l-7.092 3.842c-.971-.917-3.179-2.84-4.239-3.206-1.324-.457-1.922.176-3.886.93-1.57.604-3.245-1.93-3.886-3.273 3.593-2.276 11.341-6.934 13.594-7.363 2.817-.537 8.905 1.297 9.196 2.746.291 1.45-2.904 2.871-3.585 4.229zm16.277 13.437c-3.497-2.31-10.479-5.183-13.533-6.331L45.075 24.5c-.71.591-2.387 1.923-2.383 2.651.01 1.85 2.023 1.068 2.758 2.277.734 1.21-.724 1.072-.102 2.095.621 1.024 2.755.98 2.616 2.045-.139 1.064-.3 1.77.35 2.84.65 1.07 2.304.235 3.377 2.003 1.074 1.767-4.97 9.06-5.37 10.45-.399 1.39 3.344 11.541 5.796 16.333 2.452 4.791 8.367 12.59 11.85 14.228 3.481 1.638 23.542-9.414 26.747-13.19 3.205-3.776-1.326-9.296-5.063-15.988-3.737-6.691-13.47-14.525-13.865-15.176-.396-.651.399-1.39.306-2.082-.093-.692-3.103-2.523-7.475-5.41z"/><path d="M40.596 20.683l2.995 4.93 8.225-4.455-2.994-4.93c-.66.027-2.443 1.025-3.822 1.772-1.38.747-3.47 1.848-4.404 2.683zm-7.641 4.447c-.547-2.732-.753-5.587-1.181-7.333l2.71-.603c-.197 1.364-.043 3.485.002 5.068.032 1.125-.704 8.54-1.24 8.09-.536-.452.122-3.16-.29-5.221zM22.069 71.555l14.733-18.422-14.351 19.103-11.303 15.686a.938.938 0 11-1.488-1.14l12.409-15.227z"/><path d="M16.403 59.29c-5.878 7.419-2.18 15.62.547 19.003.11.137.238.253.385.351 4.242 2.842 12.163 5.313 19.091-3.156 7.049-8.617 2.93-20.646.988-22.296-1.943-1.65-13.512-3.366-21.011 6.098z"/></g><defs><clipPath id="clip0_1031_1800"><path fill="#fff" d="M0 0h95v103H0z"/></clipPath></defs></svg>