<svg width="55" height="68" viewBox="0 0 55 68" fill="none" xmlns="http://www.w3.org/2000/svg">
<path d="M34.3403 52C21.8891 52 11.7954 43.4934 11.7954 33C11.7954 22.5066 21.8891 14 34.3403 14" stroke="black" stroke-width="2"/>
<path d="M1.54785 28.8947H29.1626" stroke="black" stroke-width="2"/>
<path d="M1.54785 37.9474H29.1626" stroke="black" stroke-width="2"/>
<path d="M40.4955 8.30019C40.3873 5.97592 41.5349 1.26399 46.9915 1.01044C53.8122 0.693489 56.0857 7.6663 51.5386 12.4205C47.9009 16.2238 46.9915 19.4989 46.9915 20.6611" stroke="black" stroke-width="2"/>
<ellipse cx="46.9911" cy="25.7322" rx="1.29918" ry="1.26778" fill="black"/>
<path d="M1.55202 56.4924C1.48539 55.0621 2.19162 52.1625 5.54951 52.0064C9.74687 51.8114 11.146 56.1023 8.34773 59.028C6.10915 61.3685 5.54951 63.384 5.54951 64.0991" stroke="black" stroke-width="2"/>
<ellipse cx="5.5495" cy="67.2198" rx="0.799498" ry="0.780174" fill="black"/>
</svg>
