<svg width="55" height="68" fill="none" xmlns="http://www.w3.org/2000/svg"><path d="M40.495 8.3c-.108-2.324 1.04-7.036 6.497-7.29 6.82-.317 9.094 6.656 4.547 11.41-3.638 3.804-4.547 7.079-4.547 8.241" stroke="#000" stroke-width="2" stroke-linecap="round" stroke-linejoin="round"/><path d="M46.991 27c.718 0 1.3-.568 1.3-1.268 0-.7-.582-1.268-1.3-1.268-.717 0-1.3.568-1.3 1.268 0 .7.583 1.268 1.3 1.268z" fill="#000"/><path d="M1.552 56.492c-.067-1.43.64-4.33 3.998-4.486 4.197-.195 5.596 4.096 2.798 7.022-2.239 2.34-2.798 4.356-2.798 5.071" stroke="#000" stroke-width="2" stroke-linecap="round" stroke-linejoin="round"/><path d="M5.55 68a.79.79 0 00.799-.78.79.79 0 00-.8-.78.79.79 0 00-.799.78c0 .43.358.78.8.78z" fill="#000"/><path d="M3 28.365h24.515M3 39.967h24.515M35 17.136C26.454 14.641 9.437 14.63 9.737 34.54c.3 19.91 16.967 19.524 25.263 16.842" stroke="#000" stroke-width="2" stroke-linecap="round" stroke-linejoin="round"/></svg>