<svg width="257" height="652" fill="none" xmlns="http://www.w3.org/2000/svg"><path d="M101.162 0v39h70V0h-70z" fill="#494F69"/><path fill-rule="evenodd" clip-rule="evenodd" d="M16.162 640.5c-9.5-70.5-24.8-238.2-10-345 14.8-106.8 62.5-194.833 84.5-225.5l7.5-31.5h74.5l10 31.5c21.667 36.833 66.4 137.8 72 247 5.6 109.2-4.333 261.167-10 323.5-32.166 8.167-122.899 19.6-228.5 0zm166.5-363.5c-4.833-24-11.6-71.4 0-69 14.5 3 27.5 50.5 29 69s1.5 61.5-10 61.5c-9.2 0-16.5-41-19-61.5z" fill="#DADEE9"/><path d="M145.662 177.5c20 4.39 21.167 25.334 22 42 0 33.5 10.6 107.7 29 136.5 18.4 28.8 47 24.333 58.5 18.5 0 0 1.934 43.425 1.25 71.25-.683 27.825-4.75 71.25-4.75 71.25-5.167 27.167-29.6 83-86 89-70.5 7.5-108-57.5-113.5-80.5-7.902-33.046-7.5-237 5.5-277.5s44.5-80.049 88-70.5z" fill="#F1F1F4"/><path d="M25.603 446v-1.61c1.26-.047 2.24-.187 2.94-.42.7-.233 1.19-.723 1.47-1.47.327-.747.49-1.913.49-3.5v-32.55c0-1.633-.186-2.8-.56-3.5-.326-.747-.956-1.237-1.89-1.47-.933-.233-2.333-.373-4.2-.42v-1.61h17.5v1.61c-1.26.047-2.24.187-2.94.42-.7.233-1.213.723-1.54 1.47-.28.7-.42 1.867-.42 3.5V439c0 2.007.35 3.267 1.05 3.78.747.467 2.17.7 4.27.7h6.37c2.334 0 4.13-.373 5.39-1.12 1.307-.793 2.24-1.82 2.8-3.08a12.71 12.71 0 001.12-4.2h1.61l-.56 10.92h-32.9zm52.254 1.05c-2.38 0-4.667-.56-6.86-1.68-2.147-1.12-3.92-2.8-5.32-5.04-1.354-2.287-2.03-5.18-2.03-8.68 0-3.547.7-6.627 2.1-9.24 1.4-2.613 3.266-4.643 5.6-6.09a14.204 14.204 0 017.63-2.17c2.006 0 3.85.397 5.53 1.19 1.726.793 3.103 2.007 4.13 3.64 1.073 1.633 1.61 3.71 1.61 6.23l-21 2.73v.77c0 4.293.98 7.653 2.94 10.08 1.96 2.427 4.573 3.64 7.84 3.64 1.866 0 3.593-.373 5.18-1.12a18.254 18.254 0 004.27-2.94l1.12 1.12a15.888 15.888 0 01-5.25 5.46c-2.147 1.4-4.644 2.1-7.49 2.1zm-.35-30.31c-2.427 0-4.294.863-5.6 2.59-1.307 1.727-2.124 3.85-2.45 6.37l14.49-1.89c-.28-2.007-.887-3.687-1.82-5.04-.934-1.353-2.474-2.03-4.62-2.03zm28.624 30.31c-3.314 0-5.857-.63-7.63-1.89-1.774-1.26-2.66-2.87-2.66-4.83 0-.7.14-1.47.42-2.31.28-.887.77-1.75 1.47-2.59h1.61c.046 2.987.676 5.273 1.89 6.86 1.213 1.587 3.126 2.38 5.74 2.38 2.333 0 4.06-.56 5.18-1.68 1.12-1.12 1.68-2.403 1.68-3.85 0-1.307-.42-2.38-1.26-3.22-.794-.84-1.844-1.563-3.15-2.17a41.009 41.009 0 00-4.06-1.82 48.235 48.235 0 01-4.13-1.96c-1.26-.747-2.31-1.657-3.15-2.73-.794-1.073-1.19-2.427-1.19-4.06 0-2.567 1.026-4.713 3.08-6.44 2.053-1.727 4.923-2.59 8.61-2.59 1.446 0 2.916.14 4.41.42 1.493.233 2.893.723 4.2 1.47v8.05h-1.61c-.327-2.753-1.214-4.69-2.66-5.81-1.447-1.167-3.15-1.75-5.11-1.75-1.914 0-3.36.42-4.34 1.26-.98.84-1.47 1.937-1.47 3.29 0 1.26.396 2.31 1.19 3.15.84.793 1.89 1.493 3.15 2.1 1.306.607 2.66 1.213 4.06 1.82 1.446.56 2.8 1.237 4.06 2.03 1.306.747 2.356 1.703 3.15 2.87.84 1.12 1.26 2.543 1.26 4.27 0 3.127-1.214 5.53-3.64 7.21-2.427 1.68-5.46 2.52-9.1 2.52zm28.779 0c-3.313 0-5.857-.63-7.63-1.89-1.773-1.26-2.66-2.87-2.66-4.83 0-.7.14-1.47.42-2.31.28-.887.77-1.75 1.47-2.59h1.61c.047 2.987.677 5.273 1.89 6.86 1.213 1.587 3.127 2.38 5.74 2.38 2.333 0 4.06-.56 5.18-1.68 1.12-1.12 1.68-2.403 1.68-3.85 0-1.307-.42-2.38-1.26-3.22-.793-.84-1.843-1.563-3.15-2.17a40.905 40.905 0 00-4.06-1.82 48.379 48.379 0 01-4.13-1.96c-1.26-.747-2.31-1.657-3.15-2.73-.793-1.073-1.19-2.427-1.19-4.06 0-2.567 1.027-4.713 3.08-6.44 2.053-1.727 4.923-2.59 8.61-2.59 1.447 0 2.917.14 4.41.42 1.493.233 2.893.723 4.2 1.47v8.05h-1.61c-.327-2.753-1.213-4.69-2.66-5.81-1.447-1.167-3.15-1.75-5.11-1.75-1.913 0-3.36.42-4.34 1.26-.98.84-1.47 1.937-1.47 3.29 0 1.26.397 2.31 1.19 3.15.84.793 1.89 1.493 3.15 2.1 1.307.607 2.66 1.213 4.06 1.82a23.57 23.57 0 014.06 2.03c1.307.747 2.357 1.703 3.15 2.87.84 1.12 1.26 2.543 1.26 4.27 0 3.127-1.213 5.53-3.64 7.21-2.427 1.68-5.46 2.52-9.1 2.52zm28.709-8.12c0 1.633.164 2.823.49 3.57.327.747.91 1.237 1.75 1.47.887.233 2.124.373 3.71.42V446h-15.75v-1.61c1.027-.047 1.844-.187 2.45-.42.607-.233 1.05-.723 1.33-1.47s.42-1.937.42-3.57v-15.82c0-1.307-.21-2.147-.63-2.52-.373-.42-.886-.63-1.54-.63-.606 0-1.26.117-1.96.35-.653.187-1.26.397-1.82.63l-.7-1.61 12.11-5.53.42.42c-.046.373-.116 1.377-.21 3.01-.046 1.633-.07 3.57-.07 5.81v15.89zm-2.8-31.71c-1.026 0-1.89-.35-2.59-1.05-.7-.7-1.05-1.563-1.05-2.59 0-.98.35-1.82 1.05-2.52.7-.7 1.564-1.05 2.59-1.05 1.027 0 1.89.35 2.59 1.05.7.7 1.05 1.54 1.05 2.52 0 1.027-.35 1.89-1.05 2.59-.7.7-1.563 1.05-2.59 1.05zm24.303 39.48a37.29 37.29 0 00-.98-3.15c-.28-.887-.677-1.913-1.19-3.08l-7.84-18.41c-.653-1.587-1.26-2.73-1.82-3.43-.513-.7-1.073-1.167-1.68-1.4-.56-.233-1.26-.373-2.1-.42v-1.61h14.77v1.61c-1.587.047-2.707.21-3.36.49-.653.233-.933.723-.84 1.47.093.7.443 1.797 1.05 3.29l6.79 16.1h.14l6.65-16.1c.933-2.193 1.097-3.593.49-4.2-.56-.607-2.077-.957-4.55-1.05v-1.61h12.39v1.61c-.7.047-1.33.21-1.89.49-.56.233-1.097.723-1.61 1.47-.467.7-1.027 1.797-1.68 3.29l-7.77 18.41c-.513 1.26-.887 2.31-1.12 3.15-.233.84-.49 1.867-.77 3.08h-3.08zm34.991.35c-2.38 0-4.667-.56-6.86-1.68-2.147-1.12-3.92-2.8-5.32-5.04-1.354-2.287-2.03-5.18-2.03-8.68 0-3.547.7-6.627 2.1-9.24 1.4-2.613 3.266-4.643 5.6-6.09 2.333-1.447 4.876-2.17 7.63-2.17 2.006 0 3.85.397 5.53 1.19 1.726.793 3.103 2.007 4.13 3.64 1.073 1.633 1.61 3.71 1.61 6.23l-21 2.73v.77c0 4.293.98 7.653 2.94 10.08 1.96 2.427 4.573 3.64 7.84 3.64 1.866 0 3.593-.373 5.18-1.12a18.266 18.266 0 004.27-2.94l1.12 1.12a15.894 15.894 0 01-5.25 5.46c-2.147 1.4-4.644 2.1-7.49 2.1zm-.35-30.31c-2.427 0-4.294.863-5.6 2.59-1.307 1.727-2.124 3.85-2.45 6.37l14.49-1.89c-.28-2.007-.887-3.687-1.82-5.04-.934-1.353-2.474-2.03-4.62-2.03z" fill="#000"/></svg>