<svg width="302" height="674" fill="none" xmlns="http://www.w3.org/2000/svg"><path d="M9.842 157.087c7.985-32.361 79.327-79.326 113.999-98.764h70.396c30.295 21.189 93.511 70.606 104.018 98.764 13.134 35.198-11.557 52.009-23.64 102.442-12.083 50.433 20.488 266.349 23.64 299.971 3.152 33.622-16.811 84.055-23.64 97.189-6.83 13.134-105.594 16.811-118.728 16.811-13.133 0-117.677-8.406-129.234-16.811-11.558-8.405-6.83-21.539-16.811-97.189-9.982-75.649 23.64-204.358 28.368-270.026 4.728-65.668-38.35-91.935-28.368-132.387z" fill="#6AAE75"/><path d="M67.104 388.764c16.391-23.956 109.447-34.848 153.926-37.3 10.682 21.89 32.361 74.074 33.622 107.696 1.261 33.622-21.889 101.216-33.622 130.81-24.516 2.102-85.316 0-132.387-25.216-58.838-31.521-42.027-146.046-21.539-175.99z" fill="#8DBF92"/><path d="M122.791 29.429v28.894h69.345V29.429l-15.76-6.83V.536h-36.774V22.6l-16.811 6.829z" fill="#C9383F"/><path d="M40.434 441v-1.61c1.26-.047 2.24-.187 2.94-.42.7-.233 1.19-.723 1.47-1.47.327-.747.49-1.913.49-3.5v-32.55c0-1.633-.186-2.8-.56-3.5-.326-.747-.956-1.237-1.89-1.47-.933-.233-2.333-.373-4.2-.42v-1.61h17.5v1.61c-1.26.047-2.24.187-2.94.42-.7.233-1.213.723-1.54 1.47-.28.7-.42 1.867-.42 3.5V434c0 2.007.35 3.267 1.05 3.78.747.467 2.17.7 4.27.7h6.37c2.334 0 4.13-.373 5.39-1.12 1.307-.793 2.24-1.82 2.8-3.08a12.72 12.72 0 001.12-4.2h1.61l-.56 10.92h-32.9zm48.124-7.07c0 1.633.163 2.823.49 3.57.326.747.91 1.237 1.75 1.47.886.233 2.123.373 3.71.42V441h-15.75v-1.61c1.026-.047 1.843-.187 2.45-.42.606-.233 1.05-.723 1.33-1.47s.42-1.937.42-3.57v-15.82c0-1.307-.21-2.147-.63-2.52-.374-.42-.887-.63-1.54-.63-.607 0-1.26.117-1.96.35a16.66 16.66 0 00-1.82.63l-.7-1.61 12.11-5.53.42.42c-.047.373-.117 1.377-.21 3.01-.047 1.633-.07 3.57-.07 5.81v15.89zm-2.8-31.71c-1.027 0-1.89-.35-2.59-1.05-.7-.7-1.05-1.563-1.05-2.59 0-.98.35-1.82 1.05-2.52.7-.7 1.563-1.05 2.59-1.05 1.026 0 1.89.35 2.59 1.05.7.7 1.05 1.54 1.05 2.52 0 1.027-.35 1.89-1.05 2.59-.7.7-1.564 1.05-2.59 1.05zm47.598 48.72l.7 1.61-11.41 5.32-.42-.42c.093-.373.163-1.377.21-3.01.046-1.633.07-3.57.07-5.81v-12.95c-1.214 1.727-2.754 3.22-4.62 4.48-1.82 1.26-3.99 1.89-6.51 1.89-2.194 0-4.247-.56-6.16-1.68-1.867-1.167-3.384-2.847-4.55-5.04-1.12-2.193-1.68-4.853-1.68-7.98 0-2.987.513-5.6 1.54-7.84 1.073-2.287 2.473-4.2 4.2-5.74 1.773-1.54 3.71-2.683 5.81-3.43 2.146-.793 4.293-1.19 6.44-1.19 1.54 0 2.916.117 4.13.35 1.213.233 2.286.537 3.22.91l3.78-.91v38.99c0 1.307.186 2.147.56 2.52.373.42.91.63 1.61.63.513 0 1.026-.07 1.54-.21.513-.14 1.026-.303 1.54-.49zm-19.81-13.09c1.633 0 3.196-.42 4.69-1.26a21.138 21.138 0 004.27-3.08v-18.34c-1.12-1.213-2.38-1.983-3.78-2.31-1.354-.373-2.544-.56-3.57-.56-2.987 0-5.484 1.027-7.49 3.08-1.96 2.007-2.94 5.203-2.94 9.59 0 4.013.816 7.163 2.45 9.45 1.633 2.287 3.756 3.43 6.37 3.43zm58.509-2.24l.7 1.61-11.34 5.25-.42-.42c.094-.42.187-1.237.28-2.45.14-1.26.21-2.59.21-3.99h-.14c-1.82 1.867-3.71 3.407-5.67 4.62-1.913 1.213-4.083 1.82-6.51 1.82-2.94 0-4.993-.747-6.16-2.24-1.12-1.493-1.68-3.43-1.68-5.81v-16.1c0-1.213-.21-2.007-.63-2.38-.373-.373-.886-.56-1.54-.56-.933 0-1.936.233-3.01.7l-.7-1.61 11.34-5.25.42.42c-.046.373-.116 1.377-.21 3.01-.046 1.587-.07 3.453-.07 5.6v14.42c0 1.633.327 2.917.98 3.85.7.933 1.937 1.4 3.71 1.4 1.494 0 3.034-.303 4.62-.91 1.634-.653 3.314-1.68 5.04-3.08V417.9c0-1.213-.186-2.007-.56-2.38-.373-.373-.91-.56-1.61-.56-.606 0-1.236.117-1.89.35a12.75 12.75 0 00-1.75.63l-.7-1.61 11.97-5.53.42.42c-.046.373-.116 1.377-.21 3.01-.046 1.587-.07 3.453-.07 5.6v15.33c0 1.307.187 2.147.56 2.52.42.373.957.56 1.61.56a7.57 7.57 0 003.01-.63zm15.077-1.68c0 1.633.163 2.823.49 3.57.327.747.91 1.237 1.75 1.47.887.233 2.123.373 3.71.42V441h-15.75v-1.61c1.027-.047 1.843-.187 2.45-.42.607-.233 1.05-.723 1.33-1.47s.42-1.937.42-3.57v-15.82c0-1.307-.21-2.147-.63-2.52-.373-.42-.887-.63-1.54-.63-.607 0-1.26.117-1.96.35-.653.187-1.26.397-1.82.63l-.7-1.61 12.11-5.53.42.42c-.047.373-.117 1.377-.21 3.01-.047 1.633-.07 3.57-.07 5.81v15.89zm-2.8-31.71c-1.027 0-1.89-.35-2.59-1.05-.7-.7-1.05-1.563-1.05-2.59 0-.98.35-1.82 1.05-2.52.7-.7 1.563-1.05 2.59-1.05s1.89.35 2.59 1.05c.7.7 1.05 1.54 1.05 2.52 0 1.027-.35 1.89-1.05 2.59-.7.7-1.563 1.05-2.59 1.05zm47.528 33.39l.7 1.61-11.41 5.25-.42-.42c.093-.42.187-1.237.28-2.45.14-1.26.21-2.59.21-3.99h-.07c-1.213 1.727-2.753 3.243-4.62 4.55-1.82 1.26-4.013 1.89-6.58 1.89a11.99 11.99 0 01-6.16-1.68c-1.867-1.167-3.383-2.847-4.55-5.04-1.12-2.193-1.68-4.853-1.68-7.98 0-2.987.513-5.6 1.54-7.84 1.073-2.287 2.473-4.2 4.2-5.74 1.773-1.54 3.71-2.683 5.81-3.43 2.147-.793 4.293-1.19 6.44-1.19 2.147 0 3.99.21 5.53.63v-14.77c0-1.307-.21-2.147-.63-2.52-.373-.373-.887-.56-1.54-.56-.607 0-1.26.093-1.96.28-.653.187-1.26.42-1.82.7l-.7-1.61 12.11-5.6.42.42c-.047.373-.117 1.377-.21 3.01-.047 1.633-.07 3.57-.07 5.81v38.22c0 1.307.187 2.147.56 2.52.42.373.957.56 1.61.56.98 0 1.983-.21 3.01-.63zm-19.74 2.24c1.633 0 3.197-.42 4.69-1.26a21.138 21.138 0 004.27-3.08v-18.34c-1.12-1.213-2.38-1.983-3.78-2.31-1.353-.373-2.543-.56-3.57-.56-2.987 0-5.483 1.027-7.49 3.08-1.96 2.007-2.94 5.203-2.94 9.59 0 4.013.817 7.163 2.45 9.45 1.633 2.287 3.757 3.43 6.37 3.43zm39.162 4.2c-2.38 0-4.667-.56-6.86-1.68-2.147-1.12-3.92-2.8-5.32-5.04-1.354-2.287-2.03-5.18-2.03-8.68 0-3.547.7-6.627 2.1-9.24 1.4-2.613 3.266-4.643 5.6-6.09 2.333-1.447 4.876-2.17 7.63-2.17 2.006 0 3.85.397 5.53 1.19 1.726.793 3.103 2.007 4.13 3.64 1.073 1.633 1.61 3.71 1.61 6.23l-21 2.73v.77c0 4.293.98 7.653 2.94 10.08 1.96 2.427 4.573 3.64 7.84 3.64 1.866 0 3.593-.373 5.18-1.12a18.266 18.266 0 004.27-2.94l1.12 1.12a15.894 15.894 0 01-5.25 5.46c-2.147 1.4-4.644 2.1-7.49 2.1zm-.35-30.31c-2.427 0-4.294.863-5.6 2.59-1.307 1.727-2.124 3.85-2.45 6.37l14.49-1.89c-.28-2.007-.887-3.687-1.82-5.04-.934-1.353-2.474-2.03-4.62-2.03zM41.462 525.7a37.326 37.326 0 00-.98-3.15c-.28-.887-.677-1.913-1.19-3.08l-7.84-18.41c-.654-1.587-1.26-2.73-1.82-3.43-.514-.7-1.074-1.167-1.68-1.4-.56-.233-1.26-.373-2.1-.42v-1.61h14.77v1.61c-1.587.047-2.707.21-3.36.49-.654.233-.934.723-.84 1.47.093.7.443 1.797 1.05 3.29l6.79 16.1h.14l6.65-16.1c.933-2.193 1.096-3.593.49-4.2-.56-.607-2.077-.957-4.55-1.05v-1.61h12.39v1.61c-.7.047-1.33.21-1.89.49-.56.233-1.097.723-1.61 1.47-.467.7-1.027 1.797-1.68 3.29l-7.77 18.41c-.514 1.26-.887 2.31-1.12 3.15-.234.84-.49 1.867-.77 3.08h-3.08zm28.62.35c-2.193 0-3.99-.56-5.39-1.68-1.353-1.167-2.03-2.823-2.03-4.97 0-1.727.537-3.313 1.61-4.76 1.074-1.447 2.847-2.777 5.32-3.99 2.474-1.213 5.834-2.333 10.08-3.36v-4.55c0-1.913-.42-3.5-1.26-4.76-.793-1.26-2.333-1.89-4.62-1.89-2.193 0-3.943.7-5.25 2.1-1.26 1.353-2.146 3.477-2.66 6.37h-1.61v-8.75a27.44 27.44 0 015.18-1.89c1.867-.513 3.92-.77 6.16-.77 2.567 0 4.527.35 5.88 1.05 1.4.653 2.38 1.587 2.94 2.8.56 1.213.84 2.637.84 4.27v16.94c0 2.473.77 3.71 2.31 3.71.56 0 1.19-.187 1.89-.56.747-.373 1.61-1.143 2.59-2.31l1.12 1.12c-2.146 3.687-4.713 5.53-7.7 5.53-3.08 0-4.97-1.563-5.67-4.69h-.14c-2.566 3.36-5.763 5.04-9.59 5.04zm2.59-4.13c2.24 0 4.574-1.027 7-3.08v-9.38c-3.36.84-5.833 1.773-7.42 2.8-1.586.98-2.636 1.983-3.15 3.01-.466.98-.7 1.89-.7 2.73 0 1.353.42 2.357 1.26 3.01.84.607 1.844.91 3.01.91zm33.283-3.99c0 1.633.164 2.823.49 3.57.327.747.91 1.237 1.75 1.47.887.233 2.124.373 3.71.42V525h-15.75v-1.61c1.027-.047 1.844-.187 2.45-.42.607-.233 1.05-.723 1.33-1.47s.42-1.937.42-3.57v-15.82c0-1.307-.21-2.147-.63-2.52-.373-.42-.886-.63-1.54-.63-.606 0-1.26.117-1.96.35-.653.187-1.26.397-1.82.63l-.7-1.61 12.11-5.53.42.42c-.046.373-.116 1.377-.21 3.01-.046 1.633-.07 3.57-.07 5.81v15.89zm-2.8-31.71c-1.026 0-1.89-.35-2.59-1.05-.7-.7-1.05-1.563-1.05-2.59 0-.98.35-1.82 1.05-2.52.7-.7 1.564-1.05 2.59-1.05 1.027 0 1.89.35 2.59 1.05.7.7 1.05 1.54 1.05 2.52 0 1.027-.35 1.89-1.05 2.59-.7.7-1.563 1.05-2.59 1.05zm23.378 39.83c-3.313 0-5.857-.63-7.63-1.89-1.773-1.26-2.66-2.87-2.66-4.83 0-.7.14-1.47.42-2.31.28-.887.77-1.75 1.47-2.59h1.61c.047 2.987.677 5.273 1.89 6.86 1.213 1.587 3.127 2.38 5.74 2.38 2.333 0 4.06-.56 5.18-1.68 1.12-1.12 1.68-2.403 1.68-3.85 0-1.307-.42-2.38-1.26-3.22-.793-.84-1.843-1.563-3.15-2.17a40.905 40.905 0 00-4.06-1.82 48.379 48.379 0 01-4.13-1.96c-1.26-.747-2.31-1.657-3.15-2.73-.793-1.073-1.19-2.427-1.19-4.06 0-2.567 1.027-4.713 3.08-6.44 2.053-1.727 4.923-2.59 8.61-2.59 1.447 0 2.917.14 4.41.42 1.493.233 2.893.723 4.2 1.47v8.05h-1.61c-.327-2.753-1.213-4.69-2.66-5.81-1.447-1.167-3.15-1.75-5.11-1.75-1.913 0-3.36.42-4.34 1.26-.98.84-1.47 1.937-1.47 3.29 0 1.26.397 2.31 1.19 3.15.84.793 1.89 1.493 3.15 2.1 1.307.607 2.66 1.213 4.06 1.82a23.57 23.57 0 014.06 2.03c1.307.747 2.357 1.703 3.15 2.87.84 1.12 1.26 2.543 1.26 4.27 0 3.127-1.213 5.53-3.64 7.21-2.427 1.68-5.46 2.52-9.1 2.52zm28.779 0c-3.313 0-5.856-.63-7.63-1.89-1.773-1.26-2.66-2.87-2.66-4.83 0-.7.14-1.47.42-2.31.28-.887.77-1.75 1.47-2.59h1.61c.047 2.987.677 5.273 1.89 6.86 1.214 1.587 3.127 2.38 5.74 2.38 2.334 0 4.06-.56 5.18-1.68 1.12-1.12 1.68-2.403 1.68-3.85 0-1.307-.42-2.38-1.26-3.22-.793-.84-1.843-1.563-3.15-2.17a40.905 40.905 0 00-4.06-1.82 48.524 48.524 0 01-4.13-1.96c-1.26-.747-2.31-1.657-3.15-2.73-.793-1.073-1.19-2.427-1.19-4.06 0-2.567 1.027-4.713 3.08-6.44 2.054-1.727 4.924-2.59 8.61-2.59 1.447 0 2.917.14 4.41.42 1.494.233 2.894.723 4.2 1.47v8.05h-1.61c-.326-2.753-1.213-4.69-2.66-5.81-1.446-1.167-3.15-1.75-5.11-1.75-1.913 0-3.36.42-4.34 1.26-.98.84-1.47 1.937-1.47 3.29 0 1.26.397 2.31 1.19 3.15.84.793 1.89 1.493 3.15 2.1 1.307.607 2.66 1.213 4.06 1.82a23.57 23.57 0 014.06 2.03c1.307.747 2.357 1.703 3.15 2.87.84 1.12 1.26 2.543 1.26 4.27 0 3.127-1.213 5.53-3.64 7.21-2.426 1.68-5.46 2.52-9.1 2.52zm32.84 0c-2.38 0-4.667-.56-6.86-1.68-2.147-1.12-3.92-2.8-5.32-5.04-1.354-2.287-2.03-5.18-2.03-8.68 0-3.547.7-6.627 2.1-9.24 1.4-2.613 3.266-4.643 5.6-6.09 2.333-1.447 4.876-2.17 7.63-2.17 2.006 0 3.85.397 5.53 1.19 1.726.793 3.103 2.007 4.13 3.64 1.073 1.633 1.61 3.71 1.61 6.23l-21 2.73v.77c0 4.293.98 7.653 2.94 10.08 1.96 2.427 4.573 3.64 7.84 3.64 1.866 0 3.593-.373 5.18-1.12a18.266 18.266 0 004.27-2.94l1.12 1.12a15.894 15.894 0 01-5.25 5.46c-2.147 1.4-4.644 2.1-7.49 2.1zm-.35-30.31c-2.427 0-4.294.863-5.6 2.59-1.307 1.727-2.124 3.85-2.45 6.37l14.49-1.89c-.28-2.007-.887-3.687-1.82-5.04-.934-1.353-2.474-2.03-4.62-2.03zm28.064 22.19c0 1.633.163 2.823.49 3.57.326.747.91 1.237 1.75 1.47.886.233 2.123.373 3.71.42V525h-15.75v-1.61c1.026-.047 1.843-.187 2.45-.42.606-.233 1.05-.723 1.33-1.47s.42-1.937.42-3.57v-38.92c0-1.307-.21-2.147-.63-2.52-.374-.373-.887-.56-1.54-.56-.607 0-1.26.093-1.96.28-.654.187-1.26.42-1.82.7l-.7-1.61 12.11-5.6.42.42c-.047.373-.117 1.377-.21 3.01-.047 1.633-.07 3.57-.07 5.81v38.99zm20.029 0c0 1.633.163 2.823.49 3.57.327.747.91 1.237 1.75 1.47.887.233 2.123.373 3.71.42V525h-15.75v-1.61c1.027-.047 1.843-.187 2.45-.42.607-.233 1.05-.723 1.33-1.47s.42-1.937.42-3.57v-38.92c0-1.307-.21-2.147-.63-2.52-.373-.373-.887-.56-1.54-.56-.607 0-1.26.093-1.96.28-.653.187-1.26.42-1.82.7l-.7-1.61 12.11-5.6.42.42c-.047.373-.117 1.377-.21 3.01-.047 1.633-.07 3.57-.07 5.81v38.99zm24.649 8.12c-2.38 0-4.666-.56-6.86-1.68-2.146-1.12-3.92-2.8-5.32-5.04-1.353-2.287-2.03-5.18-2.03-8.68 0-3.547.7-6.627 2.1-9.24 1.4-2.613 3.267-4.643 5.6-6.09a14.206 14.206 0 017.63-2.17c2.007 0 3.85.397 5.53 1.19 1.727.793 3.104 2.007 4.13 3.64 1.074 1.633 1.61 3.71 1.61 6.23l-21 2.73v.77c0 4.293.98 7.653 2.94 10.08 1.96 2.427 4.574 3.64 7.84 3.64 1.867 0 3.594-.373 5.18-1.12a18.245 18.245 0 004.27-2.94l1.12 1.12a15.876 15.876 0 01-5.25 5.46c-2.146 1.4-4.643 2.1-7.49 2.1zm-.35-30.31c-2.426 0-4.293.863-5.6 2.59-1.306 1.727-2.123 3.85-2.45 6.37l14.49-1.89c-.28-2.007-.886-3.687-1.82-5.04-.933-1.353-2.473-2.03-4.62-2.03z" fill="#000"/></svg>