<svg width="270" height="645" fill="none" xmlns="http://www.w3.org/2000/svg"><path d="M96 45.5c-2.4 10.4-9 58-12 80.5h103c-4.5-21-13.5-66.5-13.5-80.5v-38C167.167 5 151 0 137 0s-33.167 5-41 7.5c1 8.333 2.4 27.6 0 38z" fill="#195FE0"/><path fill-rule="evenodd" clip-rule="evenodd" d="M37.5 639c-16.667-58.5-46.8-202.5-34-310.5 12.8-108 58-182.667 79-206.5H187c26.333 47.167 79.6 157.1 82 219.5 2.4 62.4-25.333 224.333-39.5 297.5-27.333 4.333-104 10.4-192 0zm161-293c-4-21-7.3-63.3 11.5-64.5 18.8-1.2 25.5 42.5 26.5 64.5 3.167 17.667 5.9 53-8.5 53s-25.666-35.333-29.5-53z" fill="#D9D9E5"/><path d="M247.5 504.5c4.236-29.195 0-61.5-25.5-83.5-10.395-8.969-19.5-14.5-34-70.5-10.5-40.552 18.223-104.828-10.5-111.5-49.5-11.5-99 44-131.5 101-26 45.6-30.166 109-29 135 0 88 77.401 126 123 126 26.5 0 93.5 0 107.5-96.5z" fill="#FCF9F4"/><path d="M35.343 446.5c.36 1.05.705 1.815 1.035 2.295.33.45.72.75 1.17.9.48.12 1.11.21 1.89.27V451H28.683v-1.035c1.02-.06 1.77-.165 2.25-.315.51-.15.795-.465.855-.945.06-.48-.09-1.215-.45-2.205l-2.565-7.74c-.15.15-.375.255-.675.315-.3.03-.615.045-.945.045h-5.895c-.66 0-1.155.075-1.485.225-.33.15-.615.555-.855 1.215l-2.115 5.94c-.39 1.14-.39 1.995 0 2.565.42.54 1.59.84 3.51.9V451h-9.315v-1.035c.96-.06 1.71-.36 2.25-.9.57-.57 1.065-1.425 1.485-2.565l7.965-21.87c.3-.78.585-1.545.855-2.295s.51-1.515.72-2.295h2.205c.21.78.435 1.545.675 2.295.27.75.555 1.515.855 2.295l7.335 21.87zm-8.1-9c.39 0 .66-.045.81-.135.15-.12.15-.36 0-.72l-3.69-10.935h-.09l-4.32 11.925c.15-.06.33-.09.54-.09.21-.03.45-.045.72-.045h6.03zm35.47 10.035l.45 1.035-7.334 3.375-.27-.27c.06-.27.12-.795.18-1.575.09-.81.135-1.665.135-2.565h-.045c-.78 1.11-1.77 2.085-2.97 2.925-1.17.81-2.58 1.215-4.23 1.215-1.41 0-2.73-.36-3.96-1.08-1.2-.75-2.175-1.83-2.925-3.24-.72-1.41-1.08-3.12-1.08-5.13 0-1.92.33-3.6.99-5.04.69-1.47 1.59-2.7 2.7-3.69a11.586 11.586 0 013.735-2.205c1.38-.51 2.76-.765 4.14-.765s2.565.135 3.555.405v-9.495c0-.84-.135-1.38-.405-1.62-.24-.24-.57-.36-.99-.36-.39 0-.81.06-1.26.18-.42.12-.81.27-1.17.45l-.45-1.035 7.785-3.6.27.27c-.03.24-.075.885-.135 1.935-.03 1.05-.045 2.295-.045 3.735v24.57c0 .84.12 1.38.36 1.62.27.24.615.36 1.035.36.63 0 1.275-.135 1.935-.405zm-12.69 1.44c1.05 0 2.056-.27 3.016-.81.99-.54 1.905-1.2 2.745-1.98v-11.79c-.72-.78-1.53-1.275-2.43-1.485-.87-.24-1.635-.36-2.295-.36-1.92 0-3.525.66-4.815 1.98-1.26 1.29-1.89 3.345-1.89 6.165 0 2.58.525 4.605 1.575 6.075 1.05 1.47 2.415 2.205 4.095 2.205zm26.301-18.45c1.74 0 3.33.435 4.77 1.305 1.47.84 2.655 2.025 3.555 3.555.9 1.53 1.35 3.315 1.35 5.355 0 1.8-.315 3.39-.945 4.77-.6 1.35-1.41 2.49-2.43 3.42-1.02.9-2.145 1.59-3.375 2.07-1.2.45-2.385.675-3.555.675-1.71 0-3.3-.42-4.77-1.26-1.47-.87-2.655-2.07-3.555-3.6-.87-1.53-1.305-3.315-1.305-5.355 0-1.8.3-3.375.9-4.725.63-1.38 1.455-2.52 2.475-3.42 1.02-.93 2.13-1.62 3.33-2.07 1.2-.48 2.385-.72 3.555-.72zm.135 19.35c1.77 0 3.165-.63 4.185-1.89 1.02-1.29 1.53-3.27 1.53-5.94 0-1.83-.285-3.48-.855-4.95-.54-1.47-1.305-2.625-2.295-3.465a5.086 5.086 0 00-3.465-1.305c-1.74 0-3.12.645-4.14 1.935-1.02 1.26-1.53 3.225-1.53 5.895 0 1.8.27 3.435.81 4.905.57 1.47 1.35 2.64 2.34 3.51.99.87 2.13 1.305 3.42 1.305zm36.007-2.34l.45 1.035-7.29 3.375-.27-.27c.06-.27.12-.795.18-1.575.09-.81.135-1.665.135-2.565h-.09c-1.17 1.2-2.385 2.19-3.645 2.97-1.23.78-2.625 1.17-4.185 1.17-1.89 0-3.21-.48-3.96-1.44-.72-.96-1.08-2.205-1.08-3.735v-10.35c0-.78-.135-1.29-.405-1.53-.24-.24-.57-.36-.99-.36-.6 0-1.245.15-1.935.45l-.45-1.035 7.29-3.375.27.27c-.03.24-.075.885-.135 1.935-.03 1.02-.045 2.22-.045 3.6v9.27c0 1.05.21 1.875.63 2.475.45.6 1.245.9 2.385.9.96 0 1.95-.195 2.97-.585 1.05-.42 2.13-1.08 3.24-1.98V436.15c0-.78-.12-1.29-.36-1.53s-.585-.36-1.035-.36c-.39 0-.795.075-1.215.225a8.11 8.11 0 00-1.125.405l-.45-1.035 7.695-3.555.27.27c-.03.24-.075.885-.135 1.935-.03 1.02-.045 2.22-.045 3.6v9.855c0 .84.12 1.38.36 1.62.27.24.615.36 1.035.36.66 0 1.305-.135 1.935-.405zm12.347 4.14c-1.56 0-3.045-.36-4.455-1.08-1.38-.75-2.505-1.86-3.375-3.33-.87-1.5-1.305-3.36-1.305-5.58 0-2.37.495-4.38 1.485-6.03 1.02-1.68 2.355-2.955 4.005-3.825a11.127 11.127 0 015.265-1.305c.93 0 1.935.12 3.015.36 1.11.24 2.1.66 2.97 1.26v5.895h-1.035c-.15-1.56-.54-2.76-1.17-3.6-.63-.84-1.365-1.425-2.205-1.755a6.398 6.398 0 00-2.43-.495c-1.98 0-3.51.75-4.59 2.25-1.08 1.47-1.62 3.315-1.62 5.535 0 1.77.3 3.315.9 4.635.63 1.29 1.485 2.295 2.565 3.015 1.08.72 2.295 1.08 3.645 1.08 1.05 0 2.085-.225 3.105-.675a10.118 10.118 0 002.835-1.935l.72.72c-.84 1.41-1.98 2.58-3.42 3.51-1.44.9-3.075 1.35-4.905 1.35zm18.527-5.22c0 1.05.105 1.815.315 2.295.21.48.585.795 1.125.945.57.15 1.365.24 2.385.27V451H137.04v-1.035c.66-.03 1.185-.12 1.575-.27.39-.15.675-.465.855-.945.18-.48.27-1.245.27-2.295v-10.17c0-.84-.135-1.38-.405-1.62-.24-.27-.57-.405-.99-.405-.39 0-.81.075-1.26.225-.42.12-.81.255-1.17.405l-.45-1.035 7.785-3.555.27.27c-.03.24-.075.885-.135 1.935-.03 1.05-.045 2.295-.045 3.735v10.215zm-1.8-20.385c-.66 0-1.215-.225-1.665-.675-.45-.45-.675-1.005-.675-1.665 0-.63.225-1.17.675-1.62.45-.45 1.005-.675 1.665-.675.66 0 1.215.225 1.665.675.45.45.675.99.675 1.62 0 .66-.225 1.215-.675 1.665-.45.45-1.005.675-1.665.675zm15.029 25.605c-2.13 0-3.765-.405-4.905-1.215-1.14-.81-1.71-1.845-1.71-3.105 0-.45.09-.945.27-1.485.18-.57.495-1.125.945-1.665h1.035c.03 1.92.435 3.39 1.215 4.41s2.01 1.53 3.69 1.53c1.5 0 2.61-.36 3.33-1.08.72-.72 1.08-1.545 1.08-2.475 0-.84-.27-1.53-.81-2.07-.51-.54-1.185-1.005-2.025-1.395-.81-.42-1.68-.81-2.61-1.17-.93-.39-1.815-.81-2.655-1.26a7.194 7.194 0 01-2.025-1.755c-.51-.69-.765-1.56-.765-2.61 0-1.65.66-3.03 1.98-4.14 1.32-1.11 3.165-1.665 5.535-1.665.93 0 1.875.09 2.835.27.96.15 1.86.465 2.7.945v5.175h-1.035c-.21-1.77-.78-3.015-1.71-3.735-.93-.75-2.025-1.125-3.285-1.125-1.23 0-2.16.27-2.79.81-.63.54-.945 1.245-.945 2.115 0 .81.255 1.485.765 2.025.54.51 1.215.96 2.025 1.35.84.39 1.71.78 2.61 1.17.93.36 1.8.795 2.61 1.305a6.008 6.008 0 012.025 1.845c.54.72.81 1.635.81 2.745 0 2.01-.78 3.555-2.34 4.635-1.56 1.08-3.51 1.62-5.85 1.62zm18.501 0c-2.13 0-3.765-.405-4.905-1.215-1.14-.81-1.71-1.845-1.71-3.105 0-.45.09-.945.27-1.485.18-.57.495-1.125.945-1.665h1.035c.03 1.92.435 3.39 1.215 4.41s2.01 1.53 3.69 1.53c1.5 0 2.61-.36 3.33-1.08.72-.72 1.08-1.545 1.08-2.475 0-.84-.27-1.53-.81-2.07-.51-.54-1.185-1.005-2.025-1.395-.81-.42-1.68-.81-2.61-1.17-.93-.39-1.815-.81-2.655-1.26a7.194 7.194 0 01-2.025-1.755c-.51-.69-.765-1.56-.765-2.61 0-1.65.66-3.03 1.98-4.14 1.32-1.11 3.165-1.665 5.535-1.665.93 0 1.875.09 2.835.27.96.15 1.86.465 2.7.945v5.175h-1.035c-.21-1.77-.78-3.015-1.71-3.735-.93-.75-2.025-1.125-3.285-1.125-1.23 0-2.16.27-2.79.81-.63.54-.945 1.245-.945 2.115 0 .81.255 1.485.765 2.025.54.51 1.215.96 2.025 1.35.84.39 1.71.78 2.61 1.17.93.36 1.8.795 2.61 1.305a6.008 6.008 0 012.025 1.845c.54.72.81 1.635.81 2.745 0 2.01-.78 3.555-2.34 4.635-1.56 1.08-3.51 1.62-5.85 1.62zm17.016 0c-1.41 0-2.565-.36-3.465-1.08-.87-.75-1.305-1.815-1.305-3.195 0-1.11.345-2.13 1.035-3.06.69-.93 1.83-1.785 3.42-2.565 1.59-.78 3.75-1.5 6.48-2.16v-2.925c0-1.23-.27-2.25-.81-3.06-.51-.81-1.5-1.215-2.97-1.215-1.41 0-2.535.45-3.375 1.35-.81.87-1.38 2.235-1.71 4.095h-1.035v-5.625c1.05-.51 2.16-.915 3.33-1.215 1.2-.33 2.52-.495 3.96-.495 1.65 0 2.91.225 3.78.675.9.42 1.53 1.02 1.89 1.8.36.78.54 1.695.54 2.745v10.89c0 1.59.495 2.385 1.485 2.385.36 0 .765-.12 1.215-.36.48-.24 1.035-.735 1.665-1.485l.72.72c-1.38 2.37-3.03 3.555-4.95 3.555-1.98 0-3.195-1.005-3.645-3.015h-.09c-1.65 2.16-3.705 3.24-6.165 3.24zm1.665-2.655c1.44 0 2.94-.66 4.5-1.98v-6.03c-2.16.54-3.75 1.14-4.77 1.8-1.02.63-1.695 1.275-2.025 1.935-.3.63-.45 1.215-.45 1.755 0 .87.27 1.515.81 1.935.54.39 1.185.585 1.935.585zm34.491-2.565c0 1.05.09 1.815.27 2.295.21.48.585.795 1.125.945.57.15 1.38.24 2.43.27V451h-10.125v-1.035c.66-.03 1.185-.12 1.575-.27.39-.15.675-.465.855-.945.18-.48.27-1.245.27-2.295v-9.675c0-1.05-.24-1.875-.72-2.475-.45-.6-1.245-.9-2.385-.9-.99 0-2.025.21-3.105.63-1.08.42-2.19 1.08-3.33 1.98v10.44c0 1.05.09 1.815.27 2.295.21.48.585.795 1.125.945.57.15 1.38.24 2.43.27V451h-10.125v-1.035c.69-.03 1.23-.12 1.62-.27.39-.15.66-.465.81-.945.18-.48.27-1.245.27-2.295V436.24c0-.81-.12-1.335-.36-1.575-.24-.27-.57-.405-.99-.405-.33 0-.66.045-.99.135-.3.06-.615.165-.945.315l-.45-1.035 7.245-3.375.27.27c-.06.27-.135.795-.225 1.575-.06.78-.09 1.605-.09 2.475h.09c1.14-1.2 2.37-2.175 3.69-2.925a8.579 8.579 0 014.365-1.17c1.92 0 3.255.48 4.005 1.44.75.93 1.125 2.175 1.125 3.735v10.755zm18.992.63l.72.72a12.145 12.145 0 01-2.475 2.745c-.93.75-2.145 1.125-3.645 1.125-1.2 0-2.16-.24-2.88-.72a4.006 4.006 0 01-1.485-1.89c-.3-.81-.45-1.68-.45-2.61v-13.41h-3.105V431.2h3.105v-6.165l3.825-.675c-.09 1.14-.15 2.28-.18 3.42a130 130 0 00-.045 3.42h6.66v1.845h-5.265c-.51 0-.87.105-1.08.315-.21.21-.315.57-.315 1.08v11.07c0 .96.165 1.785.495 2.475.36.69 1.08 1.035 2.16 1.035.63 0 1.275-.15 1.935-.45.66-.33 1.335-.825 2.025-1.485z" fill="#000"/></svg>