<svg width="327" height="704" fill="none" xmlns="http://www.w3.org/2000/svg"><path d="M38.242 6.534h39v30h-39v-30z" fill="#9F0108"/><path d="M34.242 11.534h9v20h-9v-20z" fill="#9F0108"/><path d="M208.742 84.534c-9.2 6.4-10.833 13.666-10.5 16.5h-72c-3.166-11.667-11.1-36.9-17.5-44.5-8-9.5-15.5-7-34-9.5-14.8-2-15.833-29.834-14.5-43.5 38-2.667 118.8-6.4 138 0 24 8 62 49.5 57.5 62.5s-35.5 10.5-47 18.5z" fill="#C7C9C8"/><path d="M270.742 264.534c-16-34-56-87.834-74-110.5h-61c-8.166 1.666-27.153 5.094-30.5 11-8.5 15 10.5 17.5 10.5 30.5s-10.5 5.5-10.5 16.5 16.5 20 10.5 28-10.5 13-10.5 24.5 16.5 12 16.5 31-80 51.5-89.5 61-28 108-31.5 157.5 5.5 138.5 24.5 167 223.5 27 265.5 10.5 33-81 35.5-151.5-35.5-176.5-35.5-183.5 9.5-9.5 12-15.5-12-34-32-76.5z" fill="#0CABE9"/><path d="M227.242 303.534c-11.2-5.6-116 50.333-167 79-14.5 31-27 111.5-29 146.5s1 116.5 15 134 208 13 226 0 20-107 15-169-46-183.5-60-190.5z" fill="#0597D6"/><path d="M119.242 103.534v53h83.5v-53c-5.166-2.667-24-8-38-8s-34.5 5.333-45.5 8zm-79 2.5c8.5-24.5 20.167-48.5 25-64.5l23.5 7c-7.833 10.166-16.5 28-23.5 41-4.978 9.245-45 66-47 60s15.59-25.023 22-43.5z" fill="#9F0108"/><path d="M85.928 535.64a61.802 61.802 0 00-.88-3.44c-.213-.96-.586-2.133-1.12-3.52l-14.4-38.88c-.64-1.867-1.253-3.2-1.84-4-.586-.853-1.253-1.413-2-1.68-.746-.267-1.733-.427-2.96-.48v-1.84h18.32l-.08 1.84c-1.76.053-3.04.24-3.84.56-.746.267-1.12.827-1.12 1.68s.32 2.16.96 3.92l12.72 34.96h.16l12.96-34.96c.747-2.027.747-3.52 0-4.48-.693-1.013-2.693-1.573-6-1.68v-1.84h16.48v1.84c-2.986.213-5.173 2.267-6.56 6.16l-14.4 38.88c-.533 1.44-.96 2.613-1.28 3.52a61.89 61.89 0 00-.88 3.44h-4.24zm39.03-8.72c0 1.867.186 3.227.56 4.08.373.853 1.04 1.413 2 1.68 1.013.267 2.426.427 4.24.48V535h-18v-1.84c1.173-.053 2.106-.213 2.8-.48.693-.267 1.2-.827 1.52-1.68.32-.853.48-2.213.48-4.08v-18.08c0-1.493-.24-2.453-.72-2.88-.427-.48-1.014-.72-1.76-.72-.694 0-1.44.133-2.24.4-.747.213-1.44.453-2.08.72l-.8-1.84 13.84-6.32.48.48c-.054.427-.134 1.573-.24 3.44-.054 1.867-.08 4.08-.08 6.64v18.16zm-3.2-36.24c-1.174 0-2.16-.4-2.96-1.2-.8-.8-1.2-1.787-1.2-2.96 0-1.12.4-2.08 1.2-2.88.8-.8 1.786-1.2 2.96-1.2 1.173 0 2.16.4 2.96 1.2.8.8 1.2 1.76 1.2 2.88 0 1.173-.4 2.16-1.2 2.96-.8.8-1.787 1.2-2.96 1.2zm37.197 37.36l1.28 1.28c-1.28 1.92-2.746 3.547-4.4 4.88-1.653 1.333-3.813 2-6.48 2-2.133 0-3.84-.427-5.12-1.28a7.127 7.127 0 01-2.64-3.36c-.533-1.44-.8-2.987-.8-4.64v-23.84h-5.52v-3.28h5.52v-10.96l6.8-1.2a116.75 116.75 0 00-.32 6.08c-.053 2.027-.08 4.053-.08 6.08h11.84v3.28h-9.36c-.906 0-1.546.187-1.92.56-.373.373-.56 1.013-.56 1.92v19.68c0 1.707.294 3.173.88 4.4.64 1.227 1.92 1.84 3.84 1.84 1.12 0 2.267-.267 3.44-.8 1.174-.587 2.374-1.467 3.6-2.64zm7.223 6.96v-1.84c1.226-.053 2.186-.213 2.88-.48.693-.267 1.173-.827 1.44-1.68.32-.853.48-2.213.48-4.08V508.6c0-1.387-.214-2.293-.64-2.72-.427-.427-1.014-.64-1.76-.64-.587 0-1.174.08-1.76.24a7.735 7.735 0 00-1.68.56l-.8-1.84 12.88-6 .48.48c-.107.48-.24 1.52-.4 3.12a74.656 74.656 0 00-.16 5.12h.16c2.186-3.253 4.586-5.44 7.2-6.56a17.801 17.801 0 018.32-1.36 55.005 55.005 0 010 11.84h-1.84c-.214-2.187-.72-3.707-1.52-4.56-.747-.907-1.814-1.36-3.2-1.36-1.76 0-3.334.373-4.72 1.12-1.387.747-2.774 1.973-4.16 3.68v17.2c0 1.867.186 3.227.56 4.08.373.853 1.093 1.413 2.16 1.68 1.12.267 2.746.427 4.88.48V535h-18.8zm47.25 1.2c-2.72 0-5.334-.64-7.84-1.92-2.454-1.28-4.48-3.2-6.08-5.76-1.547-2.613-2.32-5.92-2.32-9.92 0-4.053.8-7.573 2.4-10.56 1.6-2.987 3.733-5.307 6.4-6.96 2.666-1.653 5.573-2.48 8.72-2.48 2.293 0 4.4.453 6.32 1.36 1.973.907 3.546 2.293 4.72 4.16 1.226 1.867 1.84 4.24 1.84 7.12l-24 3.12v.88c0 4.907 1.12 8.747 3.36 11.52 2.24 2.773 5.226 4.16 8.96 4.16 2.133 0 4.106-.427 5.92-1.28a20.91 20.91 0 004.88-3.36l1.28 1.28a18.17 18.17 0 01-6 6.24c-2.454 1.6-5.307 2.4-8.56 2.4zm-.4-34.64c-2.774 0-4.907.987-6.4 2.96-1.494 1.973-2.427 4.4-2.8 7.28l16.56-2.16c-.32-2.293-1.014-4.213-2.08-5.76-1.067-1.547-2.827-2.32-5.28-2.32zm32.713 34.64c-3.787 0-6.693-.72-8.72-2.16-2.027-1.44-3.04-3.28-3.04-5.52 0-.8.16-1.68.48-2.64.32-1.013.88-2 1.68-2.96h1.84c.053 3.413.773 6.027 2.16 7.84 1.387 1.813 3.573 2.72 6.56 2.72 2.667 0 4.64-.64 5.92-1.92 1.28-1.28 1.92-2.747 1.92-4.4 0-1.493-.48-2.72-1.44-3.68-.907-.96-2.107-1.787-3.6-2.48a46.658 46.658 0 00-4.64-2.08 55.075 55.075 0 01-4.72-2.24c-1.44-.853-2.64-1.893-3.6-3.12-.907-1.227-1.36-2.773-1.36-4.64 0-2.933 1.173-5.387 3.52-7.36 2.347-1.973 5.627-2.96 9.84-2.96 1.653 0 3.333.16 5.04.48 1.707.267 3.307.827 4.8 1.68v9.2h-1.84c-.373-3.147-1.387-5.36-3.04-6.64-1.653-1.333-3.6-2-5.84-2-2.187 0-3.84.48-4.96 1.44s-1.68 2.213-1.68 3.76c0 1.44.453 2.64 1.36 3.6.96.907 2.16 1.707 3.6 2.4a196.88 196.88 0 004.64 2.08c1.653.64 3.2 1.413 4.64 2.32 1.493.853 2.693 1.947 3.6 3.28.96 1.28 1.44 2.907 1.44 4.88 0 3.573-1.387 6.32-4.16 8.24s-6.24 2.88-10.4 2.88z" fill="#000"/></svg>