<svg width="228" height="729" fill="none" xmlns="http://www.w3.org/2000/svg"><path d="M215.541 681.225c-1.846 21.536-17.177 40.251-24.612 46.917H8.646c-15.382 0-6.922-527.62 0-538.388 6.923-10.768 17.69-18.459 44.61-29.227 21.535-8.614 50.506-36.405 62.299-49.224l59.992-48.454c5.127 12.562 20.304 47.07 39.994 84.603 24.612 46.917 2.307 506.854 0 533.773z" fill="#D9DBDA"/><path d="M66.103 442.64c-.213-1.387-.426-2.533-.64-3.44-.16-.96-.426-2.133-.8-3.52l-9.76-38.88c-.426-1.867-.88-3.2-1.36-4-.426-.853-.986-1.413-1.68-1.68-.64-.267-1.493-.427-2.56-.48v-1.84h18.72l-.08 1.84c-2.133.053-3.68.24-4.64.56-.96.267-1.493.827-1.6 1.68-.106.853.054 2.16.48 3.92l8.32 32.96h.16l15.04-41.6h4.08c.534 1.493 1.04 2.96 1.52 4.4.48 1.387.987 2.8 1.52 4.24l12.56 32.96h.24l8.56-32.96c1.014-3.893-1.066-5.947-6.24-6.16l.08-1.84h15.28v1.84c-2.453.213-4.213 2.267-5.28 6.16l-10.32 38.88a85.822 85.822 0 00-.88 3.52c-.16.907-.346 2.053-.56 3.44h-4.16c-.266-1.387-.56-2.533-.88-3.44a84.47 84.47 0 00-1.28-3.52l-13.84-37.04h-.16l-13.68 37.04c-.533 1.493-.933 2.693-1.2 3.6-.213.853-.48 1.973-.8 3.36h-4.16zm90.025.56c-3.893 0-7.52-.64-10.88-1.92-3.36-1.333-6.32-3.2-8.88-5.6-2.506-2.453-4.453-5.36-5.84-8.72-1.386-3.36-2.08-7.067-2.08-11.12 0-4.373.8-8.293 2.4-11.76 1.6-3.52 3.787-6.507 6.56-8.96 2.774-2.453 5.974-4.32 9.6-5.6 3.627-1.28 7.467-1.92 11.52-1.92 1.974 0 3.974.133 6 .4 2.08.267 4 .64 5.76 1.12 1.814.427 3.307.907 4.48 1.44v12.64h-1.84c-.213-3.147-1.093-5.6-2.64-7.36-1.546-1.813-3.466-3.093-5.76-3.84a20.77 20.77 0 00-7.04-1.2c-3.786 0-7.306.853-10.56 2.56-3.253 1.707-5.866 4.32-7.84 7.84-1.92 3.467-2.88 7.92-2.88 13.36 0 5.173.907 9.68 2.72 13.52 1.814 3.787 4.214 6.72 7.2 8.8 3.04 2.08 6.4 3.12 10.08 3.12 3.36 0 6.32-.773 8.88-2.32 2.614-1.6 4.747-3.6 6.4-6 1.654-2.4 2.747-4.827 3.28-7.28h1.84l-.48 9.36c-2.026 2.507-4.64 4.72-7.84 6.64-3.2 1.867-7.253 2.8-12.16 2.8z" fill="#000"/><path d="M107.854 0c6.666 3.59 21.843 13.537 29.227 24.612L94.01 46.917c2.46-6.769-5.64-25.382-10-33.842L107.855 0z" fill="#EC1D16"/><path d="M151.165 18.47l32.841 52.07-73.836 43.071-28.457-59.223s19.154-20 33.726-27.959 35.726-7.959 35.726-7.959z" fill="#D41811"/></svg>