<svg width="405" height="446" fill="none" xmlns="http://www.w3.org/2000/svg"><path d="M239.946 52.927C201.797 54.057 64.086 62.337 0 66.335c12.11 13.409 228.592 14.82 262.654 16.231 34.061 1.412 130.191-7.057 138.517-16.23 8.327-9.175-113.539-14.82-161.225-13.409z" fill="#283857"/><path d="M346.502 27.875c6.076-2.95 18.196-2.012 23.496-1.174l13.448 11.263c6.044 5.062 6.383 12.491 5.797 15.573-1.63 10.545-14.678 25.169-30.763 42.723-14.735 16.082-36.565 40.65-46.543 42.234-7.16 2.709-24.008-9.747-25.706-10.87.357-.371-1.924-1.36-7.59-6.105-7.704-6.452-5.543-14.942-1.259-21.906 4.284-6.963 46.389-52.34 49.603-55.677 3.215-3.336 11.922-12.373 19.517-16.061z" fill="#E6E6E6"/><path d="M334.27 17.63c6.076-2.95 18.196-2.011 23.496-1.173l13.448 11.263c6.044 5.061 6.383 12.49 5.797 15.573-1.63 10.544-14.678 25.168-30.763 42.723-14.735 16.082-36.565 40.649-46.543 42.234-7.16 2.708-24.008-9.747-25.706-10.87.357-.371-1.924-1.36-7.59-6.106-7.704-6.452-5.543-14.942-1.259-21.905 4.284-6.963 46.389-52.34 49.603-55.677 3.215-3.337 11.922-12.374 19.517-16.061z" fill="#2D74A9"/><path d="M329.233 13.413c6.076-2.95 18.195-2.012 23.496-1.174l13.448 11.262c6.044 5.062 6.383 12.492 5.797 15.574-1.63 10.544-14.678 25.168-30.763 42.723-14.735 16.081-36.565 40.649-46.543 42.234-7.16 2.708-24.008-9.747-25.706-10.87.357-.371-1.924-1.36-7.59-6.106-7.704-6.452-5.543-14.942-1.259-21.905 4.284-6.963 46.388-52.34 49.603-55.677 3.215-3.337 11.922-12.374 19.517-16.061z" fill="#66A6D6"/><path d="M76.623 74.649C73.503 68.963 63.04 63.183 58.2 61.004l-17.96 1.918c-8.072.862-12.964 6.735-14.401 9.564-5.223 9.475-3.673 28.442-1.468 51.439 2.02 21.066 4.551 52.882 11.7 59.562 4.154 6.074 25.626 5.02 27.708 5.021-.06-.495 2.413-.069 9.98-.877 10.289-1.099 13.802-9.187 14.636-17.176.834-7.99-5.294-67.718-5.842-72.174-.547-4.456-2.03-16.525-5.93-23.632z" fill="#E6E6E6"/><path d="M92.959 72.904c-3.12-5.686-13.582-11.466-18.423-13.645l-17.96 1.918c-8.072.862-12.964 6.735-14.401 9.564-5.223 9.475-3.673 28.442-1.468 51.439 2.02 21.066 4.551 52.882 11.7 59.562 4.154 6.074 25.626 5.02 27.708 5.022-.06-.496 2.413-.07 9.98-.878 10.289-1.099 13.802-9.187 14.636-17.176.834-7.99-5.294-67.718-5.842-72.174-.548-4.456-2.03-16.524-5.93-23.632z" fill="#2D74A9"/><path d="M99.685 72.186c-3.12-5.687-13.582-11.466-18.423-13.646l-17.96 1.919c-8.072.862-12.964 6.735-14.401 9.563-5.223 9.476-3.673 28.443-1.468 51.439 2.02 21.067 4.551 52.883 11.7 59.563 4.154 6.074 25.626 5.02 27.708 5.021-.06-.495 2.413-.069 9.98-.877 10.289-1.099 13.802-9.187 14.636-17.177.834-7.989-5.294-67.717-5.842-72.173-.547-4.456-2.03-16.525-5.93-23.632z" fill="#66A6D6"/><path d="M162.471 94.367c-6.414 2.242-13.764 11.275-16.637 15.511v16.853c0 7.575 5.701 12.775 8.552 14.428 9.503 5.917 29.891 6.639 54.648 7.214 22.679.527 56.871 1.804 64.803-4.058 6.946-3.156 8.266-23.164 8.505-25.093-.535 0 .2-2.242.2-9.344 0-9.655-8.219-13.83-16.637-15.511-8.419-1.683-72.764-2.804-77.575-2.804-4.811 0-17.84 0-25.859 2.803z" fill="#E6E6E6"/><path d="M162.471 79.037c-6.414 2.242-13.764 11.275-16.637 15.511v16.854c0 7.575 5.701 12.775 8.552 14.428 9.503 5.916 29.891 6.639 54.648 7.214 22.679.526 56.871 1.803 64.803-4.058 6.946-3.156 8.266-23.165 8.505-25.093-.535 0 .2-2.243.2-9.345 0-9.655-8.219-13.83-16.637-15.511-8.419-1.682-72.764-2.803-77.575-2.803-4.811 0-17.84 0-25.859 2.803z" fill="#2D74A9"/><path d="M162.471 72.724c-6.414 2.243-13.764 11.276-16.637 15.512v16.853c0 7.575 5.701 12.775 8.552 14.428 9.503 5.916 29.891 6.639 54.648 7.214 22.679.527 56.871 1.804 64.803-4.058 6.946-3.156 8.266-23.165 8.505-25.093-.535 0 .2-2.243.2-9.344 0-9.655-8.219-13.83-16.637-15.512-8.419-1.681-72.764-2.803-77.575-2.803-4.811 0-17.84 0-25.859 2.803z" fill="#66A6D6"/><path d="M405 255.01V64.924S374.12 77.5 229.349 77.5C124.136 77.5 0 64.924 0 64.924c2.975 58.112 8.924 180.092 8.924 203.12v167.275c46.22 4.345 150.33 12.492 197.008 10.319 46.678-2.172 144.839-7.784 188.085-10.319-.686-4.706-1.648-21.615 0-51.594C396.076 346.251 405 291.397 405 255.01z" fill="#49669F"/><path d="M67.326 209.425h29.645v8.58h-1.265c-.073-1.283-.275-2.42-.605-3.41-.33-.99-.953-1.76-1.87-2.31-.916-.587-2.31-.88-4.18-.88h-4.565V240.5c0 1.247.129 2.163.385 2.75.294.587.807.972 1.54 1.155.77.183 1.87.293 3.3.33V246h-13.75v-1.265c.99-.037 1.76-.147 2.31-.33.587-.183.99-.568 1.21-1.155.22-.587.33-1.503.33-2.75v-29.095h-4.62c-1.833 0-3.208.293-4.125.88-.916.55-1.54 1.32-1.87 2.31-.33.99-.531 2.127-.605 3.41h-1.265v-8.58zm36.245 37.4c-1.723 0-3.135-.44-4.235-1.32-1.064-.917-1.595-2.218-1.595-3.905 0-1.357.421-2.603 1.265-3.74.843-1.137 2.237-2.182 4.18-3.135 1.943-.953 4.583-1.833 7.92-2.64v-3.575c0-1.503-.33-2.75-.99-3.74-.623-.99-1.833-1.485-3.63-1.485-1.723 0-3.098.55-4.125 1.65-.99 1.063-1.687 2.732-2.09 5.005h-1.265v-6.875a21.566 21.566 0 014.07-1.485c1.467-.403 3.08-.605 4.84-.605 2.017 0 3.557.275 4.62.825 1.1.513 1.87 1.247 2.31 2.2.44.953.66 2.072.66 3.355v13.31c0 1.943.605 2.915 1.815 2.915.44 0 .935-.147 1.485-.44.587-.293 1.265-.898 2.035-1.815l.88.88c-1.687 2.897-3.703 4.345-6.05 4.345-2.42 0-3.905-1.228-4.455-3.685h-.11c-2.017 2.64-4.528 3.96-7.535 3.96zm2.035-3.245c1.76 0 3.593-.807 5.5-2.42v-7.37c-2.64.66-4.583 1.393-5.83 2.2-1.247.77-2.072 1.558-2.475 2.365-.367.77-.55 1.485-.55 2.145 0 1.063.33 1.852.99 2.365.66.477 1.448.715 2.365.715zm34.236-22.715c1.723 0 3.318.458 4.785 1.375 1.503.88 2.695 2.182 3.575 3.905.916 1.687 1.375 3.777 1.375 6.27 0 2.347-.422 4.418-1.265 6.215-.807 1.76-1.907 3.245-3.3 4.455a14.202 14.202 0 01-4.565 2.75c-1.65.587-3.319.88-5.005.88-1.21 0-2.292-.092-3.245-.275a13.877 13.877 0 01-2.53-.715l-2.97.825v-36.685c0-1.027-.165-1.687-.495-1.98-.294-.293-.697-.44-1.21-.44-.477 0-.99.073-1.54.22-.514.147-.99.33-1.43.55l-.55-1.265 9.515-4.4.33.33c-.037.293-.092 1.082-.165 2.365a161.548 161.548 0 00-.055 4.565v16.06a14.183 14.183 0 013.575-3.52c1.466-.99 3.19-1.485 5.17-1.485zm-2.97 23.375c2.383 0 4.345-.788 5.885-2.365 1.54-1.613 2.31-4.143 2.31-7.59 0-3.153-.642-5.628-1.925-7.425-1.284-1.797-2.952-2.695-5.005-2.695-1.247 0-2.475.33-3.685.99a16.585 16.585 0 00-3.355 2.42v14.41c.88.917 1.851 1.522 2.915 1.815 1.1.293 2.053.44 2.86.44zm25.276-3.795c0 1.283.128 2.218.385 2.805.257.587.715.972 1.375 1.155.697.183 1.668.293 2.915.33V246h-12.375v-1.265c.807-.037 1.448-.147 1.925-.33.477-.183.825-.568 1.045-1.155.22-.587.33-1.522.33-2.805v-30.58c0-1.027-.165-1.687-.495-1.98-.293-.293-.697-.44-1.21-.44-.477 0-.99.073-1.54.22-.513.147-.99.33-1.43.55l-.55-1.265 9.515-4.4.33.33c-.037.293-.092 1.082-.165 2.365a161.548 161.548 0 00-.055 4.565v30.635zm19.367 6.38c-1.87 0-3.666-.44-5.39-1.32-1.686-.88-3.08-2.2-4.18-3.96-1.063-1.797-1.595-4.07-1.595-6.82 0-2.787.55-5.207 1.65-7.26 1.1-2.053 2.567-3.648 4.4-4.785a11.162 11.162 0 015.995-1.705c1.577 0 3.025.312 4.345.935a7.417 7.417 0 013.245 2.86c.844 1.283 1.265 2.915 1.265 4.895l-16.5 2.145v.605c0 3.373.77 6.013 2.31 7.92s3.594 2.86 6.16 2.86c1.467 0 2.824-.293 4.07-.88a14.33 14.33 0 003.355-2.31l.88.88a12.471 12.471 0 01-4.125 4.29c-1.686 1.1-3.648 1.65-5.885 1.65zm-.275-23.815c-1.906 0-3.373.678-4.4 2.035-1.026 1.357-1.668 3.025-1.925 5.005l11.385-1.485c-.22-1.577-.696-2.897-1.43-3.96-.733-1.063-1.943-1.595-3.63-1.595zm29.696 18.205l.88.88c-.88 1.32-1.889 2.438-3.025 3.355-1.137.917-2.622 1.375-4.455 1.375-1.467 0-2.64-.293-3.52-.88a4.892 4.892 0 01-1.815-2.31 9.103 9.103 0 01-.55-3.19v-16.39h-3.795V221.8h3.795v-7.535l4.675-.825a79.046 79.046 0 00-.22 4.18 157.457 157.457 0 00-.055 4.18h8.14v2.255h-6.435c-.624 0-1.064.128-1.32.385-.257.257-.385.697-.385 1.32v13.53c0 1.173.201 2.182.605 3.025.44.843 1.32 1.265 2.64 1.265.77 0 1.558-.183 2.365-.55.806-.403 1.631-1.008 2.475-1.815zm19.98 0l.88.88c-.88 1.32-1.888 2.438-3.025 3.355-1.137.917-2.622 1.375-4.455 1.375-1.467 0-2.64-.293-3.52-.88a4.904 4.904 0 01-1.815-2.31 9.103 9.103 0 01-.55-3.19v-16.39h-3.795V221.8h3.795v-7.535l4.675-.825a80.128 80.128 0 00-.22 4.18 157.457 157.457 0 00-.055 4.18h8.14v2.255h-6.435c-.623 0-1.063.128-1.32.385-.257.257-.385.697-.385 1.32v13.53c0 1.173.202 2.182.605 3.025.44.843 1.32 1.265 2.64 1.265.77 0 1.558-.183 2.365-.55.807-.403 1.632-1.008 2.475-1.815zm15.966 5.61c-1.87 0-3.667-.44-5.39-1.32-1.687-.88-3.08-2.2-4.18-3.96-1.064-1.797-1.595-4.07-1.595-6.82 0-2.787.55-5.207 1.65-7.26 1.1-2.053 2.566-3.648 4.4-4.785a11.157 11.157 0 015.995-1.705c1.576 0 3.025.312 4.345.935a7.428 7.428 0 013.245 2.86c.843 1.283 1.265 2.915 1.265 4.895l-16.5 2.145v.605c0 3.373.77 6.013 2.31 7.92s3.593 2.86 6.16 2.86c1.466 0 2.823-.293 4.07-.88a14.35 14.35 0 003.355-2.31l.88.88a12.49 12.49 0 01-4.125 4.29c-1.687 1.1-3.649 1.65-5.885 1.65zm-.275-23.815c-1.907 0-3.374.678-4.4 2.035-1.027 1.357-1.669 3.025-1.925 5.005l11.385-1.485c-.22-1.577-.697-2.897-1.43-3.96-.734-1.063-1.944-1.595-3.63-1.595zm22.49 23.815c-2.604 0-4.602-.495-5.995-1.485-1.394-.99-2.09-2.255-2.09-3.795 0-.55.11-1.155.33-1.815.22-.697.605-1.375 1.155-2.035h1.265c.036 2.347.531 4.143 1.485 5.39.953 1.247 2.456 1.87 4.51 1.87 1.833 0 3.19-.44 4.07-1.32.88-.88 1.32-1.888 1.32-3.025 0-1.027-.33-1.87-.99-2.53-.624-.66-1.449-1.228-2.475-1.705-.99-.513-2.054-.99-3.19-1.43a37.89 37.89 0 01-3.245-1.54 8.804 8.804 0 01-2.475-2.145c-.624-.843-.935-1.907-.935-3.19 0-2.017.806-3.703 2.42-5.06 1.613-1.357 3.868-2.035 6.765-2.035 1.136 0 2.291.11 3.465.33a9.566 9.566 0 013.3 1.155v6.325h-1.265c-.257-2.163-.954-3.685-2.09-4.565-1.137-.917-2.475-1.375-4.015-1.375-1.504 0-2.64.33-3.41.99-.77.66-1.155 1.522-1.155 2.585 0 .99.311 1.815.935 2.475.66.623 1.485 1.173 2.475 1.65 1.026.477 2.09.953 3.19 1.43 1.136.44 2.2.972 3.19 1.595 1.026.587 1.851 1.338 2.475 2.255.66.88.99 1.998.99 3.355 0 2.457-.954 4.345-2.86 5.665-1.907 1.32-4.29 1.98-7.15 1.98zm57.862-5.06l.55 1.265-8.965 4.125-.33-.33c.073-.33.146-.972.22-1.925.11-.99.165-2.035.165-3.135h-.055c-.954 1.357-2.164 2.548-3.63 3.575-1.43.99-3.154 1.485-5.17 1.485a9.418 9.418 0 01-4.84-1.32c-1.467-.917-2.659-2.237-3.575-3.96-.88-1.723-1.32-3.813-1.32-6.27 0-2.347.403-4.4 1.21-6.16.843-1.797 1.943-3.3 3.3-4.51 1.393-1.21 2.915-2.108 4.565-2.695 1.686-.623 3.373-.935 5.06-.935 1.686 0 3.135.165 4.345.495v-11.605c0-1.027-.165-1.687-.495-1.98-.294-.293-.697-.44-1.21-.44-.477 0-.99.073-1.54.22-.514.147-.99.33-1.43.55l-.55-1.265 9.515-4.4.33.33c-.037.293-.092 1.082-.165 2.365a161.548 161.548 0 00-.055 4.565v30.03c0 1.027.146 1.687.44 1.98.33.293.751.44 1.265.44.77 0 1.558-.165 2.365-.495zm-15.51 1.76c1.283 0 2.511-.33 3.685-.99a16.613 16.613 0 003.355-2.42v-14.41c-.88-.953-1.87-1.558-2.97-1.815-1.064-.293-1.999-.44-2.805-.44-2.347 0-4.309.807-5.885 2.42-1.54 1.577-2.31 4.088-2.31 7.535 0 3.153.641 5.628 1.925 7.425 1.283 1.797 2.951 2.695 5.005 2.695zm30.769 3.3c-1.87 0-3.666-.44-5.39-1.32-1.686-.88-3.08-2.2-4.18-3.96-1.063-1.797-1.595-4.07-1.595-6.82 0-2.787.55-5.207 1.65-7.26 1.1-2.053 2.567-3.648 4.4-4.785a11.162 11.162 0 015.995-1.705c1.577 0 3.025.312 4.345.935a7.417 7.417 0 013.245 2.86c.844 1.283 1.265 2.915 1.265 4.895l-16.5 2.145v.605c0 3.373.77 6.013 2.31 7.92s3.594 2.86 6.16 2.86c1.467 0 2.824-.293 4.07-.88a14.33 14.33 0 003.355-2.31l.88.88a12.471 12.471 0 01-4.125 4.29c-1.686 1.1-3.648 1.65-5.885 1.65zm-.275-23.815c-1.906 0-3.373.678-4.4 2.035-1.026 1.357-1.668 3.025-1.925 5.005l11.385-1.485c-.22-1.577-.696-2.897-1.43-3.96-.733-1.063-1.943-1.595-3.63-1.595zm-274.89 83.435c0 1.283.128 2.218.385 2.805.257.587.715.972 1.375 1.155.697.183 1.668.293 2.915.33V312H59.353v-1.265c.806-.037 1.448-.147 1.925-.33.477-.183.825-.568 1.045-1.155.22-.587.33-1.522.33-2.805v-30.58c0-1.027-.165-1.687-.495-1.98-.294-.293-.697-.44-1.21-.44-.477 0-.99.073-1.54.22-.514.147-.99.33-1.43.55l-.55-1.265 9.515-4.4.33.33c-.037.293-.092 1.082-.165 2.365a162.69 162.69 0 00-.055 4.565v30.635zm14.362 6.38c-1.723 0-3.135-.44-4.235-1.32-1.063-.917-1.595-2.218-1.595-3.905 0-1.357.422-2.603 1.265-3.74s2.237-2.182 4.18-3.135c1.943-.953 4.583-1.833 7.92-2.64v-3.575c0-1.503-.33-2.75-.99-3.74-.623-.99-1.833-1.485-3.63-1.485-1.723 0-3.098.55-4.125 1.65-.99 1.063-1.687 2.732-2.09 5.005H76.85v-6.875a21.57 21.57 0 014.07-1.485c1.467-.403 3.08-.605 4.84-.605 2.017 0 3.557.275 4.62.825 1.1.513 1.87 1.247 2.31 2.2.44.953.66 2.072.66 3.355v13.31c0 1.943.605 2.915 1.815 2.915.44 0 .935-.147 1.485-.44.587-.293 1.265-.898 2.035-1.815l.88.88c-1.687 2.897-3.703 4.345-6.05 4.345-2.42 0-3.905-1.228-4.455-3.685h-.11c-2.017 2.64-4.528 3.96-7.535 3.96zm2.035-3.245c1.76 0 3.593-.807 5.5-2.42v-7.37c-2.64.66-4.583 1.393-5.83 2.2-1.247.77-2.072 1.558-2.475 2.365-.367.77-.55 1.485-.55 2.145 0 1.063.33 1.852.99 2.365.66.477 1.448.715 2.365.715zm27.416 2.97a29.315 29.315 0 00-.77-2.475 24.41 24.41 0 00-.935-2.42l-6.16-14.465c-.513-1.247-.99-2.145-1.43-2.695-.403-.55-.843-.917-1.32-1.1-.44-.183-.99-.293-1.65-.33V287.8h11.605v1.265c-1.247.037-2.127.165-2.64.385-.513.183-.733.568-.66 1.155.073.55.348 1.412.825 2.585l5.335 12.65h.11l5.225-12.65c.733-1.723.862-2.823.385-3.3-.44-.477-1.632-.752-3.575-.825V287.8h9.735v1.265a3.867 3.867 0 00-1.485.385c-.44.183-.862.568-1.265 1.155-.367.55-.807 1.412-1.32 2.585l-6.105 14.465c-.403.99-.697 1.815-.88 2.475-.183.66-.385 1.467-.605 2.42h-2.42zm27.493.275c-1.87 0-3.667-.44-5.39-1.32-1.687-.88-3.08-2.2-4.18-3.96-1.064-1.797-1.595-4.07-1.595-6.82 0-2.787.55-5.207 1.65-7.26 1.1-2.053 2.566-3.648 4.4-4.785a11.157 11.157 0 015.995-1.705c1.576 0 3.025.312 4.345.935a7.428 7.428 0 013.245 2.86c.843 1.283 1.265 2.915 1.265 4.895l-16.5 2.145v.605c0 3.373.77 6.013 2.31 7.92s3.593 2.86 6.16 2.86c1.466 0 2.823-.293 4.07-.88a14.35 14.35 0 003.355-2.31l.88.88a12.49 12.49 0 01-4.125 4.29c-1.687 1.1-3.649 1.65-5.885 1.65zm-.275-23.815c-1.907 0-3.374.678-4.4 2.035-1.027 1.357-1.669 3.025-1.925 5.005l11.385-1.485c-.22-1.577-.697-2.897-1.43-3.96-.734-1.063-1.944-1.595-3.63-1.595zm27.605 10.505l-14.135 1.265-.165-3.08 14.08-1.21.22 3.025zm12.477 13.035a29.687 29.687 0 00-.77-2.475 24.41 24.41 0 00-.935-2.42l-6.16-14.465c-.514-1.247-.99-2.145-1.43-2.695-.404-.55-.844-.917-1.32-1.1-.44-.183-.99-.293-1.65-.33V287.8h11.605v1.265c-1.247.037-2.127.165-2.64.385-.514.183-.734.568-.66 1.155.073.55.348 1.412.825 2.585l5.335 12.65h.11l5.225-12.65c.733-1.723.861-2.823.385-3.3-.44-.477-1.632-.752-3.575-.825V287.8h9.735v1.265a3.867 3.867 0 00-1.485.385c-.44.183-.862.568-1.265 1.155-.367.55-.807 1.412-1.32 2.585l-6.105 14.465c-.404.99-.697 1.815-.88 2.475-.184.66-.385 1.467-.605 2.42h-2.42zm22.487.275c-1.723 0-3.135-.44-4.235-1.32-1.063-.917-1.595-2.218-1.595-3.905 0-1.357.422-2.603 1.265-3.74.844-1.137 2.237-2.182 4.18-3.135 1.944-.953 4.584-1.833 7.92-2.64v-3.575c0-1.503-.33-2.75-.99-3.74-.623-.99-1.833-1.485-3.63-1.485-1.723 0-3.098.55-4.125 1.65-.99 1.063-1.686 2.732-2.09 5.005h-1.265v-6.875a21.588 21.588 0 014.07-1.485c1.467-.403 3.08-.605 4.84-.605 2.017 0 3.557.275 4.62.825 1.1.513 1.87 1.247 2.31 2.2.44.953.66 2.072.66 3.355v13.31c0 1.943.605 2.915 1.815 2.915.44 0 .935-.147 1.485-.44.587-.293 1.265-.898 2.035-1.815l.88.88c-1.686 2.897-3.703 4.345-6.05 4.345-2.42 0-3.905-1.228-4.455-3.685h-.11c-2.016 2.64-4.528 3.96-7.535 3.96zm2.035-3.245c1.76 0 3.594-.807 5.5-2.42v-7.37c-2.64.66-4.583 1.393-5.83 2.2-1.246.77-2.071 1.558-2.475 2.365-.366.77-.55 1.485-.55 2.145 0 1.063.33 1.852.99 2.365.66.477 1.449.715 2.365.715zm26.151-3.135c0 1.283.128 2.218.385 2.805.257.587.715.972 1.375 1.155.697.183 1.668.293 2.915.33V312h-12.375v-1.265c.807-.037 1.448-.147 1.925-.33.477-.183.825-.568 1.045-1.155.22-.587.33-1.522.33-2.805v-12.43c0-1.027-.165-1.687-.495-1.98-.293-.33-.697-.495-1.21-.495-.477 0-.99.092-1.54.275-.513.147-.99.312-1.43.495l-.55-1.265 9.515-4.345.33.33c-.037.293-.092 1.082-.165 2.365a161.548 161.548 0 00-.055 4.565v12.485zm-2.2-24.915c-.807 0-1.485-.275-2.035-.825-.55-.55-.825-1.228-.825-2.035 0-.77.275-1.43.825-1.98.55-.55 1.228-.825 2.035-.825.807 0 1.485.275 2.035.825a2.7 2.7 0 01.825 1.98c0 .807-.275 1.485-.825 2.035-.55.55-1.228.825-2.035.825zm18.368 31.295c-2.603 0-4.601-.495-5.995-1.485-1.393-.99-2.09-2.255-2.09-3.795 0-.55.11-1.155.33-1.815.22-.697.605-1.375 1.155-2.035h1.265c.037 2.347.532 4.143 1.485 5.39.954 1.247 2.457 1.87 4.51 1.87 1.834 0 3.19-.44 4.07-1.32.88-.88 1.32-1.888 1.32-3.025 0-1.027-.33-1.87-.99-2.53-.623-.66-1.448-1.228-2.475-1.705-.99-.513-2.053-.99-3.19-1.43a38.179 38.179 0 01-3.245-1.54 8.804 8.804 0 01-2.475-2.145c-.623-.843-.935-1.907-.935-3.19 0-2.017.807-3.703 2.42-5.06 1.614-1.357 3.869-2.035 6.765-2.035 1.137 0 2.292.11 3.465.33a9.552 9.552 0 013.3 1.155v6.325h-1.265c-.256-2.163-.953-3.685-2.09-4.565-1.136-.917-2.475-1.375-4.015-1.375-1.503 0-2.64.33-3.41.99-.77.66-1.155 1.522-1.155 2.585 0 .99.312 1.815.935 2.475.66.623 1.485 1.173 2.475 1.65 1.027.477 2.09.953 3.19 1.43 1.137.44 2.2.972 3.19 1.595 1.027.587 1.852 1.338 2.475 2.255.66.88.99 1.998.99 3.355 0 2.457-.953 4.345-2.86 5.665-1.906 1.32-4.29 1.98-7.15 1.98zm22.613 0c-2.604 0-4.602-.495-5.995-1.485-1.394-.99-2.09-2.255-2.09-3.795 0-.55.11-1.155.33-1.815.22-.697.605-1.375 1.155-2.035h1.265c.036 2.347.531 4.143 1.485 5.39.953 1.247 2.456 1.87 4.51 1.87 1.833 0 3.19-.44 4.07-1.32.88-.88 1.32-1.888 1.32-3.025 0-1.027-.33-1.87-.99-2.53-.624-.66-1.449-1.228-2.475-1.705-.99-.513-2.054-.99-3.19-1.43a37.89 37.89 0 01-3.245-1.54 8.804 8.804 0 01-2.475-2.145c-.624-.843-.935-1.907-.935-3.19 0-2.017.806-3.703 2.42-5.06 1.613-1.357 3.868-2.035 6.765-2.035 1.136 0 2.291.11 3.465.33a9.566 9.566 0 013.3 1.155v6.325h-1.265c-.257-2.163-.954-3.685-2.09-4.565-1.137-.917-2.475-1.375-4.015-1.375-1.504 0-2.64.33-3.41.99-.77.66-1.155 1.522-1.155 2.585 0 .99.311 1.815.935 2.475.66.623 1.485 1.173 2.475 1.65 1.026.477 2.09.953 3.19 1.43 1.136.44 2.2.972 3.19 1.595 1.026.587 1.851 1.338 2.475 2.255.66.88.99 1.998.99 3.355 0 2.457-.954 4.345-2.86 5.665-1.907 1.32-4.29 1.98-7.15 1.98zm25.802 0c-1.87 0-3.667-.44-5.39-1.32-1.687-.88-3.08-2.2-4.18-3.96-1.063-1.797-1.595-4.07-1.595-6.82 0-2.787.55-5.207 1.65-7.26 1.1-2.053 2.567-3.648 4.4-4.785a11.16 11.16 0 015.995-1.705c1.577 0 3.025.312 4.345.935a7.423 7.423 0 013.245 2.86c.843 1.283 1.265 2.915 1.265 4.895l-16.5 2.145v.605c0 3.373.77 6.013 2.31 7.92s3.593 2.86 6.16 2.86c1.467 0 2.823-.293 4.07-.88a14.33 14.33 0 003.355-2.31l.88.88a12.49 12.49 0 01-4.125 4.29c-1.687 1.1-3.648 1.65-5.885 1.65zm-.275-23.815c-1.907 0-3.373.678-4.4 2.035-1.027 1.357-1.668 3.025-1.925 5.005l11.385-1.485c-.22-1.577-.697-2.897-1.43-3.96-.733-1.063-1.943-1.595-3.63-1.595zm22.05 17.435c0 1.283.129 2.218.385 2.805.257.587.715.972 1.375 1.155.697.183 1.669.293 2.915.33V312h-12.375v-1.265c.807-.037 1.449-.147 1.925-.33.477-.183.825-.568 1.045-1.155.22-.587.33-1.522.33-2.805v-30.58c0-1.027-.165-1.687-.495-1.98-.293-.293-.696-.44-1.21-.44-.476 0-.99.073-1.54.22-.513.147-.99.33-1.43.55l-.55-1.265 9.515-4.4.33.33c-.036.293-.091 1.082-.165 2.365a165.417 165.417 0 00-.055 4.565v30.635zm15.738 0c0 1.283.128 2.218.385 2.805.256.587.715.972 1.375 1.155.696.183 1.668.293 2.915.33V312h-12.375v-1.265c.806-.037 1.448-.147 1.925-.33.476-.183.825-.568 1.045-1.155.22-.587.33-1.522.33-2.805v-30.58c0-1.027-.165-1.687-.495-1.98-.294-.293-.697-.44-1.21-.44-.477 0-.99.073-1.54.22-.514.147-.99.33-1.43.55l-.55-1.265 9.515-4.4.33.33c-.037.293-.092 1.082-.165 2.365a161.548 161.548 0 00-.055 4.565v30.635zm19.367 6.38c-1.87 0-3.667-.44-5.39-1.32-1.687-.88-3.08-2.2-4.18-3.96-1.063-1.797-1.595-4.07-1.595-6.82 0-2.787.55-5.207 1.65-7.26 1.1-2.053 2.567-3.648 4.4-4.785a11.16 11.16 0 015.995-1.705c1.577 0 3.025.312 4.345.935a7.423 7.423 0 013.245 2.86c.843 1.283 1.265 2.915 1.265 4.895l-16.5 2.145v.605c0 3.373.77 6.013 2.31 7.92s3.593 2.86 6.16 2.86c1.467 0 2.823-.293 4.07-.88a14.33 14.33 0 003.355-2.31l.88.88a12.49 12.49 0 01-4.125 4.29c-1.687 1.1-3.648 1.65-5.885 1.65zm-.275-23.815c-1.907 0-3.373.678-4.4 2.035-1.027 1.357-1.668 3.025-1.925 5.005l11.385-1.485c-.22-1.577-.697-2.897-1.43-3.96-.733-1.063-1.943-1.595-3.63-1.595z" fill="#000"/></svg>