<svg width="224" height="682" fill="none" xmlns="http://www.w3.org/2000/svg"><path d="M0 502.579c0-65.893 40.486-241.517 60.728-321.092h76.783c8.376 45.605 26.246 142.258 30.713 164.036 5.584 27.223 34.902 41.882 47.466 73.293 12.564 31.411 7.678 208.012 0 230.349-7.678 22.336-65.614 32.807-98.422 32.807-32.807 0-78.877-11.169-93.535-14.659C9.074 663.823 0 584.946 0 502.579z" fill="#EFD6AC"/><path d="M59.86 88.068v93.419h77.376c-1.749-35.323-4.197-108.896 0-120.608 4.196-11.712 34.971-20.682 49.834-23.703V.924c-4.59-.697-29.245-1.673-91.145 0-61.9 1.673-80.435 58.793-81.965 87.144h45.9z" fill="#BE1B1E"/><path d="M215.69 1.875h-29.317v34.203h29.317V1.875zm-46.768 74.21c0-8.376 7.678-32.342 11.866-37.693l-17.45 4.188-16.055 7.678c1.164 18.847 10.889 48.024 18.149 58.634 13.96 20.404 32.109 39.09 53.05 33.505-16.753-3.523-49.56-49.56-49.56-66.312z" fill="#9C1619"/><path d="M147.285 85.857c-3.909-2.234-10.005-.931-12.565 0 0-6.98.559-22.058 2.792-26.525 2.234-4.468 7.446-7.911 9.773-9.075l10.25 41.882c-1.396-1.163-6.341-4.049-10.25-6.282z" fill="#861315"/><path d="M64.795 444.48c-.32-.92-.7-1.84-1.14-2.76-.44-.96-1.04-2.28-1.8-3.96l-11.46-25.5h-.12l-1.2 25.74c-.04 1.48.3 2.6 1.02 3.36.72.76 2.3 1.18 4.74 1.26V444h-12.78v-1.38c1.56-.08 2.64-.5 3.24-1.26.64-.76.98-1.88 1.02-3.36l1.38-27.9c.08-1.4-.02-2.4-.3-3-.24-.64-.74-1.06-1.5-1.26-.76-.2-1.9-.32-3.42-.36v-1.38h10.2c.32 1.04.66 2.02 1.02 2.94.4.92.86 1.94 1.38 3.06l12.12 26.64h.12l11.16-26.64c.44-1.04.82-2.04 1.14-3 .36-1 .68-2 .96-3h9.48v1.38c-1.12.04-2 .16-2.64.36-.64.2-1.08.62-1.32 1.26-.2.6-.28 1.6-.24 3l1.26 27.9c.08 1.36.26 2.36.54 3 .28.64.78 1.06 1.5 1.26.76.16 1.8.28 3.12.36V444h-13.92v-1.38c.96-.08 1.72-.2 2.28-.36.56-.2.94-.62 1.14-1.26.24-.64.32-1.64.24-3l-1.14-26.16h-.12l-10.98 25.92c-.68 1.68-1.22 3-1.62 3.96-.36.92-.66 1.84-.9 2.76h-2.46zm62.264-5.1l.6 1.38-9.72 4.5-.36-.36c.08-.36.16-1.06.24-2.1.12-1.08.18-2.22.18-3.42h-.12c-1.56 1.6-3.18 2.92-4.86 3.96-1.64 1.04-3.5 1.56-5.58 1.56-2.52 0-4.28-.64-5.28-1.92-.96-1.28-1.44-2.94-1.44-4.98v-13.8c0-1.04-.18-1.72-.54-2.04-.32-.32-.76-.48-1.32-.48-.8 0-1.66.2-2.58.6l-.6-1.38 9.72-4.5.36.36c-.04.32-.1 1.18-.18 2.58-.04 1.36-.06 2.96-.06 4.8v12.36c0 1.4.28 2.5.84 3.3.6.8 1.66 1.2 3.18 1.2 1.28 0 2.6-.26 3.96-.78 1.4-.56 2.84-1.44 4.32-2.64V424.2c0-1.04-.16-1.72-.48-2.04-.32-.32-.78-.48-1.38-.48-.52 0-1.06.1-1.62.3-.56.16-1.06.34-1.5.54l-.6-1.38 10.26-4.74.36.36c-.04.32-.1 1.18-.18 2.58-.04 1.36-.06 2.96-.06 4.8v13.14c0 1.12.16 1.84.48 2.16.36.32.82.48 1.38.48.88 0 1.74-.18 2.58-.54zm12.503-1.44c0 1.4.14 2.42.42 3.06.28.64.78 1.06 1.5 1.26.76.2 1.82.32 3.18.36V444h-13.5v-1.38c.88-.04 1.58-.16 2.1-.36.52-.2.9-.62 1.14-1.26.24-.64.36-1.66.36-3.06v-33.36c0-1.12-.18-1.84-.54-2.16-.32-.32-.76-.48-1.32-.48-.52 0-1.08.08-1.68.24-.56.16-1.08.36-1.56.6l-.6-1.38 10.38-4.8.36.36c-.04.32-.1 1.18-.18 2.58-.04 1.4-.06 3.06-.06 4.98v33.42zm25.508.84l.96.96c-.96 1.44-2.06 2.66-3.3 3.66-1.24 1-2.86 1.5-4.86 1.5-1.6 0-2.88-.32-3.84-.96a5.342 5.342 0 01-1.98-2.52 9.94 9.94 0 01-.6-3.48v-17.88h-4.14v-2.46h4.14v-8.22l5.1-.9c-.12 1.52-.2 3.04-.24 4.56-.04 1.52-.06 3.04-.06 4.56h8.88v2.46h-7.02c-.68 0-1.16.14-1.44.42-.28.28-.42.76-.42 1.44v14.76c0 1.28.22 2.38.66 3.3.48.92 1.44 1.38 2.88 1.38.84 0 1.7-.2 2.58-.6.88-.44 1.78-1.1 2.7-1.98zm13.877-.84c0 1.4.14 2.42.42 3.06.28.64.78 1.06 1.5 1.26.76.2 1.82.32 3.18.36V444h-13.5v-1.38c.88-.04 1.58-.16 2.1-.36.52-.2.9-.62 1.14-1.26.24-.64.36-1.66.36-3.06v-13.56c0-1.12-.18-1.84-.54-2.16-.32-.36-.76-.54-1.32-.54-.52 0-1.08.1-1.68.3-.56.16-1.08.34-1.56.54l-.6-1.38 10.38-4.74.36.36c-.04.32-.1 1.18-.18 2.58-.04 1.4-.06 3.06-.06 4.98v13.62zm-2.4-27.18c-.88 0-1.62-.3-2.22-.9-.6-.6-.9-1.34-.9-2.22 0-.84.3-1.56.9-2.16.6-.6 1.34-.9 2.22-.9.88 0 1.62.3 2.22.9.6.6.9 1.32.9 2.16 0 .88-.3 1.62-.9 2.22-.6.6-1.34.9-2.22.9zM17.757 516.9c-2.84 0-5.02-.54-6.54-1.62-1.52-1.08-2.28-2.46-2.28-4.14 0-.6.12-1.26.36-1.98.24-.76.66-1.5 1.26-2.22h1.38c.04 2.56.58 4.52 1.62 5.88 1.04 1.36 2.68 2.04 4.92 2.04 2 0 3.48-.48 4.44-1.44.96-.96 1.44-2.06 1.44-3.3 0-1.12-.36-2.04-1.08-2.76-.68-.72-1.58-1.34-2.7-1.86-1.08-.56-2.24-1.08-3.48-1.56-1.24-.52-2.42-1.08-3.54-1.68-1.08-.64-1.98-1.42-2.7-2.34-.68-.92-1.02-2.08-1.02-3.48 0-2.2.88-4.04 2.64-5.52 1.76-1.48 4.22-2.22 7.38-2.22 1.24 0 2.5.12 3.78.36 1.28.2 2.48.62 3.6 1.26v6.9h-1.38c-.28-2.36-1.04-4.02-2.28-4.98-1.24-1-2.7-1.5-4.38-1.5-1.64 0-2.88.36-3.72 1.08-.84.72-1.26 1.66-1.26 2.82 0 1.08.34 1.98 1.02 2.7.72.68 1.62 1.28 2.7 1.8 1.12.52 2.28 1.04 3.48 1.56 1.24.48 2.4 1.06 3.48 1.74 1.12.64 2.02 1.46 2.7 2.46.72.96 1.08 2.18 1.08 3.66 0 2.68-1.04 4.74-3.12 6.18-2.08 1.44-4.68 2.16-7.8 2.16zm45.728-5.52l.6 1.38-9.72 4.5-.36-.36c.08-.36.16-1.06.24-2.1.12-1.08.18-2.22.18-3.42h-.12c-1.56 1.6-3.18 2.92-4.86 3.96-1.64 1.04-3.5 1.56-5.58 1.56-2.52 0-4.28-.64-5.28-1.92-.96-1.28-1.44-2.94-1.44-4.98v-13.8c0-1.04-.18-1.72-.54-2.04-.32-.32-.76-.48-1.32-.48-.8 0-1.66.2-2.58.6l-.6-1.38 9.72-4.5.36.36c-.04.32-.1 1.18-.18 2.58-.04 1.36-.06 2.96-.06 4.8v12.36c0 1.4.28 2.5.84 3.3.6.8 1.66 1.2 3.18 1.2 1.28 0 2.6-.26 3.96-.78 1.4-.56 2.84-1.44 4.32-2.64V496.2c0-1.04-.16-1.72-.48-2.04-.32-.32-.78-.48-1.38-.48-.52 0-1.06.1-1.62.3-.56.16-1.06.34-1.5.54l-.6-1.38 10.26-4.74.36.36c-.04.32-.1 1.18-.18 2.58-.04 1.36-.06 2.96-.06 4.8v13.14c0 1.12.16 1.84.48 2.16.36.32.82.48 1.38.48.88 0 1.74-.18 2.58-.54zm4.463 4.62v-1.38c.92-.04 1.64-.16 2.16-.36.52-.2.88-.62 1.08-1.26.24-.64.36-1.66.36-3.06V496.2c0-1.04-.16-1.72-.48-2.04-.32-.32-.76-.48-1.32-.48-.44 0-.88.06-1.32.18-.4.08-.82.22-1.26.42l-.6-1.38 9.66-4.5.36.36c-.08.36-.18 1.14-.3 2.34-.08 1.16-.12 2.44-.12 3.84h.12c1.64-2.44 3.44-4.08 5.4-4.92 2-.84 4.08-1.18 6.24-1.02.32 2.96.32 5.92 0 8.88h-1.38c-.16-1.64-.54-2.78-1.14-3.42-.56-.68-1.36-1.02-2.4-1.02-1.32 0-2.5.28-3.54.84-1.04.56-2.08 1.48-3.12 2.76v12.9c0 1.4.14 2.42.42 3.06.28.64.82 1.06 1.62 1.26.84.2 2.06.32 3.66.36V516h-14.1zm44.497-47.4c.48 2.76.48 5.52 0 8.28h-1.38c-.16-1.84-.56-3.22-1.2-4.14-.64-.92-1.66-1.38-3.06-1.38-4.72 0-7.08 4.72-7.08 14.16v4.08h8.88v2.46h-7.02c-.68 0-1.16.14-1.44.42-.28.28-.42.76-.42 1.44v16.02c0 1.4.14 2.42.42 3.06.32.64.92 1.06 1.8 1.26.92.2 2.28.32 4.08.36V516h-14.7v-1.38c.88-.04 1.58-.16 2.1-.36.52-.2.9-.62 1.14-1.26.24-.64.36-1.66.36-3.06v-17.88h-4.14v-2.46h4.14v-4.26c0-3.96.74-7.24 2.22-9.84 1.48-2.6 3.54-4.48 6.18-5.64 2.64-1.2 5.68-1.62 9.12-1.26zm5.285 48.3c-1.88 0-3.42-.48-4.62-1.44-1.16-1-1.74-2.42-1.74-4.26 0-1.48.46-2.84 1.38-4.08.92-1.24 2.44-2.38 4.56-3.42 2.12-1.04 5-2 8.64-2.88v-3.9c0-1.64-.36-3-1.08-4.08-.68-1.08-2-1.62-3.96-1.62-1.88 0-3.38.6-4.5 1.8-1.08 1.16-1.84 2.98-2.28 5.46h-1.38v-7.5c1.4-.68 2.88-1.22 4.44-1.62 1.6-.44 3.36-.66 5.28-.66 2.2 0 3.88.3 5.04.9 1.2.56 2.04 1.36 2.52 2.4.48 1.04.72 2.26.72 3.66v14.52c0 2.12.66 3.18 1.98 3.18.48 0 1.02-.16 1.62-.48.64-.32 1.38-.98 2.22-1.98l.96.96c-1.84 3.16-4.04 4.74-6.6 4.74-2.64 0-4.26-1.34-4.86-4.02h-.12c-2.2 2.88-4.94 4.32-8.22 4.32zm2.22-3.54c1.92 0 3.92-.88 6-2.64v-8.04c-2.88.72-5 1.52-6.36 2.4-1.36.84-2.26 1.7-2.7 2.58-.4.84-.6 1.62-.6 2.34 0 1.16.36 2.02 1.08 2.58.72.52 1.58.78 2.58.78zm32.068 3.54c-2.08 0-4.06-.48-5.94-1.44-1.84-1-3.34-2.48-4.5-4.44-1.16-2-1.74-4.48-1.74-7.44 0-3.16.66-5.84 1.98-8.04 1.36-2.24 3.14-3.94 5.34-5.1 2.2-1.16 4.54-1.74 7.02-1.74 1.24 0 2.58.16 4.02.48 1.48.32 2.8.88 3.96 1.68v7.86h-1.38c-.2-2.08-.72-3.68-1.56-4.8-.84-1.12-1.82-1.9-2.94-2.34-1.08-.44-2.16-.66-3.24-.66-2.64 0-4.68 1-6.12 3-1.44 1.96-2.16 4.42-2.16 7.38 0 2.36.4 4.42 1.2 6.18.84 1.72 1.98 3.06 3.42 4.02 1.44.96 3.06 1.44 4.86 1.44 1.4 0 2.78-.3 4.14-.9 1.4-.64 2.66-1.5 3.78-2.58l.96.96c-1.12 1.88-2.64 3.44-4.56 4.68-1.92 1.2-4.1 1.8-6.54 1.8zm28.242 0c-2.04 0-4-.48-5.88-1.44-1.84-.96-3.36-2.4-4.56-4.32-1.16-1.96-1.74-4.44-1.74-7.44 0-3.04.6-5.68 1.8-7.92 1.2-2.24 2.8-3.98 4.8-5.22 2-1.24 4.18-1.86 6.54-1.86 1.72 0 3.3.34 4.74 1.02 1.48.68 2.66 1.72 3.54 3.12.92 1.4 1.38 3.18 1.38 5.34l-18 2.34v.66c0 3.68.84 6.56 2.52 8.64 1.68 2.08 3.92 3.12 6.72 3.12 1.6 0 3.08-.32 4.44-.96 1.36-.68 2.58-1.52 3.66-2.52l.96.96a13.618 13.618 0 01-4.5 4.68c-1.84 1.2-3.98 1.8-6.42 1.8zm-.3-25.98c-2.08 0-3.68.74-4.8 2.22-1.12 1.48-1.82 3.3-2.1 5.46l12.42-1.62c-.24-1.72-.76-3.16-1.56-4.32-.8-1.16-2.12-1.74-3.96-1.74zm24.535 25.98c-2.84 0-5.02-.54-6.54-1.62-1.52-1.08-2.28-2.46-2.28-4.14 0-.6.12-1.26.36-1.98.24-.76.66-1.5 1.26-2.22h1.38c.04 2.56.58 4.52 1.62 5.88 1.04 1.36 2.68 2.04 4.92 2.04 2 0 3.48-.48 4.44-1.44.96-.96 1.44-2.06 1.44-3.3 0-1.12-.36-2.04-1.08-2.76-.68-.72-1.58-1.34-2.7-1.86-1.08-.56-2.24-1.08-3.48-1.56-1.24-.52-2.42-1.08-3.54-1.68-1.08-.64-1.98-1.42-2.7-2.34-.68-.92-1.02-2.08-1.02-3.48 0-2.2.88-4.04 2.64-5.52 1.76-1.48 4.22-2.22 7.38-2.22 1.24 0 2.5.12 3.78.36 1.28.2 2.48.62 3.6 1.26v6.9h-1.38c-.28-2.36-1.04-4.02-2.28-4.98-1.24-1-2.7-1.5-4.38-1.5-1.64 0-2.88.36-3.72 1.08-.84.72-1.26 1.66-1.26 2.82 0 1.08.34 1.98 1.02 2.7.72.68 1.62 1.28 2.7 1.8 1.12.52 2.28 1.04 3.48 1.56 1.24.48 2.4 1.06 3.48 1.74 1.12.64 2.02 1.46 2.7 2.46.72.96 1.08 2.18 1.08 3.66 0 2.68-1.04 4.74-3.12 6.18-2.08 1.44-4.68 2.16-7.8 2.16z" fill="#000"/></svg>