<svg width="318" height="683" fill="none" xmlns="http://www.w3.org/2000/svg"><path d="M114.484 185.217c0-16.476 15.548-31.677 23.321-37.217h73.237c8.319 15.176 27.085 50.225 35.595 69.015 10.638 23.487 36.005 119.602 48.279 201.986 12.274 82.384 0 229.447-12.274 244.623-12.275 15.176-68.327 20.596-112.105 19.151-43.779-1.445-110.469 1.445-137.063-6.865C6.88 667.599-.485 523.427 15.063 465.613c15.547-57.814 108.831-196.566 113.332-215.717 4.501-19.15-13.911-44.082-13.911-64.679z" fill="#E4E3C6"/><path d="M137.951 89.677v57.836h70.127V89.677h-70.127z" fill="#85898C"/><path d="M100.358 58.952c13.302 5.494 30.364 23.255 37.232 31.448h70.126c.844-4.579 4.483-14.531 12.291-17.712 9.759-3.977 24.58 3.976 34.34-13.736 9.76-17.712-16.628-32.895-60.367-50.968-34.991-14.46-95.309-6.025-121.094 0V56.06c7.59 0 14.17-2.603 27.472 2.892z" fill="#9FA39E"/><path d="M47.944 29.672c-.579-11.278 16.628-19.4 25.303-22.05v47.715C65.054 51.48 48.522 40.95 47.944 29.672z" fill="#85898C"/><path d="M98.307 90.55c9.161-5.095 18.198-14.33 21.571-18.311-13.848-14.65-27.962-17.073-33.288-16.454-1.065 2.211-3.462 7.537-4.527 11.146-1.332 4.511-37.017 43.789-42.343 53.077-5.326 9.289-8.255 11.146 0 13.535 8.256 2.388 19.174-14.066 29.027-22.823 9.854-8.758 18.109-13.8 29.56-20.17z" fill="#B1B5B0"/><path d="M178.157 304.013c-40.978-.924-64.357 46.198-78.804 70.837-14.447 24.638-22.766 36.188-45.093 92.01-24.416 61.041-29.77 141.288-10.945 170.547 15.06 23.407 82.743 21.559 120.394 21.559 28.895 0 83.182-.462 93.689-11.55 13.134-13.859 38.089-51.202 26.706-133.588s-54.725-208.66-105.947-209.815z" fill="#A1AAB9"/><path d="M21.45 516v-1.265c.99-.037 1.76-.147 2.31-.33.55-.183.936-.568 1.156-1.155.256-.587.385-1.503.385-2.75v-25.575c0-1.283-.147-2.2-.44-2.75-.257-.587-.752-.972-1.485-1.155-.734-.183-1.834-.293-3.3-.33v-1.265H25.3c2.493 0 4.693-.037 6.6-.11a89.748 89.748 0 014.95-.165c3.96 0 7.407.66 10.34 1.98 2.97 1.283 5.28 3.208 6.93 5.775 1.65 2.567 2.475 5.793 2.475 9.68 0 3.007-.55 5.72-1.65 8.14-1.1 2.383-2.603 4.418-4.51 6.105a19.537 19.537 0 01-6.38 3.85 20.817 20.817 0 01-7.37 1.32H21.45zm13.586-1.98c5.573 0 9.661-1.485 12.265-4.455 2.64-3.007 3.96-7.058 3.96-12.155 0-3.923-.66-7.077-1.98-9.46-1.283-2.383-3.117-4.107-5.5-5.17-2.383-1.1-5.207-1.65-8.47-1.65-2.017 0-3.41.22-4.18.66-.77.403-1.155 1.448-1.155 3.135V510.5c0 1.577.367 2.567 1.1 2.97.77.367 2.09.55 3.96.55zm38.535 2.805c-1.87 0-3.666-.44-5.39-1.32-1.686-.88-3.08-2.2-4.18-3.96-1.063-1.797-1.595-4.07-1.595-6.82 0-2.787.55-5.207 1.65-7.26 1.1-2.053 2.567-3.648 4.4-4.785a11.16 11.16 0 015.995-1.705c1.577 0 3.026.312 4.346.935a7.423 7.423 0 013.245 2.86c.843 1.283 1.264 2.915 1.264 4.895l-16.5 2.145v.605c0 3.373.77 6.013 2.31 7.92s3.594 2.86 6.16 2.86c1.467 0 2.824-.293 4.07-.88a14.338 14.338 0 003.355-2.31l.88.88a12.484 12.484 0 01-4.124 4.29c-1.687 1.1-3.649 1.65-5.885 1.65zm-.275-23.815c-1.906 0-3.373.678-4.4 2.035-1.026 1.357-1.668 3.025-1.924 5.005l11.385-1.485c-.22-1.577-.697-2.897-1.43-3.96-.734-1.063-1.944-1.595-3.63-1.595zm3.3-17.38c.66-.037 1.376.092 2.145.385.807.257 1.449.66 1.925 1.21-.806 1.65-1.98 3.337-3.52 5.06-1.54 1.687-3.153 3.062-4.84 4.125l-.605-1.045a18.33 18.33 0 003.136-4.675c.843-1.76 1.43-3.447 1.76-5.06zm19.576 53.295c-1.504 0-2.915-.183-4.235-.55-1.32-.367-2.384-.953-3.19-1.76-.807-.807-1.21-1.87-1.21-3.19 0-2.237 1.356-4.162 4.07-5.775l1.265.22a8.58 8.58 0 00-1.1 2.255c-.257.843-.385 1.632-.385 2.365 0 1.393.495 2.475 1.485 3.245.99.807 2.493 1.21 4.51 1.21 1.906 0 3.593-.33 5.06-.99 1.503-.66 2.695-1.54 3.575-2.64.88-1.1 1.32-2.292 1.32-3.575 0-.843-.239-1.503-.715-1.98-.44-.477-1.265-.807-2.475-.99l-11.715-1.98c-1.504-.293-2.255-1.302-2.255-3.025 0-.953.311-1.943.935-2.97.66-1.027 1.631-2.053 2.915-3.08-1.504-.477-2.787-1.247-3.85-2.31-1.064-1.1-1.595-2.53-1.595-4.29 0-1.687.495-3.135 1.485-4.345.99-1.21 2.273-2.145 3.85-2.805a12.83 12.83 0 015.005-.99c1.283 0 2.566.183 3.85.55 1.283.367 2.383.935 3.3 1.705.916-.22 1.686-.807 2.31-1.76.623-.953 1.026-2.255 1.21-3.905h1.155c.33.403.568.935.715 1.595.183.623.275 1.192.275 1.705 0 1.1-.367 1.962-1.1 2.585-.697.587-1.815.935-3.355 1.045.77 1.1 1.155 2.347 1.155 3.74 0 1.65-.495 3.098-1.485 4.345-.99 1.21-2.274 2.145-3.85 2.805-1.577.66-3.245.99-5.005.99-.88 0-1.742-.092-2.585-.275-.514.44-.935.935-1.265 1.485-.294.55-.44 1.1-.44 1.65 0 .403.11.77.33 1.1.256.33.623.532 1.1.605l11.44 1.925c1.65.257 2.915.77 3.795 1.54.88.733 1.32 1.815 1.32 3.245 0 1.283-.367 2.585-1.1 3.905-.734 1.32-1.779 2.53-3.135 3.63-1.357 1.137-3.007 2.035-4.95 2.695-1.907.697-4.052 1.045-6.435 1.045zm2.64-24.42c1.65 0 2.933-.532 3.85-1.595.916-1.063 1.375-2.383 1.375-3.96 0-1.797-.55-3.263-1.65-4.4-1.064-1.137-2.457-1.705-4.18-1.705-1.65 0-2.934.532-3.85 1.595-.917 1.027-1.375 2.347-1.375 3.96 0 1.797.55 3.263 1.65 4.4 1.1 1.137 2.493 1.705 4.18 1.705zM115.262 516v-1.265c.843-.037 1.503-.147 1.98-.33.477-.183.807-.568.99-1.155.22-.587.33-1.522.33-2.805V497.85c0-.953-.147-1.577-.44-1.87-.293-.293-.697-.44-1.21-.44-.403 0-.807.055-1.21.165a5.322 5.322 0 00-1.155.385l-.55-1.265 8.855-4.125.33.33c-.073.33-.165 1.045-.275 2.145a51.687 51.687 0 00-.11 3.52h.11c1.503-2.237 3.153-3.74 4.95-4.51a12.231 12.231 0 015.72-.935 37.8 37.8 0 010 8.14h-1.265c-.147-1.503-.495-2.548-1.045-3.135-.513-.623-1.247-.935-2.2-.935-1.21 0-2.292.257-3.245.77-.953.513-1.907 1.357-2.86 2.53v11.825c0 1.283.128 2.218.385 2.805.257.587.752.972 1.485 1.155.77.183 1.888.293 3.355.33V516h-12.925zm27.479.825c-1.723 0-3.135-.44-4.235-1.32-1.063-.917-1.595-2.218-1.595-3.905 0-1.357.422-2.603 1.265-3.74.844-1.137 2.237-2.182 4.18-3.135 1.944-.953 4.584-1.833 7.92-2.64v-3.575c0-1.503-.33-2.75-.99-3.74-.623-.99-1.833-1.485-3.63-1.485-1.723 0-3.098.55-4.125 1.65-.99 1.063-1.686 2.732-2.09 5.005h-1.265v-6.875a21.588 21.588 0 014.07-1.485c1.467-.403 3.08-.605 4.84-.605 2.017 0 3.557.275 4.62.825 1.1.513 1.87 1.247 2.31 2.2.44.953.66 2.072.66 3.355v13.31c0 1.943.605 2.915 1.815 2.915.44 0 .935-.147 1.485-.44.587-.293 1.265-.898 2.035-1.815l.88.88c-1.686 2.897-3.703 4.345-6.05 4.345-2.42 0-3.905-1.228-4.455-3.685h-.11c-2.016 2.64-4.528 3.96-7.535 3.96zm2.035-3.245c1.76 0 3.594-.807 5.5-2.42v-7.37c-2.64.66-4.583 1.393-5.83 2.2-1.246.77-2.071 1.558-2.475 2.365-.366.77-.55 1.485-.55 2.145 0 1.063.33 1.852.99 2.365.66.477 1.449.715 2.365.715zm26.151-3.135c0 1.283.128 2.218.385 2.805.257.587.715.972 1.375 1.155.697.183 1.668.293 2.915.33V516h-12.375v-1.265c.807-.037 1.448-.147 1.925-.33.477-.183.825-.568 1.045-1.155.22-.587.33-1.522.33-2.805v-12.43c0-1.027-.165-1.687-.495-1.98-.293-.33-.697-.495-1.21-.495-.477 0-.99.092-1.54.275-.513.147-.99.312-1.43.495l-.55-1.265 9.515-4.345.33.33c-.037.293-.092 1.082-.165 2.365a161.548 161.548 0 00-.055 4.565v12.485zm-2.2-24.915c-.807 0-1.485-.275-2.035-.825-.55-.55-.825-1.228-.825-2.035 0-.77.275-1.43.825-1.98.55-.55 1.228-.825 2.035-.825.807 0 1.485.275 2.035.825a2.7 2.7 0 01.825 1.98c0 .807-.275 1.485-.825 2.035-.55.55-1.228.825-2.035.825zm18.368 31.295c-2.603 0-4.601-.495-5.995-1.485-1.393-.99-2.09-2.255-2.09-3.795 0-.55.11-1.155.33-1.815.22-.697.605-1.375 1.155-2.035h1.265c.037 2.347.532 4.143 1.485 5.39.954 1.247 2.457 1.87 4.51 1.87 1.834 0 3.19-.44 4.07-1.32.88-.88 1.32-1.888 1.32-3.025 0-1.027-.33-1.87-.99-2.53-.623-.66-1.448-1.228-2.475-1.705-.99-.513-2.053-.99-3.19-1.43a38.179 38.179 0 01-3.245-1.54 8.804 8.804 0 01-2.475-2.145c-.623-.843-.935-1.907-.935-3.19 0-2.017.807-3.703 2.42-5.06 1.614-1.357 3.869-2.035 6.765-2.035 1.137 0 2.292.11 3.465.33a9.552 9.552 0 013.3 1.155v6.325h-1.265c-.256-2.163-.953-3.685-2.09-4.565-1.136-.917-2.475-1.375-4.015-1.375-1.503 0-2.64.33-3.41.99-.77.66-1.155 1.522-1.155 2.585 0 .99.312 1.815.935 2.475.66.623 1.485 1.173 2.475 1.65 1.027.477 2.09.953 3.19 1.43 1.137.44 2.2.972 3.19 1.595 1.027.587 1.852 1.338 2.475 2.255.66.88.99 1.998.99 3.355 0 2.457-.953 4.345-2.86 5.665-1.906 1.32-4.29 1.98-7.15 1.98zm22.613 0c-2.604 0-4.602-.495-5.995-1.485-1.394-.99-2.09-2.255-2.09-3.795 0-.55.11-1.155.33-1.815.22-.697.605-1.375 1.155-2.035h1.265c.036 2.347.531 4.143 1.485 5.39.953 1.247 2.456 1.87 4.51 1.87 1.833 0 3.19-.44 4.07-1.32.88-.88 1.32-1.888 1.32-3.025 0-1.027-.33-1.87-.99-2.53-.624-.66-1.449-1.228-2.475-1.705-.99-.513-2.054-.99-3.19-1.43a37.89 37.89 0 01-3.245-1.54 8.804 8.804 0 01-2.475-2.145c-.624-.843-.935-1.907-.935-3.19 0-2.017.806-3.703 2.42-5.06 1.613-1.357 3.868-2.035 6.765-2.035 1.136 0 2.291.11 3.465.33a9.566 9.566 0 013.3 1.155v6.325h-1.265c-.257-2.163-.954-3.685-2.09-4.565-1.137-.917-2.475-1.375-4.015-1.375-1.504 0-2.64.33-3.41.99-.77.66-1.155 1.522-1.155 2.585 0 .99.311 1.815.935 2.475.66.623 1.485 1.173 2.475 1.65 1.026.477 2.09.953 3.19 1.43 1.136.44 2.2.972 3.19 1.595 1.026.587 1.851 1.338 2.475 2.255.66.88.99 1.998.99 3.355 0 2.457-.954 4.345-2.86 5.665-1.907 1.32-4.29 1.98-7.15 1.98zm20.797 0c-1.723 0-3.135-.44-4.235-1.32-1.063-.917-1.595-2.218-1.595-3.905 0-1.357.422-2.603 1.265-3.74s2.237-2.182 4.18-3.135c1.943-.953 4.583-1.833 7.92-2.64v-3.575c0-1.503-.33-2.75-.99-3.74-.623-.99-1.833-1.485-3.63-1.485-1.723 0-3.098.55-4.125 1.65-.99 1.063-1.687 2.732-2.09 5.005h-1.265v-6.875a21.563 21.563 0 014.07-1.485c1.467-.403 3.08-.605 4.84-.605 2.017 0 3.557.275 4.62.825 1.1.513 1.87 1.247 2.31 2.2.44.953.66 2.072.66 3.355v13.31c0 1.943.605 2.915 1.815 2.915.44 0 .935-.147 1.485-.44.587-.293 1.265-.898 2.035-1.815l.88.88c-1.687 2.897-3.703 4.345-6.05 4.345-2.42 0-3.905-1.228-4.455-3.685h-.11c-2.017 2.64-4.528 3.96-7.535 3.96zm2.035-3.245c1.76 0 3.593-.807 5.5-2.42v-7.37c-2.64.66-4.583 1.393-5.83 2.2-1.247.77-2.072 1.558-2.475 2.365-.367.77-.55 1.485-.55 2.145 0 1.063.33 1.852.99 2.365.66.477 1.448.715 2.365.715zm42.156-3.135c0 1.283.11 2.218.33 2.805.256.587.715.972 1.375 1.155.696.183 1.686.293 2.97.33V516h-12.375v-1.265c.806-.037 1.448-.147 1.925-.33.476-.183.825-.568 1.045-1.155.22-.587.33-1.522.33-2.805V498.62c0-1.283-.294-2.292-.88-3.025-.55-.733-1.522-1.1-2.915-1.1-1.21 0-2.475.257-3.795.77-1.32.513-2.677 1.32-4.07 2.42v12.76c0 1.283.11 2.218.33 2.805.256.587.715.972 1.375 1.155.696.183 1.686.293 2.97.33V516h-12.375v-1.265c.843-.037 1.503-.147 1.98-.33.476-.183.806-.568.99-1.155.22-.587.33-1.522.33-2.805V497.96c0-.99-.147-1.632-.44-1.925-.294-.33-.697-.495-1.21-.495-.404 0-.807.055-1.21.165a5.322 5.322 0 00-1.155.385l-.55-1.265 8.855-4.125.33.33c-.074.33-.165.972-.275 1.925a39.17 39.17 0 00-.11 3.025h.11c1.393-1.467 2.896-2.658 4.51-3.575a10.488 10.488 0 015.335-1.43c2.346 0 3.978.587 4.895 1.76.916 1.137 1.375 2.658 1.375 4.565v13.145zm23.213.77l.88.88c-.88 1.32-1.889 2.438-3.025 3.355-1.137.917-2.622 1.375-4.455 1.375-1.467 0-2.64-.293-3.52-.88a4.892 4.892 0 01-1.815-2.31 9.103 9.103 0 01-.55-3.19v-16.39h-3.795V491.8h3.795v-7.535l4.675-.825a79.046 79.046 0 00-.22 4.18 157.457 157.457 0 00-.055 4.18h8.14v2.255h-6.435c-.624 0-1.064.128-1.32.385-.257.257-.385.697-.385 1.32v13.53c0 1.173.201 2.182.605 3.025.44.843 1.32 1.265 2.64 1.265.77 0 1.558-.183 2.365-.55.806-.403 1.631-1.008 2.475-1.815z" fill="#000"/></svg>