<svg width="181" height="664" fill="none" xmlns="http://www.w3.org/2000/svg"><path d="M.583 117.186v531.862c15.441 4.683 55.425 14.049 91.834 14.049 36.408 0 74.226-9.366 88.583-14.049V117.186l-88.583-27.43-91.834 27.43z" fill="#BF66CE"/><path d="M165.559 30.214C170.76 40.918 177.478 94.44 181 118.523c-14.628-3.345-51.85-12.443-90.208-11.373-38.36 1.071-76.664 7.582-90.209 10.035-2.438-19.4 1.788-65.027 31.695-86.97C62.185 8.27 124.924 1 152.556.108c2.167 5.575 7.802 19.401 13.003 30.105z" fill="#AF3EC1"/><ellipse rx="9.752" ry="13.38" transform="matrix(-1 0 0 1 158.244 55.637)" fill="#585858"/><ellipse rx="4.876" ry="6.69" transform="matrix(-1 0 0 1 158.245 55.636)" fill="#404040"/><path d="M93.035 229.343c-31.987 1.193-74.637 29.319-91.964 43.233V406c5.065-8.945 19.033-29.965 34.387-42.487 19.192-15.653 84.766-43.233 109.556-71.557C164.847 269.296 177.268 223.877 181 204c-15.993 7.951-55.978 24.151-87.965 25.343z" fill="#CF8BDA"/><path d="M22 183.4h1.61c.047 1.26.187 2.24.42 2.94.233.7.723 1.19 1.47 1.47.747.327 1.913.49 3.5.49h32.55c1.633 0 2.8-.186 3.5-.56.747-.326 1.237-.956 1.47-1.89.233-.933.373-2.333.42-4.2h1.61v6.65c0 3.174.047 5.974.14 8.4.14 2.474.21 4.574.21 6.3 0 5.04-.84 9.427-2.52 13.16-1.633 3.78-4.083 6.72-7.35 8.82-3.267 2.1-7.373 3.15-12.32 3.15-3.827 0-7.28-.7-10.36-2.1-3.033-1.4-5.623-3.313-7.77-5.74a24.865 24.865 0 01-4.9-8.12c-1.12-2.986-1.68-6.113-1.68-9.38V183.4zm2.52 17.29c0 7.094 1.89 12.297 5.67 15.61 3.827 3.36 8.983 5.04 15.47 5.04 4.993 0 9.007-.84 12.04-2.52 3.033-1.633 5.227-3.966 6.58-7 1.4-3.033 2.1-6.626 2.1-10.78 0-2.566-.28-4.34-.84-5.32-.513-.98-1.843-1.47-3.99-1.47H29c-2.007 0-3.267.467-3.78 1.4-.467.98-.7 2.66-.7 5.04zm-3.57 49.046c0-2.38.56-4.667 1.68-6.86 1.12-2.147 2.8-3.92 5.04-5.32 2.287-1.354 5.18-2.03 8.68-2.03 3.547 0 6.627.7 9.24 2.1 2.613 1.4 4.643 3.266 6.09 5.6a14.204 14.204 0 012.17 7.63c0 2.006-.397 3.85-1.19 5.53-.793 1.726-2.007 3.103-3.64 4.13-1.633 1.073-3.71 1.61-6.23 1.61l-2.73-21h-.77c-4.293 0-7.653.98-10.08 2.94-2.427 1.96-3.64 4.573-3.64 7.84 0 1.866.373 3.593 1.12 5.18a18.284 18.284 0 002.94 4.27l-1.12 1.12a15.894 15.894 0 01-5.46-5.25c-1.4-2.147-2.1-4.644-2.1-7.49zm30.31-.35c0-2.427-.863-4.294-2.59-5.6-1.727-1.307-3.85-2.124-6.37-2.45l1.89 14.49c2.007-.28 3.687-.887 5.04-1.82 1.353-.934 2.03-2.474 2.03-4.62zm22.12 4.2c.047.84-.117 1.75-.49 2.73-.327 1.026-.84 1.843-1.54 2.45-2.1-1.027-4.247-2.52-6.44-4.48-2.147-1.96-3.897-4.014-5.25-6.16l1.33-.77a23.343 23.343 0 005.95 3.99c2.24 1.073 4.387 1.82 6.44 2.24zM20.95 278.01c0-3.314.63-5.857 1.89-7.63 1.26-1.774 2.87-2.66 4.83-2.66.7 0 1.47.14 2.31.42.887.28 1.75.77 2.59 1.47v1.61c-2.987.046-5.273.676-6.86 1.89-1.587 1.213-2.38 3.126-2.38 5.74 0 2.333.56 4.06 1.68 5.18 1.12 1.12 2.403 1.68 3.85 1.68 1.307 0 2.38-.42 3.22-1.26.84-.794 1.563-1.844 2.17-3.15a40.94 40.94 0 001.82-4.06 48.145 48.145 0 011.96-4.13c.747-1.26 1.657-2.31 2.73-3.15 1.073-.794 2.427-1.19 4.06-1.19 2.567 0 4.713 1.026 6.44 3.08 1.727 2.053 2.59 4.923 2.59 8.61 0 1.446-.14 2.916-.42 4.41a12.19 12.19 0 01-1.47 4.2h-8.05v-1.61c2.753-.327 4.69-1.214 5.81-2.66 1.167-1.447 1.75-3.15 1.75-5.11 0-1.914-.42-3.36-1.26-4.34-.84-.98-1.937-1.47-3.29-1.47-1.26 0-2.31.396-3.15 1.19-.793.84-1.493 1.89-2.1 3.15a171.583 171.583 0 00-1.82 4.06 23.585 23.585 0 01-2.03 4.06c-.747 1.306-1.703 2.356-2.87 3.15-1.12.84-2.543 1.26-4.27 1.26-3.127 0-5.53-1.214-7.21-3.64-1.68-2.427-2.52-5.46-2.52-9.1zm32.9 34.589c0 2.707-.677 5.18-2.03 7.42-1.307 2.287-3.15 4.13-5.53 5.53-2.38 1.4-5.157 2.1-8.33 2.1-2.8 0-5.273-.49-7.42-1.47-2.1-.933-3.873-2.193-5.32-3.78a17.519 17.519 0 01-3.22-5.25c-.7-1.867-1.05-3.71-1.05-5.53 0-2.66.653-5.133 1.96-7.42 1.353-2.287 3.22-4.13 5.6-5.53 2.38-1.353 5.157-2.03 8.33-2.03 2.8 0 5.25.467 7.35 1.4 2.147.98 3.92 2.263 5.32 3.85 1.447 1.587 2.52 3.313 3.22 5.18.747 1.867 1.12 3.71 1.12 5.53zm-30.1.21c0 2.753.98 4.923 2.94 6.51 2.007 1.587 5.087 2.38 9.24 2.38 2.847 0 5.413-.443 7.7-1.33 2.287-.84 4.083-2.03 5.39-3.57 1.353-1.54 2.03-3.337 2.03-5.39 0-2.707-1.003-4.853-3.01-6.44-1.96-1.587-5.017-2.38-9.17-2.38-2.8 0-5.343.42-7.63 1.26-2.287.887-4.107 2.1-5.46 3.64-1.353 1.54-2.03 3.313-2.03 5.32zm3.64 55.591l-1.61.7-5.25-11.41.42-.42c.42.093 1.237.187 2.45.28 1.26.14 2.59.21 3.99.21v-.07c-1.727-1.213-3.243-2.753-4.55-4.62-1.26-1.82-1.89-4.013-1.89-6.58 0-2.193.56-4.247 1.68-6.16 1.167-1.867 2.847-3.383 5.04-4.55 2.193-1.12 4.853-1.68 7.98-1.68 2.987 0 5.6.513 7.84 1.54 2.287 1.073 4.2 2.473 5.74 4.2 1.54 1.773 2.683 3.71 3.43 5.81.793 2.147 1.19 4.293 1.19 6.44 0 2.147-.21 3.99-.63 5.53h14.77c1.307 0 2.147-.21 2.52-.63.373-.373.56-.887.56-1.54 0-.607-.093-1.26-.28-1.96a10.54 10.54 0 00-.7-1.82l1.61-.7 5.6 12.11-.42.42c-.373-.047-1.377-.117-3.01-.21a205.97 205.97 0 00-5.81-.07H29.84c-1.307 0-2.147.187-2.52.56-.373.42-.56.957-.56 1.61 0 .98.21 1.983.63 3.01zm-2.24-19.74c0 1.633.42 3.197 1.26 4.69a21.126 21.126 0 003.08 4.27h18.34c1.213-1.12 1.983-2.38 2.31-3.78.373-1.353.56-2.543.56-3.57 0-2.987-1.027-5.483-3.08-7.49-2.007-1.96-5.203-2.94-9.59-2.94-4.013 0-7.163.817-9.45 2.45-2.287 1.633-3.43 3.757-3.43 6.37zm28.7 40.912c0 2.706-.677 5.18-2.03 7.42-1.307 2.286-3.15 4.13-5.53 5.53-2.38 1.4-5.157 2.1-8.33 2.1-2.8 0-5.273-.49-7.42-1.47-2.1-.934-3.873-2.194-5.32-3.78a17.519 17.519 0 01-3.22-5.25c-.7-1.867-1.05-3.71-1.05-5.53 0-2.66.653-5.134 1.96-7.42 1.353-2.287 3.22-4.13 5.6-5.53 2.38-1.354 5.157-2.03 8.33-2.03 2.8 0 5.25.466 7.35 1.4 2.147.98 3.92 2.263 5.32 3.85 1.447 1.586 2.52 3.313 3.22 5.18.747 1.866 1.12 3.71 1.12 5.53zm-30.1.21c0 2.753.98 4.923 2.94 6.51 2.007 1.586 5.087 2.38 9.24 2.38 2.847 0 5.413-.444 7.7-1.33 2.287-.84 4.083-2.03 5.39-3.57 1.353-1.54 2.03-3.337 2.03-5.39 0-2.707-1.003-4.854-3.01-6.44-1.96-1.587-5.017-2.38-9.17-2.38-2.8 0-5.343.42-7.63 1.26-2.287.886-4.107 2.1-5.46 3.64-1.353 1.54-2.03 3.313-2.03 5.32zM22 411.283h1.61c.047 1.073.187 1.913.42 2.52.233.606.723 1.026 1.47 1.26.747.28 1.937.42 3.57.42H45.1c1.213 0 2.007-.187 2.38-.56.373-.374.56-.887.56-1.54 0-.514-.07-1.027-.21-1.54a6.777 6.777 0 00-.49-1.47l1.61-.7 5.25 11.27-.42.42c-.42-.094-1.33-.21-2.73-.35a65.086 65.086 0 00-4.48-.14v.14c2.847 1.913 4.76 4.013 5.74 6.3a15.572 15.572 0 011.19 7.28 48.098 48.098 0 01-10.36 0v-1.61c1.913-.187 3.243-.63 3.99-1.33.793-.654 1.19-1.587 1.19-2.8 0-1.54-.327-2.917-.98-4.13-.653-1.214-1.727-2.427-3.22-3.64H29.07c-1.633 0-2.823.163-3.57.49-.747.326-1.237.956-1.47 1.89-.233.98-.373 2.403-.42 4.27H22v-16.45zm7.07 37.213c-1.633 0-2.823.164-3.57.49-.747.327-1.237.91-1.47 1.75-.233.887-.373 2.124-.42 3.71H22v-15.75h1.61c.047 1.027.187 1.844.42 2.45.233.607.723 1.05 1.47 1.33s1.937.42 3.57.42h15.82c1.307 0 2.147-.21 2.52-.63.42-.373.63-.886.63-1.54 0-.606-.117-1.26-.35-1.96a16.607 16.607 0 00-.63-1.82l1.61-.7 5.53 12.11-.42.42c-.373-.046-1.377-.116-3.01-.21-1.633-.046-3.57-.07-5.81-.07H29.07zm31.71-2.8c0-1.026.35-1.89 1.05-2.59.7-.7 1.563-1.05 2.59-1.05.98 0 1.82.35 2.52 1.05.7.7 1.05 1.564 1.05 2.59 0 1.027-.35 1.89-1.05 2.59-.7.7-1.54 1.05-2.52 1.05-1.027 0-1.89-.35-2.59-1.05-.7-.7-1.05-1.563-1.05-2.59zm-39.83 23.378c0-3.313.63-5.857 1.89-7.63 1.26-1.773 2.87-2.66 4.83-2.66.7 0 1.47.14 2.31.42.887.28 1.75.77 2.59 1.47v1.61c-2.987.047-5.273.677-6.86 1.89-1.587 1.213-2.38 3.127-2.38 5.74 0 2.333.56 4.06 1.68 5.18 1.12 1.12 2.403 1.68 3.85 1.68 1.307 0 2.38-.42 3.22-1.26.84-.793 1.563-1.843 2.17-3.15a40.836 40.836 0 001.82-4.06 48.288 48.288 0 011.96-4.13c.747-1.26 1.657-2.31 2.73-3.15 1.073-.793 2.427-1.19 4.06-1.19 2.567 0 4.713 1.027 6.44 3.08 1.727 2.053 2.59 4.923 2.59 8.61 0 1.447-.14 2.917-.42 4.41a12.19 12.19 0 01-1.47 4.2h-8.05v-1.61c2.753-.327 4.69-1.213 5.81-2.66 1.167-1.447 1.75-3.15 1.75-5.11 0-1.913-.42-3.36-1.26-4.34-.84-.98-1.937-1.47-3.29-1.47-1.26 0-2.31.397-3.15 1.19-.793.84-1.493 1.89-2.1 3.15a173.428 173.428 0 00-1.82 4.06 23.55 23.55 0 01-2.03 4.06c-.747 1.307-1.703 2.357-2.87 3.15-1.12.84-2.543 1.26-4.27 1.26-3.127 0-5.53-1.213-7.21-3.64-1.68-2.427-2.52-5.46-2.52-9.1zm0 26.469c0-2.193.56-3.99 1.68-5.39 1.167-1.353 2.823-2.03 4.97-2.03 1.727 0 3.313.537 4.76 1.61 1.447 1.074 2.777 2.847 3.99 5.32 1.213 2.474 2.333 5.834 3.36 10.08h4.55c1.913 0 3.5-.42 4.76-1.26 1.26-.793 1.89-2.333 1.89-4.62 0-2.193-.7-3.943-2.1-5.25-1.353-1.26-3.477-2.146-6.37-2.66v-1.61h8.75a27.417 27.417 0 011.89 5.18c.513 1.867.77 3.92.77 6.16 0 2.567-.35 4.527-1.05 5.88-.653 1.4-1.587 2.38-2.8 2.94-1.213.56-2.637.84-4.27.84H28.79c-2.473 0-3.71.77-3.71 2.31 0 .56.187 1.19.56 1.89.373.747 1.143 1.61 2.31 2.59l-1.12 1.12c-3.687-2.146-5.53-4.713-5.53-7.7 0-3.08 1.563-4.97 4.69-5.67v-.14c-3.36-2.566-5.04-5.763-5.04-9.59zm4.13 2.59c0 2.24 1.027 4.574 3.08 7h9.38c-.84-3.36-1.773-5.833-2.8-7.42-.98-1.586-1.983-2.636-3.01-3.15-.98-.466-1.89-.7-2.73-.7-1.353 0-2.357.42-3.01 1.26-.607.84-.91 1.844-.91 3.01zm3.99 53.653c-1.633 0-2.823.14-3.57.42-.747.327-1.237.91-1.47 1.75-.233.887-.373 2.147-.42 3.78H22v-15.75h1.61c.047 1.027.187 1.844.42 2.45.233.607.723 1.05 1.47 1.33s1.937.42 3.57.42h15.05c1.633 0 2.917-.373 3.85-1.12.933-.7 1.4-1.936 1.4-3.71 0-1.54-.327-3.15-.98-4.83-.653-1.68-1.68-3.406-3.08-5.18H29.07c-1.633 0-2.823.14-3.57.42-.747.327-1.237.91-1.47 1.75-.233.887-.373 2.147-.42 3.78H22v-15.75h1.61c.047 1.074.187 1.914.42 2.52.233.607.723 1.027 1.47 1.26.747.28 1.937.42 3.57.42h15.89c1.26 0 2.077-.186 2.45-.56.42-.373.63-.886.63-1.54 0-.513-.07-1.026-.21-1.54a6.813 6.813 0 00-.49-1.47l1.61-.7 5.25 11.27-.42.42c-.42-.093-1.237-.21-2.45-.35a50.455 50.455 0 00-3.85-.14v.14c1.867 1.774 3.383 3.687 4.55 5.74a13.347 13.347 0 011.82 6.79c0 2.987-.747 5.064-2.24 6.23-1.447 1.167-3.383 1.75-5.81 1.75H29.07zm-.98 29.544l-1.12 1.12c-1.68-1.12-3.103-2.403-4.27-3.85-1.167-1.447-1.75-3.337-1.75-5.67 0-1.867.373-3.36 1.12-4.48a6.236 6.236 0 012.94-2.31c1.26-.467 2.613-.7 4.06-.7h20.86v-4.83h2.87v4.83h9.59l1.05 5.95c-1.773-.14-3.547-.233-5.32-.28-1.773-.047-3.547-.07-5.32-.07v10.36h-2.87v-8.19c0-.793-.163-1.353-.49-1.68-.327-.327-.887-.49-1.68-.49H30.54c-1.493 0-2.777.257-3.85.77-1.073.56-1.61 1.68-1.61 3.36 0 .98.233 1.983.7 3.01.513 1.027 1.283 2.077 2.31 3.15z" fill="#000"/></svg>