<svg width="268" height="732" fill="none" xmlns="http://www.w3.org/2000/svg"><path d="M252.611 681.104C250.456 702.63 235.179 721.337 226.5 728c-8.679 6.663-184.619 1.227-189 0-12.5-3.5-32.538-19.029-34.191-49.5-6.523-120.224.153-418.567 2.691-429 9-37 31.5-72 57.168-88.864 25.667-16.864 58.958-36.389 72.724-49.202L205.924 63c5.985 12.557 23.702 47.05 46.687 84.566 28.731 46.896 2.693 506.631 0 533.538z" fill="#DACAE7"/><path d="M10.54 401v-1.265c.99-.037 1.76-.147 2.31-.33.55-.183.935-.568 1.155-1.155.256-.587.385-1.503.385-2.75v-25.575c0-1.283-.147-2.2-.44-2.75-.257-.587-.752-.972-1.485-1.155-.734-.183-1.834-.293-3.3-.33v-1.265h5.225c2.493 0 4.693-.037 6.6-.11a89.748 89.748 0 014.95-.165c3.96 0 7.406.66 10.34 1.98 2.97 1.283 5.28 3.208 6.93 5.775 1.65 2.567 2.475 5.793 2.475 9.68 0 3.007-.55 5.72-1.65 8.14-1.1 2.383-2.604 4.418-4.51 6.105a19.537 19.537 0 01-6.38 3.85 20.817 20.817 0 01-7.37 1.32H10.54zm13.585-1.98c5.573 0 9.661-1.485 12.265-4.455 2.64-3.007 3.96-7.058 3.96-12.155 0-3.923-.66-7.077-1.98-9.46-1.284-2.383-3.117-4.107-5.5-5.17-2.384-1.1-5.207-1.65-8.47-1.65-2.017 0-3.41.22-4.18.66-.77.403-1.155 1.448-1.155 3.135V395.5c0 1.577.366 2.567 1.1 2.97.77.367 2.09.55 3.96.55zm38.535 2.805c-1.87 0-3.666-.44-5.39-1.32-1.686-.88-3.08-2.2-4.18-3.96-1.063-1.797-1.595-4.07-1.595-6.82 0-2.787.55-5.207 1.65-7.26 1.1-2.053 2.567-3.648 4.4-4.785a11.16 11.16 0 015.995-1.705c1.577 0 3.025.312 4.345.935a7.422 7.422 0 013.245 2.86c.844 1.283 1.265 2.915 1.265 4.895l-16.5 2.145v.605c0 3.373.77 6.013 2.31 7.92s3.594 2.86 6.16 2.86c1.467 0 2.824-.293 4.07-.88a14.336 14.336 0 003.355-2.31l.88.88a12.482 12.482 0 01-4.125 4.29c-1.686 1.1-3.648 1.65-5.885 1.65zm-.275-23.815c-1.906 0-3.373.678-4.4 2.035-1.026 1.357-1.668 3.025-1.925 5.005l11.385-1.485c-.22-1.577-.696-2.897-1.43-3.96-.733-1.063-1.943-1.595-3.63-1.595zm3.3-17.38c.66-.037 1.375.092 2.145.385.807.257 1.449.66 1.925 1.21-.806 1.65-1.98 3.337-3.52 5.06-1.54 1.687-3.153 3.062-4.84 4.125l-.605-1.045a18.324 18.324 0 003.135-4.675c.844-1.76 1.43-3.447 1.76-5.06zm26.396 35.585l.88.88c-.88 1.32-1.889 2.438-3.025 3.355-1.137.917-2.622 1.375-4.455 1.375-1.467 0-2.64-.293-3.52-.88a4.9 4.9 0 01-1.815-2.31 9.11 9.11 0 01-.55-3.19v-16.39H75.8V376.8h3.795v-7.535l4.675-.825a79.8 79.8 0 00-.22 4.18 158.744 158.744 0 00-.055 4.18h8.14v2.255H85.7c-.624 0-1.064.128-1.32.385-.257.257-.385.697-.385 1.32v13.53c0 1.173.201 2.182.605 3.025.44.843 1.32 1.265 2.64 1.265.77 0 1.558-.183 2.365-.55.806-.403 1.631-1.008 2.475-1.815zm10.96 5.61c-1.723 0-3.135-.44-4.235-1.32-1.063-.917-1.595-2.218-1.595-3.905 0-1.357.422-2.603 1.265-3.74s2.237-2.182 4.18-3.135c1.943-.953 4.583-1.833 7.92-2.64v-3.575c0-1.503-.33-2.75-.99-3.74-.623-.99-1.833-1.485-3.63-1.485-1.723 0-3.098.55-4.125 1.65-.99 1.063-1.687 2.732-2.09 5.005h-1.265v-6.875a21.57 21.57 0 014.07-1.485c1.467-.403 3.08-.605 4.84-.605 2.017 0 3.557.275 4.62.825 1.1.513 1.87 1.247 2.31 2.2.44.953.66 2.072.66 3.355v13.31c0 1.943.605 2.915 1.815 2.915.44 0 .935-.147 1.485-.44.587-.293 1.265-.898 2.035-1.815l.88.88c-1.687 2.897-3.703 4.345-6.05 4.345-2.42 0-3.905-1.228-4.455-3.685h-.11c-2.017 2.64-4.528 3.96-7.535 3.96zm2.035-3.245c1.76 0 3.593-.807 5.5-2.42v-7.37c-2.64.66-4.583 1.393-5.83 2.2-1.247.77-2.072 1.558-2.475 2.365-.367.77-.55 1.485-.55 2.145 0 1.063.33 1.852.99 2.365.66.477 1.448.715 2.365.715zm18.396 2.42v-1.265c.843-.037 1.503-.147 1.98-.33.477-.183.807-.568.99-1.155.22-.587.33-1.522.33-2.805V382.85c0-.953-.147-1.577-.44-1.87-.293-.293-.697-.44-1.21-.44-.403 0-.807.055-1.21.165a5.322 5.322 0 00-1.155.385l-.55-1.265 8.855-4.125.33.33c-.073.33-.165 1.045-.275 2.145a51.687 51.687 0 00-.11 3.52h.11c1.503-2.237 3.153-3.74 4.95-4.51a12.231 12.231 0 015.72-.935 37.8 37.8 0 010 8.14h-1.265c-.147-1.503-.495-2.548-1.045-3.135-.513-.623-1.247-.935-2.2-.935-1.21 0-2.292.257-3.245.77-.953.513-1.907 1.357-2.86 2.53v11.825c0 1.283.128 2.218.385 2.805.257.587.752.972 1.485 1.155.77.183 1.888.293 3.355.33V401h-12.925zm36.499-4.785l.88.88c-.88 1.32-1.888 2.438-3.025 3.355-1.136.917-2.621 1.375-4.455 1.375-1.466 0-2.64-.293-3.52-.88a4.904 4.904 0 01-1.815-2.31 9.126 9.126 0 01-.55-3.19v-16.39h-3.795V376.8h3.795v-7.535l4.675-.825a80.128 80.128 0 00-.22 4.18 161.83 161.83 0 00-.055 4.18h8.14v2.255h-6.435c-.623 0-1.063.128-1.32.385-.256.257-.385.697-.385 1.32v13.53c0 1.173.202 2.182.605 3.025.44.843 1.32 1.265 2.64 1.265.77 0 1.559-.183 2.365-.55.807-.403 1.632-1.008 2.475-1.815zm4.966 4.785v-1.265c.843-.037 1.503-.147 1.98-.33.476-.183.806-.568.99-1.155.22-.587.33-1.522.33-2.805V382.85c0-.953-.147-1.577-.44-1.87-.294-.293-.697-.44-1.21-.44-.404 0-.807.055-1.21.165a5.322 5.322 0 00-1.155.385l-.55-1.265 8.855-4.125.33.33c-.074.33-.165 1.045-.275 2.145a51.048 51.048 0 00-.11 3.52h.11c1.503-2.237 3.153-3.74 4.95-4.51a12.231 12.231 0 015.72-.935 37.8 37.8 0 010 8.14h-1.265c-.147-1.503-.495-2.548-1.045-3.135-.514-.623-1.247-.935-2.2-.935-1.21 0-2.292.257-3.245.77-.954.513-1.907 1.357-2.86 2.53v11.825c0 1.283.128 2.218.385 2.805.256.587.751.972 1.485 1.155.77.183 1.888.293 3.355.33V401h-12.925zm27.479.825c-1.723 0-3.135-.44-4.235-1.32-1.063-.917-1.595-2.218-1.595-3.905 0-1.357.422-2.603 1.265-3.74s2.237-2.182 4.18-3.135c1.943-.953 4.583-1.833 7.92-2.64v-3.575c0-1.503-.33-2.75-.99-3.74-.623-.99-1.833-1.485-3.63-1.485-1.723 0-3.098.55-4.125 1.65-.99 1.063-1.687 2.732-2.09 5.005h-1.265v-6.875a21.563 21.563 0 014.07-1.485c1.467-.403 3.08-.605 4.84-.605 2.017 0 3.557.275 4.62.825 1.1.513 1.87 1.247 2.31 2.2.44.953.66 2.072.66 3.355v13.31c0 1.943.605 2.915 1.815 2.915.44 0 .935-.147 1.485-.44.587-.293 1.265-.898 2.035-1.815l.88.88c-1.687 2.897-3.703 4.345-6.05 4.345-2.42 0-3.905-1.228-4.455-3.685h-.11c-2.017 2.64-4.528 3.96-7.535 3.96zm2.035-3.245c1.76 0 3.593-.807 5.5-2.42v-7.37c-2.64.66-4.583 1.393-5.83 2.2-1.247.77-2.072 1.558-2.475 2.365-.367.77-.55 1.485-.55 2.145 0 1.063.33 1.852.99 2.365.66.477 1.448.715 2.365.715zm42.156-3.135c0 1.283.11 2.218.33 2.805.257.587.715.972 1.375 1.155.697.183 1.687.293 2.97.33V401h-12.375v-1.265c.807-.037 1.448-.147 1.925-.33.477-.183.825-.568 1.045-1.155.22-.587.33-1.522.33-2.805V383.62c0-1.283-.293-2.292-.88-3.025-.55-.733-1.522-1.1-2.915-1.1-1.21 0-2.475.257-3.795.77-1.32.513-2.677 1.32-4.07 2.42v12.76c0 1.283.11 2.218.33 2.805.257.587.715.972 1.375 1.155.697.183 1.687.293 2.97.33V401h-12.375v-1.265c.843-.037 1.503-.147 1.98-.33.477-.183.807-.568.99-1.155.22-.587.33-1.522.33-2.805V382.96c0-.99-.147-1.632-.44-1.925-.293-.33-.697-.495-1.21-.495-.403 0-.807.055-1.21.165a5.322 5.322 0 00-1.155.385l-.55-1.265 8.855-4.125.33.33c-.073.33-.165.972-.275 1.925-.073.953-.11 1.962-.11 3.025h.11c1.393-1.467 2.897-2.658 4.51-3.575a10.488 10.488 0 015.335-1.43c2.347 0 3.978.587 4.895 1.76.917 1.137 1.375 2.658 1.375 4.565v13.145zm23.213.77l.88.88c-.88 1.32-1.888 2.438-3.025 3.355-1.137.917-2.622 1.375-4.455 1.375-1.467 0-2.64-.293-3.52-.88a4.904 4.904 0 01-1.815-2.31 9.103 9.103 0 01-.55-3.19v-16.39h-3.795V376.8h3.795v-7.535l4.675-.825a80.128 80.128 0 00-.22 4.18 157.457 157.457 0 00-.055 4.18h8.14v2.255h-6.435c-.623 0-1.063.128-1.32.385-.257.257-.385.697-.385 1.32v13.53c0 1.173.202 2.182.605 3.025.44.843 1.32 1.265 2.64 1.265.77 0 1.558-.183 2.365-.55.807-.403 1.632-1.008 2.475-1.815z" fill="#000"/><path d="M134.854 0c6.666 3.59 21.843 13.537 29.227 24.612L121.01 46.917c2.461-6.769-5.641-25.382-9.999-33.842L134.854 0z" fill="#FE4A0C"/><path d="M178.165 18.47l32.841 52.07-73.836 43.071-28.457-59.223s19.154-20 33.726-27.959 35.726-7.959 35.726-7.959z" fill="#CB3501"/></svg>