<svg width="84" height="182" fill="none" xmlns="http://www.w3.org/2000/svg"><path d="M74.158 1.681H64.12v7.722h10.038V1.681z" fill="#BEC0BF"/><path d="M75.188 2.969H72.87v5.147h2.317V2.97z" fill="#BEC0BF"/><path d="M30.273 21.758c2.368 1.647 2.789 3.517 2.703 4.247h18.532c.815-3.003 2.857-9.498 4.504-11.454 2.059-2.445 3.99-1.802 8.75-2.445 3.81-.515 4.076-7.679 3.733-11.196-9.78-.687-30.577-1.648-35.52 0C26.8 2.969 17.019 13.65 18.177 16.996c1.159 3.346 9.138 2.703 12.097 4.762z" fill="#D8D9D9"/><path d="M14.315 68.087c4.118-8.75 14.414-22.607 19.047-28.44h15.7c2.102.428 6.989 1.31 7.85 2.83 2.188 3.861-2.702 4.505-2.702 7.85 0 3.347 2.702 1.416 2.702 4.247 0 2.832-4.246 5.148-2.702 7.207 1.544 2.06 2.702 3.346 2.702 6.306s-4.246 3.089-4.246 7.979c0 4.89 20.59 13.255 23.035 15.7 2.446 2.446 7.207 27.798 8.108 40.539.9 12.74-1.416 35.647-6.306 42.983-4.89 7.335-57.525 6.949-68.335 2.702-10.81-4.247-8.494-20.848-9.138-38.993-.643-18.146 9.138-45.429 9.138-47.23 0-1.802-2.446-2.446-3.09-3.99-.643-1.544 3.09-8.751 8.237-19.69z" fill="#3BAB68"/><path d="M25.512 78.125C28.395 76.684 55.37 91.08 68.496 98.46c3.732 7.978 6.949 28.698 7.464 37.706.514 9.009-.258 29.986-3.861 34.49-3.603 4.504-53.536 3.346-58.169 0-4.633-3.346-5.148-27.54-3.86-43.498 1.286-15.958 11.839-47.23 15.442-49.032z" fill="#2E8551"/><path d="M53.31 26.648V40.29H31.818V26.65c1.33-.687 6.177-2.06 9.78-2.06 3.604 0 8.88 1.373 11.712 2.06zm20.333.644c-2.188-6.306-5.19-12.483-6.435-16.602l-6.048 1.802c2.016 2.617 4.246 7.207 6.048 10.553 1.281 2.38 11.582 16.987 12.097 15.443.515-1.544-4.012-6.44-5.662-11.196z" fill="#BEC0BF"/><path d="M26.12 124.3c-.973 0-1.88-.16-2.72-.48-.84-.333-1.58-.8-2.22-1.4a6.46 6.46 0 01-1.46-2.18c-.347-.84-.52-1.767-.52-2.78 0-1.093.2-2.073.6-2.94.4-.88.947-1.627 1.64-2.24a7.203 7.203 0 012.4-1.4 8.59 8.59 0 012.88-.48c.493 0 .993.033 1.5.1.52.067 1 .16 1.44.28a6.22 6.22 0 011.12.36v3.16h-.46c-.053-.787-.273-1.4-.66-1.84a3.134 3.134 0 00-1.44-.96c-.56-.2-1.147-.3-1.76-.3-.947 0-1.827.213-2.64.64-.813.427-1.467 1.08-1.96 1.96-.48.867-.72 1.98-.72 3.34 0 1.293.227 2.42.68 3.38.453.947 1.053 1.68 1.8 2.2.76.52 1.6.78 2.52.78.84 0 1.58-.193 2.22-.58.653-.4 1.187-.9 1.6-1.5.413-.6.687-1.207.82-1.82h.46l-.12 2.34c-.507.627-1.16 1.18-1.96 1.66-.8.467-1.813.7-3.04.7zm9.222-13.94c.107.24.173.48.2.72.027.227.04.433.04.62 0 .653-.12 1.253-.36 1.8-.24.533-.547.967-.92 1.3-.36.333-.727.533-1.1.6v-.48c.307-.227.547-.58.72-1.06.173-.493.26-.967.26-1.42 0-.173-.013-.373-.04-.6a1.614 1.614 0 00-.2-.62c.133-.187.333-.367.6-.54.267-.173.533-.28.8-.32zm4.61 13.94c-.68 0-1.333-.16-1.96-.48-.613-.32-1.12-.8-1.52-1.44-.386-.653-.58-1.48-.58-2.48 0-1.013.2-1.893.6-2.64.4-.747.934-1.327 1.6-1.74a4.062 4.062 0 012.18-.62c.574 0 1.1.113 1.58.34a2.7 2.7 0 011.18 1.04c.307.467.46 1.06.46 1.78l-6 .78v.22c0 1.227.28 2.187.84 2.88.56.693 1.307 1.04 2.24 1.04.534 0 1.027-.107 1.48-.32.454-.227.86-.507 1.22-.84l.32.32a4.54 4.54 0 01-1.5 1.56c-.613.4-1.326.6-2.14.6zm-.1-8.66c-.693 0-1.226.247-1.6.74-.373.493-.606 1.1-.7 1.82l4.14-.54c-.08-.573-.253-1.053-.52-1.44-.266-.387-.706-.58-1.32-.58zm8.179 8.66c-.947 0-1.673-.18-2.18-.54-.507-.36-.76-.82-.76-1.38 0-.2.04-.42.12-.66.08-.253.22-.5.42-.74h.46c.013.853.193 1.507.54 1.96.347.453.893.68 1.64.68.667 0 1.16-.16 1.48-.48.32-.32.48-.687.48-1.1 0-.373-.12-.68-.36-.92a2.892 2.892 0 00-.9-.62c-.36-.187-.747-.36-1.16-.52-.413-.173-.807-.36-1.18-.56a3.187 3.187 0 01-.9-.78c-.227-.307-.34-.693-.34-1.16 0-.733.293-1.347.88-1.84.587-.493 1.407-.74 2.46-.74.413 0 .833.04 1.26.12.427.067.827.207 1.2.42v2.3h-.46c-.093-.787-.347-1.34-.76-1.66-.413-.333-.9-.5-1.46-.5-.547 0-.96.12-1.24.36s-.42.553-.42.94c0 .36.113.66.34.9.24.227.54.427.9.6.373.173.76.347 1.16.52.413.16.8.353 1.16.58.373.213.673.487.9.82.24.32.36.727.36 1.22 0 .893-.347 1.58-1.04 2.06-.693.48-1.56.72-2.6.72zm10.843-2.04l.32.32c-.32.48-.687.887-1.1 1.22-.414.333-.954.5-1.62.5-.534 0-.96-.107-1.28-.32a1.777 1.777 0 01-.66-.84 3.3 3.3 0 01-.2-1.16v-5.96h-1.38v-.82h1.38v-2.74l1.7-.3c-.04.507-.067 1.013-.08 1.52-.014.507-.02 1.013-.02 1.52h2.96v.82h-2.34c-.227 0-.387.047-.48.14-.094.093-.14.253-.14.48v4.92c0 .427.073.793.22 1.1.16.307.48.46.96.46.28 0 .566-.067.86-.2.293-.147.593-.367.9-.66zM23.6 152.04v.46h-4.7v-.46c.307-.013.547-.053.72-.12.173-.067.293-.207.36-.42.08-.213.12-.553.12-1.02v-9.04c0-.36-.053-.593-.16-.7a.558.558 0 00-.44-.18c-.147 0-.293.02-.44.06a1.94 1.94 0 00-.42.14l-.2-.46 3.22-1.5.12.12a8.17 8.17 0 00-.1.7c-.027.347-.04.713-.04 1.1h.04v.02c.347-.493.78-.92 1.3-1.28.533-.373 1.167-.56 1.9-.56.627 0 1.207.167 1.74.5.547.32.98.793 1.3 1.42.333.613.5 1.373.5 2.28 0 .853-.153 1.607-.46 2.26a4.717 4.717 0 01-1.2 1.62 5.169 5.169 0 01-1.66 1c-.6.213-1.207.32-1.82.32-.307 0-.593-.02-.86-.06a5.919 5.919 0 01-.72-.12v2.36c0 .467.047.807.14 1.02.093.213.273.353.54.42.28.067.687.107 1.22.12zm.2-4.64c.867 0 1.58-.287 2.14-.86.56-.587.84-1.507.84-2.76 0-1.147-.233-2.047-.7-2.7-.467-.653-1.073-.98-1.82-.98-.453 0-.9.12-1.34.36a6.02 6.02 0 00-1.22.88v5.24c.32.333.673.553 1.06.66.4.107.747.16 1.04.16zm8.708.9c-.627 0-1.14-.16-1.54-.48-.387-.333-.58-.807-.58-1.42 0-.493.153-.947.46-1.36.306-.413.813-.793 1.52-1.14.706-.347 1.666-.667 2.88-.96v-1.3c0-.547-.12-1-.36-1.36-.227-.36-.667-.54-1.32-.54-.627 0-1.127.2-1.5.6-.36.387-.614.993-.76 1.82h-.46v-2.5a7.78 7.78 0 011.48-.54 6.612 6.612 0 011.76-.22c.733 0 1.293.1 1.68.3.4.187.68.453.84.8.16.347.24.753.24 1.22v4.84c0 .707.22 1.06.66 1.06.16 0 .34-.053.54-.16.213-.107.46-.327.74-.66l.32.32c-.614 1.053-1.347 1.58-2.2 1.58-.88 0-1.42-.447-1.62-1.34h-.04c-.734.96-1.647 1.44-2.74 1.44zm.74-1.18c.64 0 1.306-.293 2-.88v-2.68c-.96.24-1.667.507-2.12.8-.454.28-.754.567-.9.86-.134.28-.2.54-.2.78 0 .387.12.673.36.86.24.173.526.26.86.26zm6.689.88v-.46c.307-.013.547-.053.72-.12.173-.067.293-.207.36-.42.08-.213.12-.553.12-1.02v-4.58c0-.347-.053-.573-.16-.68-.107-.107-.253-.16-.44-.16-.147 0-.293.02-.44.06a1.94 1.94 0 00-.42.14l-.2-.46 3.22-1.5.12.12c-.027.12-.06.38-.1.78-.027.387-.04.813-.04 1.28h.04c.547-.813 1.147-1.36 1.8-1.64a4.454 4.454 0 012.08-.34c.107.987.107 1.973 0 2.96h-.46c-.053-.547-.18-.927-.38-1.14-.187-.227-.453-.34-.8-.34-.44 0-.833.093-1.18.28-.347.187-.693.493-1.04.92v4.3c0 .467.047.807.14 1.02.093.213.273.353.54.42.28.067.687.107 1.22.12v.46h-4.7zm13.273-1.74l.32.32a5.39 5.39 0 01-1.1 1.22c-.414.333-.954.5-1.62.5-.534 0-.96-.107-1.28-.32a1.778 1.778 0 01-.66-.84 3.3 3.3 0 01-.2-1.16v-5.96h-1.38v-.82h1.38v-2.74l1.7-.3c-.04.507-.067 1.013-.08 1.52-.014.507-.02 1.013-.02 1.52h2.96v.82h-2.34c-.227 0-.387.047-.48.14-.094.093-.14.253-.14.48v4.92c0 .427.073.793.22 1.1.16.307.48.46.96.46.28 0 .566-.067.86-.2.293-.147.593-.367.9-.66zm4.625-.28c0 .467.047.807.14 1.02.093.213.26.353.5.42.253.067.607.107 1.06.12v.46h-4.5v-.46c.294-.013.527-.053.7-.12.173-.067.3-.207.38-.42.08-.213.12-.553.12-1.02v-4.52c0-.373-.06-.613-.18-.72a.559.559 0 00-.44-.18c-.173 0-.36.033-.56.1-.187.053-.36.113-.52.18l-.2-.46 3.46-1.58.12.12a20.15 20.15 0 00-.06.86c-.013.467-.02 1.02-.02 1.66v4.54zm-.8-9.06c-.293 0-.54-.1-.74-.3-.2-.2-.3-.447-.3-.74 0-.28.1-.52.3-.72.2-.2.447-.3.74-.3.294 0 .54.1.74.3.2.2.3.44.3.72 0 .293-.1.54-.3.74-.2.2-.447.3-.74.3zm10.517 7.04c-.013-1.587-.04-3.147-.08-4.68a73.7 73.7 0 00-.22-4.58l1.84-.84a64.761 64.761 0 01-.24 4.88 47.294 47.294 0 01-.74 5.22h-.56zm.2 4.34c-.293 0-.54-.1-.74-.3-.2-.2-.3-.447-.3-.74 0-.28.1-.52.3-.72.2-.2.447-.3.74-.3.294 0 .54.1.74.3.2.2.3.44.3.72 0 .293-.1.54-.3.74-.2.2-.446.3-.74.3z" fill="#000"/></svg>