<svg width="186" height="278" fill="none" xmlns="http://www.w3.org/2000/svg"><rect x=".5" y=".5" width="185" height="132" rx="9.5" stroke="#81EC40"/><path d="M10.592 13.182l2.914 8.265h.115l2.915-8.265h1.247L14.178 23H12.95l-3.605-9.818h1.247zm10.873 9.971c-.665 0-1.249-.158-1.75-.474a3.225 3.225 0 01-1.17-1.328c-.278-.569-.417-1.234-.417-1.994 0-.767.139-1.437.417-2.01a3.218 3.218 0 011.17-1.332c.501-.316 1.085-.475 1.75-.475.664 0 1.246.159 1.744.475.502.316.892.76 1.17 1.333.281.572.422 1.242.422 2.009 0 .76-.14 1.425-.422 1.994a3.18 3.18 0 01-1.17 1.328c-.498.316-1.08.474-1.744.474zm0-1.016c.505 0 .92-.13 1.246-.388.326-.26.567-.6.724-1.021a3.91 3.91 0 00.235-1.372c0-.492-.079-.95-.235-1.375a2.32 2.32 0 00-.724-1.031c-.326-.262-.741-.393-1.246-.393-.506 0-.921.13-1.247.393a2.32 2.32 0 00-.724 1.03 3.95 3.95 0 00-.235 1.377c0 .492.078.949.235 1.37.157.422.398.763.724 1.022.326.259.741.388 1.247.388zm10.28-4.852l-1.017.288a1.889 1.889 0 00-.283-.494 1.371 1.371 0 00-.499-.402c-.21-.106-.48-.159-.81-.159-.45 0-.826.104-1.127.312-.297.205-.445.465-.445.782 0 .28.102.503.306.666.205.163.525.299.96.407l1.092.269c.659.16 1.15.404 1.472.733.323.326.484.747.484 1.261 0 .422-.121.8-.364 1.131-.24.333-.575.595-1.007.787-.431.192-.933.287-1.505.287-.751 0-1.373-.163-1.865-.489-.492-.326-.804-.802-.935-1.428l1.074-.269c.102.397.296.694.58.892.288.198.663.297 1.127.297.527 0 .946-.112 1.256-.335.313-.227.47-.499.47-.815 0-.256-.09-.47-.269-.643-.179-.175-.454-.306-.825-.393l-1.227-.287c-.674-.16-1.17-.408-1.486-.744-.313-.338-.47-.762-.47-1.27 0-.415.117-.783.35-1.103.237-.32.558-.57.964-.752a3.384 3.384 0 011.39-.274c.729 0 1.3.16 1.716.48.42.32.716.741.892 1.265zm5.633 8.476V15.636h1.093v1.17h.135c.083-.128.198-.29.345-.489.15-.201.364-.38.642-.537.281-.16.662-.24 1.141-.24.62 0 1.167.155 1.64.466.473.31.842.749 1.107 1.318.265.569.398 1.24.398 2.013 0 .78-.133 1.456-.398 2.028-.265.57-.633 1.01-1.102 1.323-.47.31-1.012.465-1.626.465-.473 0-.852-.078-1.136-.234a2.107 2.107 0 01-.657-.542 7.277 7.277 0 01-.354-.508h-.096v3.892h-1.132zm1.112-6.443c0 .556.082 1.047.245 1.472.163.422.401.753.714.992.314.237.697.355 1.15.355.474 0 .869-.125 1.185-.374.32-.252.56-.591.72-1.016.162-.428.244-.905.244-1.429 0-.518-.08-.984-.24-1.4a2.163 2.163 0 00-.714-.992c-.317-.246-.715-.37-1.194-.37-.46 0-.847.117-1.16.35-.313.23-.55.554-.71.97-.16.412-.24.892-.24 1.442zM45.605 23v-7.364h1.093v1.113h.077c.134-.365.377-.66.728-.887.352-.227.748-.34 1.19-.34a9.17 9.17 0 01.594.018v1.151a3.363 3.363 0 00-.264-.043 2.592 2.592 0 00-.427-.034 1.99 1.99 0 00-.958.226 1.7 1.7 0 00-.662.613c-.16.26-.24.555-.24.887V23h-1.131zm7.79.153c-.665 0-1.248-.158-1.75-.474a3.225 3.225 0 01-1.17-1.328c-.278-.569-.416-1.234-.416-1.994 0-.767.139-1.437.417-2.01a3.218 3.218 0 011.17-1.332c.501-.316 1.084-.475 1.75-.475.664 0 1.246.159 1.744.475.502.316.892.76 1.17 1.333.281.572.422 1.242.422 2.009 0 .76-.14 1.425-.422 1.994a3.18 3.18 0 01-1.17 1.328c-.498.316-1.08.474-1.745.474zm0-1.016c.505 0 .92-.13 1.247-.388.326-.26.567-.6.723-1.021a3.91 3.91 0 00.235-1.372c0-.492-.078-.95-.235-1.375a2.32 2.32 0 00-.723-1.031c-.326-.262-.742-.393-1.247-.393-.505 0-.92.13-1.246.393a2.32 2.32 0 00-.724 1.03 3.95 3.95 0 00-.235 1.377c0 .492.078.949.235 1.37.156.422.398.763.724 1.022.326.259.741.388 1.246.388zm7.844 1.016c-.613 0-1.155-.155-1.625-.465-.47-.313-.837-.754-1.102-1.323-.266-.572-.398-1.248-.398-2.028 0-.773.132-1.444.398-2.013.265-.569.634-1.009 1.107-1.319.473-.31 1.02-.464 1.64-.464.479 0 .858.08 1.136.24.281.156.495.335.642.536.15.198.267.361.35.49h.096v-3.625h1.131V23h-1.093v-1.131h-.134a7.277 7.277 0 01-.355.508 2.107 2.107 0 01-.656.542c-.285.156-.664.234-1.137.234zm.154-1.016c.454 0 .837-.118 1.15-.355.314-.24.552-.57.715-.992.163-.425.244-.916.244-1.472 0-.55-.08-1.03-.24-1.443-.16-.415-.396-.738-.709-.968-.313-.233-.7-.35-1.16-.35-.48 0-.88.123-1.199.369a2.21 2.21 0 00-.714.992 3.945 3.945 0 00-.235 1.4c0 .524.08 1 .24 1.429.163.425.403.764.719 1.016.32.25.716.374 1.189.374zm10.091-2.148v-4.353h1.132V23h-1.132v-1.246h-.076a2.415 2.415 0 01-.806.954c-.364.258-.824.388-1.38.388-.46 0-.87-.1-1.228-.302a2.114 2.114 0 01-.844-.92c-.204-.413-.306-.932-.306-1.559v-4.679h1.131v4.603c0 .537.15.965.45 1.284.304.32.691.48 1.16.48.282 0 .568-.072.859-.216.294-.144.54-.364.738-.662.202-.297.302-.675.302-1.136zM74.688 23v-7.364h1.131V23h-1.131zm.575-8.59a.805.805 0 01-.57-.226.724.724 0 01-.235-.542c0-.21.078-.391.235-.542.16-.15.35-.225.57-.225.22 0 .41.075.566.225.16.15.24.331.24.542 0 .211-.08.392-.24.542a.788.788 0 01-.566.225zm5.83 1.226v.96h-3.815v-.96h3.816zm-2.703-1.764h1.131v7.019c0 .32.047.559.14.719a.72.72 0 00.364.316c.15.051.308.077.474.077.125 0 .227-.007.307-.02l.192-.038.23 1.017a2.29 2.29 0 01-.321.086 2.361 2.361 0 01-.523.048c-.32 0-.632-.069-.94-.206a1.866 1.866 0 01-.757-.628c-.198-.282-.297-.636-.297-1.065v-7.325zm9.49 3.413l-1.016.288a1.888 1.888 0 00-.283-.494 1.373 1.373 0 00-.499-.402c-.21-.106-.48-.159-.81-.159-.45 0-.826.104-1.127.312-.297.205-.446.465-.446.782 0 .28.103.503.307.666.205.163.524.299.96.407l1.092.269c.658.16 1.15.404 1.472.733.323.326.484.747.484 1.261 0 .422-.121.8-.364 1.131-.24.333-.576.595-1.007.787-.431.192-.933.287-1.505.287-.751 0-1.373-.163-1.865-.489-.492-.326-.804-.802-.935-1.428l1.074-.269c.102.397.295.694.58.892.287.198.663.297 1.126.297.528 0 .947-.112 1.257-.335.313-.227.47-.499.47-.815 0-.256-.09-.47-.27-.643-.178-.175-.453-.306-.824-.393l-1.227-.287c-.674-.16-1.17-.408-1.486-.744-.313-.338-.47-.762-.47-1.27 0-.415.117-.783.35-1.103.236-.32.558-.57.964-.752a3.384 3.384 0 011.39-.274c.729 0 1.3.16 1.716.48.419.32.716.741.892 1.265zM93.514 23v-7.364h1.093v1.15h.096a1.85 1.85 0 01.743-.915c.342-.22.753-.33 1.232-.33.486 0 .89.11 1.213.33.326.218.58.523.762.916h.077a2.14 2.14 0 01.849-.906c.377-.227.829-.34 1.356-.34.659 0 1.197.206 1.616.618.418.409.628 1.047.628 1.913V23h-1.132v-4.928c0-.544-.148-.932-.445-1.165a1.653 1.653 0 00-1.05-.35c-.518 0-.92.156-1.204.47-.284.31-.426.703-.426 1.179V23h-1.15v-5.043c0-.419-.137-.756-.408-1.012-.272-.259-.622-.388-1.05-.388a1.55 1.55 0 00-.825.235 1.774 1.774 0 00-.614.652 1.93 1.93 0 00-.23.954V23h-1.131zm14.821.153c-.71 0-1.322-.156-1.836-.47a3.149 3.149 0 01-1.184-1.323c-.275-.569-.413-1.23-.413-1.984 0-.755.138-1.42.413-1.995.278-.578.664-1.029 1.16-1.352.498-.325 1.08-.489 1.745-.489.383 0 .762.064 1.136.192.374.128.714.336 1.021.623.307.285.551.662.734 1.132.182.47.273 1.048.273 1.735v.48h-5.676v-.978h4.525c0-.416-.083-.787-.249-1.113a1.876 1.876 0 00-.7-.771c-.3-.189-.655-.283-1.064-.283-.451 0-.841.112-1.17.335a2.21 2.21 0 00-.753.863 2.545 2.545 0 00-.263 1.141v.652c0 .556.096 1.028.287 1.415.195.383.465.675.81.877a2.38 2.38 0 001.204.297c.297 0 .565-.041.805-.125.243-.086.452-.214.628-.383.176-.173.312-.387.408-.643l1.093.307a2.43 2.43 0 01-.58.978 2.835 2.835 0 01-1.007.652c-.4.154-.849.23-1.347.23zm-.691-8.514l1.17-2.224h1.323l-1.495 2.224h-.998zm6.592 3.931V23h-1.131v-7.364h1.093v1.15h.096c.172-.373.434-.673.786-.9.352-.23.805-.345 1.361-.345.499 0 .935.102 1.309.306.374.202.665.508.873.92.208.41.311.928.311 1.554V23h-1.131v-4.602c0-.579-.15-1.03-.451-1.352-.3-.326-.712-.49-1.236-.49-.362 0-.684.08-.969.236a1.681 1.681 0 00-.666.685c-.163.3-.245.665-.245 1.093zm8.933 4.603c-.467 0-.89-.088-1.271-.264a2.184 2.184 0 01-.906-.772c-.223-.339-.335-.748-.335-1.227 0-.422.083-.764.249-1.026.166-.265.388-.473.666-.623.278-.15.585-.262.921-.336a11.2 11.2 0 011.021-.182c.447-.058.81-.1 1.088-.13.281-.032.486-.084.614-.158.131-.073.196-.201.196-.383v-.039c0-.473-.129-.84-.388-1.102-.256-.262-.644-.393-1.165-.393-.54 0-.964.118-1.27.354-.307.237-.523.49-.648.758l-1.073-.384c.191-.447.447-.795.767-1.045a2.868 2.868 0 011.054-.527 4.383 4.383 0 011.132-.154c.236 0 .508.03.815.087a2.6 2.6 0 01.896.34c.291.173.532.433.724.782.192.348.288.815.288 1.4V23h-1.132v-.997h-.057c-.077.16-.205.33-.384.513a2.213 2.213 0 01-.714.465c-.297.128-.66.192-1.088.192zm.172-1.017c.448 0 .825-.088 1.132-.263a1.798 1.798 0 00.939-1.559V19.3c-.048.058-.153.11-.316.158-.16.045-.345.085-.556.12a26.081 26.081 0 01-1.084.144c-.294.038-.569.1-.824.187-.253.083-.457.21-.614.379-.153.166-.23.393-.23.68 0 .393.145.69.436.892.294.198.667.297 1.117.297zm8.24 3.759c-.546 0-1.016-.07-1.409-.211a2.982 2.982 0 01-.983-.547 3.003 3.003 0 01-.619-.719l.902-.633a6.6 6.6 0 00.388.46c.157.176.371.328.642.456.275.131.635.197 1.079.197.595 0 1.085-.144 1.472-.432.387-.288.58-.738.58-1.352V21.64h-.096c-.083.134-.201.3-.355.498-.15.195-.367.37-.652.523-.281.15-.661.225-1.141.225-.594 0-1.128-.14-1.601-.422-.47-.281-.842-.69-1.117-1.227-.272-.537-.407-1.19-.407-1.956 0-.754.132-1.411.397-1.97.266-.563.635-.998 1.108-1.304.473-.31 1.019-.466 1.639-.466.48 0 .86.08 1.141.24.285.157.502.336.652.537.154.198.272.361.355.49h.115v-1.17h1.093v7.574c0 .633-.144 1.147-.431 1.544-.285.4-.668.692-1.151.877a4.338 4.338 0 01-1.601.283zm-.038-4.046c.454 0 .837-.104 1.15-.312a1.94 1.94 0 00.715-.896c.163-.39.244-.857.244-1.4 0-.53-.08-1-.24-1.405a2.102 2.102 0 00-.709-.954c-.313-.23-.7-.345-1.16-.345-.48 0-.879.121-1.199.364a2.223 2.223 0 00-.714.978c-.157.41-.235.863-.235 1.362 0 .511.08.963.24 1.356.163.39.402.697.719.92.319.221.716.332 1.189.332zm8.38 1.284c-.71 0-1.322-.156-1.836-.47a3.15 3.15 0 01-1.185-1.323c-.274-.569-.412-1.23-.412-1.984 0-.755.138-1.42.412-1.995a3.25 3.25 0 011.161-1.352c.498-.325 1.08-.489 1.745-.489.383 0 .762.064 1.136.192.374.128.714.336 1.021.623.307.285.551.662.733 1.132.183.47.274 1.048.274 1.735v.48h-5.676v-.978h4.525c0-.416-.083-.787-.249-1.113a1.876 1.876 0 00-.7-.771c-.301-.189-.655-.283-1.064-.283-.451 0-.841.112-1.17.335a2.21 2.21 0 00-.753.863 2.532 2.532 0 00-.263 1.141v.652c0 .556.095 1.028.287 1.415.195.383.465.675.81.877a2.38 2.38 0 001.204.297c.297 0 .565-.041.805-.125.243-.086.452-.214.628-.383.176-.173.312-.387.408-.643l1.093.307a2.43 2.43 0 01-.58.978 2.835 2.835 0 01-1.007.652c-.4.154-.849.23-1.347.23zm4.77-.153v-7.364h1.093v1.113h.076c.135-.365.378-.66.729-.887.352-.227.748-.34 1.189-.34a9.281 9.281 0 01.595.018v1.151a3.472 3.472 0 00-.264-.043 2.596 2.596 0 00-.427-.034c-.358 0-.677.075-.959.226a1.652 1.652 0 00-.901 1.5V23h-1.131zm10.239-5.715l-1.017.288a1.88 1.88 0 00-.283-.494 1.366 1.366 0 00-.498-.402c-.211-.106-.481-.159-.81-.159-.451 0-.827.104-1.127.312-.297.205-.446.465-.446.782 0 .28.102.503.307.666.205.163.524.299.959.407l1.093.269c.658.16 1.149.404 1.472.733.322.326.484.747.484 1.261 0 .422-.122.8-.365 1.131-.239.333-.575.595-1.006.787-.432.192-.934.287-1.506.287-.751 0-1.372-.163-1.864-.489-.493-.326-.804-.802-.935-1.428l1.074-.269c.102.397.295.694.58.892.287.198.663.297 1.126.297.528 0 .946-.112 1.256-.335.313-.227.47-.499.47-.815a.856.856 0 00-.268-.643c-.179-.175-.454-.306-.825-.393l-1.227-.287c-.675-.16-1.17-.408-1.486-.744-.314-.338-.47-.762-.47-1.27 0-.415.116-.783.35-1.103.236-.32.557-.57.963-.752a3.387 3.387 0 011.391-.274c.728 0 1.3.16 1.716.48.419.32.716.741.892 1.265zM10.036 45v-7.364h1.13V45h-1.13zm.575-8.59a.805.805 0 01-.57-.226.724.724 0 01-.236-.542c0-.21.079-.392.235-.542.16-.15.35-.225.57-.225.221 0 .41.075.567.225.16.15.24.331.24.542 0 .211-.08.392-.24.542a.788.788 0 01-.566.225zm3.76 4.16V45h-1.132v-7.364h1.093v1.15h.096c.173-.373.435-.673.786-.9.352-.23.806-.346 1.362-.346.498 0 .935.103 1.308.307.375.202.665.508.873.92.208.41.312.928.312 1.554V45h-1.132v-4.602c0-.579-.15-1.03-.45-1.352-.3-.326-.713-.49-1.237-.49-.361 0-.684.08-.969.236a1.68 1.68 0 00-.666.685c-.163.3-.245.665-.245 1.093zm9.546 4.583c-.614 0-1.156-.155-1.626-.465-.47-.313-.837-.754-1.102-1.323-.265-.572-.398-1.248-.398-2.028 0-.773.133-1.444.398-2.013s.634-1.008 1.107-1.319c.473-.31 1.02-.465 1.64-.465.48 0 .858.08 1.136.24.281.157.495.336.642.537.15.198.267.361.35.49h.096v-3.625h1.132V45h-1.093v-1.131h-.135a7.283 7.283 0 01-.354.508 2.106 2.106 0 01-.657.541c-.285.157-.663.235-1.136.235zm.153-1.016c.454 0 .837-.118 1.15-.355.314-.24.552-.57.715-.992.163-.425.244-.916.244-1.472 0-.55-.08-1.03-.24-1.443-.16-.415-.396-.738-.709-.968-.313-.233-.7-.35-1.16-.35-.48 0-.879.123-1.198.369a2.21 2.21 0 00-.715.992 3.945 3.945 0 00-.235 1.4c0 .524.08 1 .24 1.429.163.425.403.764.72 1.016.319.25.715.374 1.188.374zm10.091-2.148v-4.353h1.132V45H34.16v-1.246h-.076a2.417 2.417 0 01-.806.954c-.364.258-.824.388-1.38.388-.46 0-.87-.1-1.228-.302a2.114 2.114 0 01-.843-.92c-.205-.413-.307-.932-.307-1.559v-4.679h1.131v4.603c0 .537.15.965.45 1.284.305.32.691.48 1.161.48.281 0 .567-.072.858-.216a1.87 1.87 0 00.738-.661c.202-.298.302-.676.302-1.137zm8.42-2.703l-1.016.287a1.886 1.886 0 00-.283-.494 1.371 1.371 0 00-.499-.402c-.21-.106-.48-.158-.81-.158-.45 0-.826.103-1.127.311-.297.205-.445.465-.445.782 0 .28.102.503.306.666.205.163.525.299.96.407l1.092.269c.659.16 1.15.404 1.472.733.323.326.484.747.484 1.261 0 .422-.121.8-.364 1.132-.24.332-.575.594-1.007.786-.431.191-.933.287-1.505.287-.751 0-1.373-.163-1.865-.489-.492-.326-.804-.802-.935-1.428l1.074-.269c.102.397.296.694.58.892.288.198.663.297 1.127.297.527 0 .946-.112 1.256-.335.313-.227.47-.499.47-.815 0-.256-.09-.47-.269-.643-.179-.175-.454-.306-.825-.393l-1.227-.288c-.674-.16-1.17-.407-1.486-.742-.313-.34-.47-.763-.47-1.271 0-.415.117-.783.35-1.103.237-.32.558-.57.964-.752a3.384 3.384 0 011.39-.273c.729 0 1.3.16 1.716.479.419.32.716.741.892 1.265zm5.04-1.65v.96h-3.816v-.96h3.816zm-2.704-1.764h1.131v7.019c0 .32.047.559.14.719a.72.72 0 00.364.316c.15.051.308.077.474.077.125 0 .227-.007.307-.02l.192-.038.23 1.017a2.29 2.29 0 01-.321.086 2.362 2.362 0 01-.523.048c-.32 0-.633-.069-.94-.206a1.866 1.866 0 01-.757-.628c-.198-.282-.297-.636-.297-1.065v-7.325zM49.323 45v-7.364h1.093v1.113h.076a1.77 1.77 0 01.73-.887c.35-.227.747-.34 1.188-.34a9.281 9.281 0 01.594.018v1.151a3.348 3.348 0 00-.263-.043 2.593 2.593 0 00-.427-.034c-.358 0-.678.076-.959.226a1.699 1.699 0 00-.661.613c-.16.26-.24.555-.24.887V45h-1.131zm5.023 0v-7.364h1.131V45h-1.131zm.575-8.59a.804.804 0 01-.57-.226.724.724 0 01-.236-.542c0-.21.079-.392.235-.542.16-.15.35-.225.57-.225.221 0 .41.075.567.225.16.15.24.331.24.542 0 .211-.08.392-.24.542a.788.788 0 01-.566.225zm5.715 8.743c-.709 0-1.321-.156-1.836-.47a3.154 3.154 0 01-1.184-1.323c-.275-.569-.412-1.23-.412-1.984 0-.755.137-1.42.412-1.995a3.253 3.253 0 011.16-1.352c.499-.326 1.08-.489 1.745-.489.384 0 .763.064 1.137.192s.714.336 1.02.623c.308.285.552.662.734 1.132.182.47.273 1.048.273 1.735v.48H58.01v-.978h4.526c0-.416-.083-.786-.25-1.112a1.878 1.878 0 00-.7-.772c-.3-.189-.654-.283-1.063-.283-.451 0-.841.112-1.17.335-.326.22-.577.509-.753.863a2.535 2.535 0 00-.264 1.141v.652c0 .556.096 1.028.288 1.414.195.384.465.676.81.878.345.198.746.297 1.203.297.298 0 .566-.041.806-.125.243-.086.452-.214.628-.383.176-.173.312-.387.407-.642l1.094.306a2.438 2.438 0 01-.58.978 2.826 2.826 0 01-1.007.652c-.4.154-.849.23-1.348.23zm5.902-9.971V45h-1.131v-9.818h1.131zm7.288 4.103l-1.016.288a1.886 1.886 0 00-.283-.494 1.372 1.372 0 00-.499-.402c-.21-.106-.48-.158-.81-.158-.45 0-.826.103-1.126.311-.298.205-.446.465-.446.782 0 .28.102.503.306.666.205.163.525.299.96.407l1.092.269c.659.16 1.15.404 1.472.733.323.326.484.747.484 1.261 0 .422-.121.8-.364 1.132-.24.332-.575.594-1.007.786-.431.191-.933.287-1.505.287-.751 0-1.373-.163-1.865-.489-.492-.326-.804-.802-.935-1.428l1.074-.269c.102.397.296.694.58.892.288.198.663.297 1.127.297.527 0 .946-.112 1.256-.335.313-.227.47-.499.47-.815 0-.256-.09-.47-.269-.643-.179-.175-.454-.306-.824-.393l-1.228-.288c-.674-.16-1.17-.407-1.486-.742-.313-.34-.47-.763-.47-1.271 0-.415.117-.783.35-1.103.237-.32.558-.57.964-.752a3.384 3.384 0 011.39-.273c.729 0 1.301.16 1.716.479.42.32.716.741.892 1.265zm8.626 5.868c-.69 0-1.285-.163-1.784-.489a3.187 3.187 0 01-1.15-1.347c-.269-.572-.403-1.225-.403-1.96 0-.748.138-1.408.412-1.98a3.259 3.259 0 011.16-1.348c.5-.326 1.08-.489 1.746-.489.517 0 .984.096 1.4.288.415.192.755.46 1.02.805.266.346.43.748.494 1.209h-1.131c-.086-.336-.278-.633-.575-.892-.294-.262-.69-.393-1.19-.393-.44 0-.827.115-1.16.345-.329.227-.586.548-.771.964-.182.412-.273.896-.273 1.452 0 .57.089 1.065.268 1.486.182.422.438.75.767.983.332.233.722.35 1.17.35.294 0 .56-.051.8-.153.24-.103.443-.25.61-.441a1.69 1.69 0 00.354-.69h1.131a2.62 2.62 0 01-.474 1.174c-.25.345-.58.62-.993.824-.409.202-.885.302-1.428.302zm7.54 0c-.664 0-1.247-.158-1.749-.474a3.225 3.225 0 01-1.17-1.328c-.278-.569-.417-1.234-.417-1.995 0-.767.14-1.436.417-2.008a3.218 3.218 0 011.17-1.333c.502-.316 1.085-.474 1.75-.474s1.246.158 1.745.474c.502.316.891.76 1.17 1.333.28.572.421 1.242.421 2.008 0 .761-.14 1.426-.421 1.995a3.18 3.18 0 01-1.17 1.328c-.499.316-1.08.474-1.745.474zm0-1.016c.506 0 .921-.13 1.247-.388.326-.26.568-.6.724-1.021a3.91 3.91 0 00.235-1.372c0-.492-.078-.95-.235-1.375a2.32 2.32 0 00-.724-1.031c-.326-.262-.741-.393-1.246-.393s-.92.13-1.247.393a2.32 2.32 0 00-.724 1.03 3.95 3.95 0 00-.234 1.377c0 .492.078.949.234 1.37.157.423.398.763.724 1.022.326.259.742.388 1.247.388zm9.705-2.148v-4.353h1.132V45h-1.132v-1.246h-.077a2.416 2.416 0 01-.805.954c-.364.258-.825.388-1.38.388-.46 0-.87-.1-1.228-.302a2.114 2.114 0 01-.844-.92c-.204-.413-.306-.932-.306-1.559v-4.679h1.13v4.603c0 .537.151.965.451 1.284.304.32.69.48 1.16.48.282 0 .568-.072.859-.216a1.87 1.87 0 00.738-.661c.202-.298.302-.676.302-1.137zm-.748-5.235l-.997-1.342-.997 1.342H95.88v-.076l1.553-1.995h1.036l1.553 1.995v.076h-1.074zm7.154.882v.96h-3.816v-.96h3.816zm-2.704-1.764h1.132v7.019c0 .32.046.559.139.719a.72.72 0 00.364.316c.15.051.309.077.475.077.124 0 .227-.007.307-.02l.191-.038.23 1.017a2.236 2.236 0 01-.321.086 2.354 2.354 0 01-.522.048c-.32 0-.633-.069-.94-.206a1.86 1.86 0 01-.757-.628c-.199-.282-.298-.636-.298-1.065v-7.325zm7.414 9.281c-.709 0-1.321-.156-1.836-.47a3.155 3.155 0 01-1.184-1.323c-.275-.569-.412-1.23-.412-1.984 0-.755.137-1.42.412-1.995a3.254 3.254 0 011.16-1.352c.499-.326 1.08-.489 1.745-.489.384 0 .762.064 1.136.192a2.82 2.82 0 011.022.623c.306.285.551.662.733 1.132.182.47.273 1.048.273 1.735v.48h-5.676v-.978h4.526c0-.416-.083-.786-.25-1.112a1.88 1.88 0 00-.699-.772c-.301-.189-.656-.283-1.065-.283-.45 0-.84.112-1.17.335-.325.22-.576.509-.752.863a2.533 2.533 0 00-.264 1.141v.652c0 .556.096 1.028.288 1.414.195.384.465.676.81.878.345.198.746.297 1.203.297.298 0 .566-.041.806-.125.243-.086.452-.214.628-.383a1.76 1.76 0 00.407-.642l1.093.306a2.416 2.416 0 01-.58.978 2.818 2.818 0 01-1.007.652 3.73 3.73 0 01-1.347.23zm4.77-.153v-7.364h1.093v1.113h.077c.134-.365.377-.66.729-.887.351-.227.748-.34 1.189-.34a9.196 9.196 0 01.594.018v1.151a3.323 3.323 0 00-.263-.043 2.604 2.604 0 00-.427-.034c-.358 0-.678.076-.959.226a1.7 1.7 0 00-.662.613 1.66 1.66 0 00-.239.887V45h-1.132zm7.19.173c-.466 0-.89-.088-1.27-.264a2.171 2.171 0 01-.906-.772c-.224-.339-.336-.748-.336-1.227 0-.422.083-.764.249-1.026.167-.265.389-.473.667-.623.278-.15.585-.262.92-.336a11.2 11.2 0 011.021-.182c.448-.058.811-.1 1.089-.13.281-.032.485-.084.613-.158.131-.073.197-.201.197-.383v-.039c0-.473-.13-.84-.388-1.102-.256-.262-.644-.393-1.165-.393-.541 0-.964.118-1.271.354-.307.237-.522.49-.647.758l-1.074-.384c.192-.447.448-.795.767-1.045a2.872 2.872 0 011.055-.527 4.37 4.37 0 011.131-.154c.237 0 .508.03.815.087.31.054.609.168.897.34.291.173.532.433.724.782.191.348.287.815.287 1.4V45h-1.131v-.997h-.058c-.076.16-.204.33-.383.513a2.207 2.207 0 01-.715.465c-.297.128-.66.192-1.088.192zm.173-1.017c.447 0 .824-.088 1.131-.263a1.791 1.791 0 00.94-1.559V41.3c-.048.057-.154.11-.317.158a5.282 5.282 0 01-.556.12 24.652 24.652 0 01-1.083.144c-.294.038-.569.1-.825.187-.252.083-.457.21-.613.379-.154.166-.23.393-.23.68 0 .393.145.69.436.892.294.198.666.297 1.117.297zm5.267.844v-7.364h1.132V45h-1.132zm.576-8.59a.805.805 0 01-.571-.226.723.723 0 01-.235-.542c0-.21.078-.392.235-.542.16-.15.35-.225.571-.225.22 0 .409.075.565.225.16.15.24.331.24.542 0 .211-.08.392-.24.542a.786.786 0 01-.565.225zm5.715 8.743c-.709 0-1.321-.156-1.836-.47a3.155 3.155 0 01-1.184-1.323c-.275-.569-.412-1.23-.412-1.984 0-.755.137-1.42.412-1.995a3.254 3.254 0 011.16-1.352c.499-.326 1.08-.489 1.745-.489.384 0 .762.064 1.136.192.374.128.715.336 1.021.623.307.285.552.662.734 1.132.182.47.273 1.048.273 1.735v.48h-5.676v-.978h4.526c0-.416-.083-.786-.25-1.112a1.876 1.876 0 00-.7-.772c-.3-.189-.655-.283-1.064-.283-.45 0-.84.112-1.17.335a2.21 2.21 0 00-.752.863 2.533 2.533 0 00-.264 1.141v.652c0 .556.096 1.028.288 1.414.195.384.465.676.81.878.345.198.746.297 1.203.297.297 0 .566-.041.806-.125.243-.086.452-.214.628-.383a1.76 1.76 0 00.407-.642l1.093.306a2.416 2.416 0 01-.58.978 2.827 2.827 0 01-1.007.652 3.73 3.73 0 01-1.347.23zm5.902-4.583V45h-1.132v-7.364h1.093v1.15h.096c.173-.373.435-.673.786-.9.352-.23.806-.346 1.362-.346.499 0 .935.103 1.309.307.374.202.664.508.872.92.208.41.312.928.312 1.554V45h-1.132v-4.602c0-.579-.15-1.03-.45-1.352-.301-.326-.713-.49-1.237-.49-.361 0-.684.08-.968.236a1.677 1.677 0 00-.667.685c-.163.3-.244.665-.244 1.093zm9.968-2.934v.96h-3.816v-.96h3.816zm-2.704-1.764h1.131v7.019c0 .32.047.559.139.719a.722.722 0 00.365.316c.15.051.308.077.474.077.125 0 .227-.007.307-.02l.192-.038.23 1.017a2.313 2.313 0 01-.321.086 2.37 2.37 0 01-.523.048 2.28 2.28 0 01-.939-.206 1.863 1.863 0 01-.758-.628c-.198-.282-.297-.636-.297-1.065v-7.325zm11.29 9.281c-.71 0-1.322-.156-1.836-.47a3.149 3.149 0 01-1.184-1.323c-.275-.569-.413-1.23-.413-1.984 0-.755.138-1.42.413-1.995.278-.578.664-1.029 1.16-1.352.498-.326 1.08-.489 1.745-.489.383 0 .762.064 1.136.192.374.128.714.336 1.021.623.307.285.551.662.734 1.132.182.47.273 1.048.273 1.735v.48h-5.676v-.978h4.525c0-.416-.083-.786-.249-1.112a1.876 1.876 0 00-.7-.772c-.3-.189-.655-.283-1.064-.283-.451 0-.841.112-1.17.335a2.21 2.21 0 00-.753.863 2.545 2.545 0 00-.263 1.141v.652c0 .556.096 1.028.287 1.414.195.384.465.676.81.878a2.38 2.38 0 001.204.297c.297 0 .565-.041.805-.125.243-.086.452-.214.628-.383a1.75 1.75 0 00.408-.642l1.093.306a2.43 2.43 0 01-.58.978 2.835 2.835 0 01-1.007.652c-.4.154-.849.23-1.347.23zm5.901-4.583V45h-1.131v-7.364h1.093v1.15h.096c.172-.373.434-.673.786-.9.352-.23.805-.346 1.361-.346.499 0 .935.103 1.309.307.374.202.665.508.873.92.208.41.311.928.311 1.554V45h-1.131v-4.602c0-.579-.15-1.03-.451-1.352-.3-.326-.712-.49-1.236-.49-.362 0-.684.08-.969.236a1.681 1.681 0 00-.666.685c-.163.3-.245.665-.245 1.093zM10.036 67v-7.364h1.093v1.15h.095a1.85 1.85 0 01.743-.915c.342-.22.753-.33 1.233-.33.485 0 .89.11 1.213.33.325.218.58.523.762.916h.076c.189-.38.472-.682.849-.906.377-.227.83-.34 1.357-.34.658 0 1.197.206 1.615.618.419.409.628 1.047.628 1.913V67h-1.13v-4.928c0-.544-.149-.932-.446-1.165a1.65 1.65 0 00-1.05-.35c-.518 0-.919.156-1.203.47-.285.31-.427.703-.427 1.179V67h-1.15v-5.043c0-.419-.136-.756-.408-1.012-.271-.259-.621-.388-1.05-.388a1.55 1.55 0 00-.824.235 1.774 1.774 0 00-.614.652 1.93 1.93 0 00-.23.954V67h-1.131zm14.724.153c-.664 0-1.248-.158-1.75-.474a3.225 3.225 0 01-1.17-1.328c-.277-.569-.416-1.234-.416-1.995 0-.767.139-1.436.417-2.008a3.218 3.218 0 011.17-1.333c.501-.316 1.085-.474 1.75-.474.664 0 1.246.158 1.744.474.502.316.892.76 1.17 1.333.281.572.422 1.242.422 2.008 0 .761-.14 1.426-.422 1.995a3.18 3.18 0 01-1.17 1.328c-.498.316-1.08.474-1.745.474zm0-1.016c.505 0 .92-.13 1.247-.388.326-.26.567-.6.724-1.021a3.91 3.91 0 00.235-1.371 3.96 3.96 0 00-.235-1.376 2.32 2.32 0 00-.724-1.031c-.326-.262-.742-.393-1.247-.393-.505 0-.92.13-1.246.393a2.32 2.32 0 00-.724 1.03 3.95 3.95 0 00-.235 1.377c0 .492.078.949.235 1.37.157.422.398.763.724 1.022.326.259.741.388 1.246.388zm5.53 3.624c-.193 0-.364-.016-.514-.048a1.35 1.35 0 01-.311-.086l.287-.997c.275.07.518.096.729.077a.873.873 0 00.56-.283c.167-.166.319-.436.456-.81l.211-.576-2.723-7.402h1.227l2.033 5.868h.077l2.032-5.868h1.228l-3.126 8.438a3.17 3.17 0 01-.523.944 1.96 1.96 0 01-.723.561 2.233 2.233 0 01-.92.182zm9.609-2.608c-.71 0-1.322-.156-1.836-.47a3.154 3.154 0 01-1.184-1.323c-.275-.569-.413-1.23-.413-1.984 0-.755.138-1.42.413-1.995a3.253 3.253 0 011.16-1.352c.498-.326 1.08-.489 1.745-.489.383 0 .762.064 1.136.192.374.128.714.336 1.021.623.307.285.551.662.733 1.132.183.47.274 1.048.274 1.735v.48h-5.676v-.978h4.525c0-.416-.083-.786-.25-1.112a1.878 1.878 0 00-.699-.772c-.3-.189-.655-.283-1.064-.283-.45 0-.84.112-1.17.335-.326.22-.577.509-.753.863a2.535 2.535 0 00-.263 1.141v.652c0 .556.096 1.028.287 1.415.195.383.465.675.81.877a2.38 2.38 0 001.204.297c.297 0 .565-.041.805-.125.243-.086.452-.214.628-.383a1.75 1.75 0 00.408-.642l1.093.306a2.427 2.427 0 01-.58.978 2.826 2.826 0 01-1.007.652c-.4.154-.849.23-1.347.23zM45.8 62.57V67h-1.13v-7.364h1.093v1.15h.096c.172-.373.434-.673.786-.9.352-.23.805-.346 1.361-.346.499 0 .935.103 1.31.307.373.202.664.508.872.92.208.41.311.928.311 1.554V67h-1.131v-4.602c0-.579-.15-1.03-.45-1.352-.301-.326-.713-.49-1.238-.49-.36 0-.684.08-.968.236a1.68 1.68 0 00-.666.685c-.163.3-.245.665-.245 1.093zm7.897 0V67h-1.131v-7.364h1.093v1.15h.096c.172-.373.434-.673.786-.9.352-.23.805-.346 1.361-.346.499 0 .935.103 1.31.307.373.202.664.508.872.92.207.41.311.928.311 1.554V67h-1.131v-4.602c0-.579-.15-1.03-.45-1.352-.301-.326-.713-.49-1.238-.49-.36 0-.684.08-.968.236a1.68 1.68 0 00-.666.685c-.163.3-.245.665-.245 1.093zm9.853 4.583c-.71 0-1.321-.156-1.836-.47a3.153 3.153 0 01-1.184-1.323c-.275-.569-.412-1.23-.412-1.984 0-.755.137-1.42.412-1.995a3.252 3.252 0 011.16-1.352c.499-.326 1.08-.489 1.745-.489.384 0 .762.064 1.136.192.374.128.715.336 1.021.623.307.285.552.662.734 1.132.182.47.273 1.048.273 1.735v.48h-5.676v-.978h4.526c0-.416-.084-.786-.25-1.112a1.878 1.878 0 00-.7-.772c-.3-.189-.655-.283-1.064-.283-.45 0-.84.112-1.17.335-.326.22-.577.509-.752.863a2.535 2.535 0 00-.264 1.141v.652c0 .556.096 1.028.288 1.415.195.383.465.675.81.877.345.198.746.297 1.203.297.297 0 .566-.041.806-.125.242-.086.452-.214.628-.383a1.76 1.76 0 00.407-.642l1.093.306a2.416 2.416 0 01-.58.978 2.828 2.828 0 01-1.007.652c-.4.154-.848.23-1.347.23zm10.485 54.608v-10.125h1.094v1.17h.134c.083-.128.198-.291.345-.489.15-.201.364-.38.642-.537.282-.16.662-.24 1.141-.24.62 0 1.167.155 1.64.466.473.31.842.749 1.107 1.318.266.569.398 1.24.398 2.013 0 .78-.132 1.456-.398 2.028-.265.569-.633 1.01-1.102 1.323-.47.31-1.012.465-1.626.465-.472 0-.851-.078-1.136-.234a2.116 2.116 0 01-.656-.542 7.426 7.426 0 01-.355-.508h-.096v3.892h-1.132zm1.113-6.443c0 .556.081 1.047.244 1.472.163.422.401.753.715.992.313.237.696.355 1.15.355.473 0 .868-.125 1.184-.374.32-.252.56-.591.72-1.016a3.99 3.99 0 00.244-1.429c0-.518-.08-.984-.24-1.4a2.166 2.166 0 00-.714-.992c-.317-.246-.714-.369-1.194-.369-.46 0-.847.116-1.16.35-.313.23-.55.553-.71.968-.16.412-.24.893-.24 1.443zm9.281 3.855c-.467 0-.89-.088-1.27-.264a2.177 2.177 0 01-.907-.772c-.223-.339-.335-.748-.335-1.227 0-.422.083-.764.25-1.026a1.76 1.76 0 01.666-.623 3.49 3.49 0 01.92-.336c.339-.077.68-.137 1.021-.182.448-.058.81-.101 1.088-.13.282-.032.486-.084.614-.158.131-.073.197-.201.197-.383v-.039c0-.473-.13-.84-.389-1.102-.255-.262-.644-.393-1.165-.393-.54 0-.963.118-1.27.354-.307.237-.523.489-.647.758l-1.074-.384c.192-.447.447-.795.767-1.045a2.88 2.88 0 011.055-.527c.383-.102.76-.154 1.131-.154.236 0 .508.029.815.087.31.054.609.168.896.34.291.173.533.433.724.782.192.348.288.815.288 1.399V119h-1.131v-.997h-.058c-.077.16-.204.331-.383.513a2.217 2.217 0 01-.715.465c-.297.128-.66.192-1.088.192zm.173-1.017c.447 0 .824-.088 1.131-.263a1.797 1.797 0 00.94-1.558v-1.036c-.048.058-.154.11-.317.158-.16.045-.345.085-.556.12-.208.032-.41.061-.609.086a36.76 36.76 0 00-.474.058 4.319 4.319 0 00-.825.187 1.416 1.416 0 00-.614.379c-.153.166-.23.393-.23.68 0 .393.146.691.437.892.294.198.666.297 1.117.297zm5.267.844v-7.364h1.093v1.113h.077c.134-.365.377-.66.728-.887a2.145 2.145 0 011.19-.341c.083 0 .186.002.311.005s.219.008.283.014v1.151a3.102 3.102 0 00-.264-.043 2.636 2.636 0 00-.427-.034 1.99 1.99 0 00-.958.226 1.698 1.698 0 00-.662.613c-.16.259-.24.555-.24.887V119h-1.13zm10.987.173c-.467 0-.89-.088-1.27-.264a2.178 2.178 0 01-.907-.772c-.224-.339-.335-.748-.335-1.227 0-.422.083-.764.249-1.026.166-.265.388-.473.666-.623a3.49 3.49 0 01.921-.336 11.2 11.2 0 011.021-.182c.447-.058.81-.101 1.088-.13.281-.032.486-.084.614-.158.131-.073.196-.201.196-.383v-.039c0-.473-.129-.84-.388-1.102-.256-.262-.644-.393-1.165-.393-.54 0-.964.118-1.27.354-.307.237-.523.489-.647.758l-1.074-.384c.191-.447.447-.795.767-1.045a2.882 2.882 0 011.054-.527 4.398 4.398 0 011.132-.154c.236 0 .508.029.815.087.31.054.609.168.896.34.291.173.532.433.724.782.192.348.288.815.288 1.399V119h-1.132v-.997h-.057c-.077.16-.205.331-.384.513a2.22 2.22 0 01-.714.465c-.297.128-.66.192-1.088.192zm.172-1.017c.448 0 .825-.088 1.132-.263a1.8 1.8 0 00.7-.681c.159-.278.239-.571.239-.877v-1.036c-.048.058-.153.11-.316.158-.16.045-.345.085-.556.12a22.786 22.786 0 01-1.084.144 4.3 4.3 0 00-.824.187 1.413 1.413 0 00-.614.379c-.153.166-.23.393-.23.68 0 .393.146.691.436.892.294.198.667.297 1.117.297zm6.399-3.586V119h-1.131v-7.364h1.093v1.151h.096c.172-.374.434-.674.786-.901.351-.23.805-.346 1.361-.346.499 0 .935.103 1.309.307.374.202.665.508.873.921.207.409.311.927.311 1.553V119h-1.131v-4.602c0-.579-.15-1.029-.451-1.352-.3-.326-.712-.489-1.237-.489-.361 0-.684.078-.968.235a1.679 1.679 0 00-.666.685c-.163.301-.245.665-.245 1.093zM57.506 95v-1.278l4.8-5.256A33.352 33.352 0 0063.7 86.86c.364-.46.634-.89.81-1.293.18-.407.27-.833.27-1.278 0-.512-.124-.954-.37-1.328a2.396 2.396 0 00-.994-.867 3.223 3.223 0 00-1.42-.305c-.56 0-1.047.116-1.464.348a2.397 2.397 0 00-.959.959c-.222.412-.333.895-.333 1.449h-1.676c0-.853.196-1.6.589-2.245a4.095 4.095 0 011.605-1.505c.682-.36 1.447-.54 2.294-.54.852 0 1.608.18 2.266.54a4.06 4.06 0 011.548 1.455c.374.611.561 1.29.561 2.039 0 .535-.097 1.058-.291 1.57-.19.506-.52 1.072-.994 1.697-.47.62-1.12 1.378-1.954 2.272l-3.267 3.495v.114h6.762V95h-9.176zm16.768.199c-.975 0-1.837-.173-2.585-.519-.743-.35-1.323-.83-1.74-1.441-.417-.616-.623-1.317-.618-2.103a3.866 3.866 0 01.362-1.704 3.713 3.713 0 011.009-1.314 3.09 3.09 0 011.442-.675v-.085a2.809 2.809 0 01-1.663-1.172 3.55 3.55 0 01-.61-2.067c-.005-.738.182-1.399.56-1.981.38-.583.9-1.042 1.563-1.378.668-.336 1.428-.504 2.28-.504.843 0 1.596.168 2.259.504a3.952 3.952 0 011.562 1.378c.384.582.578 1.243.583 1.981a3.603 3.603 0 01-.632 2.067 2.806 2.806 0 01-1.641 1.172v.085a3 3 0 011.42.675c.422.35.758.788 1.009 1.314.25.52.379 1.089.383 1.704a3.673 3.673 0 01-.639 2.103c-.416.61-.997 1.091-1.74 1.441-.739.346-1.593.519-2.564.519zm0-1.563c.658 0 1.227-.106 1.705-.32.478-.212.847-.513 1.108-.901.26-.389.393-.843.397-1.364a2.617 2.617 0 00-.426-1.456 2.89 2.89 0 00-1.143-.994c-.478-.242-1.025-.362-1.64-.362-.621 0-1.175.12-1.663.362a2.89 2.89 0 00-1.143.994c-.275.422-.41.907-.405 1.456-.005.521.12.975.376 1.364.26.388.632.689 1.115.902.483.213 1.056.32 1.72.32zm0-6.903c.521 0 .983-.104 1.385-.313.407-.208.727-.5.959-.873.232-.374.35-.812.355-1.314-.005-.493-.12-.921-.348-1.286a2.257 2.257 0 00-.945-.852c-.402-.203-.87-.305-1.406-.305-.544 0-1.02.102-1.427.305a2.202 2.202 0 00-.945.852c-.222.365-.332.793-.327 1.286-.005.502.107.94.334 1.314.232.374.552.665.959.874.407.208.876.312 1.406.312zm12.779-6.279V95h-1.761V82.301h-.086l-3.55 2.358v-1.79l3.635-2.415h1.762zm4.574 14.66a1.23 1.23 0 01-.902-.377 1.23 1.23 0 01-.377-.902c0-.35.126-.65.377-.902.25-.25.551-.376.902-.376.35 0 .65.125.902.376.25.251.376.552.376.902 0 .232-.059.445-.177.64-.114.194-.268.35-.462.468-.19.114-.403.17-.64.17zm8.467.085c-.975 0-1.837-.173-2.585-.519-.743-.35-1.323-.83-1.74-1.441a3.628 3.628 0 01-.618-2.103 3.866 3.866 0 01.362-1.704 3.713 3.713 0 011.009-1.314 3.09 3.09 0 011.442-.675v-.085a2.809 2.809 0 01-1.662-1.172 3.55 3.55 0 01-.61-2.067 3.498 3.498 0 01.56-1.981c.379-.583.9-1.042 1.563-1.378.667-.336 1.427-.504 2.279-.504.843 0 1.596.168 2.259.504a3.944 3.944 0 011.562 1.378c.384.582.578 1.243.583 1.981a3.609 3.609 0 01-.632 2.067 2.806 2.806 0 01-1.641 1.172v.085a3 3 0 011.421.675c.421.35.757.788 1.008 1.314a3.95 3.95 0 01.384 1.704c-.005.786-.218 1.487-.64 2.103-.416.61-.996 1.091-1.74 1.441-.738.346-1.593.519-2.564.519zm0-1.563c.659 0 1.227-.106 1.705-.32.478-.212.848-.513 1.108-.901.26-.389.393-.843.398-1.364a2.621 2.621 0 00-.426-1.456 2.896 2.896 0 00-1.144-.994c-.478-.242-1.025-.362-1.641-.362-.62 0-1.174.12-1.661.362a2.89 2.89 0 00-1.144.994c-.275.422-.41.907-.405 1.456-.005.521.121.975.377 1.364.26.388.632.689 1.115.902.483.213 1.056.32 1.718.32zm0-6.903c.521 0 .983-.104 1.385-.313.408-.208.727-.5.959-.873.232-.374.351-.812.355-1.314-.004-.493-.12-.921-.348-1.286a2.257 2.257 0 00-.944-.852c-.403-.203-.872-.305-1.407-.305-.544 0-1.02.102-1.427.305a2.202 2.202 0 00-.945.852c-.222.365-.331.793-.326 1.286-.005.502.106.94.333 1.314.232.374.552.665.96.874.406.208.875.312 1.405.312zm12.325 8.466c-.976 0-1.837-.173-2.586-.519-.743-.35-1.323-.83-1.74-1.441-.416-.616-.622-1.317-.618-2.103a3.88 3.88 0 01.363-1.704 3.71 3.71 0 011.008-1.314c.431-.355.912-.58 1.442-.675v-.085a2.809 2.809 0 01-1.662-1.172c-.412-.606-.615-1.295-.611-2.067-.004-.738.183-1.399.561-1.981.379-.583.9-1.042 1.563-1.378.667-.336 1.427-.504 2.28-.504.842 0 1.595.168 2.258.504a3.954 3.954 0 011.563 1.378 3.57 3.57 0 01.582 1.981 3.602 3.602 0 01-.632 2.067 2.806 2.806 0 01-1.641 1.172v.085a3 3 0 011.421.675c.421.35.757.788 1.008 1.314a3.95 3.95 0 01.384 1.704 3.679 3.679 0 01-.639 2.103c-.417.61-.997 1.091-1.74 1.441-.739.346-1.594.519-2.564.519zm0-1.563c.658 0 1.226-.106 1.704-.32.478-.212.848-.513 1.108-.901.261-.389.393-.843.398-1.364a2.621 2.621 0 00-.426-1.456 2.896 2.896 0 00-1.144-.994c-.478-.242-1.025-.362-1.64-.362-.621 0-1.175.12-1.662.362a2.896 2.896 0 00-1.144.994 2.575 2.575 0 00-.405 1.456c-.004.521.121.975.377 1.364.26.388.632.689 1.115.902.483.213 1.056.32 1.719.32zm0-6.903c.521 0 .982-.104 1.385-.313.407-.208.726-.5.958-.873.232-.374.351-.812.356-1.314-.005-.493-.121-.921-.348-1.286a2.265 2.265 0 00-.945-.852c-.403-.203-.871-.305-1.406-.305-.545 0-1.021.102-1.428.305a2.199 2.199 0 00-.944.852c-.223.365-.332.793-.327 1.286-.005.502.106.94.334 1.314.232.374.551.665.958.874.408.208.876.312 1.407.312zm16.585-1.136l-.653 1.42h-9.262l.512-1.42h9.403zm-1.221 2.84l-.654 1.421h-8.04l.512-1.42h8.182zm2.897-6.676l-.681 1.478a5.913 5.913 0 00-.959-.71 4.66 4.66 0 00-1.058-.462 4.103 4.103 0 00-1.165-.164c-.805 0-1.53.223-2.174.668-.643.445-1.152 1.1-1.527 1.967-.374.867-.561 1.93-.561 3.19 0 1.259.187 2.322.561 3.188.375.867.884 1.522 1.527 1.968a3.735 3.735 0 002.174.667c.416 0 .809-.054 1.179-.163a4.57 4.57 0 001.044-.448 5.99 5.99 0 00.902-.639l.71 1.477a4.992 4.992 0 01-1.747 1.066 6.205 6.205 0 01-2.088.355c-1.165 0-2.197-.303-3.097-.91-.895-.605-1.598-1.467-2.109-2.585-.507-1.117-.76-2.443-.76-3.977 0-1.534.253-2.86.76-3.977.511-1.117 1.214-1.98 2.109-2.585.9-.606 1.932-.91 3.097-.91.753 0 1.456.13 2.109.391.658.26 1.243.632 1.754 1.115z" fill="#000"/><rect x=".5" y="145.5" width="185" height="132" rx="9.5" stroke="#81EC40"/><path d="M10.189 168v-9.818h1.189v8.763h4.564V168h-5.753zm10.528.153c-.71 0-1.322-.156-1.836-.469a3.157 3.157 0 01-1.185-1.324c-.274-.568-.412-1.23-.412-1.984 0-.755.138-1.419.412-1.995a3.257 3.257 0 011.16-1.352c.5-.326 1.08-.489 1.746-.489.383 0 .762.064 1.136.192.374.128.714.336 1.02.623.308.285.552.662.734 1.132.182.47.274 1.048.274 1.735v.48H18.09v-.978h4.525a2.4 2.4 0 00-.25-1.112 1.875 1.875 0 00-.7-.772c-.3-.189-.654-.283-1.063-.283-.451 0-.841.112-1.17.335a2.215 2.215 0 00-.753.863 2.535 2.535 0 00-.263 1.141v.652c0 .556.095 1.028.287 1.415.195.383.465.675.81.877.345.198.747.297 1.204.297.297 0 .565-.041.805-.125.243-.086.452-.214.628-.383a1.75 1.75 0 00.408-.642l1.093.306a2.42 2.42 0 01-.58.978 2.82 2.82 0 01-1.007.652c-.4.154-.849.23-1.347.23zm9.986-5.867l-1.017.287a1.9 1.9 0 00-.283-.494 1.366 1.366 0 00-.498-.402c-.211-.106-.481-.159-.81-.159-.451 0-.826.104-1.127.312-.297.205-.446.465-.446.782 0 .281.103.503.307.666.205.163.524.299.959.407l1.093.269c.658.16 1.149.404 1.472.733.322.326.484.747.484 1.261 0 .422-.122.799-.364 1.132-.24.332-.576.594-1.007.786-.432.192-.934.287-1.506.287-.75 0-1.372-.163-1.864-.489-.493-.326-.804-.802-.935-1.428l1.074-.269c.102.397.295.694.58.892.287.198.663.297 1.126.297.528 0 .946-.112 1.256-.335.314-.227.47-.499.47-.815 0-.256-.09-.47-.268-.643-.18-.175-.454-.307-.825-.393l-1.227-.287c-.675-.16-1.17-.408-1.486-.744-.314-.338-.47-.762-.47-1.27 0-.415.117-.783.35-1.103.236-.319.558-.57.963-.752a3.39 3.39 0 011.39-.274c.73 0 1.301.16 1.717.48.419.319.716.741.892 1.266zM36.337 168v-7.364h1.093v1.113h.077c.134-.365.377-.66.728-.887a2.145 2.145 0 011.19-.341c.082 0 .186.002.31.005.125.003.22.008.284.014v1.151a3.108 3.108 0 00-.264-.043 2.634 2.634 0 00-.427-.034c-.358 0-.677.075-.959.226a1.698 1.698 0 00-.661.613c-.16.259-.24.555-.24.887V168h-1.131zm7.886.153c-.71 0-1.322-.156-1.836-.469a3.158 3.158 0 01-1.184-1.324c-.275-.568-.413-1.23-.413-1.984 0-.755.138-1.419.413-1.995a3.257 3.257 0 011.16-1.352c.498-.326 1.08-.489 1.745-.489.383 0 .762.064 1.136.192.374.128.714.336 1.021.623.307.285.551.662.734 1.132.182.47.273 1.048.273 1.735v.48h-5.676v-.978h4.525c0-.416-.083-.787-.249-1.112a1.876 1.876 0 00-.7-.772c-.3-.189-.655-.283-1.064-.283-.45 0-.84.112-1.17.335a2.216 2.216 0 00-.753.863 2.535 2.535 0 00-.263 1.141v.652c0 .556.096 1.028.288 1.415.194.383.465.675.81.877.345.198.746.297 1.203.297.297 0 .566-.041.805-.125.243-.086.453-.214.628-.383a1.75 1.75 0 00.408-.642l1.093.306a2.42 2.42 0 01-.58.978 2.82 2.82 0 01-1.007.652c-.4.154-.849.23-1.347.23zm7.761 0c-.69 0-1.284-.163-1.783-.489a3.186 3.186 0 01-1.15-1.347c-.269-.572-.403-1.225-.403-1.96 0-.748.137-1.408.412-1.98a3.258 3.258 0 011.16-1.348c.499-.326 1.08-.489 1.745-.489.518 0 .985.096 1.4.288.416.192.756.46 1.021.806.266.345.43.747.494 1.208h-1.13a1.755 1.755 0 00-.576-.892c-.294-.262-.69-.393-1.189-.393-.44 0-.827.115-1.16.345-.329.227-.586.548-.771.964-.183.412-.274.896-.274 1.452 0 .569.09 1.064.269 1.486.182.422.438.75.767.983.332.233.722.35 1.17.35.294 0 .56-.051.8-.153.24-.103.443-.25.609-.441.166-.192.284-.422.355-.691h1.131a2.624 2.624 0 01-.474 1.175c-.25.345-.58.62-.993.824-.409.202-.885.302-1.428.302zm7.637 0c-.71 0-1.321-.156-1.836-.469a3.157 3.157 0 01-1.184-1.324c-.275-.568-.412-1.23-.412-1.984 0-.755.137-1.419.412-1.995a3.256 3.256 0 011.16-1.352c.499-.326 1.08-.489 1.745-.489.384 0 .763.064 1.136.192a2.83 2.83 0 011.022.623c.306.285.551.662.733 1.132.182.47.273 1.048.273 1.735v.48h-5.676v-.978h4.526a2.41 2.41 0 00-.25-1.112 1.876 1.876 0 00-.7-.772c-.3-.189-.655-.283-1.064-.283-.45 0-.84.112-1.17.335a2.216 2.216 0 00-.752.863 2.537 2.537 0 00-.264 1.141v.652c0 .556.096 1.028.288 1.415.195.383.465.675.81.877.345.198.746.297 1.203.297.298 0 .566-.041.806-.125.243-.086.452-.214.628-.383a1.75 1.75 0 00.407-.642l1.093.306a2.421 2.421 0 01-.58.978 2.82 2.82 0 01-1.007.652c-.399.154-.848.23-1.347.23zm7.973-7.517v.959h-3.816v-.959h3.816zm-2.704-1.764h1.131v7.019c0 .319.047.559.14.719a.72.72 0 00.364.316c.15.051.308.077.474.077.125 0 .227-.007.307-.019l.192-.039.23 1.017a2.46 2.46 0 01-.844.134c-.32 0-.632-.069-.94-.206a1.873 1.873 0 01-.757-.628c-.198-.282-.297-.636-.297-1.065v-7.325zm7.608 1.764v.959h-3.816v-.959h3.816zm-2.704-1.764h1.132v7.019c0 .319.046.559.139.719a.72.72 0 00.364.316c.15.051.308.077.475.077a2.1 2.1 0 00.306-.019l.192-.039.23 1.017a2.46 2.46 0 01-.843.134c-.32 0-.633-.069-.94-.206a1.873 1.873 0 01-.757-.628c-.199-.282-.298-.636-.298-1.065v-7.325zm7.414 9.281c-.71 0-1.321-.156-1.836-.469a3.157 3.157 0 01-1.184-1.324c-.275-.568-.412-1.23-.412-1.984 0-.755.137-1.419.412-1.995a3.256 3.256 0 011.16-1.352c.499-.326 1.08-.489 1.745-.489.384 0 .763.064 1.136.192a2.83 2.83 0 011.022.623c.306.285.55.662.733 1.132.182.47.273 1.048.273 1.735v.48h-5.676v-.978h4.526a2.4 2.4 0 00-.25-1.112 1.875 1.875 0 00-.7-.772c-.3-.189-.655-.283-1.064-.283-.45 0-.84.112-1.17.335a2.215 2.215 0 00-.752.863 2.535 2.535 0 00-.264 1.141v.652c0 .556.096 1.028.288 1.415.195.383.465.675.81.877.345.198.746.297 1.203.297.297 0 .566-.041.806-.125.243-.086.452-.214.628-.383a1.75 1.75 0 00.407-.642l1.093.306a2.42 2.42 0 01-.58.978 2.82 2.82 0 01-1.007.652c-.4.154-.848.23-1.347.23zm9.986-5.867l-1.016.287a1.9 1.9 0 00-.283-.494 1.366 1.366 0 00-.498-.402c-.211-.106-.482-.159-.81-.159-.451 0-.827.104-1.127.312-.297.205-.446.465-.446.782 0 .281.102.503.307.666.204.163.524.299.959.407l1.093.269c.658.16 1.148.404 1.471.733.323.326.485.747.485 1.261 0 .422-.122.799-.365 1.132-.24.332-.575.594-1.007.786-.431.192-.933.287-1.505.287-.751 0-1.373-.163-1.865-.489-.492-.326-.804-.802-.935-1.428l1.074-.269c.103.397.296.694.58.892.288.198.663.297 1.127.297.527 0 .946-.112 1.256-.335.313-.227.47-.499.47-.815 0-.256-.09-.47-.269-.643-.179-.175-.454-.307-.824-.393l-1.228-.287c-.674-.16-1.17-.408-1.486-.744-.313-.338-.47-.762-.47-1.27 0-.415.117-.783.35-1.103.237-.319.558-.57.964-.752a3.39 3.39 0 011.39-.274c.729 0 1.301.16 1.717.48.418.319.716.741.891 1.266zm8.722 5.867c-.71 0-1.322-.156-1.836-.469a3.158 3.158 0 01-1.184-1.324c-.275-.568-.413-1.23-.413-1.984 0-.755.138-1.419.413-1.995a3.257 3.257 0 011.16-1.352c.498-.326 1.08-.489 1.745-.489.383 0 .762.064 1.136.192.374.128.714.336 1.021.623.307.285.551.662.734 1.132.182.47.273 1.048.273 1.735v.48h-5.676v-.978h4.525c0-.416-.083-.787-.249-1.112a1.876 1.876 0 00-.7-.772c-.3-.189-.655-.283-1.064-.283-.45 0-.84.112-1.17.335a2.216 2.216 0 00-.753.863 2.535 2.535 0 00-.263 1.141v.652c0 .556.096 1.028.287 1.415.195.383.465.675.81.877a2.38 2.38 0 001.204.297c.297 0 .566-.041.805-.125.243-.086.453-.214.628-.383a1.75 1.75 0 00.408-.642l1.093.306a2.42 2.42 0 01-.58.978 2.82 2.82 0 01-1.007.652c-.4.154-.849.23-1.347.23zm-.69-8.514l1.17-2.224h1.322l-1.495 2.224h-.998zm8.451 8.514c-.69 0-1.284-.163-1.783-.489a3.189 3.189 0 01-1.151-1.347c-.268-.572-.402-1.225-.402-1.96 0-.748.137-1.408.412-1.98a3.26 3.26 0 011.16-1.348c.499-.326 1.08-.489 1.745-.489.518 0 .985.096 1.4.288.416.192.756.46 1.021.806.265.345.43.747.494 1.208h-1.131a1.755 1.755 0 00-.576-.892c-.294-.262-.69-.393-1.189-.393a1.99 1.99 0 00-1.16.345c-.329.227-.586.548-.772.964-.182.412-.273.896-.273 1.452 0 .569.09 1.064.269 1.486.182.422.437.75.767.983.332.233.722.35 1.169.35.294 0 .561-.051.801-.153.24-.103.443-.25.609-.441.166-.192.284-.422.355-.691h1.131a2.62 2.62 0 01-.475 1.175c-.249.345-.58.62-.992.824-.409.202-.885.302-1.429.302zm7.541 0c-.664 0-1.248-.158-1.749-.474a3.223 3.223 0 01-1.17-1.328c-.278-.569-.417-1.234-.417-1.994 0-.768.139-1.437.417-2.009a3.213 3.213 0 011.17-1.333c.501-.316 1.085-.475 1.749-.475.665 0 1.247.159 1.745.475.502.316.892.761 1.17 1.333.281.572.422 1.241.422 2.009 0 .76-.141 1.425-.422 1.994a3.182 3.182 0 01-1.17 1.328c-.498.316-1.08.474-1.745.474zm0-1.016c.505 0 .921-.129 1.247-.388.326-.259.567-.599.724-1.021.156-.422.235-.879.235-1.371a3.96 3.96 0 00-.235-1.376 2.323 2.323 0 00-.724-1.031c-.326-.262-.742-.393-1.247-.393-.505 0-.92.131-1.246.393a2.323 2.323 0 00-.724 1.031 3.937 3.937 0 00-.235 1.376c0 .492.078.949.235 1.371.157.422.398.762.724 1.021.326.259.741.388 1.246.388zm6.195-8.955V168h-1.131v-9.818h1.131zm5.064 9.971c-.665 0-1.248-.158-1.75-.474a3.228 3.228 0 01-1.169-1.328c-.278-.569-.417-1.234-.417-1.994 0-.768.139-1.437.417-2.009a3.218 3.218 0 011.169-1.333c.502-.316 1.085-.475 1.75-.475s1.247.159 1.745.475c.502.316.892.761 1.17 1.333.281.572.422 1.241.422 2.009 0 .76-.141 1.425-.422 1.994a3.182 3.182 0 01-1.17 1.328c-.498.316-1.08.474-1.745.474zm0-1.016c.505 0 .921-.129 1.247-.388.326-.259.567-.599.724-1.021.156-.422.234-.879.234-1.371a3.96 3.96 0 00-.234-1.376 2.323 2.323 0 00-.724-1.031c-.326-.262-.742-.393-1.247-.393-.505 0-.92.131-1.246.393a2.315 2.315 0 00-.724 1.031 3.937 3.937 0 00-.235 1.376c0 .492.078.949.235 1.371.156.422.398.762.724 1.021.326.259.741.388 1.246.388zm8.036 3.778c-.546 0-1.016-.071-1.409-.211a3.002 3.002 0 01-.983-.547 2.956 2.956 0 01-.618-.719l.901-.633c.102.135.232.288.388.461.157.175.371.327.643.455.274.131.634.197 1.078.197.595 0 1.085-.144 1.472-.432.387-.287.58-.738.58-1.352v-1.496h-.096a5.789 5.789 0 01-.355.499c-.15.195-.367.369-.652.523-.281.15-.661.225-1.141.225a3.076 3.076 0 01-1.601-.422c-.47-.281-.842-.69-1.117-1.227-.271-.537-.407-1.189-.407-1.956 0-.754.132-1.411.398-1.971.265-.562.634-.997 1.107-1.303.473-.311 1.02-.466 1.64-.466.479 0 .859.08 1.141.24.284.157.501.336.652.537.153.198.271.361.354.489h.115v-1.17h1.093v7.575c0 .633-.143 1.147-.431 1.544a2.454 2.454 0 01-1.151.877 4.35 4.35 0 01-1.601.283zm-.038-4.046c.454 0 .837-.104 1.15-.312.314-.208.552-.507.715-.896.163-.39.244-.857.244-1.4 0-.531-.08-.999-.239-1.405a2.11 2.11 0 00-.71-.954c-.313-.23-.7-.345-1.16-.345-.48 0-.879.121-1.199.364a2.224 2.224 0 00-.714.978 3.773 3.773 0 00-.235 1.362c0 .511.08.963.24 1.356.163.39.403.697.719.921.32.22.716.331 1.189.331zm5.292 1.131v-7.364h1.132V168h-1.132zm.576-8.591a.806.806 0 01-.571-.225.726.726 0 01-.235-.542c0-.211.079-.391.235-.542.16-.15.35-.225.571-.225.22 0 .409.075.565.225.16.151.24.331.24.542 0 .211-.08.392-.24.542a.787.787 0 01-.565.225zm7.652 11.352v-3.892h-.096a7.485 7.485 0 01-.354.508 2.127 2.127 0 01-.657.542c-.285.156-.663.234-1.136.234-.614 0-1.156-.155-1.626-.465-.469-.313-.837-.754-1.102-1.323-.265-.572-.398-1.248-.398-2.028 0-.773.133-1.444.398-2.013s.634-1.008 1.107-1.318c.473-.311 1.02-.466 1.64-.466.479 0 .858.08 1.136.24.281.157.495.336.642.537.151.198.267.361.35.489h.135v-1.17h1.093v10.125h-1.132zm-2.09-3.624c.454 0 .837-.118 1.151-.355.313-.239.551-.57.714-.992.163-.425.244-.916.244-1.472 0-.55-.08-1.031-.239-1.443-.16-.415-.397-.738-.71-.968-.313-.234-.7-.35-1.16-.35-.479 0-.879.123-1.199.369a2.217 2.217 0 00-.714.992 3.96 3.96 0 00-.235 1.4c0 .524.08 1.001.24 1.429.163.425.403.764.719 1.016.32.249.716.374 1.189.374zm9.933-2.148v-4.353h1.132V168h-1.132v-1.246h-.076a2.437 2.437 0 01-.806.954c-.364.258-.824.388-1.381.388-.46 0-.869-.101-1.227-.302a2.121 2.121 0 01-.844-.921c-.204-.412-.306-.931-.306-1.558v-4.679h1.131v4.603c0 .537.15.965.451 1.284.303.32.69.48 1.16.48.281 0 .567-.072.858-.216a1.87 1.87 0 00.738-.661c.202-.298.302-.676.302-1.137zm6.291 3.164c-.709 0-1.321-.156-1.836-.469a3.16 3.16 0 01-1.184-1.324c-.275-.568-.412-1.23-.412-1.984 0-.755.137-1.419.412-1.995a3.259 3.259 0 011.16-1.352c.499-.326 1.08-.489 1.745-.489.384 0 .762.064 1.136.192.374.128.715.336 1.021.623.307.285.552.662.734 1.132.182.47.273 1.048.273 1.735v.48h-5.676v-.978h4.526a2.4 2.4 0 00-.25-1.112 1.873 1.873 0 00-.7-.772c-.3-.189-.655-.283-1.064-.283-.45 0-.84.112-1.17.335a2.216 2.216 0 00-.752.863 2.533 2.533 0 00-.264 1.141v.652c0 .556.096 1.028.288 1.415.195.383.465.675.81.877.345.198.746.297 1.203.297.297 0 .566-.041.806-.125.243-.086.452-.214.628-.383a1.76 1.76 0 00.407-.642l1.093.306a2.416 2.416 0 01-.58.978 2.82 2.82 0 01-1.007.652c-.399.154-.848.23-1.347.23zm9.986-5.867l-1.016.287a1.891 1.891 0 00-.283-.494 1.364 1.364 0 00-.499-.402c-.211-.106-.481-.159-.81-.159-.45 0-.826.104-1.126.312-.298.205-.446.465-.446.782 0 .281.102.503.307.666.204.163.524.299.958.407l1.093.269c.659.16 1.149.404 1.472.733.323.326.484.747.484 1.261 0 .422-.121.799-.364 1.132-.24.332-.575.594-1.007.786-.431.192-.933.287-1.505.287-.751 0-1.373-.163-1.865-.489-.492-.326-.804-.802-.935-1.428l1.074-.269c.102.397.296.694.58.892.288.198.663.297 1.127.297.527 0 .946-.112 1.256-.335.313-.227.47-.499.47-.815 0-.256-.09-.47-.269-.643-.179-.175-.454-.307-.824-.393l-1.228-.287c-.674-.16-1.169-.408-1.486-.744-.313-.338-.47-.762-.47-1.27 0-.415.117-.783.35-1.103.237-.319.558-.57.964-.752a3.384 3.384 0 011.39-.274c.729 0 1.301.16 1.716.48.419.319.716.741.892 1.266zM15.06 192.761v-3.892h-.096a7.433 7.433 0 01-.355.508 2.113 2.113 0 01-.657.542c-.284.156-.663.234-1.136.234-.614 0-1.155-.155-1.625-.465-.47-.313-.838-.754-1.103-1.323-.265-.572-.398-1.248-.398-2.028 0-.773.133-1.444.398-2.013.266-.569.635-1.008 1.108-1.318.473-.311 1.02-.466 1.64-.466.479 0 .857.08 1.135.24.282.157.496.336.643.537.15.198.267.361.35.489h.134v-1.17h1.093v10.125H15.06zm-2.09-3.624c.453 0 .837-.118 1.15-.355.313-.239.551-.57.714-.992.163-.425.245-.916.245-1.472 0-.55-.08-1.031-.24-1.443-.16-.415-.396-.738-.71-.968-.313-.234-.7-.35-1.16-.35-.479 0-.878.123-1.198.369a2.212 2.212 0 00-.714.992 3.947 3.947 0 00-.235 1.4c0 .524.08 1.001.24 1.429.162.425.402.764.719 1.016.32.249.715.374 1.188.374zm9.933-2.148v-4.353h1.131V190h-1.131v-1.246h-.077a2.43 2.43 0 01-.805.954c-.365.258-.825.388-1.381.388-.46 0-.87-.101-1.227-.302a2.118 2.118 0 01-.844-.921c-.205-.412-.307-.931-.307-1.558v-4.679h1.131v4.603c0 .537.15.965.451 1.284.304.32.69.48 1.16.48.281 0 .568-.072.858-.216a1.88 1.88 0 00.739-.661c.201-.298.302-.676.302-1.137zm6.29 3.164c-.709 0-1.32-.156-1.835-.469a3.158 3.158 0 01-1.185-1.324c-.274-.568-.412-1.23-.412-1.984 0-.755.138-1.419.412-1.995a3.257 3.257 0 011.16-1.352c.5-.326 1.08-.489 1.746-.489.383 0 .762.064 1.136.192.374.128.714.336 1.02.623.308.285.552.662.734 1.132.183.47.274 1.048.274 1.735v.48h-5.677v-.978h4.526a2.4 2.4 0 00-.25-1.112 1.876 1.876 0 00-.7-.772c-.3-.189-.654-.283-1.063-.283-.451 0-.84.112-1.17.335a2.216 2.216 0 00-.753.863 2.535 2.535 0 00-.264 1.141v.652c0 .556.096 1.028.288 1.415.195.383.465.675.81.877a2.38 2.38 0 001.204.297c.297 0 .565-.041.805-.125.243-.086.452-.214.628-.383a1.75 1.75 0 00.408-.642l1.093.306a2.42 2.42 0 01-.58.978 2.82 2.82 0 01-1.007.652c-.4.154-.849.23-1.347.23zm9.699-4.583V190h-1.131v-7.364h1.093v1.151h.096c.172-.374.434-.674.786-.901.351-.23.805-.346 1.361-.346.499 0 .935.103 1.309.307.374.202.665.508.873.921.207.409.311.927.311 1.553V190h-1.13v-4.602c0-.579-.15-1.029-.45-1.352-.301-.326-.714-.489-1.238-.489a1.97 1.97 0 00-.968.235 1.678 1.678 0 00-.666.685c-.163.301-.245.665-.245 1.093zm9.757 4.583c-.665 0-1.248-.158-1.75-.474a3.228 3.228 0 01-1.17-1.328c-.278-.569-.417-1.234-.417-1.994 0-.768.14-1.437.418-2.009a3.217 3.217 0 011.17-1.333c.501-.316 1.084-.475 1.75-.475.664 0 1.245.159 1.744.475.502.316.892.761 1.17 1.333.281.572.422 1.241.422 2.009 0 .76-.14 1.425-.422 1.994a3.183 3.183 0 01-1.17 1.328c-.498.316-1.08.474-1.745.474zm0-1.016c.505 0 .92-.129 1.246-.388.326-.259.568-.599.724-1.021a3.91 3.91 0 00.235-1.371c0-.493-.078-.951-.235-1.376a2.32 2.32 0 00-.724-1.031c-.326-.262-.741-.393-1.246-.393s-.92.131-1.246.393a2.32 2.32 0 00-.724 1.031 3.946 3.946 0 00-.235 1.376c0 .492.078.949.235 1.371.156.422.398.762.724 1.021.326.259.741.388 1.246.388zm9.704-2.148v-4.353h1.132V190h-1.132v-1.246h-.076a2.43 2.43 0 01-.806.954c-.364.258-.824.388-1.38.388-.46 0-.87-.101-1.228-.302a2.118 2.118 0 01-.843-.921c-.205-.412-.307-.931-.307-1.558v-4.679h1.131v4.603c0 .537.15.965.45 1.284.304.32.691.48 1.16.48.282 0 .568-.072.86-.216.293-.144.54-.364.737-.661.202-.298.302-.676.302-1.137zm8.42-2.703l-1.016.287a1.9 1.9 0 00-.283-.494 1.366 1.366 0 00-.499-.402c-.21-.106-.48-.159-.81-.159-.45 0-.826.104-1.127.312-.297.205-.445.465-.445.782 0 .281.102.503.306.666.205.163.524.299.96.407l1.092.269c.659.16 1.15.404 1.472.733.323.326.484.747.484 1.261 0 .422-.121.799-.364 1.132-.24.332-.576.594-1.007.786-.431.192-.933.287-1.505.287-.751 0-1.373-.163-1.865-.489-.492-.326-.804-.802-.935-1.428l1.074-.269c.102.397.295.694.58.892.288.198.663.297 1.127.297.527 0 .946-.112 1.256-.335.313-.227.47-.499.47-.815 0-.256-.09-.47-.27-.643-.178-.175-.453-.307-.824-.393l-1.227-.287c-.674-.16-1.17-.408-1.486-.744-.313-.338-.47-.762-.47-1.27 0-.415.117-.783.35-1.103.237-.319.558-.57.964-.752a3.384 3.384 0 011.39-.274c.729 0 1.3.16 1.716.48.419.319.716.741.892 1.266zm11.655-1.65L75.705 190h-1.15l-2.723-7.364h1.227l2.033 5.868h.076l2.033-5.868h1.227zm4.222 7.517c-.665 0-1.249-.158-1.75-.474a3.227 3.227 0 01-1.17-1.328c-.278-.569-.417-1.234-.417-1.994 0-.768.139-1.437.417-2.009a3.216 3.216 0 011.17-1.333c.501-.316 1.085-.475 1.75-.475.664 0 1.246.159 1.745.475.501.316.891.761 1.17 1.333.28.572.421 1.241.421 2.009 0 .76-.14 1.425-.422 1.994a3.183 3.183 0 01-1.17 1.328c-.498.316-1.08.474-1.745.474zm0-1.016c.504 0 .92-.129 1.246-.388.326-.259.567-.599.724-1.021a3.91 3.91 0 00.235-1.371 3.96 3.96 0 00-.235-1.376 2.32 2.32 0 00-.724-1.031c-.326-.262-.742-.393-1.246-.393-.505 0-.92.131-1.247.393a2.32 2.32 0 00-.724 1.031 3.946 3.946 0 00-.235 1.376c0 .492.079.949.235 1.371.157.422.398.762.724 1.021.326.259.742.388 1.246.388zm9.704-2.148v-4.353h1.131V190h-1.131v-1.246h-.077a2.43 2.43 0 01-.805.954c-.365.258-.825.388-1.38.388-.461 0-.87-.101-1.228-.302a2.118 2.118 0 01-.844-.921c-.204-.412-.307-.931-.307-1.558v-4.679h1.132v4.603c0 .537.15.965.45 1.284.304.32.69.48 1.16.48.282 0 .568-.072.859-.216a1.87 1.87 0 00.738-.661c.201-.298.302-.676.302-1.137zm8.419-2.703l-1.016.287a1.9 1.9 0 00-.283-.494 1.366 1.366 0 00-.498-.402c-.211-.106-.481-.159-.81-.159-.451 0-.827.104-1.127.312-.297.205-.446.465-.446.782 0 .281.102.503.307.666.204.163.524.299.959.407l1.093.269c.658.16 1.149.404 1.471.733.323.326.485.747.485 1.261 0 .422-.122.799-.365 1.132-.239.332-.575.594-1.007.786-.43.192-.933.287-1.505.287-.75 0-1.373-.163-1.865-.489-.492-.326-.803-.802-.934-1.428l1.073-.269c.103.397.296.694.58.892.288.198.664.297 1.127.297.527 0 .946-.112 1.256-.335.313-.227.47-.499.47-.815 0-.256-.09-.47-.269-.643-.179-.175-.453-.307-.824-.393l-1.227-.287c-.675-.16-1.17-.408-1.487-.744-.313-.338-.47-.762-.47-1.27 0-.415.117-.783.35-1.103.237-.319.558-.57.964-.752a3.39 3.39 0 011.39-.274c.73 0 1.301.16 1.717.48.418.319.716.741.891 1.266zm5.635 8.475v-10.125h1.093v1.17h.134c.083-.128.198-.291.345-.489.15-.201.364-.38.642-.537.282-.16.662-.24 1.141-.24.62 0 1.167.155 1.64.466.473.31.842.749 1.107 1.318.266.569.398 1.24.398 2.013 0 .78-.132 1.456-.398 2.028-.265.569-.632 1.01-1.102 1.323-.47.31-1.012.465-1.625.465-.473 0-.852-.078-1.137-.234a2.11 2.11 0 01-.656-.542 7.203 7.203 0 01-.355-.508h-.096v3.892h-1.131zm1.112-6.443c0 .556.081 1.047.244 1.472.163.422.401.753.715.992.313.237.696.355 1.15.355.473 0 .868-.125 1.184-.374.32-.252.56-.591.719-1.016a3.99 3.99 0 00.245-1.429c0-.518-.08-.984-.24-1.4a2.166 2.166 0 00-.714-.992c-.317-.246-.714-.369-1.194-.369-.46 0-.847.116-1.16.35-.313.23-.55.553-.71.968-.159.412-.239.893-.239 1.443zm7.114 3.682v-7.364h1.093v1.113h.077c.134-.365.377-.66.729-.887a2.141 2.141 0 011.189-.341c.083 0 .186.002.311.005s.219.008.283.014v1.151a3.056 3.056 0 00-.264-.043 2.626 2.626 0 00-.426-.034c-.358 0-.678.075-.959.226a1.7 1.7 0 00-.662.613c-.16.259-.239.555-.239.887V190h-1.132zm7.79.153c-.664 0-1.248-.158-1.749-.474a3.223 3.223 0 01-1.17-1.328c-.278-.569-.417-1.234-.417-1.994 0-.768.139-1.437.417-2.009a3.213 3.213 0 011.17-1.333c.501-.316 1.085-.475 1.749-.475.665 0 1.247.159 1.745.475.502.316.892.761 1.17 1.333.281.572.422 1.241.422 2.009 0 .76-.141 1.425-.422 1.994a3.182 3.182 0 01-1.17 1.328c-.498.316-1.08.474-1.745.474zm0-1.016c.505 0 .921-.129 1.247-.388.326-.259.567-.599.724-1.021.156-.422.235-.879.235-1.371a3.96 3.96 0 00-.235-1.376 2.323 2.323 0 00-.724-1.031c-.326-.262-.742-.393-1.247-.393-.505 0-.92.131-1.246.393a2.323 2.323 0 00-.724 1.031 3.937 3.937 0 00-.235 1.376c0 .492.078.949.235 1.371.157.422.398.762.724 1.021.326.259.741.388 1.246.388zm5.064 3.624v-10.125h1.093v1.17h.134c.084-.128.199-.291.346-.489.15-.201.364-.38.642-.537.281-.16.662-.24 1.141-.24.62 0 1.167.155 1.64.466.473.31.842.749 1.107 1.318.265.569.398 1.24.398 2.013 0 .78-.133 1.456-.398 2.028-.265.569-.633 1.01-1.103 1.323-.469.31-1.011.465-1.625.465-.473 0-.852-.078-1.136-.234a2.127 2.127 0 01-.657-.542 7.948 7.948 0 01-.355-.508h-.095v3.892h-1.132zm1.112-6.443c0 .556.082 1.047.245 1.472.163.422.401.753.714.992.313.237.697.355 1.151.355.473 0 .867-.125 1.184-.374a2.29 2.29 0 00.719-1.016 3.99 3.99 0 00.244-1.429c0-.518-.079-.984-.239-1.4a2.167 2.167 0 00-.715-.992c-.316-.246-.714-.369-1.193-.369-.46 0-.847.116-1.16.35-.314.23-.55.553-.71.968-.16.412-.24.893-.24 1.443zm10.106 3.835c-.665 0-1.248-.158-1.75-.474a3.228 3.228 0 01-1.169-1.328c-.278-.569-.417-1.234-.417-1.994 0-.768.139-1.437.417-2.009a3.218 3.218 0 011.169-1.333c.502-.316 1.085-.475 1.75-.475s1.247.159 1.745.475c.502.316.892.761 1.17 1.333.281.572.422 1.241.422 2.009 0 .76-.141 1.425-.422 1.994a3.182 3.182 0 01-1.17 1.328c-.498.316-1.08.474-1.745.474zm0-1.016c.505 0 .921-.129 1.247-.388.326-.259.567-.599.724-1.021.156-.422.234-.879.234-1.371a3.96 3.96 0 00-.234-1.376 2.323 2.323 0 00-.724-1.031c-.326-.262-.742-.393-1.247-.393-.505 0-.92.131-1.246.393a2.315 2.315 0 00-.724 1.031 3.937 3.937 0 00-.235 1.376c0 .492.078.949.235 1.371.156.422.398.762.724 1.021.326.259.741.388 1.246.388zm10.28-4.851l-1.017.287a1.887 1.887 0 00-.282-.494 1.372 1.372 0 00-.499-.402c-.211-.106-.481-.159-.81-.159-.451 0-.826.104-1.127.312-.297.205-.446.465-.446.782 0 .281.103.503.307.666.205.163.524.299.959.407l1.093.269c.658.16 1.149.404 1.472.733.323.326.484.747.484 1.261 0 .422-.121.799-.364 1.132-.24.332-.576.594-1.007.786-.432.192-.933.287-1.505.287-.751 0-1.373-.163-1.865-.489-.492-.326-.804-.802-.935-1.428l1.074-.269c.102.397.295.694.58.892.287.198.663.297 1.126.297.528 0 .946-.112 1.256-.335.314-.227.47-.499.47-.815a.857.857 0 00-.268-.643c-.179-.175-.454-.307-.825-.393l-1.227-.287c-.674-.16-1.17-.408-1.486-.744-.313-.338-.47-.762-.47-1.27 0-.415.117-.783.35-1.103.236-.319.558-.57.964-.752a3.384 3.384 0 011.39-.274c.729 0 1.301.16 1.716.48.419.319.716.741.892 1.266zm4.829 5.867c-.665 0-1.248-.158-1.75-.474a3.223 3.223 0 01-1.17-1.328c-.278-.569-.417-1.234-.417-1.994 0-.768.139-1.437.417-2.009a3.213 3.213 0 011.17-1.333c.502-.316 1.085-.475 1.75-.475.664 0 1.246.159 1.745.475.501.316.891.761 1.169 1.333.282.572.422 1.241.422 2.009 0 .76-.14 1.425-.422 1.994a3.187 3.187 0 01-1.169 1.328c-.499.316-1.081.474-1.745.474zm0-1.016c.505 0 .92-.129 1.246-.388.326-.259.567-.599.724-1.021.157-.422.235-.879.235-1.371 0-.493-.078-.951-.235-1.376a2.323 2.323 0 00-.724-1.031c-.326-.262-.741-.393-1.246-.393s-.921.131-1.247.393a2.323 2.323 0 00-.724 1.031 3.96 3.96 0 00-.235 1.376c0 .492.079.949.235 1.371.157.422.398.762.724 1.021.326.259.742.388 1.247.388zm6.195-3.567V190h-1.132v-7.364h1.093v1.151h.096c.173-.374.435-.674.786-.901.352-.23.806-.346 1.362-.346.499 0 .935.103 1.309.307.374.202.664.508.872.921.208.409.312.927.312 1.553V190h-1.132v-4.602c0-.579-.15-1.029-.45-1.352-.301-.326-.713-.489-1.237-.489-.361 0-.684.078-.968.235a1.675 1.675 0 00-.667.685c-.163.301-.244.665-.244 1.093zm11.981-1.284l-1.016.287a1.891 1.891 0 00-.283-.494 1.364 1.364 0 00-.499-.402c-.211-.106-.481-.159-.81-.159-.45 0-.826.104-1.126.312-.298.205-.446.465-.446.782 0 .281.102.503.307.666.204.163.524.299.958.407l1.093.269c.659.16 1.149.404 1.472.733.323.326.484.747.484 1.261 0 .422-.121.799-.364 1.132-.24.332-.575.594-1.007.786-.431.192-.933.287-1.505.287-.751 0-1.373-.163-1.865-.489-.492-.326-.804-.802-.935-1.428l1.074-.269c.102.397.296.694.58.892.288.198.663.297 1.127.297.527 0 .946-.112 1.256-.335.313-.227.47-.499.47-.815 0-.256-.09-.47-.269-.643-.179-.175-.454-.307-.824-.393l-1.228-.287c-.674-.16-1.169-.408-1.486-.744-.313-.338-.47-.762-.47-1.27 0-.415.117-.783.35-1.103.237-.319.558-.57.964-.752a3.384 3.384 0 011.39-.274c.729 0 1.301.16 1.716.48.419.319.716.741.892 1.266zM10.035 212v-7.364h1.094v1.113h.076c.134-.365.377-.66.729-.887a2.145 2.145 0 011.189-.341c.083 0 .187.002.312.005.124.003.218.008.282.014v1.151a3.102 3.102 0 00-.263-.043 2.636 2.636 0 00-.427-.034c-.358 0-.678.075-.959.226a1.698 1.698 0 00-.661.613c-.16.259-.24.555-.24.887V212h-1.131zm7.887.153c-.71 0-1.322-.156-1.836-.469a3.157 3.157 0 01-1.184-1.324c-.275-.568-.413-1.23-.413-1.984 0-.755.138-1.419.412-1.995a3.256 3.256 0 011.16-1.352c.5-.326 1.08-.489 1.746-.489.383 0 .762.064 1.136.192.374.128.714.336 1.021.623.307.285.551.662.733 1.132.183.47.274 1.048.274 1.735v.48h-5.676v-.978h4.525a2.4 2.4 0 00-.25-1.112 1.876 1.876 0 00-.7-.772c-.3-.189-.654-.283-1.063-.283-.451 0-.84.112-1.17.335a2.216 2.216 0 00-.753.863 2.537 2.537 0 00-.263 1.141v.652c0 .556.095 1.028.287 1.415.195.383.465.675.81.877a2.38 2.38 0 001.204.297c.297 0 .565-.041.805-.125.243-.086.452-.214.628-.383a1.75 1.75 0 00.408-.642l1.093.306a2.42 2.42 0 01-.58.978 2.82 2.82 0 01-1.007.652c-.4.154-.849.23-1.347.23zm10.567-7.517L25.766 212h-1.15l-2.724-7.364h1.228l2.032 5.868h.077l2.033-5.868h1.227zM29.982 212v-7.364h1.132V212h-1.132zm.576-8.591a.805.805 0 01-.57-.225.724.724 0 01-.236-.542c0-.211.079-.391.235-.542.16-.15.35-.225.57-.225.221 0 .41.075.566.225.16.151.24.331.24.542 0 .211-.08.392-.24.542a.789.789 0 01-.565.225zm5.715 8.744c-.71 0-1.321-.156-1.836-.469a3.158 3.158 0 01-1.184-1.324c-.275-.568-.412-1.23-.412-1.984 0-.755.137-1.419.412-1.995a3.257 3.257 0 011.16-1.352c.499-.326 1.08-.489 1.745-.489.384 0 .762.064 1.136.192a2.83 2.83 0 011.022.623c.306.285.55.662.733 1.132.182.47.273 1.048.273 1.735v.48h-5.676v-.978h4.526a2.4 2.4 0 00-.25-1.112 1.876 1.876 0 00-.7-.772c-.3-.189-.655-.283-1.064-.283-.45 0-.84.112-1.17.335a2.216 2.216 0 00-.752.863 2.535 2.535 0 00-.264 1.141v.652c0 .556.096 1.028.288 1.415.195.383.465.675.81.877.345.198.746.297 1.203.297.297 0 .566-.041.806-.125.243-.086.452-.214.628-.383a1.75 1.75 0 00.407-.642l1.093.306a2.42 2.42 0 01-.58.978 2.82 2.82 0 01-1.007.652c-.4.154-.848.23-1.347.23zm5.902-4.583V212h-1.132v-7.364h1.093v1.151h.096c.173-.374.435-.674.787-.901.351-.23.805-.346 1.361-.346.499 0 .935.103 1.309.307.374.202.664.508.872.921.208.409.312.927.312 1.553V212h-1.131v-4.602c0-.579-.15-1.029-.451-1.352-.3-.326-.713-.489-1.237-.489a1.97 1.97 0 00-.968.235 1.678 1.678 0 00-.667.685c-.163.301-.244.665-.244 1.093zm7.897 0V212H48.94v-7.364h1.093v1.151h.096c.173-.374.435-.674.786-.901.352-.23.806-.346 1.362-.346.498 0 .935.103 1.309.307.374.202.665.508.872.921.208.409.312.927.312 1.553V212h-1.132v-4.602c0-.579-.15-1.029-.45-1.352-.3-.326-.713-.489-1.237-.489a1.97 1.97 0 00-.968.235 1.678 1.678 0 00-.667.685c-.163.301-.244.665-.244 1.093zm9.853 4.583c-.71 0-1.322-.156-1.836-.469a3.157 3.157 0 01-1.185-1.324c-.275-.568-.412-1.23-.412-1.984 0-.755.138-1.419.412-1.995a3.257 3.257 0 011.16-1.352c.5-.326 1.08-.489 1.746-.489.383 0 .762.064 1.136.192.374.128.714.336 1.02.623.308.285.552.662.734 1.132.182.47.274 1.048.274 1.735v.48h-5.676v-.978h4.525a2.4 2.4 0 00-.25-1.112 1.875 1.875 0 00-.7-.772c-.3-.189-.654-.283-1.063-.283-.451 0-.841.112-1.17.335a2.215 2.215 0 00-.753.863 2.535 2.535 0 00-.264 1.141v.652c0 .556.096 1.028.288 1.415.195.383.465.675.81.877a2.38 2.38 0 001.204.297c.297 0 .565-.041.805-.125.243-.086.452-.214.628-.383a1.75 1.75 0 00.408-.642l1.093.306a2.42 2.42 0 01-.58.978 2.82 2.82 0 01-1.007.652c-.4.154-.849.23-1.347.23zm5.901-4.583V212h-1.131v-7.364h1.093v1.151h.096c.172-.374.434-.674.786-.901.351-.23.805-.346 1.361-.346.499 0 .935.103 1.31.307.373.202.664.508.872.921.207.409.311.927.311 1.553V212h-1.131v-4.602c0-.579-.15-1.029-.45-1.352-.301-.326-.713-.489-1.238-.489a1.97 1.97 0 00-.968.235 1.678 1.678 0 00-.666.685c-.163.301-.245.665-.245 1.093zm9.968-2.934v.959h-3.816v-.959h3.816zm-2.704-1.764h1.132v7.019c0 .319.046.559.139.719a.72.72 0 00.364.316c.15.051.308.077.475.077a2.1 2.1 0 00.306-.019l.192-.039.23 1.017a2.46 2.46 0 01-.843.134c-.32 0-.633-.069-.94-.206a1.873 1.873 0 01-.757-.628c-.199-.282-.298-.636-.298-1.065v-7.325zm11.29 9.281c-.71 0-1.321-.156-1.836-.469a3.157 3.157 0 01-1.184-1.324c-.275-.568-.412-1.23-.412-1.984 0-.755.137-1.419.412-1.995a3.256 3.256 0 011.16-1.352c.499-.326 1.08-.489 1.745-.489.384 0 .762.064 1.136.192a2.83 2.83 0 011.022.623c.306.285.55.662.733 1.132.182.47.273 1.048.273 1.735v.48h-5.676v-.978h4.526c0-.416-.084-.787-.25-1.112a1.876 1.876 0 00-.7-.772c-.3-.189-.655-.283-1.064-.283-.45 0-.84.112-1.17.335a2.216 2.216 0 00-.752.863 2.535 2.535 0 00-.264 1.141v.652c0 .556.096 1.028.288 1.415.195.383.465.675.81.877.345.198.746.297 1.203.297.297 0 .566-.041.806-.125.242-.086.452-.214.628-.383a1.75 1.75 0 00.407-.642l1.093.306a2.42 2.42 0 01-.58.978 2.82 2.82 0 01-1.007.652c-.4.154-.848.23-1.347.23zm5.902-9.971V212H89.15v-9.818h1.132zm3.203 0V212h-1.131v-9.818h1.131zm5.16 9.971c-.71 0-1.322-.156-1.836-.469a3.158 3.158 0 01-1.184-1.324c-.275-.568-.413-1.23-.413-1.984 0-.755.138-1.419.413-1.995a3.257 3.257 0 011.16-1.352c.498-.326 1.08-.489 1.745-.489.383 0 .762.064 1.136.192.374.128.714.336 1.021.623.307.285.551.662.734 1.132.182.47.273 1.048.273 1.735v.48h-5.676v-.978h4.525c0-.416-.083-.787-.249-1.112a1.876 1.876 0 00-.7-.772c-.3-.189-.655-.283-1.064-.283-.45 0-.84.112-1.17.335a2.216 2.216 0 00-.753.863 2.535 2.535 0 00-.263 1.141v.652c0 .556.096 1.028.287 1.415.195.383.465.675.81.877a2.38 2.38 0 001.204.297c.297 0 .566-.041.805-.125a1.72 1.72 0 00.628-.383 1.75 1.75 0 00.408-.642l1.093.306a2.427 2.427 0 01-.58.978 2.829 2.829 0 01-1.007.652c-.4.154-.849.23-1.347.23zm9.986-5.867l-1.017.287a1.887 1.887 0 00-.282-.494 1.372 1.372 0 00-.499-.402c-.211-.106-.481-.159-.81-.159-.451 0-.826.104-1.127.312-.297.205-.446.465-.446.782 0 .281.103.503.307.666.205.163.524.299.959.407l1.093.269c.658.16 1.149.404 1.472.733.323.326.484.747.484 1.261 0 .422-.121.799-.364 1.132-.24.332-.576.594-1.007.786-.432.192-.933.287-1.505.287-.751 0-1.373-.163-1.865-.489-.492-.326-.804-.802-.935-1.428l1.074-.269c.102.397.295.694.58.892.287.198.663.297 1.126.297.528 0 .946-.112 1.256-.335.314-.227.47-.499.47-.815a.857.857 0 00-.268-.643c-.179-.175-.454-.307-.825-.393l-1.227-.287c-.674-.16-1.17-.408-1.486-.744-.313-.338-.47-.762-.47-1.27 0-.415.117-.783.35-1.103.236-.319.558-.57.964-.752a3.384 3.384 0 011.39-.274c.729 0 1.301.16 1.716.48.419.319.716.741.892 1.266zm7.801 5.887c-.467 0-.89-.088-1.271-.264a2.181 2.181 0 01-.906-.772c-.223-.339-.335-.748-.335-1.227 0-.422.083-.764.249-1.026.166-.265.388-.473.666-.623.279-.151.585-.262.921-.336a11.2 11.2 0 011.021-.182c.448-.058.81-.101 1.088-.13.282-.032.486-.084.614-.158.131-.073.197-.201.197-.383v-.039c0-.473-.13-.84-.389-1.102-.255-.262-.644-.393-1.165-.393-.54 0-.963.118-1.27.354-.307.237-.523.489-.647.758l-1.074-.384c.192-.447.447-.795.767-1.045a2.878 2.878 0 011.055-.527c.383-.102.76-.154 1.131-.154.236 0 .508.029.815.087.31.054.609.168.896.34.291.173.533.433.724.782.192.348.288.815.288 1.399V212h-1.131v-.997h-.058c-.077.16-.205.331-.384.513a2.22 2.22 0 01-.714.465c-.297.128-.66.192-1.088.192zm.172-1.017c.448 0 .825-.088 1.132-.263a1.8 1.8 0 00.94-1.558v-1.036c-.048.058-.154.11-.317.158-.16.045-.345.085-.556.12-.208.032-.411.061-.609.086a36.76 36.76 0 00-.474.058 4.328 4.328 0 00-.825.187 1.416 1.416 0 00-.614.379c-.153.166-.23.393-.23.68 0 .393.146.691.436.892.295.198.667.297 1.117.297zm.077-7.517l-1.496-2.224h1.324l1.169 2.224h-.997zm-42.646 63.122v-10.125h1.094v1.17h.134c.083-.128.198-.291.345-.489.15-.201.364-.38.642-.537.282-.16.662-.24 1.141-.24.62 0 1.167.155 1.64.466.473.31.842.749 1.107 1.318.266.569.398 1.24.398 2.013 0 .78-.132 1.456-.398 2.028-.265.569-.633 1.01-1.102 1.323-.47.31-1.012.465-1.626.465-.472 0-.851-.078-1.136-.234a2.116 2.116 0 01-.656-.542 7.426 7.426 0 01-.355-.508h-.096v3.892h-1.132zm1.113-6.443c0 .556.081 1.047.244 1.472.163.422.401.753.715.992.313.237.696.355 1.15.355.473 0 .868-.125 1.184-.374.32-.252.56-.591.72-1.016a3.99 3.99 0 00.244-1.429c0-.518-.08-.984-.24-1.4a2.166 2.166 0 00-.714-.992c-.317-.246-.714-.369-1.194-.369-.46 0-.847.116-1.16.35-.313.23-.55.553-.71.968-.16.412-.24.893-.24 1.443zm9.281 3.855c-.467 0-.89-.088-1.27-.264a2.177 2.177 0 01-.907-.772c-.223-.339-.335-.748-.335-1.227 0-.422.083-.764.25-1.026a1.76 1.76 0 01.666-.623 3.49 3.49 0 01.92-.336c.339-.077.68-.137 1.021-.182.448-.058.81-.101 1.088-.13.282-.032.486-.084.614-.158.131-.073.197-.201.197-.383v-.039c0-.473-.13-.84-.389-1.102-.255-.262-.644-.393-1.165-.393-.54 0-.963.118-1.27.354-.307.237-.523.489-.647.758l-1.074-.384c.192-.447.447-.795.767-1.045a2.88 2.88 0 011.055-.527c.383-.102.76-.154 1.131-.154.236 0 .508.029.815.087.31.054.609.168.896.34.291.173.533.433.724.782.192.348.288.815.288 1.399V264h-1.131v-.997h-.058c-.077.16-.204.331-.383.513a2.217 2.217 0 01-.715.465c-.297.128-.66.192-1.088.192zm.173-1.017c.447 0 .824-.088 1.131-.263a1.797 1.797 0 00.94-1.558v-1.036c-.048.058-.154.11-.317.158-.16.045-.345.085-.556.12-.208.032-.41.061-.609.086a36.76 36.76 0 00-.474.058 4.319 4.319 0 00-.825.187 1.416 1.416 0 00-.614.379c-.153.166-.23.393-.23.68 0 .393.146.691.437.892.294.198.666.297 1.117.297zm5.267.844v-7.364h1.093v1.113h.077c.134-.365.377-.66.728-.887a2.145 2.145 0 011.19-.341c.083 0 .186.002.311.005s.219.008.283.014v1.151a3.102 3.102 0 00-.264-.043 2.636 2.636 0 00-.427-.034 1.99 1.99 0 00-.958.226 1.698 1.698 0 00-.662.613c-.16.259-.24.555-.24.887V264h-1.13zm10.987.173c-.467 0-.89-.088-1.27-.264a2.178 2.178 0 01-.907-.772c-.224-.339-.335-.748-.335-1.227 0-.422.083-.764.249-1.026.166-.265.388-.473.666-.623a3.49 3.49 0 01.921-.336 11.2 11.2 0 011.021-.182c.447-.058.81-.101 1.088-.13.281-.032.486-.084.614-.158.131-.073.196-.201.196-.383v-.039c0-.473-.129-.84-.388-1.102-.256-.262-.644-.393-1.165-.393-.54 0-.964.118-1.27.354-.307.237-.523.489-.647.758l-1.074-.384c.191-.447.447-.795.767-1.045a2.882 2.882 0 011.054-.527 4.398 4.398 0 011.132-.154c.236 0 .508.029.815.087.31.054.609.168.896.34.291.173.532.433.724.782.192.348.288.815.288 1.399V264h-1.132v-.997h-.057c-.077.16-.205.331-.384.513a2.22 2.22 0 01-.714.465c-.297.128-.66.192-1.088.192zm.172-1.017c.448 0 .825-.088 1.132-.263a1.8 1.8 0 00.7-.681c.159-.278.239-.571.239-.877v-1.036c-.048.058-.153.11-.316.158-.16.045-.345.085-.556.12a22.786 22.786 0 01-1.084.144 4.3 4.3 0 00-.824.187 1.413 1.413 0 00-.614.379c-.153.166-.23.393-.23.68 0 .393.146.691.436.892.294.198.667.297 1.117.297zm6.399-3.586V264h-1.131v-7.364h1.093v1.151h.096c.172-.374.434-.674.786-.901.351-.23.805-.346 1.361-.346.499 0 .935.103 1.309.307.374.202.665.508.873.921.207.409.311.927.311 1.553V264h-1.131v-4.602c0-.579-.15-1.029-.451-1.352-.3-.326-.712-.489-1.237-.489-.361 0-.684.078-.968.235a1.679 1.679 0 00-.666.685c-.163.301-.245.665-.245 1.093zm-43.262-22.553v-1.449l6.392-10.113h1.051v2.244h-.71l-4.83 7.642v.114h8.608v1.562H64.165zM71.01 240v-14.545h1.677V240H71.01zm10.986.199c-.976 0-1.837-.173-2.585-.519-.744-.35-1.324-.831-1.74-1.441-.417-.616-.623-1.317-.618-2.103a3.867 3.867 0 01.362-1.704 3.707 3.707 0 011.008-1.314c.431-.355.912-.58 1.442-.675v-.085a2.81 2.81 0 01-1.662-1.172c-.412-.606-.615-1.295-.61-2.067-.005-.738.182-1.399.56-1.981.38-.583.9-1.042 1.563-1.378.668-.336 1.427-.504 2.28-.504.843 0 1.595.168 2.258.504a3.946 3.946 0 011.563 1.378c.383.582.578 1.243.582 1.981a3.602 3.602 0 01-.632 2.067 2.806 2.806 0 01-1.64 1.172v.085c.525.095.998.32 1.42.675.421.35.757.788 1.008 1.314.251.521.38 1.089.384 1.704a3.677 3.677 0 01-.64 2.103c-.416.61-.996 1.091-1.74 1.441-.738.346-1.593.519-2.563.519zm0-1.563c.658 0 1.226-.106 1.704-.319.479-.213.848-.514 1.108-.902.26-.388.393-.843.398-1.364a2.618 2.618 0 00-.426-1.456 2.89 2.89 0 00-1.144-.994c-.478-.242-1.025-.362-1.64-.362-.62 0-1.174.12-1.662.362a2.89 2.89 0 00-1.144.994c-.274.422-.41.907-.404 1.456-.005.521.12.976.376 1.364.26.388.632.689 1.115.902.483.213 1.056.319 1.719.319zm0-6.903c.52 0 .982-.104 1.385-.313.407-.208.727-.499.959-.873.232-.374.35-.812.355-1.314-.005-.492-.121-.921-.348-1.286a2.26 2.26 0 00-.945-.852c-.402-.203-.871-.305-1.406-.305-.545 0-1.02.102-1.428.305a2.206 2.206 0 00-.944.852c-.223.365-.332.794-.327 1.286-.005.502.106.94.334 1.314.232.374.551.665.959.873.407.209.876.313 1.406.313zm8.466 8.381a1.23 1.23 0 01-.902-.377 1.23 1.23 0 01-.377-.902c0-.35.126-.651.377-.902a1.23 1.23 0 01.902-.376c.35 0 .65.125.902.376.25.251.376.552.376.902 0 .232-.06.445-.177.639a1.318 1.318 0 01-.462.469c-.19.114-.403.171-.64.171zm7.633-14.659V240h-1.761v-12.699h-.086l-3.55 2.358v-1.79l3.636-2.414h1.76zM102.279 240v-1.278l4.801-5.256a33.213 33.213 0 001.392-1.605c.365-.459.635-.89.81-1.293.18-.407.27-.833.27-1.278 0-.512-.123-.954-.369-1.328a2.402 2.402 0 00-.995-.867 3.23 3.23 0 00-1.42-.305c-.559 0-1.047.116-1.463.348a2.393 2.393 0 00-.959.959c-.223.412-.334.894-.334 1.448h-1.676c0-.852.196-1.6.589-2.244a4.093 4.093 0 011.606-1.506c.681-.359 1.446-.539 2.294-.539.852 0 1.607.18 2.265.539.658.36 1.174.846 1.548 1.456.375.611.562 1.291.562 2.039 0 .535-.097 1.058-.292 1.569-.189.507-.52 1.073-.994 1.698-.469.62-1.12 1.378-1.953 2.273l-3.267 3.494v.114h6.761V240h-9.176zm21.03-9.403l-.653 1.42h-9.262l.512-1.42h9.403zm-1.222 2.841l-.653 1.42h-8.04l.512-1.42h8.181zm2.898-6.677l-.682 1.478a5.858 5.858 0 00-.959-.711 4.683 4.683 0 00-1.058-.461 4.09 4.09 0 00-1.165-.164c-.804 0-1.529.223-2.173.668-.644.445-1.153 1.101-1.527 1.967-.374.867-.561 1.93-.561 3.189 0 1.26.187 2.323.561 3.189.374.867.883 1.522 1.527 1.968a3.734 3.734 0 002.173.667c.417 0 .81-.054 1.179-.163a4.549 4.549 0 001.044-.448c.327-.189.628-.402.902-.639l.711 1.477a4.998 4.998 0 01-1.747 1.066 6.224 6.224 0 01-2.089.355c-1.164 0-2.197-.303-3.096-.909-.895-.606-1.598-1.468-2.11-2.585-.506-1.118-.759-2.444-.759-3.978 0-1.534.253-2.86.759-3.977.512-1.117 1.215-1.979 2.11-2.585.899-.606 1.932-.909 3.096-.909.753 0 1.456.13 2.11.39a5.459 5.459 0 011.754 1.115z" fill="#000"/></svg>