<svg width="458" height="619" viewBox="0 0 458 619" fill="none" xmlns="http://www.w3.org/2000/svg">
<rect x="3" y="3" width="452" height="613" rx="5" fill="#FAFCF8" stroke="#D9D9D9" stroke-width="5" stroke-linejoin="round"/>
<circle cx="230" cy="312" r="174" fill="#FAFCF8" stroke="#D9D9D9" stroke-width="5" stroke-linejoin="round"/>
<circle cx="230" cy="312" r="141" fill="#FAFCF8" stroke="#D9D9D9" stroke-width="5" stroke-linejoin="round"/>
<path d="M330.578 260.573L379.438 233.525C381.926 232.148 385.062 233.12 386.237 235.71C392.07 248.575 401.674 274.146 403.5 303C405.8 339.343 393.709 372.3 385.141 390.577C383.981 393.051 381.023 394.047 378.561 392.861L330.83 369.863C329.1 369.03 328 367.279 328 365.359V264.947C328 263.129 328.987 261.453 330.578 260.573Z" fill="#FAFCF8" stroke="#D9D9D9" stroke-width="5" stroke-linejoin="round"/>
<circle cx="403.502" cy="52.119" r="27.119" fill="#FAFCF8" stroke="#D9D9D9" stroke-width="5" stroke-linejoin="round"/>
<circle cx="403.504" cy="52.1209" r="20.7381" fill="#FAFCF8" stroke="#D9D9D9" stroke-width="5" stroke-linejoin="round"/>
<path d="M21 75V28C21 25.2386 23.2386 23 26 23H115C117.761 23 120 25.2386 120 28V66.6375C120 68.714 118.717 70.5744 116.775 71.3117L94.7578 79.6742C94.1907 79.8896 93.5891 80 92.9825 80H26C23.2386 80 21 77.7614 21 75Z" fill="#FAFCF8" stroke="#D9D9D9" stroke-width="5" stroke-linejoin="round"/>
<rect x="206" y="31" width="82" height="43" rx="5" fill="#FAFCF8" stroke="#D9D9D9" stroke-width="5"/>
<path d="M190.53 53.0864V56.1294H180.761V53.0864H190.53ZM237.923 37.6914V67H234.22V42.3159L226.752 45.0386V41.6953L237.343 37.6914H237.923ZM267.112 50.1035V54.5479C267.112 56.9368 266.898 58.9521 266.471 60.5938C266.044 62.2354 265.43 63.5566 264.629 64.5576C263.829 65.5586 262.861 66.286 261.727 66.7397C260.605 67.1802 259.338 67.4004 257.923 67.4004C256.802 67.4004 255.767 67.2603 254.82 66.98C253.872 66.6997 253.018 66.2526 252.257 65.6387C251.51 65.0114 250.869 64.1973 250.335 63.1963C249.802 62.1953 249.395 60.9808 249.114 59.5527C248.834 58.1247 248.694 56.4564 248.694 54.5479V50.1035C248.694 47.7145 248.907 45.7126 249.334 44.0977C249.775 42.4827 250.396 41.1882 251.196 40.2139C251.997 39.2262 252.958 38.5189 254.079 38.0918C255.214 37.6647 256.481 37.4512 257.883 37.4512C259.017 37.4512 260.058 37.5913 261.006 37.8716C261.967 38.1385 262.821 38.5723 263.568 39.1729C264.316 39.7601 264.95 40.5475 265.47 41.5352C266.004 42.5094 266.411 43.7039 266.691 45.1187C266.972 46.5334 267.112 48.195 267.112 50.1035ZM263.388 55.1484V49.4829C263.388 48.175 263.308 47.0272 263.148 46.0396C263.001 45.0386 262.781 44.1844 262.487 43.4771C262.194 42.7697 261.82 42.1958 261.366 41.7554C260.926 41.3149 260.412 40.9946 259.825 40.7944C259.251 40.5809 258.604 40.4741 257.883 40.4741C257.002 40.4741 256.221 40.641 255.541 40.9746C254.86 41.2949 254.286 41.8088 253.819 42.5161C253.365 43.2235 253.018 44.151 252.778 45.2988C252.538 46.4466 252.417 47.8413 252.417 49.4829V55.1484C252.417 56.4564 252.491 57.6108 252.638 58.6118C252.798 59.6128 253.031 60.4803 253.338 61.2144C253.645 61.9351 254.019 62.529 254.459 62.9961C254.9 63.4632 255.407 63.8102 255.981 64.0371C256.568 64.2507 257.215 64.3574 257.923 64.3574C258.83 64.3574 259.625 64.1839 260.305 63.8369C260.986 63.4899 261.553 62.9494 262.007 62.2153C262.474 61.4679 262.821 60.5137 263.048 59.3525C263.275 58.1781 263.388 56.7767 263.388 55.1484ZM321.505 51.3647V54.8481H301.525V51.3647H321.505ZM313.377 42.8564V64.0771H309.673V42.8564H313.377Z" fill="black"/>
</svg>
