<svg width="458" height="619" fill="none" xmlns="http://www.w3.org/2000/svg"><rect x="3" y="3" width="452" height="613" rx="5" fill="#FAFCF8" stroke="#D9D9D9" stroke-width="5" stroke-linejoin="round"/><circle cx="230" cy="312" r="174" fill="#FAFCF8" stroke="#D9D9D9" stroke-width="5" stroke-linejoin="round"/><circle cx="230" cy="312" r="141" fill="#FAFCF8" stroke="#D9D9D9" stroke-width="5" stroke-linejoin="round"/><path d="M330.578 260.573l48.86-27.048c2.488-1.377 5.624-.405 6.799 2.185 5.833 12.865 15.437 38.436 17.263 67.29 2.3 36.343-9.791 69.3-18.359 87.577-1.16 2.474-4.118 3.47-6.58 2.284l-47.731-22.998a5 5 0 01-2.83-4.504V264.947c0-1.818.987-3.494 2.578-4.374z" fill="#FAFCF8" stroke="#D9D9D9" stroke-width="5" stroke-linejoin="round"/><circle cx="403.502" cy="52.119" r="27.119" fill="#FAFCF8" stroke="#D9D9D9" stroke-width="5" stroke-linejoin="round"/><circle cx="403.504" cy="52.121" r="20.738" fill="#FAFCF8" stroke="#D9D9D9" stroke-width="5" stroke-linejoin="round"/><path d="M21 75V28a5 5 0 015-5h89a5 5 0 015 5v38.638a5 5 0 01-3.225 4.674l-22.017 8.362a5 5 0 01-1.775.326H26a5 5 0 01-5-5z" fill="#FAFCF8" stroke="#D9D9D9" stroke-width="5" stroke-linejoin="round"/><rect x="206" y="31" width="82" height="43" rx="5" fill="#FAFCF8" stroke="#D9D9D9" stroke-width="5"/><path d="M190.53 53.086v3.043h-9.769v-3.043h9.769zm47.393-15.395V67h-3.703V42.316l-7.468 2.723v-3.344l10.591-4.004h.58zm29.189 12.412v4.445c0 2.389-.214 4.404-.641 6.046-.427 1.641-1.041 2.963-1.842 3.964-.8 1-1.768 1.728-2.902 2.182-1.122.44-2.389.66-3.804.66-1.121 0-2.156-.14-3.103-.42a7.368 7.368 0 01-2.563-1.341c-.747-.628-1.388-1.442-1.922-2.443-.533-1-.94-2.215-1.221-3.643-.28-1.428-.42-3.097-.42-5.005v-4.445c0-2.389.213-4.39.64-6.005.441-1.615 1.062-2.91 1.862-3.884.801-.988 1.762-1.695 2.883-2.122 1.135-.427 2.402-.64 3.804-.64 1.134 0 2.175.14 3.123.42a7.06 7.06 0 012.562 1.3c.748.588 1.382 1.376 1.902 2.363.534.974.941 2.169 1.221 3.584.281 1.414.421 3.076.421 4.984zm-3.724 5.045v-5.665c0-1.308-.08-2.456-.24-3.443-.147-1.001-.367-1.856-.661-2.563-.293-.707-.667-1.281-1.121-1.722-.44-.44-.954-.76-1.541-.96-.574-.214-1.221-.32-1.942-.32-.881 0-1.662.166-2.342.5-.681.32-1.255.834-1.722 1.541-.454.708-.801 1.635-1.041 2.783-.24 1.148-.361 2.542-.361 4.184v5.665c0 1.308.074 2.463.221 3.464.16 1 .393 1.868.7 2.602.307.721.681 1.315 1.121 1.782a4.2 4.2 0 001.522 1.041c.587.214 1.234.32 1.942.32.907 0 1.702-.173 2.382-.52.681-.347 1.248-.888 1.702-1.622.467-.747.814-1.701 1.041-2.863.227-1.174.34-2.575.34-4.204zm58.117-3.783v3.483h-19.98v-3.483h19.98zm-8.128-8.509v21.221h-3.704v-21.22h3.704z" fill="#000"/></svg>