<svg width="583" height="609" fill="none" xmlns="http://www.w3.org/2000/svg"><rect x="3" y="3" width="577" height="603" rx="5" fill="#FAFCF8" stroke="#D9D9D9" stroke-width="5" stroke-linejoin="round"/><rect x="44" y="46" width="495" height="517" rx="5" fill="#FAFCF8" stroke="#D9D9D9" stroke-width="5" stroke-linejoin="round"/><rect x="509" y="273" width="13" height="63" rx="5" fill="#FAFCF8" stroke="#D9D9D9" stroke-width="5" stroke-linejoin="round"/><path d="M112.5 308H475" stroke="#999" stroke-width="10"/><rect x="244.254" y="193" width="203.068" height="121.59" rx="5" transform="rotate(78.753 244.254 193)" fill="#FAFCF8" stroke="#81EC40" stroke-width="3" stroke-linejoin="round"/><ellipse cx="241.04" cy="350.244" rx="4.151" ry="2.507" transform="rotate(116.882 241.04 350.244)" fill="#FAFCF8" stroke="#81EC40" stroke-width="3" stroke-linejoin="round"/><ellipse cx="258.073" cy="374.61" rx="5.411" ry="3.157" transform="rotate(66.594 258.073 374.61)" fill="#FAFCF8" stroke="#81EC40" stroke-width="3" stroke-linejoin="round"/><ellipse cx="219.608" cy="390.921" rx="3.322" ry="2.595" transform="rotate(-36.312 219.608 390.921)" fill="#FAFCF8" stroke="#81EC40" stroke-width="3" stroke-linejoin="round"/><ellipse cx="185.933" cy="274.251" rx="3.322" ry="2.595" transform="rotate(-1.603 185.933 274.251)" fill="#FAFCF8" stroke="#81EC40" stroke-width="3" stroke-linejoin="round"/><ellipse cx="256.065" cy="313.03" rx="2.829" ry="2.21" transform="rotate(-47.785 256.065 313.03)" fill="#FAFCF8" stroke="#81EC40" stroke-width="3" stroke-linejoin="round"/><ellipse cx="247.839" cy="274.413" rx="3.879" ry="3.03" transform="rotate(-47.785 247.839 274.413)" fill="#FAFCF8" stroke="#81EC40" stroke-width="3" stroke-linejoin="round"/><ellipse cx="195.746" cy="214.287" rx="3.879" ry="3.03" transform="rotate(-72.213 195.746 214.287)" fill="#FAFCF8" stroke="#81EC40" stroke-width="3" stroke-linejoin="round"/><ellipse cx="155.176" cy="227.814" rx="3.879" ry="3.03" transform="rotate(-72.213 155.176 227.814)" fill="#FAFCF8" stroke="#81EC40" stroke-width="3" stroke-linejoin="round"/><ellipse cx="139.727" cy="222.411" rx="2.489" ry="2.62" transform="rotate(-72.213 139.727 222.411)" fill="#FAFCF8" stroke="#81EC40" stroke-width="3" stroke-linejoin="round"/><ellipse cx="163.301" cy="308.786" rx="1.731" ry="2.62" transform="rotate(.087 163.301 308.786)" fill="#FAFCF8" stroke="#81EC40" stroke-width="3" stroke-linejoin="round"/><ellipse cx="172.045" cy="358.581" rx="1.731" ry="2.62" transform="rotate(-32.242 172.045 358.581)" fill="#FAFCF8" stroke="#81EC40" stroke-width="3" stroke-linejoin="round"/><ellipse cx="216.042" cy="305.018" rx="1.731" ry="2.62" transform="rotate(47.815 216.042 305.018)" fill="#FAFCF8" stroke="#81EC40" stroke-width="3" stroke-linejoin="round"/><ellipse cx="213.298" cy="250.157" rx="2.677" ry="2.62" transform="rotate(47.815 213.298 250.157)" fill="#FAFCF8" stroke="#81EC40" stroke-width="3" stroke-linejoin="round"/><path d="M276.697 457.387V511h-6.775v-45.154l-13.66 4.981v-6.116l19.373-7.324h1.062zm53.393 22.705v8.13c0 4.37-.39 8.056-1.172 11.059-.781 3.003-1.904 5.42-3.369 7.251-1.465 1.831-3.235 3.162-5.31 3.992-2.051.806-4.37 1.208-6.958 1.208-2.051 0-3.943-.256-5.676-.769a13.472 13.472 0 01-4.688-2.453c-1.367-1.148-2.539-2.637-3.515-4.468-.977-1.831-1.721-4.053-2.234-6.665-.513-2.612-.769-5.664-.769-9.155v-8.13c0-4.37.391-8.032 1.172-10.987.805-2.954 1.941-5.322 3.406-7.104 1.464-1.807 3.222-3.101 5.273-3.882 2.075-.781 4.395-1.172 6.958-1.172 2.075 0 3.98.257 5.713.769 1.758.489 3.32 1.282 4.687 2.381 1.368 1.074 2.527 2.514 3.479 4.321.977 1.782 1.722 3.967 2.234 6.555.513 2.588.769 5.628.769 9.119zm-6.811 9.228v-10.363c0-2.393-.147-4.493-.44-6.299-.268-1.831-.671-3.394-1.208-4.688-.537-1.294-1.221-2.344-2.051-3.149a7.242 7.242 0 00-2.82-1.758c-1.05-.391-2.234-.586-3.552-.586-1.611 0-3.04.305-4.285.916-1.245.586-2.295 1.525-3.149 2.819-.83 1.294-1.465 2.991-1.904 5.091-.44 2.099-.66 4.651-.66 7.654v10.363c0 2.393.135 4.505.403 6.336.293 1.831.72 3.418 1.282 4.761.562 1.318 1.245 2.404 2.051 3.259a7.663 7.663 0 002.783 1.904c1.074.391 2.258.586 3.552.586 1.66 0 3.113-.317 4.358-.952 1.245-.635 2.283-1.624 3.113-2.966.854-1.368 1.489-3.113 1.904-5.237.415-2.149.623-4.712.623-7.691z" fill="#000"/></svg>