<svg width="436" height="599" fill="none" xmlns="http://www.w3.org/2000/svg"><path d="M97.5 246v-15.5a5 5 0 015-5H321a5 5 0 015 5V246a5 5 0 01-5 5H102.5a5 5 0 01-5-5zm14 47.999c-10.656-.969-40.708-10.691-60.49-17.384-4.3-1.455-4.24-6.548.242-7.272 22.897-3.696 63.544-3.104 85.785-2.887a5.011 5.011 0 014.963 5.01v18.04c0 2.555-1.923 4.696-4.474 4.849-6.119.367-15.906.564-26.026-.356zm218-.001c10.616-.965 39.189-9.648 58.467-15.958 4.315-1.413 4.283-6.541-.187-7.336-22.475-4-61.788-4.317-83.816-4.232a4.987 4.987 0 00-4.964 4.993v18.04c0 2.556 1.923 4.696 4.474 4.849 6.119.367 15.906.564 26.026-.356z" fill="#FAFCF8" stroke="#D9D9D9" stroke-width="5" stroke-linejoin="round"/><path d="M140.501 285.001v-13.697a4.976 4.976 0 014.267-4.928c68.65-9.766 128.062-4.594 153.247-.132 2.339.414 3.986 2.462 3.986 4.838v13.919a5 5 0 005 5h32.259c2.218 0 4.156 1.401 4.764 3.535 29.354 103.099 44.639 302.465-123.023 302.465-167.64 0-154.336-199.311-126-302.422.592-2.155 2.542-3.578 4.776-3.578h35.724a5 5 0 005-5z" fill="#FAFCF8" stroke="#D9D9D9" stroke-width="5" stroke-linejoin="round"/><ellipse cx="220" cy="463" rx="85" ry="103" fill="#FAFCF8" stroke="#D9D9D9" stroke-width="5" stroke-linejoin="round"/><path d="M217.01 395.103c-10.853.982-21.289 6.423-26.459 9.861-1.063.708-1.749 1.832-1.946 3.094-3.808 24.401-3.142 69.853 28.405 70.924 31.555 1.071 33.959-45.564 31.089-70.869-.146-1.295-.809-2.47-1.871-3.225-6.038-4.289-18.173-10.785-29.218-9.785zM40 268.193v1.776c0 2.961 2.525 5.276 5.472 4.99 37.41-3.631 117.666-9.957 180.028-9.957 61.866 0 133.338 6.225 166.437 9.87a5.012 5.012 0 005.563-4.988v-1.903c0-1.836-.98-3.526-2.65-4.289-17.524-8.005-71.35-22.055-169.35-23.19-98.778-1.145-160.859 14.287-182.604 23.238-1.8.74-2.896 2.507-2.896 4.453zM3 128C3 58.964 58.964 3 128 3h180c69.036 0 125 55.964 125 125v51.267c0 1.123-.365 2.195-1.132 3.014C424.009 190.676 373.215 237.5 218 237.5S11.991 190.676 4.132 182.281C3.365 181.461 3 180.39 3 179.267V128z" fill="#FAFCF8" stroke="#D9D9D9" stroke-width="5" stroke-linejoin="round"/><circle cx="209" cy="73" r="30" fill="#FAFCF8" stroke="#D9D9D9" stroke-width="5" stroke-linejoin="round"/><circle cx="209" cy="73" r="21" fill="#FAFCF8" stroke="#D9D9D9" stroke-width="5" stroke-linejoin="round"/><circle cx="218" cy="449" r="134" stroke="#999" stroke-width="10"/><mask id="a" style="mask-type:alpha" maskUnits="userSpaceOnUse" x="229" y="224" width="128" height="234"><path transform="rotate(-165 298.941 457.77)" fill="#D9D9D9" d="M298.941 457.77h72.103v222.003h-72.103z"/></mask><g mask="url(#a)" fill="#fff" stroke="#81EC40" stroke-width="5" stroke-linejoin="round"><path d="M346.249 255.456c.993-5.571-1.616-11.342-3.044-13.532l-46.095-12.351c-3.89-1.042-37.501 132.953-36.48 136.145 1.021 3.192 3.222 5.867 9.3 10.414 4.862 3.637 10.305 12.628 12.419 16.668l11.887 16.318c2.148-2.829 8.324-10.527 15.846-18.684 9.403-10.196 34.927-128.014 36.167-134.978zm-73.39 164.97c1.929-.456 6.441-1.943 9.059-4.244l-9.381-8.558c.164 1.878-3.146 6.036-4.821 7.88l5.143 4.922z"/><path d="M285.062 418.689l11.833-10.942-15.753-15.895-11.209 13.048s3.489 6.355 6.634 9.355c3.146 3 8.495 4.434 8.495 4.434z"/></g><path d="M203.578 432.684V472h-4.969v-33.113l-10.017 3.653v-4.485l14.207-5.371h.779zm39.155 16.65v5.962c0 3.205-.287 5.908-.859 8.11-.573 2.202-1.397 3.975-2.471 5.318-1.074 1.342-2.372 2.318-3.894 2.927-1.504.591-3.205.886-5.103.886-1.504 0-2.891-.188-4.162-.564a9.89 9.89 0 01-3.438-1.799c-1.002-.842-1.862-1.934-2.578-3.277-.716-1.342-1.262-2.972-1.638-4.887-.376-1.916-.564-4.154-.564-6.714v-5.962c0-3.205.286-5.89.859-8.057.591-2.166 1.424-3.903 2.498-5.21 1.074-1.324 2.363-2.273 3.867-2.846 1.522-.573 3.223-.86 5.103-.86 1.521 0 2.918.188 4.189.564a9.456 9.456 0 013.437 1.746c1.003.788 1.854 1.844 2.552 3.169.716 1.307 1.262 2.909 1.638 4.807.376 1.898.564 4.127.564 6.687zm-4.995 6.768v-7.601c0-1.754-.108-3.294-.322-4.619-.197-1.342-.493-2.488-.887-3.437-.394-.949-.895-1.719-1.504-2.31a5.31 5.31 0 00-2.067-1.289c-.77-.286-1.639-.429-2.605-.429-1.182 0-2.229.223-3.143.671-.913.43-1.682 1.119-2.309 2.068-.609.949-1.074 2.193-1.397 3.733-.322 1.539-.483 3.41-.483 5.612v7.601c0 1.754.098 3.303.295 4.646.215 1.342.529 2.506.94 3.491.412.967.913 1.763 1.504 2.39a5.612 5.612 0 002.041 1.396c.788.287 1.656.43 2.605.43 1.218 0 2.283-.233 3.196-.698.913-.466 1.674-1.191 2.283-2.175.626-1.003 1.092-2.283 1.396-3.841.305-1.575.457-3.455.457-5.639z" fill="#000"/></svg>