<svg width="355" height="748" viewBox="0 0 355 748" fill="none" xmlns="http://www.w3.org/2000/svg">
<mask id="mask0_1059_22" style="mask-type:alpha" maskUnits="userSpaceOnUse" x="0" y="0" width="355" height="748">
<rect width="355" height="748" fill="#D9D9D9"/>
</mask>
<g mask="url(#mask0_1059_22)">
<path d="M156.465 238.377C152.854 222.3 164.692 204.062 171.062 196.952L240.566 181.338C252.009 194.322 279.953 223.968 292.374 240.435C307.901 261.019 353.718 349.237 383.752 426.927C413.785 504.618 434.043 650.795 425.394 668.292C416.744 685.79 363.243 703.364 320.212 711.549C277.182 719.735 212.747 737.173 184.978 734.893C157.209 732.614 118.423 593.561 120.92 533.746C123.418 473.93 184.021 318.105 184.215 298.434C184.408 278.762 160.98 258.472 156.465 238.377Z" stroke="#D9D9D9" stroke-width="5"/>
<path d="M158.422 140.016L171.099 196.445L239.52 181.075L226.843 124.645L194.396 131.934L158.422 140.016Z" stroke="#81EC40" stroke-width="5"/>
<path d="M115.007 118.277C129.19 120.722 149.73 134.311 158.226 140.8L226.648 125.429C226.467 120.777 227.836 110.269 234.757 105.454C243.408 99.435 259.611 103.946 265.251 84.5249C270.891 65.1042 241.818 56.075 195.181 48.0276C157.872 41.5896 100.869 63.0399 77.0311 74.5697L87.5688 121.477C94.9752 119.813 100.824 115.832 115.007 118.277Z" stroke="#81EC40" stroke-width="5"/>
<path d="M76.5535 75.3326C68.67 79.8205 53.6622 91.5155 56.6985 102.393C59.7348 113.27 78.1725 119.921 87.0119 121.887" stroke="#81EC40" stroke-width="5"/>
<path d="M119.936 149.557C127.758 142.577 134.55 131.586 136.969 126.962C120.247 115.705 105.945 116.433 100.884 118.205C100.329 120.596 99.1581 126.317 98.9099 130.072C98.5996 134.766 72.3915 180.909 69.2309 191.139C66.0702 201.37 63.6193 203.824 72.1975 204.345C80.7757 204.866 87.8221 186.419 95.5162 175.715C103.21 165.01 110.16 158.281 119.936 149.557Z" stroke="#81EC40" stroke-width="5"/>
</g>
</svg>
