<svg width="135" height="230" viewBox="0 0 135 230" fill="none" xmlns="http://www.w3.org/2000/svg">
<path d="M44.1852 70.1592C42.8365 65.1258 45.7868 59.3585 47.4306 57.104L67.189 51.8097C70.6757 55.8444 78.6076 65.1949 82.4415 70.3196C87.234 76.7254 101.945 104.253 112 128.533C122.055 152.813 130.781 198.626 128.712 204.15C126.643 209.673 111.964 215.381 100.035 218.104C88.1058 220.827 70.35 226.531 62.4949 225.915C54.6398 225.299 40.8517 181.788 40.3139 163.003C39.7762 144.218 53.5858 95.0877 53.2325 88.9121C52.8791 82.7365 45.8711 76.451 44.1852 70.1592Z" fill="#E4E3C6"/>
<path d="M41.6533 39.9591L46.3856 57.6203L67.7998 51.8824L63.0675 34.2212L52.9123 36.9423L41.6533 39.9591Z" fill="#85898C"/>
<path d="M27.6599 33.6529C32.1716 34.2423 38.8348 38.2697 41.6025 40.2097L63.0167 34.4718C62.8996 33.0046 63.1965 29.6677 65.3204 28.0574C67.9754 26.0446 73.1518 27.2604 74.6829 21.0531C76.2139 14.8458 66.9138 12.3688 52.0786 10.4285C40.2105 8.87626 22.4815 16.3873 15.1005 20.3368L19.0342 35.0177C21.3523 34.3966 23.1483 33.0635 27.6599 33.6529Z" fill="#9FA39E"/>
<path d="M9.25873 29.0003C8.15932 25.6037 12.749 21.7159 15.1813 20.1966L19.0855 34.7671C16.268 34.2601 10.3581 32.3969 9.25873 29.0003Z" fill="#85898C"/>
<path d="M29.6197 43.4695C32.0002 41.164 34.004 37.6044 34.7083 36.1128C29.281 32.7725 24.7728 33.1872 23.1971 33.8121C23.0527 34.5746 22.7566 36.3969 22.7266 37.5862C22.6892 39.0728 15.006 53.9865 14.1396 57.2587C13.2732 60.5308 12.5307 61.3378 15.2471 61.3917C17.9634 61.4456 19.9512 55.5277 22.2435 52.0472C24.5358 48.5667 26.6441 46.3514 29.6197 43.4695Z" fill="#B1B5B0"/>
<path d="M71.0222 101.913C59.9055 104.589 57.462 120.666 55.5853 129.233C53.7087 137.8 52.4124 141.927 50.9639 160.586C49.38 180.988 54.5031 205.88 61.9694 213.455C67.9425 219.515 86.028 214.065 96.1726 211.346C103.958 209.26 118.547 205.2 120.471 201.055C122.876 195.875 126.544 182.67 116.736 158.334C106.928 133.998 84.9181 98.5675 71.0222 101.913Z" fill="#A1AAB9"/>
</svg>
