<svg width="194" height="210" viewBox="0 0 194 210" fill="none" xmlns="http://www.w3.org/2000/svg">
<path d="M104.84 30.3607C88.6216 32.6419 30.2757 42.6699 3.12998 47.3987C8.92803 52.5463 101.329 42.9361 115.923 41.9313C130.518 40.9265 171.12 32.7798 174.239 28.4741C177.357 24.1684 125.113 27.5092 104.84 30.3607Z" fill="#283857"/>
<path d="M149.106 14.649C151.558 13.104 156.772 12.9326 159.072 13.0401L165.339 17.2094C168.156 19.0833 168.651 22.2361 168.546 23.5783C168.349 28.1526 163.473 35.0055 157.441 43.2518C151.915 50.8061 143.762 62.3145 139.581 63.4612C136.655 64.9541 128.882 60.4363 128.104 60.0374C128.239 59.8624 127.22 59.5482 124.579 57.7913C120.989 55.4028 121.51 51.6798 123.009 48.5077C124.508 45.3357 140.326 23.995 141.539 22.4202C142.753 20.8454 146.041 16.5802 149.106 14.649Z" fill="white"/>
<path d="M143.405 10.8568C145.857 9.31179 151.071 9.14041 153.371 9.24783L159.638 13.4172C162.455 15.2911 162.95 18.4439 162.845 19.7861C162.648 24.3604 157.772 31.2133 151.74 39.4596C146.213 47.0139 138.061 58.5223 133.88 59.6689C130.954 61.1618 123.181 56.6441 122.403 56.2451C122.538 56.0701 121.519 55.7559 118.878 53.9991C115.288 51.6106 115.809 47.8875 117.308 44.7155C118.806 41.5435 134.624 20.2028 135.838 18.628C137.052 17.0531 140.339 12.788 143.405 10.8568Z" fill="#2D74A9"/>
<path d="M141.058 9.295C143.511 7.75003 148.724 7.57864 151.024 7.68607L157.291 11.8554C160.108 13.7293 160.603 16.8821 160.499 18.2243C160.301 22.7986 155.426 29.6515 149.393 37.8978C143.867 45.4521 135.715 56.9605 131.534 58.1072C128.607 59.6001 120.834 55.0823 120.057 54.6834C120.191 54.5084 119.172 54.1942 116.531 52.4373C112.941 50.0488 113.462 46.3258 114.961 43.1537C116.46 39.9817 132.278 18.641 133.491 17.0662C134.705 15.4914 137.993 11.2262 141.058 9.295Z" fill="#66A6D6"/>
<path d="M36.2038 47.3299C34.6048 45.0517 29.8699 43.08 27.7022 42.379L20.1326 44.0443C16.7305 44.7928 14.9208 47.5285 14.4412 48.8028C12.6605 53.0907 14.2165 61.1074 16.2418 70.8119C18.0971 79.702 20.6775 93.1527 24.0417 95.6648C26.1 98.0596 35.2086 96.597 36.0967 96.4995C36.0474 96.2911 37.1225 96.356 40.3121 95.6542C44.6486 94.7002 45.7655 91.0849 45.7444 87.6378C45.7233 84.1908 40.2917 59.0046 39.848 57.1299C39.4042 55.2551 38.2024 50.1775 36.2038 47.3299Z" fill="white"/>
<path d="M43.0895 45.8152C41.4906 43.5371 36.7556 41.5654 34.588 40.8643L27.0183 42.5297C23.6162 43.2782 21.8065 46.0139 21.3269 47.2882C19.5463 51.5761 21.1022 59.5928 23.1275 69.2973C24.9828 78.1874 27.5632 91.638 30.9275 94.1501C32.9857 96.545 42.0943 95.0824 42.9825 94.9848C42.9332 94.7765 44.0082 94.8413 47.1979 94.1396C51.5343 93.1855 52.6512 89.5703 52.6301 86.1232C52.609 82.6761 47.1775 57.49 46.7337 55.6152C46.29 53.7404 45.0881 48.6629 43.0895 45.8152Z" fill="#2D74A9"/>
<path d="M45.9245 45.1914C44.3255 42.9133 39.5906 40.9416 37.423 40.2405L29.8533 41.9059C26.4512 42.6544 24.6415 45.3901 24.1619 46.6644C22.3812 50.9523 23.9372 58.969 25.9625 68.6735C27.8178 77.5636 30.3982 91.0143 33.7624 93.5263C35.8207 95.9212 44.9293 94.4586 45.8175 94.361C45.7681 94.1527 46.8432 94.2175 50.0328 93.5158C54.3693 92.5618 55.4862 88.9465 55.4651 85.4994C55.444 82.0523 50.0124 56.8662 49.5687 54.9914C49.1249 53.1166 47.9231 48.0391 45.9245 45.1914Z" fill="#66A6D6"/>
<path d="M73.7495 51.6901C71.1194 52.9492 68.4106 57.1486 67.385 59.0909L68.18 66.2793C68.5374 69.5101 71.2145 71.4591 72.5084 72.0297C76.8406 74.1048 85.5708 73.4514 96.1571 72.5287C105.855 71.6836 120.499 70.6152 123.606 67.741C126.419 66.0672 126.039 57.4707 126.049 56.6369C125.821 56.6621 126.029 55.6709 125.694 52.6419C125.239 48.5239 121.536 47.1311 117.866 46.8108C114.196 46.4906 86.6984 49.0477 84.6464 49.2746C82.5945 49.5016 77.0372 50.1162 73.7495 51.6901Z" fill="white"/>
<path d="M73.0269 45.1518C70.3968 46.4109 67.688 50.6103 66.6623 52.5526L67.4574 59.741C67.8147 62.9718 70.4918 64.9208 71.7857 65.4914C76.118 67.5665 84.8481 66.913 95.4345 65.9904C105.132 65.1452 119.776 64.0769 122.883 61.2027C125.697 59.5289 125.316 50.9324 125.327 50.0986C125.099 50.1238 125.306 49.1326 124.971 46.1036C124.516 41.9856 120.814 40.5927 117.143 40.2725C113.473 39.9523 85.9757 42.5094 83.9238 42.7363C81.8718 42.9632 76.3145 43.5779 73.0269 45.1518Z" fill="#2D74A9"/>
<path d="M72.729 42.4594C70.0989 43.7185 67.3901 47.9179 66.3645 49.8602L67.1595 57.0486C67.5169 60.2794 70.194 62.2284 71.4879 62.799C75.8201 64.8741 84.5502 64.2206 95.1366 63.298C104.835 62.4528 119.478 61.3845 122.585 58.5103C125.399 56.8365 125.018 48.24 125.029 47.4062C124.801 47.4314 125.009 46.4402 124.674 43.4112C124.218 39.2932 120.516 37.9004 116.846 37.5801C113.175 37.2599 85.6779 39.817 83.6259 40.0439C81.574 40.2709 76.0167 40.8855 72.729 42.4594Z" fill="#66A6D6"/>
<path d="M184.771 108.768L175.804 27.6917C175.804 27.6917 163.226 34.5125 101.478 41.3418C56.6026 46.3051 3.0625 46.7969 3.0625 46.7969C7.07256 71.4426 15.3642 123.189 16.4505 133.011L24.3415 204.358C44.2604 204.031 89.0501 202.594 108.857 199.466C128.663 196.337 170.267 189.313 188.592 186.192C188.078 184.217 186.87 177.05 186.158 164.186C185.269 148.105 186.488 124.288 184.771 108.768Z" fill="#49669F"/>
</svg>
