<svg width="433" height="721" viewBox="0 0 433 721" fill="none" xmlns="http://www.w3.org/2000/svg">
<path d="M113.222 153.717C127.951 123.816 207.694 93.2154 245.725 81.6526L314.488 96.7258C339.544 123.91 390.712 185.717 394.946 215.472C400.239 252.666 372.521 263.8 349.919 310.476C327.318 357.152 312.902 575.035 308.782 608.552C304.661 642.069 274.363 687.058 264.879 698.425C255.396 709.791 158.135 692.236 145.306 689.424C132.477 686.612 32.158 656.016 22.6683 645.331C13.1785 634.646 20.6094 622.829 27.0572 546.797C33.5051 470.765 93.9067 352.24 112.586 289.107C131.265 225.975 94.8104 191.093 113.222 153.717Z" stroke="#D9D9D9" stroke-width="5"/>
<path d="M250.884 53.2033L244.697 81.427L312.434 96.2752L318.621 68.0515L304.688 58.0058L309.413 36.4531L273.491 28.5791L268.767 50.1318L250.884 53.2033Z" stroke="#81EC40" stroke-width="5"/>
</svg>
