<svg width="141" height="261" viewBox="0 0 141 261" fill="none" xmlns="http://www.w3.org/2000/svg">
<path d="M75.4017 43.0631L138.29 235.045C133.64 238.44 121.271 246.235 109.001 250.254C96.7299 254.274 82.8769 255.068 77.4843 254.963L14.5958 62.9816L41.2077 43.3009L75.4017 43.0631Z" fill="#BF66CE"/>
<path d="M9.51578 29.8836C9.0285 34.3216 13.0927 54.3822 14.7535 63.4645C19.2882 60.642 30.757 53.2485 43.8117 49.4C56.8664 45.5514 70.5461 43.6729 75.4012 43.063C73.9289 35.7907 67.1096 19.7879 54.4354 15.169C41.7613 10.5501 19.7566 14.8525 10.3385 17.5811C10.2673 19.8328 10.0031 25.4456 9.51578 29.8836Z" fill="#AF3EC1"/>
<ellipse cx="14.9861" cy="38.253" rx="3.45866" ry="5.08225" transform="rotate(-18.1375 14.9861 38.253)" fill="#585858"/>
<ellipse cx="14.9862" cy="38.2524" rx="1.72933" ry="2.54112" transform="rotate(-18.1375 14.9862 38.2524)" fill="#404040"/>
<path d="M57.5031 93.7547C68.4248 90.6537 86.1247 96.0974 93.6095 99.2069L109.386 147.368C106.621 144.698 99.4283 138.653 92.7728 135.828C84.4536 132.297 59.0921 129.581 47.3879 122.094C38.0245 116.104 28.4676 101.081 24.8595 94.3184C31.19 95.4226 46.5814 96.8557 57.5031 93.7547Z" fill="#CF8BDA"/>
</svg>
