<svg width="248" height="748" viewBox="0 0 248 748" fill="none" xmlns="http://www.w3.org/2000/svg">
<mask id="mask0_1059_24" style="mask-type:alpha" maskUnits="userSpaceOnUse" x="0" y="0" width="248" height="748">
<rect width="248" height="748" fill="#D9D9D9"/>
</mask>
<g mask="url(#mask0_1059_24)">
<path d="M213.854 169.427L289.858 695.831C275.244 702.672 237.009 717.656 200.974 722.859C164.939 728.062 126.172 724.196 111.292 721.613L35.2891 195.209" stroke="#D9D9D9" stroke-width="5"/>
<path d="M38.1472 106.925C34.529 118.262 35.5278 172.194 35.484 196.534C49.4842 191.133 85.0232 176.809 123.141 172.387C161.26 167.965 200.102 168.936 213.858 169.428C213.499 149.878 202.796 105.324 170.06 87.879C137.325 70.4344 74.19 72.2046 46.7147 75.2703C45.3664 81.0978 41.7654 95.5873 38.1472 106.925Z" stroke="#81EC40" stroke-width="5"/>
<ellipse cx="49.2388" cy="130.87" rx="7" ry="9.5" transform="rotate(-8.2157 49.2388 130.87)" stroke="#81EC40" stroke-width="5"/>
</g>
</svg>
