<svg width="248" height="748" fill="none" xmlns="http://www.w3.org/2000/svg"><mask id="a" style="mask-type:alpha" maskUnits="userSpaceOnUse" x="0" y="0" width="248" height="748"><path fill="#D9D9D9" d="M0 0h248v748H0z"/></mask><g mask="url(#a)" stroke-width="5"><path d="M213.854 169.427l76.004 526.404c-14.614 6.841-52.849 21.825-88.884 27.028-36.035 5.203-74.802 1.337-89.682-1.246L35.289 195.209" stroke="#D9D9D9"/><path d="M38.147 106.925c-3.618 11.337-2.62 65.269-2.663 89.609 14-5.401 49.54-19.725 87.657-24.147 38.119-4.422 76.961-3.451 90.717-2.959-.359-19.55-11.062-64.104-43.798-81.549C137.325 70.434 74.19 72.205 46.715 75.27c-1.349 5.828-4.95 20.317-8.568 31.655z" stroke="#81EC40"/><ellipse cx="49.239" cy="130.87" rx="7" ry="9.5" transform="rotate(-8.216 49.239 130.87)" stroke="#81EC40"/></g></svg>