<svg width="299" height="689" viewBox="0 0 299 689" fill="none" xmlns="http://www.w3.org/2000/svg">
<path d="M70.4972 10.6221V8.93308L68.882 9.42663C64.455 10.7793 57.8536 13.5232 52.4019 17.3925C47.019 21.213 42.3713 26.4139 42.6955 32.7361C43.0127 38.9197 47.6479 44.67 52.922 49.2332C58.2557 53.8479 64.539 57.5028 68.715 59.4679L70.4972 60.3066V58.3369V10.6221Z" fill="white" stroke="black" stroke-width="2.5"/>
<path d="M116.831 76.0468L117.555 75.1931L116.786 74.38C102.707 59.4862 88.2172 56.8721 82.4455 57.5432L81.7622 57.6226L81.4636 58.2424C80.3949 60.4612 77.9597 65.864 76.8638 69.5772C76.8331 69.6811 76.699 69.9731 76.366 70.5064C76.0528 71.0079 75.6183 71.6384 75.0702 72.3885C73.9751 73.887 72.4666 75.8086 70.6628 78.0344C67.0849 82.4493 62.3883 88.0082 57.5489 93.7362L57.4346 93.8715C52.56 99.6412 47.5503 105.572 43.4263 110.642C39.3286 115.679 36.0281 119.958 34.6359 122.386C33.8064 123.833 33.0581 125.061 32.3865 126.163C31.9743 126.839 31.5911 127.468 31.2356 128.071C30.3554 129.564 29.6292 130.921 29.3993 132.129C29.2775 132.769 29.2804 133.43 29.51 134.078C29.7403 134.727 30.161 135.257 30.6984 135.695C31.7173 136.526 33.3055 137.145 35.3729 137.743C37.9052 138.476 40.503 137.72 42.9756 136.3C45.4554 134.875 47.9934 132.678 50.5111 130.202C52.6239 128.125 54.7725 125.8 56.8975 123.501C57.3102 123.054 57.722 122.609 58.1325 122.166C60.6719 119.428 63.1648 116.799 65.5778 114.654C75.3312 105.985 83.4953 100.994 94.9147 94.6427C104.266 89.4416 113.416 80.0769 116.831 76.0468Z" fill="white" stroke="black" stroke-width="2.5"/>
<path d="M133.805 149.75H133.405L133.08 149.982C129.098 152.82 123.17 158.095 118.225 164.763C113.291 171.418 109.234 179.598 109.234 188.217C109.234 197.666 113.001 207.969 116.656 217.965C117.092 219.156 117.526 220.343 117.951 221.523C122.015 232.788 125.33 243.454 123.178 252.61C122.658 254.823 120.79 258.945 117.764 264.712C114.765 270.427 110.701 277.626 105.893 285.925C101.002 294.366 95.3626 303.906 89.3025 314.158C83.4285 324.096 77.159 334.703 70.7914 345.627C57.8747 367.786 44.6025 391.172 33.5848 412.64C22.5783 434.085 13.7792 453.698 9.85545 468.288C2.0281 497.395 -0.00739312 548.054 3.21843 592.416C4.83235 614.61 7.76822 635.304 11.9842 650.999C14.0909 658.842 16.5317 665.492 19.3191 670.469C22.083 675.405 25.3113 678.919 29.1011 680.103C42.6 684.321 66.1094 685.671 91.5369 686.167C102.761 686.386 114.36 686.438 125.695 686.49C140.168 686.555 154.211 686.619 166.495 687.024C188.442 687.749 213.476 686.754 234.584 683.67C245.136 682.128 254.743 680.059 262.508 677.405C270.224 674.768 276.314 671.49 279.613 667.41C280.499 666.315 281.322 664.713 282.1 662.74C282.885 660.748 283.654 658.3 284.405 655.454C285.907 649.762 287.353 642.404 288.699 633.777C291.391 616.52 293.696 594.1 295.232 569.594C298.303 520.598 298.308 463.135 292.152 421.817C286.008 380.577 276.589 335.912 267.376 298.622C258.174 261.372 249.149 231.362 243.776 219.499C235.243 200.66 216.454 165.57 208.138 150.399L207.782 149.75H207.042H133.805Z" fill="white" stroke="black" stroke-width="2.5"/>
<path d="M132.701 150.513V151.763H133.951H204.078H205.328V150.513V92.6768V91.4268H204.078H170.822H133.951H132.701V92.6768V150.513Z" fill="white" stroke="black" stroke-width="2.5"/>
<path d="M132.632 94.2032L133.007 94.6502H133.59H203.716H204.757L204.946 93.6266C205.344 91.462 206.42 87.9659 208.333 84.6435C210.251 81.3131 212.931 78.2904 216.478 76.8454C218.698 75.9412 221.262 75.694 224.156 75.6042C224.911 75.5808 225.692 75.5683 226.492 75.5555C228.686 75.5205 231.019 75.4832 233.323 75.2122C236.511 74.8371 239.776 74.0074 242.895 72.0735C246.018 70.1365 248.914 67.1414 251.442 62.555C254.059 57.8044 254.274 53.1321 252.333 48.568C250.425 44.0817 246.478 39.7988 240.983 35.6093C229.993 27.2291 212.318 18.8616 190.458 9.82833C172.701 2.49103 148.648 0.997005 125.923 2.05357C103.162 3.11177 81.5605 6.73854 68.6013 9.76637L67.6357 9.99198V10.9836V59.0599V60.3099H68.8857C70.7971 60.3099 72.6036 60.1592 74.4284 60.0069C80.1397 59.5303 86.0308 59.0387 95.8807 63.1071C102.323 65.7681 109.782 71.4585 116.547 77.59C123.288 83.699 129.231 90.1455 132.632 94.2032Z" fill="white" stroke="black" stroke-width="2.5"/>
</svg>
