<svg width="355" height="748" fill="none" xmlns="http://www.w3.org/2000/svg"><mask id="a" style="mask-type:alpha" maskUnits="userSpaceOnUse" x="0" y="0" width="355" height="748"><path fill="#D9D9D9" d="M0 0h355v748H0z"/></mask><g mask="url(#a)" stroke-width="5"><path d="M156.465 238.377c-3.611-16.077 8.227-34.315 14.597-41.425l69.504-15.614c11.443 12.984 39.387 42.63 51.808 59.097 15.527 20.584 61.344 108.802 91.378 186.492 30.033 77.691 50.291 223.868 41.642 241.365-8.65 17.498-62.151 35.072-105.182 43.257-43.03 8.186-107.465 25.624-135.234 23.344-27.769-2.279-66.555-141.332-64.058-201.147 2.498-59.816 63.101-215.641 63.295-235.312.193-19.672-23.235-39.962-27.75-60.057z" stroke="#D9D9D9"/><path d="M158.422 140.016l12.677 56.429 68.421-15.37-12.677-56.43-32.447 7.289-35.974 8.082z" stroke="#81EC40"/><path d="M115.007 118.277c14.183 2.445 34.723 16.034 43.219 22.523l68.422-15.371c-.181-4.652 1.188-15.16 8.109-19.975 8.651-6.019 24.854-1.508 30.494-20.93 5.64-19.42-23.433-28.449-70.07-36.496-37.309-6.438-94.312 15.012-118.15 26.542l10.538 46.907c7.406-1.664 13.255-5.645 27.438-3.2zM76.553 75.333c-7.883 4.487-22.89 16.183-19.854 27.06 3.036 10.877 21.474 17.528 30.313 19.494" stroke="#81EC40"/><path d="M119.936 149.557c7.822-6.98 14.614-17.971 17.033-22.595-16.722-11.257-31.024-10.529-36.085-8.757-.555 2.391-1.726 8.112-1.974 11.867-.31 4.694-26.519 50.837-29.68 61.067-3.16 10.231-5.61 12.685 2.968 13.206 8.578.521 15.624-17.926 23.318-28.63 7.694-10.705 14.644-17.434 24.42-26.158z" stroke="#81EC40"/></g></svg>