<svg width="141" height="235" viewBox="0 0 141 235" fill="none" xmlns="http://www.w3.org/2000/svg">
<path d="M90.1895 9.39929L86.7955 22.0657L97.838 25.0246L109.53 28.1575L112.924 15.491L103.668 13.0108L90.1895 9.39929Z" fill="#A5AAC0"/>
<path fill-rule="evenodd" clip-rule="evenodd" d="M6.8437 210.024C9.89353 186.301 19.5184 130.503 33.6194 97.1047C47.7204 63.7061 70.8735 39.2656 80.6874 31.2202L85.8646 21.6423L110.061 28.1256L110.567 39.2265C114.399 53.0748 120.141 89.7597 112.456 125.713C104.772 161.667 88.321 210.158 81.056 229.909C69.8983 229.763 39.4349 225.58 6.8437 210.024ZM92.553 106.456C93.0718 98.2406 94.9991 82.2571 98.5577 84.0461C103.006 86.2823 103.094 102.841 101.972 108.98C100.849 115.119 97.1068 129.084 93.3718 128.083C90.3838 127.283 91.5809 113.332 92.553 106.456Z" fill="#DADEE9"/>
<path d="M89.1955 70.9208C95.309 74.0871 93.8653 80.9906 92.6856 86.4762C89.7702 97.3563 86.7557 122.377 90.2254 133.332C93.6951 144.287 103.372 145.326 107.615 144.432C107.615 144.432 104.464 158.704 101.821 167.681C99.1772 176.659 94.0773 190.409 94.0773 190.409C90.0351 198.782 77.2408 214.789 58.401 211.83C34.8513 208.13 28.3284 183.756 28.5438 175.808C28.8533 164.387 46.7328 98.182 54.4795 86.1597C62.2261 74.1374 75.8985 64.034 89.1955 70.9208Z" fill="#F1F1F4"/>
</svg>
