<svg width="526" height="753" fill="none" xmlns="http://www.w3.org/2000/svg"><path d="M476.745 122.781l6.38-21.104L461.5 95l-8.84 20.5 24.085 7.281z" stroke="#81EC40" stroke-width="5"/><path d="M189.208 229.483c26.409-29.308 82.963-71.257 107.939-88.567L368 162.5c7.701 4.156 16.191 10.317 17.76 17.269 3.985 17.657-15.869 14.397-19.819 27.461-3.949 13.065 8.882 8.718 5.54 19.773-3.342 11.054-22.659 15.086-19.059 24.949 3.599 9.862 6.602 16.254 3.109 27.812-3.494 11.557-20.228 7.047-26 26.141-5.773 19.095 64.751 76.061 71.412 88.494 6.661 12.434-4.671 117.044-16.193 167.854-11.521 50.809-47.604 137.518-75.357 160.387-27.754 22.87-232.815-40.767-270.011-70.109-37.196-29.342-8.556-91.428 10.35-163.039 18.906-71.61 89.299-166.592 91.426-173.627 2.126-7.035-6.661-12.434-7.351-19.223-.689-6.789 22.389-30.523 55.401-67.159z" stroke="#D9D9D9" stroke-width="5"/><path d="M447.381 121.071l-1.221-2.181 3.722-2.086-.001 4.267h-2.5zm5.529 72.416l2.498-.101-2.498.101zm-20.111-24.178l2.45-.497-2.45.497zM421 121.071l-2.337.887a2.5 2.5 0 012.939-3.314l-.602 2.427zM438.5 124v-2.5 2.5zm11.381-2.929c-.001 8.623 1.089 19.786 2.339 32.339 1.244 12.495 2.635 26.287 3.188 39.976l-4.996.202c-.546-13.516-1.921-27.158-3.168-39.683-1.241-12.467-2.364-23.909-2.363-32.835l5 .001zm5.527 72.315c.401 9.912 3.486 20.858 6.106 30.292 1.29 4.644 2.482 8.979 3.096 12.502.308 1.763.493 3.434.445 4.907-.047 1.429-.319 2.982-1.21 4.243l-4.083-2.886c.067-.095.262-.493.295-1.519.032-.983-.091-2.273-.372-3.886-.564-3.23-1.68-7.309-2.989-12.023-2.578-9.281-5.855-20.824-6.284-31.428l4.996-.202zm8.437 51.944c-.391.553-1.05 1.14-2.017 1.312-.918.163-1.686-.125-2.175-.397-.895-.499-1.609-1.369-2.138-2.106-1.146-1.599-2.448-4.083-3.82-7.048-2.775-5.995-6.104-14.556-9.359-23.558-6.491-17.952-12.848-38.118-13.987-43.726l4.9-.995c1.055 5.195 7.284 25.029 13.789 43.021 3.243 8.969 6.513 17.365 9.194 23.158 1.356 2.928 2.494 5.045 3.347 6.235.471.656.646.728.509.652-.109-.061-.531-.267-1.137-.159a1.863 1.863 0 00-1.189.725l4.083 2.886zm-33.496-75.523c-3.109-15.308-6.995-35.494-11.686-47.849l4.674-1.775c4.876 12.839 8.85 33.554 11.912 48.629l-4.9.995zM421 121.071l.602-2.427.001.001.006.001a.272.272 0 01.023.006l.095.023.375.091a170.37 170.37 0 006 1.318c3.679.735 7.827 1.416 10.398 1.416v5c-3.13 0-7.732-.784-11.378-1.513a173.575 173.575 0 01-6.187-1.36c-.171-.04-.304-.073-.395-.095l-.104-.026a.295.295 0 00-.028-.006l-.007-.002-.002-.001h-.001l.602-2.426zm17.5.429c1.3 0 3.132-.56 4.852-1.274a31.738 31.738 0 002.621-1.235l.148-.08.034-.019.006-.003h-.001l1.221 2.182 1.222 2.181-.001.001-.002.001-.006.003a.146.146 0 00-.016.009l-.056.03a29.48 29.48 0 01-.894.467c-.586.294-1.409.687-2.359 1.081-1.808.751-4.417 1.656-6.769 1.656v-5z" fill="#81EC40"/><path d="M290.105 120.688c7.301 9.227 6.735 17.026 5.539 19.772l72.359 21.874c6.726-10.762 22.365-33.711 31.106-39.405 10.926-7.116 17.704-2.325 37.055.783 15.481 2.486 24.976-25.172 27.788-39.311-37.379-14.225-117.447-42.525-138.686-41.926-26.55.748-77.348 30.91-76.775 45.342.573 14.432 32.487 21.337 41.614 32.871z" stroke="#81EC40" stroke-width="5"/></svg>