<svg width="48" height="36" viewBox="0 0 48 36" fill="none" xmlns="http://www.w3.org/2000/svg">
<path d="M38.8217 9.4351C40.9462 9.74368 43.8429 12.2198 45.0258 13.4193L46.2317 18.9542C46.7737 21.4418 45.4001 23.5299 44.6456 24.2631C42.1593 26.84 35.9685 28.4375 28.4295 30.2779C21.5232 31.9638 11.1457 34.6642 8.29749 33.2684C5.94499 32.6953 4.109 26.2122 3.89794 25.5948C4.06161 25.5591 3.67609 24.8717 3.16794 22.5394C2.47708 19.3686 4.69474 17.4494 7.15214 16.3354C9.60955 15.2213 29.2307 10.5605 30.7037 10.2395C32.1767 9.9186 36.1661 9.04938 38.8217 9.4351Z" fill="white"/>
<path d="M37.7241 4.40092C39.8485 4.7095 42.7453 7.18564 43.9281 8.38513L45.1341 13.92C45.6761 16.4076 44.3025 18.4958 43.5479 19.2289C41.0616 21.8058 34.8708 23.4033 27.3318 25.2437C20.4256 26.9297 10.048 29.63 7.19984 28.2342C4.84734 27.6611 3.01135 21.178 2.80028 20.5606C2.96395 20.525 2.57844 19.8375 2.07028 17.5052C1.37942 14.3345 3.59709 12.4152 6.05449 11.3012C8.51189 10.1872 28.1331 5.5263 29.6061 5.20536C31.0791 4.88442 35.0685 4.0152 37.7241 4.40092Z" fill="#2D74A9"/>
<path d="M36.9643 2.0833C39.0888 2.39188 41.9855 4.86801 43.1683 6.06751L44.3743 11.6024C44.9163 14.09 43.5427 16.1781 42.7881 16.9113C40.3018 19.4882 34.111 21.0857 26.5721 22.9261C19.6658 24.612 9.28825 27.3123 6.44007 25.9166C4.08757 25.3434 2.25158 18.8604 2.04052 18.243C2.20418 18.2073 1.81867 17.5199 1.31051 15.1876C0.619654 12.0168 2.83732 10.0976 5.29472 8.98355C7.75212 7.86953 27.3733 3.20868 28.8463 2.88774C30.3193 2.56679 34.3087 1.69757 36.9643 2.0833Z" fill="#66A6D6"/>
</svg>
