<svg width="92" height="18" fill="none" xmlns="http://www.w3.org/2000/svg"><path d="M78.822 11.098l-2.798 5.267a.2.2 0 00.28.266l5.718-3.425a.2.2 0 01.22.009l4.71 3.385c.162.117.376-.05.302-.236l-2.102-5.276a.2.2 0 01.082-.245l5.155-3.127c.172-.105.098-.371-.104-.371H84.69a.2.2 0 01-.187-.129l-2.208-5.794a.2.2 0 00-.365-.02l-2.964 5.833a.2.2 0 01-.178.11h-5.073c-.202 0-.276.266-.104.37l5.138 3.118a.2.2 0 01.073.265zm-18 0l-2.798 5.267a.2.2 0 00.28.266l5.718-3.425a.2.2 0 01.22.009l4.71 3.385c.162.117.376-.05.302-.236l-2.102-5.276a.2.2 0 01.082-.245l5.155-3.127c.172-.105.098-.371-.104-.371H66.69a.2.2 0 01-.187-.129l-2.208-5.794a.2.2 0 00-.365-.02l-2.964 5.833a.2.2 0 01-.178.11h-5.073c-.202 0-.277.266-.104.37l5.138 3.118a.2.2 0 01.073.265zm-18 0l-2.798 5.267a.2.2 0 00.28.266l5.718-3.425a.2.2 0 01.22.009l4.71 3.385c.162.117.376-.05.302-.236l-2.102-5.276a.2.2 0 01.082-.245l5.155-3.127c.172-.105.098-.371-.104-.371H48.69a.2.2 0 01-.187-.129l-2.208-5.794a.2.2 0 00-.365-.02l-2.964 5.833a.2.2 0 01-.178.11h-5.073c-.202 0-.277.266-.104.37l5.138 3.118a.2.2 0 01.073.265zm-18 0l-2.798 5.267a.2.2 0 00.28.266l5.718-3.425a.2.2 0 01.22.009l4.71 3.385c.162.117.376-.05.302-.236l-2.102-5.276a.2.2 0 01.082-.245l5.155-3.127c.172-.105.098-.371-.104-.371H30.69a.2.2 0 01-.187-.129l-2.208-5.794a.2.2 0 00-.365-.02l-2.964 5.833a.2.2 0 01-.178.11h-5.073c-.202 0-.276.266-.104.37l5.138 3.118a.2.2 0 01.073.265zm-18 0l-2.798 5.267a.2.2 0 00.28.266l5.718-3.425a.2.2 0 01.22.009l4.71 3.385c.162.117.376-.05.302-.236l-2.102-5.276a.2.2 0 01.082-.245l5.155-3.127c.172-.105.098-.371-.104-.371H12.69a.2.2 0 01-.187-.129l-2.208-5.794a.2.2 0 00-.365-.02L6.966 7.235a.2.2 0 01-.178.11H1.715c-.202 0-.277.266-.104.37l5.138 3.118a.2.2 0 01.073.265z" fill="#81EC40" stroke="#81EC40" stroke-width="2"/></svg>