<svg width="186" height="133" fill="none" xmlns="http://www.w3.org/2000/svg"><rect x=".5" y=".5" width="185" height="132" rx="9.5" stroke="#81EC40"/><path d="M10.189 23v-9.818h5.925v1.054h-4.736v3.318h4.43v1.055h-4.43v3.336h4.813V23H10.19zm9.046-4.43V23h-1.131v-7.364h1.093v1.15h.096c.172-.373.434-.673.786-.9.352-.23.805-.345 1.361-.345.5 0 .935.102 1.31.306.373.202.664.508.872.92.207.41.311.928.311 1.554V23h-1.131v-4.602c0-.579-.15-1.03-.45-1.352-.301-.326-.713-.49-1.238-.49-.36 0-.683.08-.968.236a1.68 1.68 0 00-.666.685c-.163.3-.245.665-.245 1.093zm15.203 1.42v-4.354h1.132V23h-1.132v-1.246h-.076a2.415 2.415 0 01-.806.954c-.364.258-.824.388-1.38.388-.46 0-.87-.1-1.228-.302a2.114 2.114 0 01-.843-.92c-.205-.413-.307-.932-.307-1.559v-4.679h1.131v4.603c0 .537.15.965.45 1.284.304.32.691.48 1.16.48.282 0 .568-.072.859-.216.294-.144.54-.364.738-.662.202-.297.302-.675.302-1.136zm6.406-4.354v.96h-3.816v-.96h3.816zm-2.703-1.764h1.13v7.019c0 .32.047.559.14.719a.72.72 0 00.364.316c.15.051.309.077.475.077.125 0 .227-.007.307-.02l.191-.038.23 1.017a2.29 2.29 0 01-.32.086 2.361 2.361 0 01-.523.048c-.32 0-.633-.069-.94-.206a1.866 1.866 0 01-.757-.628c-.198-.282-.297-.636-.297-1.065v-7.325zM42.546 23v-7.364h1.132V23h-1.132zm.575-8.59a.805.805 0 01-.57-.226.724.724 0 01-.235-.542c0-.21.078-.391.235-.542.16-.15.35-.225.57-.225.221 0 .41.075.566.225.16.15.24.331.24.542 0 .211-.08.392-.24.542a.788.788 0 01-.566.225zm3.76-1.228V23H45.75v-9.818h1.131zM48.953 23v-7.364h1.132V23h-1.132zm.576-8.59a.804.804 0 01-.57-.226.724.724 0 01-.236-.542.73.73 0 01.235-.542c.16-.15.35-.225.57-.225.221 0 .41.075.566.225.16.15.24.331.24.542 0 .211-.08.392-.24.542a.788.788 0 01-.565.225zm7.844 2.875l-1.016.288a1.889 1.889 0 00-.283-.494 1.371 1.371 0 00-.499-.402c-.21-.106-.48-.159-.81-.159-.45 0-.826.104-1.127.312-.297.205-.445.465-.445.782 0 .28.102.503.306.666.205.163.525.299.96.407l1.092.269c.659.16 1.15.404 1.472.733.323.326.484.747.484 1.261 0 .422-.121.8-.364 1.131-.24.333-.575.595-1.007.787-.431.192-.933.287-1.505.287-.751 0-1.373-.163-1.865-.489-.492-.326-.804-.802-.935-1.428l1.074-.269c.102.397.296.694.58.892.288.198.663.297 1.127.297.527 0 .946-.112 1.256-.335.313-.227.47-.499.47-.815 0-.256-.09-.47-.269-.643-.179-.175-.454-.306-.825-.393l-1.227-.287c-.674-.16-1.17-.408-1.486-.744-.313-.338-.47-.762-.47-1.27 0-.415.117-.783.35-1.103.237-.32.558-.57.964-.752a3.384 3.384 0 011.39-.274c.729 0 1.3.16 1.716.48.419.32.716.741.892 1.265zm4.004 5.888c-.466 0-.89-.088-1.27-.264a2.18 2.18 0 01-.906-.772c-.224-.339-.336-.748-.336-1.227 0-.422.083-.764.25-1.026a1.76 1.76 0 01.666-.623 3.5 3.5 0 01.92-.336c.339-.077.68-.137 1.021-.182.448-.058.81-.1 1.089-.13.28-.032.485-.084.613-.158.131-.073.197-.201.197-.383v-.039c0-.473-.13-.84-.389-1.102-.255-.262-.643-.393-1.164-.393-.54 0-.964.118-1.27.354-.308.237-.523.49-.648.758l-1.074-.384c.192-.447.447-.795.767-1.045a2.875 2.875 0 011.055-.527c.383-.102.76-.154 1.131-.154.237 0 .508.03.815.087.31.054.609.168.897.34.29.173.532.433.724.782.191.348.287.815.287 1.4V23h-1.131v-.997h-.058c-.076.16-.204.33-.383.513a2.212 2.212 0 01-.715.465c-.297.128-.66.192-1.088.192zm.173-1.017c.447 0 .824-.088 1.131-.263a1.795 1.795 0 00.94-1.559V19.3c-.048.058-.154.11-.317.158a5.33 5.33 0 01-.556.12 25.768 25.768 0 01-1.083.144c-.294.038-.569.1-.825.187-.252.083-.457.21-.613.379-.154.166-.23.393-.23.68 0 .393.145.69.436.892.294.198.666.297 1.117.297zm6.399-3.586V23h-1.132v-7.364h1.093v1.15h.096c.173-.373.435-.673.786-.9.352-.23.806-.345 1.362-.345.499 0 .935.102 1.309.306.374.202.664.508.872.92.208.41.312.928.312 1.554V23h-1.132v-4.602c0-.579-.15-1.03-.45-1.352-.3-.326-.713-.49-1.237-.49-.361 0-.684.08-.969.236a1.68 1.68 0 00-.666.685c-.163.3-.244.665-.244 1.093zm9.968-2.934v.96H74.1v-.96h3.816zm-2.704-1.764h1.131v7.019c0 .32.047.559.14.719a.72.72 0 00.364.316c.15.051.308.077.474.077.125 0 .227-.007.307-.02l.192-.038.23 1.017a2.29 2.29 0 01-.321.086 2.362 2.362 0 01-.523.048c-.32 0-.633-.069-.94-.206a1.866 1.866 0 01-.757-.628c-.198-.282-.297-.636-.297-1.065v-7.325zm9.334 4.698V23h-1.132v-7.364h1.093v1.15h.096c.173-.373.435-.673.787-.9.351-.23.805-.345 1.361-.345.499 0 .935.102 1.309.306.374.202.665.508.872.92.208.41.312.928.312 1.554V23h-1.132v-4.602c0-.579-.15-1.03-.45-1.352-.3-.326-.713-.49-1.237-.49-.361 0-.684.08-.968.236a1.68 1.68 0 00-.667.685c-.163.3-.244.665-.244 1.093zm9.757 4.583c-.665 0-1.248-.158-1.75-.474a3.224 3.224 0 01-1.17-1.328c-.278-.569-.417-1.234-.417-1.994 0-.767.14-1.437.417-2.01a3.217 3.217 0 011.17-1.332c.502-.316 1.085-.475 1.75-.475s1.246.159 1.745.475c.502.316.892.76 1.17 1.333.28.572.422 1.242.422 2.009 0 .76-.141 1.425-.422 1.994a3.18 3.18 0 01-1.17 1.328c-.499.316-1.08.474-1.745.474zm0-1.016c.505 0 .92-.13 1.246-.388.326-.26.568-.6.724-1.021a3.91 3.91 0 00.235-1.372c0-.492-.078-.95-.235-1.375a2.32 2.32 0 00-.724-1.031c-.326-.262-.741-.393-1.246-.393s-.92.13-1.247.393a2.32 2.32 0 00-.724 1.03 3.95 3.95 0 00-.234 1.377c0 .492.078.949.234 1.37.157.422.398.763.724 1.022.326.259.742.388 1.247.388zm10.279-4.852l-1.016.288a1.88 1.88 0 00-.283-.494 1.366 1.366 0 00-.498-.402c-.211-.106-.481-.159-.811-.159-.45 0-.826.104-1.126.312-.297.205-.446.465-.446.782 0 .28.102.503.307.666.204.163.524.299.959.407l1.093.269c.658.16 1.149.404 1.471.733.323.326.485.747.485 1.261 0 .422-.122.8-.365 1.131-.239.333-.575.595-1.006.787-.432.192-.934.287-1.506.287-.751 0-1.372-.163-1.865-.489-.492-.326-.803-.802-.934-1.428l1.073-.269c.103.397.296.694.58.892.288.198.664.297 1.127.297.527 0 .946-.112 1.256-.335.313-.227.47-.499.47-.815 0-.256-.09-.47-.269-.643-.179-.175-.453-.306-.824-.393l-1.227-.287c-.675-.16-1.17-.408-1.486-.744-.314-.338-.47-.762-.47-1.27 0-.415.116-.783.35-1.103.236-.32.557-.57.963-.752a3.386 3.386 0 011.39-.274c.729 0 1.301.16 1.717.48.418.32.716.741.891 1.265zM110.218 23v-7.364h1.093v1.113h.076c.135-.365.378-.66.729-.887.352-.227.748-.34 1.189-.34a9.281 9.281 0 01.594.018v1.151a3.323 3.323 0 00-.263-.043 2.596 2.596 0 00-.427-.034c-.358 0-.677.075-.959.226a1.652 1.652 0 00-.901 1.5V23h-1.131zm7.886.153c-.71 0-1.322-.156-1.836-.47a3.149 3.149 0 01-1.184-1.323c-.275-.569-.413-1.23-.413-1.984 0-.755.138-1.42.413-1.995.278-.578.664-1.029 1.16-1.352.498-.325 1.08-.489 1.745-.489.383 0 .762.064 1.136.192.374.128.714.336 1.021.623.307.285.551.662.734 1.132.182.47.273 1.048.273 1.735v.48h-5.676v-.978h4.525c0-.416-.083-.787-.249-1.113a1.876 1.876 0 00-.7-.771c-.3-.189-.655-.283-1.064-.283-.451 0-.841.112-1.17.335a2.21 2.21 0 00-.753.863 2.545 2.545 0 00-.263 1.141v.652c0 .556.096 1.028.287 1.415.195.383.465.675.811.877.345.198.746.297 1.203.297.297 0 .566-.041.805-.125.243-.086.452-.214.628-.383.176-.173.312-.387.408-.643l1.093.307a2.43 2.43 0 01-.58.978 2.835 2.835 0 01-1.007.652c-.4.154-.849.23-1.347.23zm7.761 0c-.69 0-1.284-.163-1.783-.489a3.188 3.188 0 01-1.151-1.347c-.268-.572-.402-1.225-.402-1.96 0-.748.137-1.408.412-1.98a3.26 3.26 0 011.16-1.348c.499-.325 1.08-.489 1.745-.489.518 0 .985.096 1.4.288.416.192.756.46 1.021.806.265.345.43.747.494 1.208h-1.131a1.755 1.755 0 00-.576-.892c-.294-.262-.69-.393-1.189-.393a1.99 1.99 0 00-1.16.345c-.329.227-.586.548-.772.964-.182.412-.273.896-.273 1.452 0 .57.09 1.064.269 1.486.182.422.437.75.767.983.332.233.722.35 1.169.35.294 0 .561-.051.801-.153.24-.103.443-.25.609-.441.166-.192.284-.422.355-.69h1.131a2.617 2.617 0 01-1.467 1.998c-.409.202-.885.302-1.429.302zm7.637 0c-.709 0-1.321-.156-1.836-.47a3.155 3.155 0 01-1.184-1.323c-.275-.569-.412-1.23-.412-1.984 0-.755.137-1.42.412-1.995a3.254 3.254 0 011.16-1.352c.499-.325 1.08-.489 1.745-.489.384 0 .762.064 1.136.192a2.82 2.82 0 011.022.623c.306.285.551.662.733 1.132.182.47.273 1.048.273 1.735v.48h-5.676v-.978h4.526c0-.416-.083-.787-.25-1.113a1.876 1.876 0 00-.7-.771c-.3-.189-.655-.283-1.064-.283-.45 0-.84.112-1.17.335a2.21 2.21 0 00-.752.863 2.533 2.533 0 00-.264 1.141v.652c0 .556.096 1.028.288 1.415.195.383.465.675.81.877.345.198.746.297 1.203.297.297 0 .566-.041.806-.125.243-.086.452-.214.628-.383.175-.173.311-.387.407-.643l1.093.307a2.416 2.416 0 01-.58.978 2.827 2.827 0 01-1.007.652 3.73 3.73 0 01-1.347.23zm7.973-7.517v.96h-3.816v-.96h3.816zm-2.704-1.764h1.131v7.019c0 .32.047.559.139.719a.722.722 0 00.365.316c.15.051.308.077.474.077.125 0 .227-.007.307-.02l.192-.038.23 1.017a2.313 2.313 0 01-.321.086 2.37 2.37 0 01-.523.048 2.28 2.28 0 01-.939-.206 1.863 1.863 0 01-.758-.628c-.198-.282-.297-.636-.297-1.065v-7.325zm7.608 1.764v.96h-3.816v-.96h3.816zm-2.704-1.764h1.132v7.019c0 .32.046.559.139.719a.72.72 0 00.364.316c.15.051.308.077.475.077.124 0 .226-.007.306-.02l.192-.038.23 1.017a2.236 2.236 0 01-.321.086 2.36 2.36 0 01-.522.048c-.32 0-.633-.069-.94-.206a1.87 1.87 0 01-.758-.628c-.198-.282-.297-.636-.297-1.065v-7.325zm7.414 9.281c-.709 0-1.321-.156-1.836-.47a3.155 3.155 0 01-1.184-1.323c-.275-.569-.412-1.23-.412-1.984 0-.755.137-1.42.412-1.995a3.254 3.254 0 011.16-1.352c.499-.325 1.08-.489 1.745-.489.384 0 .762.064 1.136.192.374.128.715.336 1.021.623.307.285.552.662.734 1.132.182.47.273 1.048.273 1.735v.48h-5.676v-.978h4.526c0-.416-.083-.787-.25-1.113a1.876 1.876 0 00-.7-.771c-.3-.189-.655-.283-1.064-.283-.451 0-.84.112-1.17.335a2.2 2.2 0 00-.752.863 2.533 2.533 0 00-.264 1.141v.652c0 .556.096 1.028.288 1.415.195.383.465.675.81.877.345.198.746.297 1.203.297.297 0 .566-.041.806-.125.242-.086.452-.214.628-.383.175-.173.311-.387.407-.643l1.093.307a2.416 2.416 0 01-.58.978 2.827 2.827 0 01-1.007.652 3.73 3.73 0 01-1.347.23zm9.986-5.867l-1.016.287a1.88 1.88 0 00-.283-.494 1.37 1.37 0 00-.499-.402c-.211-.106-.481-.159-.81-.159-.45 0-.826.104-1.126.312-.298.205-.446.465-.446.782 0 .28.102.503.307.666.204.163.524.299.958.407l1.093.269c.659.16 1.149.404 1.472.733.323.326.484.747.484 1.261 0 .422-.121.8-.364 1.131-.24.333-.575.595-1.007.787-.431.192-.933.287-1.505.287-.751 0-1.373-.163-1.865-.489-.492-.326-.804-.802-.935-1.428l1.074-.269c.102.397.296.694.58.892.288.198.663.297 1.127.297.527 0 .946-.112 1.256-.335.313-.227.47-.499.47-.815 0-.256-.09-.47-.269-.643-.179-.175-.454-.306-.824-.393l-1.228-.287c-.674-.16-1.169-.408-1.486-.744-.313-.338-.47-.762-.47-1.27 0-.415.117-.783.35-1.103.237-.32.558-.57.964-.752a3.382 3.382 0 011.39-.274c.729 0 1.301.16 1.716.48.419.32.716.741.892 1.265zm3.525 4.372l-.077.517a10.29 10.29 0 01-.249 1.17c-.109.416-.222.807-.34 1.175-.119.367-.216.66-.293.877h-.863l.163-.81c.067-.336.134-.711.202-1.127.07-.412.127-.834.172-1.265l.058-.537h1.227zM16.057 37.636L13.334 45h-1.15L9.46 37.636h1.227l2.033 5.868h.077l2.032-5.868h1.228zm4.221 7.517c-.665 0-1.248-.158-1.75-.474a3.225 3.225 0 01-1.17-1.328c-.278-.569-.417-1.234-.417-1.995 0-.767.14-1.436.417-2.008a3.218 3.218 0 011.17-1.333c.502-.316 1.085-.474 1.75-.474s1.246.158 1.745.474c.502.316.892.76 1.17 1.333.281.572.422 1.242.422 2.008 0 .761-.141 1.426-.422 1.995a3.18 3.18 0 01-1.17 1.328c-.499.316-1.08.474-1.745.474zm0-1.016c.505 0 .92-.13 1.246-.388.326-.26.568-.6.724-1.021a3.91 3.91 0 00.235-1.372c0-.492-.078-.95-.235-1.375a2.32 2.32 0 00-.724-1.031c-.326-.262-.741-.393-1.246-.393s-.92.13-1.246.393a2.32 2.32 0 00-.724 1.03 3.95 3.95 0 00-.235 1.377c0 .492.078.949.235 1.37.156.423.398.763.724 1.022.326.259.741.388 1.246.388zm9.704-2.148v-4.353h1.132V45h-1.132v-1.246h-.076a2.417 2.417 0 01-.806.954c-.364.258-.824.388-1.38.388-.46 0-.87-.1-1.228-.302a2.114 2.114 0 01-.844-.92c-.204-.413-.306-.932-.306-1.559v-4.679h1.131v4.603c0 .537.15.965.45 1.284.304.32.691.48 1.16.48.282 0 .568-.072.859-.216a1.87 1.87 0 00.738-.661c.202-.298.302-.676.302-1.137zm8.42-2.703l-1.017.287a1.886 1.886 0 00-.282-.494 1.371 1.371 0 00-.499-.402c-.21-.106-.481-.158-.81-.158-.45 0-.826.103-1.127.311-.297.205-.446.465-.446.782 0 .28.103.503.307.666.205.163.524.299.959.407l1.093.269c.659.16 1.149.404 1.472.733.323.326.484.747.484 1.261 0 .422-.121.8-.364 1.132-.24.332-.576.594-1.007.786-.431.191-.933.287-1.505.287-.751 0-1.373-.163-1.865-.489-.492-.326-.804-.802-.935-1.428l1.074-.269c.102.397.295.694.58.892.287.198.663.297 1.126.297.528 0 .947-.112 1.257-.335.313-.227.47-.499.47-.815 0-.256-.09-.47-.27-.643-.178-.175-.453-.306-.824-.393l-1.227-.288c-.674-.16-1.17-.407-1.486-.742-.313-.34-.47-.763-.47-1.271 0-.415.117-.783.35-1.103.236-.32.558-.57.964-.752a3.384 3.384 0 011.39-.273c.729 0 1.3.16 1.716.479.419.32.716.741.892 1.265zm8.626 5.867c-.665 0-1.249-.158-1.75-.474a3.225 3.225 0 01-1.17-1.328c-.278-.569-.417-1.234-.417-1.995 0-.767.139-1.436.417-2.008a3.218 3.218 0 011.17-1.333c.501-.316 1.085-.474 1.75-.474.664 0 1.246.158 1.745.474.501.316.891.76 1.17 1.333.28.572.421 1.242.421 2.008 0 .761-.14 1.426-.422 1.995a3.18 3.18 0 01-1.17 1.328c-.498.316-1.08.474-1.744.474zm0-1.016c.504 0 .92-.13 1.246-.388.326-.26.567-.6.724-1.021a3.91 3.91 0 00.235-1.372c0-.492-.079-.95-.235-1.375a2.32 2.32 0 00-.724-1.031c-.326-.262-.742-.393-1.246-.393-.505 0-.921.13-1.247.393a2.32 2.32 0 00-.724 1.03 3.95 3.95 0 00-.235 1.377c0 .492.078.949.235 1.37.157.423.398.763.724 1.022.326.259.742.388 1.247.388zm5.217.863v-9.818h1.131v3.624h.096c.083-.128.198-.29.345-.489.15-.201.364-.38.642-.537.282-.16.662-.24 1.141-.24.62 0 1.167.156 1.64.465.473.31.842.75 1.107 1.319.266.569.398 1.24.398 2.013 0 .78-.132 1.456-.398 2.028-.265.57-.632 1.01-1.102 1.323-.47.31-1.012.465-1.625.465-.473 0-.852-.078-1.137-.234a2.107 2.107 0 01-.656-.542 7.277 7.277 0 01-.355-.508h-.134V45h-1.093zm1.112-3.682c0 .556.081 1.047.244 1.472.163.422.401.753.715.992.313.237.696.355 1.15.355.473 0 .868-.125 1.184-.374.32-.252.56-.591.72-1.016.162-.428.244-.905.244-1.429 0-.518-.08-.984-.24-1.4a2.163 2.163 0 00-.714-.992c-.316-.246-.714-.37-1.194-.37-.46 0-.847.117-1.16.35-.313.23-.55.554-.71.97-.16.412-.24.893-.24 1.442zm10.321-3.682v.96h-3.816v-.96h3.816zm-2.703-1.764h1.13v7.019c0 .32.047.559.14.719a.72.72 0 00.364.316c.15.051.309.077.475.077.124 0 .227-.007.307-.02l.192-.038.23 1.017a2.29 2.29 0 01-.322.086 2.362 2.362 0 01-.522.048c-.32 0-.633-.069-.94-.206a1.866 1.866 0 01-.757-.628c-.198-.282-.297-.636-.297-1.065v-7.325zM65.38 45v-7.364h1.132V45H65.38zm.576-8.59a.805.805 0 01-.571-.226.724.724 0 01-.235-.542c0-.21.078-.392.235-.542.16-.15.35-.225.57-.225.221 0 .41.075.566.225.16.15.24.331.24.542 0 .211-.08.392-.24.542a.788.788 0 01-.566.225zm5.715 8.743c-.71 0-1.321-.156-1.836-.47a3.153 3.153 0 01-1.184-1.323c-.275-.569-.412-1.23-.412-1.984 0-.755.137-1.42.412-1.995a3.252 3.252 0 011.16-1.352c.499-.326 1.08-.489 1.745-.489.384 0 .762.064 1.136.192a2.83 2.83 0 011.022.623c.306.285.55.662.733 1.132.182.47.273 1.048.273 1.735v.48h-5.676v-.978h4.526c0-.416-.083-.786-.25-1.112a1.878 1.878 0 00-.7-.772c-.3-.189-.655-.283-1.064-.283-.45 0-.84.112-1.17.335a2.21 2.21 0 00-.752.863 2.536 2.536 0 00-.264 1.141v.652c0 .556.096 1.028.288 1.414.195.384.465.676.81.878.345.198.746.297 1.203.297.297 0 .566-.041.806-.125.242-.086.452-.214.628-.383a1.76 1.76 0 00.407-.642l1.093.306a2.416 2.416 0 01-.58.978 2.828 2.828 0 01-1.007.652c-.4.154-.848.23-1.347.23zm5.902-4.583V45H76.44v-7.364h1.093v1.15h.096c.173-.373.435-.673.786-.9.352-.23.806-.346 1.362-.346.498 0 .935.103 1.309.307.374.202.664.508.872.92.208.41.312.928.312 1.554V45h-1.132v-4.602c0-.579-.15-1.03-.45-1.352-.3-.326-.713-.49-1.237-.49-.361 0-.684.08-.968.236a1.68 1.68 0 00-.667.685c-.163.3-.244.665-.244 1.093zm9.546 4.583c-.614 0-1.156-.155-1.625-.465-.47-.313-.838-.754-1.103-1.323-.265-.572-.398-1.248-.398-2.028 0-.773.133-1.444.398-2.013s.634-1.008 1.107-1.319c.473-.31 1.02-.465 1.64-.465.48 0 .858.08 1.136.24.281.157.495.336.642.537.15.198.267.361.35.49h.096v-3.625h1.132V45H89.4v-1.131h-.135a7.277 7.277 0 01-.354.508 2.108 2.108 0 01-.657.541c-.284.157-.663.235-1.136.235zm.153-1.016c.454 0 .838-.118 1.15-.355.314-.24.552-.57.715-.992.163-.425.245-.916.245-1.472 0-.55-.08-1.03-.24-1.443-.16-.415-.396-.738-.71-.968-.313-.233-.7-.35-1.16-.35-.48 0-.879.123-1.198.369a2.21 2.21 0 00-.715.992 3.945 3.945 0 00-.234 1.4c0 .524.08 1 .24 1.429.162.425.402.764.718 1.016.32.25.716.374 1.19.374zm5.451.863v-7.364h1.093v1.113h.077c.134-.365.377-.66.728-.887.352-.227.748-.34 1.19-.34a9.255 9.255 0 01.594.018v1.151a3.348 3.348 0 00-.264-.043 2.593 2.593 0 00-.427-.034c-.358 0-.677.076-.958.226a1.699 1.699 0 00-.662.613c-.16.26-.24.555-.24.887V45h-1.131zm5.023 0v-7.364h1.131V45h-1.131zm.575-8.59a.804.804 0 01-.57-.226.724.724 0 01-.235-.542c0-.21.078-.392.235-.542.16-.15.35-.225.57-.225.22 0 .41.075.566.225.16.15.24.331.24.542 0 .211-.08.392-.24.542a.788.788 0 01-.566.225zm5.716 8.743c-.71 0-1.322-.156-1.836-.47a3.149 3.149 0 01-1.184-1.323c-.275-.569-.413-1.23-.413-1.984 0-.755.138-1.42.413-1.995.278-.578.664-1.029 1.16-1.352.498-.326 1.08-.489 1.745-.489.383 0 .762.064 1.136.192.374.128.714.336 1.021.623.307.285.552.662.734 1.132.182.47.273 1.048.273 1.735v.48h-5.676v-.978h4.525c0-.416-.083-.786-.249-1.112a1.876 1.876 0 00-.7-.772c-.3-.189-.655-.283-1.064-.283-.451 0-.841.112-1.17.335a2.21 2.21 0 00-.753.863 2.545 2.545 0 00-.263 1.141v.652c0 .556.096 1.028.287 1.414.195.384.465.676.811.878.345.198.746.297 1.203.297.297 0 .566-.041.805-.125.243-.086.453-.214.628-.383a1.75 1.75 0 00.408-.642l1.093.306a2.43 2.43 0 01-.58.978 2.827 2.827 0 01-1.007.652 3.73 3.73 0 01-1.347.23zm4.559-.153v-.863l4.18-5.37v-.076h-4.046v-1.055h5.504v.902l-4.065 5.33v.077h4.199V45h-5.772zm15.952-3.01v-4.354h1.132V45h-1.132v-1.246h-.076a2.424 2.424 0 01-.806.954c-.364.258-.824.388-1.381.388-.46 0-.869-.1-1.227-.302a2.117 2.117 0 01-.844-.92c-.204-.413-.306-.932-.306-1.559v-4.679h1.131v4.603c0 .537.15.965.451 1.284.303.32.69.48 1.16.48.281 0 .567-.072.858-.216a1.87 1.87 0 00.738-.661c.202-.298.302-.676.302-1.137zm4.335-1.42V45h-1.131v-7.364h1.093v1.15h.096c.172-.373.434-.673.786-.9.352-.23.805-.346 1.361-.346.499 0 .935.103 1.309.307.374.202.665.508.873.92.207.41.311.928.311 1.554V45h-1.131v-4.602c0-.579-.15-1.03-.451-1.352-.3-.326-.712-.49-1.237-.49-.361 0-.683.08-.968.236a1.681 1.681 0 00-.666.685c-.163.3-.245.665-.245 1.093zm13.535 7.345c-.547 0-1.016-.07-1.409-.211a2.982 2.982 0 01-.983-.547 3.003 3.003 0 01-.619-.719l.902-.633a6.6 6.6 0 00.388.46c.157.176.371.328.642.456.275.131.635.197 1.079.197.594 0 1.085-.144 1.472-.432.386-.287.58-.738.58-1.352V43.64h-.096c-.083.134-.201.3-.355.498-.15.195-.367.37-.652.523-.281.15-.661.225-1.141.225-.594 0-1.128-.14-1.601-.422-.47-.281-.842-.69-1.117-1.227-.272-.537-.408-1.19-.408-1.956 0-.754.133-1.411.398-1.97.266-.563.635-.998 1.108-1.305.473-.31 1.019-.465 1.639-.465.48 0 .86.08 1.141.24.285.157.502.336.652.537.154.198.272.361.355.49h.115v-1.17h1.093v7.574c0 .633-.144 1.147-.431 1.544-.285.4-.668.692-1.151.877a4.338 4.338 0 01-1.601.283zm-.038-4.046c.453 0 .837-.104 1.15-.312a1.94 1.94 0 00.714-.897c.163-.39.245-.856.245-1.4 0-.53-.08-.998-.24-1.404a2.11 2.11 0 00-.709-.954c-.313-.23-.7-.345-1.16-.345-.48 0-.879.121-1.199.364a2.223 2.223 0 00-.714.978c-.157.41-.235.863-.235 1.362 0 .511.08.963.24 1.356.163.39.402.697.719.92.319.221.716.332 1.189.332zm7.459 1.304c-.466 0-.89-.088-1.27-.264a2.171 2.171 0 01-.906-.772c-.224-.339-.336-.748-.336-1.227 0-.422.083-.764.249-1.026.167-.265.389-.473.667-.623.278-.15.585-.262.92-.336a11.2 11.2 0 011.021-.182c.448-.058.81-.1 1.089-.13.281-.032.485-.084.613-.158.131-.073.197-.201.197-.383v-.039c0-.473-.13-.84-.389-1.102-.255-.262-.644-.393-1.165-.393-.54 0-.963.118-1.27.354-.307.237-.522.49-.647.758l-1.074-.384c.192-.447.447-.795.767-1.045a2.872 2.872 0 011.055-.527 4.37 4.37 0 011.131-.154c.237 0 .508.03.815.087.31.054.609.168.897.34a2 2 0 01.723.782c.192.348.288.815.288 1.4V45h-1.131v-.997h-.058c-.076.16-.204.33-.383.513a2.207 2.207 0 01-.715.465c-.297.128-.66.192-1.088.192zm.173-1.017c.447 0 .824-.088 1.131-.263a1.798 1.798 0 00.94-1.559V41.3c-.048.057-.154.11-.317.158a5.282 5.282 0 01-.556.12 25.346 25.346 0 01-1.083.144c-.294.038-.569.1-.825.187-.252.083-.457.21-.613.379-.154.166-.231.393-.231.68 0 .393.146.69.437.892.294.198.666.297 1.117.297zm5.267.844v-7.364h1.132V45h-1.132zm.575-8.59a.805.805 0 01-.57-.226.723.723 0 01-.235-.542c0-.21.078-.392.235-.542.16-.15.35-.225.57-.225.221 0 .41.075.566.225.16.15.24.331.24.542 0 .211-.08.392-.24.542a.787.787 0 01-.566.225zm3.76 4.16V45h-1.131v-7.364h1.093v1.15h.096c.172-.373.434-.673.786-.9.351-.23.805-.346 1.361-.346.499 0 .935.103 1.309.307.374.202.665.508.873.92.207.41.311.928.311 1.554V45h-1.131v-4.602c0-.579-.15-1.03-.451-1.352-.3-.326-.712-.49-1.237-.49-.361 0-.684.08-.968.236a1.681 1.681 0 00-.666.685c-.163.3-.245.665-.245 1.093zM12.816 67.153c-.614 0-1.155-.155-1.625-.465-.47-.313-.838-.754-1.103-1.323-.265-.572-.398-1.248-.398-2.028 0-.773.133-1.444.398-2.013.266-.569.635-1.008 1.108-1.319.473-.31 1.02-.465 1.64-.465.479 0 .857.08 1.135.24.282.157.496.336.643.537.15.198.267.361.35.49h.096v-3.625h1.131V67h-1.093v-1.131h-.134a7.283 7.283 0 01-.355.508 2.106 2.106 0 01-.657.541c-.284.157-.663.235-1.136.235zm.153-1.016c.454 0 .838-.118 1.151-.355.313-.24.551-.57.714-.992.163-.425.245-.916.245-1.472 0-.55-.08-1.03-.24-1.443-.16-.415-.396-.738-.71-.968-.313-.233-.7-.35-1.16-.35-.479 0-.878.123-1.198.369a2.209 2.209 0 00-.714.992 3.945 3.945 0 00-.235 1.4c0 .524.08 1 .24 1.429.162.425.402.764.719 1.016.32.25.715.374 1.188.374zm8.539 1.016c-.71 0-1.322-.156-1.836-.47a3.154 3.154 0 01-1.185-1.323c-.274-.569-.412-1.23-.412-1.984 0-.755.137-1.42.412-1.995a3.252 3.252 0 011.16-1.352c.5-.326 1.08-.489 1.746-.489.383 0 .762.064 1.136.192.374.128.714.336 1.02.623.308.285.552.662.734 1.132.183.47.274 1.048.274 1.735v.48H18.88v-.978h4.525c0-.416-.083-.786-.25-1.112a1.878 1.878 0 00-.7-.772c-.3-.189-.654-.283-1.063-.283-.451 0-.841.112-1.17.335-.326.22-.577.509-.753.863a2.535 2.535 0 00-.264 1.141v.652c0 .556.096 1.028.288 1.415.195.383.465.675.81.877a2.38 2.38 0 001.204.297c.297 0 .565-.041.805-.125.243-.086.452-.214.628-.383a1.75 1.75 0 00.408-.642l1.093.306a2.438 2.438 0 01-.58.978 2.827 2.827 0 01-1.007.652c-.4.154-.849.23-1.347.23zm52.527 54.608v-10.125h1.094v1.17h.134c.083-.128.198-.291.345-.489.15-.201.364-.38.642-.537.282-.16.662-.24 1.141-.24.62 0 1.167.155 1.64.466.473.31.842.749 1.107 1.318.266.569.398 1.24.398 2.013 0 .78-.132 1.456-.398 2.028-.265.569-.633 1.01-1.102 1.323-.47.31-1.012.465-1.626.465-.472 0-.851-.078-1.136-.234a2.116 2.116 0 01-.656-.542 7.426 7.426 0 01-.355-.508h-.096v3.892h-1.132zm1.113-6.443c0 .556.081 1.047.244 1.472.163.422.401.753.715.992.313.237.696.355 1.15.355.473 0 .868-.125 1.184-.374.32-.252.56-.591.72-1.016a3.99 3.99 0 00.244-1.429c0-.518-.08-.984-.24-1.4a2.166 2.166 0 00-.714-.992c-.317-.246-.714-.369-1.194-.369-.46 0-.847.116-1.16.35-.313.23-.55.553-.71.968-.16.412-.24.893-.24 1.443zm9.281 3.855c-.467 0-.89-.088-1.27-.264a2.177 2.177 0 01-.907-.772c-.223-.339-.335-.748-.335-1.227 0-.422.083-.764.25-1.026a1.76 1.76 0 01.666-.623 3.49 3.49 0 01.92-.336c.339-.077.68-.137 1.021-.182.448-.058.81-.101 1.088-.13.282-.032.486-.084.614-.158.131-.073.197-.201.197-.383v-.039c0-.473-.13-.84-.389-1.102-.255-.262-.644-.393-1.165-.393-.54 0-.963.118-1.27.354-.307.237-.523.489-.647.758l-1.074-.384c.192-.447.447-.795.767-1.045a2.88 2.88 0 011.055-.527c.383-.102.76-.154 1.131-.154.236 0 .508.029.815.087.31.054.609.168.896.34.291.173.533.433.724.782.192.348.288.815.288 1.399V119h-1.131v-.997h-.058c-.077.16-.204.331-.383.513a2.217 2.217 0 01-.715.465c-.297.128-.66.192-1.088.192zm.173-1.017c.447 0 .824-.088 1.131-.263a1.797 1.797 0 00.94-1.558v-1.036c-.048.058-.154.11-.317.158-.16.045-.345.085-.556.12-.208.032-.41.061-.609.086a36.76 36.76 0 00-.474.058 4.319 4.319 0 00-.825.187 1.416 1.416 0 00-.614.379c-.153.166-.23.393-.23.68 0 .393.146.691.437.892.294.198.666.297 1.117.297zm5.267.844v-7.364h1.093v1.113h.077c.134-.365.377-.66.728-.887a2.145 2.145 0 011.19-.341c.083 0 .186.002.311.005s.219.008.283.014v1.151a3.102 3.102 0 00-.264-.043 2.636 2.636 0 00-.427-.034 1.99 1.99 0 00-.958.226 1.698 1.698 0 00-.662.613c-.16.259-.24.555-.24.887V119h-1.13zm10.987.173c-.467 0-.89-.088-1.27-.264a2.178 2.178 0 01-.907-.772c-.224-.339-.335-.748-.335-1.227 0-.422.083-.764.249-1.026.166-.265.388-.473.666-.623a3.49 3.49 0 01.921-.336 11.2 11.2 0 011.021-.182c.447-.058.81-.101 1.088-.13.281-.032.486-.084.614-.158.131-.073.196-.201.196-.383v-.039c0-.473-.129-.84-.388-1.102-.256-.262-.644-.393-1.165-.393-.54 0-.964.118-1.27.354-.307.237-.523.489-.647.758l-1.074-.384c.191-.447.447-.795.767-1.045a2.882 2.882 0 011.054-.527 4.398 4.398 0 011.132-.154c.236 0 .508.029.815.087.31.054.609.168.896.34.291.173.532.433.724.782.192.348.288.815.288 1.399V119h-1.132v-.997h-.057c-.077.16-.205.331-.384.513a2.22 2.22 0 01-.714.465c-.297.128-.66.192-1.088.192zm.172-1.017c.448 0 .825-.088 1.132-.263a1.8 1.8 0 00.7-.681c.159-.278.239-.571.239-.877v-1.036c-.048.058-.153.11-.316.158-.16.045-.345.085-.556.12a22.786 22.786 0 01-1.084.144 4.3 4.3 0 00-.824.187 1.413 1.413 0 00-.614.379c-.153.166-.23.393-.23.68 0 .393.146.691.436.892.294.198.667.297 1.117.297zm6.399-3.586V119h-1.131v-7.364h1.093v1.151h.096c.172-.374.434-.674.786-.901.351-.23.805-.346 1.361-.346.499 0 .935.103 1.309.307.374.202.665.508.873.921.207.409.311.927.311 1.553V119h-1.131v-4.602c0-.579-.15-1.029-.451-1.352-.3-.326-.712-.489-1.237-.489-.361 0-.684.078-.968.235a1.679 1.679 0 00-.666.685c-.163.301-.245.665-.245 1.093zM55.506 95v-1.278l4.8-5.256A33.352 33.352 0 0061.7 86.86c.364-.46.634-.89.81-1.293.18-.407.27-.833.27-1.278 0-.512-.124-.954-.37-1.328a2.396 2.396 0 00-.994-.867 3.223 3.223 0 00-1.42-.305c-.56 0-1.047.116-1.464.348a2.397 2.397 0 00-.959.959c-.222.412-.333.895-.333 1.449h-1.676c0-.853.196-1.6.589-2.245a4.095 4.095 0 011.605-1.505c.682-.36 1.447-.54 2.294-.54.852 0 1.608.18 2.266.54a4.06 4.06 0 011.548 1.455c.374.611.561 1.29.561 2.039 0 .535-.097 1.058-.291 1.57-.19.506-.52 1.072-.994 1.697-.47.62-1.12 1.378-1.953 2.272l-3.268 3.495v.114h6.762V95h-9.176zm17.024.199c-.938 0-1.773-.161-2.507-.483-.73-.322-1.31-.77-1.74-1.342-.427-.578-.659-1.248-.696-2.01h1.79c.037.468.198.873.482 1.214.285.336.656.597 1.115.781.46.185.969.277 1.527.277.625 0 1.18-.108 1.662-.326a2.73 2.73 0 001.137-.91 2.28 2.28 0 00.412-1.349c0-.535-.133-1.006-.398-1.413-.265-.412-.653-.734-1.165-.966-.511-.232-1.136-.348-1.875-.348H71.11V86.76h1.165c.578 0 1.084-.104 1.52-.312a2.44 2.44 0 001.03-.88c.25-.38.376-.825.376-1.336 0-.493-.109-.921-.326-1.286a2.235 2.235 0 00-.924-.852c-.393-.203-.857-.305-1.392-.305a3.66 3.66 0 00-1.42.277c-.44.18-.8.443-1.08.788-.28.341-.43.753-.454 1.236H67.9c.029-.762.258-1.43.69-2.003a4.336 4.336 0 011.69-1.35c.7-.321 1.47-.482 2.308-.482.9 0 1.671.182 2.315.547.644.36 1.139.835 1.484 1.427.346.592.519 1.231.519 1.918 0 .819-.216 1.517-.647 2.095-.426.578-1.006.978-1.74 1.2v.114c.919.151 1.636.542 2.153 1.172.516.625.774 1.399.774 2.322 0 .79-.216 1.501-.647 2.13-.426.626-1.008 1.118-1.747 1.478-.739.36-1.579.54-2.521.54zm12.734 0c-.937 0-1.773-.161-2.507-.483-.73-.322-1.31-.77-1.74-1.342-.426-.578-.658-1.248-.696-2.01h1.79c.038.468.199.873.483 1.214a2.79 2.79 0 001.115.781c.46.185.968.277 1.527.277.625 0 1.179-.108 1.662-.326.483-.218.862-.521 1.136-.91.275-.388.412-.838.412-1.349 0-.535-.133-1.006-.398-1.413-.265-.412-.653-.734-1.165-.966-.51-.232-1.136-.348-1.874-.348h-1.165V86.76h1.165c.577 0 1.084-.104 1.52-.312a2.44 2.44 0 001.03-.88c.25-.38.376-.825.376-1.336 0-.493-.11-.921-.327-1.286a2.235 2.235 0 00-.923-.852c-.393-.203-.857-.305-1.392-.305-.502 0-.976.092-1.42.277-.441.18-.801.443-1.08.788-.28.341-.431.753-.455 1.236h-1.704c.028-.762.258-1.43.688-2.003a4.337 4.337 0 011.69-1.35 5.481 5.481 0 012.309-.482c.9 0 1.671.182 2.315.547.644.36 1.14.835 1.485 1.427.345.592.518 1.231.518 1.918 0 .819-.215 1.517-.646 2.095-.426.578-1.006.978-1.74 1.2v.114c.918.151 1.636.542 2.152 1.172.516.625.774 1.399.774 2.322a3.69 3.69 0 01-.646 2.13c-.427.626-1.009 1.118-1.748 1.478-.738.36-1.579.54-2.52.54zm8.62-.085a1.23 1.23 0 01-.901-.377 1.23 1.23 0 01-.377-.902c0-.35.126-.65.377-.902.25-.25.551-.376.902-.376.35 0 .65.125.902.376.25.251.376.552.376.902 0 .232-.06.445-.178.64-.113.194-.267.35-.461.468-.19.114-.403.17-.64.17zm4.42-.114l6.506-12.87v-.113h-7.5v-1.563h9.318v1.648L100.151 95h-1.847zm15.488.199a5.45 5.45 0 01-1.79-.341c-.596-.218-1.141-.585-1.633-1.1-.492-.522-.888-1.225-1.186-2.11-.298-.89-.448-2.008-.448-3.352 0-1.288.121-2.43.363-3.424.241-.999.592-1.84 1.051-2.521.459-.687 1.013-1.207 1.662-1.563.653-.355 1.389-.532 2.209-.532.814 0 1.538.163 2.173.49a4.14 4.14 0 011.562 1.35c.403.577.663 1.242.782 1.995h-1.733a3.214 3.214 0 00-.938-1.626c-.464-.431-1.079-.647-1.846-.647-1.127 0-2.015.49-2.664 1.47-.644.98-.968 2.356-.973 4.127h.114a4.281 4.281 0 012.166-1.698 4.235 4.235 0 011.413-.234c.834 0 1.596.208 2.287.625a4.606 4.606 0 011.662 1.712c.417.724.625 1.555.625 2.493 0 .9-.201 1.723-.603 2.471a4.605 4.605 0 01-1.698 1.776c-.724.435-1.577.648-2.557.639zm0-1.563c.597 0 1.132-.149 1.605-.447a3.198 3.198 0 001.13-1.2 3.393 3.393 0 00.419-1.677c0-.6-.135-1.148-.405-1.64a3.085 3.085 0 00-1.101-1.186 2.91 2.91 0 00-1.591-.44c-.45 0-.869.09-1.257.27a3.253 3.253 0 00-1.023.724 3.5 3.5 0 00-.682 1.058 3.179 3.179 0 00-.248 1.243c0 .578.135 1.117.405 1.62a3.33 3.33 0 001.122 1.214c.478.308 1.02.461 1.626.461zm16.572-8.04l-.654 1.421h-9.261l.511-1.42h9.404zm-1.222 2.841l-.653 1.421h-8.04l.511-1.42h8.182zm2.898-6.676l-.682 1.478a5.913 5.913 0 00-.959-.71 4.66 4.66 0 00-1.058-.462 4.098 4.098 0 00-1.165-.164c-.805 0-1.529.223-2.173.668-.644.445-1.153 1.1-1.527 1.967-.374.867-.561 1.93-.561 3.19 0 1.259.187 2.322.561 3.188.374.867.883 1.522 1.527 1.968a3.732 3.732 0 002.173.667c.417 0 .81-.054 1.179-.163a4.57 4.57 0 001.044-.448 5.89 5.89 0 00.902-.639l.71 1.477a4.983 4.983 0 01-1.747 1.066 6.197 6.197 0 01-2.088.355c-1.165 0-2.197-.303-3.096-.91-.895-.605-1.598-1.467-2.11-2.585-.506-1.117-.76-2.443-.76-3.977 0-1.534.254-2.86.76-3.977.512-1.117 1.215-1.98 2.11-2.585.899-.606 1.931-.91 3.096-.91.753 0 1.456.13 2.11.391a5.46 5.46 0 011.754 1.115z" fill="#000"/></svg>