<svg width="186" height="133" viewBox="0 0 186 133" fill="none" xmlns="http://www.w3.org/2000/svg">
<rect x="0.5" y="0.5" width="185" height="132" rx="9.5" stroke="#81EC40"/>
<path d="M10.1889 23V13.1818H16.1143V14.2365H11.3778V17.554H15.8075V18.6087H11.3778V21.9453H16.1911V23H10.1889ZM19.2353 18.5703V23H18.1039V15.6364H19.1969V16.7869H19.2928C19.4654 16.413 19.7275 16.1126 20.079 15.8857C20.4306 15.6555 20.8844 15.5405 21.4405 15.5405C21.9391 15.5405 22.3754 15.6428 22.7493 15.8473C23.1232 16.0487 23.4141 16.3555 23.6218 16.7678C23.8295 17.1768 23.9334 17.6946 23.9334 18.321V23H22.802V18.3977C22.802 17.8192 22.6518 17.3686 22.3514 17.0458C22.051 16.7198 21.6387 16.5568 21.1145 16.5568C20.7534 16.5568 20.4306 16.6351 20.1461 16.7917C19.8649 16.9483 19.6428 17.1768 19.4798 17.4773C19.3168 17.7777 19.2353 18.142 19.2353 18.5703ZM34.4383 19.9893V15.6364H35.5697V23H34.4383V21.7536H34.3616C34.1891 22.1275 33.9206 22.4455 33.5562 22.7076C33.1919 22.9664 32.7317 23.0959 32.1756 23.0959C31.7153 23.0959 31.3062 22.9952 30.9483 22.7939C30.5903 22.5893 30.3091 22.2825 30.1045 21.8734C29.9 21.4611 29.7977 20.9418 29.7977 20.3153V15.6364H30.9291V20.2386C30.9291 20.7756 31.0793 21.2038 31.3797 21.5234C31.6834 21.843 32.0701 22.0028 32.5399 22.0028C32.8212 22.0028 33.1072 21.9309 33.398 21.7871C33.6921 21.6433 33.9382 21.4228 34.1363 21.1255C34.3377 20.8283 34.4383 20.4496 34.4383 19.9893ZM40.8444 15.6364V16.5952H37.0283V15.6364H40.8444ZM38.1405 13.8722H39.2719V20.8906C39.2719 21.2102 39.3183 21.4499 39.411 21.6097C39.5068 21.7663 39.6283 21.8718 39.7753 21.9261C39.9255 21.9773 40.0837 22.0028 40.2499 22.0028C40.3746 22.0028 40.4768 21.9964 40.5567 21.9837C40.6366 21.9677 40.7006 21.9549 40.7485 21.9453L40.9786 22.9616C40.9019 22.9904 40.7948 23.0192 40.6574 23.0479C40.52 23.0799 40.3458 23.0959 40.1349 23.0959C39.8153 23.0959 39.502 23.0272 39.1952 22.8897C38.8916 22.7523 38.6391 22.543 38.4378 22.2617C38.2396 21.9805 38.1405 21.6257 38.1405 21.1974V13.8722ZM42.5463 23V15.6364H43.6776V23H42.5463ZM43.1215 14.4091C42.901 14.4091 42.7108 14.334 42.551 14.1838C42.3944 14.0336 42.3161 13.853 42.3161 13.642C42.3161 13.4311 42.3944 13.2505 42.551 13.1003C42.7108 12.9501 42.901 12.875 43.1215 12.875C43.3421 12.875 43.5306 12.9501 43.6872 13.1003C43.847 13.2505 43.9269 13.4311 43.9269 13.642C43.9269 13.853 43.847 14.0336 43.6872 14.1838C43.5306 14.334 43.3421 14.4091 43.1215 14.4091ZM46.8813 13.1818V23H45.7499V13.1818H46.8813ZM48.9535 23V15.6364H50.0849V23H48.9535ZM49.5288 14.4091C49.3082 14.4091 49.1181 14.334 48.9583 14.1838C48.8017 14.0336 48.7234 13.853 48.7234 13.642C48.7234 13.4311 48.8017 13.2505 48.9583 13.1003C49.1181 12.9501 49.3082 12.875 49.5288 12.875C49.7493 12.875 49.9379 12.9501 50.0945 13.1003C50.2543 13.2505 50.3342 13.4311 50.3342 13.642C50.3342 13.853 50.2543 14.0336 50.0945 14.1838C49.9379 14.334 49.7493 14.4091 49.5288 14.4091ZM57.373 17.2855L56.3567 17.5732C56.2927 17.4038 56.1985 17.2392 56.0738 17.0794C55.9524 16.9164 55.7862 16.7821 55.5752 16.6767C55.3643 16.5712 55.0942 16.5185 54.765 16.5185C54.3144 16.5185 53.9389 16.6223 53.6385 16.8301C53.3412 17.0346 53.1926 17.2951 53.1926 17.6115C53.1926 17.8928 53.2949 18.1149 53.4994 18.2779C53.704 18.4409 54.0236 18.5767 54.4582 18.6854L55.5513 18.9538C56.2097 19.1136 56.7002 19.3581 57.023 19.6873C57.3458 20.0133 57.5072 20.4336 57.5072 20.9482C57.5072 21.37 57.3858 21.7472 57.1429 22.0795C56.9032 22.4119 56.5676 22.674 56.1361 22.8658C55.7047 23.0575 55.2029 23.1534 54.6308 23.1534C53.8797 23.1534 53.2581 22.9904 52.7659 22.6644C52.2737 22.3384 51.9621 21.8622 51.8311 21.2358L52.905 20.9673C53.0072 21.3636 53.2006 21.6609 53.485 21.859C53.7727 22.0572 54.1482 22.1562 54.6116 22.1562C55.139 22.1562 55.5577 22.0444 55.8677 21.8207C56.1809 21.5937 56.3375 21.3221 56.3375 21.0057C56.3375 20.75 56.248 20.5359 56.069 20.3633C55.89 20.1875 55.6152 20.0565 55.2445 19.9702L54.0172 19.6825C53.3428 19.5227 52.8474 19.275 52.531 18.9395C52.2178 18.6007 52.0612 18.1772 52.0612 17.669C52.0612 17.2536 52.1779 16.886 52.4112 16.5664C52.6477 16.2468 52.9689 15.9959 53.3748 15.8137C53.7839 15.6316 54.2473 15.5405 54.765 15.5405C55.4937 15.5405 56.0658 15.7003 56.4813 16.0199C56.9 16.3395 57.1972 16.7614 57.373 17.2855ZM61.3772 23.1726C60.9106 23.1726 60.4871 23.0847 60.1068 22.9089C59.7265 22.7299 59.4244 22.4727 59.2007 22.1371C58.977 21.7983 58.8651 21.3892 58.8651 20.9098C58.8651 20.4879 58.9482 20.146 59.1144 19.8839C59.2806 19.6186 59.5028 19.4109 59.7808 19.2607C60.0589 19.1104 60.3657 18.9986 60.7013 18.9251C61.04 18.8484 61.3804 18.7876 61.7224 18.7429C62.1698 18.6854 62.5326 18.6422 62.8106 18.6135C63.0919 18.5815 63.2964 18.5288 63.4243 18.4553C63.5553 18.3817 63.6208 18.2539 63.6208 18.0717V18.0334C63.6208 17.5604 63.4914 17.1928 63.2325 16.9308C62.9768 16.6687 62.5885 16.5376 62.0676 16.5376C61.5274 16.5376 61.104 16.6559 60.7971 16.8924C60.4903 17.1289 60.2746 17.3814 60.1499 17.6499L59.0761 17.2663C59.2678 16.8189 59.5235 16.4705 59.8431 16.2212C60.1659 15.9687 60.5175 15.793 60.8978 15.6939C61.2813 15.5916 61.6585 15.5405 62.0292 15.5405C62.2657 15.5405 62.5374 15.5692 62.8442 15.6268C63.1542 15.6811 63.453 15.7946 63.7407 15.9672C64.0315 16.1397 64.2728 16.4002 64.4646 16.7486C64.6563 17.0969 64.7522 17.5636 64.7522 18.1484V23H63.6208V22.0028H63.5633C63.4866 22.1626 63.3588 22.3336 63.1798 22.5158C63.0008 22.698 62.7627 22.853 62.4655 22.9808C62.1682 23.1087 61.8055 23.1726 61.3772 23.1726ZM61.5498 22.1562C61.9972 22.1562 62.3744 22.0684 62.6812 21.8926C62.9912 21.7168 63.2245 21.4899 63.3811 21.2118C63.5409 20.9338 63.6208 20.6413 63.6208 20.3345V19.299C63.5729 19.3565 63.4674 19.4093 63.3044 19.4572C63.1446 19.502 62.9593 19.5419 62.7483 19.5771C62.5406 19.609 62.3376 19.6378 62.1395 19.6634C61.9445 19.6857 61.7863 19.7049 61.6649 19.7209C61.3708 19.7592 61.096 19.8216 60.8403 19.9078C60.5878 19.9909 60.3833 20.1172 60.2267 20.2866C60.0732 20.4528 59.9965 20.6797 59.9965 20.9673C59.9965 21.3604 60.142 21.6577 60.4328 21.859C60.7268 22.0572 61.0992 22.1562 61.5498 22.1562ZM67.9486 18.5703V23H66.8172V15.6364H67.9103V16.7869H68.0062C68.1788 16.413 68.4408 16.1126 68.7924 15.8857C69.144 15.6555 69.5978 15.5405 70.1539 15.5405C70.6525 15.5405 71.0887 15.6428 71.4627 15.8473C71.8366 16.0487 72.1274 16.3555 72.3352 16.7678C72.5429 17.1768 72.6468 17.6946 72.6468 18.321V23H71.5154V18.3977C71.5154 17.8192 71.3652 17.3686 71.0648 17.0458C70.7643 16.7198 70.3521 16.5568 69.8279 16.5568C69.4668 16.5568 69.144 16.6351 68.8595 16.7917C68.5783 16.9483 68.3561 17.1768 68.1931 17.4773C68.0301 17.7777 67.9486 18.142 67.9486 18.5703ZM77.9166 15.6364V16.5952H74.1006V15.6364H77.9166ZM75.2128 13.8722H76.3442V20.8906C76.3442 21.2102 76.3905 21.4499 76.4832 21.6097C76.5791 21.7663 76.7006 21.8718 76.8476 21.9261C76.9978 21.9773 77.156 22.0028 77.3222 22.0028C77.4468 22.0028 77.5491 21.9964 77.629 21.9837C77.7089 21.9677 77.7728 21.9549 77.8208 21.9453L78.0509 22.9616C77.9742 22.9904 77.8671 23.0192 77.7297 23.0479C77.5922 23.0799 77.4181 23.0959 77.2071 23.0959C76.8875 23.0959 76.5743 23.0272 76.2675 22.8897C75.9639 22.7523 75.7114 22.543 75.51 22.2617C75.3119 21.9805 75.2128 21.6257 75.2128 21.1974V13.8722ZM84.5468 18.5703V23H83.4154V15.6364H84.5084V16.7869H84.6043C84.7769 16.413 85.039 16.1126 85.3905 15.8857C85.7421 15.6555 86.1959 15.5405 86.752 15.5405C87.2506 15.5405 87.6869 15.6428 88.0608 15.8473C88.4347 16.0487 88.7256 16.3555 88.9333 16.7678C89.1411 17.1768 89.2449 17.6946 89.2449 18.321V23H88.1135V18.3977C88.1135 17.8192 87.9633 17.3686 87.6629 17.0458C87.3625 16.7198 86.9502 16.5568 86.426 16.5568C86.0649 16.5568 85.7421 16.6351 85.4577 16.7917C85.1764 16.9483 84.9543 17.1768 84.7913 17.4773C84.6283 17.7777 84.5468 18.142 84.5468 18.5703ZM94.3038 23.1534C93.6391 23.1534 93.0558 22.9952 92.554 22.6788C92.0554 22.3624 91.6655 21.9197 91.3843 21.3509C91.1062 20.782 90.9672 20.1172 90.9672 19.3565C90.9672 18.5895 91.1062 17.9199 91.3843 17.3478C91.6655 16.7757 92.0554 16.3315 92.554 16.0151C93.0558 15.6987 93.6391 15.5405 94.3038 15.5405C94.9686 15.5405 95.5503 15.6987 96.0489 16.0151C96.5506 16.3315 96.9406 16.7757 97.2186 17.3478C97.4999 17.9199 97.6405 18.5895 97.6405 19.3565C97.6405 20.1172 97.4999 20.782 97.2186 21.3509C96.9406 21.9197 96.5506 22.3624 96.0489 22.6788C95.5503 22.9952 94.9686 23.1534 94.3038 23.1534ZM94.3038 22.1371C94.8088 22.1371 95.2243 22.0076 95.5503 21.7488C95.8763 21.4899 96.1176 21.1495 96.2742 20.7276C96.4308 20.3058 96.5091 19.8487 96.5091 19.3565C96.5091 18.8643 96.4308 18.4057 96.2742 17.9806C96.1176 17.5556 95.8763 17.212 95.5503 16.9499C95.2243 16.6879 94.8088 16.5568 94.3038 16.5568C93.7989 16.5568 93.3834 16.6879 93.0574 16.9499C92.7314 17.212 92.4901 17.5556 92.3335 17.9806C92.1769 18.4057 92.0986 18.8643 92.0986 19.3565C92.0986 19.8487 92.1769 20.3058 92.3335 20.7276C92.4901 21.1495 92.7314 21.4899 93.0574 21.7488C93.3834 22.0076 93.7989 22.1371 94.3038 22.1371ZM104.583 17.2855L103.567 17.5732C103.503 17.4038 103.409 17.2392 103.284 17.0794C103.163 16.9164 102.997 16.7821 102.786 16.6767C102.575 16.5712 102.305 16.5185 101.975 16.5185C101.525 16.5185 101.149 16.6223 100.849 16.8301C100.552 17.0346 100.403 17.2951 100.403 17.6115C100.403 17.8928 100.505 18.1149 100.71 18.2779C100.914 18.4409 101.234 18.5767 101.669 18.6854L102.762 18.9538C103.42 19.1136 103.911 19.3581 104.233 19.6873C104.556 20.0133 104.718 20.4336 104.718 20.9482C104.718 21.37 104.596 21.7472 104.353 22.0795C104.114 22.4119 103.778 22.674 103.347 22.8658C102.915 23.0575 102.413 23.1534 101.841 23.1534C101.09 23.1534 100.469 22.9904 99.9764 22.6644C99.4842 22.3384 99.1726 21.8622 99.0415 21.2358L100.115 20.9673C100.218 21.3636 100.411 21.6609 100.695 21.859C100.983 22.0572 101.359 22.1562 101.822 22.1562C102.349 22.1562 102.768 22.0444 103.078 21.8207C103.391 21.5937 103.548 21.3221 103.548 21.0057C103.548 20.75 103.458 20.5359 103.279 20.3633C103.1 20.1875 102.826 20.0565 102.455 19.9702L101.228 19.6825C100.553 19.5227 100.058 19.275 99.7415 18.9395C99.4283 18.6007 99.2717 18.1772 99.2717 17.669C99.2717 17.2536 99.3883 16.886 99.6216 16.5664C99.8581 16.2468 100.179 15.9959 100.585 15.8137C100.994 15.6316 101.458 15.5405 101.975 15.5405C102.704 15.5405 103.276 15.7003 103.692 16.0199C104.11 16.3395 104.408 16.7614 104.583 17.2855ZM110.218 23V15.6364H111.311V16.7486H111.387C111.522 16.3842 111.765 16.0886 112.116 15.8617C112.468 15.6348 112.864 15.5213 113.305 15.5213C113.388 15.5213 113.492 15.5229 113.617 15.5261C113.741 15.5293 113.836 15.5341 113.899 15.5405V16.6911C113.861 16.6815 113.773 16.6671 113.636 16.6479C113.502 16.6255 113.359 16.6143 113.209 16.6143C112.851 16.6143 112.532 16.6895 112.25 16.8397C111.972 16.9867 111.752 17.1912 111.589 17.4533C111.429 17.7122 111.349 18.0078 111.349 18.3402V23H110.218ZM118.104 23.1534C117.394 23.1534 116.782 22.9968 116.268 22.6836C115.756 22.3672 115.362 21.9261 115.084 21.3604C114.809 20.7915 114.671 20.13 114.671 19.3757C114.671 18.6214 114.809 17.9567 115.084 17.3814C115.362 16.8029 115.748 16.3523 116.244 16.0295C116.742 15.7035 117.324 15.5405 117.989 15.5405C118.372 15.5405 118.751 15.6044 119.125 15.7322C119.499 15.8601 119.839 16.0678 120.146 16.3555C120.453 16.6399 120.697 17.017 120.88 17.4869C121.062 17.9567 121.153 18.5352 121.153 19.2223V19.7017H115.477V18.7237H120.002C120.002 18.3082 119.919 17.9375 119.753 17.6115C119.59 17.2855 119.357 17.0282 119.053 16.8397C118.753 16.6511 118.398 16.5568 117.989 16.5568C117.538 16.5568 117.148 16.6687 116.819 16.8924C116.493 17.1129 116.242 17.4006 116.066 17.7553C115.891 18.1101 115.803 18.4904 115.803 18.8963V19.5483C115.803 20.1044 115.899 20.5758 116.09 20.9625C116.285 21.3461 116.555 21.6385 116.901 21.8398C117.246 22.038 117.647 22.1371 118.104 22.1371C118.401 22.1371 118.67 22.0955 118.909 22.0124C119.152 21.9261 119.361 21.7983 119.537 21.6289C119.713 21.4563 119.849 21.2422 119.945 20.9865L121.038 21.2933C120.923 21.6641 120.729 21.9901 120.458 22.2713C120.186 22.5494 119.85 22.7667 119.451 22.9233C119.051 23.0767 118.602 23.1534 118.104 23.1534ZM125.865 23.1534C125.175 23.1534 124.581 22.9904 124.082 22.6644C123.583 22.3384 123.2 21.8894 122.931 21.3173C122.663 20.7452 122.529 20.0916 122.529 19.3565C122.529 18.6087 122.666 17.9487 122.941 17.3766C123.219 16.8013 123.606 16.3523 124.101 16.0295C124.6 15.7035 125.181 15.5405 125.846 15.5405C126.364 15.5405 126.831 15.6364 127.246 15.8281C127.662 16.0199 128.002 16.2884 128.267 16.6335C128.532 16.9787 128.697 17.3814 128.761 17.8416H127.63C127.543 17.506 127.352 17.2088 127.054 16.9499C126.76 16.6879 126.364 16.5568 125.865 16.5568C125.424 16.5568 125.038 16.6719 124.705 16.902C124.376 17.1289 124.119 17.4501 123.933 17.8656C123.751 18.2779 123.66 18.7621 123.66 19.3182C123.66 19.8871 123.75 20.3825 123.929 20.8043C124.111 21.2262 124.366 21.5538 124.696 21.7871C125.028 22.0204 125.418 22.1371 125.865 22.1371C126.159 22.1371 126.426 22.0859 126.666 21.9837C126.906 21.8814 127.109 21.7344 127.275 21.5426C127.441 21.3509 127.559 21.1207 127.63 20.8523H128.761C128.697 21.2869 128.539 21.6784 128.286 22.0268C128.037 22.372 127.706 22.6468 127.294 22.8514C126.885 23.0527 126.409 23.1534 125.865 23.1534ZM133.502 23.1534C132.793 23.1534 132.181 22.9968 131.666 22.6836C131.155 22.3672 130.76 21.9261 130.482 21.3604C130.207 20.7915 130.07 20.13 130.07 19.3757C130.07 18.6214 130.207 17.9567 130.482 17.3814C130.76 16.8029 131.147 16.3523 131.642 16.0295C132.141 15.7035 132.722 15.5405 133.387 15.5405C133.771 15.5405 134.149 15.6044 134.523 15.7322C134.897 15.8601 135.238 16.0678 135.545 16.3555C135.851 16.6399 136.096 17.017 136.278 17.4869C136.46 17.9567 136.551 18.5352 136.551 19.2223V19.7017H130.875V18.7237H135.401C135.401 18.3082 135.318 17.9375 135.151 17.6115C134.988 17.2855 134.755 17.0282 134.451 16.8397C134.151 16.6511 133.796 16.5568 133.387 16.5568C132.937 16.5568 132.547 16.6687 132.217 16.8924C131.891 17.1129 131.641 17.4006 131.465 17.7553C131.289 18.1101 131.201 18.4904 131.201 18.8963V19.5483C131.201 20.1044 131.297 20.5758 131.489 20.9625C131.684 21.3461 131.954 21.6385 132.299 21.8398C132.644 22.038 133.045 22.1371 133.502 22.1371C133.799 22.1371 134.068 22.0955 134.308 22.0124C134.551 21.9261 134.76 21.7983 134.936 21.6289C135.111 21.4563 135.247 21.2422 135.343 20.9865L136.436 21.2933C136.321 21.6641 136.128 21.9901 135.856 22.2713C135.584 22.5494 135.249 22.7667 134.849 22.9233C134.45 23.0767 134.001 23.1534 133.502 23.1534ZM141.475 15.6364V16.5952H137.659V15.6364H141.475ZM138.771 13.8722H139.902V20.8906C139.902 21.2102 139.949 21.4499 140.041 21.6097C140.137 21.7663 140.259 21.8718 140.406 21.9261C140.556 21.9773 140.714 22.0028 140.88 22.0028C141.005 22.0028 141.107 21.9964 141.187 21.9837C141.267 21.9677 141.331 21.9549 141.379 21.9453L141.609 22.9616C141.532 22.9904 141.425 23.0192 141.288 23.0479C141.15 23.0799 140.976 23.0959 140.765 23.0959C140.446 23.0959 140.132 23.0272 139.826 22.8897C139.522 22.7523 139.269 22.543 139.068 22.2617C138.87 21.9805 138.771 21.6257 138.771 21.1974V13.8722ZM146.379 15.6364V16.5952H142.563V15.6364H146.379ZM143.675 13.8722H144.807V20.8906C144.807 21.2102 144.853 21.4499 144.946 21.6097C145.042 21.7663 145.163 21.8718 145.31 21.9261C145.46 21.9773 145.618 22.0028 145.785 22.0028C145.909 22.0028 146.011 21.9964 146.091 21.9837C146.171 21.9677 146.235 21.9549 146.283 21.9453L146.513 22.9616C146.437 22.9904 146.33 23.0192 146.192 23.0479C146.055 23.0799 145.88 23.0959 145.67 23.0959C145.35 23.0959 145.037 23.0272 144.73 22.8897C144.426 22.7523 144.174 22.543 143.972 22.2617C143.774 21.9805 143.675 21.6257 143.675 21.1974V13.8722ZM151.089 23.1534C150.38 23.1534 149.768 22.9968 149.253 22.6836C148.742 22.3672 148.347 21.9261 148.069 21.3604C147.794 20.7915 147.657 20.13 147.657 19.3757C147.657 18.6214 147.794 17.9567 148.069 17.3814C148.347 16.8029 148.734 16.3523 149.229 16.0295C149.728 15.7035 150.309 15.5405 150.974 15.5405C151.358 15.5405 151.736 15.6044 152.11 15.7322C152.484 15.8601 152.825 16.0678 153.131 16.3555C153.438 16.6399 153.683 17.017 153.865 17.4869C154.047 17.9567 154.138 18.5352 154.138 19.2223V19.7017H148.462V18.7237H152.988C152.988 18.3082 152.905 17.9375 152.738 17.6115C152.575 17.2855 152.342 17.0282 152.038 16.8397C151.738 16.6511 151.383 16.5568 150.974 16.5568C150.523 16.5568 150.134 16.6687 149.804 16.8924C149.478 17.1129 149.227 17.4006 149.052 17.7553C148.876 18.1101 148.788 18.4904 148.788 18.8963V19.5483C148.788 20.1044 148.884 20.5758 149.076 20.9625C149.271 21.3461 149.541 21.6385 149.886 21.8398C150.231 22.038 150.632 22.1371 151.089 22.1371C151.386 22.1371 151.655 22.0955 151.895 22.0124C152.137 21.9261 152.347 21.7983 152.523 21.6289C152.698 21.4563 152.834 21.2422 152.93 20.9865L154.023 21.2933C153.908 21.6641 153.715 21.9901 153.443 22.2713C153.171 22.5494 152.836 22.7667 152.436 22.9233C152.037 23.0767 151.588 23.1534 151.089 23.1534ZM161.075 17.2855L160.059 17.5732C159.995 17.4038 159.901 17.2392 159.776 17.0794C159.655 16.9164 159.488 16.7821 159.277 16.6767C159.066 16.5712 158.796 16.5185 158.467 16.5185C158.017 16.5185 157.641 16.6223 157.341 16.8301C157.043 17.0346 156.895 17.2951 156.895 17.6115C156.895 17.8928 156.997 18.1149 157.202 18.2779C157.406 18.4409 157.726 18.5767 158.16 18.6854L159.253 18.9538C159.912 19.1136 160.402 19.3581 160.725 19.6873C161.048 20.0133 161.209 20.4336 161.209 20.9482C161.209 21.37 161.088 21.7472 160.845 22.0795C160.605 22.4119 160.27 22.674 159.838 22.8658C159.407 23.0575 158.905 23.1534 158.333 23.1534C157.582 23.1534 156.96 22.9904 156.468 22.6644C155.976 22.3384 155.664 21.8622 155.533 21.2358L156.607 20.9673C156.709 21.3636 156.903 21.6609 157.187 21.859C157.475 22.0572 157.85 22.1562 158.314 22.1562C158.841 22.1562 159.26 22.0444 159.57 21.8207C159.883 21.5937 160.04 21.3221 160.04 21.0057C160.04 20.75 159.95 20.5359 159.771 20.3633C159.592 20.1875 159.317 20.0565 158.947 19.9702L157.719 19.6825C157.045 19.5227 156.55 19.275 156.233 18.9395C155.92 18.6007 155.763 18.1772 155.763 17.669C155.763 17.2536 155.88 16.886 156.113 16.5664C156.35 16.2468 156.671 15.9959 157.077 15.8137C157.486 15.6316 157.949 15.5405 158.467 15.5405C159.196 15.5405 159.768 15.7003 160.183 16.0199C160.602 16.3395 160.899 16.7614 161.075 17.2855ZM164.6 21.6577L164.523 22.1754C164.469 22.5398 164.386 22.9297 164.274 23.3452C164.165 23.7607 164.052 24.1522 163.934 24.5197C163.815 24.8873 163.718 25.1797 163.641 25.397H162.778C162.82 25.1925 162.874 24.9224 162.941 24.5868C163.008 24.2512 163.075 23.8757 163.143 23.4602C163.213 23.0479 163.27 22.6261 163.315 22.1946L163.373 21.6577H164.6ZM16.0568 37.6364L13.3338 45H12.1832L9.46023 37.6364H10.6875L12.7202 43.5043H12.7969L14.8295 37.6364H16.0568ZM20.278 45.1534C19.6132 45.1534 19.0299 44.9952 18.5281 44.6788C18.0296 44.3624 17.6396 43.9197 17.3584 43.3509C17.0803 42.782 16.9413 42.1172 16.9413 41.3565C16.9413 40.5895 17.0803 39.9199 17.3584 39.3478C17.6396 38.7757 18.0296 38.3315 18.5281 38.0151C19.0299 37.6987 19.6132 37.5405 20.278 37.5405C20.9427 37.5405 21.5244 37.6987 22.023 38.0151C22.5248 38.3315 22.9147 38.7757 23.1927 39.3478C23.474 39.9199 23.6146 40.5895 23.6146 41.3565C23.6146 42.1172 23.474 42.782 23.1927 43.3509C22.9147 43.9197 22.5248 44.3624 22.023 44.6788C21.5244 44.9952 20.9427 45.1534 20.278 45.1534ZM20.278 44.1371C20.7829 44.1371 21.1984 44.0076 21.5244 43.7488C21.8504 43.4899 22.0917 43.1495 22.2483 42.7276C22.4049 42.3058 22.4832 41.8487 22.4832 41.3565C22.4832 40.8643 22.4049 40.4057 22.2483 39.9806C22.0917 39.5556 21.8504 39.212 21.5244 38.9499C21.1984 38.6879 20.7829 38.5568 20.278 38.5568C19.773 38.5568 19.3575 38.6879 19.0315 38.9499C18.7055 39.212 18.4642 39.5556 18.3076 39.9806C18.151 40.4057 18.0727 40.8643 18.0727 41.3565C18.0727 41.8487 18.151 42.3058 18.3076 42.7276C18.4642 43.1495 18.7055 43.4899 19.0315 43.7488C19.3575 44.0076 19.773 44.1371 20.278 44.1371ZM29.9823 41.9893V37.6364H31.1137V45H29.9823V43.7536H29.9056C29.733 44.1275 29.4645 44.4455 29.1002 44.7076C28.7358 44.9664 28.2756 45.0959 27.7195 45.0959C27.2593 45.0959 26.8502 44.9952 26.4922 44.7939C26.1343 44.5893 25.853 44.2825 25.6485 43.8734C25.4439 43.4611 25.3417 42.9418 25.3417 42.3153V37.6364H26.4731V42.2386C26.4731 42.7756 26.6233 43.2038 26.9237 43.5234C27.2273 43.843 27.614 44.0028 28.0839 44.0028C28.3651 44.0028 28.6511 43.9309 28.942 43.7871C29.236 43.6433 29.4821 43.4228 29.6803 43.1255C29.8816 42.8283 29.9823 42.4496 29.9823 41.9893ZM38.4018 39.2855L37.3855 39.5732C37.3216 39.4038 37.2273 39.2392 37.1026 39.0794C36.9812 38.9164 36.815 38.7821 36.604 38.6767C36.3931 38.5712 36.123 38.5185 35.7939 38.5185C35.3432 38.5185 34.9677 38.6223 34.6673 38.8301C34.37 39.0346 34.2214 39.2951 34.2214 39.6115C34.2214 39.8928 34.3237 40.1149 34.5282 40.2779C34.7328 40.4409 35.0524 40.5767 35.487 40.6854L36.5801 40.9538C37.2385 41.1136 37.729 41.3581 38.0518 41.6873C38.3746 42.0133 38.536 42.4336 38.536 42.9482C38.536 43.37 38.4146 43.7472 38.1717 44.0795C37.932 44.4119 37.5964 44.674 37.165 44.8658C36.7335 45.0575 36.2317 45.1534 35.6596 45.1534C34.9086 45.1534 34.2869 44.9904 33.7947 44.6644C33.3026 44.3384 32.9909 43.8622 32.8599 43.2358L33.9338 42.9673C34.036 43.3636 34.2294 43.6609 34.5138 43.859C34.8015 44.0572 35.177 44.1562 35.6404 44.1562C36.1678 44.1562 36.5865 44.0444 36.8965 43.8207C37.2097 43.5937 37.3663 43.3221 37.3663 43.0057C37.3663 42.75 37.2768 42.5359 37.0978 42.3633C36.9189 42.1875 36.644 42.0565 36.2733 41.9702L35.046 41.6825C34.3716 41.5227 33.8762 41.275 33.5598 40.9395C33.2466 40.6007 33.09 40.1772 33.09 39.669C33.09 39.2536 33.2067 38.886 33.44 38.5664C33.6765 38.2468 33.9977 37.9959 34.4036 37.8137C34.8127 37.6316 35.2761 37.5405 35.7939 37.5405C36.5225 37.5405 37.0946 37.7003 37.5101 38.0199C37.9288 38.3395 38.226 38.7614 38.4018 39.2855ZM47.0275 45.1534C46.3627 45.1534 45.7794 44.9952 45.2777 44.6788C44.7791 44.3624 44.3892 43.9197 44.1079 43.3509C43.8299 42.782 43.6908 42.1172 43.6908 41.3565C43.6908 40.5895 43.8299 39.9199 44.1079 39.3478C44.3892 38.7757 44.7791 38.3315 45.2777 38.0151C45.7794 37.6987 46.3627 37.5405 47.0275 37.5405C47.6922 37.5405 48.2739 37.6987 48.7725 38.0151C49.2743 38.3315 49.6642 38.7757 49.9422 39.3478C50.2235 39.9199 50.3641 40.5895 50.3641 41.3565C50.3641 42.1172 50.2235 42.782 49.9422 43.3509C49.6642 43.9197 49.2743 44.3624 48.7725 44.6788C48.2739 44.9952 47.6922 45.1534 47.0275 45.1534ZM47.0275 44.1371C47.5324 44.1371 47.9479 44.0076 48.2739 43.7488C48.5999 43.4899 48.8412 43.1495 48.9978 42.7276C49.1544 42.3058 49.2327 41.8487 49.2327 41.3565C49.2327 40.8643 49.1544 40.4057 48.9978 39.9806C48.8412 39.5556 48.5999 39.212 48.2739 38.9499C47.9479 38.6879 47.5324 38.5568 47.0275 38.5568C46.5225 38.5568 46.107 38.6879 45.781 38.9499C45.455 39.212 45.2137 39.5556 45.0571 39.9806C44.9005 40.4057 44.8222 40.8643 44.8222 41.3565C44.8222 41.8487 44.9005 42.3058 45.0571 42.7276C45.2137 43.1495 45.455 43.4899 45.781 43.7488C46.107 44.0076 46.5225 44.1371 47.0275 44.1371ZM52.2446 45V35.1818H53.376V38.8061H53.4719C53.555 38.6783 53.67 38.5153 53.817 38.3171C53.9672 38.1158 54.1814 37.9368 54.4594 37.7802C54.7407 37.6204 55.121 37.5405 55.6004 37.5405C56.2204 37.5405 56.767 37.6955 57.24 38.0055C57.713 38.3155 58.0821 38.755 58.3474 39.3239C58.6127 39.8928 58.7453 40.5639 58.7453 41.3374C58.7453 42.1172 58.6127 42.7931 58.3474 43.3652C58.0821 43.9341 57.7146 44.3752 57.2448 44.6884C56.7749 44.9984 56.2332 45.1534 55.6196 45.1534C55.1466 45.1534 54.7678 45.0751 54.4834 44.9185C54.199 44.7587 53.98 44.5781 53.8266 44.3768C53.6732 44.1722 53.555 44.0028 53.4719 43.8686H53.3376V45H52.2446ZM53.3568 41.3182C53.3568 41.8743 53.4383 42.3649 53.6013 42.79C53.7643 43.2118 54.0024 43.5426 54.3156 43.7823C54.6288 44.0188 55.0123 44.1371 55.4662 44.1371C55.9392 44.1371 56.3339 44.0124 56.6503 43.7631C56.9699 43.5107 57.2096 43.1719 57.3694 42.7468C57.5324 42.3185 57.6139 41.8423 57.6139 41.3182C57.6139 40.8004 57.534 40.3338 57.3742 39.9183C57.2176 39.4996 56.9795 39.1689 56.6599 38.926C56.3435 38.6799 55.9456 38.5568 55.4662 38.5568C55.0059 38.5568 54.6192 38.6735 54.306 38.9068C53.9928 39.1369 53.7563 39.4597 53.5965 39.8752C53.4367 40.2875 53.3568 40.7685 53.3568 41.3182ZM63.6784 37.6364V38.5952H59.8623V37.6364H63.6784ZM60.9745 35.8722H62.1059V42.8906C62.1059 43.2102 62.1523 43.4499 62.2449 43.6097C62.3408 43.7663 62.4623 43.8718 62.6093 43.9261C62.7595 43.9773 62.9177 44.0028 63.0839 44.0028C63.2085 44.0028 63.3108 43.9964 63.3907 43.9837C63.4706 43.9677 63.5345 43.9549 63.5825 43.9453L63.8126 44.9616C63.7359 44.9904 63.6288 45.0192 63.4914 45.0479C63.354 45.0799 63.1798 45.0959 62.9688 45.0959C62.6492 45.0959 62.336 45.0272 62.0292 44.8897C61.7256 44.7523 61.4731 44.543 61.2718 44.2617C61.0736 43.9805 60.9745 43.6257 60.9745 43.1974V35.8722ZM65.3802 45V37.6364H66.5116V45H65.3802ZM65.9555 36.4091C65.735 36.4091 65.5448 36.334 65.385 36.1838C65.2284 36.0336 65.1501 35.853 65.1501 35.642C65.1501 35.4311 65.2284 35.2505 65.385 35.1003C65.5448 34.9501 65.735 34.875 65.9555 34.875C66.176 34.875 66.3646 34.9501 66.5212 35.1003C66.681 35.2505 66.7609 35.4311 66.7609 35.642C66.7609 35.853 66.681 36.0336 66.5212 36.1838C66.3646 36.334 66.176 36.4091 65.9555 36.4091ZM71.6712 45.1534C70.9617 45.1534 70.3497 44.9968 69.8351 44.6836C69.3237 44.3672 68.929 43.9261 68.651 43.3604C68.3761 42.7915 68.2387 42.13 68.2387 41.3757C68.2387 40.6214 68.3761 39.9567 68.651 39.3814C68.929 38.8029 69.3157 38.3523 69.8111 38.0295C70.3097 37.7035 70.8914 37.5405 71.5562 37.5405C71.9397 37.5405 72.3184 37.6044 72.6923 37.7322C73.0663 37.8601 73.4066 38.0678 73.7135 38.3555C74.0203 38.6399 74.2648 39.017 74.447 39.4869C74.6291 39.9567 74.7202 40.5352 74.7202 41.2223V41.7017H69.0441V40.7237H73.5696C73.5696 40.3082 73.4866 39.9375 73.3204 39.6115C73.1574 39.2855 72.9241 39.0282 72.6204 38.8397C72.32 38.6511 71.9652 38.5568 71.5562 38.5568C71.1055 38.5568 70.7156 38.6687 70.3864 38.8924C70.0604 39.1129 69.8095 39.4006 69.6337 39.7553C69.458 40.1101 69.3701 40.4904 69.3701 40.8963V41.5483C69.3701 42.1044 69.466 42.5758 69.6577 42.9625C69.8527 43.3461 70.1227 43.6385 70.4679 43.8398C70.8131 44.038 71.2142 44.1371 71.6712 44.1371C71.9684 44.1371 72.2369 44.0955 72.4766 44.0124C72.7195 43.9261 72.9288 43.7983 73.1046 43.6289C73.2804 43.4563 73.4162 43.2422 73.5121 42.9865L74.6052 43.2933C74.4901 43.6641 74.2967 43.9901 74.0251 44.2713C73.7534 44.5494 73.4178 44.7667 73.0183 44.9233C72.6188 45.0767 72.1698 45.1534 71.6712 45.1534ZM77.5727 40.5703V45H76.4413V37.6364H77.5343V38.7869H77.6302C77.8028 38.413 78.0649 38.1126 78.4164 37.8857C78.768 37.6555 79.2218 37.5405 79.7779 37.5405C80.2765 37.5405 80.7128 37.6428 81.0867 37.8473C81.4606 38.0487 81.7515 38.3555 81.9592 38.7678C82.1669 39.1768 82.2708 39.6946 82.2708 40.321V45H81.1394V40.3977C81.1394 39.8192 80.9892 39.3686 80.6888 39.0458C80.3884 38.7198 79.9761 38.5568 79.4519 38.5568C79.0908 38.5568 78.768 38.6351 78.4835 38.7917C78.2023 38.9483 77.9802 39.1768 77.8172 39.4773C77.6542 39.7777 77.5727 40.142 77.5727 40.5703ZM87.1188 45.1534C86.5051 45.1534 85.9634 44.9984 85.4936 44.6884C85.0238 44.3752 84.6563 43.9341 84.391 43.3652C84.1257 42.7931 83.9931 42.1172 83.9931 41.3374C83.9931 40.5639 84.1257 39.8928 84.391 39.3239C84.6563 38.755 85.0254 38.3155 85.4984 38.0055C85.9714 37.6955 86.5179 37.5405 87.138 37.5405C87.6174 37.5405 87.9961 37.6204 88.2741 37.7802C88.5554 37.9368 88.7695 38.1158 88.9165 38.3171C89.0668 38.5153 89.1834 38.6783 89.2665 38.8061H89.3624V35.1818H90.4938V45H89.4007V43.8686H89.2665C89.1834 44.0028 89.0652 44.1722 88.9118 44.3768C88.7583 44.5781 88.5394 44.7587 88.255 44.9185C87.9705 45.0751 87.5918 45.1534 87.1188 45.1534ZM87.2722 44.1371C87.726 44.1371 88.1096 44.0188 88.4228 43.7823C88.736 43.5426 88.9741 43.2118 89.1371 42.79C89.3001 42.3649 89.3816 41.8743 89.3816 41.3182C89.3816 40.7685 89.3017 40.2875 89.1419 39.8752C88.9821 39.4597 88.7456 39.1369 88.4324 38.9068C88.1191 38.6735 87.7324 38.5568 87.2722 38.5568C86.7928 38.5568 86.3933 38.6799 86.0737 38.926C85.7573 39.1689 85.5192 39.4996 85.3594 39.9183C85.2028 40.3338 85.1245 40.8004 85.1245 41.3182C85.1245 41.8423 85.2044 42.3185 85.3642 42.7468C85.5272 43.1719 85.7669 43.5107 86.0833 43.7631C86.4029 44.0124 86.7992 44.1371 87.2722 44.1371ZM92.723 45V37.6364H93.8161V38.7486H93.8928C94.027 38.3842 94.2699 38.0886 94.6214 37.8617C94.973 37.6348 95.3693 37.5213 95.8104 37.5213C95.8935 37.5213 95.9973 37.5229 96.122 37.5261C96.2466 37.5293 96.3409 37.5341 96.4048 37.5405V38.6911C96.3665 38.6815 96.2786 38.6671 96.1412 38.6479C96.0069 38.6255 95.8647 38.6143 95.7145 38.6143C95.3565 38.6143 95.0369 38.6895 94.7557 38.8397C94.4776 38.9867 94.2571 39.1912 94.0941 39.4533C93.9343 39.7122 93.8544 40.0078 93.8544 40.3402V45H92.723ZM97.746 45V37.6364H98.8774V45H97.746ZM98.3212 36.4091C98.1007 36.4091 97.9106 36.334 97.7508 36.1838C97.5941 36.0336 97.5158 35.853 97.5158 35.642C97.5158 35.4311 97.5941 35.2505 97.7508 35.1003C97.9106 34.9501 98.1007 34.875 98.3212 34.875C98.5418 34.875 98.7303 34.9501 98.8869 35.1003C99.0467 35.2505 99.1266 35.4311 99.1266 35.642C99.1266 35.853 99.0467 36.0336 98.8869 36.1838C98.7303 36.334 98.5418 36.4091 98.3212 36.4091ZM104.037 45.1534C103.327 45.1534 102.715 44.9968 102.201 44.6836C101.689 44.3672 101.295 43.9261 101.017 43.3604C100.742 42.7915 100.604 42.13 100.604 41.3757C100.604 40.6214 100.742 39.9567 101.017 39.3814C101.295 38.8029 101.681 38.3523 102.177 38.0295C102.675 37.7035 103.257 37.5405 103.922 37.5405C104.305 37.5405 104.684 37.6044 105.058 37.7322C105.432 37.8601 105.772 38.0678 106.079 38.3555C106.386 38.6399 106.631 39.017 106.813 39.4869C106.995 39.9567 107.086 40.5352 107.086 41.2223V41.7017H101.41V40.7237H105.935C105.935 40.3082 105.852 39.9375 105.686 39.6115C105.523 39.2855 105.29 39.0282 104.986 38.8397C104.686 38.6511 104.331 38.5568 103.922 38.5568C103.471 38.5568 103.081 38.6687 102.752 38.8924C102.426 39.1129 102.175 39.4006 101.999 39.7553C101.824 40.1101 101.736 40.4904 101.736 40.8963V41.5483C101.736 42.1044 101.832 42.5758 102.023 42.9625C102.218 43.3461 102.488 43.6385 102.834 43.8398C103.179 44.038 103.58 44.1371 104.037 44.1371C104.334 44.1371 104.603 44.0955 104.842 44.0124C105.085 43.9261 105.295 43.7983 105.47 43.6289C105.646 43.4563 105.782 43.2422 105.878 42.9865L106.971 43.2933C106.856 43.6641 106.662 43.9901 106.391 44.2713C106.119 44.5494 105.784 44.7667 105.384 44.9233C104.985 45.0767 104.536 45.1534 104.037 45.1534ZM108.596 45V44.1371L112.776 38.7678V38.6911H108.73V37.6364H114.234V38.5376L110.169 43.8686V43.9453H114.368V45H108.596ZM124.548 41.9893V37.6364H125.68V45H124.548V43.7536H124.472C124.299 44.1275 124.03 44.4455 123.666 44.7076C123.302 44.9664 122.842 45.0959 122.285 45.0959C121.825 45.0959 121.416 44.9952 121.058 44.7939C120.7 44.5893 120.419 44.2825 120.214 43.8734C120.01 43.4611 119.908 42.9418 119.908 42.3153V37.6364H121.039V42.2386C121.039 42.7756 121.189 43.2038 121.49 43.5234C121.793 43.843 122.18 44.0028 122.65 44.0028C122.931 44.0028 123.217 43.9309 123.508 43.7871C123.802 43.6433 124.048 43.4228 124.246 43.1255C124.448 42.8283 124.548 42.4496 124.548 41.9893ZM128.883 40.5703V45H127.752V37.6364H128.845V38.7869H128.941C129.113 38.413 129.375 38.1126 129.727 37.8857C130.079 37.6555 130.532 37.5405 131.088 37.5405C131.587 37.5405 132.023 37.6428 132.397 37.8473C132.771 38.0487 133.062 38.3555 133.27 38.7678C133.477 39.1768 133.581 39.6946 133.581 40.321V45H132.45V40.3977C132.45 39.8192 132.3 39.3686 131.999 39.0458C131.699 38.7198 131.287 38.5568 130.762 38.5568C130.401 38.5568 130.079 38.6351 129.794 38.7917C129.513 38.9483 129.291 39.1768 129.128 39.4773C128.965 39.7777 128.883 40.142 128.883 40.5703ZM142.418 47.9148C141.871 47.9148 141.402 47.8445 141.009 47.7038C140.615 47.5664 140.288 47.3842 140.026 47.1573C139.767 46.9336 139.561 46.6939 139.407 46.4382L140.309 45.8054C140.411 45.9396 140.54 46.093 140.697 46.2656C140.854 46.4414 141.068 46.5932 141.339 46.7211C141.614 46.8521 141.974 46.9176 142.418 46.9176C143.012 46.9176 143.503 46.7738 143.89 46.4862C144.276 46.1985 144.47 45.7479 144.47 45.1342V43.6385H144.374C144.291 43.7727 144.173 43.9389 144.019 44.1371C143.869 44.332 143.652 44.5062 143.367 44.6596C143.086 44.8098 142.706 44.8849 142.226 44.8849C141.632 44.8849 141.098 44.7443 140.625 44.4631C140.155 44.1818 139.783 43.7727 139.508 43.2358C139.236 42.6989 139.1 42.0469 139.1 41.2798C139.1 40.5256 139.233 39.8688 139.498 39.3095C139.764 38.747 140.133 38.3123 140.606 38.0055C141.079 37.6955 141.625 37.5405 142.245 37.5405C142.725 37.5405 143.105 37.6204 143.386 37.7802C143.671 37.9368 143.888 38.1158 144.038 38.3171C144.192 38.5153 144.31 38.6783 144.393 38.8061H144.508V37.6364H145.601V45.2109C145.601 45.8438 145.457 46.3583 145.17 46.7546C144.885 47.1541 144.502 47.4466 144.019 47.6319C143.54 47.8205 143.006 47.9148 142.418 47.9148ZM142.38 43.8686C142.833 43.8686 143.217 43.7647 143.53 43.557C143.843 43.3493 144.081 43.0504 144.244 42.6605C144.407 42.2706 144.489 41.804 144.489 41.2607C144.489 40.7301 144.409 40.2619 144.249 39.856C144.089 39.4501 143.853 39.1321 143.54 38.902C143.227 38.6719 142.84 38.5568 142.38 38.5568C141.9 38.5568 141.501 38.6783 141.181 38.9212C140.865 39.1641 140.627 39.4901 140.467 39.8991C140.31 40.3082 140.232 40.7621 140.232 41.2607C140.232 41.772 140.312 42.2243 140.472 42.6174C140.635 43.0073 140.874 43.3141 141.191 43.5378C141.51 43.7583 141.907 43.8686 142.38 43.8686ZM149.839 45.1726C149.373 45.1726 148.949 45.0847 148.569 44.9089C148.188 44.7299 147.886 44.4727 147.663 44.1371C147.439 43.7983 147.327 43.3892 147.327 42.9098C147.327 42.4879 147.41 42.146 147.576 41.8839C147.743 41.6186 147.965 41.4109 148.243 41.2607C148.521 41.1104 148.828 40.9986 149.163 40.9251C149.502 40.8484 149.842 40.7876 150.184 40.7429C150.632 40.6854 150.994 40.6422 151.273 40.6135C151.554 40.5815 151.758 40.5288 151.886 40.4553C152.017 40.3817 152.083 40.2539 152.083 40.0717V40.0334C152.083 39.5604 151.953 39.1928 151.694 38.9308C151.439 38.6687 151.05 38.5376 150.529 38.5376C149.989 38.5376 149.566 38.6559 149.259 38.8924C148.952 39.1289 148.737 39.3814 148.612 39.6499L147.538 39.2663C147.73 38.8189 147.985 38.4705 148.305 38.2212C148.628 37.9687 148.979 37.793 149.36 37.6939C149.743 37.5916 150.12 37.5405 150.491 37.5405C150.728 37.5405 150.999 37.5692 151.306 37.6268C151.616 37.6811 151.915 37.7946 152.203 37.9672C152.493 38.1397 152.735 38.4002 152.926 38.7486C153.118 39.0969 153.214 39.5636 153.214 40.1484V45H152.083V44.0028H152.025C151.949 44.1626 151.821 44.3336 151.642 44.5158C151.463 44.698 151.225 44.853 150.927 44.9808C150.63 45.1087 150.267 45.1726 149.839 45.1726ZM150.012 44.1562C150.459 44.1562 150.836 44.0684 151.143 43.8926C151.453 43.7168 151.686 43.4899 151.843 43.2118C152.003 42.9338 152.083 42.6413 152.083 42.3345V41.299C152.035 41.3565 151.929 41.4093 151.766 41.4572C151.607 41.502 151.421 41.5419 151.21 41.5771C151.002 41.609 150.8 41.6378 150.601 41.6634C150.406 41.6857 150.248 41.7049 150.127 41.7209C149.833 41.7592 149.558 41.8216 149.302 41.9078C149.05 41.9909 148.845 42.1172 148.689 42.2866C148.535 42.4528 148.458 42.6797 148.458 42.9673C148.458 43.3604 148.604 43.6577 148.895 43.859C149.189 44.0572 149.561 44.1562 150.012 44.1562ZM155.279 45V37.6364H156.411V45H155.279ZM155.854 36.4091C155.634 36.4091 155.444 36.334 155.284 36.1838C155.127 36.0336 155.049 35.853 155.049 35.642C155.049 35.4311 155.127 35.2505 155.284 35.1003C155.444 34.9501 155.634 34.875 155.854 34.875C156.075 34.875 156.264 34.9501 156.42 35.1003C156.58 35.2505 156.66 35.4311 156.66 35.642C156.66 35.853 156.58 36.0336 156.42 36.1838C156.264 36.334 156.075 36.4091 155.854 36.4091ZM159.614 40.5703V45H158.483V37.6364H159.576V38.7869H159.672C159.844 38.413 160.106 38.1126 160.458 37.8857C160.809 37.6555 161.263 37.5405 161.819 37.5405C162.318 37.5405 162.754 37.6428 163.128 37.8473C163.502 38.0487 163.793 38.3555 164.001 38.7678C164.208 39.1768 164.312 39.6946 164.312 40.321V45H163.181V40.3977C163.181 39.8192 163.031 39.3686 162.73 39.0458C162.43 38.7198 162.018 38.5568 161.493 38.5568C161.132 38.5568 160.809 38.6351 160.525 38.7917C160.244 38.9483 160.022 39.1768 159.859 39.4773C159.696 39.7777 159.614 40.142 159.614 40.5703ZM12.8161 67.1534C12.2024 67.1534 11.6607 66.9984 11.1909 66.6884C10.7211 66.3752 10.3535 65.9341 10.0882 65.3652C9.82298 64.7931 9.69034 64.1172 9.69034 63.3374C9.69034 62.5639 9.82298 61.8928 10.0882 61.3239C10.3535 60.755 10.7227 60.3155 11.1957 60.0055C11.6687 59.6955 12.2152 59.5405 12.8352 59.5405C13.3146 59.5405 13.6934 59.6204 13.9714 59.7802C14.2527 59.9368 14.4668 60.1158 14.6138 60.3171C14.764 60.5153 14.8807 60.6783 14.9638 60.8061H15.0597V57.1818H16.1911V67H15.098V65.8686H14.9638C14.8807 66.0028 14.7624 66.1722 14.609 66.3768C14.4556 66.5781 14.2367 66.7587 13.9522 66.9185C13.6678 67.0751 13.2891 67.1534 12.8161 67.1534ZM12.9695 66.1371C13.4233 66.1371 13.8068 66.0188 14.12 65.7823C14.4332 65.5426 14.6713 65.2118 14.8343 64.79C14.9973 64.3649 15.0788 63.8743 15.0788 63.3182C15.0788 62.7685 14.9989 62.2875 14.8391 61.8752C14.6793 61.4597 14.4428 61.1369 14.1296 60.9068C13.8164 60.6735 13.4297 60.5568 12.9695 60.5568C12.4901 60.5568 12.0906 60.6799 11.771 60.926C11.4545 61.1689 11.2164 61.4996 11.0566 61.9183C10.9 62.3338 10.8217 62.8004 10.8217 63.3182C10.8217 63.8423 10.9016 64.3185 11.0614 64.7468C11.2244 65.1719 11.4641 65.5107 11.7805 65.7631C12.1001 66.0124 12.4964 66.1371 12.9695 66.1371ZM21.5076 67.1534C20.7981 67.1534 20.1861 66.9968 19.6715 66.6836C19.1602 66.3672 18.7654 65.9261 18.4874 65.3604C18.2125 64.7915 18.0751 64.13 18.0751 63.3757C18.0751 62.6214 18.2125 61.9567 18.4874 61.3814C18.7654 60.8029 19.1522 60.3523 19.6475 60.0295C20.1461 59.7035 20.7278 59.5405 21.3926 59.5405C21.7761 59.5405 22.1548 59.6044 22.5288 59.7322C22.9027 59.8601 23.2431 60.0678 23.5499 60.3555C23.8567 60.6399 24.1012 61.017 24.2834 61.4869C24.4656 61.9567 24.5566 62.5352 24.5566 63.2223V63.7017H18.8805V62.7237H23.4061C23.4061 62.3082 23.323 61.9375 23.1568 61.6115C22.9938 61.2855 22.7605 61.0282 22.4569 60.8397C22.1564 60.6511 21.8017 60.5568 21.3926 60.5568C20.9419 60.5568 20.552 60.6687 20.2228 60.8924C19.8968 61.1129 19.646 61.4006 19.4702 61.7553C19.2944 62.1101 19.2065 62.4904 19.2065 62.8963V63.5483C19.2065 64.1044 19.3024 64.5758 19.4941 64.9625C19.6891 65.3461 19.9592 65.6385 20.3043 65.8398C20.6495 66.038 21.0506 66.1371 21.5076 66.1371C21.8049 66.1371 22.0733 66.0955 22.313 66.0124C22.5559 65.9261 22.7653 65.7983 22.9411 65.6289C23.1168 65.4563 23.2527 65.2422 23.3485 64.9865L24.4416 65.2933C24.3265 65.6641 24.1332 65.9901 23.8615 66.2713C23.5898 66.5494 23.2543 66.7667 22.8548 66.9233C22.4553 67.0767 22.0062 67.1534 21.5076 67.1534Z" fill="black"/>
<path d="M74.0355 121.761V111.636H75.1286V112.806H75.2628C75.3459 112.678 75.4609 112.515 75.608 112.317C75.7582 112.116 75.9723 111.937 76.2504 111.78C76.5316 111.62 76.9119 111.54 77.3913 111.54C78.0114 111.54 78.5579 111.695 79.0309 112.006C79.5039 112.316 79.873 112.755 80.1383 113.324C80.4036 113.893 80.5362 114.564 80.5362 115.337C80.5362 116.117 80.4036 116.793 80.1383 117.365C79.873 117.934 79.5055 118.375 79.0357 118.688C78.5659 118.998 78.0241 119.153 77.4105 119.153C76.9375 119.153 76.5588 119.075 76.2743 118.919C75.9899 118.759 75.771 118.578 75.6175 118.377C75.4641 118.172 75.3459 118.003 75.2628 117.869H75.1669V121.761H74.0355ZM75.1477 115.318C75.1477 115.874 75.2292 116.365 75.3922 116.79C75.5552 117.212 75.7933 117.543 76.1065 117.782C76.4197 118.019 76.8033 118.137 77.2571 118.137C77.7301 118.137 78.1248 118.012 78.4412 117.763C78.7608 117.511 79.0005 117.172 79.1603 116.747C79.3233 116.319 79.4048 115.842 79.4048 115.318C79.4048 114.8 79.3249 114.334 79.1651 113.918C79.0085 113.5 78.7704 113.169 78.4508 112.926C78.1344 112.68 77.7365 112.557 77.2571 112.557C76.7969 112.557 76.4102 112.673 76.0969 112.907C75.7837 113.137 75.5472 113.46 75.3874 113.875C75.2276 114.287 75.1477 114.768 75.1477 115.318ZM84.429 119.173C83.9624 119.173 83.5389 119.085 83.1586 118.909C82.7782 118.73 82.4762 118.473 82.2525 118.137C82.0288 117.798 81.9169 117.389 81.9169 116.91C81.9169 116.488 82 116.146 82.1662 115.884C82.3324 115.619 82.5545 115.411 82.8326 115.261C83.1106 115.11 83.4174 114.999 83.753 114.925C84.0918 114.848 84.4322 114.788 84.7741 114.743C85.2216 114.685 85.5843 114.642 85.8624 114.613C86.1436 114.581 86.3482 114.529 86.476 114.455C86.6071 114.382 86.6726 114.254 86.6726 114.072V114.033C86.6726 113.56 86.5431 113.193 86.2843 112.931C86.0286 112.669 85.6403 112.538 85.1193 112.538C84.5792 112.538 84.1557 112.656 83.8489 112.892C83.5421 113.129 83.3263 113.381 83.2017 113.65L82.1278 113.266C82.3196 112.819 82.5753 112.471 82.8949 112.221C83.2177 111.969 83.5692 111.793 83.9496 111.694C84.3331 111.592 84.7102 111.54 85.081 111.54C85.3175 111.54 85.5891 111.569 85.896 111.627C86.206 111.681 86.5048 111.795 86.7924 111.967C87.0833 112.14 87.3246 112.4 87.5163 112.749C87.7081 113.097 87.804 113.564 87.804 114.148V119H86.6726V118.003H86.6151C86.5384 118.163 86.4105 118.334 86.2315 118.516C86.0526 118.698 85.8145 118.853 85.5172 118.981C85.22 119.109 84.8572 119.173 84.429 119.173ZM84.6016 118.156C85.049 118.156 85.4261 118.068 85.733 117.893C86.043 117.717 86.2763 117.49 86.4329 117.212C86.5927 116.934 86.6726 116.641 86.6726 116.335V115.299C86.6246 115.357 86.5192 115.409 86.3562 115.457C86.1964 115.502 86.011 115.542 85.8001 115.577C85.5923 115.609 85.3894 115.638 85.1912 115.663C84.9963 115.686 84.8381 115.705 84.7166 115.721C84.4226 115.759 84.1477 115.822 83.892 115.908C83.6396 115.991 83.435 116.117 83.2784 116.287C83.125 116.453 83.0483 116.68 83.0483 116.967C83.0483 117.36 83.1937 117.658 83.4846 117.859C83.7786 118.057 84.1509 118.156 84.6016 118.156ZM89.869 119V111.636H90.962V112.749H91.0388C91.173 112.384 91.4159 112.089 91.7674 111.862C92.119 111.635 92.5153 111.521 92.9564 111.521C93.0395 111.521 93.1433 111.523 93.268 111.526C93.3926 111.529 93.4869 111.534 93.5508 111.54V112.691C93.5125 112.681 93.4246 112.667 93.2872 112.648C93.1529 112.626 93.0107 112.614 92.8605 112.614C92.5025 112.614 92.1829 112.689 91.9017 112.84C91.6236 112.987 91.4031 113.191 91.2401 113.453C91.0803 113.712 91.0004 114.008 91.0004 114.34V119H89.869ZM100.856 119.173C100.389 119.173 99.9656 119.085 99.5853 118.909C99.205 118.73 98.903 118.473 98.6792 118.137C98.4555 117.798 98.3437 117.389 98.3437 116.91C98.3437 116.488 98.4268 116.146 98.593 115.884C98.7591 115.619 98.9813 115.411 99.2593 115.261C99.5374 115.11 99.8442 114.999 100.18 114.925C100.519 114.848 100.859 114.788 101.201 114.743C101.648 114.685 102.011 114.642 102.289 114.613C102.57 114.581 102.775 114.529 102.903 114.455C103.034 114.382 103.099 114.254 103.099 114.072V114.033C103.099 113.56 102.97 113.193 102.711 112.931C102.455 112.669 102.067 112.538 101.546 112.538C101.006 112.538 100.582 112.656 100.276 112.892C99.9688 113.129 99.7531 113.381 99.6285 113.65L98.5546 113.266C98.7464 112.819 99.002 112.471 99.3216 112.221C99.6444 111.969 99.996 111.793 100.376 111.694C100.76 111.592 101.137 111.54 101.508 111.54C101.744 111.54 102.016 111.569 102.323 111.627C102.633 111.681 102.932 111.795 103.219 111.967C103.51 112.14 103.751 112.4 103.943 112.749C104.135 113.097 104.231 113.564 104.231 114.148V119H103.099V118.003H103.042C102.965 118.163 102.837 118.334 102.658 118.516C102.479 118.698 102.241 118.853 101.944 118.981C101.647 119.109 101.284 119.173 100.856 119.173ZM101.028 118.156C101.476 118.156 101.853 118.068 102.16 117.893C102.47 117.717 102.703 117.49 102.86 117.212C103.019 116.934 103.099 116.641 103.099 116.335V115.299C103.051 115.357 102.946 115.409 102.783 115.457C102.623 115.502 102.438 115.542 102.227 115.577C102.019 115.609 101.816 115.638 101.618 115.663C101.423 115.686 101.265 115.705 101.143 115.721C100.849 115.759 100.574 115.822 100.319 115.908C100.066 115.991 99.8618 116.117 99.7052 116.287C99.5518 116.453 99.4751 116.68 99.4751 116.967C99.4751 117.36 99.6205 117.658 99.9113 117.859C100.205 118.057 100.578 118.156 101.028 118.156ZM107.427 114.57V119H106.296V111.636H107.389V112.787H107.485C107.657 112.413 107.919 112.113 108.271 111.886C108.622 111.656 109.076 111.54 109.632 111.54C110.131 111.54 110.567 111.643 110.941 111.847C111.315 112.049 111.606 112.355 111.814 112.768C112.021 113.177 112.125 113.695 112.125 114.321V119H110.994V114.398C110.994 113.819 110.844 113.369 110.543 113.046C110.243 112.72 109.831 112.557 109.306 112.557C108.945 112.557 108.622 112.635 108.338 112.792C108.057 112.948 107.835 113.177 107.672 113.477C107.509 113.778 107.427 114.142 107.427 114.57Z" fill="black"/>
<path d="M55.5057 95V93.7216L60.3068 88.4659C60.8703 87.8504 61.3343 87.3153 61.6989 86.8608C62.0634 86.4015 62.3333 85.9706 62.5085 85.5682C62.6884 85.161 62.7784 84.7348 62.7784 84.2898C62.7784 83.7784 62.6553 83.3357 62.4091 82.9616C62.1676 82.5876 61.8362 82.2988 61.4148 82.0952C60.9934 81.8916 60.5199 81.7898 59.9943 81.7898C59.4356 81.7898 58.9479 81.9058 58.5312 82.1378C58.1193 82.3651 57.7997 82.6847 57.5724 83.0966C57.3499 83.5085 57.2386 83.9915 57.2386 84.5455H55.5625C55.5625 83.6932 55.759 82.9451 56.152 82.3011C56.545 81.6572 57.08 81.1553 57.7571 80.7955C58.4389 80.4356 59.2036 80.2557 60.0511 80.2557C60.9034 80.2557 61.6586 80.4356 62.3168 80.7955C62.9749 81.1553 63.491 81.6406 63.8651 82.2514C64.2391 82.8622 64.4261 83.5417 64.4261 84.2898C64.4261 84.8248 64.3291 85.348 64.1349 85.8594C63.9455 86.366 63.6141 86.9318 63.1406 87.5568C62.6719 88.1771 62.0208 88.9347 61.1875 89.8295L57.9205 93.3239V93.4375H64.6818V95H55.5057ZM72.5298 95.1989C71.5923 95.1989 70.7566 95.0379 70.0227 94.7159C69.2936 94.3939 68.7135 93.9465 68.2827 93.3736C67.8565 92.7959 67.6245 92.1259 67.5866 91.3636H69.3764C69.4143 91.8324 69.5753 92.2372 69.8594 92.5781C70.1435 92.9143 70.5152 93.1747 70.9744 93.3594C71.4337 93.544 71.9427 93.6364 72.5014 93.6364C73.1264 93.6364 73.6804 93.5275 74.1634 93.3097C74.6463 93.0919 75.0251 92.7888 75.2997 92.4006C75.5743 92.0123 75.7116 91.5625 75.7116 91.0511C75.7116 90.5161 75.5791 90.045 75.3139 89.6378C75.0488 89.2259 74.6605 88.9039 74.1491 88.6719C73.6378 88.4399 73.0128 88.3239 72.2741 88.3239H71.1094V86.7614H72.2741C72.8518 86.7614 73.3584 86.6572 73.794 86.4489C74.2344 86.2405 74.5777 85.947 74.8239 85.5682C75.0748 85.1894 75.2003 84.7443 75.2003 84.233C75.2003 83.7405 75.0914 83.312 74.8736 82.9474C74.6558 82.5829 74.348 82.2988 73.9503 82.0952C73.5573 81.8916 73.0933 81.7898 72.5582 81.7898C72.0563 81.7898 71.5829 81.8821 71.1378 82.0668C70.6974 82.2467 70.3376 82.5095 70.0582 82.8551C69.7789 83.196 69.6274 83.608 69.6037 84.0909H67.8991C67.9276 83.3286 68.1572 82.661 68.5881 82.0881C69.0189 81.5104 69.5824 81.0606 70.2784 80.7386C70.9792 80.4167 71.7486 80.2557 72.5866 80.2557C73.4863 80.2557 74.258 80.438 74.902 80.8026C75.5459 81.1624 76.0407 81.6383 76.3864 82.2301C76.732 82.822 76.9048 83.4612 76.9048 84.1477C76.9048 84.9669 76.6894 85.6652 76.2585 86.2429C75.8324 86.8205 75.2524 87.2206 74.5185 87.4432V87.5568C75.437 87.7083 76.1544 88.099 76.6705 88.7287C77.1866 89.3537 77.4446 90.1278 77.4446 91.0511C77.4446 91.8419 77.2292 92.5521 76.7983 93.1818C76.3722 93.8068 75.7898 94.2992 75.0511 94.6591C74.3125 95.0189 73.4721 95.1989 72.5298 95.1989ZM85.2642 95.1989C84.3267 95.1989 83.491 95.0379 82.7571 94.7159C82.0279 94.3939 81.4479 93.9465 81.017 93.3736C80.5909 92.7959 80.3589 92.1259 80.321 91.3636H82.1108C82.1487 91.8324 82.3097 92.2372 82.5938 92.5781C82.8778 92.9143 83.2495 93.1747 83.7088 93.3594C84.1681 93.544 84.6771 93.6364 85.2358 93.6364C85.8608 93.6364 86.4148 93.5275 86.8977 93.3097C87.3807 93.0919 87.7595 92.7888 88.0341 92.4006C88.3087 92.0123 88.446 91.5625 88.446 91.0511C88.446 90.5161 88.3134 90.045 88.0483 89.6378C87.7831 89.2259 87.3949 88.9039 86.8835 88.6719C86.3722 88.4399 85.7472 88.3239 85.0085 88.3239H83.8438V86.7614H85.0085C85.5862 86.7614 86.0928 86.6572 86.5284 86.4489C86.9688 86.2405 87.312 85.947 87.5582 85.5682C87.8092 85.1894 87.9347 84.7443 87.9347 84.233C87.9347 83.7405 87.8258 83.312 87.608 82.9474C87.3902 82.5829 87.0824 82.2988 86.6847 82.0952C86.2917 81.8916 85.8277 81.7898 85.2926 81.7898C84.7907 81.7898 84.3172 81.8821 83.8722 82.0668C83.4318 82.2467 83.072 82.5095 82.7926 82.8551C82.5133 83.196 82.3617 83.608 82.3381 84.0909H80.6335C80.6619 83.3286 80.8916 82.661 81.3224 82.0881C81.7533 81.5104 82.3168 81.0606 83.0128 80.7386C83.7135 80.4167 84.483 80.2557 85.321 80.2557C86.2206 80.2557 86.9924 80.438 87.6364 80.8026C88.2803 81.1624 88.7751 81.6383 89.1207 82.2301C89.4664 82.822 89.6392 83.4612 89.6392 84.1477C89.6392 84.9669 89.4238 85.6652 88.9929 86.2429C88.5668 86.8205 87.9867 87.2206 87.2528 87.4432V87.5568C88.1714 87.7083 88.8887 88.099 89.4048 88.7287C89.9209 89.3537 90.179 90.1278 90.179 91.0511C90.179 91.8419 89.9635 92.5521 89.5327 93.1818C89.1065 93.8068 88.5241 94.2992 87.7855 94.6591C87.0469 95.0189 86.2064 95.1989 85.2642 95.1989ZM93.8846 95.1136C93.5342 95.1136 93.2335 94.9882 92.9826 94.7372C92.7317 94.4863 92.6062 94.1856 92.6062 93.8352C92.6062 93.4848 92.7317 93.1842 92.9826 92.9332C93.2335 92.6823 93.5342 92.5568 93.8846 92.5568C94.235 92.5568 94.5356 92.6823 94.7866 92.9332C95.0375 93.1842 95.163 93.4848 95.163 93.8352C95.163 94.0672 95.1038 94.2803 94.9854 94.4744C94.8718 94.6686 94.7179 94.8248 94.5238 94.9432C94.3344 95.0568 94.1213 95.1136 93.8846 95.1136ZM98.304 95L104.81 82.1307V82.017H97.3097V80.4545H106.628V82.1023L100.151 95H98.304ZM113.792 95.1989C113.196 95.1894 112.599 95.0758 112.002 94.858C111.406 94.6402 110.861 94.2732 110.369 93.7571C109.877 93.2363 109.481 92.5331 109.183 91.6477C108.885 90.7576 108.735 89.6402 108.735 88.2955C108.735 87.0076 108.856 85.8665 109.098 84.8722C109.339 83.8731 109.69 83.0327 110.149 82.3509C110.608 81.6643 111.162 81.1435 111.811 80.7884C112.464 80.4332 113.2 80.2557 114.02 80.2557C114.834 80.2557 115.558 80.419 116.193 80.7457C116.832 81.0677 117.353 81.5175 117.755 82.0952C118.158 82.6728 118.418 83.3381 118.537 84.0909H116.804C116.643 83.4375 116.33 82.8954 115.866 82.4645C115.402 82.0336 114.787 81.8182 114.02 81.8182C112.893 81.8182 112.005 82.3082 111.356 83.2884C110.712 84.2685 110.388 85.6439 110.383 87.4148H110.497C110.762 87.0123 111.077 86.669 111.441 86.3849C111.811 86.0961 112.218 85.8736 112.663 85.7173C113.108 85.5611 113.579 85.483 114.076 85.483C114.91 85.483 115.672 85.6913 116.363 86.108C117.055 86.5199 117.609 87.0904 118.025 87.8196C118.442 88.544 118.65 89.375 118.65 90.3125C118.65 91.2121 118.449 92.036 118.047 92.7841C117.644 93.5275 117.078 94.1193 116.349 94.5597C115.625 94.9953 114.772 95.2083 113.792 95.1989ZM113.792 93.6364C114.389 93.6364 114.924 93.4872 115.397 93.1889C115.876 92.8906 116.252 92.4905 116.527 91.9886C116.806 91.4867 116.946 90.928 116.946 90.3125C116.946 89.7112 116.811 89.1643 116.541 88.6719C116.276 88.1747 115.909 87.7794 115.44 87.4858C114.976 87.1922 114.446 87.0455 113.849 87.0455C113.399 87.0455 112.98 87.1354 112.592 87.3153C112.204 87.4905 111.863 87.732 111.569 88.0398C111.28 88.3475 111.053 88.7003 110.887 89.098C110.722 89.491 110.639 89.9053 110.639 90.3409C110.639 90.9186 110.774 91.4583 111.044 91.9602C111.318 92.4621 111.692 92.867 112.166 93.1747C112.644 93.4825 113.186 93.6364 113.792 93.6364ZM130.364 85.5966L129.71 87.017H120.449L120.96 85.5966H130.364ZM129.142 88.4375L128.489 89.858H120.449L120.96 88.4375H129.142ZM132.04 81.7614L131.358 83.2386C131.055 82.964 130.735 82.7273 130.399 82.5284C130.063 82.3295 129.71 82.1757 129.341 82.0668C128.972 81.9579 128.583 81.9034 128.176 81.9034C127.371 81.9034 126.647 82.1259 126.003 82.571C125.359 83.0161 124.85 83.6719 124.476 84.5384C124.102 85.4048 123.915 86.4678 123.915 87.7273C123.915 88.9867 124.102 90.0497 124.476 90.9162C124.85 91.7827 125.359 92.4384 126.003 92.8835C126.647 93.3286 127.371 93.5511 128.176 93.5511C128.593 93.5511 128.986 93.4967 129.355 93.3878C129.729 93.2789 130.077 93.1297 130.399 92.9403C130.726 92.7509 131.027 92.5379 131.301 92.3011L132.011 93.7784C131.514 94.2472 130.932 94.6023 130.264 94.8438C129.597 95.0805 128.901 95.1989 128.176 95.1989C127.011 95.1989 125.979 94.8958 125.08 94.2898C124.185 93.6837 123.482 92.822 122.97 91.7045C122.464 90.5871 122.21 89.2614 122.21 87.7273C122.21 86.1932 122.464 84.8674 122.97 83.75C123.482 82.6326 124.185 81.7708 125.08 81.1648C125.979 80.5587 127.011 80.2557 128.176 80.2557C128.929 80.2557 129.632 80.3859 130.286 80.6463C130.944 80.9067 131.528 81.2784 132.04 81.7614Z" fill="black"/>
</svg>
