<svg width="26" height="33" fill="none" xmlns="http://www.w3.org/2000/svg"><path fill-rule="evenodd" clip-rule="evenodd" d="M1.484.227A1.5 1.5 0 000 1.743l.303 29.133A1.5 1.5 0 001.82 32.36l21.8-.227a1.5 1.5 0 001.485-1.516l-.303-29.133A1.5 1.5 0 0023.285 0l-21.8.227zm2.752 8.29c1.522-.51 3.87-1.295 4.248-.917.4.4-.5 1.5-1 2 .301-.138.64-.299 1.005-.471 2.259-1.068 5.448-2.576 5.995-2.029.4.4-.166 1.834-.5 2.5 1.834-1 5.7-2.9 6.5-2.5.8.4 0 2.5-.5 3.5l-.5-.5c.5-.5.695-1.805.5-2-.25-.25-2.125.625-4 1.5-1.874.876-3.75 1.75-4 1.5s.25-.874.75-1.5c.5-.625 1-1.25.75-1.5-.141-.141-1.458.413-2.984 1.056-2.275.96-5.016 2.114-5.016 1.444 0-.25.375-.625.75-1s.75-.75.75-1c0-.4-2 .5-3 1v-1l.252-.083zm1.248 7.16l-.78-.21c-.429.43-1.114 1.553-.429 2.588.497.75 1.856-.093 3.078-.85.888-.551 1.703-1.057 2.064-.876.367.185.498.608.63 1.03.174.564.349 1.128 1.083 1.128.417 0 1.542-.918 2.638-1.811 1.158-.945 2.284-1.863 2.504-1.641.169.17-.063.61-.353 1.16-.443.84-1.023 1.94-.504 2.723.685 1.036 3.998-1.294 5.57-2.589l-.429-.863c-.37.233-.898.608-1.453 1.002-1.159.822-2.434 1.727-2.619 1.587-.202-.153.006-.654.258-1.262.37-.893.837-2.018.242-2.617-.715-.72-2.586.74-4.035 1.869-.88.686-1.605 1.251-1.819 1.131-.147-.082-.26-.297-.393-.554-.207-.397-.467-.894-.987-1.156-.857-.431-3.837 1.279-4.266 1.71-.428.432-.719-1.182 0-1.5zm-.5 7.163c.865-.532 2.309-1.08 3-.76.525.241.255.924.057 1.425-.129.326-.227.574-.057.574.13 0 .512-.208 1.006-.478 1.144-.626 2.89-1.58 3.495-1.022.556.515-.198 1.61-.69 2.326-.272.395-.464.674-.31.674.155 0 .692-.282 1.38-.643 1.222-.643 2.92-1.535 3.795-1.535.292 0 .573.045.852.09.548.088 1.083.175 1.657-.09.42-.194.894-.591 1.265-.903.24-.201.437-.367.55-.419v1.16c-.288.4-1.124 1.2-2.162 1.2H16.66c-.535 0-1.586.475-2.697.979-1.58.716-3.281 1.487-3.79 1.018-.506-.468.026-1.21.467-1.825.312-.435.578-.806.399-.972-.18-.165-.73.149-1.374.517-.912.521-2.012 1.15-2.518.682-.507-.468-.272-.8-.077-1.073.138-.194.256-.36.077-.525-.346-.32-1.298.133-1.73.4l-.433-.8z" fill="#D9D9D9"/></svg>