<svg width="56" height="69" fill="none" xmlns="http://www.w3.org/2000/svg"><rect width="43.457" height="44.593" rx="1.5" transform="rotate(-.561 1269.468 -646.901) skewX(.068)" fill="#181818"/><path fill-rule="evenodd" clip-rule="evenodd" d="M2.328 1.505A1.498 1.498 0 00.845 3.02l.7 63.56c.01.828.689 1.493 1.517 1.485l51.399-.506a1.498 1.498 0 001.483-1.514l-.7-63.56A1.502 1.502 0 0053.726 1l-51.399.505zm7.825 17.154c3.339-1.055 8.49-2.682 9.32-1.898.877.828-1.097 3.107-2.194 4.143.66-.288 1.405-.62 2.203-.977 4.955-2.212 11.951-5.335 13.151-4.202.878.829-.365 3.798-1.096 5.179 4.02-2.072 12.502-6.007 14.257-5.179 1.755.829 0 5.179-1.097 7.25L43.6 21.939c1.097-1.035 1.524-3.74 1.097-4.142-.548-.518-4.66 1.294-8.774 3.107-4.112 1.812-8.225 3.625-8.773 3.107-.549-.518.548-1.813 1.645-3.107 1.097-1.295 2.193-2.59 1.645-3.107-.311-.294-3.2.855-6.546 2.186-4.99 1.987-11.001 4.378-11.001 2.992 0-.518.822-1.295 1.645-2.071.822-.777 1.645-1.554 1.645-2.072 0-.828-4.387 1.036-6.58 2.072v-2.072l.548-.173h.002zm2.74 14.83l-1.713-.435c-.94.894-2.443 3.218-.94 5.363 1.089 1.553 4.07-.193 6.751-1.764 1.947-1.14 3.736-2.187 4.526-1.811.806.383 1.093 1.258 1.381 2.134.384 1.167.767 2.334 2.378 2.334.914 0 3.382-1.9 5.786-3.752 2.54-1.956 5.008-3.857 5.491-3.398.371.353-.137 1.264-.772 2.402-.973 1.743-2.244 4.02-1.107 5.642 1.503 2.145 8.77-2.681 12.217-5.362l-.94-1.788c-.811.482-1.97 1.259-3.186 2.074-2.543 1.704-5.34 3.579-5.745 3.289-.444-.318.011-1.355.565-2.614.813-1.85 1.837-4.18.532-5.421-1.569-1.492-5.674 1.53-8.851 3.87-1.932 1.422-3.52 2.592-3.99 2.344-.323-.171-.569-.616-.863-1.149-.454-.822-1.023-1.85-2.164-2.393-1.88-.894-8.417 2.648-9.357 3.542-.94.894-1.577-2.45 0-3.107zm-1.097 14.839c1.897-1.103 5.063-2.238 6.58-1.576 1.15.501.558 1.916.124 2.953-.282.675-.498 1.19-.124 1.19.286 0 1.123-.433 2.205-.991 2.51-1.296 6.34-3.273 7.666-2.117 1.221 1.066-.434 3.336-1.513 4.818-.597.819-1.019 1.397-.68 1.397.34 0 1.518-.585 3.026-1.333 2.681-1.331 6.406-3.18 8.326-3.18.64 0 1.257.094 1.868.187 1.202.183 2.376.362 3.634-.187.922-.402 1.96-1.224 2.776-1.87.526-.416.959-.759 1.207-.867v2.404c-.633.827-2.466 2.482-4.743 2.482h-4.742c-1.175 0-3.48.986-5.915 2.029-3.467 1.483-7.199 3.08-8.313 2.109-1.111-.97.056-2.507 1.023-3.78.683-.902 1.267-1.67.874-2.013-.393-.343-1.6.308-3.013 1.071-2 1.079-4.412 2.381-5.524 1.411-1.11-.969-.595-1.655-.167-2.222.302-.402.56-.745.167-1.087-.758-.663-2.845.275-3.794.827l-.948-1.655z" fill="#fff"/><rect x=".758" y=".743" width="52.901" height="65.063" rx=".75" transform="rotate(-.561 155.78 -82.636) skewX(.068)" stroke="#000" stroke-width="1.5"/></svg>