<svg width="95" height="103" fill="none" xmlns="http://www.w3.org/2000/svg"><path d="M6.101 74.056C2.745 82.764 8.44 88.347 11.707 90.05L36.769 55.7l-3.86 1.758C30.39 58.606 10.296 63.17 6.1 74.056z" stroke="#000" stroke-width="1.3" stroke-linejoin="round"/><path d="M29.592 89.404C22.275 95.36 13.995 92.95 11.269 90.5l25.956-35.395c-1.05 1.48-.204 1.978-.427 4.135-.278 2.697 1.939 22.716-7.206 30.164z" stroke="#000" stroke-width="1.3" stroke-linejoin="round"/><path d="M3.918 100.164l19.076-25.719-18.15 27.109-.926-1.39zm23.219-84.183l3.841-2.08 1.695 2.79-3.842 2.081-1.694-2.79z" stroke="#000" stroke-width="1.3"/><path d="M27.025 16.66l.887-.48 1.13 1.86-.887.48-1.13-1.86zm21.315-2.52c-.545 1.086-.296 1.85-.103 2.095l-7.092 3.842c-.971-.917-3.179-2.84-4.239-3.206-1.324-.457-1.922.176-3.886.93-1.57.604-3.245-1.93-3.886-3.273 3.593-2.276 11.341-6.934 13.594-7.363 2.817-.537 8.905 1.297 9.196 2.746.291 1.45-2.904 2.871-3.585 4.229zm16.277 13.437c-3.497-2.31-10.479-5.183-13.533-6.332L45.075 24.5c-.71.591-2.387 1.923-2.383 2.651.01 1.849 2.023 1.068 2.758 2.277.734 1.21-.724 1.072-.102 2.095.621 1.024 2.755.98 2.616 2.045-.139 1.064-.3 1.77.35 2.84.65 1.07 2.304.235 3.377 2.003 1.074 1.767-4.97 9.06-5.37 10.45-.399 1.39 3.344 11.54 5.796 16.333 2.452 4.791 8.367 12.59 11.85 14.228 3.481 1.637 23.542-9.414 26.747-13.19 3.205-3.776-1.326-9.296-5.063-15.988-3.737-6.691-13.47-14.525-13.865-15.176-.396-.651.399-1.39.306-2.082-.093-.692-3.103-2.523-7.475-5.41z" stroke="#000" stroke-width="1.3"/><path d="M62.536 33.526c-1.42.076-8.584 10.872-11.988 16.26.323 3.657 3.64 11.813 5.421 15.176 1.78 3.362 6.681 10.784 9.049 11.665 2.368.88 21.224-9.89 22.263-12.059 1.039-2.17-4.076-11.021-8.071-16.522-3.996-5.5-14.9-14.616-16.674-14.52zm-21.94-12.843l2.995 4.93 8.225-4.455-2.994-4.93c-.66.027-2.816.536-4.196 1.283-1.379.747-3.097 2.337-4.03 3.172zm-7.641 4.447c-.547-2.732-.753-5.587-1.181-7.334l2.71-.602c-.197 1.363-.043 3.485.002 5.068.032 1.125-.704 8.54-1.24 8.09-.536-.452.122-3.16-.29-5.221z" stroke="#000" stroke-width="1.3"/></svg>