<svg width="55" height="68" fill="none" xmlns="http://www.w3.org/2000/svg"><path d="M34.34 52c-12.45 0-22.545-8.507-22.545-19S21.89 14 34.34 14M1.548 28.895h27.615M1.548 37.947h27.615M40.495 8.3c-.108-2.324 1.04-7.036 6.497-7.29 6.82-.317 9.094 6.656 4.547 11.41-3.638 3.804-4.547 7.079-4.547 8.241" stroke="#000" stroke-width="2"/><ellipse cx="46.991" cy="25.732" rx="1.299" ry="1.268" fill="#000"/><path d="M1.552 56.492c-.067-1.43.64-4.33 3.998-4.486 4.197-.195 5.596 4.096 2.798 7.022-2.239 2.34-2.798 4.356-2.798 5.071" stroke="#000" stroke-width="2"/><ellipse cx="5.55" cy="67.22" rx=".799" ry=".78" fill="#000"/></svg>