<svg width="257" height="652" viewBox="0 0 257 652" fill="none" xmlns="http://www.w3.org/2000/svg">
<path d="M101.162 0V39H135.162H171.162V0H142.662H101.162Z" fill="#494F69"/>
<path fill-rule="evenodd" clip-rule="evenodd" d="M16.1623 640.5C6.66233 570 -8.63767 402.3 6.16233 295.5C20.9623 188.7 68.6622 100.667 90.6621 70L98.1621 38.5H172.662L182.662 70C204.329 106.833 249.062 207.8 254.662 317C260.262 426.2 250.329 578.167 244.662 640.5C212.496 648.667 121.763 660.1 16.1623 640.5ZM182.662 277C177.829 253 171.062 205.6 182.662 208C197.162 211 210.162 258.5 211.662 277C213.162 295.5 213.162 338.5 201.662 338.5C192.462 338.5 185.162 297.5 182.662 277Z" fill="#DADEE9"/>
<path d="M145.662 177.5C165.662 181.89 166.829 202.834 167.662 219.5C167.662 253 178.262 327.2 196.662 356C215.062 384.8 243.662 380.333 255.162 374.5C255.162 374.5 257.096 417.925 256.412 445.75C255.729 473.575 251.662 517 251.662 517C246.495 544.167 222.062 600 165.662 606C95.1621 613.5 57.6617 548.5 52.162 525.5C44.2601 492.454 44.662 288.5 57.662 248C70.662 207.5 102.162 167.951 145.662 177.5Z" fill="#F1F1F4"/>
<path d="M25.6034 446V444.39C26.8634 444.343 27.8434 444.203 28.5434 443.97C29.2434 443.737 29.7334 443.247 30.0134 442.5C30.3401 441.753 30.5034 440.587 30.5034 439V406.45C30.5034 404.817 30.3167 403.65 29.9434 402.95C29.6167 402.203 28.9867 401.713 28.0534 401.48C27.1201 401.247 25.7201 401.107 23.8534 401.06V399.45H41.3534V401.06C40.0934 401.107 39.1134 401.247 38.4134 401.48C37.7134 401.713 37.2001 402.203 36.8734 402.95C36.5934 403.65 36.4534 404.817 36.4534 406.45V439C36.4534 441.007 36.8034 442.267 37.5034 442.78C38.2501 443.247 39.6734 443.48 41.7734 443.48H48.1434C50.4767 443.48 52.2734 443.107 53.5334 442.36C54.8401 441.567 55.7734 440.54 56.3334 439.28C56.9401 437.973 57.3134 436.573 57.4534 435.08H59.0634L58.5034 446H25.6034ZM77.8568 447.05C75.4768 447.05 73.1901 446.49 70.9968 445.37C68.8501 444.25 67.0768 442.57 65.6768 440.33C64.3234 438.043 63.6468 435.15 63.6468 431.65C63.6468 428.103 64.3468 425.023 65.7468 422.41C67.1468 419.797 69.0134 417.767 71.3468 416.32C73.6801 414.873 76.2234 414.15 78.9768 414.15C80.9834 414.15 82.8268 414.547 84.5068 415.34C86.2334 416.133 87.6101 417.347 88.6368 418.98C89.7101 420.613 90.2468 422.69 90.2468 425.21L69.2468 427.94C69.2468 428.173 69.2468 428.43 69.2468 428.71C69.2468 433.003 70.2268 436.363 72.1868 438.79C74.1468 441.217 76.7601 442.43 80.0268 442.43C81.8934 442.43 83.6201 442.057 85.2068 441.31C86.7934 440.517 88.2168 439.537 89.4768 438.37L90.5968 439.49C89.2901 441.73 87.5401 443.55 85.3468 444.95C83.2001 446.35 80.7034 447.05 77.8568 447.05ZM77.5068 416.74C75.0801 416.74 73.2134 417.603 71.9068 419.33C70.6001 421.057 69.7834 423.18 69.4568 425.7L83.9468 423.81C83.6668 421.803 83.0601 420.123 82.1268 418.77C81.1934 417.417 79.6534 416.74 77.5068 416.74ZM106.131 447.05C102.817 447.05 100.274 446.42 98.5007 445.16C96.7274 443.9 95.8407 442.29 95.8407 440.33C95.8407 439.63 95.9807 438.86 96.2607 438.02C96.5407 437.133 97.0307 436.27 97.7307 435.43H99.3407C99.3874 438.417 100.017 440.703 101.231 442.29C102.444 443.877 104.357 444.67 106.971 444.67C109.304 444.67 111.031 444.11 112.151 442.99C113.271 441.87 113.831 440.587 113.831 439.14C113.831 437.833 113.411 436.76 112.571 435.92C111.777 435.08 110.727 434.357 109.421 433.75C108.161 433.097 106.807 432.49 105.361 431.93C103.914 431.323 102.537 430.67 101.231 429.97C99.9707 429.223 98.9207 428.313 98.0807 427.24C97.2874 426.167 96.8907 424.813 96.8907 423.18C96.8907 420.613 97.9174 418.467 99.9707 416.74C102.024 415.013 104.894 414.15 108.581 414.15C110.027 414.15 111.497 414.29 112.991 414.57C114.484 414.803 115.884 415.293 117.191 416.04V424.09H115.581C115.254 421.337 114.367 419.4 112.921 418.28C111.474 417.113 109.771 416.53 107.811 416.53C105.897 416.53 104.451 416.95 103.471 417.79C102.491 418.63 102.001 419.727 102.001 421.08C102.001 422.34 102.397 423.39 103.191 424.23C104.031 425.023 105.081 425.723 106.341 426.33C107.647 426.937 109.001 427.543 110.401 428.15C111.847 428.71 113.201 429.387 114.461 430.18C115.767 430.927 116.817 431.883 117.611 433.05C118.451 434.17 118.871 435.593 118.871 437.32C118.871 440.447 117.657 442.85 115.231 444.53C112.804 446.21 109.771 447.05 106.131 447.05ZM134.91 447.05C131.597 447.05 129.053 446.42 127.28 445.16C125.507 443.9 124.62 442.29 124.62 440.33C124.62 439.63 124.76 438.86 125.04 438.02C125.32 437.133 125.81 436.27 126.51 435.43H128.12C128.167 438.417 128.797 440.703 130.01 442.29C131.223 443.877 133.137 444.67 135.75 444.67C138.083 444.67 139.81 444.11 140.93 442.99C142.05 441.87 142.61 440.587 142.61 439.14C142.61 437.833 142.19 436.76 141.35 435.92C140.557 435.08 139.507 434.357 138.2 433.75C136.94 433.097 135.587 432.49 134.14 431.93C132.693 431.323 131.317 430.67 130.01 429.97C128.75 429.223 127.7 428.313 126.86 427.24C126.067 426.167 125.67 424.813 125.67 423.18C125.67 420.613 126.697 418.467 128.75 416.74C130.803 415.013 133.673 414.15 137.36 414.15C138.807 414.15 140.277 414.29 141.77 414.57C143.263 414.803 144.663 415.293 145.97 416.04V424.09H144.36C144.033 421.337 143.147 419.4 141.7 418.28C140.253 417.113 138.55 416.53 136.59 416.53C134.677 416.53 133.23 416.95 132.25 417.79C131.27 418.63 130.78 419.727 130.78 421.08C130.78 422.34 131.177 423.39 131.97 424.23C132.81 425.023 133.86 425.723 135.12 426.33C136.427 426.937 137.78 427.543 139.18 428.15C140.627 428.71 141.98 429.387 143.24 430.18C144.547 430.927 145.597 431.883 146.39 433.05C147.23 434.17 147.65 435.593 147.65 437.32C147.65 440.447 146.437 442.85 144.01 444.53C141.583 446.21 138.55 447.05 134.91 447.05ZM163.619 438.93C163.619 440.563 163.783 441.753 164.109 442.5C164.436 443.247 165.019 443.737 165.859 443.97C166.746 444.203 167.983 444.343 169.569 444.39V446H153.819V444.39C154.846 444.343 155.663 444.203 156.269 443.97C156.876 443.737 157.319 443.247 157.599 442.5C157.879 441.753 158.019 440.563 158.019 438.93V423.11C158.019 421.803 157.809 420.963 157.389 420.59C157.016 420.17 156.503 419.96 155.849 419.96C155.243 419.96 154.589 420.077 153.889 420.31C153.236 420.497 152.629 420.707 152.069 420.94L151.369 419.33L163.479 413.8L163.899 414.22C163.853 414.593 163.783 415.597 163.689 417.23C163.643 418.863 163.619 420.8 163.619 423.04V438.93ZM160.819 407.22C159.793 407.22 158.929 406.87 158.229 406.17C157.529 405.47 157.179 404.607 157.179 403.58C157.179 402.6 157.529 401.76 158.229 401.06C158.929 400.36 159.793 400.01 160.819 400.01C161.846 400.01 162.709 400.36 163.409 401.06C164.109 401.76 164.459 402.6 164.459 403.58C164.459 404.607 164.109 405.47 163.409 406.17C162.709 406.87 161.846 407.22 160.819 407.22ZM185.122 446.7C184.795 445.487 184.469 444.437 184.142 443.55C183.862 442.663 183.465 441.637 182.952 440.47L175.112 422.06C174.459 420.473 173.852 419.33 173.292 418.63C172.779 417.93 172.219 417.463 171.612 417.23C171.052 416.997 170.352 416.857 169.512 416.81V415.2H184.282V416.81C182.695 416.857 181.575 417.02 180.922 417.3C180.269 417.533 179.989 418.023 180.082 418.77C180.175 419.47 180.525 420.567 181.132 422.06L187.922 438.16H188.062L194.712 422.06C195.645 419.867 195.809 418.467 195.202 417.86C194.642 417.253 193.125 416.903 190.652 416.81V415.2H203.042V416.81C202.342 416.857 201.712 417.02 201.152 417.3C200.592 417.533 200.055 418.023 199.542 418.77C199.075 419.47 198.515 420.567 197.862 422.06L190.092 440.47C189.579 441.73 189.205 442.78 188.972 443.62C188.739 444.46 188.482 445.487 188.202 446.7H185.122ZM220.113 447.05C217.733 447.05 215.446 446.49 213.253 445.37C211.106 444.25 209.333 442.57 207.933 440.33C206.579 438.043 205.903 435.15 205.903 431.65C205.903 428.103 206.603 425.023 208.003 422.41C209.403 419.797 211.269 417.767 213.603 416.32C215.936 414.873 218.479 414.15 221.233 414.15C223.239 414.15 225.083 414.547 226.763 415.34C228.489 416.133 229.866 417.347 230.893 418.98C231.966 420.613 232.503 422.69 232.503 425.21L211.503 427.94C211.503 428.173 211.503 428.43 211.503 428.71C211.503 433.003 212.483 436.363 214.443 438.79C216.403 441.217 219.016 442.43 222.283 442.43C224.149 442.43 225.876 442.057 227.463 441.31C229.049 440.517 230.473 439.537 231.733 438.37L232.853 439.49C231.546 441.73 229.796 443.55 227.603 444.95C225.456 446.35 222.959 447.05 220.113 447.05ZM219.763 416.74C217.336 416.74 215.469 417.603 214.163 419.33C212.856 421.057 212.039 423.18 211.713 425.7L226.203 423.81C225.923 421.803 225.316 420.123 224.383 418.77C223.449 417.417 221.909 416.74 219.763 416.74Z" fill="black"/>
</svg>
