<svg width="300" height="679" fill="none" xmlns="http://www.w3.org/2000/svg"><path d="M4.842 159.554c7.985-32.362 79.327-79.327 113.999-98.765h70.396c30.295 21.189 93.511 70.606 104.018 98.765 13.134 35.198-11.557 52.009-23.64 102.442-12.083 50.433 20.488 266.349 23.64 299.971 3.152 33.622-16.811 84.055-23.64 97.188-6.83 13.134-105.594 16.811-118.728 16.811-13.133 0-117.677-8.405-129.234-16.811-11.558-8.405-6.83-21.539-16.811-97.188-9.982-75.65 23.64-204.359 28.368-270.027 4.728-65.668-38.35-91.935-28.368-132.386zm112.949-127.66v28.894h69.345V31.894l-15.76-6.83V3h-36.774v22.064l-16.811 6.83z" fill="#fff" stroke="#81EC40" stroke-width="5"/></svg>