<svg width="302" height="674" viewBox="0 0 302 674" fill="none" xmlns="http://www.w3.org/2000/svg">
<path d="M9.84181 157.087C17.827 124.726 89.1687 77.7605 123.841 58.3228H194.237C224.532 79.5116 287.748 128.929 298.255 157.087C311.389 192.285 286.698 209.096 274.615 259.529C262.532 309.962 295.103 525.878 298.255 559.5C301.407 593.122 281.444 643.555 274.615 656.689C267.785 669.823 169.021 673.5 155.887 673.5C142.754 673.5 38.2104 665.094 26.6528 656.689C15.0952 648.284 19.8236 635.15 9.84181 559.5C-0.139935 483.851 33.4823 355.142 38.2104 289.474C42.9384 223.806 -0.139715 197.539 9.84181 157.087Z" fill="#6AAE75"/>
<path d="M67.1043 388.764C83.495 364.808 176.551 353.916 221.03 351.464C231.712 373.354 253.391 425.538 254.652 459.16C255.913 492.782 232.763 560.376 221.03 589.97C196.514 592.072 135.714 589.97 88.6434 564.754C29.8049 533.233 46.6159 418.708 67.1043 388.764Z" fill="#8DBF92"/>
<path d="M122.791 29.429V58.3229H192.136V29.429L176.376 22.5996V0.535156H139.602V22.5996L122.791 29.429Z" fill="#C9383F"/>
<path d="M40.4345 441V439.39C41.6945 439.343 42.6745 439.203 43.3745 438.97C44.0745 438.737 44.5645 438.247 44.8445 437.5C45.1711 436.753 45.3345 435.587 45.3345 434V401.45C45.3345 399.817 45.1478 398.65 44.7745 397.95C44.4478 397.203 43.8178 396.713 42.8845 396.48C41.9511 396.247 40.5511 396.107 38.6845 396.06V394.45H56.1845V396.06C54.9245 396.107 53.9445 396.247 53.2445 396.48C52.5445 396.713 52.0311 397.203 51.7045 397.95C51.4245 398.65 51.2845 399.817 51.2845 401.45V434C51.2845 436.007 51.6345 437.267 52.3345 437.78C53.0811 438.247 54.5045 438.48 56.6045 438.48H62.9745C65.3078 438.48 67.1045 438.107 68.3645 437.36C69.6711 436.567 70.6045 435.54 71.1645 434.28C71.7711 432.973 72.1445 431.573 72.2845 430.08H73.8945L73.3345 441H40.4345ZM88.5578 433.93C88.5578 435.563 88.7211 436.753 89.0478 437.5C89.3745 438.247 89.9578 438.737 90.7978 438.97C91.6845 439.203 92.9211 439.343 94.5078 439.39V441H78.7578V439.39C79.7845 439.343 80.6011 439.203 81.2078 438.97C81.8145 438.737 82.2578 438.247 82.5378 437.5C82.8178 436.753 82.9578 435.563 82.9578 433.93V418.11C82.9578 416.803 82.7478 415.963 82.3278 415.59C81.9545 415.17 81.4411 414.96 80.7878 414.96C80.1811 414.96 79.5278 415.077 78.8278 415.31C78.1745 415.497 77.5678 415.707 77.0078 415.94L76.3078 414.33L88.4178 408.8L88.8378 409.22C88.7911 409.593 88.7211 410.597 88.6278 412.23C88.5811 413.863 88.5578 415.8 88.5578 418.04V433.93ZM85.7578 402.22C84.7311 402.22 83.8678 401.87 83.1678 401.17C82.4678 400.47 82.1178 399.607 82.1178 398.58C82.1178 397.6 82.4678 396.76 83.1678 396.06C83.8678 395.36 84.7311 395.01 85.7578 395.01C86.7845 395.01 87.6478 395.36 88.3478 396.06C89.0478 396.76 89.3978 397.6 89.3978 398.58C89.3978 399.607 89.0478 400.47 88.3478 401.17C87.6478 401.87 86.7845 402.22 85.7578 402.22ZM133.356 450.94L134.056 452.55L122.646 457.87L122.226 457.45C122.319 457.077 122.389 456.073 122.436 454.44C122.482 452.807 122.506 450.87 122.506 448.63V435.68C121.292 437.407 119.752 438.9 117.886 440.16C116.066 441.42 113.896 442.05 111.376 442.05C109.182 442.05 107.129 441.49 105.216 440.37C103.349 439.203 101.832 437.523 100.666 435.33C99.5456 433.137 98.9856 430.477 98.9856 427.35C98.9856 424.363 99.499 421.75 100.526 419.51C101.599 417.223 102.999 415.31 104.726 413.77C106.499 412.23 108.436 411.087 110.536 410.34C112.682 409.547 114.829 409.15 116.976 409.15C118.516 409.15 119.892 409.267 121.106 409.5C122.319 409.733 123.392 410.037 124.326 410.41L128.106 409.5V448.49C128.106 449.797 128.292 450.637 128.666 451.01C129.039 451.43 129.576 451.64 130.276 451.64C130.789 451.64 131.302 451.57 131.816 451.43C132.329 451.29 132.842 451.127 133.356 450.94ZM113.546 437.85C115.179 437.85 116.742 437.43 118.236 436.59C119.776 435.75 121.199 434.723 122.506 433.51V415.17C121.386 413.957 120.126 413.187 118.726 412.86C117.372 412.487 116.182 412.3 115.156 412.3C112.169 412.3 109.672 413.327 107.666 415.38C105.706 417.387 104.726 420.583 104.726 424.97C104.726 428.983 105.542 432.133 107.176 434.42C108.809 436.707 110.932 437.85 113.546 437.85ZM172.055 435.61L172.755 437.22L161.415 442.47L160.995 442.05C161.089 441.63 161.182 440.813 161.275 439.6C161.415 438.34 161.485 437.01 161.485 435.61H161.345C159.525 437.477 157.635 439.017 155.675 440.23C153.762 441.443 151.592 442.05 149.165 442.05C146.225 442.05 144.172 441.303 143.005 439.81C141.885 438.317 141.325 436.38 141.325 434V417.9C141.325 416.687 141.115 415.893 140.695 415.52C140.322 415.147 139.809 414.96 139.155 414.96C138.222 414.96 137.219 415.193 136.145 415.66L135.445 414.05L146.785 408.8L147.205 409.22C147.159 409.593 147.089 410.597 146.995 412.23C146.949 413.817 146.925 415.683 146.925 417.83V432.25C146.925 433.883 147.252 435.167 147.905 436.1C148.605 437.033 149.842 437.5 151.615 437.5C153.109 437.5 154.649 437.197 156.235 436.59C157.869 435.937 159.549 434.91 161.275 433.51V417.9C161.275 416.687 161.089 415.893 160.715 415.52C160.342 415.147 159.805 414.96 159.105 414.96C158.499 414.96 157.869 415.077 157.215 415.31C156.562 415.497 155.979 415.707 155.465 415.94L154.765 414.33L166.735 408.8L167.155 409.22C167.109 409.593 167.039 410.597 166.945 412.23C166.899 413.817 166.875 415.683 166.875 417.83V433.16C166.875 434.467 167.062 435.307 167.435 435.68C167.855 436.053 168.392 436.24 169.045 436.24C170.072 436.24 171.075 436.03 172.055 435.61ZM187.132 433.93C187.132 435.563 187.295 436.753 187.622 437.5C187.949 438.247 188.532 438.737 189.372 438.97C190.259 439.203 191.495 439.343 193.082 439.39V441H177.332V439.39C178.359 439.343 179.175 439.203 179.782 438.97C180.389 438.737 180.832 438.247 181.112 437.5C181.392 436.753 181.532 435.563 181.532 433.93V418.11C181.532 416.803 181.322 415.963 180.902 415.59C180.529 415.17 180.015 414.96 179.362 414.96C178.755 414.96 178.102 415.077 177.402 415.31C176.749 415.497 176.142 415.707 175.582 415.94L174.882 414.33L186.992 408.8L187.412 409.22C187.365 409.593 187.295 410.597 187.202 412.23C187.155 413.863 187.132 415.8 187.132 418.04V433.93ZM184.332 402.22C183.305 402.22 182.442 401.87 181.742 401.17C181.042 400.47 180.692 399.607 180.692 398.58C180.692 397.6 181.042 396.76 181.742 396.06C182.442 395.36 183.305 395.01 184.332 395.01C185.359 395.01 186.222 395.36 186.922 396.06C187.622 396.76 187.972 397.6 187.972 398.58C187.972 399.607 187.622 400.47 186.922 401.17C186.222 401.87 185.359 402.22 184.332 402.22ZM231.86 435.61L232.56 437.22L221.15 442.47L220.73 442.05C220.823 441.63 220.917 440.813 221.01 439.6C221.15 438.34 221.22 437.01 221.22 435.61H221.15C219.937 437.337 218.397 438.853 216.53 440.16C214.71 441.42 212.517 442.05 209.95 442.05C207.757 442.05 205.703 441.49 203.79 440.37C201.923 439.203 200.407 437.523 199.24 435.33C198.12 433.137 197.56 430.477 197.56 427.35C197.56 424.363 198.073 421.75 199.1 419.51C200.173 417.223 201.573 415.31 203.3 413.77C205.073 412.23 207.01 411.087 209.11 410.34C211.257 409.547 213.403 409.15 215.55 409.15C217.697 409.15 219.54 409.36 221.08 409.78V395.01C221.08 393.703 220.87 392.863 220.45 392.49C220.077 392.117 219.563 391.93 218.91 391.93C218.303 391.93 217.65 392.023 216.95 392.21C216.297 392.397 215.69 392.63 215.13 392.91L214.43 391.3L226.54 385.7L226.96 386.12C226.913 386.493 226.843 387.497 226.75 389.13C226.703 390.763 226.68 392.7 226.68 394.94V433.16C226.68 434.467 226.867 435.307 227.24 435.68C227.66 436.053 228.197 436.24 228.85 436.24C229.83 436.24 230.833 436.03 231.86 435.61ZM212.12 437.85C213.753 437.85 215.317 437.43 216.81 436.59C218.35 435.75 219.773 434.723 221.08 433.51V415.17C219.96 413.957 218.7 413.187 217.3 412.86C215.947 412.487 214.757 412.3 213.73 412.3C210.743 412.3 208.247 413.327 206.24 415.38C204.28 417.387 203.3 420.583 203.3 424.97C203.3 428.983 204.117 432.133 205.75 434.42C207.383 436.707 209.507 437.85 212.12 437.85ZM251.282 442.05C248.902 442.05 246.615 441.49 244.422 440.37C242.275 439.25 240.502 437.57 239.102 435.33C237.748 433.043 237.072 430.15 237.072 426.65C237.072 423.103 237.772 420.023 239.172 417.41C240.572 414.797 242.438 412.767 244.772 411.32C247.105 409.873 249.648 409.15 252.402 409.15C254.408 409.15 256.252 409.547 257.932 410.34C259.658 411.133 261.035 412.347 262.062 413.98C263.135 415.613 263.672 417.69 263.672 420.21L242.672 422.94C242.672 423.173 242.672 423.43 242.672 423.71C242.672 428.003 243.652 431.363 245.612 433.79C247.572 436.217 250.185 437.43 253.452 437.43C255.318 437.43 257.045 437.057 258.632 436.31C260.218 435.517 261.642 434.537 262.902 433.37L264.022 434.49C262.715 436.73 260.965 438.55 258.772 439.95C256.625 441.35 254.128 442.05 251.282 442.05ZM250.932 411.74C248.505 411.74 246.638 412.603 245.332 414.33C244.025 416.057 243.208 418.18 242.882 420.7L257.372 418.81C257.092 416.803 256.485 415.123 255.552 413.77C254.618 412.417 253.078 411.74 250.932 411.74ZM41.4618 525.7C41.1351 524.487 40.8084 523.437 40.4818 522.55C40.2018 521.663 39.8051 520.637 39.2918 519.47L31.4518 501.06C30.7984 499.473 30.1918 498.33 29.6318 497.63C29.1184 496.93 28.5584 496.463 27.9518 496.23C27.3918 495.997 26.6918 495.857 25.8518 495.81V494.2H40.6218V495.81C39.0351 495.857 37.9151 496.02 37.2618 496.3C36.6084 496.533 36.3284 497.023 36.4218 497.77C36.5151 498.47 36.8651 499.567 37.4718 501.06L44.2618 517.16H44.4018L51.0518 501.06C51.9851 498.867 52.1484 497.467 51.5418 496.86C50.9818 496.253 49.4651 495.903 46.9918 495.81V494.2H59.3818V495.81C58.6818 495.857 58.0518 496.02 57.4918 496.3C56.9318 496.533 56.3951 497.023 55.8818 497.77C55.4151 498.47 54.8551 499.567 54.2018 501.06L46.4318 519.47C45.9184 520.73 45.5451 521.78 45.3118 522.62C45.0784 523.46 44.8218 524.487 44.5418 525.7H41.4618ZM70.0825 526.05C67.8891 526.05 66.0925 525.49 64.6925 524.37C63.3391 523.203 62.6625 521.547 62.6625 519.4C62.6625 517.673 63.1991 516.087 64.2725 514.64C65.3458 513.193 67.1191 511.863 69.5925 510.65C72.0658 509.437 75.4258 508.317 79.6725 507.29V502.74C79.6725 500.827 79.2525 499.24 78.4125 497.98C77.6191 496.72 76.0791 496.09 73.7925 496.09C71.5991 496.09 69.8491 496.79 68.5425 498.19C67.2825 499.543 66.3958 501.667 65.8825 504.56H64.2725V495.81C65.9058 495.017 67.6325 494.387 69.4525 493.92C71.3191 493.407 73.3725 493.15 75.6125 493.15C78.1791 493.15 80.1391 493.5 81.4925 494.2C82.8925 494.853 83.8725 495.787 84.4325 497C84.9925 498.213 85.2725 499.637 85.2725 501.27V518.21C85.2725 520.683 86.0425 521.92 87.5825 521.92C88.1425 521.92 88.7725 521.733 89.4725 521.36C90.2191 520.987 91.0825 520.217 92.0625 519.05L93.1825 520.17C91.0358 523.857 88.4691 525.7 85.4825 525.7C82.4025 525.7 80.5125 524.137 79.8125 521.01H79.6725C77.1058 524.37 73.9091 526.05 70.0825 526.05ZM72.6725 521.92C74.9125 521.92 77.2458 520.893 79.6725 518.84V509.46C76.3125 510.3 73.8391 511.233 72.2525 512.26C70.6658 513.24 69.6158 514.243 69.1025 515.27C68.6358 516.25 68.4025 517.16 68.4025 518C68.4025 519.353 68.8225 520.357 69.6625 521.01C70.5025 521.617 71.5058 521.92 72.6725 521.92ZM105.955 517.93C105.955 519.563 106.119 520.753 106.445 521.5C106.772 522.247 107.355 522.737 108.195 522.97C109.082 523.203 110.319 523.343 111.905 523.39V525H96.1553V523.39C97.1819 523.343 97.9986 523.203 98.6053 522.97C99.2119 522.737 99.6553 522.247 99.9353 521.5C100.215 520.753 100.355 519.563 100.355 517.93V502.11C100.355 500.803 100.145 499.963 99.7253 499.59C99.3519 499.17 98.8386 498.96 98.1853 498.96C97.5786 498.96 96.9253 499.077 96.2253 499.31C95.5719 499.497 94.9653 499.707 94.4053 499.94L93.7053 498.33L105.815 492.8L106.235 493.22C106.189 493.593 106.119 494.597 106.025 496.23C105.979 497.863 105.955 499.8 105.955 502.04V517.93ZM103.155 486.22C102.129 486.22 101.265 485.87 100.565 485.17C99.8653 484.47 99.5153 483.607 99.5153 482.58C99.5153 481.6 99.8653 480.76 100.565 480.06C101.265 479.36 102.129 479.01 103.155 479.01C104.182 479.01 105.045 479.36 105.745 480.06C106.445 480.76 106.795 481.6 106.795 482.58C106.795 483.607 106.445 484.47 105.745 485.17C105.045 485.87 104.182 486.22 103.155 486.22ZM126.533 526.05C123.22 526.05 120.676 525.42 118.903 524.16C117.13 522.9 116.243 521.29 116.243 519.33C116.243 518.63 116.383 517.86 116.663 517.02C116.943 516.133 117.433 515.27 118.133 514.43H119.743C119.79 517.417 120.42 519.703 121.633 521.29C122.846 522.877 124.76 523.67 127.373 523.67C129.706 523.67 131.433 523.11 132.553 521.99C133.673 520.87 134.233 519.587 134.233 518.14C134.233 516.833 133.813 515.76 132.973 514.92C132.18 514.08 131.13 513.357 129.823 512.75C128.563 512.097 127.21 511.49 125.763 510.93C124.316 510.323 122.94 509.67 121.633 508.97C120.373 508.223 119.323 507.313 118.483 506.24C117.69 505.167 117.293 503.813 117.293 502.18C117.293 499.613 118.32 497.467 120.373 495.74C122.426 494.013 125.296 493.15 128.983 493.15C130.43 493.15 131.9 493.29 133.393 493.57C134.886 493.803 136.286 494.293 137.593 495.04V503.09H135.983C135.656 500.337 134.77 498.4 133.323 497.28C131.876 496.113 130.173 495.53 128.213 495.53C126.3 495.53 124.853 495.95 123.873 496.79C122.893 497.63 122.403 498.727 122.403 500.08C122.403 501.34 122.8 502.39 123.593 503.23C124.433 504.023 125.483 504.723 126.743 505.33C128.05 505.937 129.403 506.543 130.803 507.15C132.25 507.71 133.603 508.387 134.863 509.18C136.17 509.927 137.22 510.883 138.013 512.05C138.853 513.17 139.273 514.593 139.273 516.32C139.273 519.447 138.06 521.85 135.633 523.53C133.206 525.21 130.173 526.05 126.533 526.05ZM155.312 526.05C151.999 526.05 149.456 525.42 147.682 524.16C145.909 522.9 145.022 521.29 145.022 519.33C145.022 518.63 145.162 517.86 145.442 517.02C145.722 516.133 146.212 515.27 146.912 514.43H148.522C148.569 517.417 149.199 519.703 150.412 521.29C151.626 522.877 153.539 523.67 156.152 523.67C158.486 523.67 160.212 523.11 161.332 521.99C162.452 520.87 163.012 519.587 163.012 518.14C163.012 516.833 162.592 515.76 161.752 514.92C160.959 514.08 159.909 513.357 158.602 512.75C157.342 512.097 155.989 511.49 154.542 510.93C153.096 510.323 151.719 509.67 150.412 508.97C149.152 508.223 148.102 507.313 147.262 506.24C146.469 505.167 146.072 503.813 146.072 502.18C146.072 499.613 147.099 497.467 149.152 495.74C151.206 494.013 154.076 493.15 157.762 493.15C159.209 493.15 160.679 493.29 162.172 493.57C163.666 493.803 165.066 494.293 166.372 495.04V503.09H164.762C164.436 500.337 163.549 498.4 162.102 497.28C160.656 496.113 158.952 495.53 156.992 495.53C155.079 495.53 153.632 495.95 152.652 496.79C151.672 497.63 151.182 498.727 151.182 500.08C151.182 501.34 151.579 502.39 152.372 503.23C153.212 504.023 154.262 504.723 155.522 505.33C156.829 505.937 158.182 506.543 159.582 507.15C161.029 507.71 162.382 508.387 163.642 509.18C164.949 509.927 165.999 510.883 166.792 512.05C167.632 513.17 168.052 514.593 168.052 516.32C168.052 519.447 166.839 521.85 164.412 523.53C161.986 525.21 158.952 526.05 155.312 526.05ZM188.152 526.05C185.772 526.05 183.485 525.49 181.292 524.37C179.145 523.25 177.372 521.57 175.972 519.33C174.618 517.043 173.942 514.15 173.942 510.65C173.942 507.103 174.642 504.023 176.042 501.41C177.442 498.797 179.308 496.767 181.642 495.32C183.975 493.873 186.518 493.15 189.272 493.15C191.278 493.15 193.122 493.547 194.802 494.34C196.528 495.133 197.905 496.347 198.932 497.98C200.005 499.613 200.542 501.69 200.542 504.21L179.542 506.94C179.542 507.173 179.542 507.43 179.542 507.71C179.542 512.003 180.522 515.363 182.482 517.79C184.442 520.217 187.055 521.43 190.322 521.43C192.188 521.43 193.915 521.057 195.502 520.31C197.088 519.517 198.512 518.537 199.772 517.37L200.892 518.49C199.585 520.73 197.835 522.55 195.642 523.95C193.495 525.35 190.998 526.05 188.152 526.05ZM187.802 495.74C185.375 495.74 183.508 496.603 182.202 498.33C180.895 500.057 180.078 502.18 179.752 504.7L194.242 502.81C193.962 500.803 193.355 499.123 192.422 497.77C191.488 496.417 189.948 495.74 187.802 495.74ZM215.866 517.93C215.866 519.563 216.029 520.753 216.356 521.5C216.682 522.247 217.266 522.737 218.106 522.97C218.992 523.203 220.229 523.343 221.816 523.39V525H206.066V523.39C207.092 523.343 207.909 523.203 208.516 522.97C209.122 522.737 209.566 522.247 209.846 521.5C210.126 520.753 210.266 519.563 210.266 517.93V479.01C210.266 477.703 210.056 476.863 209.636 476.49C209.262 476.117 208.749 475.93 208.096 475.93C207.489 475.93 206.836 476.023 206.136 476.21C205.482 476.397 204.876 476.63 204.316 476.91L203.616 475.3L215.726 469.7L216.146 470.12C216.099 470.493 216.029 471.497 215.936 473.13C215.889 474.763 215.866 476.7 215.866 478.94V517.93ZM235.895 517.93C235.895 519.563 236.058 520.753 236.385 521.5C236.712 522.247 237.295 522.737 238.135 522.97C239.022 523.203 240.258 523.343 241.845 523.39V525H226.095V523.39C227.122 523.343 227.938 523.203 228.545 522.97C229.152 522.737 229.595 522.247 229.875 521.5C230.155 520.753 230.295 519.563 230.295 517.93V479.01C230.295 477.703 230.085 476.863 229.665 476.49C229.292 476.117 228.778 475.93 228.125 475.93C227.518 475.93 226.865 476.023 226.165 476.21C225.512 476.397 224.905 476.63 224.345 476.91L223.645 475.3L235.755 469.7L236.175 470.12C236.128 470.493 236.058 471.497 235.965 473.13C235.918 474.763 235.895 476.7 235.895 478.94V517.93ZM260.544 526.05C258.164 526.05 255.878 525.49 253.684 524.37C251.538 523.25 249.764 521.57 248.364 519.33C247.011 517.043 246.334 514.15 246.334 510.65C246.334 507.103 247.034 504.023 248.434 501.41C249.834 498.797 251.701 496.767 254.034 495.32C256.368 493.873 258.911 493.15 261.664 493.15C263.671 493.15 265.514 493.547 267.194 494.34C268.921 495.133 270.298 496.347 271.324 497.98C272.398 499.613 272.934 501.69 272.934 504.21L251.934 506.94C251.934 507.173 251.934 507.43 251.934 507.71C251.934 512.003 252.914 515.363 254.874 517.79C256.834 520.217 259.448 521.43 262.714 521.43C264.581 521.43 266.308 521.057 267.894 520.31C269.481 519.517 270.904 518.537 272.164 517.37L273.284 518.49C271.978 520.73 270.228 522.55 268.034 523.95C265.888 525.35 263.391 526.05 260.544 526.05ZM260.194 495.74C257.768 495.74 255.901 496.603 254.594 498.33C253.288 500.057 252.471 502.18 252.144 504.7L266.634 502.81C266.354 500.803 265.748 499.123 264.814 497.77C263.881 496.417 262.341 495.74 260.194 495.74Z" fill="black"/>
</svg>
