<svg width="300" height="679" viewBox="0 0 300 679" fill="none" xmlns="http://www.w3.org/2000/svg">
<path d="M4.84181 159.554C12.827 127.192 84.1687 80.2268 118.841 60.7891L189.237 60.7891C219.532 81.9779 282.748 131.395 293.255 159.554C306.389 194.752 281.698 211.563 269.615 261.996C257.532 312.429 290.103 528.345 293.255 561.967C296.407 595.589 276.444 646.022 269.615 659.155C262.785 672.289 164.021 675.966 150.887 675.966C137.754 675.966 33.2104 667.561 21.6528 659.155C10.0952 650.75 14.8236 637.616 4.84181 561.967C-5.13994 486.317 28.4823 357.608 33.2104 291.94C37.9384 226.272 -5.13972 200.005 4.84181 159.554Z" fill="white" stroke="#D9D9D9" stroke-width="5"/>
<path d="M117.789 31.8939V60.7878H187.134V31.8939L171.374 25.0644V3L134.6 3V25.0644L117.789 31.8939Z" fill="white" stroke="#81EC40" stroke-width="5"/>
</svg>
