<svg width="275" height="655" fill="none" xmlns="http://www.w3.org/2000/svg"><path d="M6.083 335.5c-12.8 108 17.334 252 34 310.5 88 10.4 164.667 4.333 192.001 0 14.166-73.167 41.9-235.1 39.5-297.5-2.4-62.4-55.667-172.333-82-219.5h-104.5c-21 23.833-66.2 98.5-79 206.5z" fill="#fff"/><path d="M40.083 646l-2.404.685a2.502 2.502 0 002.111 1.798l.293-2.483zm45-517v-2.5c-.717 0-1.4.309-1.875.847L85.084 129zm104.5 0l2.183-1.219a2.498 2.498 0 00-2.183-1.281v2.5zm42.5 517l.392 2.469a2.498 2.498 0 002.063-1.994l-2.455-.475zm-189.595-.685C25.847 586.906-4.175 443.293 8.566 335.794l-4.965-.588C-9.26 443.707 20.987 588.094 37.679 646.685l4.809-1.37zM8.566 335.794c12.742-107.51 57.738-181.7 78.393-205.141l-3.751-3.306C61.863 151.572 16.458 226.716 3.6 335.206l4.965.588zM85.083 131.5h104.5v-5h-104.5v5zm102.318-1.281c13.125 23.509 32.98 62.694 49.845 103.768 16.901 41.161 30.658 83.888 31.839 114.609l4.997-.192c-1.219-31.679-15.295-75.119-32.211-116.316-16.951-41.284-36.897-80.649-50.105-104.307l-4.365 2.438zm81.684 218.377c1.19 30.933-5.103 86.791-13.513 144.255-8.397 57.384-18.865 116.12-25.943 152.674l4.909.95c7.089-36.613 17.571-95.426 25.982-152.901 8.399-57.394 14.772-113.703 13.562-145.17l-4.997.192zm-37.393 294.935c-27.116 4.299-103.552 10.358-191.315-.014l-.587 4.966c88.237 10.428 165.134 4.354 192.685-.014l-.783-4.938z" fill="#81EC40"/><path d="M98.586 48.5c-2.4 10.4-9 58-12 80.5h103c-4.5-21-13.5-66.5-13.5-80.5v-38c-6.333-2.5-22.5-7.5-36.5-7.5s-33.167 5-41 7.5c1 8.333 2.4 27.6 0 38z" fill="#fff" stroke="#81EC40" stroke-width="5" stroke-linejoin="round"/></svg>