<svg width="270" height="645" viewBox="0 0 270 645" fill="none" xmlns="http://www.w3.org/2000/svg">
<path d="M96 45.5C93.6 55.9 87 103.5 84 126H137H187C182.5 105 173.5 59.5 173.5 45.5V7.5C167.167 5 151 0 137 0C123 0 103.833 5 96 7.5C97 15.8333 98.4 35.1 96 45.5Z" fill="#195FE0"/>
<path fill-rule="evenodd" clip-rule="evenodd" d="M37.4999 639C20.8332 580.5 -9.30009 436.5 3.49991 328.5C16.2999 220.5 61.5 145.833 82.5 122H187C213.333 169.167 266.6 279.1 269 341.5C271.4 403.9 243.667 565.833 229.5 639C202.167 643.333 125.5 649.4 37.4999 639ZM198.5 346C194.5 325 191.2 282.7 210 281.5C228.8 280.3 235.5 324 236.5 346C239.667 363.667 242.4 399 228 399C213.6 399 202.334 363.667 198.5 346Z" fill="#D9D9E5"/>
<path d="M247.5 504.5C251.736 475.305 247.5 443 222 421C211.605 412.031 202.5 406.5 188 350.5C177.5 309.948 206.223 245.672 177.5 239C128 227.5 78.5001 283 46.0001 340C20.0001 385.6 15.8335 449 17.0001 475C17.0001 563 94.4013 601 140 601C166.5 601 233.5 601 247.5 504.5Z" fill="#FCF9F4"/>
<path d="M35.3432 446.5C35.7032 447.55 36.0482 448.315 36.3782 448.795C36.7082 449.245 37.0982 449.545 37.5482 449.695C38.0282 449.815 38.6582 449.905 39.4382 449.965V451H28.6832V449.965C29.7032 449.905 30.4532 449.8 30.9332 449.65C31.4432 449.5 31.7282 449.185 31.7882 448.705C31.8482 448.225 31.6982 447.49 31.3382 446.5L28.7732 438.76C28.6232 438.91 28.3982 439.015 28.0982 439.075C27.7982 439.105 27.4832 439.12 27.1532 439.12H21.2582C20.5982 439.12 20.1032 439.195 19.7732 439.345C19.4432 439.495 19.1582 439.9 18.9182 440.56L16.8032 446.5C16.4132 447.64 16.4132 448.495 16.8032 449.065C17.2232 449.605 18.3932 449.905 20.3132 449.965V451H10.9982V449.965C11.9582 449.905 12.7082 449.605 13.2482 449.065C13.8182 448.495 14.3132 447.64 14.7332 446.5L22.6982 424.63C22.9982 423.85 23.2832 423.085 23.5532 422.335C23.8232 421.585 24.0632 420.82 24.2732 420.04H26.4782C26.6882 420.82 26.9132 421.585 27.1532 422.335C27.4232 423.085 27.7082 423.85 28.0082 424.63L35.3432 446.5ZM27.2432 437.5C27.6332 437.5 27.9032 437.455 28.0532 437.365C28.2032 437.245 28.2032 437.005 28.0532 436.645L24.3632 425.71H24.2732L19.9532 437.635C20.1032 437.575 20.2832 437.545 20.4932 437.545C20.7032 437.515 20.9432 437.5 21.2132 437.5H27.2432ZM62.7138 447.535L63.1638 448.57L55.8288 451.945L55.5588 451.675C55.6188 451.405 55.6788 450.88 55.7388 450.1C55.8288 449.29 55.8738 448.435 55.8738 447.535H55.8288C55.0488 448.645 54.0588 449.62 52.8588 450.46C51.6888 451.27 50.2788 451.675 48.6288 451.675C47.2188 451.675 45.8988 451.315 44.6688 450.595C43.4688 449.845 42.4938 448.765 41.7438 447.355C41.0238 445.945 40.6638 444.235 40.6638 442.225C40.6638 440.305 40.9938 438.625 41.6538 437.185C42.3438 435.715 43.2438 434.485 44.3538 433.495C45.4938 432.505 46.7388 431.77 48.0888 431.29C49.4688 430.78 50.8488 430.525 52.2288 430.525C53.6088 430.525 54.7938 430.66 55.7838 430.93V421.435C55.7838 420.595 55.6488 420.055 55.3788 419.815C55.1388 419.575 54.8088 419.455 54.3888 419.455C53.9988 419.455 53.5788 419.515 53.1288 419.635C52.7088 419.755 52.3188 419.905 51.9588 420.085L51.5088 419.05L59.2938 415.45L59.5638 415.72C59.5338 415.96 59.4888 416.605 59.4288 417.655C59.3988 418.705 59.3838 419.95 59.3838 421.39V445.96C59.3838 446.8 59.5038 447.34 59.7438 447.58C60.0138 447.82 60.3588 447.94 60.7788 447.94C61.4088 447.94 62.0538 447.805 62.7138 447.535ZM50.0238 448.975C51.0738 448.975 52.0788 448.705 53.0388 448.165C54.0288 447.625 54.9438 446.965 55.7838 446.185V434.395C55.0638 433.615 54.2538 433.12 53.3538 432.91C52.4838 432.67 51.7188 432.55 51.0588 432.55C49.1388 432.55 47.5338 433.21 46.2438 434.53C44.9838 435.82 44.3538 437.875 44.3538 440.695C44.3538 443.275 44.8788 445.3 45.9288 446.77C46.9788 448.24 48.3438 448.975 50.0238 448.975ZM76.3241 430.525C78.0641 430.525 79.6541 430.96 81.0941 431.83C82.5641 432.67 83.7491 433.855 84.6491 435.385C85.5491 436.915 85.9991 438.7 85.9991 440.74C85.9991 442.54 85.6841 444.13 85.0541 445.51C84.4541 446.86 83.6441 448 82.6241 448.93C81.6041 449.83 80.4791 450.52 79.2491 451C78.0491 451.45 76.8641 451.675 75.6941 451.675C73.9841 451.675 72.3941 451.255 70.9241 450.415C69.4541 449.545 68.2691 448.345 67.3691 446.815C66.4991 445.285 66.0641 443.5 66.0641 441.46C66.0641 439.66 66.3641 438.085 66.9641 436.735C67.5941 435.355 68.4191 434.215 69.4391 433.315C70.4591 432.385 71.5691 431.695 72.7691 431.245C73.9691 430.765 75.1541 430.525 76.3241 430.525ZM76.4591 449.875C78.2291 449.875 79.6241 449.245 80.6441 447.985C81.6641 446.695 82.1741 444.715 82.1741 442.045C82.1741 440.215 81.8891 438.565 81.3191 437.095C80.7791 435.625 80.0141 434.47 79.0241 433.63C78.0341 432.76 76.8791 432.325 75.5591 432.325C73.8191 432.325 72.4391 432.97 71.4191 434.26C70.3991 435.52 69.8891 437.485 69.8891 440.155C69.8891 441.955 70.1591 443.59 70.6991 445.06C71.2691 446.53 72.0491 447.7 73.0391 448.57C74.0291 449.44 75.1691 449.875 76.4591 449.875ZM112.466 447.535L112.916 448.57L105.626 451.945L105.356 451.675C105.416 451.405 105.476 450.88 105.536 450.1C105.626 449.29 105.671 448.435 105.671 447.535H105.581C104.411 448.735 103.196 449.725 101.936 450.505C100.706 451.285 99.3112 451.675 97.7512 451.675C95.8612 451.675 94.5412 451.195 93.7912 450.235C93.0712 449.275 92.7112 448.03 92.7112 446.5V436.15C92.7112 435.37 92.5762 434.86 92.3062 434.62C92.0662 434.38 91.7362 434.26 91.3162 434.26C90.7162 434.26 90.0712 434.41 89.3812 434.71L88.9312 433.675L96.2212 430.3L96.4912 430.57C96.4612 430.81 96.4162 431.455 96.3562 432.505C96.3262 433.525 96.3112 434.725 96.3112 436.105V445.375C96.3112 446.425 96.5212 447.25 96.9412 447.85C97.3912 448.45 98.1862 448.75 99.3262 448.75C100.286 448.75 101.276 448.555 102.296 448.165C103.346 447.745 104.426 447.085 105.536 446.185V436.15C105.536 435.37 105.416 434.86 105.176 434.62C104.936 434.38 104.591 434.26 104.141 434.26C103.751 434.26 103.346 434.335 102.926 434.485C102.506 434.605 102.131 434.74 101.801 434.89L101.351 433.855L109.046 430.3L109.316 430.57C109.286 430.81 109.241 431.455 109.181 432.505C109.151 433.525 109.136 434.725 109.136 436.105V445.96C109.136 446.8 109.256 447.34 109.496 447.58C109.766 447.82 110.111 447.94 110.531 447.94C111.191 447.94 111.836 447.805 112.466 447.535ZM124.813 451.675C123.253 451.675 121.768 451.315 120.358 450.595C118.978 449.845 117.853 448.735 116.983 447.265C116.113 445.765 115.678 443.905 115.678 441.685C115.678 439.315 116.173 437.305 117.163 435.655C118.183 433.975 119.518 432.7 121.168 431.83C122.818 430.96 124.573 430.525 126.433 430.525C127.363 430.525 128.368 430.645 129.448 430.885C130.558 431.125 131.548 431.545 132.418 432.145V438.04H131.383C131.233 436.48 130.843 435.28 130.213 434.44C129.583 433.6 128.848 433.015 128.008 432.685C127.198 432.355 126.388 432.19 125.578 432.19C123.598 432.19 122.068 432.94 120.988 434.44C119.908 435.91 119.368 437.755 119.368 439.975C119.368 441.745 119.668 443.29 120.268 444.61C120.898 445.9 121.753 446.905 122.833 447.625C123.913 448.345 125.128 448.705 126.478 448.705C127.528 448.705 128.563 448.48 129.583 448.03C130.633 447.55 131.578 446.905 132.418 446.095L133.138 446.815C132.298 448.225 131.158 449.395 129.718 450.325C128.278 451.225 126.643 451.675 124.813 451.675ZM143.34 446.455C143.34 447.505 143.445 448.27 143.655 448.75C143.865 449.23 144.24 449.545 144.78 449.695C145.35 449.845 146.145 449.935 147.165 449.965V451H137.04V449.965C137.7 449.935 138.225 449.845 138.615 449.695C139.005 449.545 139.29 449.23 139.47 448.75C139.65 448.27 139.74 447.505 139.74 446.455V436.285C139.74 435.445 139.605 434.905 139.335 434.665C139.095 434.395 138.765 434.26 138.345 434.26C137.955 434.26 137.535 434.335 137.085 434.485C136.665 434.605 136.275 434.74 135.915 434.89L135.465 433.855L143.25 430.3L143.52 430.57C143.49 430.81 143.445 431.455 143.385 432.505C143.355 433.555 143.34 434.8 143.34 436.24V446.455ZM141.54 426.07C140.88 426.07 140.325 425.845 139.875 425.395C139.425 424.945 139.2 424.39 139.2 423.73C139.2 423.1 139.425 422.56 139.875 422.11C140.325 421.66 140.88 421.435 141.54 421.435C142.2 421.435 142.755 421.66 143.205 422.11C143.655 422.56 143.88 423.1 143.88 423.73C143.88 424.39 143.655 424.945 143.205 425.395C142.755 425.845 142.2 426.07 141.54 426.07ZM156.569 451.675C154.439 451.675 152.804 451.27 151.664 450.46C150.524 449.65 149.954 448.615 149.954 447.355C149.954 446.905 150.044 446.41 150.224 445.87C150.404 445.3 150.719 444.745 151.169 444.205H152.204C152.234 446.125 152.639 447.595 153.419 448.615C154.199 449.635 155.429 450.145 157.109 450.145C158.609 450.145 159.719 449.785 160.439 449.065C161.159 448.345 161.519 447.52 161.519 446.59C161.519 445.75 161.249 445.06 160.709 444.52C160.199 443.98 159.524 443.515 158.684 443.125C157.874 442.705 157.004 442.315 156.074 441.955C155.144 441.565 154.259 441.145 153.419 440.695C152.609 440.215 151.934 439.63 151.394 438.94C150.884 438.25 150.629 437.38 150.629 436.33C150.629 434.68 151.289 433.3 152.609 432.19C153.929 431.08 155.774 430.525 158.144 430.525C159.074 430.525 160.019 430.615 160.979 430.795C161.939 430.945 162.839 431.26 163.679 431.74V436.915H162.644C162.434 435.145 161.864 433.9 160.934 433.18C160.004 432.43 158.909 432.055 157.649 432.055C156.419 432.055 155.489 432.325 154.859 432.865C154.229 433.405 153.914 434.11 153.914 434.98C153.914 435.79 154.169 436.465 154.679 437.005C155.219 437.515 155.894 437.965 156.704 438.355C157.544 438.745 158.414 439.135 159.314 439.525C160.244 439.885 161.114 440.32 161.924 440.83C162.764 441.31 163.439 441.925 163.949 442.675C164.489 443.395 164.759 444.31 164.759 445.42C164.759 447.43 163.979 448.975 162.419 450.055C160.859 451.135 158.909 451.675 156.569 451.675ZM175.07 451.675C172.94 451.675 171.305 451.27 170.165 450.46C169.025 449.65 168.455 448.615 168.455 447.355C168.455 446.905 168.545 446.41 168.725 445.87C168.905 445.3 169.22 444.745 169.67 444.205H170.705C170.735 446.125 171.14 447.595 171.92 448.615C172.7 449.635 173.93 450.145 175.61 450.145C177.11 450.145 178.22 449.785 178.94 449.065C179.66 448.345 180.02 447.52 180.02 446.59C180.02 445.75 179.75 445.06 179.21 444.52C178.7 443.98 178.025 443.515 177.185 443.125C176.375 442.705 175.505 442.315 174.575 441.955C173.645 441.565 172.76 441.145 171.92 440.695C171.11 440.215 170.435 439.63 169.895 438.94C169.385 438.25 169.13 437.38 169.13 436.33C169.13 434.68 169.79 433.3 171.11 432.19C172.43 431.08 174.275 430.525 176.645 430.525C177.575 430.525 178.52 430.615 179.48 430.795C180.44 430.945 181.34 431.26 182.18 431.74V436.915H181.145C180.935 435.145 180.365 433.9 179.435 433.18C178.505 432.43 177.41 432.055 176.15 432.055C174.92 432.055 173.99 432.325 173.36 432.865C172.73 433.405 172.415 434.11 172.415 434.98C172.415 435.79 172.67 436.465 173.18 437.005C173.72 437.515 174.395 437.965 175.205 438.355C176.045 438.745 176.915 439.135 177.815 439.525C178.745 439.885 179.615 440.32 180.425 440.83C181.265 441.31 181.94 441.925 182.45 442.675C182.99 443.395 183.26 444.31 183.26 445.42C183.26 447.43 182.48 448.975 180.92 450.055C179.36 451.135 177.41 451.675 175.07 451.675ZM192.086 451.675C190.676 451.675 189.521 451.315 188.621 450.595C187.751 449.845 187.316 448.78 187.316 447.4C187.316 446.29 187.661 445.27 188.351 444.34C189.041 443.41 190.181 442.555 191.771 441.775C193.361 440.995 195.521 440.275 198.251 439.615V436.69C198.251 435.46 197.981 434.44 197.441 433.63C196.931 432.82 195.941 432.415 194.471 432.415C193.061 432.415 191.936 432.865 191.096 433.765C190.286 434.635 189.716 436 189.386 437.86H188.351V432.235C189.401 431.725 190.511 431.32 191.681 431.02C192.881 430.69 194.201 430.525 195.641 430.525C197.291 430.525 198.551 430.75 199.421 431.2C200.321 431.62 200.951 432.22 201.311 433C201.671 433.78 201.851 434.695 201.851 435.745V446.635C201.851 448.225 202.346 449.02 203.336 449.02C203.696 449.02 204.101 448.9 204.551 448.66C205.031 448.42 205.586 447.925 206.216 447.175L206.936 447.895C205.556 450.265 203.906 451.45 201.986 451.45C200.006 451.45 198.791 450.445 198.341 448.435H198.251C196.601 450.595 194.546 451.675 192.086 451.675ZM193.751 449.02C195.191 449.02 196.691 448.36 198.251 447.04V441.01C196.091 441.55 194.501 442.15 193.481 442.81C192.461 443.44 191.786 444.085 191.456 444.745C191.156 445.375 191.006 445.96 191.006 446.5C191.006 447.37 191.276 448.015 191.816 448.435C192.356 448.825 193.001 449.02 193.751 449.02ZM228.242 446.455C228.242 447.505 228.332 448.27 228.512 448.75C228.722 449.23 229.097 449.545 229.637 449.695C230.207 449.845 231.017 449.935 232.067 449.965V451H221.942V449.965C222.602 449.935 223.127 449.845 223.517 449.695C223.907 449.545 224.192 449.23 224.372 448.75C224.552 448.27 224.642 447.505 224.642 446.455V436.78C224.642 435.73 224.402 434.905 223.922 434.305C223.472 433.705 222.677 433.405 221.537 433.405C220.547 433.405 219.512 433.615 218.432 434.035C217.352 434.455 216.242 435.115 215.102 436.015V446.455C215.102 447.505 215.192 448.27 215.372 448.75C215.582 449.23 215.957 449.545 216.497 449.695C217.067 449.845 217.877 449.935 218.927 449.965V451H208.802V449.965C209.492 449.935 210.032 449.845 210.422 449.695C210.812 449.545 211.082 449.23 211.232 448.75C211.412 448.27 211.502 447.505 211.502 446.455V436.24C211.502 435.43 211.382 434.905 211.142 434.665C210.902 434.395 210.572 434.26 210.152 434.26C209.822 434.26 209.492 434.305 209.162 434.395C208.862 434.455 208.547 434.56 208.217 434.71L207.767 433.675L215.012 430.3L215.282 430.57C215.222 430.84 215.147 431.365 215.057 432.145C214.997 432.925 214.967 433.75 214.967 434.62H215.057C216.197 433.42 217.427 432.445 218.747 431.695C220.097 430.915 221.552 430.525 223.112 430.525C225.032 430.525 226.367 431.005 227.117 431.965C227.867 432.895 228.242 434.14 228.242 435.7V446.455ZM247.234 447.085L247.954 447.805C247.234 448.885 246.409 449.8 245.479 450.55C244.549 451.3 243.334 451.675 241.834 451.675C240.634 451.675 239.674 451.435 238.954 450.955C238.264 450.475 237.769 449.845 237.469 449.065C237.169 448.255 237.019 447.385 237.019 446.455V433.045H233.914V431.2H237.019V425.035L240.844 424.36C240.754 425.5 240.694 426.64 240.664 427.78C240.634 428.92 240.619 430.06 240.619 431.2H247.279V433.045H242.014C241.504 433.045 241.144 433.15 240.934 433.36C240.724 433.57 240.619 433.93 240.619 434.44V445.51C240.619 446.47 240.784 447.295 241.114 447.985C241.474 448.675 242.194 449.02 243.274 449.02C243.904 449.02 244.549 448.87 245.209 448.57C245.869 448.24 246.544 447.745 247.234 447.085Z" fill="black"/>
</svg>
