<svg width="349" height="689" fill="none" xmlns="http://www.w3.org/2000/svg"><path d="M42.89 39.744V17.696l22.632-.134 2.53 22.182H42.891zm244.36 185.343c-16.798-35.696-58.794-92.215-77.692-116.013l-74.068.158c-8.574 1.75-18.483 5.19-21.997 11.391-8.924 15.748 11.024 18.373 11.024 32.022 0 13.648-11.024 5.774-11.024 17.323s17.323 20.998 11.024 29.397c-6.3 8.399-11.024 13.649-11.024 25.722 0 12.074 17.323 12.599 17.323 32.547 0 19.948-83.991 54.069-93.965 64.043-9.974 9.974-29.397 113.389-33.072 165.358-3.675 51.97 5.774 145.41 25.722 175.332 19.948 29.922 234.651 28.347 278.747 11.024 44.095-17.323 34.646-85.041 37.271-159.059 2.624-74.017-37.271-185.305-37.271-192.655 0-7.349 9.974-9.974 12.598-16.273 2.625-6.299-12.598-35.696-33.596-80.317z" fill="#fff" stroke="#81EC40" stroke-width="5"/><path d="M45.245 114.323c8.925-25.722 21.173-50.92 26.248-67.718 0 0 4.157 4.318 7.653 5.375 5.458 1.65 17.6 2.26 17.6 2.26C88.52 64.912 78.841 83.352 71.492 97c-5.227 9.706-47.245 69.293-49.345 62.994-2.1-6.3 16.367-26.272 23.097-45.671z" fill="#fff"/><path d="M71.493 46.605l1.8-1.734-2.96-3.073-1.233 4.084 2.393.724zm-26.248 67.718l-2.361-.819 2.361.819zm-23.097 45.671l-2.372.79 2.372-.79zM71.493 97l-2.201-1.185 2.2 1.185zm25.252-42.76l1.98 1.525a2.5 2.5 0 00-1.854-4.022l-.126 2.496zm-17.599-2.26l.724-2.393-.724 2.392zM69.1 45.883c-2.494 8.253-6.768 18.624-11.597 30.278-4.806 11.601-10.129 24.4-14.62 37.343l4.724 1.639c4.434-12.779 9.698-25.44 14.515-37.068 4.796-11.575 9.183-22.202 11.764-30.747L69.1 45.882zm-26.216 67.621c-3.252 9.372-9.373 18.958-14.61 27.23-2.58 4.071-4.975 7.877-6.582 11.07-.806 1.599-1.465 3.145-1.846 4.569-.37 1.382-.558 2.947-.07 4.411l4.744-1.581c-.037-.11-.108-.547.157-1.539.253-.95.744-2.149 1.48-3.612 1.475-2.929 3.723-6.51 6.34-10.644 5.154-8.138 11.631-18.238 15.11-28.265l-4.724-1.639zm-23.108 47.28c.214.643.675 1.395 1.552 1.84.83.422 1.65.369 2.196.249 1.002-.219 1.936-.844 2.656-1.397 1.56-1.199 3.525-3.2 5.697-5.641 4.39-4.935 10.054-12.166 15.775-19.842 11.408-15.306 23.329-32.769 26.042-37.807l-4.403-2.371c-2.513 4.668-14.215 21.851-25.648 37.19-5.7 7.647-11.26 14.738-15.502 19.507-2.145 2.411-3.848 4.108-5.008 5-.64.492-.829.51-.676.477.122-.027.585-.102 1.134.177.593.301.845.788.928 1.037l-4.743 1.581zm53.918-62.598C81.1 84.431 90.66 66.234 98.726 55.766l-3.961-3.052c-8.382 10.879-18.18 29.557-25.474 43.101l4.403 2.37zm23.051-43.947l.126-2.496h-.001a2.147 2.147 0 00-.03-.002l-.098-.005a103.708 103.708 0 01-1.81-.112 168.1 168.1 0 01-4.7-.384c-3.734-.36-7.901-.91-10.362-1.654l-1.447 4.787c2.996.906 7.629 1.486 11.33 1.844a172.839 172.839 0 006.856.519h.01l.126-2.496zM79.87 49.587c-1.245-.377-2.837-1.443-4.276-2.623a31.73 31.73 0 01-2.297-2.089l-.005-.005h.001l-1.8 1.736-1.8 1.734.002.003.004.004.013.014.044.045.157.158a36.801 36.801 0 002.51 2.265c1.513 1.242 3.749 2.863 6 3.544l1.447-4.786z" fill="#81EC40"/><path d="M222.156 91.751c-9.659 6.72-11.373 14.349-11.023 17.324H135.54c-3.325-12.25-11.654-38.742-18.373-46.72-8.399-9.975-16.273-7.35-35.696-9.975-15.538-2.1-16.623-31.321-15.223-45.67 39.895-2.8 124.727-6.72 144.885 0 25.197 8.4 65.093 51.97 60.368 65.618-4.724 13.649-37.271 11.024-49.345 19.423z" fill="#fff" stroke="#81EC40" stroke-width="5"/></svg>