<svg width="349" height="689" viewBox="0 0 349 689" fill="none" xmlns="http://www.w3.org/2000/svg">
<path d="M42.8906 39.7447L42.8906 17.6969L65.5225 17.5635L68.0522 39.7447L42.8906 39.7447Z" fill="white" stroke="#81EC40" stroke-width="5"/>
<path d="M287.25 225.088C270.452 189.392 228.456 132.873 209.558 109.075L135.49 109.233C126.916 110.983 117.007 114.423 113.493 120.624C104.569 136.372 124.517 138.997 124.517 152.646C124.517 166.294 113.493 158.42 113.493 169.969C113.493 181.518 130.816 190.967 124.517 199.366C118.217 207.765 113.493 213.014 113.493 225.088C113.493 237.162 130.816 237.687 130.816 257.635C130.816 277.583 46.8248 311.704 36.8508 321.678C26.8768 331.652 7.45362 435.067 3.779 487.036C0.10437 539.006 9.55339 632.446 29.5013 662.368C49.4493 692.29 264.152 690.715 308.248 673.392C352.343 656.069 342.894 588.351 345.519 514.333C348.143 440.316 308.248 329.028 308.248 321.678C308.248 314.329 318.222 311.704 320.846 305.405C323.471 299.106 308.248 269.709 287.25 225.088Z" fill="white" stroke="#D9D9D9" stroke-width="5"/>
<path d="M45.2473 114.323C54.1716 88.6002 66.4202 63.4028 71.4947 46.6045C71.4947 46.6045 75.6524 50.9217 79.1484 51.9786C84.6059 53.6284 96.7473 54.2385 96.7473 54.2385C88.5232 64.9124 78.8438 83.3507 71.4946 96.9993C66.2683 106.706 24.2495 166.292 22.1497 159.993C20.0499 153.693 38.5169 133.721 45.2473 114.323Z" fill="white"/>
<path d="M71.4947 46.6045L73.2954 44.8703L70.3354 41.7968L69.1015 45.8816L71.4947 46.6045ZM45.2473 114.323L42.8855 113.503L42.8855 113.503L45.2473 114.323ZM22.1497 159.993L19.778 160.783L22.1497 159.993ZM71.4946 96.9993L69.2935 95.8141L69.2935 95.8141L71.4946 96.9993ZM96.7473 54.2385L98.7277 55.7644C99.2954 55.0275 99.4071 54.0364 99.0176 53.1917C98.6281 52.347 97.8018 51.7883 96.8728 51.7417L96.7473 54.2385ZM79.1484 51.9786L79.8718 49.5855L79.8718 49.5855L79.1484 51.9786ZM69.1015 45.8816C66.6081 54.1356 62.3334 64.5061 57.5051 76.1601C52.6987 87.761 47.376 100.56 42.8855 113.503L47.6092 115.142C52.043 102.363 57.3067 89.7018 62.1243 78.0739C66.9199 66.499 71.3068 55.8717 73.8878 47.3274L69.1015 45.8816ZM42.8855 113.503C39.6339 122.875 33.5128 132.461 28.275 140.733C25.6967 144.804 23.3011 148.61 21.6934 151.803C20.8884 153.402 20.2285 154.948 19.848 156.372C19.4788 157.754 19.2898 159.319 19.778 160.783L24.5214 159.202C24.4847 159.092 24.4134 158.655 24.6785 157.663C24.9324 156.713 25.4233 155.514 26.1594 154.051C27.634 151.122 29.8821 147.541 32.4994 143.407C37.6527 135.269 44.1304 125.169 47.6092 115.142L42.8855 113.503ZM19.778 160.783C19.9923 161.426 20.4534 162.178 21.3295 162.623C22.1605 163.045 22.9796 162.992 23.5264 162.872C24.5278 162.654 25.4624 162.028 26.182 161.475C27.7419 160.276 29.7073 158.275 31.8787 155.834C36.2688 150.899 41.9332 143.668 47.6542 135.992C59.0622 120.686 70.9828 103.223 73.6958 98.1845L69.2935 95.8141C66.7802 100.482 55.0782 117.665 43.6452 133.004C37.9457 140.651 32.3852 147.742 28.1429 152.511C25.998 154.922 24.2954 156.619 23.135 157.511C22.4946 158.003 22.306 158.021 22.4587 157.988C22.581 157.961 23.0443 157.886 23.5929 158.165C24.1865 158.466 24.4384 158.953 24.5214 159.202L19.778 160.783ZM73.6958 98.1845C81.1014 84.4311 90.6616 66.2332 98.7277 55.7644L94.767 52.7127C86.3848 63.5917 76.5862 82.2703 69.2935 95.8141L73.6958 98.1845ZM96.7473 54.2385C96.8728 51.7417 96.8729 51.7417 96.8729 51.7417C96.8729 51.7417 96.8729 51.7417 96.8728 51.7417C96.8726 51.7416 96.8722 51.7416 96.8717 51.7416C96.8706 51.7415 96.8688 51.7415 96.8662 51.7413C96.8611 51.7411 96.8531 51.7407 96.8423 51.7401C96.8207 51.739 96.7879 51.7372 96.7444 51.7349C96.6574 51.7302 96.5277 51.723 96.36 51.7133C96.0244 51.6938 95.5369 51.664 94.9341 51.6231C93.7274 51.5413 92.0637 51.4153 90.2346 51.2388C86.5002 50.8784 82.3328 50.3295 79.8718 49.5855L78.4249 54.3716C81.4214 55.2775 86.0535 55.8585 89.7543 56.2157C91.6427 56.3979 93.3554 56.5276 94.5958 56.6117C95.2165 56.6538 95.7202 56.6845 96.07 56.7049C96.2449 56.715 96.3814 56.7226 96.4749 56.7276C96.5217 56.7301 96.5577 56.732 96.5824 56.7333C96.5947 56.734 96.6042 56.7345 96.6108 56.7348C96.6141 56.735 96.6167 56.7351 96.6185 56.7352C96.6195 56.7352 96.6202 56.7353 96.6208 56.7353C96.621 56.7353 96.6213 56.7353 96.6215 56.7353C96.6217 56.7353 96.6219 56.7354 96.7473 54.2385ZM79.8718 49.5855C78.6269 49.2092 77.0354 48.1433 75.5963 46.9625C74.9149 46.4034 74.3313 45.8722 73.9188 45.4812C73.7133 45.2864 73.5523 45.1283 73.4449 45.0213C73.3913 44.9679 73.3513 44.9274 73.3259 44.9016C73.3132 44.8887 73.3043 44.8794 73.2991 44.8742C73.2965 44.8715 73.2949 44.8699 73.2943 44.8692C73.294 44.8689 73.2939 44.8688 73.2941 44.869C73.2942 44.8691 73.2943 44.8692 73.2945 44.8694C73.2946 44.8696 73.2949 44.8698 73.2949 44.8698C73.2951 44.8701 73.2954 44.8703 71.4947 46.6045C69.6939 48.3387 69.6942 48.339 69.6945 48.3393C69.6946 48.3394 69.6949 48.3397 69.6951 48.3399C69.6956 48.3404 69.6961 48.341 69.6967 48.3416C69.6979 48.3428 69.6994 48.3443 69.7011 48.3461C69.7044 48.3496 69.7089 48.3541 69.7143 48.3597C69.7251 48.3708 69.7399 48.3859 69.7585 48.4049C69.7958 48.4429 69.8484 48.4961 69.9153 48.5628C70.049 48.6961 70.2401 48.8835 70.4791 49.11C70.9554 49.5615 71.6297 50.1756 72.4248 50.8279C73.9385 52.0699 76.1739 53.6911 78.4249 54.3716L79.8718 49.5855Z" fill="#81EC40"/>
<path d="M222.153 91.7513C212.494 98.4706 210.779 106.1 211.129 109.075L135.536 109.075C132.212 96.8258 123.882 70.3335 117.163 62.3543C108.764 52.3802 100.89 55.005 81.4671 52.3803C65.9287 50.2805 64.8438 21.0586 66.2437 6.71008C106.14 3.91037 190.971 -0.00921919 211.129 6.71009C236.326 15.1092 276.222 58.6797 271.498 72.3283C266.773 85.9769 234.226 83.3522 222.153 91.7513Z" fill="white" stroke="#81EC40" stroke-width="5"/>
</svg>
