<svg width="327" height="704" viewBox="0 0 327 704" fill="none" xmlns="http://www.w3.org/2000/svg">
<path d="M38.2422 6.53369H77.2422V36.5337H38.2422V6.53369Z" fill="#9F0108"/>
<path d="M34.2422 11.5337H43.2422V31.5337H34.2422V11.5337Z" fill="#9F0108"/>
<path d="M208.742 84.5338C199.542 90.9338 197.909 98.2004 198.242 101.034H126.242C123.076 89.3671 115.142 64.1338 108.742 56.5337C100.742 47.0336 93.2425 49.5337 74.7425 47.0337C59.9425 45.0337 58.9091 17.2004 60.2425 3.53377C98.2425 0.867104 179.042 -2.86623 198.242 3.53377C222.242 11.5338 260.242 53.0338 255.742 66.0338C251.242 79.0338 220.242 76.5338 208.742 84.5338Z" fill="#C7C9C8"/>
<path d="M270.742 264.534C254.742 230.534 214.742 176.7 196.742 154.034H135.742C127.576 155.7 108.589 159.128 105.242 165.034C96.7422 180.034 115.742 182.534 115.742 195.534C115.742 208.534 105.242 201.034 105.242 212.034C105.242 223.034 121.742 232.034 115.742 240.034C109.742 248.034 105.242 253.034 105.242 264.534C105.242 276.034 121.742 276.534 121.742 295.534C121.742 314.534 41.7422 347.034 32.2422 356.534C22.7422 366.034 4.24201 464.534 0.742008 514.034C-2.75799 563.534 6.24201 652.534 25.242 681.034C44.242 709.534 248.742 708.034 290.742 691.534C332.742 675.034 323.742 610.534 326.242 540.034C328.742 469.534 290.742 363.534 290.742 356.534C290.742 349.534 300.242 347.034 302.742 341.034C305.242 335.034 290.742 307.034 270.742 264.534Z" fill="#0CABE9"/>
<path d="M227.242 303.534C216.042 297.934 111.242 353.867 60.2421 382.534C45.742 413.534 33.2421 494.034 31.2421 529.034C29.2421 564.034 32.2421 645.534 46.2421 663.034C60.2421 680.534 254.242 676.034 272.242 663.034C290.242 650.034 292.242 556.034 287.242 494.034C282.242 432.034 241.242 310.534 227.242 303.534Z" fill="#0597D6"/>
<path d="M119.242 103.534V156.534H202.742V103.534C197.576 100.867 178.742 95.5337 164.742 95.5337C150.742 95.5337 130.242 100.867 119.242 103.534Z" fill="#9F0108"/>
<path d="M40.242 106.034C48.7422 81.5337 60.4086 57.5337 65.242 41.5337L88.7419 48.5337C80.9086 58.7004 72.2419 76.5337 65.242 89.5337C60.264 98.7787 20.242 155.534 18.242 149.534C16.242 143.534 33.8314 124.511 40.242 106.034Z" fill="#9F0108"/>
<path d="M85.9284 535.64C85.6084 534.253 85.3151 533.107 85.0484 532.2C84.8351 531.24 84.4618 530.067 83.9284 528.68L69.5284 489.8C68.8884 487.933 68.2751 486.6 67.6884 485.8C67.1018 484.947 66.4351 484.387 65.6884 484.12C64.9418 483.853 63.9551 483.693 62.7284 483.64V481.8H81.0484L80.9684 483.64C79.2084 483.693 77.9284 483.88 77.1284 484.2C76.3818 484.467 76.0084 485.027 76.0084 485.88C76.0084 486.733 76.3284 488.04 76.9684 489.8L89.6884 524.76H89.8484L102.808 489.8C103.555 487.773 103.555 486.28 102.808 485.32C102.115 484.307 100.115 483.747 96.8084 483.64V481.8H113.288V483.64C110.302 483.853 108.115 485.907 106.728 489.8L92.3284 528.68C91.7951 530.12 91.3684 531.293 91.0484 532.2C90.7818 533.107 90.4884 534.253 90.1684 535.64H85.9284ZM124.958 526.92C124.958 528.787 125.144 530.147 125.518 531C125.891 531.853 126.558 532.413 127.518 532.68C128.531 532.947 129.944 533.107 131.758 533.16V535H113.758V533.16C114.931 533.107 115.864 532.947 116.558 532.68C117.251 532.413 117.758 531.853 118.078 531C118.398 530.147 118.558 528.787 118.558 526.92V508.84C118.558 507.347 118.318 506.387 117.838 505.96C117.411 505.48 116.824 505.24 116.078 505.24C115.384 505.24 114.638 505.373 113.838 505.64C113.091 505.853 112.398 506.093 111.758 506.36L110.958 504.52L124.798 498.2L125.278 498.68C125.224 499.107 125.144 500.253 125.038 502.12C124.984 503.987 124.958 506.2 124.958 508.76V526.92ZM121.758 490.68C120.584 490.68 119.598 490.28 118.798 489.48C117.998 488.68 117.598 487.693 117.598 486.52C117.598 485.4 117.998 484.44 118.798 483.64C119.598 482.84 120.584 482.44 121.758 482.44C122.931 482.44 123.918 482.84 124.718 483.64C125.518 484.44 125.918 485.4 125.918 486.52C125.918 487.693 125.518 488.68 124.718 489.48C123.918 490.28 122.931 490.68 121.758 490.68ZM158.955 528.04L160.235 529.32C158.955 531.24 157.489 532.867 155.835 534.2C154.182 535.533 152.022 536.2 149.355 536.2C147.222 536.2 145.515 535.773 144.235 534.92C143.009 534.067 142.129 532.947 141.595 531.56C141.062 530.12 140.795 528.573 140.795 526.92V503.08H135.275V499.8H140.795V488.84L147.595 487.64C147.435 489.667 147.329 491.693 147.275 493.72C147.222 495.747 147.195 497.773 147.195 499.8H159.035V503.08H149.675C148.769 503.08 148.129 503.267 147.755 503.64C147.382 504.013 147.195 504.653 147.195 505.56V525.24C147.195 526.947 147.489 528.413 148.075 529.64C148.715 530.867 149.995 531.48 151.915 531.48C153.035 531.48 154.182 531.213 155.355 530.68C156.529 530.093 157.729 529.213 158.955 528.04ZM166.178 535V533.16C167.404 533.107 168.364 532.947 169.058 532.68C169.751 532.413 170.231 531.853 170.498 531C170.818 530.147 170.978 528.787 170.978 526.92V508.6C170.978 507.213 170.764 506.307 170.338 505.88C169.911 505.453 169.324 505.24 168.578 505.24C167.991 505.24 167.404 505.32 166.818 505.48C166.284 505.587 165.724 505.773 165.138 506.04L164.338 504.2L177.218 498.2L177.698 498.68C177.591 499.16 177.458 500.2 177.298 501.8C177.191 503.347 177.138 505.053 177.138 506.92H177.298C179.484 503.667 181.884 501.48 184.498 500.36C187.164 499.24 189.938 498.787 192.818 499C193.244 502.947 193.244 506.893 192.818 510.84H190.978C190.764 508.653 190.258 507.133 189.458 506.28C188.711 505.373 187.644 504.92 186.258 504.92C184.498 504.92 182.924 505.293 181.538 506.04C180.151 506.787 178.764 508.013 177.378 509.72V526.92C177.378 528.787 177.564 530.147 177.938 531C178.311 531.853 179.031 532.413 180.098 532.68C181.218 532.947 182.844 533.107 184.978 533.16V535H166.178ZM213.428 536.2C210.708 536.2 208.094 535.56 205.588 534.28C203.134 533 201.108 531.08 199.508 528.52C197.961 525.907 197.188 522.6 197.188 518.6C197.188 514.547 197.988 511.027 199.588 508.04C201.188 505.053 203.321 502.733 205.988 501.08C208.654 499.427 211.561 498.6 214.708 498.6C217.001 498.6 219.108 499.053 221.028 499.96C223.001 500.867 224.574 502.253 225.748 504.12C226.974 505.987 227.588 508.36 227.588 511.24L203.588 514.36C203.588 514.627 203.588 514.92 203.588 515.24C203.588 520.147 204.708 523.987 206.948 526.76C209.188 529.533 212.174 530.92 215.908 530.92C218.041 530.92 220.014 530.493 221.828 529.64C223.641 528.733 225.268 527.613 226.708 526.28L227.988 527.56C226.494 530.12 224.494 532.2 221.988 533.8C219.534 535.4 216.681 536.2 213.428 536.2ZM213.028 501.56C210.254 501.56 208.121 502.547 206.628 504.52C205.134 506.493 204.201 508.92 203.828 511.8L220.388 509.64C220.068 507.347 219.374 505.427 218.308 503.88C217.241 502.333 215.481 501.56 213.028 501.56ZM245.741 536.2C241.954 536.2 239.048 535.48 237.021 534.04C234.994 532.6 233.981 530.76 233.981 528.52C233.981 527.72 234.141 526.84 234.461 525.88C234.781 524.867 235.341 523.88 236.141 522.92H237.981C238.034 526.333 238.754 528.947 240.141 530.76C241.528 532.573 243.714 533.48 246.701 533.48C249.368 533.48 251.341 532.84 252.621 531.56C253.901 530.28 254.541 528.813 254.541 527.16C254.541 525.667 254.061 524.44 253.101 523.48C252.194 522.52 250.994 521.693 249.501 521C248.061 520.253 246.514 519.56 244.861 518.92C243.208 518.227 241.634 517.48 240.141 516.68C238.701 515.827 237.501 514.787 236.541 513.56C235.634 512.333 235.181 510.787 235.181 508.92C235.181 505.987 236.354 503.533 238.701 501.56C241.048 499.587 244.328 498.6 248.541 498.6C250.194 498.6 251.874 498.76 253.581 499.08C255.288 499.347 256.888 499.907 258.381 500.76V509.96H256.541C256.168 506.813 255.154 504.6 253.501 503.32C251.848 501.987 249.901 501.32 247.661 501.32C245.474 501.32 243.821 501.8 242.701 502.76C241.581 503.72 241.021 504.973 241.021 506.52C241.021 507.96 241.474 509.16 242.381 510.12C243.341 511.027 244.541 511.827 245.981 512.52C247.474 513.213 249.021 513.907 250.621 514.6C252.274 515.24 253.821 516.013 255.261 516.92C256.754 517.773 257.954 518.867 258.861 520.2C259.821 521.48 260.301 523.107 260.301 525.08C260.301 528.653 258.914 531.4 256.141 533.32C253.368 535.24 249.901 536.2 245.741 536.2Z" fill="black"/>
</svg>
