<svg width="233" height="734" fill="none" xmlns="http://www.w3.org/2000/svg"><path d="M218.538 684.224c-1.846 21.536-17.177 40.251-24.612 46.917H11.644c-15.383 0-6.923-527.62 0-538.388 6.922-10.767 17.69-18.459 44.609-29.226 21.535-8.615 50.506-36.406 62.299-49.224l59.992-48.455c5.127 12.562 20.304 47.07 39.994 84.603 24.612 46.917 2.307 506.854 0 533.773zM110.851 3c6.666 3.59 21.844 13.537 29.227 24.612l-43.07 22.305c2.46-6.769-5.641-25.382-10-33.842L110.852 3z" fill="#fff" stroke="#81EC40" stroke-width="5"/><path d="M154.162 21.469l32.842 52.07-73.836 43.07L84.71 57.387s19.154-20 33.726-27.96c14.572-7.958 35.726-7.958 35.726-7.958z" fill="#fff" stroke="#81EC40" stroke-width="5"/></svg>