<svg width="228" height="729" viewBox="0 0 228 729" fill="none" xmlns="http://www.w3.org/2000/svg">
<path d="M215.541 681.225C213.695 702.761 198.364 721.476 190.929 728.142L8.6464 728.142C-6.73611 728.142 1.72432 200.522 8.64644 189.754C15.5686 178.986 26.3363 171.295 53.2557 160.527C74.7912 151.913 103.762 124.122 115.555 111.303L175.547 62.8486C180.674 75.411 195.851 109.919 215.541 147.452C240.153 194.369 217.848 654.306 215.541 681.225Z" fill="#D9DBDA"/>
<path d="M66.1034 442.64C65.8901 441.253 65.6768 440.107 65.4634 439.2C65.3034 438.24 65.0368 437.067 64.6634 435.68L54.9034 396.8C54.4768 394.933 54.0234 393.6 53.5434 392.8C53.1168 391.947 52.5568 391.387 51.8634 391.12C51.2234 390.853 50.3701 390.693 49.3034 390.64L49.3034 388.8L68.0234 388.8L67.9434 390.64C65.8101 390.693 64.2634 390.88 63.3034 391.2C62.3434 391.467 61.8101 392.027 61.7034 392.88C61.5968 393.733 61.7568 395.04 62.1834 396.8L70.5034 429.76L70.6634 429.76L85.7034 388.16L89.7834 388.16C90.3168 389.653 90.8234 391.12 91.3034 392.56C91.7834 393.947 92.2901 395.36 92.8234 396.8L105.383 429.76L105.623 429.76L114.183 396.8C115.197 392.907 113.117 390.853 107.943 390.64L108.023 388.8L123.303 388.8L123.303 390.64C120.85 390.853 119.09 392.907 118.023 396.8L107.703 435.68C107.33 437.067 107.037 438.24 106.823 439.2C106.663 440.107 106.477 441.253 106.263 442.64L102.103 442.64C101.837 441.253 101.543 440.107 101.223 439.2C100.903 438.24 100.477 437.067 99.9434 435.68L86.1034 398.64L85.9434 398.64L72.2634 435.68C71.7301 437.173 71.3301 438.373 71.0634 439.28C70.8501 440.133 70.5834 441.253 70.2634 442.64L66.1034 442.64ZM156.128 443.2C152.235 443.2 148.608 442.56 145.248 441.28C141.888 439.947 138.928 438.08 136.368 435.68C133.862 433.227 131.915 430.32 130.528 426.96C129.142 423.6 128.448 419.893 128.448 415.84C128.448 411.467 129.248 407.547 130.848 404.08C132.448 400.56 134.635 397.573 137.408 395.12C140.182 392.667 143.382 390.8 147.008 389.52C150.635 388.24 154.475 387.6 158.528 387.6C160.502 387.6 162.502 387.733 164.528 388C166.608 388.267 168.528 388.64 170.288 389.12C172.102 389.547 173.595 390.027 174.768 390.56L174.768 403.2L172.928 403.2C172.715 400.053 171.835 397.6 170.288 395.84C168.742 394.027 166.822 392.747 164.528 392C162.288 391.2 159.942 390.8 157.488 390.8C153.702 390.8 150.182 391.653 146.928 393.36C143.675 395.067 141.062 397.68 139.088 401.2C137.168 404.667 136.208 409.12 136.208 414.56C136.208 419.733 137.115 424.24 138.928 428.08C140.742 431.867 143.142 434.8 146.128 436.88C149.168 438.96 152.528 440 156.208 440C159.568 440 162.528 439.227 165.088 437.68C167.702 436.08 169.835 434.08 171.488 431.68C173.142 429.28 174.235 426.853 174.768 424.4L176.608 424.4L176.128 433.76C174.102 436.267 171.488 438.48 168.288 440.4C165.088 442.267 161.035 443.2 156.128 443.2Z" fill="black"/>
<path d="M107.854 -2.55508e-06C114.52 3.58925 129.697 13.5366 137.081 24.612L94.0096 46.9166C96.4708 40.1483 88.3693 21.5355 84.0109 13.0751L107.854 -2.55508e-06Z" fill="#EC1D16"/>
<path d="M151.165 18.4702L184.006 70.5398L110.17 113.611L81.7127 54.3882C81.7127 54.3882 100.867 34.3882 115.439 26.4292C130.011 18.4702 151.165 18.4702 151.165 18.4702Z" fill="#D41811"/>
</svg>
