<svg width="233" height="734" viewBox="0 0 233 734" fill="none" xmlns="http://www.w3.org/2000/svg">
<path d="M218.538 684.225C216.692 705.761 201.361 724.476 193.926 731.142L11.6435 731.142C-3.73904 731.142 4.72139 203.522 11.6435 192.754C18.5656 181.986 29.3334 174.295 56.2528 163.527C77.7883 154.913 106.759 127.122 118.552 114.303L178.544 65.8486C183.671 78.411 198.848 112.919 218.538 150.452C243.15 197.369 220.845 657.306 218.538 684.225Z" fill="white" stroke="#D9D9D9" stroke-width="5"/>
<path d="M110.851 3C117.517 6.58925 132.695 16.5366 140.078 27.612L97.0071 49.9166C99.4683 43.1483 91.3669 24.5355 87.0085 16.0751L110.851 3Z" fill="white" stroke="#81EC40" stroke-width="5"/>
<path d="M154.159 21.4697L187 73.5394L113.164 116.61L84.7064 57.3877C84.7064 57.3877 103.86 37.3877 118.432 29.4287C133.004 21.4697 154.159 21.4697 154.159 21.4697Z" fill="white" stroke="#81EC40" stroke-width="5"/>
</svg>
