<svg width="374" height="438" viewBox="0 0 374 438" fill="none" xmlns="http://www.w3.org/2000/svg">
<path d="M221.025 51.5849C186.361 52.6853 61.2317 60.7553 3 64.6526C14.0044 77.7204 210.708 79.0959 241.658 80.4715C272.608 81.847 359.956 73.5937 367.521 64.6526C375.087 55.7116 264.355 50.2094 221.025 51.5849Z" fill="white" stroke="#D9D9D9" stroke-width="5" stroke-linejoin="round"/>
<path d="M317.831 27.1675C323.352 24.2922 334.364 25.2069 339.18 26.0237L351.399 37.0003C356.891 41.9336 357.2 49.1744 356.667 52.1781C355.186 62.4548 343.331 76.7072 328.715 93.8163C315.326 109.489 295.49 133.433 286.424 134.978C279.918 137.617 264.609 125.478 263.066 124.383C263.391 124.022 261.318 123.058 256.169 118.433C249.169 112.145 251.133 103.871 255.026 97.0843C258.918 90.298 297.176 46.0729 300.097 42.821C303.019 39.569 310.93 30.7617 317.831 27.1675Z" fill="white" stroke="#81EC40" stroke-width="5" stroke-linejoin="round"/>
<path d="M302.144 13.0718C307.665 10.1965 318.677 11.1112 323.493 11.928L335.712 22.9046C341.204 27.8379 341.512 35.0787 340.98 38.0824C339.499 48.3591 327.643 62.6115 313.027 79.7206C299.638 95.3938 279.802 119.338 270.736 120.882C264.23 123.522 248.922 111.382 247.378 110.288C247.703 109.926 245.631 108.963 240.482 104.337C233.482 98.0492 235.445 89.775 239.338 82.9886C243.231 76.2023 281.489 31.9772 284.41 28.7253C287.331 25.4733 295.243 16.666 302.144 13.0718Z" fill="white" stroke="#81EC40" stroke-width="5" stroke-linejoin="round"/>
<path d="M131.591 88.8168C125.856 91.2369 119.54 100.304 117.099 104.535L117.765 120.947C118.064 128.323 123.446 133.177 126.1 134.682C134.961 140.093 153.5 140.046 175.999 139.694C196.61 139.371 227.703 139.355 234.673 133.355C240.854 130.026 241.263 110.493 241.403 108.606C240.918 108.626 241.496 106.415 241.216 99.499C240.834 90.097 233.208 86.3345 225.498 85.0068C217.788 83.679 159.325 84.9572 154.957 85.1344C150.59 85.3116 138.76 85.7916 131.591 88.8168Z" fill="white" stroke="#81EC40" stroke-width="5" stroke-linejoin="round"/>
<path d="M130.982 73.8881C125.247 76.3082 118.931 85.3751 116.49 89.606L117.156 106.018C117.455 113.394 122.837 118.248 125.49 119.753C134.352 125.164 152.891 125.117 175.39 124.765C196.001 124.443 227.094 124.426 234.064 118.426C240.245 115.097 240.653 95.5638 240.794 93.6771C240.308 93.6968 240.887 91.4859 240.606 84.5703C240.225 75.1683 232.598 71.4058 224.888 70.078C217.178 68.7503 158.716 70.0285 154.348 70.2057C149.98 70.3829 138.151 70.8629 130.982 73.8881Z" fill="white" stroke="#81EC40" stroke-width="5" stroke-linejoin="round"/>
<path d="M130.732 67.7416C124.997 70.1617 118.681 79.2286 116.24 83.4595L116.906 99.8715C117.205 107.248 122.587 112.102 125.24 113.607C134.102 119.018 152.641 118.971 175.14 118.619C195.751 118.296 226.844 118.28 233.814 112.28C239.995 108.951 240.403 89.4173 240.544 87.5306C240.058 87.5503 240.637 85.3394 240.356 78.4238C239.975 69.0218 232.348 65.2593 224.638 63.9316C216.928 62.6038 158.466 63.882 154.098 64.0592C149.73 64.2365 137.901 64.7164 130.732 67.7416Z" fill="white" stroke="#81EC40" stroke-width="5" stroke-linejoin="round"/>
<path d="M371 248.536V63.2773C371 63.2773 342.941 75.5344 211.396 75.5344C115.795 75.5344 3 63.2773 3 63.2773C5.70282 119.914 11.1085 238.797 11.1085 261.239V424.267C53.1062 428.502 147.705 436.441 190.119 434.324C232.532 432.207 321.725 426.737 361.02 424.267C360.397 419.68 359.523 403.201 361.02 373.983C362.892 337.46 371 284 371 248.536Z" fill="white" stroke="#D9D9D9" stroke-width="5" stroke-linejoin="round"/>
</svg>
