<svg width="372" height="437" fill="none" xmlns="http://www.w3.org/2000/svg"><path d="M220.025 51.585C185.361 52.685 60.232 60.755 2 64.653 13.004 77.72 209.708 79.096 240.658 80.472c30.95 1.375 118.298-6.878 125.863-15.82 7.566-8.94-103.166-14.443-146.496-13.067z" fill="#fff" stroke="#81EC40" stroke-width="4" stroke-linejoin="round"/><path d="M316.833 27.167c5.521-2.876 16.533-1.961 21.349-1.144l12.219 10.976c5.492 4.934 5.801 12.174 5.268 15.178-1.481 10.277-13.336 24.53-27.952 41.638-13.389 15.673-33.225 39.617-42.291 41.162-6.506 2.639-21.815-9.5-23.358-10.595.325-.361-1.748-1.325-6.897-5.95-7-6.288-5.036-14.562-1.143-21.349 3.892-6.786 42.15-51.011 45.071-54.263 2.922-3.252 10.833-12.06 17.734-15.653z" fill="#fff" stroke="#81EC40" stroke-width="4" stroke-linejoin="round"/><path d="M301.146 13.069c5.521-2.875 16.533-1.96 21.349-1.144l12.219 10.977c5.492 4.933 5.8 12.174 5.268 15.178-1.481 10.276-13.337 24.529-27.953 41.638-13.389 15.673-33.225 39.617-42.291 41.161-6.506 2.64-21.814-9.5-23.358-10.594.325-.362-1.747-1.325-6.896-5.951-7-6.288-5.037-14.562-1.144-21.348 3.893-6.787 42.151-51.012 45.072-54.264 2.921-3.252 10.833-12.059 17.734-15.653z" fill="#fff" stroke="#81EC40" stroke-width="4" stroke-linejoin="round"/><path d="M130.599 88.817c-5.735 2.42-12.051 11.487-14.492 15.718l.666 16.412c.299 7.376 5.681 12.23 8.335 13.735 8.861 5.411 27.4 5.364 49.899 5.012 20.611-.323 51.704-.339 58.674-6.339 6.181-3.329 6.589-22.862 6.73-24.749-.485.02.093-2.191-.187-9.107-.382-9.402-8.008-13.164-15.718-14.492-7.71-1.328-66.173-.05-70.541.127-4.368.178-16.197.658-23.366 3.683z" fill="#fff" stroke="#81EC40" stroke-width="4" stroke-linejoin="round"/><path d="M129.986 73.891c-5.735 2.42-12.051 11.487-14.492 15.718l.666 16.412c.299 7.376 5.681 12.23 8.334 13.735 8.862 5.411 27.4 5.364 49.9 5.012 20.611-.322 51.703-.339 58.674-6.339 6.181-3.329 6.589-22.862 6.73-24.749-.486.02.093-2.191-.188-9.107-.381-9.402-8.008-13.164-15.718-14.492-7.71-1.328-66.172-.05-70.54.128-4.368.177-16.197.657-23.366 3.682z" fill="#fff" stroke="#81EC40" stroke-width="4" stroke-linejoin="round"/><path d="M129.732 67.743c-5.735 2.42-12.051 11.487-14.492 15.718l.666 16.412c.299 7.376 5.681 12.23 8.334 13.735 8.862 5.411 27.401 5.364 49.9 5.012 20.611-.323 51.704-.339 58.674-6.339 6.181-3.329 6.589-22.863 6.73-24.75-.486.02.093-2.19-.188-9.106-.381-9.402-8.008-13.165-15.718-14.492-7.71-1.328-66.172-.05-70.54.127-4.368.177-16.197.657-23.366 3.683z" fill="#fff" stroke="#81EC40" stroke-width="4" stroke-linejoin="round"/><path d="M370 248.536V63.277s-28.059 12.257-159.604 12.257C114.795 75.534 2 63.277 2 63.277c2.703 56.637 8.108 175.52 8.108 197.962v163.028c41.998 4.235 136.597 12.174 179.011 10.057 42.413-2.117 131.606-7.587 170.901-10.057-.623-4.587-1.497-21.066 0-50.284C361.892 337.46 370 284 370 248.536z" fill="#fff" stroke="#81EC40" stroke-width="4" stroke-linejoin="round"/></svg>