<svg width="405" height="446" viewBox="0 0 405 446" fill="none" xmlns="http://www.w3.org/2000/svg">
<path d="M239.946 52.927C201.797 54.0562 64.0865 62.3363 0 66.3353C12.1108 79.7435 228.592 81.1549 262.654 82.5663C296.715 83.9777 392.845 75.5093 401.171 66.3353C409.498 57.1612 287.632 51.5157 239.946 52.927Z" fill="#283857"/>
<path d="M346.502 27.875C352.578 24.9248 364.698 25.8633 369.998 26.7014L383.446 37.964C389.49 43.0258 389.829 50.4553 389.243 53.5372C387.613 64.0817 374.565 78.7055 358.48 96.2603C343.745 112.342 321.915 136.91 311.937 138.494C304.777 141.203 287.929 128.747 286.231 127.624C286.588 127.253 284.307 126.264 278.641 121.519C270.937 115.067 273.098 106.577 277.382 99.6135C281.666 92.6504 323.771 47.273 326.985 43.9363C330.2 40.5997 338.907 31.5628 346.502 27.875Z" fill="#E6E6E6"/>
<path d="M334.27 17.6306C340.346 14.6804 352.466 15.6189 357.766 16.457L371.214 27.7196C377.258 32.7814 377.597 40.2109 377.011 43.2929C375.381 53.8373 362.333 68.4611 346.248 86.0159C331.513 102.098 309.683 126.665 299.705 128.25C292.545 130.958 275.697 118.503 273.999 117.38C274.356 117.009 272.075 116.02 266.409 111.274C258.705 104.822 260.866 96.3323 265.15 89.3691C269.434 82.406 311.539 37.0286 314.753 33.6919C317.968 30.3553 326.675 21.3184 334.27 17.6306Z" fill="#2D74A9"/>
<path d="M329.233 13.4126C335.309 10.4624 347.428 11.4009 352.729 12.239L366.177 23.5015C372.221 28.5634 372.56 35.9929 371.974 39.0748C370.344 49.6193 357.296 64.2431 341.211 81.7979C326.476 97.8795 304.646 122.447 294.668 124.032C287.508 126.74 270.66 114.285 268.962 113.162C269.319 112.791 267.038 111.802 261.372 107.056C253.668 100.604 255.829 92.1143 260.113 85.1511C264.397 78.188 306.501 32.8106 309.716 29.4739C312.931 26.1372 321.638 17.1004 329.233 13.4126Z" fill="#66A6D6"/>
<path d="M76.6227 74.6488C73.5029 68.9626 63.0408 63.1828 58.1998 61.0036L40.2402 62.9218C32.1684 63.7839 27.276 69.6568 25.8388 72.4855C20.6159 81.961 22.1661 100.928 24.3711 123.925C26.3911 144.991 28.922 176.807 36.0709 183.487C40.2247 189.561 61.6969 188.507 63.779 188.508C63.7182 188.013 66.1916 188.439 73.7593 187.631C84.0478 186.532 87.5609 178.444 88.395 170.455C89.2292 162.465 83.1006 102.737 82.553 98.2812C82.0055 93.8251 80.5226 81.7565 76.6227 74.6488Z" fill="#E6E6E6"/>
<path d="M92.9587 72.9039C89.8388 67.2177 79.3767 61.4379 74.5357 59.2587L56.5762 61.1769C48.5044 62.0391 43.612 67.912 42.1747 70.7406C36.9519 80.2161 38.5021 99.1831 40.7071 122.18C42.727 143.246 45.258 175.062 52.4068 181.742C56.5606 187.816 78.0328 186.762 80.1149 186.764C80.0541 186.268 82.5275 186.694 90.0952 185.886C100.384 184.787 103.897 176.699 104.731 168.71C105.565 160.72 99.4365 100.992 98.889 96.5363C98.3414 92.0802 96.8585 80.0117 92.9587 72.9039Z" fill="#2D74A9"/>
<path d="M99.6847 72.1857C96.5649 66.4995 86.1028 60.7196 81.2618 58.5405L63.3022 60.4587C55.2305 61.3208 50.338 67.1937 48.9008 70.0224C43.6779 79.4978 45.2281 98.4648 47.4331 121.461C49.4531 142.528 51.984 174.344 59.1329 181.024C63.2867 187.098 84.7589 186.044 86.841 186.045C86.7802 185.55 89.2536 185.976 96.8213 185.168C107.11 184.069 110.623 175.981 111.457 167.991C112.291 160.002 106.163 100.274 105.615 95.818C105.068 91.362 103.585 79.2934 99.6847 72.1857Z" fill="#66A6D6"/>
<path d="M162.471 94.3665C156.057 96.6091 148.707 105.642 145.834 109.878L145.834 126.731C145.834 134.306 151.535 139.506 154.386 141.159C163.889 147.076 184.277 147.798 209.034 148.373C231.713 148.9 265.905 150.177 273.837 144.315C280.783 141.159 282.103 121.151 282.342 119.222C281.807 119.222 282.542 116.98 282.542 109.878C282.542 100.223 274.323 96.0485 265.905 94.3665C257.486 92.6845 193.141 91.5632 188.33 91.5632C183.519 91.5632 170.49 91.5632 162.471 94.3665Z" fill="#E6E6E6"/>
<path d="M162.471 79.0369C156.057 81.2795 148.707 90.3123 145.834 94.5483L145.834 111.402C145.834 118.977 151.535 124.177 154.386 125.83C163.889 131.746 184.277 132.469 209.034 133.044C231.713 133.57 265.905 134.847 273.837 128.986C280.783 125.83 282.103 105.821 282.342 103.893C281.807 103.893 282.542 101.65 282.542 94.5483C282.542 84.8934 274.323 80.7189 265.905 79.0369C257.486 77.355 193.141 76.2336 188.33 76.2337C183.519 76.2337 170.49 76.2337 162.471 79.0369Z" fill="#2D74A9"/>
<path d="M162.471 72.7244C156.057 74.967 148.707 83.9998 145.834 88.2358L145.834 105.089C145.834 112.664 151.535 117.864 154.386 119.517C163.889 125.433 184.277 126.156 209.034 126.731C231.713 127.258 265.905 128.535 273.837 122.673C280.783 119.517 282.103 99.5085 282.342 97.58C281.807 97.58 282.542 95.3374 282.542 88.2358C282.542 78.5809 274.323 74.4064 265.905 72.7244C257.486 71.0425 193.141 69.9211 188.33 69.9212C183.519 69.9212 170.49 69.9212 162.471 72.7244Z" fill="#66A6D6"/>
<path d="M405 255.01V64.9238C405 64.9238 374.12 77.5002 229.349 77.5002C124.136 77.5002 0 64.9238 0 64.9238C2.97458 123.036 8.92373 245.016 8.92373 268.044V435.319C55.1441 439.664 159.254 447.811 205.932 445.638C252.61 443.466 350.771 437.854 394.017 435.319C393.331 430.613 392.369 413.704 394.017 383.725C396.076 346.251 405 291.397 405 255.01Z" fill="#49669F"/>
<path d="M67.3263 209.425H96.9713V218.005H95.7063C95.633 216.722 95.4313 215.585 95.1013 214.595C94.7713 213.605 94.148 212.835 93.2313 212.285C92.3146 211.698 90.9213 211.405 89.0513 211.405H84.4863V240.5C84.4863 241.747 84.6146 242.663 84.8713 243.25C85.1646 243.837 85.678 244.222 86.4113 244.405C87.1813 244.588 88.2813 244.698 89.7113 244.735V246H75.9613V244.735C76.9513 244.698 77.7213 244.588 78.2713 244.405C78.858 244.222 79.2613 243.837 79.4813 243.25C79.7013 242.663 79.8113 241.747 79.8113 240.5V211.405H75.1913C73.358 211.405 71.983 211.698 71.0663 212.285C70.1496 212.835 69.5263 213.605 69.1963 214.595C68.8663 215.585 68.6646 216.722 68.5913 218.005H67.3263V209.425ZM103.571 246.825C101.848 246.825 100.436 246.385 99.3359 245.505C98.2725 244.588 97.7409 243.287 97.7409 241.6C97.7409 240.243 98.1625 238.997 99.0059 237.86C99.8492 236.723 101.243 235.678 103.186 234.725C105.129 233.772 107.769 232.892 111.106 232.085V228.51C111.106 227.007 110.776 225.76 110.116 224.77C109.493 223.78 108.283 223.285 106.486 223.285C104.763 223.285 103.388 223.835 102.361 224.935C101.371 225.998 100.674 227.667 100.271 229.94H99.0059V223.065C100.289 222.442 101.646 221.947 103.076 221.58C104.543 221.177 106.156 220.975 107.916 220.975C109.933 220.975 111.473 221.25 112.536 221.8C113.636 222.313 114.406 223.047 114.846 224C115.286 224.953 115.506 226.072 115.506 227.355V240.665C115.506 242.608 116.111 243.58 117.321 243.58C117.761 243.58 118.256 243.433 118.806 243.14C119.393 242.847 120.071 242.242 120.841 241.325L121.721 242.205C120.034 245.102 118.018 246.55 115.671 246.55C113.251 246.55 111.766 245.322 111.216 242.865H111.106C109.089 245.505 106.578 246.825 103.571 246.825ZM105.606 243.58C107.366 243.58 109.199 242.773 111.106 241.16V233.79C108.466 234.45 106.523 235.183 105.276 235.99C104.029 236.76 103.204 237.548 102.801 238.355C102.434 239.125 102.251 239.84 102.251 240.5C102.251 241.563 102.581 242.352 103.241 242.865C103.901 243.342 104.689 243.58 105.606 243.58ZM139.842 220.865C141.565 220.865 143.16 221.323 144.627 222.24C146.13 223.12 147.322 224.422 148.202 226.145C149.118 227.832 149.577 229.922 149.577 232.415C149.577 234.762 149.155 236.833 148.312 238.63C147.505 240.39 146.405 241.875 145.012 243.085C143.655 244.295 142.133 245.212 140.447 245.835C138.797 246.422 137.128 246.715 135.442 246.715C134.232 246.715 133.15 246.623 132.197 246.44C131.243 246.257 130.4 246.018 129.667 245.725L126.697 246.55V209.865C126.697 208.838 126.532 208.178 126.202 207.885C125.908 207.592 125.505 207.445 124.992 207.445C124.515 207.445 124.002 207.518 123.452 207.665C122.938 207.812 122.462 207.995 122.022 208.215L121.472 206.95L130.987 202.55L131.317 202.88C131.28 203.173 131.225 203.962 131.152 205.245C131.115 206.528 131.097 208.05 131.097 209.81V225.87C132.05 224.513 133.242 223.34 134.672 222.35C136.138 221.36 137.862 220.865 139.842 220.865ZM136.872 244.24C139.255 244.24 141.217 243.452 142.757 241.875C144.297 240.262 145.067 237.732 145.067 234.285C145.067 231.132 144.425 228.657 143.142 226.86C141.858 225.063 140.19 224.165 138.137 224.165C136.89 224.165 135.662 224.495 134.452 225.155C133.242 225.815 132.123 226.622 131.097 227.575V241.985C131.977 242.902 132.948 243.507 134.012 243.8C135.112 244.093 136.065 244.24 136.872 244.24ZM162.148 240.445C162.148 241.728 162.276 242.663 162.533 243.25C162.79 243.837 163.248 244.222 163.908 244.405C164.605 244.588 165.576 244.698 166.823 244.735V246H154.448V244.735C155.255 244.698 155.896 244.588 156.373 244.405C156.85 244.222 157.198 243.837 157.418 243.25C157.638 242.663 157.748 241.728 157.748 240.445V209.865C157.748 208.838 157.583 208.178 157.253 207.885C156.96 207.592 156.556 207.445 156.043 207.445C155.566 207.445 155.053 207.518 154.503 207.665C153.99 207.812 153.513 207.995 153.073 208.215L152.523 206.95L162.038 202.55L162.368 202.88C162.331 203.173 162.276 203.962 162.203 205.245C162.166 206.528 162.148 208.05 162.148 209.81V240.445ZM181.515 246.825C179.645 246.825 177.849 246.385 176.125 245.505C174.439 244.625 173.045 243.305 171.945 241.545C170.882 239.748 170.35 237.475 170.35 234.725C170.35 231.938 170.9 229.518 172 227.465C173.1 225.412 174.567 223.817 176.4 222.68C178.234 221.543 180.232 220.975 182.395 220.975C183.972 220.975 185.42 221.287 186.74 221.91C188.097 222.533 189.179 223.487 189.985 224.77C190.829 226.053 191.25 227.685 191.25 229.665L174.75 231.81C174.75 231.993 174.75 232.195 174.75 232.415C174.75 235.788 175.52 238.428 177.06 240.335C178.6 242.242 180.654 243.195 183.22 243.195C184.687 243.195 186.044 242.902 187.29 242.315C188.537 241.692 189.655 240.922 190.645 240.005L191.525 240.885C190.499 242.645 189.124 244.075 187.4 245.175C185.714 246.275 183.752 246.825 181.515 246.825ZM181.24 223.01C179.334 223.01 177.867 223.688 176.84 225.045C175.814 226.402 175.172 228.07 174.915 230.05L186.3 228.565C186.08 226.988 185.604 225.668 184.87 224.605C184.137 223.542 182.927 223.01 181.24 223.01ZM210.936 241.215L211.816 242.095C210.936 243.415 209.927 244.533 208.791 245.45C207.654 246.367 206.169 246.825 204.336 246.825C202.869 246.825 201.696 246.532 200.816 245.945C199.972 245.358 199.367 244.588 199.001 243.635C198.634 242.645 198.451 241.582 198.451 240.445V224.055H194.656V221.8H198.451V214.265L203.126 213.44C203.016 214.833 202.942 216.227 202.906 217.62C202.869 219.013 202.851 220.407 202.851 221.8H210.991V224.055H204.556C203.932 224.055 203.492 224.183 203.236 224.44C202.979 224.697 202.851 225.137 202.851 225.76V239.29C202.851 240.463 203.052 241.472 203.456 242.315C203.896 243.158 204.776 243.58 206.096 243.58C206.866 243.58 207.654 243.397 208.461 243.03C209.267 242.627 210.092 242.022 210.936 241.215ZM230.916 241.215L231.796 242.095C230.916 243.415 229.908 244.533 228.771 245.45C227.634 246.367 226.149 246.825 224.316 246.825C222.849 246.825 221.676 246.532 220.796 245.945C219.953 245.358 219.348 244.588 218.981 243.635C218.614 242.645 218.431 241.582 218.431 240.445V224.055H214.636V221.8H218.431V214.265L223.106 213.44C222.996 214.833 222.923 216.227 222.886 217.62C222.849 219.013 222.831 220.407 222.831 221.8H230.971V224.055H224.536C223.913 224.055 223.473 224.183 223.216 224.44C222.959 224.697 222.831 225.137 222.831 225.76V239.29C222.831 240.463 223.033 241.472 223.436 242.315C223.876 243.158 224.756 243.58 226.076 243.58C226.846 243.58 227.634 243.397 228.441 243.03C229.248 242.627 230.073 242.022 230.916 241.215ZM246.882 246.825C245.012 246.825 243.215 246.385 241.492 245.505C239.805 244.625 238.412 243.305 237.312 241.545C236.248 239.748 235.717 237.475 235.717 234.725C235.717 231.938 236.267 229.518 237.367 227.465C238.467 225.412 239.933 223.817 241.767 222.68C243.6 221.543 245.598 220.975 247.762 220.975C249.338 220.975 250.787 221.287 252.107 221.91C253.463 222.533 254.545 223.487 255.352 224.77C256.195 226.053 256.617 227.685 256.617 229.665L240.117 231.81C240.117 231.993 240.117 232.195 240.117 232.415C240.117 235.788 240.887 238.428 242.427 240.335C243.967 242.242 246.02 243.195 248.587 243.195C250.053 243.195 251.41 242.902 252.657 242.315C253.903 241.692 255.022 240.922 256.012 240.005L256.892 240.885C255.865 242.645 254.49 244.075 252.767 245.175C251.08 246.275 249.118 246.825 246.882 246.825ZM246.607 223.01C244.7 223.01 243.233 223.688 242.207 225.045C241.18 226.402 240.538 228.07 240.282 230.05L251.667 228.565C251.447 226.988 250.97 225.668 250.237 224.605C249.503 223.542 248.293 223.01 246.607 223.01ZM269.097 246.825C266.493 246.825 264.495 246.33 263.102 245.34C261.708 244.35 261.012 243.085 261.012 241.545C261.012 240.995 261.122 240.39 261.342 239.73C261.562 239.033 261.947 238.355 262.497 237.695H263.762C263.798 240.042 264.293 241.838 265.247 243.085C266.2 244.332 267.703 244.955 269.757 244.955C271.59 244.955 272.947 244.515 273.827 243.635C274.707 242.755 275.147 241.747 275.147 240.61C275.147 239.583 274.817 238.74 274.157 238.08C273.533 237.42 272.708 236.852 271.682 236.375C270.692 235.862 269.628 235.385 268.492 234.945C267.355 234.468 266.273 233.955 265.247 233.405C264.257 232.818 263.432 232.103 262.772 231.26C262.148 230.417 261.837 229.353 261.837 228.07C261.837 226.053 262.643 224.367 264.257 223.01C265.87 221.653 268.125 220.975 271.022 220.975C272.158 220.975 273.313 221.085 274.487 221.305C275.66 221.488 276.76 221.873 277.787 222.46V228.785H276.522C276.265 226.622 275.568 225.1 274.432 224.22C273.295 223.303 271.957 222.845 270.417 222.845C268.913 222.845 267.777 223.175 267.007 223.835C266.237 224.495 265.852 225.357 265.852 226.42C265.852 227.41 266.163 228.235 266.787 228.895C267.447 229.518 268.272 230.068 269.262 230.545C270.288 231.022 271.352 231.498 272.452 231.975C273.588 232.415 274.652 232.947 275.642 233.57C276.668 234.157 277.493 234.908 278.117 235.825C278.777 236.705 279.107 237.823 279.107 239.18C279.107 241.637 278.153 243.525 276.247 244.845C274.34 246.165 271.957 246.825 269.097 246.825ZM326.959 241.765L327.509 243.03L318.544 247.155L318.214 246.825C318.287 246.495 318.36 245.853 318.434 244.9C318.544 243.91 318.599 242.865 318.599 241.765H318.544C317.59 243.122 316.38 244.313 314.914 245.34C313.484 246.33 311.76 246.825 309.744 246.825C308.02 246.825 306.407 246.385 304.904 245.505C303.437 244.588 302.245 243.268 301.329 241.545C300.449 239.822 300.009 237.732 300.009 235.275C300.009 232.928 300.412 230.875 301.219 229.115C302.062 227.318 303.162 225.815 304.519 224.605C305.912 223.395 307.434 222.497 309.084 221.91C310.77 221.287 312.457 220.975 314.144 220.975C315.83 220.975 317.279 221.14 318.489 221.47V209.865C318.489 208.838 318.324 208.178 317.994 207.885C317.7 207.592 317.297 207.445 316.784 207.445C316.307 207.445 315.794 207.518 315.244 207.665C314.73 207.812 314.254 207.995 313.814 208.215L313.264 206.95L322.779 202.55L323.109 202.88C323.072 203.173 323.017 203.962 322.944 205.245C322.907 206.528 322.889 208.05 322.889 209.81V239.84C322.889 240.867 323.035 241.527 323.329 241.82C323.659 242.113 324.08 242.26 324.594 242.26C325.364 242.26 326.152 242.095 326.959 241.765ZM311.449 243.525C312.732 243.525 313.96 243.195 315.134 242.535C316.344 241.875 317.462 241.068 318.489 240.115V225.705C317.609 224.752 316.619 224.147 315.519 223.89C314.455 223.597 313.52 223.45 312.714 223.45C310.367 223.45 308.405 224.257 306.829 225.87C305.289 227.447 304.519 229.958 304.519 233.405C304.519 236.558 305.16 239.033 306.444 240.83C307.727 242.627 309.395 243.525 311.449 243.525ZM342.218 246.825C340.348 246.825 338.552 246.385 336.828 245.505C335.142 244.625 333.748 243.305 332.648 241.545C331.585 239.748 331.053 237.475 331.053 234.725C331.053 231.938 331.603 229.518 332.703 227.465C333.803 225.412 335.27 223.817 337.103 222.68C338.937 221.543 340.935 220.975 343.098 220.975C344.675 220.975 346.123 221.287 347.443 221.91C348.8 222.533 349.882 223.487 350.688 224.77C351.532 226.053 351.953 227.685 351.953 229.665L335.453 231.81C335.453 231.993 335.453 232.195 335.453 232.415C335.453 235.788 336.223 238.428 337.763 240.335C339.303 242.242 341.357 243.195 343.923 243.195C345.39 243.195 346.747 242.902 347.993 242.315C349.24 241.692 350.358 240.922 351.348 240.005L352.228 240.885C351.202 242.645 349.827 244.075 348.103 245.175C346.417 246.275 344.455 246.825 342.218 246.825ZM341.943 223.01C340.037 223.01 338.57 223.688 337.543 225.045C336.517 226.402 335.875 228.07 335.618 230.05L347.003 228.565C346.783 226.988 346.307 225.668 345.573 224.605C344.84 223.542 343.63 223.01 341.943 223.01ZM67.0528 306.445C67.0528 307.728 67.1811 308.663 67.4378 309.25C67.6945 309.837 68.1528 310.222 68.8128 310.405C69.5095 310.588 70.4811 310.698 71.7278 310.735V312H59.3528V310.735C60.1595 310.698 60.8011 310.588 61.2778 310.405C61.7545 310.222 62.1028 309.837 62.3228 309.25C62.5428 308.663 62.6528 307.728 62.6528 306.445V275.865C62.6528 274.838 62.4878 274.178 62.1578 273.885C61.8645 273.592 61.4611 273.445 60.9478 273.445C60.4711 273.445 59.9578 273.518 59.4078 273.665C58.8945 273.812 58.4178 273.995 57.9778 274.215L57.4278 272.95L66.9428 268.55L67.2728 268.88C67.2361 269.173 67.1811 269.962 67.1078 271.245C67.0711 272.528 67.0528 274.05 67.0528 275.81V306.445ZM81.4151 312.825C79.6918 312.825 78.2801 312.385 77.1801 311.505C76.1168 310.588 75.5851 309.287 75.5851 307.6C75.5851 306.243 76.0068 304.997 76.8501 303.86C77.6934 302.723 79.0868 301.678 81.0301 300.725C82.9734 299.772 85.6134 298.892 88.9501 298.085V294.51C88.9501 293.007 88.6201 291.76 87.9601 290.77C87.3368 289.78 86.1268 289.285 84.3301 289.285C82.6068 289.285 81.2318 289.835 80.2051 290.935C79.2151 291.998 78.5184 293.667 78.1151 295.94H76.8501V289.065C78.1334 288.442 79.4901 287.947 80.9201 287.58C82.3868 287.177 84.0001 286.975 85.7601 286.975C87.7768 286.975 89.3168 287.25 90.3801 287.8C91.4801 288.313 92.2501 289.047 92.6901 290C93.1301 290.953 93.3501 292.072 93.3501 293.355V306.665C93.3501 308.608 93.9551 309.58 95.1651 309.58C95.6051 309.58 96.1001 309.433 96.6501 309.14C97.2368 308.847 97.9151 308.242 98.6851 307.325L99.5651 308.205C97.8784 311.102 95.8618 312.55 93.5151 312.55C91.0951 312.55 89.6101 311.322 89.0601 308.865H88.9501C86.9334 311.505 84.4218 312.825 81.4151 312.825ZM83.4501 309.58C85.2101 309.58 87.0434 308.773 88.9501 307.16V299.79C86.3101 300.45 84.3668 301.183 83.1201 301.99C81.8734 302.76 81.0484 303.548 80.6451 304.355C80.2784 305.125 80.0951 305.84 80.0951 306.5C80.0951 307.563 80.4251 308.352 81.0851 308.865C81.7451 309.342 82.5334 309.58 83.4501 309.58ZM110.866 312.55C110.609 311.597 110.353 310.772 110.096 310.075C109.876 309.378 109.564 308.572 109.161 307.655L103.001 293.19C102.488 291.943 102.011 291.045 101.571 290.495C101.168 289.945 100.728 289.578 100.251 289.395C99.8109 289.212 99.2609 289.102 98.6009 289.065V287.8H110.206V289.065C108.959 289.102 108.079 289.23 107.566 289.45C107.053 289.633 106.833 290.018 106.906 290.605C106.979 291.155 107.254 292.017 107.731 293.19L113.066 305.84H113.176L118.401 293.19C119.134 291.467 119.263 290.367 118.786 289.89C118.346 289.413 117.154 289.138 115.211 289.065V287.8H124.946V289.065C124.396 289.102 123.901 289.23 123.461 289.45C123.021 289.633 122.599 290.018 122.196 290.605C121.829 291.155 121.389 292.017 120.876 293.19L114.771 307.655C114.368 308.645 114.074 309.47 113.891 310.13C113.708 310.79 113.506 311.597 113.286 312.55H110.866ZM138.359 312.825C136.489 312.825 134.692 312.385 132.969 311.505C131.282 310.625 129.889 309.305 128.789 307.545C127.725 305.748 127.194 303.475 127.194 300.725C127.194 297.938 127.744 295.518 128.844 293.465C129.944 291.412 131.41 289.817 133.244 288.68C135.077 287.543 137.075 286.975 139.239 286.975C140.815 286.975 142.264 287.287 143.584 287.91C144.94 288.533 146.022 289.487 146.829 290.77C147.672 292.053 148.094 293.685 148.094 295.665L131.594 297.81C131.594 297.993 131.594 298.195 131.594 298.415C131.594 301.788 132.364 304.428 133.904 306.335C135.444 308.242 137.497 309.195 140.064 309.195C141.53 309.195 142.887 308.902 144.134 308.315C145.38 307.692 146.499 306.922 147.489 306.005L148.369 306.885C147.342 308.645 145.967 310.075 144.244 311.175C142.557 312.275 140.595 312.825 138.359 312.825ZM138.084 289.01C136.177 289.01 134.71 289.688 133.684 291.045C132.657 292.402 132.015 294.07 131.759 296.05L143.144 294.565C142.924 292.988 142.447 291.668 141.714 290.605C140.98 289.542 139.77 289.01 138.084 289.01ZM165.689 299.515L151.554 300.78L151.389 297.7L165.469 296.49L165.689 299.515ZM178.166 312.55C177.909 311.597 177.652 310.772 177.396 310.075C177.176 309.378 176.864 308.572 176.461 307.655L170.301 293.19C169.787 291.943 169.311 291.045 168.871 290.495C168.467 289.945 168.027 289.578 167.551 289.395C167.111 289.212 166.561 289.102 165.901 289.065V287.8H177.506V289.065C176.259 289.102 175.379 289.23 174.866 289.45C174.352 289.633 174.132 290.018 174.206 290.605C174.279 291.155 174.554 292.017 175.031 293.19L180.366 305.84H180.476L185.701 293.19C186.434 291.467 186.562 290.367 186.086 289.89C185.646 289.413 184.454 289.138 182.511 289.065V287.8H192.246V289.065C191.696 289.102 191.201 289.23 190.761 289.45C190.321 289.633 189.899 290.018 189.496 290.605C189.129 291.155 188.689 292.017 188.176 293.19L182.071 307.655C181.667 308.645 181.374 309.47 181.191 310.13C181.007 310.79 180.806 311.597 180.586 312.55H178.166ZM200.653 312.825C198.93 312.825 197.518 312.385 196.418 311.505C195.355 310.588 194.823 309.287 194.823 307.6C194.823 306.243 195.245 304.997 196.088 303.86C196.932 302.723 198.325 301.678 200.268 300.725C202.212 299.772 204.852 298.892 208.188 298.085V294.51C208.188 293.007 207.858 291.76 207.198 290.77C206.575 289.78 205.365 289.285 203.568 289.285C201.845 289.285 200.47 289.835 199.443 290.935C198.453 291.998 197.757 293.667 197.353 295.94H196.088V289.065C197.372 288.442 198.728 287.947 200.158 287.58C201.625 287.177 203.238 286.975 204.998 286.975C207.015 286.975 208.555 287.25 209.618 287.8C210.718 288.313 211.488 289.047 211.928 290C212.368 290.953 212.588 292.072 212.588 293.355V306.665C212.588 308.608 213.193 309.58 214.403 309.58C214.843 309.58 215.338 309.433 215.888 309.14C216.475 308.847 217.153 308.242 217.923 307.325L218.803 308.205C217.117 311.102 215.1 312.55 212.753 312.55C210.333 312.55 208.848 311.322 208.298 308.865H208.188C206.172 311.505 203.66 312.825 200.653 312.825ZM202.688 309.58C204.448 309.58 206.282 308.773 208.188 307.16V299.79C205.548 300.45 203.605 301.183 202.358 301.99C201.112 302.76 200.287 303.548 199.883 304.355C199.517 305.125 199.333 305.84 199.333 306.5C199.333 307.563 199.663 308.352 200.323 308.865C200.983 309.342 201.772 309.58 202.688 309.58ZM228.839 306.445C228.839 307.728 228.967 308.663 229.224 309.25C229.481 309.837 229.939 310.222 230.599 310.405C231.296 310.588 232.267 310.698 233.514 310.735V312H221.139V310.735C221.946 310.698 222.587 310.588 223.064 310.405C223.541 310.222 223.889 309.837 224.109 309.25C224.329 308.663 224.439 307.728 224.439 306.445V294.015C224.439 292.988 224.274 292.328 223.944 292.035C223.651 291.705 223.247 291.54 222.734 291.54C222.257 291.54 221.744 291.632 221.194 291.815C220.681 291.962 220.204 292.127 219.764 292.31L219.214 291.045L228.729 286.7L229.059 287.03C229.022 287.323 228.967 288.112 228.894 289.395C228.857 290.678 228.839 292.2 228.839 293.96V306.445ZM226.639 281.53C225.832 281.53 225.154 281.255 224.604 280.705C224.054 280.155 223.779 279.477 223.779 278.67C223.779 277.9 224.054 277.24 224.604 276.69C225.154 276.14 225.832 275.865 226.639 275.865C227.446 275.865 228.124 276.14 228.674 276.69C229.224 277.24 229.499 277.9 229.499 278.67C229.499 279.477 229.224 280.155 228.674 280.705C228.124 281.255 227.446 281.53 226.639 281.53ZM245.007 312.825C242.404 312.825 240.406 312.33 239.012 311.34C237.619 310.35 236.922 309.085 236.922 307.545C236.922 306.995 237.032 306.39 237.252 305.73C237.472 305.033 237.857 304.355 238.407 303.695H239.672C239.709 306.042 240.204 307.838 241.157 309.085C242.111 310.332 243.614 310.955 245.667 310.955C247.501 310.955 248.857 310.515 249.737 309.635C250.617 308.755 251.057 307.747 251.057 306.61C251.057 305.583 250.727 304.74 250.067 304.08C249.444 303.42 248.619 302.852 247.592 302.375C246.602 301.862 245.539 301.385 244.402 300.945C243.266 300.468 242.184 299.955 241.157 299.405C240.167 298.818 239.342 298.103 238.682 297.26C238.059 296.417 237.747 295.353 237.747 294.07C237.747 292.053 238.554 290.367 240.167 289.01C241.781 287.653 244.036 286.975 246.932 286.975C248.069 286.975 249.224 287.085 250.397 287.305C251.571 287.488 252.671 287.873 253.697 288.46V294.785H252.432C252.176 292.622 251.479 291.1 250.342 290.22C249.206 289.303 247.867 288.845 246.327 288.845C244.824 288.845 243.687 289.175 242.917 289.835C242.147 290.495 241.762 291.357 241.762 292.42C241.762 293.41 242.074 294.235 242.697 294.895C243.357 295.518 244.182 296.068 245.172 296.545C246.199 297.022 247.262 297.498 248.362 297.975C249.499 298.415 250.562 298.947 251.552 299.57C252.579 300.157 253.404 300.908 254.027 301.825C254.687 302.705 255.017 303.823 255.017 305.18C255.017 307.637 254.064 309.525 252.157 310.845C250.251 312.165 247.867 312.825 245.007 312.825ZM267.62 312.825C265.016 312.825 263.018 312.33 261.625 311.34C260.231 310.35 259.535 309.085 259.535 307.545C259.535 306.995 259.645 306.39 259.865 305.73C260.085 305.033 260.47 304.355 261.02 303.695H262.285C262.321 306.042 262.816 307.838 263.77 309.085C264.723 310.332 266.226 310.955 268.28 310.955C270.113 310.955 271.47 310.515 272.35 309.635C273.23 308.755 273.67 307.747 273.67 306.61C273.67 305.583 273.34 304.74 272.68 304.08C272.056 303.42 271.231 302.852 270.205 302.375C269.215 301.862 268.151 301.385 267.015 300.945C265.878 300.468 264.796 299.955 263.77 299.405C262.78 298.818 261.955 298.103 261.295 297.26C260.671 296.417 260.36 295.353 260.36 294.07C260.36 292.053 261.166 290.367 262.78 289.01C264.393 287.653 266.648 286.975 269.545 286.975C270.681 286.975 271.836 287.085 273.01 287.305C274.183 287.488 275.283 287.873 276.31 288.46V294.785H275.045C274.788 292.622 274.091 291.1 272.955 290.22C271.818 289.303 270.48 288.845 268.94 288.845C267.436 288.845 266.3 289.175 265.53 289.835C264.76 290.495 264.375 291.357 264.375 292.42C264.375 293.41 264.686 294.235 265.31 294.895C265.97 295.518 266.795 296.068 267.785 296.545C268.811 297.022 269.875 297.498 270.975 297.975C272.111 298.415 273.175 298.947 274.165 299.57C275.191 300.157 276.016 300.908 276.64 301.825C277.3 302.705 277.63 303.823 277.63 305.18C277.63 307.637 276.676 309.525 274.77 310.845C272.863 312.165 270.48 312.825 267.62 312.825ZM293.422 312.825C291.552 312.825 289.755 312.385 288.032 311.505C286.345 310.625 284.952 309.305 283.852 307.545C282.789 305.748 282.257 303.475 282.257 300.725C282.257 297.938 282.807 295.518 283.907 293.465C285.007 291.412 286.474 289.817 288.307 288.68C290.14 287.543 292.139 286.975 294.302 286.975C295.879 286.975 297.327 287.287 298.647 287.91C300.004 288.533 301.085 289.487 301.892 290.77C302.735 292.053 303.157 293.685 303.157 295.665L286.657 297.81C286.657 297.993 286.657 298.195 286.657 298.415C286.657 301.788 287.427 304.428 288.967 306.335C290.507 308.242 292.56 309.195 295.127 309.195C296.594 309.195 297.95 308.902 299.197 308.315C300.444 307.692 301.562 306.922 302.552 306.005L303.432 306.885C302.405 308.645 301.03 310.075 299.307 311.175C297.62 312.275 295.659 312.825 293.422 312.825ZM293.147 289.01C291.24 289.01 289.774 289.688 288.747 291.045C287.72 292.402 287.079 294.07 286.822 296.05L298.207 294.565C297.987 292.988 297.51 291.668 296.777 290.605C296.044 289.542 294.834 289.01 293.147 289.01ZM315.197 306.445C315.197 307.728 315.326 308.663 315.582 309.25C315.839 309.837 316.297 310.222 316.957 310.405C317.654 310.588 318.626 310.698 319.872 310.735V312H307.497V310.735C308.304 310.698 308.946 310.588 309.422 310.405C309.899 310.222 310.247 309.837 310.467 309.25C310.687 308.663 310.797 307.728 310.797 306.445V275.865C310.797 274.838 310.632 274.178 310.302 273.885C310.009 273.592 309.606 273.445 309.092 273.445C308.616 273.445 308.102 273.518 307.552 273.665C307.039 273.812 306.562 273.995 306.122 274.215L305.572 272.95L315.087 268.55L315.417 268.88C315.381 269.173 315.326 269.962 315.252 271.245C315.216 272.528 315.197 274.05 315.197 275.81V306.445ZM330.935 306.445C330.935 307.728 331.063 308.663 331.32 309.25C331.576 309.837 332.035 310.222 332.695 310.405C333.391 310.588 334.363 310.698 335.61 310.735V312H323.235V310.735C324.041 310.698 324.683 310.588 325.16 310.405C325.636 310.222 325.985 309.837 326.205 309.25C326.425 308.663 326.535 307.728 326.535 306.445V275.865C326.535 274.838 326.37 274.178 326.04 273.885C325.746 273.592 325.343 273.445 324.83 273.445C324.353 273.445 323.84 273.518 323.29 273.665C322.776 273.812 322.3 273.995 321.86 274.215L321.31 272.95L330.825 268.55L331.155 268.88C331.118 269.173 331.063 269.962 330.99 271.245C330.953 272.528 330.935 274.05 330.935 275.81V306.445ZM350.302 312.825C348.432 312.825 346.635 312.385 344.912 311.505C343.225 310.625 341.832 309.305 340.732 307.545C339.669 305.748 339.137 303.475 339.137 300.725C339.137 297.938 339.687 295.518 340.787 293.465C341.887 291.412 343.354 289.817 345.187 288.68C347.02 287.543 349.019 286.975 351.182 286.975C352.759 286.975 354.207 287.287 355.527 287.91C356.884 288.533 357.965 289.487 358.772 290.77C359.615 292.053 360.037 293.685 360.037 295.665L343.537 297.81C343.537 297.993 343.537 298.195 343.537 298.415C343.537 301.788 344.307 304.428 345.847 306.335C347.387 308.242 349.44 309.195 352.007 309.195C353.474 309.195 354.83 308.902 356.077 308.315C357.324 307.692 358.442 306.922 359.432 306.005L360.312 306.885C359.285 308.645 357.91 310.075 356.187 311.175C354.5 312.275 352.539 312.825 350.302 312.825ZM350.027 289.01C348.12 289.01 346.654 289.688 345.627 291.045C344.6 292.402 343.959 294.07 343.702 296.05L355.087 294.565C354.867 292.988 354.39 291.668 353.657 290.605C352.924 289.542 351.714 289.01 350.027 289.01Z" fill="black"/>
</svg>
