<svg width="229" height="688" viewBox="0 0 229 688" fill="none" xmlns="http://www.w3.org/2000/svg">
<path d="M3 505.579C3 439.686 43.4855 264.062 63.7283 184.487H140.511C148.887 230.092 166.757 326.745 171.224 348.523C176.808 375.746 206.126 390.405 218.69 421.816C231.254 453.227 226.368 629.828 218.69 652.165C211.012 674.501 153.076 684.972 120.268 684.972C87.4611 684.972 41.3914 673.803 26.7329 670.313C12.0743 666.823 3 587.946 3 505.579Z" fill="white" stroke="#D9D9D9" stroke-width="5"/>
<path d="M62.8614 91.0681V184.487H140.237C138.488 149.164 136.04 75.5913 140.237 63.8791C144.433 52.1669 175.208 43.1969 190.071 40.1759V3.92384C185.481 3.22669 160.826 2.25067 98.9261 3.92384C37.026 5.59701 18.491 62.7172 16.9609 91.0681H62.8614Z" fill="white" stroke="#81EC40" stroke-width="5"/>
<path d="M218.692 4.87402H189.375V39.0773H218.692V4.87402Z" fill="white" stroke="#81EC40" stroke-width="5"/>
<path d="M171.92 79.085C171.92 70.7087 179.598 46.7431 183.786 41.3916L166.336 45.5798L150.281 53.258C151.445 72.1047 161.17 101.282 168.43 111.892C182.39 132.296 200.539 150.982 221.48 145.397C204.727 141.874 171.92 95.8376 171.92 79.085Z" fill="white" stroke="#81EC40" stroke-width="5"/>
</svg>
