<svg width="224" height="682" viewBox="0 0 224 682" fill="none" xmlns="http://www.w3.org/2000/svg">
<path d="M0 502.579C0 436.686 40.4855 261.062 60.7283 181.487H137.511C145.887 227.092 163.757 323.745 168.224 345.523C173.808 372.746 203.126 387.405 215.69 418.816C228.254 450.227 223.368 626.828 215.69 649.165C208.012 671.501 150.076 681.972 117.268 681.972C84.4611 681.972 38.3914 670.803 23.7329 667.313C9.07434 663.823 0 584.946 0 502.579Z" fill="#EFD6AC"/>
<path d="M59.8604 88.0681V181.487H137.236C135.487 146.164 133.039 72.5913 137.236 60.8791C141.432 49.1669 172.207 40.1969 187.07 37.1759V0.923844C182.48 0.226689 157.825 -0.749326 95.9251 0.923844C34.025 2.59701 15.49 59.7172 13.96 88.0681H59.8604Z" fill="#BE1B1E"/>
<path d="M215.69 1.87451H186.373V36.0778H215.69V1.87451Z" fill="#9C1619"/>
<path d="M168.922 76.085C168.922 67.7087 176.6 43.7431 180.788 38.3916L163.338 42.5798L147.283 50.258C148.447 69.1047 158.172 98.2822 165.432 108.892C179.392 129.296 197.541 147.982 218.482 142.397C201.729 138.874 168.922 92.8376 168.922 76.085Z" fill="#9C1619"/>
<path d="M147.285 85.8567C143.376 83.623 137.28 84.926 134.72 85.8567C134.72 78.8764 135.279 63.799 137.512 59.3317C139.746 54.8643 144.958 51.4207 147.285 50.2573L157.535 92.1389C156.139 90.9755 151.194 88.0904 147.285 85.8567Z" fill="#861315"/>
<path d="M64.795 444.48C64.475 443.56 64.095 442.64 63.655 441.72C63.215 440.76 62.615 439.44 61.855 437.76L50.395 412.26H50.275L49.075 438C49.035 439.48 49.375 440.6 50.095 441.36C50.815 442.12 52.395 442.54 54.835 442.62V444H42.055V442.62C43.615 442.54 44.695 442.12 45.295 441.36C45.935 440.6 46.275 439.48 46.315 438L47.695 410.1C47.775 408.7 47.675 407.7 47.395 407.1C47.155 406.46 46.655 406.04 45.895 405.84C45.135 405.64 43.995 405.52 42.475 405.48V404.1H52.675C52.995 405.14 53.335 406.12 53.695 407.04C54.095 407.96 54.555 408.98 55.075 410.1L67.195 436.74H67.315L78.475 410.1C78.915 409.06 79.295 408.06 79.615 407.1C79.975 406.1 80.295 405.1 80.575 404.1H90.055V405.48C88.935 405.52 88.055 405.64 87.415 405.84C86.775 406.04 86.335 406.46 86.095 407.1C85.895 407.7 85.815 408.7 85.855 410.1L87.115 438C87.195 439.36 87.375 440.36 87.655 441C87.935 441.64 88.435 442.06 89.155 442.26C89.915 442.42 90.955 442.54 92.275 442.62V444H78.355V442.62C79.315 442.54 80.075 442.42 80.635 442.26C81.195 442.06 81.575 441.64 81.775 441C82.015 440.36 82.095 439.36 82.015 438L80.875 411.84H80.755L69.775 437.76C69.095 439.44 68.555 440.76 68.155 441.72C67.795 442.64 67.495 443.56 67.255 444.48H64.795ZM127.059 439.38L127.659 440.76L117.939 445.26L117.579 444.9C117.659 444.54 117.739 443.84 117.819 442.8C117.939 441.72 117.999 440.58 117.999 439.38H117.879C116.319 440.98 114.699 442.3 113.019 443.34C111.379 444.38 109.519 444.9 107.439 444.9C104.919 444.9 103.159 444.26 102.159 442.98C101.199 441.7 100.719 440.04 100.719 438V424.2C100.719 423.16 100.539 422.48 100.179 422.16C99.8591 421.84 99.4191 421.68 98.8591 421.68C98.0591 421.68 97.1991 421.88 96.2791 422.28L95.6791 420.9L105.399 416.4L105.759 416.76C105.719 417.08 105.659 417.94 105.579 419.34C105.539 420.7 105.519 422.3 105.519 424.14V436.5C105.519 437.9 105.799 439 106.359 439.8C106.959 440.6 108.019 441 109.539 441C110.819 441 112.139 440.74 113.499 440.22C114.899 439.66 116.339 438.78 117.819 437.58V424.2C117.819 423.16 117.659 422.48 117.339 422.16C117.019 421.84 116.559 421.68 115.959 421.68C115.439 421.68 114.899 421.78 114.339 421.98C113.779 422.14 113.279 422.32 112.839 422.52L112.239 421.14L122.499 416.4L122.859 416.76C122.819 417.08 122.759 417.94 122.679 419.34C122.639 420.7 122.619 422.3 122.619 424.14V437.28C122.619 438.4 122.779 439.12 123.099 439.44C123.459 439.76 123.919 439.92 124.479 439.92C125.359 439.92 126.219 439.74 127.059 439.38ZM139.562 437.94C139.562 439.34 139.702 440.36 139.982 441C140.262 441.64 140.762 442.06 141.482 442.26C142.242 442.46 143.302 442.58 144.662 442.62V444H131.162V442.62C132.042 442.58 132.742 442.46 133.262 442.26C133.782 442.06 134.162 441.64 134.402 441C134.642 440.36 134.762 439.34 134.762 437.94V404.58C134.762 403.46 134.582 402.74 134.222 402.42C133.902 402.1 133.462 401.94 132.902 401.94C132.382 401.94 131.822 402.02 131.222 402.18C130.662 402.34 130.142 402.54 129.662 402.78L129.062 401.4L139.442 396.6L139.802 396.96C139.762 397.28 139.702 398.14 139.622 399.54C139.582 400.94 139.562 402.6 139.562 404.52V437.94ZM165.07 438.78L166.03 439.74C165.07 441.18 163.97 442.4 162.73 443.4C161.49 444.4 159.87 444.9 157.87 444.9C156.27 444.9 154.99 444.58 154.03 443.94C153.11 443.3 152.45 442.46 152.05 441.42C151.65 440.34 151.45 439.18 151.45 437.94V420.06H147.31V417.6H151.45V409.38L156.55 408.48C156.43 410 156.35 411.52 156.31 413.04C156.27 414.56 156.25 416.08 156.25 417.6H165.13V420.06H158.11C157.43 420.06 156.95 420.2 156.67 420.48C156.39 420.76 156.25 421.24 156.25 421.92V436.68C156.25 437.96 156.47 439.06 156.91 439.98C157.39 440.9 158.35 441.36 159.79 441.36C160.63 441.36 161.49 441.16 162.37 440.76C163.25 440.32 164.15 439.66 165.07 438.78ZM178.947 437.94C178.947 439.34 179.087 440.36 179.367 441C179.647 441.64 180.147 442.06 180.867 442.26C181.627 442.46 182.687 442.58 184.047 442.62V444H170.547V442.62C171.427 442.58 172.127 442.46 172.647 442.26C173.167 442.06 173.547 441.64 173.787 441C174.027 440.36 174.147 439.34 174.147 437.94V424.38C174.147 423.26 173.967 422.54 173.607 422.22C173.287 421.86 172.847 421.68 172.287 421.68C171.767 421.68 171.207 421.78 170.607 421.98C170.047 422.14 169.527 422.32 169.047 422.52L168.447 421.14L178.827 416.4L179.187 416.76C179.147 417.08 179.087 417.94 179.007 419.34C178.967 420.74 178.947 422.4 178.947 424.32V437.94ZM176.547 410.76C175.667 410.76 174.927 410.46 174.327 409.86C173.727 409.26 173.427 408.52 173.427 407.64C173.427 406.8 173.727 406.08 174.327 405.48C174.927 404.88 175.667 404.58 176.547 404.58C177.427 404.58 178.167 404.88 178.767 405.48C179.367 406.08 179.667 406.8 179.667 407.64C179.667 408.52 179.367 409.26 178.767 409.86C178.167 410.46 177.427 410.76 176.547 410.76ZM17.7569 516.9C14.9169 516.9 12.7369 516.36 11.2169 515.28C9.69688 514.2 8.93688 512.82 8.93688 511.14C8.93688 510.54 9.05688 509.88 9.29688 509.16C9.53688 508.4 9.95688 507.66 10.5569 506.94H11.9369C11.9769 509.5 12.5169 511.46 13.5569 512.82C14.5969 514.18 16.2369 514.86 18.4769 514.86C20.4769 514.86 21.9569 514.38 22.9169 513.42C23.8769 512.46 24.3569 511.36 24.3569 510.12C24.3569 509 23.9969 508.08 23.2769 507.36C22.5969 506.64 21.6969 506.02 20.5769 505.5C19.4969 504.94 18.3369 504.42 17.0969 503.94C15.8569 503.42 14.6769 502.86 13.5569 502.26C12.4769 501.62 11.5769 500.84 10.8569 499.92C10.1769 499 9.83688 497.84 9.83688 496.44C9.83688 494.24 10.7169 492.4 12.4769 490.92C14.2369 489.44 16.6969 488.7 19.8569 488.7C21.0969 488.7 22.3569 488.82 23.6369 489.06C24.9169 489.26 26.1169 489.68 27.2369 490.32V497.22H25.8569C25.5769 494.86 24.8169 493.2 23.5769 492.24C22.3369 491.24 20.8769 490.74 19.1969 490.74C17.5569 490.74 16.3169 491.1 15.4769 491.82C14.6369 492.54 14.2169 493.48 14.2169 494.64C14.2169 495.72 14.5569 496.62 15.2369 497.34C15.9569 498.02 16.8569 498.62 17.9369 499.14C19.0569 499.66 20.2169 500.18 21.4169 500.7C22.6569 501.18 23.8169 501.76 24.8969 502.44C26.0169 503.08 26.9169 503.9 27.5969 504.9C28.3169 505.86 28.6769 507.08 28.6769 508.56C28.6769 511.24 27.6369 513.3 25.5569 514.74C23.4769 516.18 20.8769 516.9 17.7569 516.9ZM63.4848 511.38L64.0848 512.76L54.3648 517.26L54.0048 516.9C54.0848 516.54 54.1648 515.84 54.2448 514.8C54.3648 513.72 54.4248 512.58 54.4248 511.38H54.3048C52.7448 512.98 51.1248 514.3 49.4448 515.34C47.8048 516.38 45.9448 516.9 43.8648 516.9C41.3448 516.9 39.5848 516.26 38.5848 514.98C37.6248 513.7 37.1448 512.04 37.1448 510V496.2C37.1448 495.16 36.9648 494.48 36.6048 494.16C36.2848 493.84 35.8448 493.68 35.2848 493.68C34.4848 493.68 33.6248 493.88 32.7048 494.28L32.1048 492.9L41.8248 488.4L42.1848 488.76C42.1448 489.08 42.0848 489.94 42.0048 491.34C41.9648 492.7 41.9448 494.3 41.9448 496.14V508.5C41.9448 509.9 42.2248 511 42.7848 511.8C43.3848 512.6 44.4448 513 45.9648 513C47.2448 513 48.5648 512.74 49.9248 512.22C51.3248 511.66 52.7648 510.78 54.2448 509.58V496.2C54.2448 495.16 54.0848 494.48 53.7648 494.16C53.4448 493.84 52.9848 493.68 52.3848 493.68C51.8648 493.68 51.3248 493.78 50.7648 493.98C50.2048 494.14 49.7048 494.32 49.2648 494.52L48.6648 493.14L58.9248 488.4L59.2848 488.76C59.2448 489.08 59.1848 489.94 59.1048 491.34C59.0648 492.7 59.0448 494.3 59.0448 496.14V509.28C59.0448 510.4 59.2048 511.12 59.5248 511.44C59.8848 511.76 60.3448 511.92 60.9048 511.92C61.7848 511.92 62.6448 511.74 63.4848 511.38ZM67.9478 516V514.62C68.8678 514.58 69.5878 514.46 70.1078 514.26C70.6278 514.06 70.9878 513.64 71.1878 513C71.4278 512.36 71.5478 511.34 71.5478 509.94V496.2C71.5478 495.16 71.3878 494.48 71.0678 494.16C70.7478 493.84 70.3078 493.68 69.7478 493.68C69.3078 493.68 68.8678 493.74 68.4278 493.86C68.0278 493.94 67.6078 494.08 67.1678 494.28L66.5678 492.9L76.2278 488.4L76.5878 488.76C76.5078 489.12 76.4078 489.9 76.2878 491.1C76.2078 492.26 76.1678 493.54 76.1678 494.94H76.2878C77.9278 492.5 79.7278 490.86 81.6878 490.02C83.6878 489.18 85.7678 488.84 87.9278 489C88.2478 491.96 88.2478 494.92 87.9278 497.88H86.5478C86.3878 496.24 86.0078 495.1 85.4078 494.46C84.8478 493.78 84.0478 493.44 83.0078 493.44C81.6878 493.44 80.5078 493.72 79.4678 494.28C78.4278 494.84 77.3878 495.76 76.3478 497.04V509.94C76.3478 511.34 76.4878 512.36 76.7678 513C77.0478 513.64 77.5878 514.06 78.3878 514.26C79.2278 514.46 80.4478 514.58 82.0478 514.62V516H67.9478ZM112.445 468.6C112.925 471.36 112.925 474.12 112.445 476.88H111.065C110.905 475.04 110.505 473.66 109.865 472.74C109.225 471.82 108.205 471.36 106.805 471.36C102.085 471.36 99.7253 476.08 99.7253 485.52V489.6H108.605V492.06H101.585C100.905 492.06 100.425 492.2 100.145 492.48C99.8653 492.76 99.7253 493.24 99.7253 493.92V509.94C99.7253 511.34 99.8653 512.36 100.145 513C100.465 513.64 101.065 514.06 101.945 514.26C102.865 514.46 104.225 514.58 106.025 514.62V516H91.3253V514.62C92.2053 514.58 92.9053 514.46 93.4253 514.26C93.9453 514.06 94.3253 513.64 94.5653 513C94.8053 512.36 94.9253 511.34 94.9253 509.94V492.06H90.7853V489.6H94.9253V485.34C94.9253 481.38 95.6653 478.1 97.1453 475.5C98.6253 472.9 100.685 471.02 103.325 469.86C105.965 468.66 109.005 468.24 112.445 468.6ZM117.73 516.9C115.85 516.9 114.31 516.42 113.11 515.46C111.95 514.46 111.37 513.04 111.37 511.2C111.37 509.72 111.83 508.36 112.75 507.12C113.67 505.88 115.19 504.74 117.31 503.7C119.43 502.66 122.31 501.7 125.95 500.82V496.92C125.95 495.28 125.59 493.92 124.87 492.84C124.19 491.76 122.87 491.22 120.91 491.22C119.03 491.22 117.53 491.82 116.41 493.02C115.33 494.18 114.57 496 114.13 498.48H112.75V490.98C114.15 490.3 115.63 489.76 117.19 489.36C118.79 488.92 120.55 488.7 122.47 488.7C124.67 488.7 126.35 489 127.51 489.6C128.71 490.16 129.55 490.96 130.03 492C130.51 493.04 130.75 494.26 130.75 495.66V510.18C130.75 512.3 131.41 513.36 132.73 513.36C133.21 513.36 133.75 513.2 134.35 512.88C134.99 512.56 135.73 511.9 136.57 510.9L137.53 511.86C135.69 515.02 133.49 516.6 130.93 516.6C128.29 516.6 126.67 515.26 126.07 512.58H125.95C123.75 515.46 121.01 516.9 117.73 516.9ZM119.95 513.36C121.87 513.36 123.87 512.48 125.95 510.72V502.68C123.07 503.4 120.95 504.2 119.59 505.08C118.23 505.92 117.33 506.78 116.89 507.66C116.49 508.5 116.29 509.28 116.29 510C116.29 511.16 116.65 512.02 117.37 512.58C118.09 513.1 118.95 513.36 119.95 513.36ZM152.018 516.9C149.938 516.9 147.958 516.42 146.078 515.46C144.238 514.46 142.738 512.98 141.578 511.02C140.418 509.02 139.838 506.54 139.838 503.58C139.838 500.42 140.498 497.74 141.818 495.54C143.178 493.3 144.958 491.6 147.158 490.44C149.358 489.28 151.698 488.7 154.178 488.7C155.418 488.7 156.758 488.86 158.198 489.18C159.678 489.5 160.998 490.06 162.158 490.86V498.72H160.778C160.578 496.64 160.058 495.04 159.218 493.92C158.378 492.8 157.398 492.02 156.278 491.58C155.198 491.14 154.118 490.92 153.038 490.92C150.398 490.92 148.358 491.92 146.918 493.92C145.478 495.88 144.758 498.34 144.758 501.3C144.758 503.66 145.158 505.72 145.958 507.48C146.798 509.2 147.938 510.54 149.378 511.5C150.818 512.46 152.438 512.94 154.238 512.94C155.638 512.94 157.018 512.64 158.378 512.04C159.778 511.4 161.038 510.54 162.158 509.46L163.118 510.42C161.998 512.3 160.478 513.86 158.558 515.1C156.638 516.3 154.458 516.9 152.018 516.9ZM180.26 516.9C178.22 516.9 176.26 516.42 174.38 515.46C172.54 514.5 171.02 513.06 169.82 511.14C168.66 509.18 168.08 506.7 168.08 503.7C168.08 500.66 168.68 498.02 169.88 495.78C171.08 493.54 172.68 491.8 174.68 490.56C176.68 489.32 178.86 488.7 181.22 488.7C182.94 488.7 184.52 489.04 185.96 489.72C187.44 490.4 188.62 491.44 189.5 492.84C190.42 494.24 190.88 496.02 190.88 498.18L172.88 500.52C172.88 500.72 172.88 500.94 172.88 501.18C172.88 504.86 173.72 507.74 175.4 509.82C177.08 511.9 179.32 512.94 182.12 512.94C183.72 512.94 185.2 512.62 186.56 511.98C187.92 511.3 189.14 510.46 190.22 509.46L191.18 510.42C190.06 512.34 188.56 513.9 186.68 515.1C184.84 516.3 182.7 516.9 180.26 516.9ZM179.96 490.92C177.88 490.92 176.28 491.66 175.16 493.14C174.04 494.62 173.34 496.44 173.06 498.6L185.48 496.98C185.24 495.26 184.72 493.82 183.92 492.66C183.12 491.5 181.8 490.92 179.96 490.92ZM204.495 516.9C201.655 516.9 199.475 516.36 197.955 515.28C196.435 514.2 195.675 512.82 195.675 511.14C195.675 510.54 195.795 509.88 196.035 509.16C196.275 508.4 196.695 507.66 197.295 506.94H198.675C198.715 509.5 199.255 511.46 200.295 512.82C201.335 514.18 202.975 514.86 205.215 514.86C207.215 514.86 208.695 514.38 209.655 513.42C210.615 512.46 211.095 511.36 211.095 510.12C211.095 509 210.735 508.08 210.015 507.36C209.335 506.64 208.435 506.02 207.315 505.5C206.235 504.94 205.075 504.42 203.835 503.94C202.595 503.42 201.415 502.86 200.295 502.26C199.215 501.62 198.315 500.84 197.595 499.92C196.915 499 196.575 497.84 196.575 496.44C196.575 494.24 197.455 492.4 199.215 490.92C200.975 489.44 203.435 488.7 206.595 488.7C207.835 488.7 209.095 488.82 210.375 489.06C211.655 489.26 212.855 489.68 213.975 490.32V497.22H212.595C212.315 494.86 211.555 493.2 210.315 492.24C209.075 491.24 207.615 490.74 205.935 490.74C204.295 490.74 203.055 491.1 202.215 491.82C201.375 492.54 200.955 493.48 200.955 494.64C200.955 495.72 201.295 496.62 201.975 497.34C202.695 498.02 203.595 498.62 204.675 499.14C205.795 499.66 206.955 500.18 208.155 500.7C209.395 501.18 210.555 501.76 211.635 502.44C212.755 503.08 213.655 503.9 214.335 504.9C215.055 505.86 215.415 507.08 215.415 508.56C215.415 511.24 214.375 513.3 212.295 514.74C210.215 516.18 207.615 516.9 204.495 516.9Z" fill="black"/>
</svg>
