<svg width="229" height="688" viewBox="0 0 229 688" fill="none" xmlns="http://www.w3.org/2000/svg">
<path d="M3 505.58C3 439.687 43.4855 264.063 63.7283 184.488H140.511C148.887 230.093 166.757 326.746 171.224 348.524C176.808 375.747 206.126 390.406 218.69 421.817C231.254 453.228 226.368 629.829 218.69 652.166C211.012 674.502 153.076 684.973 120.268 684.973C87.4611 684.973 41.3914 673.804 26.7329 670.314C12.0743 666.824 3 587.947 3 505.58Z" fill="white" stroke="#81EC40" stroke-width="5"/>
<path d="M62.8614 91.0681V184.487H140.237C138.488 149.164 136.04 75.5913 140.237 63.8791C144.433 52.1669 175.208 43.1969 190.071 40.1759V3.92384C185.481 3.22669 160.826 2.25067 98.9261 3.92384C37.026 5.59701 18.491 62.7172 16.9609 91.0681H62.8614Z" fill="white" stroke="#81EC40" stroke-width="5"/>
<path d="M218.69 4.875H189.373V39.0783H218.69V4.875Z" fill="white" stroke="#81EC40" stroke-width="5"/>
<path d="M171.922 79.084C171.922 70.7077 179.6 46.7422 183.788 41.3906L166.338 45.5788L150.283 53.2571C151.447 72.1038 161.172 101.281 168.432 111.891C182.392 132.295 200.541 150.981 221.482 145.396C204.729 141.873 171.922 95.8366 171.922 79.084Z" fill="white" stroke="#81EC40" stroke-width="5"/>
</svg>
