<svg width="318" height="683" viewBox="0 0 318 683" fill="none" xmlns="http://www.w3.org/2000/svg">
<path d="M114.484 185.217C114.484 168.741 130.032 153.54 137.805 148H211.042C219.361 163.176 238.127 198.225 246.637 217.015C257.275 240.502 282.642 336.617 294.916 419.001C307.19 501.385 294.916 648.448 282.642 663.624C270.367 678.8 214.315 684.22 170.537 682.775C126.758 681.33 60.0682 684.22 33.474 675.91C6.87972 667.599 -0.484843 523.427 15.0626 465.613C30.61 407.799 123.894 269.047 128.395 249.896C132.896 230.746 114.484 205.814 114.484 185.217Z" fill="#E4E3C6"/>
<path d="M137.951 89.6772V147.513H208.078V89.6772H174.822H137.951Z" fill="#85898C"/>
<path d="M100.358 58.9518C113.66 64.4462 130.722 82.2067 137.59 90.4002H207.716C208.56 85.8214 212.199 75.8687 220.007 72.6878C229.766 68.7115 244.587 76.664 254.347 58.9518C264.107 41.2395 237.719 26.0574 193.98 7.98358C158.989 -6.47546 98.671 1.95898 72.8857 7.98358V56.0599C80.4767 56.0599 87.0556 53.4573 100.358 58.9518Z" fill="#9FA39E"/>
<path d="M47.9439 29.6721C47.3655 18.3941 64.5718 10.2729 73.2472 7.62207V55.3369C65.0538 51.4812 48.5223 40.9502 47.9439 29.6721Z" fill="#85898C"/>
<path d="M98.3071 90.5503C107.468 85.4549 116.505 76.2195 119.878 72.2387C106.03 57.5894 91.9158 55.1656 86.5898 55.7848C85.5246 57.9963 83.1279 63.3217 82.0627 66.931C80.7311 71.4425 45.0464 110.72 39.7203 120.008C34.3942 129.297 31.4649 131.154 39.7203 133.543C47.9757 135.931 58.8942 119.477 68.7474 110.72C78.6006 101.962 86.856 96.9195 98.3071 90.5503Z" fill="#B1B5B0"/>
<path d="M178.157 304.013C137.179 303.089 113.8 350.211 99.3528 374.85C84.9056 399.488 76.5874 411.038 54.2595 466.86C29.8443 527.901 24.4892 608.148 43.3146 637.407C58.3748 660.814 126.058 658.966 163.709 658.966C192.604 658.966 246.891 658.504 257.398 647.416C270.532 633.557 295.487 596.214 284.104 513.828C272.721 431.442 229.379 305.168 178.157 304.013Z" fill="#A1AAB9"/>
<path d="M21.4508 516V514.735C22.4408 514.698 23.2108 514.588 23.7608 514.405C24.3108 514.222 24.6958 513.837 24.9158 513.25C25.1725 512.663 25.3008 511.747 25.3008 510.5V484.925C25.3008 483.642 25.1541 482.725 24.8608 482.175C24.6041 481.588 24.1091 481.203 23.3758 481.02C22.6425 480.837 21.5425 480.727 20.0758 480.69V479.425H25.3008C27.7941 479.425 29.9941 479.388 31.9008 479.315C33.8441 479.205 35.4941 479.15 36.8508 479.15C40.8108 479.15 44.2575 479.81 47.1908 481.13C50.1608 482.413 52.4708 484.338 54.1208 486.905C55.7708 489.472 56.5958 492.698 56.5958 496.585C56.5958 499.592 56.0458 502.305 54.9458 504.725C53.8458 507.108 52.3425 509.143 50.4358 510.83C48.5658 512.517 46.4391 513.8 44.0558 514.68C41.7091 515.56 39.2525 516 36.6858 516H21.4508ZM35.0358 514.02C40.6091 514.02 44.6975 512.535 47.3008 509.565C49.9408 506.558 51.2608 502.507 51.2608 497.41C51.2608 493.487 50.6008 490.333 49.2808 487.95C47.9975 485.567 46.1641 483.843 43.7808 482.78C41.3975 481.68 38.5741 481.13 35.3108 481.13C33.2941 481.13 31.9008 481.35 31.1308 481.79C30.3608 482.193 29.9758 483.238 29.9758 484.925V510.5C29.9758 512.077 30.3425 513.067 31.0758 513.47C31.8458 513.837 33.1658 514.02 35.0358 514.02ZM73.5715 516.825C71.7015 516.825 69.9048 516.385 68.1815 515.505C66.4948 514.625 65.1015 513.305 64.0015 511.545C62.9381 509.748 62.4065 507.475 62.4065 504.725C62.4065 501.938 62.9565 499.518 64.0565 497.465C65.1565 495.412 66.6231 493.817 68.4565 492.68C70.2898 491.543 72.2881 490.975 74.4515 490.975C76.0281 490.975 77.4765 491.287 78.7965 491.91C80.1531 492.533 81.2348 493.487 82.0415 494.77C82.8848 496.053 83.3065 497.685 83.3065 499.665L66.8065 501.81C66.8065 501.993 66.8065 502.195 66.8065 502.415C66.8065 505.788 67.5765 508.428 69.1165 510.335C70.6565 512.242 72.7098 513.195 75.2765 513.195C76.7431 513.195 78.0998 512.902 79.3465 512.315C80.5931 511.692 81.7115 510.922 82.7015 510.005L83.5815 510.885C82.5548 512.645 81.1798 514.075 79.4565 515.175C77.7698 516.275 75.8081 516.825 73.5715 516.825ZM73.2965 493.01C71.3898 493.01 69.9231 493.688 68.8965 495.045C67.8698 496.402 67.2281 498.07 66.9715 500.05L78.3565 498.565C78.1365 496.988 77.6598 495.668 76.9265 494.605C76.1931 493.542 74.9831 493.01 73.2965 493.01ZM76.5965 475.63C77.2565 475.593 77.9715 475.722 78.7415 476.015C79.5481 476.272 80.1898 476.675 80.6665 477.225C79.8598 478.875 78.6865 480.562 77.1465 482.285C75.6065 483.972 73.9931 485.347 72.3065 486.41L71.7015 485.365C72.9848 483.972 74.0298 482.413 74.8365 480.69C75.6798 478.93 76.2665 477.243 76.5965 475.63ZM96.1717 528.925C94.6684 528.925 93.2567 528.742 91.9367 528.375C90.6167 528.008 89.5534 527.422 88.7467 526.615C87.9401 525.808 87.5367 524.745 87.5367 523.425C87.5367 521.188 88.8934 519.263 91.6067 517.65L92.8717 517.87C92.3951 518.567 92.0284 519.318 91.7717 520.125C91.5151 520.968 91.3867 521.757 91.3867 522.49C91.3867 523.883 91.8817 524.965 92.8717 525.735C93.8617 526.542 95.3651 526.945 97.3817 526.945C99.2884 526.945 100.975 526.615 102.442 525.955C103.945 525.295 105.137 524.415 106.017 523.315C106.897 522.215 107.337 521.023 107.337 519.74C107.337 518.897 107.098 518.237 106.622 517.76C106.182 517.283 105.357 516.953 104.147 516.77L92.4317 514.79C90.9284 514.497 90.1767 513.488 90.1767 511.765C90.1767 510.812 90.4884 509.822 91.1117 508.795C91.7717 507.768 92.7434 506.742 94.0267 505.715C92.5234 505.238 91.2401 504.468 90.1767 503.405C89.1134 502.305 88.5817 500.875 88.5817 499.115C88.5817 497.428 89.0767 495.98 90.0667 494.77C91.0567 493.56 92.3401 492.625 93.9167 491.965C95.4934 491.305 97.1617 490.975 98.9217 490.975C100.205 490.975 101.488 491.158 102.772 491.525C104.055 491.892 105.155 492.46 106.072 493.23C106.988 493.01 107.758 492.423 108.382 491.47C109.005 490.517 109.408 489.215 109.592 487.565H110.747C111.077 487.968 111.315 488.5 111.462 489.16C111.645 489.783 111.737 490.352 111.737 490.865C111.737 491.965 111.37 492.827 110.637 493.45C109.94 494.037 108.822 494.385 107.282 494.495C108.052 495.595 108.437 496.842 108.437 498.235C108.437 499.885 107.942 501.333 106.952 502.58C105.962 503.79 104.678 504.725 103.102 505.385C101.525 506.045 99.8567 506.375 98.0967 506.375C97.2167 506.375 96.3551 506.283 95.5117 506.1C94.9984 506.54 94.5767 507.035 94.2467 507.585C93.9534 508.135 93.8067 508.685 93.8067 509.235C93.8067 509.638 93.9167 510.005 94.1367 510.335C94.3934 510.665 94.7601 510.867 95.2367 510.94L106.677 512.865C108.327 513.122 109.592 513.635 110.472 514.405C111.352 515.138 111.792 516.22 111.792 517.65C111.792 518.933 111.425 520.235 110.692 521.555C109.958 522.875 108.913 524.085 107.557 525.185C106.2 526.322 104.55 527.22 102.607 527.88C100.7 528.577 98.5551 528.925 96.1717 528.925ZM98.8117 504.505C100.462 504.505 101.745 503.973 102.662 502.91C103.578 501.847 104.037 500.527 104.037 498.95C104.037 497.153 103.487 495.687 102.387 494.55C101.323 493.413 99.9301 492.845 98.2067 492.845C96.5567 492.845 95.2734 493.377 94.3567 494.44C93.4401 495.467 92.9817 496.787 92.9817 498.4C92.9817 500.197 93.5317 501.663 94.6317 502.8C95.7317 503.937 97.1251 504.505 98.8117 504.505ZM115.262 516V514.735C116.105 514.698 116.765 514.588 117.242 514.405C117.719 514.222 118.049 513.837 118.232 513.25C118.452 512.663 118.562 511.728 118.562 510.445V497.85C118.562 496.897 118.415 496.273 118.122 495.98C117.829 495.687 117.425 495.54 116.912 495.54C116.509 495.54 116.105 495.595 115.702 495.705C115.335 495.778 114.95 495.907 114.547 496.09L113.997 494.825L122.852 490.7L123.182 491.03C123.109 491.36 123.017 492.075 122.907 493.175C122.834 494.238 122.797 495.412 122.797 496.695H122.907C124.41 494.458 126.06 492.955 127.857 492.185C129.69 491.415 131.597 491.103 133.577 491.25C133.87 493.963 133.87 496.677 133.577 499.39H132.312C132.165 497.887 131.817 496.842 131.267 496.255C130.754 495.632 130.02 495.32 129.067 495.32C127.857 495.32 126.775 495.577 125.822 496.09C124.869 496.603 123.915 497.447 122.962 498.62V510.445C122.962 511.728 123.09 512.663 123.347 513.25C123.604 513.837 124.099 514.222 124.832 514.405C125.602 514.588 126.72 514.698 128.187 514.735V516H115.262ZM142.741 516.825C141.018 516.825 139.606 516.385 138.506 515.505C137.443 514.588 136.911 513.287 136.911 511.6C136.911 510.243 137.333 508.997 138.176 507.86C139.02 506.723 140.413 505.678 142.356 504.725C144.3 503.772 146.94 502.892 150.276 502.085V498.51C150.276 497.007 149.946 495.76 149.286 494.77C148.663 493.78 147.453 493.285 145.656 493.285C143.933 493.285 142.558 493.835 141.531 494.935C140.541 495.998 139.845 497.667 139.441 499.94H138.176V493.065C139.46 492.442 140.816 491.947 142.246 491.58C143.713 491.177 145.326 490.975 147.086 490.975C149.103 490.975 150.643 491.25 151.706 491.8C152.806 492.313 153.576 493.047 154.016 494C154.456 494.953 154.676 496.072 154.676 497.355V510.665C154.676 512.608 155.281 513.58 156.491 513.58C156.931 513.58 157.426 513.433 157.976 513.14C158.563 512.847 159.241 512.242 160.011 511.325L160.891 512.205C159.205 515.102 157.188 516.55 154.841 516.55C152.421 516.55 150.936 515.322 150.386 512.865H150.276C148.26 515.505 145.748 516.825 142.741 516.825ZM144.776 513.58C146.536 513.58 148.37 512.773 150.276 511.16V503.79C147.636 504.45 145.693 505.183 144.446 505.99C143.2 506.76 142.375 507.548 141.971 508.355C141.605 509.125 141.421 509.84 141.421 510.5C141.421 511.563 141.751 512.352 142.411 512.865C143.071 513.342 143.86 513.58 144.776 513.58ZM170.927 510.445C170.927 511.728 171.055 512.663 171.312 513.25C171.569 513.837 172.027 514.222 172.687 514.405C173.384 514.588 174.355 514.698 175.602 514.735V516H163.227V514.735C164.034 514.698 164.675 514.588 165.152 514.405C165.629 514.222 165.977 513.837 166.197 513.25C166.417 512.663 166.527 511.728 166.527 510.445V498.015C166.527 496.988 166.362 496.328 166.032 496.035C165.739 495.705 165.335 495.54 164.822 495.54C164.345 495.54 163.832 495.632 163.282 495.815C162.769 495.962 162.292 496.127 161.852 496.31L161.302 495.045L170.817 490.7L171.147 491.03C171.11 491.323 171.055 492.112 170.982 493.395C170.945 494.678 170.927 496.2 170.927 497.96V510.445ZM168.727 485.53C167.92 485.53 167.242 485.255 166.692 484.705C166.142 484.155 165.867 483.477 165.867 482.67C165.867 481.9 166.142 481.24 166.692 480.69C167.242 480.14 167.92 479.865 168.727 479.865C169.534 479.865 170.212 480.14 170.762 480.69C171.312 481.24 171.587 481.9 171.587 482.67C171.587 483.477 171.312 484.155 170.762 484.705C170.212 485.255 169.534 485.53 168.727 485.53ZM187.095 516.825C184.492 516.825 182.494 516.33 181.1 515.34C179.707 514.35 179.01 513.085 179.01 511.545C179.01 510.995 179.12 510.39 179.34 509.73C179.56 509.033 179.945 508.355 180.495 507.695H181.76C181.797 510.042 182.292 511.838 183.245 513.085C184.199 514.332 185.702 514.955 187.755 514.955C189.589 514.955 190.945 514.515 191.825 513.635C192.705 512.755 193.145 511.747 193.145 510.61C193.145 509.583 192.815 508.74 192.155 508.08C191.532 507.42 190.707 506.852 189.68 506.375C188.69 505.862 187.627 505.385 186.49 504.945C185.354 504.468 184.272 503.955 183.245 503.405C182.255 502.818 181.43 502.103 180.77 501.26C180.147 500.417 179.835 499.353 179.835 498.07C179.835 496.053 180.642 494.367 182.255 493.01C183.869 491.653 186.124 490.975 189.02 490.975C190.157 490.975 191.312 491.085 192.485 491.305C193.659 491.488 194.759 491.873 195.785 492.46V498.785H194.52C194.264 496.622 193.567 495.1 192.43 494.22C191.294 493.303 189.955 492.845 188.415 492.845C186.912 492.845 185.775 493.175 185.005 493.835C184.235 494.495 183.85 495.357 183.85 496.42C183.85 497.41 184.162 498.235 184.785 498.895C185.445 499.518 186.27 500.068 187.26 500.545C188.287 501.022 189.35 501.498 190.45 501.975C191.587 502.415 192.65 502.947 193.64 503.57C194.667 504.157 195.492 504.908 196.115 505.825C196.775 506.705 197.105 507.823 197.105 509.18C197.105 511.637 196.152 513.525 194.245 514.845C192.339 516.165 189.955 516.825 187.095 516.825ZM209.708 516.825C207.104 516.825 205.106 516.33 203.713 515.34C202.319 514.35 201.623 513.085 201.623 511.545C201.623 510.995 201.733 510.39 201.953 509.73C202.173 509.033 202.558 508.355 203.108 507.695H204.373C204.409 510.042 204.904 511.838 205.858 513.085C206.811 514.332 208.314 514.955 210.368 514.955C212.201 514.955 213.558 514.515 214.438 513.635C215.318 512.755 215.758 511.747 215.758 510.61C215.758 509.583 215.428 508.74 214.768 508.08C214.144 507.42 213.319 506.852 212.293 506.375C211.303 505.862 210.239 505.385 209.103 504.945C207.966 504.468 206.884 503.955 205.858 503.405C204.868 502.818 204.043 502.103 203.383 501.26C202.759 500.417 202.448 499.353 202.448 498.07C202.448 496.053 203.254 494.367 204.868 493.01C206.481 491.653 208.736 490.975 211.633 490.975C212.769 490.975 213.924 491.085 215.098 491.305C216.271 491.488 217.371 491.873 218.398 492.46V498.785H217.133C216.876 496.622 216.179 495.1 215.043 494.22C213.906 493.303 212.568 492.845 211.028 492.845C209.524 492.845 208.388 493.175 207.618 493.835C206.848 494.495 206.463 495.357 206.463 496.42C206.463 497.41 206.774 498.235 207.398 498.895C208.058 499.518 208.883 500.068 209.873 500.545C210.899 501.022 211.963 501.498 213.063 501.975C214.199 502.415 215.263 502.947 216.253 503.57C217.279 504.157 218.104 504.908 218.728 505.825C219.388 506.705 219.718 507.823 219.718 509.18C219.718 511.637 218.764 513.525 216.858 514.845C214.951 516.165 212.568 516.825 209.708 516.825ZM230.505 516.825C228.782 516.825 227.37 516.385 226.27 515.505C225.207 514.588 224.675 513.287 224.675 511.6C224.675 510.243 225.097 508.997 225.94 507.86C226.783 506.723 228.177 505.678 230.12 504.725C232.063 503.772 234.703 502.892 238.04 502.085V498.51C238.04 497.007 237.71 495.76 237.05 494.77C236.427 493.78 235.217 493.285 233.42 493.285C231.697 493.285 230.322 493.835 229.295 494.935C228.305 495.998 227.608 497.667 227.205 499.94H225.94V493.065C227.223 492.442 228.58 491.947 230.01 491.58C231.477 491.177 233.09 490.975 234.85 490.975C236.867 490.975 238.407 491.25 239.47 491.8C240.57 492.313 241.34 493.047 241.78 494C242.22 494.953 242.44 496.072 242.44 497.355V510.665C242.44 512.608 243.045 513.58 244.255 513.58C244.695 513.58 245.19 513.433 245.74 513.14C246.327 512.847 247.005 512.242 247.775 511.325L248.655 512.205C246.968 515.102 244.952 516.55 242.605 516.55C240.185 516.55 238.7 515.322 238.15 512.865H238.04C236.023 515.505 233.512 516.825 230.505 516.825ZM232.54 513.58C234.3 513.58 236.133 512.773 238.04 511.16V503.79C235.4 504.45 233.457 505.183 232.21 505.99C230.963 506.76 230.138 507.548 229.735 508.355C229.368 509.125 229.185 509.84 229.185 510.5C229.185 511.563 229.515 512.352 230.175 512.865C230.835 513.342 231.623 513.58 232.54 513.58ZM274.696 510.445C274.696 511.728 274.806 512.663 275.026 513.25C275.282 513.837 275.741 514.222 276.401 514.405C277.097 514.588 278.087 514.698 279.371 514.735V516H266.996V514.735C267.802 514.698 268.444 514.588 268.921 514.405C269.397 514.222 269.746 513.837 269.966 513.25C270.186 512.663 270.296 511.728 270.296 510.445V498.62C270.296 497.337 270.002 496.328 269.416 495.595C268.866 494.862 267.894 494.495 266.501 494.495C265.291 494.495 264.026 494.752 262.706 495.265C261.386 495.778 260.029 496.585 258.636 497.685V510.445C258.636 511.728 258.746 512.663 258.966 513.25C259.222 513.837 259.681 514.222 260.341 514.405C261.037 514.588 262.027 514.698 263.311 514.735V516H250.936V514.735C251.779 514.698 252.439 514.588 252.916 514.405C253.392 514.222 253.722 513.837 253.906 513.25C254.126 512.663 254.236 511.728 254.236 510.445V497.96C254.236 496.97 254.089 496.328 253.796 496.035C253.502 495.705 253.099 495.54 252.586 495.54C252.182 495.54 251.779 495.595 251.376 495.705C251.009 495.778 250.624 495.907 250.221 496.09L249.671 494.825L258.526 490.7L258.856 491.03C258.782 491.36 258.691 492.002 258.581 492.955C258.507 493.908 258.471 494.917 258.471 495.98H258.581C259.974 494.513 261.477 493.322 263.091 492.405C264.741 491.452 266.519 490.975 268.426 490.975C270.772 490.975 272.404 491.562 273.321 492.735C274.237 493.872 274.696 495.393 274.696 497.3V510.445ZM297.909 511.215L298.789 512.095C297.909 513.415 296.9 514.533 295.764 515.45C294.627 516.367 293.142 516.825 291.309 516.825C289.842 516.825 288.669 516.532 287.789 515.945C286.945 515.358 286.34 514.588 285.974 513.635C285.607 512.645 285.424 511.582 285.424 510.445V494.055H281.629V491.8H285.424V484.265L290.099 483.44C289.989 484.833 289.915 486.227 289.879 487.62C289.842 489.013 289.824 490.407 289.824 491.8H297.964V494.055H291.529C290.905 494.055 290.465 494.183 290.209 494.44C289.952 494.697 289.824 495.137 289.824 495.76V509.29C289.824 510.463 290.025 511.472 290.429 512.315C290.869 513.158 291.749 513.58 293.069 513.58C293.839 513.58 294.627 513.397 295.434 513.03C296.24 512.627 297.065 512.022 297.909 511.215Z" fill="black"/>
</svg>
