<svg width="588" height="810" viewBox="0 0 588 810" fill="none" xmlns="http://www.w3.org/2000/svg">
<path d="M255.181 248.203C255.239 231.726 270.839 216.581 278.633 211.067L349.869 211.317C358.134 226.523 378.777 261.645 387.222 280.464C397.777 303.988 422.806 400.191 434.791 482.618C446.776 565.045 433.986 712.064 421.658 727.197C409.331 742.33 353.26 747.553 309.487 745.954C265.714 744.355 199.014 747.012 172.449 738.608C145.884 730.204 139.026 586.006 154.776 528.248C170.526 470.489 264.297 332.065 268.865 312.93C273.432 293.795 255.109 268.799 255.181 248.203Z" fill="white" stroke="#D9D9D9" stroke-width="5"/>
<path d="M278.977 152.745L278.774 210.581L348.9 210.827L349.102 152.991L315.847 152.875L278.977 152.745Z" fill="white" stroke="#81EC40" stroke-width="5"/>
<path d="M241.492 121.889C254.775 127.43 271.774 145.25 278.613 153.468L348.739 153.714C349.599 149.138 353.272 139.198 361.091 136.044C370.865 132.102 385.658 140.107 395.48 122.429C405.302 104.751 378.967 89.4765 335.292 71.2493C300.352 56.6676 240.005 64.8903 214.199 70.8244L214.03 118.9C221.621 118.927 228.209 116.348 241.492 121.889Z" fill="white" stroke="#81EC40" stroke-width="5"/>
<path d="M213.56 71.4599C204.875 74.0803 187.64 82.141 188.179 93.421C188.718 104.701 205.212 115.29 213.392 119.174" stroke="#81EC40" stroke-width="5"/>
<path d="M239.334 153.48C248.512 148.417 257.581 139.213 260.969 135.244C247.172 120.546 233.067 118.073 227.739 118.673C226.666 120.881 224.25 126.198 223.172 129.804C221.825 134.31 186.003 173.462 180.644 182.732C175.285 192.002 172.35 193.849 180.597 196.266C188.843 198.684 199.82 182.268 209.704 173.545C219.587 164.822 227.86 159.809 239.334 153.48Z" fill="white" stroke="#81EC40" stroke-width="5"/>
</svg>
