<svg width="326" height="714" fill="none" xmlns="http://www.w3.org/2000/svg"><mask id="a" style="mask-type:alpha" maskUnits="userSpaceOnUse" x="0" y="0" width="326" height="714"><path fill="#D9D9D9" d="M0 0h326v714H0z"/></mask><g mask="url(#a)" stroke="#81EC40" stroke-width="5"><path d="M125.177 203.204c.058-16.477 15.659-31.622 23.452-37.136l71.236.25c8.266 15.206 28.908 50.328 37.353 69.147 10.555 23.524 35.584 119.727 47.569 202.154 11.985 82.427-.805 229.446-13.132 244.579-12.328 15.133-68.399 20.356-112.172 18.757-43.773-1.599-110.473 1.058-137.038-7.346-26.565-8.404-33.423-152.602-17.673-210.36 15.75-57.759 109.521-196.183 114.089-215.318 4.568-19.135-13.756-44.131-13.684-64.727zm23.802-95.458l-.203 57.836 70.125.246.203-57.836-33.255-.117-36.87-.129z" fill="#fff"/><path d="M111.494 76.888c13.283 5.54 30.282 23.361 37.121 31.579l70.126.246c.86-4.576 4.533-14.516 12.352-17.67 9.774-3.942 24.567 4.063 34.389-13.615 9.821-17.678-16.513-32.953-60.188-51.18-34.94-14.581-95.287-6.359-121.094-.425L84.032 73.9c7.59.027 14.179-2.552 27.462 2.989z" fill="#fff"/><path d="M83.56 26.46c-8.685 2.62-25.92 10.68-25.381 21.96.539 11.28 17.033 21.869 25.213 25.753"/><path d="M109.332 108.478c9.179-5.063 18.247-14.267 21.635-18.236-13.797-14.698-27.902-17.171-33.23-16.57-1.073 2.207-3.489 7.524-4.567 11.13C91.823 89.308 56 128.46 50.642 137.73c-5.359 9.27-8.294 11.117-.047 13.534 8.247 2.418 19.223-13.998 29.107-22.721 9.883-8.723 18.157-13.736 29.63-20.065z" fill="#fff"/></g></svg>