<svg width="189" height="668" viewBox="0 0 189 668" fill="none" xmlns="http://www.w3.org/2000/svg">
<path d="M183.934 119.078L186.297 650.935C170.876 655.687 130.934 665.23 94.5261 665.392C58.118 665.554 20.2597 656.356 5.88152 651.737L3.51855 119.88C20.4899 116.149 62.7326 108.988 95.9326 110.188C129.133 111.388 168.433 116.615 183.934 119.078Z" fill="white" stroke="#D9D9D9" stroke-width="5"/>
<path d="M18.5747 32.8402C13.4211 43.5674 6.94071 97.1174 3.52609 121.217C18.1395 117.807 55.3198 108.543 93.6831 109.443C132.046 110.343 170.38 116.685 183.935 119.078C186.287 99.6656 181.858 54.0585 151.854 32.2481C121.85 10.4377 59.0789 3.44658 31.4438 2.67734C29.3014 8.26199 23.7283 22.1131 18.5747 32.8402Z" fill="white" stroke="#81EC40" stroke-width="5"/>
<ellipse cx="26.2453" cy="58.0919" rx="7" ry="9.5" transform="rotate(-0.254556 26.2453 58.0919)" fill="white" stroke="#81EC40" stroke-width="5"/>
</svg>
