<svg width="189" height="668" fill="none" xmlns="http://www.w3.org/2000/svg"><path d="M183.936 119.079l2.363 531.857c-15.421 4.752-55.363 14.295-91.77 14.457-36.409.162-74.267-9.036-88.646-13.655L3.521 119.881c16.97-3.731 59.214-10.892 92.414-9.692 33.2 1.2 72.5 6.427 88.001 8.89z" fill="#fff" stroke="#81EC40" stroke-width="5"/><path d="M18.575 32.841C13.42 43.568 6.94 97.118 3.526 121.218c14.614-3.41 51.794-12.674 90.157-11.774 38.363.9 76.697 7.242 90.252 9.635 2.352-19.412-2.077-65.02-32.081-86.83-30.004-21.81-92.775-28.801-120.41-29.57-2.143 5.584-7.716 19.435-12.87 30.162z" fill="#fff" stroke="#81EC40" stroke-width="5"/><ellipse cx="26.245" cy="58.094" rx="7" ry="9.5" transform="rotate(-.255 26.245 58.094)" fill="#fff" stroke="#81EC40" stroke-width="5"/></svg>