<svg width="181" height="664" viewBox="0 0 181 664" fill="none" xmlns="http://www.w3.org/2000/svg">
<path d="M0.58313 117.186V649.048C16.0242 653.731 56.0085 663.097 92.4169 663.097C128.825 663.097 166.643 653.731 181 649.048V117.186L92.4169 89.7563L0.58313 117.186Z" fill="#BF66CE"/>
<path d="M165.559 30.2143C170.76 40.9184 177.478 94.4391 181 118.523C166.372 115.178 129.15 106.08 90.7916 107.15C52.4327 108.221 14.1279 114.732 0.58313 117.185C-1.85493 97.7842 2.37105 52.1578 32.278 30.2143C62.1849 8.27079 124.924 1.0009 152.556 0.108887C154.723 5.68396 160.358 19.5101 165.559 30.2143Z" fill="#AF3EC1"/>
<ellipse rx="9.75226" ry="13.3802" transform="matrix(-1 0 0 1 158.244 55.637)" fill="#585858"/>
<ellipse rx="4.87613" ry="6.69009" transform="matrix(-1 0 0 1 158.245 55.6364)" fill="#404040"/>
<path d="M93.035 229.343C61.0476 230.536 18.3978 258.662 1.07129 272.576V406C6.13596 397.055 20.1038 376.035 35.4577 363.513C54.6501 347.86 120.224 320.28 145.014 291.956C164.847 269.296 177.268 223.877 181 204C165.007 211.951 125.022 228.151 93.035 229.343Z" fill="#CF8BDA"/>
<path d="M22 183.4L23.61 183.4C23.6567 184.66 23.7967 185.64 24.03 186.34C24.2633 187.04 24.7533 187.53 25.5 187.81C26.2467 188.137 27.4133 188.3 29 188.3L61.55 188.3C63.1833 188.3 64.35 188.114 65.05 187.74C65.7967 187.414 66.2867 186.784 66.52 185.85C66.7533 184.917 66.8933 183.517 66.94 181.65L68.55 181.65L68.55 188.3C68.55 191.474 68.5967 194.274 68.69 196.7C68.83 199.174 68.9 201.274 68.9 203C68.9 208.04 68.06 212.427 66.38 216.16C64.7467 219.94 62.2967 222.88 59.03 224.98C55.7633 227.08 51.6567 228.13 46.71 228.13C42.8833 228.13 39.43 227.43 36.35 226.03C33.3167 224.63 30.7267 222.717 28.58 220.29C26.4333 217.91 24.8 215.204 23.68 212.17C22.56 209.184 22 206.057 22 202.79L22 183.4ZM24.52 200.69C24.52 207.784 26.41 212.987 30.19 216.3C34.0167 219.66 39.1733 221.34 45.66 221.34C50.6533 221.34 54.6667 220.5 57.7 218.82C60.7333 217.187 62.9267 214.854 64.28 211.82C65.68 208.787 66.38 205.194 66.38 201.04C66.38 198.474 66.1 196.7 65.54 195.72C65.0267 194.74 63.6967 194.25 61.55 194.25L29 194.25C26.9933 194.25 25.7333 194.717 25.22 195.65C24.7533 196.63 24.52 198.31 24.52 200.69ZM20.95 249.736C20.95 247.356 21.51 245.069 22.63 242.876C23.75 240.729 25.43 238.956 27.67 237.556C29.9567 236.202 32.85 235.526 36.35 235.526C39.8967 235.526 42.9767 236.226 45.59 237.626C48.2033 239.026 50.2333 240.892 51.68 243.226C53.1267 245.559 53.85 248.102 53.85 250.856C53.85 252.862 53.4533 254.706 52.66 256.386C51.8667 258.112 50.6533 259.489 49.02 260.516C47.3867 261.589 45.31 262.126 42.79 262.126L40.06 241.126C39.8267 241.126 39.57 241.126 39.29 241.126C34.9967 241.126 31.6367 242.106 29.21 244.066C26.7833 246.026 25.57 248.639 25.57 251.906C25.57 253.772 25.9433 255.499 26.69 257.086C27.4833 258.672 28.4633 260.096 29.63 261.356L28.51 262.476C26.27 261.169 24.45 259.419 23.05 257.226C21.65 255.079 20.95 252.582 20.95 249.736ZM51.26 249.386C51.26 246.959 50.3967 245.092 48.67 243.786C46.9433 242.479 44.82 241.662 42.3 241.336L44.19 255.826C46.1967 255.546 47.8767 254.939 49.23 254.006C50.5833 253.072 51.26 251.532 51.26 249.386ZM73.38 253.586C73.4267 254.426 73.2633 255.336 72.89 256.316C72.5633 257.342 72.05 258.159 71.35 258.766C69.25 257.739 67.1033 256.246 64.91 254.286C62.7633 252.326 61.0133 250.272 59.66 248.126L60.99 247.356C62.7633 248.989 64.7467 250.319 66.94 251.346C69.18 252.419 71.3267 253.166 73.38 253.586ZM20.95 278.01C20.95 274.696 21.58 272.153 22.84 270.38C24.1 268.606 25.71 267.72 27.67 267.72C28.37 267.72 29.14 267.86 29.98 268.14C30.8667 268.42 31.73 268.91 32.57 269.61L32.57 271.22C29.5833 271.266 27.2967 271.896 25.71 273.11C24.1233 274.323 23.33 276.236 23.33 278.85C23.33 281.183 23.89 282.91 25.01 284.03C26.13 285.15 27.4133 285.71 28.86 285.71C30.1667 285.71 31.24 285.29 32.08 284.45C32.92 283.656 33.6433 282.606 34.25 281.3C34.9033 280.04 35.51 278.686 36.07 277.24C36.6767 275.793 37.33 274.416 38.03 273.11C38.7767 271.85 39.6867 270.8 40.76 269.96C41.8333 269.166 43.1867 268.77 44.82 268.77C47.3867 268.77 49.5333 269.796 51.26 271.85C52.9867 273.903 53.85 276.773 53.85 280.46C53.85 281.906 53.71 283.376 53.43 284.87C53.1967 286.363 52.7067 287.763 51.96 289.07L43.91 289.07L43.91 287.46C46.6633 287.133 48.6 286.246 49.72 284.8C50.8867 283.353 51.47 281.65 51.47 279.69C51.47 277.776 51.05 276.33 50.21 275.35C49.37 274.37 48.2733 273.88 46.92 273.88C45.66 273.88 44.61 274.276 43.77 275.07C42.9767 275.91 42.2767 276.96 41.67 278.22C41.0633 279.526 40.4567 280.88 39.85 282.28C39.29 283.726 38.6133 285.08 37.82 286.34C37.0733 287.646 36.1167 288.696 34.95 289.49C33.83 290.33 32.4067 290.75 30.68 290.75C27.5533 290.75 25.15 289.536 23.47 287.11C21.79 284.683 20.95 281.65 20.95 278.01ZM53.85 312.599C53.85 315.306 53.1733 317.779 51.82 320.019C50.5133 322.306 48.67 324.149 46.29 325.549C43.91 326.949 41.1333 327.649 37.96 327.649C35.16 327.649 32.6867 327.159 30.54 326.179C28.44 325.246 26.6667 323.986 25.22 322.399C23.82 320.812 22.7467 319.062 22 317.149C21.3 315.282 20.95 313.439 20.95 311.619C20.95 308.959 21.6033 306.486 22.91 304.199C24.2633 301.912 26.13 300.069 28.51 298.669C30.89 297.316 33.6667 296.639 36.84 296.639C39.64 296.639 42.09 297.106 44.19 298.039C46.3367 299.019 48.11 300.302 49.51 301.889C50.9567 303.476 52.03 305.202 52.73 307.069C53.4767 308.936 53.85 310.779 53.85 312.599ZM23.75 312.809C23.75 315.562 24.73 317.732 26.69 319.319C28.6967 320.906 31.7767 321.699 35.93 321.699C38.7767 321.699 41.3433 321.256 43.63 320.369C45.9167 319.529 47.7133 318.339 49.02 316.799C50.3733 315.259 51.05 313.462 51.05 311.409C51.05 308.702 50.0467 306.556 48.04 304.969C46.08 303.382 43.0233 302.589 38.87 302.589C36.07 302.589 33.5267 303.009 31.24 303.849C28.9533 304.736 27.1333 305.949 25.78 307.489C24.4267 309.029 23.75 310.802 23.75 312.809ZM27.39 368.4L25.78 369.1L20.53 357.69L20.95 357.27C21.37 357.363 22.1867 357.457 23.4 357.55C24.66 357.69 25.99 357.76 27.39 357.76L27.39 357.69C25.6633 356.477 24.1467 354.937 22.84 353.07C21.58 351.25 20.95 349.057 20.95 346.49C20.95 344.297 21.51 342.243 22.63 340.33C23.7967 338.463 25.4767 336.947 27.67 335.78C29.8633 334.66 32.5233 334.1 35.65 334.1C38.6367 334.1 41.25 334.613 43.49 335.64C45.7767 336.713 47.69 338.113 49.23 339.84C50.77 341.613 51.9133 343.55 52.66 345.65C53.4533 347.797 53.85 349.943 53.85 352.09C53.85 354.237 53.64 356.08 53.22 357.62L67.99 357.62C69.2967 357.62 70.1367 357.41 70.51 356.99C70.8833 356.617 71.07 356.103 71.07 355.45C71.07 354.843 70.9767 354.19 70.79 353.49C70.6033 352.837 70.37 352.23 70.09 351.67L71.7 350.97L77.3 363.08L76.88 363.5C76.5067 363.453 75.5033 363.383 73.87 363.29C72.2367 363.243 70.3 363.22 68.06 363.22L29.84 363.22C28.5333 363.22 27.6933 363.407 27.32 363.78C26.9467 364.2 26.76 364.737 26.76 365.39C26.76 366.37 26.97 367.373 27.39 368.4ZM25.15 348.66C25.15 350.293 25.57 351.857 26.41 353.35C27.25 354.89 28.2767 356.313 29.49 357.62L47.83 357.62C49.0433 356.5 49.8133 355.24 50.14 353.84C50.5133 352.487 50.7 351.297 50.7 350.27C50.7 347.283 49.6733 344.787 47.62 342.78C45.6133 340.82 42.4167 339.84 38.03 339.84C34.0167 339.84 30.8667 340.657 28.58 342.29C26.2933 343.923 25.15 346.047 25.15 348.66ZM53.85 389.572C53.85 392.278 53.1733 394.752 51.82 396.992C50.5133 399.278 48.67 401.122 46.29 402.522C43.91 403.922 41.1333 404.622 37.96 404.622C35.16 404.622 32.6867 404.132 30.54 403.152C28.44 402.218 26.6667 400.958 25.22 399.372C23.82 397.785 22.7467 396.035 22 394.122C21.3 392.255 20.95 390.412 20.95 388.592C20.95 385.932 21.6033 383.458 22.91 381.172C24.2633 378.885 26.13 377.042 28.51 375.642C30.89 374.288 33.6667 373.612 36.84 373.612C39.64 373.612 42.09 374.078 44.19 375.012C46.3367 375.992 48.11 377.275 49.51 378.862C50.9567 380.448 52.03 382.175 52.73 384.042C53.4767 385.908 53.85 387.752 53.85 389.572ZM23.75 389.782C23.75 392.535 24.73 394.705 26.69 396.292C28.6967 397.878 31.7767 398.672 35.93 398.672C38.7767 398.672 41.3433 398.228 43.63 397.342C45.9167 396.502 47.7133 395.312 49.02 393.772C50.3733 392.232 51.05 390.435 51.05 388.382C51.05 385.675 50.0467 383.528 48.04 381.942C46.08 380.355 43.0233 379.562 38.87 379.562C36.07 379.562 33.5267 379.982 31.24 380.822C28.9533 381.708 27.1333 382.922 25.78 384.462C24.4267 386.002 23.75 387.775 23.75 389.782ZM22 411.283L23.61 411.283C23.6567 412.356 23.7967 413.196 24.03 413.803C24.2633 414.409 24.7533 414.829 25.5 415.063C26.2467 415.343 27.4367 415.483 29.07 415.483L45.1 415.483C46.3133 415.483 47.1067 415.296 47.48 414.923C47.8533 414.549 48.04 414.036 48.04 413.383C48.04 412.869 47.97 412.356 47.83 411.843C47.7367 411.376 47.5733 410.886 47.34 410.373L48.95 409.673L54.2 420.943L53.78 421.363C53.36 421.269 52.45 421.153 51.05 421.013C49.6967 420.919 48.2033 420.873 46.57 420.873L46.57 421.013C49.4167 422.926 51.33 425.026 52.31 427.313C53.29 429.646 53.6867 432.073 53.5 434.593C50.0467 434.966 46.5933 434.966 43.14 434.593L43.14 432.983C45.0533 432.796 46.3833 432.353 47.13 431.653C47.9233 430.999 48.32 430.066 48.32 428.853C48.32 427.313 47.9933 425.936 47.34 424.723C46.6867 423.509 45.6133 422.296 44.12 421.083L29.07 421.083C27.4367 421.083 26.2467 421.246 25.5 421.573C24.7533 421.899 24.2633 422.529 24.03 423.463C23.7967 424.443 23.6567 425.866 23.61 427.733L22 427.733L22 411.283ZM29.07 448.496C27.4367 448.496 26.2467 448.66 25.5 448.986C24.7533 449.313 24.2633 449.896 24.03 450.736C23.7967 451.623 23.6567 452.86 23.61 454.446L22 454.446L22 438.696L23.61 438.696C23.6567 439.723 23.7967 440.54 24.03 441.146C24.2633 441.753 24.7533 442.196 25.5 442.476C26.2467 442.756 27.4367 442.896 29.07 442.896L44.89 442.896C46.1967 442.896 47.0367 442.686 47.41 442.266C47.83 441.893 48.04 441.38 48.04 440.726C48.04 440.12 47.9233 439.466 47.69 438.766C47.5033 438.113 47.2933 437.506 47.06 436.946L48.67 436.246L54.2 448.356L53.78 448.776C53.4067 448.73 52.4033 448.66 50.77 448.566C49.1367 448.52 47.2 448.496 44.96 448.496L29.07 448.496ZM60.78 445.696C60.78 444.67 61.13 443.806 61.83 443.106C62.53 442.406 63.3933 442.056 64.42 442.056C65.4 442.056 66.24 442.406 66.94 443.106C67.64 443.806 67.99 444.67 67.99 445.696C67.99 446.723 67.64 447.586 66.94 448.286C66.24 448.986 65.4 449.336 64.42 449.336C63.3933 449.336 62.53 448.986 61.83 448.286C61.13 447.586 60.78 446.723 60.78 445.696ZM20.95 469.074C20.95 465.761 21.58 463.217 22.84 461.444C24.1 459.671 25.71 458.784 27.67 458.784C28.37 458.784 29.14 458.924 29.98 459.204C30.8667 459.484 31.73 459.974 32.57 460.674L32.57 462.284C29.5833 462.331 27.2967 462.961 25.71 464.174C24.1233 465.387 23.33 467.301 23.33 469.914C23.33 472.247 23.89 473.974 25.01 475.094C26.13 476.214 27.4133 476.774 28.86 476.774C30.1667 476.774 31.24 476.354 32.08 475.514C32.92 474.721 33.6433 473.671 34.25 472.364C34.9033 471.104 35.51 469.751 36.07 468.304C36.6767 466.857 37.33 465.481 38.03 464.174C38.7767 462.914 39.6867 461.864 40.76 461.024C41.8333 460.231 43.1867 459.834 44.82 459.834C47.3867 459.834 49.5333 460.861 51.26 462.914C52.9867 464.967 53.85 467.837 53.85 471.524C53.85 472.971 53.71 474.441 53.43 475.934C53.1967 477.427 52.7067 478.827 51.96 480.134L43.91 480.134L43.91 478.524C46.6633 478.197 48.6 477.311 49.72 475.864C50.8867 474.417 51.47 472.714 51.47 470.754C51.47 468.841 51.05 467.394 50.21 466.414C49.37 465.434 48.2733 464.944 46.92 464.944C45.66 464.944 44.61 465.341 43.77 466.134C42.9767 466.974 42.2767 468.024 41.67 469.284C41.0633 470.591 40.4567 471.944 39.85 473.344C39.29 474.791 38.6133 476.144 37.82 477.404C37.0733 478.711 36.1167 479.761 34.95 480.554C33.83 481.394 32.4067 481.814 30.68 481.814C27.5533 481.814 25.15 480.601 23.47 478.174C21.79 475.747 20.95 472.714 20.95 469.074ZM20.95 495.543C20.95 493.35 21.51 491.553 22.63 490.153C23.7967 488.8 25.4533 488.123 27.6 488.123C29.3267 488.123 30.9133 488.66 32.36 489.733C33.8067 490.807 35.1367 492.58 36.35 495.053C37.5633 497.527 38.6833 500.887 39.71 505.133L44.26 505.133C46.1733 505.133 47.76 504.713 49.02 503.873C50.28 503.08 50.91 501.54 50.91 499.253C50.91 497.06 50.21 495.31 48.81 494.003C47.4567 492.743 45.3333 491.857 42.44 491.343L42.44 489.733L51.19 489.733C51.9833 491.367 52.6133 493.093 53.08 494.913C53.5933 496.78 53.85 498.833 53.85 501.073C53.85 503.64 53.5 505.6 52.8 506.953C52.1467 508.353 51.2133 509.333 50 509.893C48.7867 510.453 47.3633 510.733 45.73 510.733L28.79 510.733C26.3166 510.733 25.08 511.503 25.08 513.043C25.08 513.603 25.2666 514.233 25.64 514.933C26.0133 515.68 26.7833 516.543 27.95 517.523L26.83 518.643C23.1433 516.497 21.3 513.93 21.3 510.943C21.3 507.863 22.8633 505.973 25.99 505.273L25.99 505.133C22.63 502.567 20.95 499.37 20.95 495.543ZM25.08 498.133C25.08 500.373 26.1067 502.707 28.16 505.133L37.54 505.133C36.7 501.773 35.7667 499.3 34.74 497.713C33.76 496.127 32.7567 495.077 31.73 494.563C30.75 494.097 29.84 493.863 29 493.863C27.6467 493.863 26.6433 494.283 25.99 495.123C25.3833 495.963 25.08 496.967 25.08 498.133ZM29.07 551.786C27.4366 551.786 26.2466 551.926 25.5 552.206C24.7533 552.533 24.2633 553.116 24.03 553.956C23.7966 554.843 23.6566 556.103 23.61 557.736L22 557.736L22 541.986L23.61 541.986C23.6566 543.013 23.7966 543.83 24.03 544.436C24.2633 545.043 24.7533 545.486 25.5 545.766C26.2466 546.046 27.4366 546.186 29.07 546.186L44.12 546.186C45.7533 546.186 47.0366 545.813 47.97 545.066C48.9033 544.366 49.37 543.13 49.37 541.356C49.37 539.816 49.0433 538.206 48.39 536.526C47.7366 534.846 46.71 533.12 45.31 531.346L29.07 531.346C27.4366 531.346 26.2466 531.486 25.5 531.766C24.7533 532.093 24.2633 532.676 24.03 533.516C23.7966 534.403 23.6566 535.663 23.61 537.296L22 537.296L22 521.546L23.61 521.546C23.6566 522.62 23.7966 523.46 24.03 524.066C24.2633 524.673 24.7533 525.093 25.5 525.326C26.2466 525.606 27.4366 525.746 29.07 525.746L44.96 525.746C46.22 525.746 47.0366 525.56 47.41 525.186C47.83 524.813 48.04 524.3 48.04 523.646C48.04 523.133 47.97 522.62 47.83 522.106C47.7367 521.64 47.5733 521.15 47.34 520.636L48.95 519.936L54.2 531.206L53.78 531.626C53.36 531.533 52.5433 531.416 51.33 531.276C50.1166 531.183 48.8333 531.136 47.48 531.136L47.48 531.276C49.3466 533.05 50.8633 534.963 52.03 537.016C53.2433 539.116 53.85 541.38 53.85 543.806C53.85 546.793 53.1033 548.87 51.61 550.036C50.1633 551.203 48.2266 551.786 45.8 551.786L29.07 551.786ZM28.09 581.33L26.97 582.45C25.29 581.33 23.8666 580.047 22.7 578.6C21.5333 577.153 20.95 575.263 20.95 572.93C20.95 571.063 21.3233 569.57 22.07 568.45C22.8166 567.377 23.7966 566.607 25.01 566.14C26.27 565.673 27.6233 565.44 29.07 565.44L49.93 565.44L49.93 560.61L52.8 560.61L52.8 565.44L62.39 565.44L63.44 571.39C61.6666 571.25 59.8933 571.157 58.12 571.11C56.3466 571.063 54.5733 571.04 52.8 571.04L52.8 581.4L49.93 581.4L49.93 573.21C49.93 572.417 49.7666 571.857 49.44 571.53C49.1133 571.203 48.5533 571.04 47.76 571.04L30.54 571.04C29.0466 571.04 27.7633 571.297 26.69 571.81C25.6166 572.37 25.08 573.49 25.08 575.17C25.08 576.15 25.3133 577.153 25.78 578.18C26.2933 579.207 27.0633 580.257 28.09 581.33Z" fill="black"/>
</svg>
