<svg width="268" height="732" viewBox="0 0 268 732" fill="none" xmlns="http://www.w3.org/2000/svg">
<path d="M252.611 681.104C250.456 702.63 235.179 721.337 226.5 728C217.821 734.663 41.8811 729.227 37.5 728C25 724.5 4.96158 708.971 3.30854 678.5C-3.21361 558.276 3.46223 259.933 6.00001 249.5C15 212.5 37.5 177.5 63.1678 160.636C88.8355 143.772 122.126 124.247 135.892 111.434L205.924 63C211.909 75.5568 229.626 110.05 252.611 147.566C281.342 194.462 255.304 654.197 252.611 681.104Z" fill="#DACAE7"/>
<path d="M10.5397 401L10.5397 399.735C11.5297 399.698 12.2997 399.588 12.8497 399.405C13.3997 399.222 13.7847 398.837 14.0047 398.25C14.2613 397.663 14.3897 396.747 14.3897 395.5L14.3897 369.925C14.3897 368.642 14.243 367.725 13.9497 367.175C13.693 366.588 13.198 366.203 12.4647 366.02C11.7313 365.837 10.6313 365.727 9.16466 365.69L9.16466 364.425L14.3897 364.425C16.883 364.425 19.083 364.388 20.9897 364.315C22.933 364.205 24.583 364.15 25.9397 364.15C29.8997 364.15 33.3463 364.81 36.2797 366.13C39.2497 367.413 41.5597 369.338 43.2097 371.905C44.8597 374.472 45.6847 377.698 45.6847 381.585C45.6847 384.592 45.1347 387.305 44.0347 389.725C42.9347 392.108 41.4313 394.143 39.5247 395.83C37.6547 397.517 35.528 398.8 33.1447 399.68C30.798 400.56 28.3413 401 25.7747 401L10.5397 401ZM24.1247 399.02C29.698 399.02 33.7863 397.535 36.3897 394.565C39.0297 391.558 40.3497 387.507 40.3497 382.41C40.3497 378.487 39.6897 375.333 38.3697 372.95C37.0863 370.567 35.253 368.843 32.8697 367.78C30.4863 366.68 27.663 366.13 24.3997 366.13C22.383 366.13 20.9897 366.35 20.2197 366.79C19.4497 367.193 19.0647 368.238 19.0647 369.925L19.0647 395.5C19.0647 397.077 19.4313 398.067 20.1647 398.47C20.9347 398.837 22.2547 399.02 24.1247 399.02ZM62.6603 401.825C60.7903 401.825 58.9937 401.385 57.2703 400.505C55.5837 399.625 54.1903 398.305 53.0903 396.545C52.027 394.748 51.4953 392.475 51.4953 389.725C51.4953 386.938 52.0453 384.518 53.1453 382.465C54.2453 380.412 55.712 378.817 57.5453 377.68C59.3787 376.543 61.377 375.975 63.5403 375.975C65.117 375.975 66.5653 376.287 67.8853 376.91C69.242 377.533 70.3237 378.487 71.1303 379.77C71.9737 381.053 72.3953 382.685 72.3953 384.665L55.8953 386.81C55.8953 386.993 55.8953 387.195 55.8953 387.415C55.8953 390.788 56.6653 393.428 58.2053 395.335C59.7453 397.242 61.7987 398.195 64.3653 398.195C65.832 398.195 67.1887 397.902 68.4353 397.315C69.682 396.692 70.8003 395.922 71.7903 395.005L72.6703 395.885C71.6437 397.645 70.2687 399.075 68.5453 400.175C66.8587 401.275 64.897 401.825 62.6603 401.825ZM62.3853 378.01C60.4787 378.01 59.012 378.688 57.9853 380.045C56.9587 381.402 56.317 383.07 56.0603 385.05L67.4453 383.565C67.2253 381.988 66.7487 380.668 66.0153 379.605C65.282 378.542 64.072 378.01 62.3853 378.01ZM65.6853 360.63C66.3453 360.593 67.0603 360.722 67.8303 361.015C68.637 361.272 69.2787 361.675 69.7553 362.225C68.9487 363.875 67.7753 365.562 66.2353 367.285C64.6953 368.972 63.082 370.347 61.3953 371.41L60.7903 370.365C62.0737 368.972 63.1187 367.413 63.9253 365.69C64.7687 363.93 65.3553 362.243 65.6853 360.63ZM92.0806 396.215L92.9606 397.095C92.0806 398.415 91.0723 399.533 89.9356 400.45C88.7989 401.367 87.3139 401.825 85.4806 401.825C84.0139 401.825 82.8406 401.532 81.9606 400.945C81.1173 400.358 80.5123 399.588 80.1456 398.635C79.7789 397.645 79.5956 396.582 79.5956 395.445L79.5956 379.055L75.8006 379.055L75.8006 376.8L79.5956 376.8L79.5956 369.265L84.2706 368.44C84.1606 369.833 84.0873 371.227 84.0506 372.62C84.0139 374.013 83.9956 375.407 83.9956 376.8L92.1356 376.8L92.1356 379.055L85.7006 379.055C85.0773 379.055 84.6373 379.183 84.3806 379.44C84.1239 379.697 83.9956 380.137 83.9956 380.76L83.9956 394.29C83.9956 395.463 84.1973 396.472 84.6006 397.315C85.0406 398.158 85.9206 398.58 87.2406 398.58C88.0106 398.58 88.7989 398.397 89.6056 398.03C90.4123 397.627 91.2373 397.022 92.0806 396.215ZM103.041 401.825C101.318 401.825 99.9061 401.385 98.8061 400.505C97.7427 399.588 97.2111 398.287 97.2111 396.6C97.2111 395.243 97.6327 393.997 98.4761 392.86C99.3194 391.723 100.713 390.678 102.656 389.725C104.599 388.772 107.239 387.892 110.576 387.085L110.576 383.51C110.576 382.007 110.246 380.76 109.586 379.77C108.963 378.78 107.753 378.285 105.956 378.285C104.233 378.285 102.858 378.835 101.831 379.935C100.841 380.998 100.144 382.667 99.7411 384.94L98.4761 384.94L98.4761 378.065C99.7594 377.442 101.116 376.947 102.546 376.58C104.013 376.177 105.626 375.975 107.386 375.975C109.403 375.975 110.943 376.25 112.006 376.8C113.106 377.313 113.876 378.047 114.316 379C114.756 379.953 114.976 381.072 114.976 382.355L114.976 395.665C114.976 397.608 115.581 398.58 116.791 398.58C117.231 398.58 117.726 398.433 118.276 398.14C118.863 397.847 119.541 397.242 120.311 396.325L121.191 397.205C119.504 400.102 117.488 401.55 115.141 401.55C112.721 401.55 111.236 400.322 110.686 397.865L110.576 397.865C108.559 400.505 106.048 401.825 103.041 401.825ZM105.076 398.58C106.836 398.58 108.669 397.773 110.576 396.16L110.576 388.79C107.936 389.45 105.993 390.183 104.746 390.99C103.499 391.76 102.674 392.548 102.271 393.355C101.904 394.125 101.721 394.84 101.721 395.5C101.721 396.563 102.051 397.352 102.711 397.865C103.371 398.342 104.159 398.58 105.076 398.58ZM123.472 401L123.472 399.735C124.315 399.698 124.975 399.588 125.452 399.405C125.929 399.222 126.259 398.837 126.442 398.25C126.662 397.663 126.772 396.728 126.772 395.445L126.772 382.85C126.772 381.897 126.625 381.273 126.332 380.98C126.039 380.687 125.635 380.54 125.122 380.54C124.719 380.54 124.315 380.595 123.912 380.705C123.545 380.778 123.16 380.907 122.757 381.09L122.207 379.825L131.062 375.7L131.392 376.03C131.319 376.36 131.227 377.075 131.117 378.175C131.044 379.238 131.007 380.412 131.007 381.695L131.117 381.695C132.62 379.458 134.27 377.955 136.067 377.185C137.9 376.415 139.807 376.103 141.787 376.25C142.08 378.963 142.08 381.677 141.787 384.39L140.522 384.39C140.375 382.887 140.027 381.842 139.477 381.255C138.964 380.632 138.23 380.32 137.277 380.32C136.067 380.32 134.985 380.577 134.032 381.09C133.079 381.603 132.125 382.447 131.172 383.62L131.172 395.445C131.172 396.728 131.3 397.663 131.557 398.25C131.814 398.837 132.309 399.222 133.042 399.405C133.812 399.588 134.93 399.698 136.397 399.735L136.397 401L123.472 401ZM159.971 396.215L160.851 397.095C159.971 398.415 158.963 399.533 157.826 400.45C156.69 401.367 155.205 401.825 153.371 401.825C151.905 401.825 150.731 401.532 149.851 400.945C149.008 400.358 148.403 399.588 148.036 398.635C147.67 397.645 147.486 396.582 147.486 395.445L147.486 379.055L143.691 379.055L143.691 376.8L147.486 376.8L147.486 369.265L152.161 368.44C152.051 369.833 151.978 371.227 151.941 372.62C151.905 374.013 151.886 375.407 151.886 376.8L160.026 376.8L160.026 379.055L153.591 379.055C152.968 379.055 152.528 379.183 152.271 379.44C152.015 379.697 151.886 380.137 151.886 380.76L151.886 394.29C151.886 395.463 152.088 396.472 152.491 397.315C152.931 398.158 153.811 398.58 155.131 398.58C155.901 398.58 156.69 398.397 157.496 398.03C158.303 397.627 159.128 397.022 159.971 396.215ZM164.937 401L164.937 399.735C165.78 399.698 166.44 399.588 166.917 399.405C167.393 399.222 167.723 398.837 167.907 398.25C168.127 397.663 168.237 396.728 168.237 395.445L168.237 382.85C168.237 381.897 168.09 381.273 167.797 380.98C167.503 380.687 167.1 380.54 166.587 380.54C166.183 380.54 165.78 380.595 165.377 380.705C165.01 380.778 164.625 380.907 164.222 381.09L163.672 379.825L172.527 375.7L172.857 376.03C172.783 376.36 172.692 377.075 172.582 378.175C172.508 379.238 172.472 380.412 172.472 381.695L172.582 381.695C174.085 379.458 175.735 377.955 177.532 377.185C179.365 376.415 181.272 376.103 183.252 376.25C183.545 378.963 183.545 381.677 183.252 384.39L181.987 384.39C181.84 382.887 181.492 381.842 180.942 381.255C180.428 380.632 179.695 380.32 178.742 380.32C177.532 380.32 176.45 380.577 175.497 381.09C174.543 381.603 173.59 382.447 172.637 383.62L172.637 395.445C172.637 396.728 172.765 397.663 173.022 398.25C173.278 398.837 173.773 399.222 174.507 399.405C175.277 399.588 176.395 399.698 177.862 399.735L177.862 401L164.937 401ZM192.416 401.825C190.693 401.825 189.281 401.385 188.181 400.505C187.118 399.588 186.586 398.287 186.586 396.6C186.586 395.243 187.008 393.997 187.851 392.86C188.694 391.723 190.088 390.678 192.031 389.725C193.974 388.772 196.614 387.892 199.951 387.085L199.951 383.51C199.951 382.007 199.621 380.76 198.961 379.77C198.338 378.78 197.128 378.285 195.331 378.285C193.608 378.285 192.233 378.835 191.206 379.935C190.216 380.998 189.519 382.667 189.116 384.94L187.851 384.94L187.851 378.065C189.134 377.442 190.491 376.947 191.921 376.58C193.388 376.177 195.001 375.975 196.761 375.975C198.778 375.975 200.318 376.25 201.381 376.8C202.481 377.313 203.251 378.047 203.691 379C204.131 379.953 204.351 381.072 204.351 382.355L204.351 395.665C204.351 397.608 204.956 398.58 206.166 398.58C206.606 398.58 207.101 398.433 207.651 398.14C208.238 397.847 208.916 397.242 209.686 396.325L210.566 397.205C208.879 400.102 206.863 401.55 204.516 401.55C202.096 401.55 200.611 400.322 200.061 397.865L199.951 397.865C197.934 400.505 195.423 401.825 192.416 401.825ZM194.451 398.58C196.211 398.58 198.044 397.773 199.951 396.16L199.951 388.79C197.311 389.45 195.368 390.183 194.121 390.99C192.874 391.76 192.049 392.548 191.646 393.355C191.279 394.125 191.096 394.84 191.096 395.5C191.096 396.563 191.426 397.352 192.086 397.865C192.746 398.342 193.534 398.58 194.451 398.58ZM236.607 395.445C236.607 396.728 236.717 397.663 236.937 398.25C237.194 398.837 237.652 399.222 238.312 399.405C239.009 399.588 239.999 399.698 241.282 399.735L241.282 401L228.907 401L228.907 399.735C229.714 399.698 230.355 399.588 230.832 399.405C231.309 399.222 231.657 398.837 231.877 398.25C232.097 397.663 232.207 396.728 232.207 395.445L232.207 383.62C232.207 382.337 231.914 381.328 231.327 380.595C230.777 379.862 229.805 379.495 228.412 379.495C227.202 379.495 225.937 379.752 224.617 380.265C223.297 380.778 221.94 381.585 220.547 382.685L220.547 395.445C220.547 396.728 220.657 397.663 220.877 398.25C221.134 398.837 221.592 399.222 222.252 399.405C222.949 399.588 223.939 399.698 225.222 399.735L225.222 401L212.847 401L212.847 399.735C213.69 399.698 214.35 399.588 214.827 399.405C215.304 399.222 215.634 398.837 215.817 398.25C216.037 397.663 216.147 396.728 216.147 395.445L216.147 382.96C216.147 381.97 216 381.328 215.707 381.035C215.414 380.705 215.01 380.54 214.497 380.54C214.094 380.54 213.69 380.595 213.287 380.705C212.92 380.778 212.535 380.907 212.132 381.09L211.582 379.825L220.437 375.7L220.767 376.03C220.694 376.36 220.602 377.002 220.492 377.955C220.419 378.908 220.382 379.917 220.382 380.98L220.492 380.98C221.885 379.513 223.389 378.322 225.002 377.405C226.652 376.452 228.43 375.975 230.337 375.975C232.684 375.975 234.315 376.562 235.232 377.735C236.149 378.872 236.607 380.393 236.607 382.3L236.607 395.445ZM259.82 396.215L260.7 397.095C259.82 398.415 258.812 399.533 257.675 400.45C256.538 401.367 255.053 401.825 253.22 401.825C251.753 401.825 250.58 401.532 249.7 400.945C248.857 400.358 248.252 399.588 247.885 398.635C247.518 397.645 247.335 396.582 247.335 395.445L247.335 379.055L243.54 379.055L243.54 376.8L247.335 376.8L247.335 369.265L252.01 368.44C251.9 369.833 251.827 371.227 251.79 372.62C251.753 374.013 251.735 375.407 251.735 376.8L259.875 376.8L259.875 379.055L253.44 379.055C252.817 379.055 252.377 379.183 252.12 379.44C251.863 379.697 251.735 380.137 251.735 380.76L251.735 394.29C251.735 395.463 251.937 396.472 252.34 397.315C252.78 398.158 253.66 398.58 254.98 398.58C255.75 398.58 256.538 398.397 257.345 398.03C258.152 397.627 258.977 397.022 259.82 396.215Z" fill="black"/>
<path d="M134.854 -2.55508e-06C141.52 3.58925 156.697 13.5366 164.081 24.612L121.01 46.9166C123.471 40.1483 115.369 21.5355 111.011 13.0751L134.854 -2.55508e-06Z" fill="#FE4A0C"/>
<path d="M178.165 18.4702L211.006 70.5398L137.17 113.611L108.713 54.3882C108.713 54.3882 127.867 34.3882 142.439 26.4292C157.011 18.4702 178.165 18.4702 178.165 18.4702Z" fill="#CB3501"/>
</svg>
