<svg width="271" height="737" viewBox="0 0 271 737" fill="none" xmlns="http://www.w3.org/2000/svg">
<path d="M255.08 684.104C252.925 705.63 237.648 724.337 228.969 731C220.29 737.663 44.3499 732.227 39.9688 731C27.4688 727.5 7.43033 711.971 5.77729 681.5C-0.744855 561.276 5.93098 262.933 8.46876 252.5C17.4688 215.5 39.9688 180.5 65.6365 163.636C91.3043 146.772 124.594 127.247 138.361 114.434L208.392 66C214.378 78.5568 232.095 113.05 255.08 150.566C283.81 197.462 257.773 657.197 255.08 684.104Z" fill="white" stroke="#81EC40" stroke-width="5"/>
<path d="M137.322 3C143.988 6.58925 159.165 16.5366 166.549 27.612L123.478 49.9166C125.939 43.1483 117.838 24.5355 113.479 16.0751L137.322 3Z" fill="white" stroke="#81EC40" stroke-width="5"/>
<path d="M180.633 21.4687L213.475 73.5384L139.639 116.609L111.181 57.3867C111.181 57.3867 130.335 37.3867 144.907 29.4277C159.479 21.4687 180.633 21.4687 180.633 21.4687Z" fill="white" stroke="#81EC40" stroke-width="5"/>
</svg>
