<svg width="260" height="655" fill="none" xmlns="http://www.w3.org/2000/svg"><path d="M103.162 41V2h70v39" stroke="#000" stroke-width="3" stroke-dasharray="10 10"/><path d="M18.162 642.5l-1.486.2.145 1.077 1.068.198.273-1.475zm-10-345l1.486.206-1.486-.206zM92.662 72l1.219.874.172-.24.068-.287L92.662 72zm92 0l-1.43.454.052.16.085.146 1.293-.76zm72 247l1.498-.077-1.498.077zm-10 323.5l.369 1.454 1.029-.261.096-1.057-1.494-.136zM98.702 40.153l-.937 3.937 2.919.695.937-3.938-2.918-.694zM95.89 51.965l-1.875 7.875 2.919.695 1.875-7.875-2.919-.695zm-3.75 15.75l-.937 3.938 2.918.694.938-3.937-2.919-.695zm-.697 3.41a199.755 199.755 0 00-2.893 4.149l2.482 1.686c.992-1.46 1.943-2.823 2.849-4.086l-2.438-1.748zM83 83.796a365.751 365.751 0 00-5.271 8.684L80.313 94a362.606 362.606 0 015.228-8.612l-2.542-1.594zm-10.317 17.493a485.546 485.546 0 00-4.86 8.937l2.65 1.406a483.18 483.18 0 014.83-8.882l-2.62-1.461zm-9.516 17.923a549.952 549.952 0 00-4.507 9.114l2.701 1.305c1.504-3.112 3-6.135 4.483-9.065l-2.677-1.354zm-8.828 18.264a591.603 591.603 0 00-4.174 9.251l2.745 1.211a585.771 585.771 0 014.152-9.205l-2.723-1.257zm-8.19 18.577a602.461 602.461 0 00-3.85 9.366l2.785 1.117a599.5 599.5 0 013.83-9.32l-2.766-1.163zm-7.544 18.806a604.227 604.227 0 00-3.539 9.508l2.82 1.022a600.11 600.11 0 013.522-9.46l-2.803-1.07zm-6.918 19.077a594.122 594.122 0 00-3.216 9.626l2.853.927a589.182 589.182 0 013.2-9.578l-2.837-.975zm-6.263 19.292a580.4 580.4 0 00-2.88 9.719l2.884.827c.934-3.256 1.89-6.48 2.865-9.669l-2.87-.877zm-5.589 19.49a564.117 564.117 0 00-2.534 9.82l2.911.723c.817-3.284 1.657-6.54 2.521-9.767l-2.898-.776zm-4.89 19.685a540.32 540.32 0 00-2.172 9.908l2.936.615a537.807 537.807 0 012.16-9.853l-2.924-.67zm-4.157 19.856a519.897 519.897 0 00-1.792 9.985l2.958.501c.564-3.33 1.159-6.64 1.782-9.927l-2.948-.559zM7.4 292.263c-.25 1.672-.49 3.349-.723 5.031l2.971.412c.232-1.672.472-3.339.72-5.001l-2.968-.442zm-.723 5.031c-.23 1.659-.453 3.333-.668 5.02l2.975.38c.215-1.677.436-3.34.664-4.988l-2.971-.412zm-1.861 15.157c-.36 3.34-.696 6.726-1.008 10.155l2.988.271c.31-3.413.644-6.782 1.003-10.103l-2.983-.323zm-1.85 20.323a747.702 747.702 0 00-.698 10.179l2.995.185c.21-3.413.441-6.794.694-10.138l-2.992-.226zM1.703 353.14a908.49 908.49 0 00-.444 10.192l2.998.114c.13-3.411.277-6.798.442-10.159l-2.996-.147zm-.778 20.373c-.093 3.376-.17 6.771-.233 10.182l3 .054c.062-3.401.139-6.787.232-10.153l-2.999-.083zm-.372 20.369c-.032 3.385-.05 6.782-.053 10.19l3 .003c.004-3.399.02-6.789.052-10.165l-3-.028zm-.025 20.381c.022 3.391.058 6.788.105 10.19l3-.042c-.048-3.394-.083-6.784-.105-10.168l-3 .02zm.28 20.375c.07 3.394.152 6.789.244 10.183l3-.082c-.093-3.387-.174-6.776-.244-10.163l-3 .062zm.553 20.366c.113 3.399.236 6.794.37 10.181l2.997-.118c-.133-3.381-.256-6.77-.369-10.163l-2.998.1zm.797 20.358c.153 3.401.315 6.792.485 10.17l2.996-.151c-.17-3.373-.331-6.758-.484-10.154l-2.997.135zm1.023 20.331c.19 3.41.387 6.802.591 10.175l2.995-.182c-.205-3.368-.402-6.755-.59-10.159l-2.996.166zm1.234 20.346c.224 3.413.455 6.803.692 10.166l2.993-.212c-.237-3.357-.468-6.742-.691-10.151l-2.994.197zm1.434 20.326c.257 3.419.52 6.805.789 10.154l2.99-.239c-.268-3.345-.53-6.727-.788-10.141l-2.991.226zm1.626 20.303c.29 3.427.586 6.81.884 10.145l2.988-.268c-.298-3.33-.593-6.708-.883-10.13l-2.99.253zm1.817 20.286c.325 3.442.653 6.823.982 10.14l2.986-.297a2074.14 2074.14 0 01-.981-10.125l-2.987.282zm2.015 20.277c.362 3.463.724 6.843 1.086 10.133l2.982-.328a1902.15 1902.15 0 01-1.084-10.116l-2.984.311zm2.227 20.252c.404 3.487.805 6.852 1.2 10.083l2.978-.364c-.395-3.225-.795-6.583-1.198-10.064l-2.98.345zm2.48 20.221c.222 1.715.443 3.381.66 4.996l2.974-.4c-.217-1.611-.437-3.273-.66-4.984l-2.975.388zm1.874 6.271c1.727.32 3.45.633 5.169.937l.522-2.954a636.45 636.45 0 01-5.144-.933l-.547 2.95zm15.5 2.676c3.471.555 6.924 1.078 10.356 1.569l.425-2.97a642.212 642.212 0 01-10.308-1.561l-.474 2.962zm20.737 2.968c3.49.441 6.957.851 10.4 1.23l.328-2.982a636.917 636.917 0 01-10.352-1.225l-.376 2.977zm20.814 2.294c3.509.33 6.988.629 10.437.898l.233-2.991a651.102 651.102 0 01-10.389-.894l-.281 2.987zm20.895 1.631c3.525.219 7.014.408 10.465.568l.139-2.997a660.893 660.893 0 01-10.418-.565l-.186 2.994zm20.932.97c3.533.108 7.021.186 10.463.237l.044-3c-3.426-.05-6.898-.128-10.415-.236l-.092 2.999zm20.938.308c3.553-.005 7.05-.038 10.488-.097l-.052-3c-3.422.06-6.903.092-10.439.097l.003 3zm20.951-.364c3.563-.12 7.055-.267 10.471-.44l-.151-2.996c-3.4.172-6.875.319-10.421.438l.101 2.998zm20.933-1.058c3.581-.243 7.066-.513 10.449-.804l-.257-2.989c-3.366.29-6.832.558-10.395.8l.203 2.993zm20.864-1.801c3.619-.382 7.099-.788 10.432-1.211l-.378-2.976c-3.312.421-6.77.824-10.369 1.204l.315 2.983zm20.823-2.654a361.058 361.058 0 0010.34-1.713l-.535-2.952a360.3 360.3 0 01-10.254 1.699l.449 2.966zm20.668-3.783c1.826-.407 3.524-.811 5.087-1.208l-.738-2.908c-1.532.389-3.201.786-5.002 1.188l.653 2.928zm6.212-2.526c.146-1.611.296-3.281.447-5.009l-2.988-.262c-.152 1.725-.301 3.392-.447 4.999l2.988.272zm1.306-15.085c.267-3.223.538-6.594.814-10.103l-2.991-.234c-.275 3.504-.547 6.871-.813 10.09l2.99.247zm1.591-20.243c.244-3.262.49-6.621.736-10.07l-2.992-.214c-.246 3.446-.492 6.801-.736 10.06l2.992.224zm1.44-20.162c.226-3.3.45-6.669.674-10.103l-2.994-.195c-.223 3.431-.448 6.797-.673 10.094l2.993.204zm1.317-20.21c.207-3.32.411-6.691.614-10.11l-2.995-.177c-.202 3.415-.407 6.784-.613 10.101l2.994.186zm1.198-20.221c.188-3.334.373-6.706.554-10.113l-2.995-.16c-.182 3.404-.367 6.774-.554 10.104l2.995.169zm1.079-20.228c.169-3.345.334-6.718.495-10.118l-2.996-.142c-.161 3.397-.326 6.767-.495 10.109l2.996.151zm.96-20.237c.148-3.354.293-6.729.433-10.122l-2.998-.123c-.139 3.39-.284 6.761-.432 10.112l2.997.133zm.834-20.245c.127-3.361.25-6.737.368-10.124l-2.999-.104c-.117 3.384-.24 6.756-.367 10.114l2.998.114zm.701-20.241c.105-3.366.204-6.741.298-10.121l-2.999-.083c-.094 3.377-.193 6.748-.298 10.11l2.999.094zm.558-20.246c.081-3.373.155-6.75.222-10.127l-2.999-.06a2829.13 2829.13 0 01-.222 10.116l2.999.071zm.403-20.255c.053-3.38.099-6.757.137-10.129l-2.999-.034c-.039 3.368-.085 6.74-.138 10.115l3 .048zm.229-20.256c.023-3.384.038-6.761.044-10.126l-3-.005c-.006 3.36-.021 6.731-.044 10.111l3 .02zm.035-20.256c-.012-3.393-.033-6.772-.064-10.134l-3 .027c.031 3.357.052 6.73.064 10.118l3-.011zm-.189-20.269c-.052-3.4-.115-6.779-.189-10.134l-2.999.066c.073 3.348.136 6.721.189 10.114l2.999-.046zm-.45-20.267c-.1-3.407-.212-6.785-.338-10.131l-2.998.113c.125 3.337.238 6.707.338 10.106l2.998-.088zm-.762-20.259c-.078-1.687-.16-3.365-.246-5.033l-2.996.154c.085 1.663.167 3.335.245 5.018l2.997-.139zm-.246-5.033a435.69 435.69 0 00-.284-5.001l-2.994.187c.103 1.654.197 3.31.282 4.968l2.996-.154zm-1.012-14.982a485.33 485.33 0 00-.936-9.962l-2.983.311c.342 3.289.653 6.59.93 9.901l2.989-.25zm-2.072-19.903a526.92 526.92 0 00-1.33-9.916l-2.97.427c.471 3.272.912 6.559 1.323 9.859l2.977-.37zm-2.848-19.804a551.482 551.482 0 00-1.698-9.858l-2.951.536c.59 3.25 1.153 6.518 1.689 9.805l2.96-.483zm-3.571-19.683a589.29 589.29 0 00-2.042-9.791l-2.932.637a577.46 577.46 0 012.032 9.741l2.942-.587zm-4.25-19.546a619.298 619.298 0 00-2.368-9.716l-2.908.734a610.646 610.646 0 012.356 9.669l2.92-.687zm-4.891-19.392a645.005 645.005 0 00-2.676-9.633l-2.884.825a642.337 642.337 0 012.663 9.588l2.897-.78zm-5.5-19.221a651.102 651.102 0 00-2.97-9.54l-2.857.914c.998 3.124 1.985 6.29 2.956 9.496l2.871-.87zm-6.086-19.039a664.403 664.403 0 00-3.263-9.463l-2.829.999a646.33 646.33 0 013.249 9.421l2.843-.957zm-6.668-18.872a645.674 645.674 0 00-3.544-9.346l-2.797 1.086a635.18 635.18 0 013.528 9.302l2.813-1.042zm-7.224-18.617a621.849 621.849 0 00-3.848-9.262l-2.761 1.174a615.857 615.857 0 013.829 9.217l2.78-1.129zm-7.834-18.425a549.556 549.556 0 00-4.154-9.109l-2.718 1.27a547.303 547.303 0 014.131 9.059l2.741-1.22zm-8.468-18.108a424.158 424.158 0 00-4.533-8.952l-2.66 1.388a424.137 424.137 0 014.502 8.888l2.691-1.324zm-9.296-17.763a248.077 248.077 0 00-2.485-4.328l-2.586 1.52c.788 1.34 1.608 2.766 2.455 4.276l2.616-1.468zm-2.348-4.022l-1.25-3.937-2.86.907 1.25 3.938 2.86-.908zm-3.75-11.812l-2.5-7.875-2.86.907 2.5 7.875 2.86-.907zm-5-15.75l-1.25-3.938-2.86.908 1.25 3.937 2.86-.907z" fill="#000"/></svg>