<svg width="298" height="676" fill="none" xmlns="http://www.w3.org/2000/svg"><path d="M117.841 59.323c-34.672 19.437-106.014 66.403-114 98.764-9.98 40.452 33.097 66.719 28.37 132.387C27.481 356.142-6.14 484.851 3.84 560.5c9.983 75.65 5.254 88.783 16.812 97.189C32.21 666.094 136.754 674.5 149.887 674.5c13.134 0 111.898-3.677 118.728-16.811 6.829-13.134 26.792-63.567 23.64-97.189-3.152-33.622-35.723-249.538-23.64-299.971 12.083-50.433 36.774-67.244 23.64-102.442-10.507-28.158-73.723-77.575-104.018-98.764" stroke="#000" stroke-width="3" stroke-dasharray="10 10"/><path d="M116.791 59.323V30.429l16.811-6.83V1.536h36.774V23.6l15.76 6.829v28.894" stroke="#000" stroke-width="3" stroke-dasharray="10 10"/></svg>