<svg width="273" height="649" fill="none" xmlns="http://www.w3.org/2000/svg"><path d="M86.67 123C89.891 99.103 95.766 57.182 98 47.5c2.4-10.4 1-29.667 0-38C105.833 7 125 2 139 2s30.167 5 36.5 7.5v38c0 12.972 7.727 52.988 12.441 75.5" stroke="#000" stroke-width="3" stroke-dasharray="10 10"/><path d="M39.5 641l-1.443.411.274.961.993.118.176-1.49zm-34-310.5l1.49.177-1.49-.177zm226 310.5l.235 1.481 1.038-.164.2-1.032L231.5 641zM83.375 123.008a120.507 120.507 0 00-3.293 3.912l2.334 1.885a115.566 115.566 0 013.21-3.813l-2.251-1.984zm-9.495 12.103a241.255 241.255 0 00-5.764 8.447l2.512 1.64a238.752 238.752 0 015.692-8.342l-2.44-1.745zm-11.2 17.109a332.06 332.06 0 00-5.153 8.837l2.615 1.471a330.92 330.92 0 015.105-8.757l-2.567-1.551zm-10.041 17.817a387.355 387.355 0 00-4.63 9.083l2.69 1.328a388.162 388.162 0 014.594-9.014l-2.654-1.397zm-9.044 18.318a423.513 423.513 0 00-4.166 9.296l2.752 1.194a424.24 424.24 0 014.137-9.231l-2.723-1.259zm-8.122 18.713c-1.26 3.1-2.509 6.271-3.74 9.51l2.804 1.066a443.708 443.708 0 013.715-9.446l-2.78-1.13zm-7.255 19.076a464.441 464.441 0 00-3.307 9.655l2.85.941a459.558 459.558 0 013.284-9.592l-2.827-1.004zm-6.403 19.387a475.272 475.272 0 00-2.887 9.802l2.887.816c.932-3.297 1.89-6.544 2.868-9.739l-2.868-.879zm-5.558 19.645a480.97 480.97 0 00-2.46 9.897l2.919.693a476.242 476.242 0 012.445-9.835l-2.904-.755zm-4.711 19.847a484.924 484.924 0 00-2.041 9.997l2.945.569a482.256 482.256 0 012.029-9.935l-2.933-.631zm-3.873 20.035c-.57 3.322-1.11 6.68-1.62 10.074l2.966.446a487.424 487.424 0 011.611-10.013l-2.957-.507zM4.64 325.239a490.93 490.93 0 00-.63 5.084l2.98.354c.2-1.693.409-3.378.625-5.054l-2.975-.384zm-.63 5.084a390.132 390.132 0 00-.546 4.874l2.984.315c.17-1.62.351-3.232.541-4.835l-2.979-.354zm-1.464 14.681c-.266 3.25-.498 6.525-.696 9.823l2.994.18c.197-3.277.427-6.531.692-9.758l-2.99-.245zm-1.189 19.657a535.65 535.65 0 00-.304 9.84l3 .065c.071-3.279.171-6.541.302-9.784l-2.998-.121zm-.434 19.682a619.73 619.73 0 00.032 9.84l3-.034a616.61 616.61 0 01-.032-9.792l-3-.014zm.215 19.67c.085 3.269.194 6.545.325 9.827l2.997-.12a702.73 702.73 0 01-.323-9.785l-2.999.078zm.782 19.649c.173 3.271.368 6.544.582 9.817l2.994-.197c-.214-3.26-.408-6.521-.58-9.778l-2.996.158zm1.283 19.624c.253 3.27.524 6.536.813 9.798l2.989-.265c-.288-3.25-.559-6.506-.81-9.764l-2.992.231zm1.733 19.584a962.2 962.2 0 001.022 9.773l2.982-.327a961.005 961.005 0 01-1.018-9.743l-2.986.297zm2.142 19.536c.391 3.266.797 6.519 1.215 9.756l2.975-.385c-.417-3.228-.821-6.471-1.21-9.728l-2.98.357zm2.52 19.5c.453 3.264.918 6.509 1.394 9.731l2.968-.438c-.475-3.214-.938-6.45-1.39-9.705l-2.971.412zm2.873 19.449c.511 3.262 1.033 6.498 1.563 9.704l2.96-.49c-.53-3.197-1.05-6.425-1.559-9.678l-2.964.464zm3.207 19.393a1194.67 1194.67 0 001.725 9.675l2.951-.538c-.58-3.18-1.154-6.398-1.72-9.651l-2.956.514zm3.53 19.336c.624 3.263 1.253 6.48 1.885 9.646l2.942-.588c-.63-3.158-1.258-6.366-1.88-9.621l-2.947.563zm3.85 19.275c.682 3.267 1.366 6.472 2.048 9.609l2.931-.638a1128.08 1128.08 0 01-2.041-9.584l-2.937.613zm4.178 19.193c.742 3.271 1.482 6.455 2.214 9.545l2.92-.692a989.763 989.763 0 01-2.208-9.517l-2.926.664zm4.54 19.137a834.03 834.03 0 002.423 9.535l2.903-.757a828.812 828.812 0 01-2.415-9.5l-2.911.722zm4.964 19.019a577.37 577.37 0 001.317 4.703l2.886-.822a567.97 567.97 0 01-1.311-4.678l-2.892.797zm2.584 5.782c1.604.189 3.203.373 4.8.552l.333-2.981c-1.59-.178-3.184-.362-4.781-.551l-.352 2.98zm14.386 1.567c3.217.321 6.416.621 9.594.901l.262-2.989a804.112 804.112 0 01-9.558-.897l-.298 2.985zm19.206 1.69c3.233.246 6.441.472 9.624.679l.194-2.994a845.76 845.76 0 01-9.59-.677l-.228 2.992zm19.249 1.248c3.238.173 6.446.327 9.622.462l.127-2.998a854.246 854.246 0 01-9.589-.46l-.16 2.996zm19.259.817c3.254.102 6.47.184 9.645.249l.061-2.999a881.94 881.94 0 01-9.612-.249l-.094 2.999zm19.276.392c3.265.031 6.482.042 9.646.037l-.005-3c-3.153.005-6.359-.006-9.613-.037l-.028 3zm19.289-.033a850.37 850.37 0 009.637-.178l-.073-2.999c-3.134.076-6.337.136-9.603.178l.039 2.999zm19.275-.467c3.303-.118 6.519-.254 9.642-.404l-.144-2.996a800.19 800.19 0 01-9.606.402l.108 2.998zm19.264-.927c3.335-.203 6.542-.422 9.615-.652l-.225-2.992c-3.058.229-6.252.447-9.573.649l.183 2.995zm19.237-1.449c3.433-.312 6.644-.636 9.619-.965l-.329-2.982c-2.955.327-6.147.649-9.562.959l.272 2.988zm19.209-2.145a227.65 227.65 0 004.761-.702l-.47-2.962c-1.43.226-2.999.458-4.701.692l.41 2.972zm5.999-1.898c.306-1.582.619-3.205.937-4.868l-2.946-.564c-.319 1.661-.631 3.282-.937 4.862l2.946.57zm2.814-14.765a3047.53 3047.53 0 001.828-9.819l-2.95-.545c-.623 3.374-1.232 6.647-1.826 9.81l2.948.554zm3.632-19.667c.584-3.217 1.177-6.507 1.778-9.863l-2.953-.528c-.6 3.353-1.193 6.641-1.777 9.854l2.952.537zm3.53-19.733c.571-3.242 1.147-6.536 1.726-9.875l-2.956-.513a3717.33 3717.33 0 01-1.725 9.867l2.955.521zm3.426-19.754c.557-3.261 1.116-6.557 1.675-9.884l-2.958-.497a3692.36 3692.36 0 01-1.674 9.876l2.957.505zm3.324-19.772c.541-3.275 1.082-6.575 1.621-9.893l-2.961-.481c-.539 3.315-1.079 6.612-1.62 9.885l2.96.489zm3.215-19.79c.525-3.289 1.047-6.591 1.566-9.903l-2.964-.464c-.518 3.309-1.04 6.608-1.564 9.894l2.962.473zm3.1-19.809c.506-3.3 1.007-6.605 1.503-9.91l-2.967-.445a3142.1 3142.1 0 01-1.501 9.9l2.965.455zm2.97-19.823c.485-3.313.962-6.621 1.432-9.92l-2.97-.423c-.469 3.295-.946 6.6-1.43 9.909l2.968.434zm2.825-19.849c.459-3.328.91-6.641 1.35-9.936l-2.974-.397c-.439 3.29-.889 6.599-1.348 9.922l2.972.411zm2.652-19.88c.43-3.344.847-6.662 1.251-9.951l-2.977-.366c-.404 3.283-.82 6.596-1.249 9.935l2.975.382zm2.444-19.91c.392-3.362.768-6.686 1.127-9.966l-2.982-.326c-.358 3.272-.734 6.589-1.125 9.945l2.98.347zm2.178-19.941c.342-3.385.664-6.715.963-9.981l-2.988-.273c-.298 3.256-.618 6.576-.96 9.952l2.985.302zm1.82-19.964c.274-3.427.519-6.769.732-10.017l-2.993-.197a714.678 714.678 0 01-.729 9.975l2.99.239zm1.304-20.078c.165-3.491.286-6.844.358-10.047l-2.999-.068a407.204 407.204 0 01-.355 9.973l2.996.142zm.418-20.105a193.604 193.604 0 00-.126-5.003l-2.998.116c.061 1.577.102 3.22.125 4.926l2.999-.039zm-.126-5.003a130.511 130.511 0 00-.286-4.94l-2.992.229c.126 1.64.219 3.249.28 4.827l2.998-.116zm-1.357-14.789a210.445 210.445 0 00-1.599-9.781l-2.949.551a206.598 206.598 0 011.576 9.641l2.972-.411zm-3.603-19.455a316.233 316.233 0 00-2.331-9.589l-2.904.752a313.927 313.927 0 012.309 9.499l2.926-.662zm-4.936-19.118a436.53 436.53 0 00-2.829-9.448l-2.865.892a437.406 437.406 0 012.811 9.383l2.883-.827zm-5.852-18.822a572.637 572.637 0 00-3.194-9.322l-2.83.997a573.18 573.18 0 013.178 9.272l2.846-.947zm-6.541-18.59a688.27 688.27 0 00-3.481-9.216l-2.799 1.079c1.18 3.06 2.337 6.121 3.466 9.177l2.814-1.04zm-7.082-18.38a844.373 844.373 0 00-3.713-9.12l-2.772 1.148c1.25 3.019 2.484 6.05 3.7 9.086l2.785-1.114zm-7.53-18.196a969.04 969.04 0 00-3.912-9.033l-2.746 1.206a990.309 990.309 0 013.899 9.005l2.759-1.178zm-7.911-18.021c-1.36-3.017-2.724-6.002-4.087-8.951l-2.723 1.258a1050.35 1050.35 0 014.075 8.926l2.735-1.233zm-8.262-17.876a1090.322 1090.322 0 00-4.251-8.878l-2.7 1.308c1.404 2.899 2.819 5.853 4.24 8.854l2.711-1.284zm-8.573-17.699a1045.542 1045.542 0 00-4.419-8.817l-2.676 1.356c1.447 2.853 2.918 5.787 4.407 8.793l2.688-1.332zm-8.909-17.568a930.766 930.766 0 00-4.587-8.724l-2.648 1.41a936.952 936.952 0 014.573 8.696l2.662-1.382zm-9.255-17.361a678.583 678.583 0 00-2.378-4.298l-2.62 1.462a672.08 672.08 0 012.368 4.279l2.63-1.443z" fill="#000"/></svg>