<svg width="330" height="707" fill="none" xmlns="http://www.w3.org/2000/svg"><path d="M61.742 8.534h-21.5v30H66" stroke="#000" stroke-width="3" stroke-dasharray="10 10"/><path d="M200.242 103.034c-.333-2.834 1.3-10.1 10.5-16.5 11.5-8 42.501-5.5 47.001-18.5s-33.501-54.5-57.501-62.5c-19.199-6.4-99.999-2.667-138 0A86.603 86.603 0 0061.979 9m66.264 94.034c-3.166-11.667-11.1-36.9-17.5-44.5-5.849-6.947-11.431-7.477-21.242-8.238M68.545 44c-1.489-1.943-2.676-4.336-3.612-7m52.809 123.862c-4.948 1.657-9.097 3.697-10.5 6.172-8.5 15 10.5 17.5 10.5 30.5s-10.5 5.5-10.5 16.5 16.5 20 10.5 28-10.5 13-10.5 24.5 16.5 12 16.5 31-80 51.5-89.5 61-28 108-31.5 157.5 5.5 138.5 24.5 167 223.5 27 265.5 10.5 33-81 35.5-151.5-35.5-176.5-35.5-183.5 9.5-9.5 12-15.5-12-34-32-76.5c-14.254-30.291-47.557-76.322-67.382-102.034v-8.466" stroke="#000" stroke-width="3" stroke-dasharray="10 10"/><path d="M121.242 158.534v-53c2.108-.511 4.565-1.12 7.258-1.771m76.242 54.771v-53c-.99-.511-2.482-1.12-4.346-1.771M67.242 43.534c-4.833 16-16.5 40-25 64.5-6.41 18.477-24 37.5-22 43.5s42.022-50.755 47-60c7-13 15.667-30.834 23.5-41" stroke="#000" stroke-width="3" stroke-dasharray="10 10"/></svg>