<svg width="231" height="732" fill="none" xmlns="http://www.w3.org/2000/svg"><path d="M114.071 117c-13.335 13.851-39.17 37.669-58.815 45.527-26.92 10.768-37.687 18.459-44.61 29.227-6.922 10.768-15.382 538.388 0 538.388H192.93c7.435-6.666 22.766-25.381 24.612-46.917 2.307-26.919 24.612-486.856 0-533.773-15.396-29.349-28.034-56.849-35.264-73.452M135.53 22c-7.952-9.147-19.952-16.918-25.676-20L86.011 15.075c3.61 7.01 9.79 20.988 10.405 29.425m15.754 71.111L83.713 56.388s5.272-5.505 12.389-11.888M183 76.5l3.006-3.96-32.841-52.07s-8.065 0-17.665 1.874" stroke="#000" stroke-width="3" stroke-dasharray="10 10"/></svg>