<svg width="409" height="448" fill="none" xmlns="http://www.w3.org/2000/svg"><path d="M2 66.335c64.087-3.999 201.797-12.279 239.946-13.408 11.827-.35 28.218-.266 46.054.198m115.171 13.21c1.932-2.128-3.142-4.066-12.671-5.77m-18.502-33.864l13.448 11.263c6.044 5.062 6.383 12.491 5.797 15.573m-23.066-30.035l-13.448-11.263c-5.3-.838-17.42-1.777-23.496 1.174-7.595 3.688-16.302 12.724-19.517 16.061-1.438 1.493-10.665 11.405-20.805 22.526" stroke="#000" stroke-width="3" stroke-dasharray="10 10"/><path d="M2 64.924c2.975 58.112 8.924 180.092 8.924 203.12v167.275c46.22 4.345 150.33 12.492 197.008 10.319 46.678-2.172 144.839-7.784 188.085-10.319-.687-4.706-1.648-21.615 0-51.594C398.076 346.251 407 291.397 407 255.01V64.924" stroke="#000" stroke-width="3" stroke-dasharray="10 10"/></svg>