<svg width="227" height="686" fill="none" xmlns="http://www.w3.org/2000/svg"><path d="M62.728 183.487C42.486 263.062 2 438.686 2 504.579c0 82.367 9.074 161.244 23.733 164.734 14.658 3.49 60.728 14.659 93.535 14.659 32.808 0 90.744-10.47 98.422-32.807 7.678-22.337 12.564-198.938 0-230.349s-41.882-46.07-47.466-73.293c-4.467-21.778-22.337-118.431-30.713-164.036" stroke="#000" stroke-width="3" stroke-dasharray="10 10"/><path d="M61.86 183.487V90.068h-45.9c1.53-28.35 20.065-85.471 81.965-87.144 61.9-1.673 86.555-.697 91.145 0m0 36.252c-2.216.45-4.787 1.033-7.57 1.738m-42.264 142.573c-1.223-24.702-2.788-68.111-2.183-95.987" stroke="#000" stroke-width="3" stroke-dasharray="10 10"/><path d="M188.373 3.875h29.317v34.203h-29.317m-5.584 2.314c-4.188 5.351-11.867 29.317-11.867 37.693 0 16.753 32.807 62.789 49.56 66.312-20.941 5.585-39.09-13.101-53.05-33.505-2.378-3.476-5.022-8.946-7.542-15.392m-23.17-7.644c2.56-.93 8.656-2.233 12.565 0 3.909 2.234 8.854 5.12 10.25 6.283" stroke="#000" stroke-width="3" stroke-dasharray="10 10"/></svg>