<svg width="297" height="687" fill="none" xmlns="http://www.w3.org/2000/svg"><path d="M132.805 150c-7.773 5.54-23.321 20.741-23.321 37.217 0 20.597 18.412 45.529 13.911 64.679C118.894 271.047 25.61 409.8 10.063 467.613-5.485 525.427 1.88 669.599 28.474 677.91c26.594 8.31 93.284 5.42 137.063 6.865 43.778 1.445 99.83-3.975 112.105-19.151 12.274-15.176 24.548-162.239 12.274-244.623-12.274-82.384-37.641-178.499-48.279-201.986-8.51-18.79-27.276-53.839-35.595-69.015m-75.091-.487V91.677m70.127 0v57.836M130.59 92.4c-3.616-4.314-10.059-11.28-17.29-17.712M65.886 58.06c4.52 0 8.68-.923 14.114-.51M65.886 9.984c25.785-6.025 86.103-14.46 121.094 0 43.739 18.073 70.127 33.256 60.367 50.968-9.76 17.712-24.581 9.76-34.34 13.736-7.808 3.18-11.447 13.133-12.291 17.712" stroke="#000" stroke-width="3" stroke-dasharray="10 10"/><path d="M66.247 9.622c-8.675 2.65-25.882 10.772-25.303 22.05.578 11.278 17.11 21.81 25.303 25.665m46.631 16.903c-3.373 3.98-12.41 13.215-21.57 18.31-11.452 6.37-19.707 11.412-29.56 20.17-9.854 8.758-20.772 25.212-29.028 22.823-8.255-2.388-5.326-4.246 0-13.535 5.326-9.288 41.011-48.565 42.343-53.077 1.065-3.609 3.462-8.934 4.527-11.146" stroke="#000" stroke-width="3" stroke-dasharray="10 10"/></svg>