<svg width="269" height="735" fill="none" xmlns="http://www.w3.org/2000/svg"><path d="M206.924 65c5.985 12.557 23.702 47.05 46.687 84.566 28.731 46.896 2.693 506.631 0 533.538-2.155 21.526-17.432 40.233-26.111 46.896-8.679 6.663-184.619 1.227-189 0-12.5-3.5-32.538-19.029-34.191-49.5-6.523-120.224.153-418.567 2.691-429 9-37 31.5-72 57.168-88.864C89.835 145.772 130.233 121.313 144 108.5m33.081-81.888C169.697 15.537 154.52 5.589 147.854 2l-23.843 13.075c4.358 8.46 12.46 27.073 9.999 33.842M213.5 62l-22.335-41.53L177.5 27m-33 78.5l-22.787-49.112L134 49" stroke="#000" stroke-width="3" stroke-dasharray="10 10"/></svg>