<svg width="134" height="188" fill="none" xmlns="http://www.w3.org/2000/svg"><path fill="#EBF1A9" d="M100.155 0l33.264 167.27-100.155 19.917L0 19.917z"/><ellipse cx="96.348" cy="139.073" rx="3.486" ry="2.105" transform="rotate(116.882 96.348 139.073)" fill="#A3AF1D"/><ellipse cx="111.76" cy="152.524" rx="4.544" ry="2.651" transform="rotate(66.594 111.76 152.524)" fill="#A3AF1D"/><ellipse cx="120.862" cy="155.842" rx="2.79" ry="2.179" transform="rotate(66.594 120.862 155.842)" fill="#A3AF1D"/><ellipse cx="69.174" cy="128.016" rx="2.79" ry="2.179" transform="rotate(66.594 69.174 128.016)" fill="#A3AF1D"/><ellipse cx="79.454" cy="166.223" rx="2.79" ry="2.179" transform="rotate(-36.312 79.454 166.223)" fill="#A3AF1D"/><ellipse cx="58.188" cy="71.135" rx="2.79" ry="2.179" transform="rotate(-36.312 58.188 71.135)" fill="#A3AF1D"/><ellipse cx="51.172" cy="68.237" rx="2.79" ry="2.179" transform="rotate(-1.603 51.172 68.237)" fill="#A3AF1D"/><ellipse cx="100.379" cy="95.223" rx="4.094" ry="3.198" transform="rotate(-47.785 100.379 95.223)" fill="#A3AF1D"/><ellipse cx="110.077" cy="100.808" rx="2.376" ry="1.856" transform="rotate(-47.785 110.077 100.808)" fill="#A3AF1D"/><ellipse cx="106.557" cy="82.728" rx="2.376" ry="1.856" transform="rotate(-47.785 106.557 82.728)" fill="#A3AF1D"/><ellipse cx="103.166" cy="68.376" rx="3.258" ry="2.545" transform="rotate(-47.785 103.166 68.376)" fill="#A3AF1D"/><ellipse cx="67.812" cy="58.259" rx="3.258" ry="2.545" transform="rotate(-47.785 67.812 58.259)" fill="#A3AF1D"/><ellipse cx="57.021" cy="14.787" rx="3.258" ry="2.545" transform="rotate(-72.213 57.021 14.787)" fill="#A3AF1D"/><ellipse cx="36.816" cy="16.759" rx="3.258" ry="2.545" transform="rotate(-72.213 36.816 16.76)" fill="#A3AF1D"/><ellipse cx="25.343" cy="29.238" rx="3.258" ry="2.545" transform="rotate(-72.213 25.343 29.238)" fill="#A3AF1D"/><ellipse cx="12.368" cy="24.703" rx="2.09" ry="2.2" transform="rotate(-72.213 12.368 24.703)" fill="#A3AF1D"/><ellipse cx="20.585" cy="26.258" rx="1.454" ry="2.2" transform="rotate(-47.959 20.585 26.258)" fill="#A3AF1D"/><ellipse cx="32.169" cy="97.243" rx="1.454" ry="2.2" transform="rotate(.087 32.169 97.243)" fill="#A3AF1D"/><ellipse cx="39.51" cy="139.06" rx="1.454" ry="2.2" transform="rotate(-32.242 39.51 139.06)" fill="#A3AF1D"/><ellipse cx="78.463" cy="81.42" rx="1.454" ry="2.2" transform="rotate(1.069 78.463 81.42)" fill="#A3AF1D"/><ellipse cx="89.723" cy="73.277" rx="1.454" ry="2.2" transform="rotate(47.815 89.723 73.277)" fill="#A3AF1D"/><ellipse cx="76.463" cy="94.078" rx="1.454" ry="2.2" transform="rotate(47.815 76.463 94.078)" fill="#A3AF1D"/><ellipse cx="74.157" cy="48.004" rx="2.248" ry="2.2" transform="rotate(47.815 74.157 48.004)" fill="#A3AF1D"/><ellipse cx="93.622" cy="47.664" rx="3.218" ry="2.2" transform="rotate(47.815 93.622 47.664)" fill="#A3AF1D"/><ellipse cx="58.904" cy="129.167" rx="3.217" ry="2.199" transform="rotate(95.648 58.904 129.167)" fill="#A3AF1D"/></svg>