<svg width="729" height="228" fill="none" xmlns="http://www.w3.org/2000/svg"><path d="M46.916 11.47C25.381 13.316 6.666 28.647 0 36.082v182.282c0 15.383 527.62 6.922 538.387 0 10.768-6.922 18.459-17.69 29.227-44.609 8.614-21.535 36.405-50.506 49.224-62.299l48.455-59.992c-12.562-5.127-47.07-20.305-84.604-39.994-46.916-24.612-506.853-2.308-533.772 0z" fill="#D9DBDA"/><path d="M728.142 119.157c-3.59-6.666-13.537-21.843-24.612-29.227l-22.305 43.071c6.768-2.461 25.381 5.64 33.841 9.999l13.076-23.843z" fill="#EC1D16"/><path d="M709.671 75.846l-52.069-32.842-43.071 73.836 59.222 28.458s20-19.154 27.959-33.726 7.959-35.726 7.959-35.726z" fill="#D41811"/></svg>