<svg width="405" height="446" fill="none" xmlns="http://www.w3.org/2000/svg"><path d="M239.946 52.927C201.797 54.057 64.086 62.337 0 66.335c12.11 13.409 228.592 14.82 262.654 16.231 34.061 1.412 130.191-7.057 138.517-16.23 8.327-9.175-113.539-14.82-161.225-13.409z" fill="#283857"/><path d="M346.502 27.875c6.076-2.95 18.196-2.012 23.496-1.174l13.448 11.263c6.044 5.062 6.383 12.491 5.797 15.573-1.63 10.545-14.678 25.169-30.763 42.723-14.735 16.082-36.565 40.65-46.543 42.234-7.16 2.709-24.008-9.747-25.706-10.87.357-.371-1.924-1.36-7.59-6.105-7.704-6.452-5.543-14.942-1.259-21.906 4.284-6.963 46.389-52.34 49.603-55.677 3.215-3.336 11.922-12.373 19.517-16.061z" fill="#E6E6E6"/><path d="M334.27 17.63c6.076-2.95 18.196-2.011 23.496-1.173l13.448 11.263c6.044 5.061 6.383 12.49 5.797 15.573-1.63 10.544-14.678 25.168-30.763 42.723-14.735 16.082-36.565 40.649-46.543 42.234-7.16 2.708-24.008-9.747-25.706-10.87.357-.371-1.924-1.36-7.59-6.106-7.704-6.452-5.543-14.942-1.259-21.905 4.284-6.963 46.389-52.34 49.603-55.677 3.215-3.337 11.922-12.374 19.517-16.061z" fill="#2D74A9"/><path d="M329.233 13.413c6.076-2.95 18.195-2.012 23.496-1.174l13.448 11.262c6.044 5.062 6.383 12.492 5.797 15.574-1.63 10.544-14.678 25.168-30.763 42.723-14.735 16.081-36.565 40.649-46.543 42.234-7.16 2.708-24.008-9.747-25.706-10.87.357-.371-1.924-1.36-7.59-6.106-7.704-6.452-5.543-14.942-1.259-21.905 4.284-6.963 46.388-52.34 49.603-55.677 3.215-3.337 11.922-12.374 19.517-16.061z" fill="#66A6D6"/><path d="M76.623 74.649C73.503 68.963 63.04 63.183 58.2 61.004l-17.96 1.918c-8.072.862-12.964 6.735-14.401 9.564-5.223 9.475-3.673 28.442-1.468 51.439 2.02 21.066 4.551 52.882 11.7 59.562 4.154 6.074 25.626 5.02 27.708 5.021-.06-.495 2.413-.069 9.98-.877 10.289-1.099 13.802-9.187 14.636-17.176.834-7.99-5.294-67.718-5.842-72.174-.547-4.456-2.03-16.525-5.93-23.632z" fill="#E6E6E6"/><path d="M92.959 72.904c-3.12-5.686-13.582-11.466-18.423-13.645l-17.96 1.918c-8.072.862-12.964 6.735-14.401 9.564-5.223 9.475-3.673 28.442-1.468 51.439 2.02 21.066 4.551 52.882 11.7 59.562 4.154 6.074 25.626 5.02 27.708 5.022-.06-.496 2.413-.07 9.98-.878 10.289-1.099 13.802-9.187 14.636-17.176.834-7.99-5.294-67.718-5.842-72.174-.548-4.456-2.03-16.524-5.93-23.632z" fill="#2D74A9"/><path d="M99.685 72.186c-3.12-5.687-13.582-11.466-18.423-13.646l-17.96 1.919c-8.072.862-12.964 6.735-14.401 9.563-5.223 9.476-3.673 28.443-1.468 51.439 2.02 21.067 4.551 52.883 11.7 59.563 4.154 6.074 25.626 5.02 27.708 5.021-.06-.495 2.413-.069 9.98-.877 10.289-1.099 13.802-9.187 14.636-17.177.834-7.989-5.294-67.717-5.842-72.173-.547-4.456-2.03-16.525-5.93-23.632z" fill="#66A6D6"/><path d="M162.471 94.367c-6.414 2.242-13.764 11.275-16.637 15.511v16.853c0 7.575 5.701 12.775 8.552 14.428 9.503 5.917 29.891 6.639 54.648 7.214 22.679.527 56.871 1.804 64.803-4.058 6.946-3.156 8.266-23.164 8.505-25.093-.535 0 .2-2.242.2-9.344 0-9.655-8.219-13.83-16.637-15.511-8.419-1.683-72.764-2.804-77.575-2.804-4.811 0-17.84 0-25.859 2.803z" fill="#E6E6E6"/><path d="M162.471 79.037c-6.414 2.242-13.764 11.275-16.637 15.511v16.854c0 7.575 5.701 12.775 8.552 14.428 9.503 5.916 29.891 6.639 54.648 7.214 22.679.526 56.871 1.803 64.803-4.058 6.946-3.156 8.266-23.165 8.505-25.093-.535 0 .2-2.243.2-9.345 0-9.655-8.219-13.83-16.637-15.511-8.419-1.682-72.764-2.803-77.575-2.803-4.811 0-17.84 0-25.859 2.803z" fill="#2D74A9"/><path d="M162.471 72.724c-6.414 2.243-13.764 11.276-16.637 15.512v16.853c0 7.575 5.701 12.775 8.552 14.428 9.503 5.916 29.891 6.639 54.648 7.214 22.679.527 56.871 1.804 64.803-4.058 6.946-3.156 8.266-23.165 8.505-25.093-.535 0 .2-2.243.2-9.344 0-9.655-8.219-13.83-16.637-15.512-8.419-1.681-72.764-2.803-77.575-2.803-4.811 0-17.84 0-25.859 2.803z" fill="#66A6D6"/><path d="M405 255.01V64.924S374.12 77.5 229.349 77.5C124.136 77.5 0 64.924 0 64.924c2.975 58.112 8.924 180.092 8.924 203.12v167.275c46.22 4.345 150.33 12.492 197.008 10.319 46.678-2.172 144.839-7.784 188.085-10.319-.686-4.706-1.648-21.615 0-51.594C396.076 346.251 405 291.397 405 255.01z" fill="#49669F"/></svg>