<svg width="119" height="108" fill="none" xmlns="http://www.w3.org/2000/svg"><path d="M85.406 23.558c4.929-1.023 13.298 2.11 16.866 3.806l7.095 11.23c3.189 5.047 1.836 10.75.761 12.97-3.412 7.673-15.774 16.157-30.912 26.257-13.867 9.253-34.571 23.524-41.966 22.732-5.644.623-14.888-12.191-15.848-13.383.332-.21-1.069-1.416-4.059-6.148-4.064-6.433-.716-12.44 3.806-16.866C25.67 59.731 65.173 33.728 68.16 31.84c2.99-1.889 11.084-7.003 17.245-8.282z" fill="#E6E6E6"/><path d="M78.952 13.343c4.929-1.023 13.298 2.111 16.866 3.806l7.095 11.23c3.189 5.047 1.836 10.75.761 12.97-3.412 7.673-15.774 16.157-30.912 26.257C58.895 76.86 38.191 91.13 30.795 90.338c-5.643.623-14.887-12.191-15.847-13.383.332-.21-1.069-1.415-4.059-6.147-4.065-6.434-.716-12.441 3.806-16.867 4.522-4.425 44.024-30.428 47.012-32.316 2.989-1.888 11.083-7.002 17.245-8.282z" fill="#2D74A9"/><path d="M76.294 9.137c4.93-1.023 13.298 2.111 16.867 3.806l7.095 11.23c3.189 5.048 1.836 10.75.761 12.97C97.604 44.817 85.243 53.3 70.105 63.4c-13.868 9.253-34.571 23.524-41.967 22.732-5.644.623-14.888-12.191-15.848-13.383.333-.21-1.068-1.415-4.058-6.147-4.065-6.434-.717-12.441 3.806-16.867C16.56 45.31 56.06 19.307 59.05 17.42c2.989-1.888 11.083-7.002 17.245-8.282z" fill="#66A6D6"/></svg>