<svg width="101" height="63" fill="none" xmlns="http://www.w3.org/2000/svg"><path d="M88.234 19.268c4.713 1.767 10.114 8.887 12.226 12.226v13.284c0 5.97-4.19 10.069-6.285 11.372-6.983 4.663-21.965 5.232-40.158 5.686-16.665.415-41.791 1.421-47.62-3.199C1.293 56.15.323 40.38.147 38.86.54 38.859 0 37.09 0 31.494c0-7.61 6.04-10.9 12.226-12.226 6.187-1.326 53.47-2.21 57.006-2.21 3.535 0 13.11 0 19.002 2.21z" fill="#E6E6E6"/><path d="M88.234 7.185c4.713 1.767 10.114 8.887 12.226 12.226v13.283c0 5.97-4.19 10.07-6.285 11.372-6.983 4.664-21.965 5.233-40.158 5.687-16.665.415-41.791 1.421-47.62-3.199C1.293 44.066.323 28.296.147 26.776.54 26.776 0 25.008 0 19.41 0 11.8 6.04 8.51 12.226 7.185c6.187-1.326 53.47-2.21 57.006-2.21 3.535 0 13.11 0 19.002 2.21z" fill="#2D74A9"/><path d="M88.234 2.21c4.713 1.767 10.114 8.887 12.226 12.226v13.283c0 5.97-4.19 10.07-6.285 11.372-6.983 4.663-21.965 5.233-40.158 5.687-16.665.415-41.791 1.421-47.62-3.199C1.293 39.091.323 23.321.147 21.801.54 21.8 0 20.033 0 14.436c0-7.61 6.04-10.9 12.226-12.226C18.413.884 65.696 0 69.232 0c3.535 0 13.11 0 19.002 2.21z" fill="#66A6D6"/></svg>