<svg width="63" height="101" fill="none" xmlns="http://www.w3.org/2000/svg"><path d="M19.268 12.449C21.035 7.735 28.155 2.334 31.494.223h13.284c5.97 0 10.069 4.19 11.372 6.285 4.663 6.983 5.232 21.965 5.686 40.157.415 16.666 1.421 41.792-3.199 47.62-2.487 5.105-18.258 6.075-19.778 6.25 0-.392-1.768.148-7.365.148-7.61 0-10.9-6.04-12.226-12.226-1.326-6.187-2.21-53.47-2.21-57.006 0-3.535 0-13.11 2.21-19.002z" fill="#E6E6E6"/><path d="M7.185 12.449C8.952 7.735 16.072 2.334 19.41.223h13.283c5.97 0 10.07 4.19 11.372 6.285 4.664 6.983 5.233 21.965 5.687 40.157.415 16.666 1.421 41.792-3.199 47.62-2.488 5.105-18.258 6.075-19.778 6.25 0-.392-1.768.148-7.365.148-7.61 0-10.9-6.04-12.226-12.226-1.326-6.187-2.21-53.47-2.21-57.006 0-3.535 0-13.11 2.21-19.002z" fill="#2D74A9"/><path d="M2.21 12.449C3.977 7.735 11.097 2.334 14.436.223h13.283c5.97 0 10.07 4.19 11.372 6.285 4.663 6.983 5.233 21.965 5.687 40.157.415 16.666 1.421 41.792-3.199 47.62-2.488 5.105-18.258 6.075-19.778 6.25 0-.392-1.768.148-7.365.148-7.61 0-10.9-6.04-12.226-12.226C.884 82.27 0 34.987 0 31.45c0-3.535 0-13.11 2.21-19.002z" fill="#66A6D6"/></svg>