<svg width="224" height="682" fill="none" xmlns="http://www.w3.org/2000/svg"><path d="M0 502.579c0-65.893 40.486-241.517 60.728-321.092h76.783c8.376 45.605 26.246 142.258 30.713 164.036 5.584 27.223 34.902 41.882 47.466 73.293 12.564 31.411 7.678 208.012 0 230.349-7.678 22.336-65.614 32.807-98.422 32.807-32.807 0-78.877-11.169-93.535-14.659C9.074 663.823 0 584.946 0 502.579z" fill="#EFD6AC"/><path d="M59.86 88.068v93.419h77.376c-1.749-35.323-4.197-108.896 0-120.608 4.196-11.712 34.971-20.682 49.834-23.703V.924c-4.59-.697-29.245-1.673-91.145 0-61.9 1.673-80.435 58.793-81.965 87.144h45.9z" fill="#BE1B1E"/><path d="M215.69 1.875h-29.317v34.203h29.317V1.875zm-46.768 74.21c0-8.376 7.678-32.342 11.866-37.693l-17.45 4.188-16.055 7.678c1.164 18.847 10.889 48.024 18.149 58.634 13.96 20.404 32.109 39.09 53.05 33.505-16.753-3.523-49.56-49.56-49.56-66.312z" fill="#9C1619"/><path d="M147.285 85.857c-3.909-2.234-10.005-.931-12.565 0 0-6.98.559-22.058 2.792-26.525 2.234-4.468 7.446-7.911 9.773-9.075l10.25 41.882c-1.396-1.163-6.341-4.049-10.25-6.282z" fill="#861315"/></svg>