<svg width="257" height="652" viewBox="0 0 257 652" fill="none" xmlns="http://www.w3.org/2000/svg">
<path d="M101.162 0V39H135.162H171.162V0H142.662H101.162Z" fill="#494F69"/>
<path fill-rule="evenodd" clip-rule="evenodd" d="M16.1623 640.5C6.66233 570 -8.63767 402.3 6.16233 295.5C20.9623 188.7 68.6622 100.667 90.6621 70L98.1621 38.5H172.662L182.662 70C204.329 106.833 249.062 207.8 254.662 317C260.262 426.2 250.329 578.167 244.662 640.5C212.496 648.667 121.763 660.1 16.1623 640.5ZM182.662 277C177.829 253 171.062 205.6 182.662 208C197.162 211 210.162 258.5 211.662 277C213.162 295.5 213.162 338.5 201.662 338.5C192.462 338.5 185.162 297.5 182.662 277Z" fill="#DADEE9"/>
<path d="M145.662 177.5C165.662 181.89 166.829 202.834 167.662 219.5C167.662 253 178.262 327.2 196.662 356C215.062 384.8 243.662 380.333 255.162 374.5C255.162 374.5 257.096 417.925 256.412 445.75C255.729 473.575 251.662 517 251.662 517C246.495 544.167 222.062 600 165.662 606C95.1621 613.5 57.6617 548.5 52.162 525.5C44.2601 492.454 44.662 288.5 57.662 248C70.662 207.5 102.162 167.951 145.662 177.5Z" fill="#F1F1F4"/>
<path d="M84.5754 435V434.126C85.2594 434.101 85.7914 434.025 86.1714 433.898C86.5514 433.771 86.8174 433.505 86.9694 433.1C87.1467 432.695 87.2354 432.061 87.2354 431.2V413.53C87.2354 412.643 87.134 412.01 86.9314 411.63C86.754 411.225 86.412 410.959 85.9054 410.832C85.3987 410.705 84.6387 410.629 83.6254 410.604V409.73H93.1254V410.604C92.4414 410.629 91.9094 410.705 91.5294 410.832C91.1494 410.959 90.8707 411.225 90.6934 411.63C90.5414 412.01 90.4654 412.643 90.4654 413.53V431.2C90.4654 432.289 90.6554 432.973 91.0354 433.252C91.4407 433.505 92.2134 433.632 93.3534 433.632H96.8114C98.0781 433.632 99.0534 433.429 99.7374 433.024C100.447 432.593 100.953 432.036 101.257 431.352C101.587 430.643 101.789 429.883 101.865 429.072H102.739L102.435 435H84.5754ZM112.941 435.57C111.649 435.57 110.408 435.266 109.217 434.658C108.052 434.05 107.089 433.138 106.329 431.922C105.595 430.681 105.227 429.11 105.227 427.21C105.227 425.285 105.607 423.613 106.367 422.194C107.127 420.775 108.141 419.673 109.407 418.888C110.674 418.103 112.055 417.71 113.549 417.71C114.639 417.71 115.639 417.925 116.551 418.356C117.489 418.787 118.236 419.445 118.793 420.332C119.376 421.219 119.667 422.346 119.667 423.714L108.267 425.196C108.267 425.323 108.267 425.462 108.267 425.614C108.267 427.945 108.799 429.769 109.863 431.086C110.927 432.403 112.346 433.062 114.119 433.062C115.133 433.062 116.07 432.859 116.931 432.454C117.793 432.023 118.565 431.491 119.249 430.858L119.857 431.466C119.148 432.682 118.198 433.67 117.007 434.43C115.842 435.19 114.487 435.57 112.941 435.57ZM112.751 419.116C111.434 419.116 110.421 419.585 109.711 420.522C109.002 421.459 108.559 422.612 108.381 423.98L116.247 422.954C116.095 421.865 115.766 420.953 115.259 420.218C114.753 419.483 113.917 419.116 112.751 419.116ZM128.29 435.57C126.492 435.57 125.111 435.228 124.148 434.544C123.186 433.86 122.704 432.986 122.704 431.922C122.704 431.542 122.78 431.124 122.932 430.668C123.084 430.187 123.35 429.718 123.73 429.262H124.604C124.63 430.883 124.972 432.125 125.63 432.986C126.289 433.847 127.328 434.278 128.746 434.278C130.013 434.278 130.95 433.974 131.558 433.366C132.166 432.758 132.47 432.061 132.47 431.276C132.47 430.567 132.242 429.984 131.786 429.528C131.356 429.072 130.786 428.679 130.076 428.35C129.392 427.995 128.658 427.666 127.872 427.362C127.087 427.033 126.34 426.678 125.63 426.298C124.946 425.893 124.376 425.399 123.92 424.816C123.49 424.233 123.274 423.499 123.274 422.612C123.274 421.219 123.832 420.053 124.946 419.116C126.061 418.179 127.619 417.71 129.62 417.71C130.406 417.71 131.204 417.786 132.014 417.938C132.825 418.065 133.585 418.331 134.294 418.736V423.106H133.42C133.243 421.611 132.762 420.56 131.976 419.952C131.191 419.319 130.266 419.002 129.202 419.002C128.164 419.002 127.378 419.23 126.846 419.686C126.314 420.142 126.048 420.737 126.048 421.472C126.048 422.156 126.264 422.726 126.694 423.182C127.15 423.613 127.72 423.993 128.404 424.322C129.114 424.651 129.848 424.981 130.608 425.31C131.394 425.614 132.128 425.981 132.812 426.412C133.522 426.817 134.092 427.337 134.522 427.97C134.978 428.578 135.206 429.351 135.206 430.288C135.206 431.985 134.548 433.29 133.23 434.202C131.913 435.114 130.266 435.57 128.29 435.57ZM143.913 435.57C142.115 435.57 140.734 435.228 139.771 434.544C138.809 433.86 138.327 432.986 138.327 431.922C138.327 431.542 138.403 431.124 138.555 430.668C138.707 430.187 138.973 429.718 139.353 429.262H140.227C140.253 430.883 140.595 432.125 141.253 432.986C141.912 433.847 142.951 434.278 144.369 434.278C145.636 434.278 146.573 433.974 147.181 433.366C147.789 432.758 148.093 432.061 148.093 431.276C148.093 430.567 147.865 429.984 147.409 429.528C146.979 429.072 146.409 428.679 145.699 428.35C145.015 427.995 144.281 427.666 143.495 427.362C142.71 427.033 141.963 426.678 141.253 426.298C140.569 425.893 139.999 425.399 139.543 424.816C139.113 424.233 138.897 423.499 138.897 422.612C138.897 421.219 139.455 420.053 140.569 419.116C141.684 418.179 143.242 417.71 145.243 417.71C146.029 417.71 146.827 417.786 147.637 417.938C148.448 418.065 149.208 418.331 149.917 418.736V423.106H149.043C148.866 421.611 148.385 420.56 147.599 419.952C146.814 419.319 145.889 419.002 144.825 419.002C143.787 419.002 143.001 419.23 142.469 419.686C141.937 420.142 141.671 420.737 141.671 421.472C141.671 422.156 141.887 422.726 142.317 423.182C142.773 423.613 143.343 423.993 144.027 424.322C144.737 424.651 145.471 424.981 146.231 425.31C147.017 425.614 147.751 425.981 148.435 426.412C149.145 426.817 149.715 427.337 150.145 427.97C150.601 428.578 150.829 429.351 150.829 430.288C150.829 431.985 150.171 433.29 148.853 434.202C147.536 435.114 145.889 435.57 143.913 435.57ZM159.498 431.162C159.498 432.049 159.587 432.695 159.764 433.1C159.942 433.505 160.258 433.771 160.714 433.898C161.196 434.025 161.867 434.101 162.728 434.126V435H154.178V434.126C154.736 434.101 155.179 434.025 155.508 433.898C155.838 433.771 156.078 433.505 156.23 433.1C156.382 432.695 156.458 432.049 156.458 431.162V422.574C156.458 421.865 156.344 421.409 156.116 421.206C155.914 420.978 155.635 420.864 155.28 420.864C154.951 420.864 154.596 420.927 154.216 421.054C153.862 421.155 153.532 421.269 153.228 421.396L152.848 420.522L159.422 417.52L159.65 417.748C159.625 417.951 159.587 418.495 159.536 419.382C159.511 420.269 159.498 421.32 159.498 422.536V431.162ZM157.978 413.948C157.421 413.948 156.952 413.758 156.572 413.378C156.192 412.998 156.002 412.529 156.002 411.972C156.002 411.44 156.192 410.984 156.572 410.604C156.952 410.224 157.421 410.034 157.978 410.034C158.536 410.034 159.004 410.224 159.384 410.604C159.764 410.984 159.954 411.44 159.954 411.972C159.954 412.529 159.764 412.998 159.384 413.378C159.004 413.758 158.536 413.948 157.978 413.948ZM171.171 435.38C170.994 434.721 170.816 434.151 170.639 433.67C170.487 433.189 170.272 432.631 169.993 431.998L165.737 422.004C165.382 421.143 165.053 420.522 164.749 420.142C164.47 419.762 164.166 419.509 163.837 419.382C163.533 419.255 163.153 419.179 162.697 419.154V418.28H170.715V419.154C169.854 419.179 169.246 419.268 168.891 419.42C168.536 419.547 168.384 419.813 168.435 420.218C168.486 420.598 168.676 421.193 169.005 422.004L172.691 430.744H172.767L176.377 422.004C176.884 420.813 176.972 420.053 176.643 419.724C176.339 419.395 175.516 419.205 174.173 419.154V418.28H180.899V419.154C180.519 419.179 180.177 419.268 179.873 419.42C179.569 419.547 179.278 419.813 178.999 420.218C178.746 420.598 178.442 421.193 178.087 422.004L173.869 431.998C173.59 432.682 173.388 433.252 173.261 433.708C173.134 434.164 172.995 434.721 172.843 435.38H171.171ZM190.166 435.57C188.874 435.57 187.633 435.266 186.442 434.658C185.277 434.05 184.314 433.138 183.554 431.922C182.819 430.681 182.452 429.11 182.452 427.21C182.452 425.285 182.832 423.613 183.592 422.194C184.352 420.775 185.365 419.673 186.632 418.888C187.899 418.103 189.279 417.71 190.774 417.71C191.863 417.71 192.864 417.925 193.776 418.356C194.713 418.787 195.461 419.445 196.018 420.332C196.601 421.219 196.892 422.346 196.892 423.714L185.492 425.196C185.492 425.323 185.492 425.462 185.492 425.614C185.492 427.945 186.024 429.769 187.088 431.086C188.152 432.403 189.571 433.062 191.344 433.062C192.357 433.062 193.295 432.859 194.156 432.454C195.017 432.023 195.79 431.491 196.474 430.858L197.082 431.466C196.373 432.682 195.423 433.67 194.232 434.43C193.067 435.19 191.711 435.57 190.166 435.57ZM189.976 419.116C188.659 419.116 187.645 419.585 186.936 420.522C186.227 421.459 185.783 422.612 185.606 423.98L193.472 422.954C193.32 421.865 192.991 420.953 192.484 420.218C191.977 419.483 191.141 419.116 189.976 419.116Z" fill="black"/>
</svg>
