<svg width="294" height="674" viewBox="0 0 294 674" fill="none" xmlns="http://www.w3.org/2000/svg">
<path d="M1.84181 157.087C9.82703 124.726 81.1687 77.7605 115.841 58.3228H186.237C216.532 79.5116 279.748 128.929 290.255 157.087C303.389 192.285 278.698 209.096 266.615 259.529C254.532 309.962 287.103 525.878 290.255 559.5C293.407 593.122 273.444 643.555 266.615 656.689C259.785 669.823 161.021 673.5 147.887 673.5C134.754 673.5 30.2104 665.094 18.6528 656.689C7.09519 648.284 11.8236 635.15 1.84181 559.5C-8.13994 483.851 25.4823 355.142 30.2104 289.474C34.9384 223.806 -8.13972 197.539 1.84181 157.087Z" fill="#6AAE75"/>
<path d="M59.1043 388.764C75.495 364.808 168.551 353.916 213.03 351.464C223.712 373.354 245.391 425.538 246.652 459.16C247.913 492.782 224.763 560.376 213.03 589.97C188.514 592.072 127.714 589.97 80.6434 564.754C21.8049 533.233 38.6159 418.708 59.1043 388.764Z" fill="#8DBF92"/>
<path d="M114.791 29.429V58.3229H184.136V29.429L168.376 22.5996V0.535156H131.602V22.5996L114.791 29.429Z" fill="#C9383F"/>
<path d="M83.1377 454.252V453.378C83.8217 453.353 84.3537 453.277 84.7337 453.15C85.1137 453.024 85.3797 452.758 85.5317 452.352C85.709 451.947 85.7977 451.314 85.7977 450.452V432.782C85.7977 431.896 85.6963 431.262 85.4937 430.882C85.3163 430.477 84.9743 430.211 84.4677 430.084C83.961 429.958 83.201 429.882 82.1877 429.856V428.982H91.6877V429.856C91.0037 429.882 90.4717 429.958 90.0917 430.084C89.7117 430.211 89.433 430.477 89.2557 430.882C89.1037 431.262 89.0277 431.896 89.0277 432.782V450.452C89.0277 451.542 89.2177 452.226 89.5977 452.504C90.003 452.758 90.7757 452.884 91.9157 452.884H95.3737C96.6403 452.884 97.6157 452.682 98.2997 452.276C99.009 451.846 99.5157 451.288 99.8197 450.604C100.149 449.895 100.352 449.135 100.428 448.324H101.302L100.998 454.252H83.1377ZM109.262 450.414C109.262 451.301 109.35 451.947 109.528 452.352C109.705 452.758 110.022 453.024 110.478 453.15C110.959 453.277 111.63 453.353 112.492 453.378V454.252H103.942V453.378C104.499 453.353 104.942 453.277 105.272 453.15C105.601 453.024 105.842 452.758 105.994 452.352C106.146 451.947 106.222 451.301 106.222 450.414V441.826C106.222 441.117 106.108 440.661 105.88 440.458C105.677 440.23 105.398 440.116 105.044 440.116C104.714 440.116 104.36 440.18 103.98 440.306C103.625 440.408 103.296 440.522 102.992 440.648L102.612 439.774L109.186 436.772L109.414 437C109.388 437.203 109.35 437.748 109.3 438.634C109.274 439.521 109.262 440.572 109.262 441.788V450.414ZM107.742 433.2C107.184 433.2 106.716 433.01 106.336 432.63C105.956 432.25 105.766 431.782 105.766 431.224C105.766 430.692 105.956 430.236 106.336 429.856C106.716 429.476 107.184 429.286 107.742 429.286C108.299 429.286 108.768 429.476 109.148 429.856C109.528 430.236 109.718 430.692 109.718 431.224C109.718 431.782 109.528 432.25 109.148 432.63C108.768 433.01 108.299 433.2 107.742 433.2ZM133.581 459.648L133.961 460.522L127.767 463.41L127.539 463.182C127.589 462.98 127.627 462.435 127.653 461.548C127.678 460.662 127.691 459.61 127.691 458.394V451.364C127.032 452.302 126.196 453.112 125.183 453.796C124.195 454.48 123.017 454.822 121.649 454.822C120.458 454.822 119.343 454.518 118.305 453.91C117.291 453.277 116.468 452.365 115.835 451.174C115.227 449.984 114.923 448.54 114.923 446.842C114.923 445.221 115.201 443.802 115.759 442.586C116.341 441.345 117.101 440.306 118.039 439.47C119.001 438.634 120.053 438.014 121.193 437.608C122.358 437.178 123.523 436.962 124.689 436.962C125.525 436.962 126.272 437.026 126.931 437.152C127.589 437.279 128.172 437.444 128.679 437.646L130.731 437.152V458.318C130.731 459.028 130.832 459.484 131.035 459.686C131.237 459.914 131.529 460.028 131.909 460.028C132.187 460.028 132.466 459.99 132.745 459.914C133.023 459.838 133.302 459.75 133.581 459.648ZM122.827 452.542C123.713 452.542 124.562 452.314 125.373 451.858C126.209 451.402 126.981 450.845 127.691 450.186V440.23C127.083 439.572 126.399 439.154 125.639 438.976C124.904 438.774 124.258 438.672 123.701 438.672C122.079 438.672 120.724 439.23 119.635 440.344C118.571 441.434 118.039 443.169 118.039 445.55C118.039 447.729 118.482 449.439 119.369 450.68C120.255 451.922 121.408 452.542 122.827 452.542ZM154.589 451.326L154.969 452.2L148.813 455.05L148.585 454.822C148.636 454.594 148.686 454.151 148.737 453.492C148.813 452.808 148.851 452.086 148.851 451.326H148.775C147.787 452.34 146.761 453.176 145.697 453.834C144.658 454.493 143.48 454.822 142.163 454.822C140.567 454.822 139.452 454.417 138.819 453.606C138.211 452.796 137.907 451.744 137.907 450.452V441.712C137.907 441.054 137.793 440.623 137.565 440.42C137.362 440.218 137.084 440.116 136.729 440.116C136.222 440.116 135.678 440.243 135.095 440.496L134.715 439.622L140.871 436.772L141.099 437C141.074 437.203 141.036 437.748 140.985 438.634C140.96 439.496 140.947 440.509 140.947 441.674V449.502C140.947 450.389 141.124 451.086 141.479 451.592C141.859 452.099 142.53 452.352 143.493 452.352C144.304 452.352 145.14 452.188 146.001 451.858C146.888 451.504 147.8 450.946 148.737 450.186V441.712C148.737 441.054 148.636 440.623 148.433 440.42C148.23 440.218 147.939 440.116 147.559 440.116C147.23 440.116 146.888 440.18 146.533 440.306C146.178 440.408 145.862 440.522 145.583 440.648L145.203 439.774L151.701 436.772L151.929 437C151.904 437.203 151.866 437.748 151.815 438.634C151.79 439.496 151.777 440.509 151.777 441.674V449.996C151.777 450.706 151.878 451.162 152.081 451.364C152.309 451.567 152.6 451.668 152.955 451.668C153.512 451.668 154.057 451.554 154.589 451.326ZM162.773 450.414C162.773 451.301 162.862 451.947 163.039 452.352C163.217 452.758 163.533 453.024 163.989 453.15C164.471 453.277 165.142 453.353 166.003 453.378V454.252H157.453V453.378C158.011 453.353 158.454 453.277 158.783 453.15C159.113 453.024 159.353 452.758 159.505 452.352C159.657 451.947 159.733 451.301 159.733 450.414V441.826C159.733 441.117 159.619 440.661 159.391 440.458C159.189 440.23 158.91 440.116 158.555 440.116C158.226 440.116 157.871 440.18 157.491 440.306C157.137 440.408 156.807 440.522 156.503 440.648L156.123 439.774L162.697 436.772L162.925 437C162.9 437.203 162.862 437.748 162.811 438.634C162.786 439.521 162.773 440.572 162.773 441.788V450.414ZM161.253 433.2C160.696 433.2 160.227 433.01 159.847 432.63C159.467 432.25 159.277 431.782 159.277 431.224C159.277 430.692 159.467 430.236 159.847 429.856C160.227 429.476 160.696 429.286 161.253 429.286C161.811 429.286 162.279 429.476 162.659 429.856C163.039 430.236 163.229 430.692 163.229 431.224C163.229 431.782 163.039 432.25 162.659 432.63C162.279 433.01 161.811 433.2 161.253 433.2ZM187.054 451.326L187.434 452.2L181.24 455.05L181.012 454.822C181.063 454.594 181.114 454.151 181.164 453.492C181.24 452.808 181.278 452.086 181.278 451.326H181.24C180.582 452.264 179.746 453.087 178.732 453.796C177.744 454.48 176.554 454.822 175.16 454.822C173.97 454.822 172.855 454.518 171.816 453.91C170.803 453.277 169.98 452.365 169.346 451.174C168.738 449.984 168.434 448.54 168.434 446.842C168.434 445.221 168.713 443.802 169.27 442.586C169.853 441.345 170.613 440.306 171.55 439.47C172.513 438.634 173.564 438.014 174.704 437.608C175.87 437.178 177.035 436.962 178.2 436.962C179.366 436.962 180.366 437.076 181.202 437.304V429.286C181.202 428.577 181.088 428.121 180.86 427.918C180.658 427.716 180.379 427.614 180.024 427.614C179.695 427.614 179.34 427.665 178.96 427.766C178.606 427.868 178.276 427.994 177.972 428.146L177.592 427.272L184.166 424.232L184.394 424.46C184.369 424.663 184.331 425.208 184.28 426.094C184.255 426.981 184.242 428.032 184.242 429.248V449.996C184.242 450.706 184.344 451.162 184.546 451.364C184.774 451.567 185.066 451.668 185.42 451.668C185.952 451.668 186.497 451.554 187.054 451.326ZM176.338 452.542C177.225 452.542 178.074 452.314 178.884 451.858C179.72 451.402 180.493 450.845 181.202 450.186V440.23C180.594 439.572 179.91 439.154 179.15 438.976C178.416 438.774 177.77 438.672 177.212 438.672C175.591 438.672 174.236 439.23 173.146 440.344C172.082 441.434 171.55 443.169 171.55 445.55C171.55 447.729 171.994 449.439 172.88 450.68C173.767 451.922 174.92 452.542 176.338 452.542ZM197.598 454.822C196.306 454.822 195.064 454.518 193.874 453.91C192.708 453.302 191.746 452.39 190.986 451.174C190.251 449.933 189.884 448.362 189.884 446.462C189.884 444.537 190.264 442.865 191.024 441.446C191.784 440.028 192.797 438.926 194.064 438.14C195.33 437.355 196.711 436.962 198.206 436.962C199.295 436.962 200.296 437.178 201.208 437.608C202.145 438.039 202.892 438.698 203.45 439.584C204.032 440.471 204.324 441.598 204.324 442.966L192.924 444.448C192.924 444.575 192.924 444.714 192.924 444.866C192.924 447.197 193.456 449.021 194.52 450.338C195.584 451.656 197.002 452.314 198.776 452.314C199.789 452.314 200.726 452.112 201.588 451.706C202.449 451.276 203.222 450.744 203.906 450.11L204.514 450.718C203.804 451.934 202.854 452.922 201.664 453.682C200.498 454.442 199.143 454.822 197.598 454.822ZM197.408 438.368C196.09 438.368 195.077 438.837 194.368 439.774C193.658 440.712 193.215 441.864 193.038 443.232L200.904 442.206C200.752 441.117 200.422 440.205 199.916 439.47C199.409 438.736 198.573 438.368 197.408 438.368ZM83.6953 500.632C83.518 499.974 83.3407 499.404 83.1633 498.922C83.0113 498.441 82.796 497.884 82.5173 497.25L78.2613 487.256C77.9067 486.395 77.5773 485.774 77.2733 485.394C76.9947 485.014 76.6907 484.761 76.3613 484.634C76.0573 484.508 75.6773 484.432 75.2213 484.406V483.532H83.2393V484.406C82.378 484.432 81.77 484.52 81.4153 484.672C81.0607 484.799 80.9087 485.065 80.9593 485.47C81.01 485.85 81.2 486.446 81.5293 487.256L85.2153 495.996H85.2913L88.9013 487.256C89.408 486.066 89.4967 485.306 89.1673 484.976C88.8633 484.647 88.04 484.457 86.6973 484.406V483.532H93.4233V484.406C93.0433 484.432 92.7013 484.52 92.3974 484.672C92.0933 484.799 91.802 485.065 91.5234 485.47C91.27 485.85 90.966 486.446 90.6113 487.256L86.3933 497.25C86.1147 497.934 85.912 498.504 85.7853 498.96C85.6587 499.416 85.5193 499.974 85.3673 500.632H83.6953ZM99.2323 500.822C98.0416 500.822 97.0663 500.518 96.3063 499.91C95.5716 499.277 95.2043 498.378 95.2043 497.212C95.2043 496.275 95.4956 495.414 96.0783 494.628C96.661 493.843 97.6236 493.121 98.9663 492.462C100.309 491.804 102.133 491.196 104.438 490.638V488.168C104.438 487.13 104.21 486.268 103.754 485.584C103.324 484.9 102.488 484.558 101.246 484.558C100.056 484.558 99.1056 484.938 98.3963 485.698C97.7123 486.433 97.231 487.586 96.9523 489.156H96.0783V484.406C96.965 483.976 97.9023 483.634 98.8903 483.38C99.9036 483.102 101.018 482.962 102.234 482.962C103.628 482.962 104.692 483.152 105.426 483.532C106.186 483.887 106.718 484.394 107.022 485.052C107.326 485.711 107.478 486.484 107.478 487.37V496.566C107.478 497.909 107.896 498.58 108.732 498.58C109.036 498.58 109.378 498.479 109.758 498.276C110.164 498.074 110.632 497.656 111.164 497.022L111.772 497.63C110.607 499.632 109.214 500.632 107.592 500.632C105.92 500.632 104.894 499.784 104.514 498.086H104.438C103.045 499.91 101.31 500.822 99.2323 500.822ZM100.638 498.58C101.854 498.58 103.121 498.023 104.438 496.908V491.816C102.614 492.272 101.272 492.779 100.41 493.336C99.549 493.868 98.979 494.413 98.7003 494.97C98.447 495.502 98.3203 495.996 98.3203 496.452C98.3203 497.187 98.5483 497.732 99.0043 498.086C99.4603 498.416 100.005 498.58 100.638 498.58ZM118.706 496.414C118.706 497.301 118.795 497.947 118.972 498.352C119.149 498.758 119.466 499.024 119.922 499.15C120.403 499.277 121.075 499.353 121.936 499.378V500.252H113.386V499.378C113.943 499.353 114.387 499.277 114.716 499.15C115.045 499.024 115.286 498.758 115.438 498.352C115.59 497.947 115.666 497.301 115.666 496.414V487.826C115.666 487.117 115.552 486.661 115.324 486.458C115.121 486.23 114.843 486.116 114.488 486.116C114.159 486.116 113.804 486.18 113.424 486.306C113.069 486.408 112.74 486.522 112.436 486.648L112.056 485.774L118.63 482.772L118.858 483C118.833 483.203 118.795 483.748 118.744 484.634C118.719 485.521 118.706 486.572 118.706 487.788V496.414ZM117.186 479.2C116.629 479.2 116.16 479.01 115.78 478.63C115.4 478.25 115.21 477.782 115.21 477.224C115.21 476.692 115.4 476.236 115.78 475.856C116.16 475.476 116.629 475.286 117.186 475.286C117.743 475.286 118.212 475.476 118.592 475.856C118.972 476.236 119.162 476.692 119.162 477.224C119.162 477.782 118.972 478.25 118.592 478.63C118.212 479.01 117.743 479.2 117.186 479.2ZM129.877 500.822C128.078 500.822 126.698 500.48 125.735 499.796C124.772 499.112 124.291 498.238 124.291 497.174C124.291 496.794 124.367 496.376 124.519 495.92C124.671 495.439 124.937 494.97 125.317 494.514H126.191C126.216 496.136 126.558 497.377 127.217 498.238C127.876 499.1 128.914 499.53 130.333 499.53C131.6 499.53 132.537 499.226 133.145 498.618C133.753 498.01 134.057 497.314 134.057 496.528C134.057 495.819 133.829 495.236 133.373 494.78C132.942 494.324 132.372 493.932 131.663 493.602C130.979 493.248 130.244 492.918 129.459 492.614C128.674 492.285 127.926 491.93 127.217 491.55C126.533 491.145 125.963 490.651 125.507 490.068C125.076 489.486 124.861 488.751 124.861 487.864C124.861 486.471 125.418 485.306 126.533 484.368C127.648 483.431 129.206 482.962 131.207 482.962C131.992 482.962 132.79 483.038 133.601 483.19C134.412 483.317 135.172 483.583 135.881 483.988V488.358H135.007C134.83 486.864 134.348 485.812 133.563 485.204C132.778 484.571 131.853 484.254 130.789 484.254C129.75 484.254 128.965 484.482 128.433 484.938C127.901 485.394 127.635 485.99 127.635 486.724C127.635 487.408 127.85 487.978 128.281 488.434C128.737 488.865 129.307 489.245 129.991 489.574C130.7 489.904 131.435 490.233 132.195 490.562C132.98 490.866 133.715 491.234 134.399 491.664C135.108 492.07 135.678 492.589 136.109 493.222C136.565 493.83 136.793 494.603 136.793 495.54C136.793 497.238 136.134 498.542 134.817 499.454C133.5 500.366 131.853 500.822 129.877 500.822ZM145.5 500.822C143.701 500.822 142.321 500.48 141.358 499.796C140.395 499.112 139.914 498.238 139.914 497.174C139.914 496.794 139.99 496.376 140.142 495.92C140.294 495.439 140.56 494.97 140.94 494.514H141.814C141.839 496.136 142.181 497.377 142.84 498.238C143.499 499.1 144.537 499.53 145.956 499.53C147.223 499.53 148.16 499.226 148.768 498.618C149.376 498.01 149.68 497.314 149.68 496.528C149.68 495.819 149.452 495.236 148.996 494.78C148.565 494.324 147.995 493.932 147.286 493.602C146.602 493.248 145.867 492.918 145.082 492.614C144.297 492.285 143.549 491.93 142.84 491.55C142.156 491.145 141.586 490.651 141.13 490.068C140.699 489.486 140.484 488.751 140.484 487.864C140.484 486.471 141.041 485.306 142.156 484.368C143.271 483.431 144.829 482.962 146.83 482.962C147.615 482.962 148.413 483.038 149.224 483.19C150.035 483.317 150.795 483.583 151.504 483.988V488.358H150.63C150.453 486.864 149.971 485.812 149.186 485.204C148.401 484.571 147.476 484.254 146.412 484.254C145.373 484.254 144.588 484.482 144.056 484.938C143.524 485.394 143.258 485.99 143.258 486.724C143.258 487.408 143.473 487.978 143.904 488.434C144.36 488.865 144.93 489.245 145.614 489.574C146.323 489.904 147.058 490.233 147.818 490.562C148.603 490.866 149.338 491.234 150.022 491.664C150.731 492.07 151.301 492.589 151.732 493.222C152.188 493.83 152.416 494.603 152.416 495.54C152.416 497.238 151.757 498.542 150.44 499.454C149.123 500.366 147.476 500.822 145.5 500.822ZM163.327 500.822C162.035 500.822 160.794 500.518 159.603 499.91C158.438 499.302 157.475 498.39 156.715 497.174C155.98 495.933 155.613 494.362 155.613 492.462C155.613 490.537 155.993 488.865 156.753 487.446C157.513 486.028 158.526 484.926 159.793 484.14C161.06 483.355 162.44 482.962 163.935 482.962C165.024 482.962 166.025 483.178 166.937 483.608C167.874 484.039 168.622 484.698 169.179 485.584C169.762 486.471 170.053 487.598 170.053 488.966L158.653 490.448C158.653 490.575 158.653 490.714 158.653 490.866C158.653 493.197 159.185 495.021 160.249 496.338C161.313 497.656 162.732 498.314 164.505 498.314C165.518 498.314 166.456 498.112 167.317 497.706C168.178 497.276 168.951 496.744 169.635 496.11L170.243 496.718C169.534 497.934 168.584 498.922 167.393 499.682C166.228 500.442 164.872 500.822 163.327 500.822ZM163.137 484.368C161.82 484.368 160.806 484.837 160.097 485.774C159.388 486.712 158.944 487.864 158.767 489.232L166.633 488.206C166.481 487.117 166.152 486.205 165.645 485.47C165.138 484.736 164.302 484.368 163.137 484.368ZM178.372 496.414C178.372 497.301 178.46 497.947 178.638 498.352C178.815 498.758 179.132 499.024 179.588 499.15C180.069 499.277 180.74 499.353 181.602 499.378V500.252H173.052V499.378C173.609 499.353 174.052 499.277 174.382 499.15C174.711 499.024 174.952 498.758 175.104 498.352C175.256 497.947 175.332 497.301 175.332 496.414V475.286C175.332 474.577 175.218 474.121 174.99 473.918C174.787 473.716 174.508 473.614 174.154 473.614C173.824 473.614 173.47 473.665 173.09 473.766C172.735 473.868 172.406 473.994 172.102 474.146L171.722 473.272L178.296 470.232L178.524 470.46C178.498 470.663 178.46 471.208 178.41 472.094C178.384 472.981 178.372 474.032 178.372 475.248V496.414ZM189.245 496.414C189.245 497.301 189.333 497.947 189.511 498.352C189.688 498.758 190.005 499.024 190.461 499.15C190.942 499.277 191.613 499.353 192.475 499.378V500.252H183.925V499.378C184.482 499.353 184.925 499.277 185.255 499.15C185.584 499.024 185.825 498.758 185.977 498.352C186.129 497.947 186.205 497.301 186.205 496.414V475.286C186.205 474.577 186.091 474.121 185.863 473.918C185.66 473.716 185.381 473.614 185.027 473.614C184.697 473.614 184.343 473.665 183.963 473.766C183.608 473.868 183.279 473.994 182.975 474.146L182.595 473.272L189.169 470.232L189.397 470.46C189.371 470.663 189.333 471.208 189.283 472.094C189.257 472.981 189.245 474.032 189.245 475.248V496.414ZM202.626 500.822C201.334 500.822 200.093 500.518 198.902 499.91C197.737 499.302 196.774 498.39 196.014 497.174C195.279 495.933 194.912 494.362 194.912 492.462C194.912 490.537 195.292 488.865 196.052 487.446C196.812 486.028 197.825 484.926 199.092 484.14C200.359 483.355 201.739 482.962 203.234 482.962C204.323 482.962 205.324 483.178 206.236 483.608C207.173 484.039 207.921 484.698 208.478 485.584C209.061 486.471 209.352 487.598 209.352 488.966L197.952 490.448C197.952 490.575 197.952 490.714 197.952 490.866C197.952 493.197 198.484 495.021 199.548 496.338C200.612 497.656 202.031 498.314 203.804 498.314C204.817 498.314 205.755 498.112 206.616 497.706C207.477 497.276 208.25 496.744 208.934 496.11L209.542 496.718C208.833 497.934 207.883 498.922 206.692 499.682C205.527 500.442 204.171 500.822 202.626 500.822ZM202.436 484.368C201.119 484.368 200.105 484.837 199.396 485.774C198.687 486.712 198.243 487.864 198.066 489.232L205.932 488.206C205.78 487.117 205.451 486.205 204.944 485.47C204.437 484.736 203.601 484.368 202.436 484.368Z" fill="black"/>
</svg>
