<svg width="334" height="645" viewBox="0 0 334 645" fill="none" xmlns="http://www.w3.org/2000/svg">
<path d="M138 45.5C135.6 55.9 129 103.5 126 126H179H229C224.5 105 215.5 59.5 215.5 45.5V7.5C209.167 5 193 0 179 0C165 0 145.833 5 138 7.5C139 15.8333 140.4 35.1 138 45.5Z" fill="#195FE0"/>
<path fill-rule="evenodd" clip-rule="evenodd" d="M79.4999 639C62.8332 580.5 32.6999 436.5 45.4999 328.5C58.2999 220.5 103.5 145.833 124.5 122H229C255.333 169.167 308.6 279.1 311 341.5C313.4 403.9 285.667 565.833 271.5 639C244.167 643.333 167.5 649.4 79.4999 639ZM240.5 346C236.5 325 233.2 282.7 252 281.5C270.8 280.3 277.5 324 278.5 346C281.667 363.667 284.4 399 270 399C255.6 399 244.334 363.667 240.5 346Z" fill="#D9D9E5"/>
<path d="M289.5 504.5C293.736 475.305 289.5 443 264 421C253.605 412.031 244.5 406.5 230 350.5C219.5 309.948 248.223 245.672 219.5 239C170 227.5 120.5 283 88.0001 340C62.0001 385.6 57.8335 449 59.0001 475C59.0001 563 136.401 601 182 601C208.5 601 275.5 601 289.5 504.5Z" fill="#FCF9F4"/>
<path d="M87.0676 445.2C87.3716 446.087 87.6629 446.733 87.9416 447.138C88.2203 447.518 88.5496 447.771 88.9296 447.898C89.3349 447.999 89.8669 448.075 90.5256 448.126V449H81.4436V448.126C82.3049 448.075 82.9383 447.987 83.3436 447.86C83.7743 447.733 84.0149 447.467 84.0656 447.062C84.1163 446.657 83.9896 446.036 83.6856 445.2L81.5196 438.664C81.3929 438.791 81.2029 438.879 80.9496 438.93C80.6963 438.955 80.4303 438.968 80.1516 438.968H75.1736C74.6163 438.968 74.1983 439.031 73.9196 439.158C73.6409 439.285 73.4003 439.627 73.1976 440.184L71.4116 445.2C71.0823 446.163 71.0823 446.885 71.4116 447.366C71.7663 447.822 72.7543 448.075 74.3756 448.126V449H66.5096V448.126C67.3203 448.075 67.9536 447.822 68.4096 447.366C68.8909 446.885 69.3089 446.163 69.6636 445.2L76.3896 426.732C76.6429 426.073 76.8836 425.427 77.1116 424.794C77.3396 424.161 77.5423 423.515 77.7196 422.856H79.5816C79.7589 423.515 79.9489 424.161 80.1516 424.794C80.3796 425.427 80.6203 426.073 80.8736 426.732L87.0676 445.2ZM80.2276 437.6C80.5569 437.6 80.7849 437.562 80.9116 437.486C81.0383 437.385 81.0383 437.182 80.9116 436.878L77.7956 427.644H77.7196L74.0716 437.714C74.1983 437.663 74.3503 437.638 74.5276 437.638C74.7049 437.613 74.9076 437.6 75.1356 437.6H80.2276ZM110.181 446.074L110.561 446.948L104.367 449.798L104.139 449.57C104.189 449.342 104.24 448.899 104.291 448.24C104.367 447.556 104.405 446.834 104.405 446.074H104.367C103.708 447.011 102.872 447.835 101.859 448.544C100.871 449.228 99.6798 449.57 98.2865 449.57C97.0958 449.57 95.9812 449.266 94.9425 448.658C93.9292 448.025 93.1058 447.113 92.4725 445.922C91.8645 444.731 91.5605 443.287 91.5605 441.59C91.5605 439.969 91.8392 438.55 92.3965 437.334C92.9792 436.093 93.7392 435.054 94.6765 434.218C95.6392 433.382 96.6905 432.761 97.8305 432.356C98.9958 431.925 100.161 431.71 101.327 431.71C102.492 431.71 103.493 431.824 104.329 432.052V424.034C104.329 423.325 104.215 422.869 103.987 422.666C103.784 422.463 103.505 422.362 103.151 422.362C102.821 422.362 102.467 422.413 102.087 422.514C101.732 422.615 101.403 422.742 101.099 422.894L100.719 422.02L107.293 418.98L107.521 419.208C107.495 419.411 107.457 419.955 107.407 420.842C107.381 421.729 107.369 422.78 107.369 423.996V444.744C107.369 445.453 107.47 445.909 107.673 446.112C107.901 446.315 108.192 446.416 108.547 446.416C109.079 446.416 109.623 446.302 110.181 446.074ZM99.4645 447.29C100.351 447.29 101.2 447.062 102.011 446.606C102.847 446.15 103.619 445.593 104.329 444.934V434.978C103.721 434.319 103.037 433.901 102.277 433.724C101.542 433.521 100.896 433.42 100.339 433.42C98.7172 433.42 97.3618 433.977 96.2725 435.092C95.2085 436.181 94.6765 437.917 94.6765 440.298C94.6765 442.477 95.1198 444.187 96.0065 445.428C96.8932 446.669 98.0458 447.29 99.4645 447.29ZM121.674 431.71C123.143 431.71 124.486 432.077 125.702 432.812C126.943 433.521 127.944 434.522 128.704 435.814C129.464 437.106 129.844 438.613 129.844 440.336C129.844 441.856 129.578 443.199 129.046 444.364C128.539 445.504 127.855 446.467 126.994 447.252C126.132 448.012 125.182 448.595 124.144 449C123.13 449.38 122.13 449.57 121.142 449.57C119.698 449.57 118.355 449.215 117.114 448.506C115.872 447.771 114.872 446.758 114.112 445.466C113.377 444.174 113.01 442.667 113.01 440.944C113.01 439.424 113.263 438.094 113.77 436.954C114.302 435.789 114.998 434.826 115.86 434.066C116.721 433.281 117.658 432.698 118.672 432.318C119.685 431.913 120.686 431.71 121.674 431.71ZM121.788 448.05C123.282 448.05 124.46 447.518 125.322 446.454C126.183 445.365 126.614 443.693 126.614 441.438C126.614 439.893 126.373 438.499 125.892 437.258C125.436 436.017 124.79 435.041 123.954 434.332C123.118 433.597 122.142 433.23 121.028 433.23C119.558 433.23 118.393 433.775 117.532 434.864C116.67 435.928 116.24 437.587 116.24 439.842C116.24 441.362 116.468 442.743 116.924 443.984C117.405 445.225 118.064 446.213 118.9 446.948C119.736 447.683 120.698 448.05 121.788 448.05ZM152.194 446.074L152.574 446.948L146.418 449.798L146.19 449.57C146.24 449.342 146.291 448.899 146.342 448.24C146.418 447.556 146.456 446.834 146.456 446.074H146.38C145.392 447.087 144.366 447.923 143.302 448.582C142.263 449.241 141.085 449.57 139.768 449.57C138.172 449.57 137.057 449.165 136.424 448.354C135.816 447.543 135.512 446.492 135.512 445.2V436.46C135.512 435.801 135.398 435.371 135.17 435.168C134.967 434.965 134.688 434.864 134.334 434.864C133.827 434.864 133.282 434.991 132.7 435.244L132.32 434.37L138.476 431.52L138.704 431.748C138.678 431.951 138.64 432.495 138.59 433.382C138.564 434.243 138.552 435.257 138.552 436.422V444.25C138.552 445.137 138.729 445.833 139.084 446.34C139.464 446.847 140.135 447.1 141.098 447.1C141.908 447.1 142.744 446.935 143.606 446.606C144.492 446.251 145.404 445.694 146.342 444.934V436.46C146.342 435.801 146.24 435.371 146.038 435.168C145.835 434.965 145.544 434.864 145.164 434.864C144.834 434.864 144.492 434.927 144.138 435.054C143.783 435.155 143.466 435.269 143.188 435.396L142.808 434.522L149.306 431.52L149.534 431.748C149.508 431.951 149.47 432.495 149.42 433.382C149.394 434.243 149.382 435.257 149.382 436.422V444.744C149.382 445.453 149.483 445.909 149.686 446.112C149.914 446.315 150.205 446.416 150.56 446.416C151.117 446.416 151.662 446.302 152.194 446.074ZM162.62 449.57C161.303 449.57 160.049 449.266 158.858 448.658C157.693 448.025 156.743 447.087 156.008 445.846C155.274 444.579 154.906 443.009 154.906 441.134C154.906 439.133 155.324 437.435 156.16 436.042C157.022 434.623 158.149 433.547 159.542 432.812C160.936 432.077 162.418 431.71 163.988 431.71C164.774 431.71 165.622 431.811 166.534 432.014C167.472 432.217 168.308 432.571 169.042 433.078V438.056H168.168C168.042 436.739 167.712 435.725 167.18 435.016C166.648 434.307 166.028 433.813 165.318 433.534C164.634 433.255 163.95 433.116 163.266 433.116C161.594 433.116 160.302 433.749 159.39 435.016C158.478 436.257 158.022 437.815 158.022 439.69C158.022 441.185 158.276 442.489 158.782 443.604C159.314 444.693 160.036 445.542 160.948 446.15C161.86 446.758 162.886 447.062 164.026 447.062C164.913 447.062 165.787 446.872 166.648 446.492C167.535 446.087 168.333 445.542 169.042 444.858L169.65 445.466C168.941 446.657 167.978 447.645 166.762 448.43C165.546 449.19 164.166 449.57 162.62 449.57ZM178.265 445.162C178.265 446.049 178.354 446.695 178.531 447.1C178.708 447.505 179.025 447.771 179.481 447.898C179.962 448.025 180.634 448.101 181.495 448.126V449H172.945V448.126C173.502 448.101 173.946 448.025 174.275 447.898C174.604 447.771 174.845 447.505 174.997 447.1C175.149 446.695 175.225 446.049 175.225 445.162V436.574C175.225 435.865 175.111 435.409 174.883 435.206C174.68 434.978 174.402 434.864 174.047 434.864C173.718 434.864 173.363 434.927 172.983 435.054C172.628 435.155 172.299 435.269 171.995 435.396L171.615 434.522L178.189 431.52L178.417 431.748C178.392 431.951 178.354 432.495 178.303 433.382C178.278 434.269 178.265 435.32 178.265 436.536V445.162ZM176.745 427.948C176.188 427.948 175.719 427.758 175.339 427.378C174.959 426.998 174.769 426.529 174.769 425.972C174.769 425.44 174.959 424.984 175.339 424.604C175.719 424.224 176.188 424.034 176.745 424.034C177.302 424.034 177.771 424.224 178.151 424.604C178.531 424.984 178.721 425.44 178.721 425.972C178.721 426.529 178.531 426.998 178.151 427.378C177.771 427.758 177.302 427.948 176.745 427.948ZM189.436 449.57C187.637 449.57 186.256 449.228 185.294 448.544C184.331 447.86 183.85 446.986 183.85 445.922C183.85 445.542 183.926 445.124 184.078 444.668C184.23 444.187 184.496 443.718 184.876 443.262H185.75C185.775 444.883 186.117 446.125 186.776 446.986C187.434 447.847 188.473 448.278 189.892 448.278C191.158 448.278 192.096 447.974 192.704 447.366C193.312 446.758 193.616 446.061 193.616 445.276C193.616 444.567 193.388 443.984 192.932 443.528C192.501 443.072 191.931 442.679 191.222 442.35C190.538 441.995 189.803 441.666 189.018 441.362C188.232 441.033 187.485 440.678 186.776 440.298C186.092 439.893 185.522 439.399 185.066 438.816C184.635 438.233 184.42 437.499 184.42 436.612C184.42 435.219 184.977 434.053 186.092 433.116C187.206 432.179 188.764 431.71 190.766 431.71C191.551 431.71 192.349 431.786 193.16 431.938C193.97 432.065 194.73 432.331 195.44 432.736V437.106H194.566C194.388 435.611 193.907 434.56 193.122 433.952C192.336 433.319 191.412 433.002 190.348 433.002C189.309 433.002 188.524 433.23 187.992 433.686C187.46 434.142 187.194 434.737 187.194 435.472C187.194 436.156 187.409 436.726 187.84 437.182C188.296 437.613 188.866 437.993 189.55 438.322C190.259 438.651 190.994 438.981 191.754 439.31C192.539 439.614 193.274 439.981 193.958 440.412C194.667 440.817 195.237 441.337 195.668 441.97C196.124 442.578 196.352 443.351 196.352 444.288C196.352 445.985 195.693 447.29 194.376 448.202C193.058 449.114 191.412 449.57 189.436 449.57ZM205.059 449.57C203.26 449.57 201.879 449.228 200.917 448.544C199.954 447.86 199.473 446.986 199.473 445.922C199.473 445.542 199.549 445.124 199.701 444.668C199.853 444.187 200.119 443.718 200.499 443.262H201.373C201.398 444.883 201.74 446.125 202.399 446.986C203.057 447.847 204.096 448.278 205.515 448.278C206.781 448.278 207.719 447.974 208.327 447.366C208.935 446.758 209.239 446.061 209.239 445.276C209.239 444.567 209.011 443.984 208.555 443.528C208.124 443.072 207.554 442.679 206.845 442.35C206.161 441.995 205.426 441.666 204.641 441.362C203.855 441.033 203.108 440.678 202.399 440.298C201.715 439.893 201.145 439.399 200.689 438.816C200.258 438.233 200.043 437.499 200.043 436.612C200.043 435.219 200.6 434.053 201.715 433.116C202.829 432.179 204.387 431.71 206.389 431.71C207.174 431.71 207.972 431.786 208.783 431.938C209.593 432.065 210.353 432.331 211.063 432.736V437.106H210.189C210.011 435.611 209.53 434.56 208.745 433.952C207.959 433.319 207.035 433.002 205.971 433.002C204.932 433.002 204.147 433.23 203.615 433.686C203.083 434.142 202.817 434.737 202.817 435.472C202.817 436.156 203.032 436.726 203.463 437.182C203.919 437.613 204.489 437.993 205.173 438.322C205.882 438.651 206.617 438.981 207.377 439.31C208.162 439.614 208.897 439.981 209.581 440.412C210.29 440.817 210.86 441.337 211.291 441.97C211.747 442.578 211.975 443.351 211.975 444.288C211.975 445.985 211.316 447.29 209.999 448.202C208.681 449.114 207.035 449.57 205.059 449.57ZM219.428 449.57C218.237 449.57 217.262 449.266 216.502 448.658C215.767 448.025 215.4 447.125 215.4 445.96C215.4 445.023 215.691 444.161 216.274 443.376C216.856 442.591 217.819 441.869 219.162 441.21C220.504 440.551 222.328 439.943 224.634 439.386V436.916C224.634 435.877 224.406 435.016 223.95 434.332C223.519 433.648 222.683 433.306 221.442 433.306C220.251 433.306 219.301 433.686 218.592 434.446C217.908 435.181 217.426 436.333 217.148 437.904H216.274V433.154C217.16 432.723 218.098 432.381 219.086 432.128C220.099 431.849 221.214 431.71 222.43 431.71C223.823 431.71 224.887 431.9 225.622 432.28C226.382 432.635 226.914 433.141 227.218 433.8C227.522 434.459 227.674 435.231 227.674 436.118V445.314C227.674 446.657 228.092 447.328 228.928 447.328C229.232 447.328 229.574 447.227 229.954 447.024C230.359 446.821 230.828 446.403 231.36 445.77L231.968 446.378C230.802 448.379 229.409 449.38 227.788 449.38C226.116 449.38 225.09 448.531 224.71 446.834H224.634C223.24 448.658 221.505 449.57 219.428 449.57ZM220.834 447.328C222.05 447.328 223.316 446.771 224.634 445.656V440.564C222.81 441.02 221.467 441.527 220.606 442.084C219.744 442.616 219.174 443.161 218.896 443.718C218.642 444.25 218.516 444.744 218.516 445.2C218.516 445.935 218.744 446.479 219.2 446.834C219.656 447.163 220.2 447.328 220.834 447.328ZM249.96 445.162C249.96 446.049 250.036 446.695 250.188 447.1C250.365 447.505 250.682 447.771 251.138 447.898C251.619 448.025 252.303 448.101 253.19 448.126V449H244.64V448.126C245.197 448.101 245.64 448.025 245.97 447.898C246.299 447.771 246.54 447.505 246.692 447.1C246.844 446.695 246.92 446.049 246.92 445.162V436.992C246.92 436.105 246.717 435.409 246.312 434.902C245.932 434.395 245.26 434.142 244.298 434.142C243.462 434.142 242.588 434.319 241.676 434.674C240.764 435.029 239.826 435.586 238.864 436.346V445.162C238.864 446.049 238.94 446.695 239.092 447.1C239.269 447.505 239.586 447.771 240.042 447.898C240.523 448.025 241.207 448.101 242.094 448.126V449H233.544V448.126C234.126 448.101 234.582 448.025 234.912 447.898C235.241 447.771 235.469 447.505 235.596 447.1C235.748 446.695 235.824 446.049 235.824 445.162V436.536C235.824 435.852 235.722 435.409 235.52 435.206C235.317 434.978 235.038 434.864 234.684 434.864C234.405 434.864 234.126 434.902 233.848 434.978C233.594 435.029 233.328 435.117 233.05 435.244L232.67 434.37L238.788 431.52L239.016 431.748C238.965 431.976 238.902 432.419 238.826 433.078C238.775 433.737 238.75 434.433 238.75 435.168H238.826C239.788 434.155 240.827 433.331 241.942 432.698C243.082 432.039 244.31 431.71 245.628 431.71C247.249 431.71 248.376 432.115 249.01 432.926C249.643 433.711 249.96 434.763 249.96 436.08V445.162ZM265.998 445.694L266.606 446.302C265.998 447.214 265.301 447.987 264.516 448.62C263.73 449.253 262.704 449.57 261.438 449.57C260.424 449.57 259.614 449.367 259.006 448.962C258.423 448.557 258.005 448.025 257.752 447.366C257.498 446.682 257.372 445.947 257.372 445.162V433.838H254.75V432.28H257.372V427.074L260.602 426.504C260.526 427.467 260.475 428.429 260.45 429.392C260.424 430.355 260.412 431.317 260.412 432.28H266.036V433.838H261.59C261.159 433.838 260.855 433.927 260.678 434.104C260.5 434.281 260.412 434.585 260.412 435.016V444.364C260.412 445.175 260.551 445.871 260.83 446.454C261.134 447.037 261.742 447.328 262.654 447.328C263.186 447.328 263.73 447.201 264.288 446.948C264.845 446.669 265.415 446.251 265.998 445.694Z" fill="black"/>
</svg>
