<svg width="327" height="704" viewBox="0 0 327 704" fill="none" xmlns="http://www.w3.org/2000/svg">
<path d="M38.2422 6.53369H77.2422V36.5337H38.2422V6.53369Z" fill="#9F0108"/>
<path d="M34.2422 11.5337H43.2422V31.5337H34.2422V11.5337Z" fill="#9F0108"/>
<path d="M208.742 84.5338C199.542 90.9338 197.909 98.2004 198.242 101.034H126.242C123.076 89.3671 115.142 64.1338 108.742 56.5337C100.742 47.0336 93.2425 49.5337 74.7425 47.0337C59.9425 45.0337 58.9091 17.2004 60.2425 3.53377C98.2425 0.867104 179.042 -2.86623 198.242 3.53377C222.242 11.5338 260.242 53.0338 255.742 66.0338C251.242 79.0338 220.242 76.5338 208.742 84.5338Z" fill="#C7C9C8"/>
<path d="M270.742 264.534C254.742 230.534 214.742 176.7 196.742 154.034H135.742C127.576 155.7 108.589 159.128 105.242 165.034C96.7422 180.034 115.742 182.534 115.742 195.534C115.742 208.534 105.242 201.034 105.242 212.034C105.242 223.034 121.742 232.034 115.742 240.034C109.742 248.034 105.242 253.034 105.242 264.534C105.242 276.034 121.742 276.534 121.742 295.534C121.742 314.534 41.7422 347.034 32.2422 356.534C22.7422 366.034 4.24201 464.534 0.742008 514.034C-2.75799 563.534 6.24201 652.534 25.242 681.034C44.242 709.534 248.742 708.034 290.742 691.534C332.742 675.034 323.742 610.534 326.242 540.034C328.742 469.534 290.742 363.534 290.742 356.534C290.742 349.534 300.242 347.034 302.742 341.034C305.242 335.034 290.742 307.034 270.742 264.534Z" fill="#0CABE9"/>
<path d="M227.242 303.534C216.042 297.934 111.242 353.867 60.2421 382.534C45.742 413.534 33.2421 494.034 31.2421 529.034C29.2421 564.034 32.2421 645.534 46.2421 663.034C60.2421 680.534 254.242 676.034 272.242 663.034C290.242 650.034 292.242 556.034 287.242 494.034C282.242 432.034 241.242 310.534 227.242 303.534Z" fill="#0597D6"/>
<path d="M119.242 103.534V156.534H202.742V103.534C197.576 100.867 178.742 95.5337 164.742 95.5337C150.742 95.5337 130.242 100.867 119.242 103.534Z" fill="#9F0108"/>
<path d="M40.242 106.034C48.7422 81.5337 60.4086 57.5337 65.242 41.5337L88.7419 48.5337C80.9086 58.7004 72.2419 76.5337 65.242 89.5337C60.264 98.7787 20.242 155.534 18.242 149.534C16.242 143.534 33.8314 124.511 40.242 106.034Z" fill="#9F0108"/>
<path d="M103.74 475.534V474.66C104.424 474.634 104.956 474.558 105.336 474.432C105.742 474.305 106.02 474.039 106.172 473.634C106.324 473.228 106.4 472.595 106.4 471.734V454.064C106.4 453.177 106.299 452.544 106.096 452.164C105.919 451.758 105.577 451.492 105.07 451.366C104.564 451.239 103.804 451.163 102.79 451.138V450.264H106.4C108.123 450.264 109.516 450.238 110.58 450.188C111.67 450.112 112.544 450.074 113.202 450.074C115.837 450.074 117.952 450.593 119.548 451.632C121.144 452.645 121.942 454.102 121.942 456.002C121.942 456.914 121.727 457.813 121.296 458.7C120.891 459.586 120.232 460.384 119.32 461.094C118.408 461.778 117.218 462.297 115.748 462.652C114.279 462.981 112.493 463.044 110.39 462.842V461.702C112.417 461.879 114 461.727 115.14 461.246C116.306 460.739 117.129 460.042 117.61 459.156C118.092 458.244 118.332 457.268 118.332 456.23C118.332 454.938 118.041 453.95 117.458 453.266C116.901 452.556 116.154 452.075 115.216 451.822C114.304 451.568 113.316 451.442 112.252 451.442C111.391 451.442 110.732 451.594 110.276 451.898C109.846 452.202 109.63 452.924 109.63 454.064V471.734C109.63 472.595 109.719 473.228 109.896 473.634C110.099 474.039 110.479 474.305 111.036 474.432C111.619 474.558 112.468 474.634 113.582 474.66V475.534H103.74ZM123.987 475.534V474.66C124.57 474.634 125.026 474.558 125.355 474.432C125.684 474.305 125.912 474.039 126.039 473.634C126.191 473.228 126.267 472.582 126.267 471.696V462.994C126.267 462.335 126.166 461.904 125.963 461.702C125.76 461.499 125.482 461.398 125.127 461.398C124.848 461.398 124.57 461.436 124.291 461.512C124.038 461.562 123.772 461.651 123.493 461.778L123.113 460.904L129.231 458.054L129.459 458.282C129.408 458.51 129.345 459.004 129.269 459.764C129.218 460.498 129.193 461.309 129.193 462.196H129.269C130.308 460.65 131.448 459.612 132.689 459.08C133.956 458.548 135.273 458.332 136.641 458.434C136.844 460.308 136.844 462.183 136.641 464.058H135.767C135.666 463.019 135.425 462.297 135.045 461.892C134.69 461.461 134.184 461.246 133.525 461.246C132.689 461.246 131.942 461.423 131.283 461.778C130.624 462.132 129.966 462.715 129.307 463.526V471.696C129.307 472.582 129.396 473.228 129.573 473.634C129.75 474.039 130.092 474.305 130.599 474.432C131.131 474.558 131.904 474.634 132.917 474.66V475.534H123.987ZM147.381 458.244C148.85 458.244 150.193 458.611 151.409 459.346C152.65 460.055 153.651 461.056 154.411 462.348C155.171 463.64 155.551 465.147 155.551 466.87C155.551 468.39 155.285 469.732 154.753 470.898C154.246 472.038 153.562 473 152.701 473.786C151.839 474.546 150.889 475.128 149.851 475.534C148.837 475.914 147.837 476.104 146.849 476.104C145.405 476.104 144.062 475.749 142.821 475.04C141.579 474.305 140.579 473.292 139.819 472C139.084 470.708 138.717 469.2 138.717 467.478C138.717 465.958 138.97 464.628 139.477 463.488C140.009 462.322 140.705 461.36 141.567 460.6C142.428 459.814 143.365 459.232 144.379 458.852C145.392 458.446 146.393 458.244 147.381 458.244ZM147.495 474.584C148.989 474.584 150.167 474.052 151.029 472.988C151.89 471.898 152.321 470.226 152.321 467.972C152.321 466.426 152.08 465.033 151.599 463.792C151.143 462.55 150.497 461.575 149.661 460.866C148.825 460.131 147.849 459.764 146.735 459.764C145.265 459.764 144.1 460.308 143.239 461.398C142.377 462.462 141.947 464.121 141.947 466.376C141.947 467.896 142.175 469.276 142.631 470.518C143.112 471.759 143.771 472.747 144.607 473.482C145.443 474.216 146.405 474.584 147.495 474.584ZM177.673 472.608L178.053 473.482L171.859 476.332L171.631 476.104C171.681 475.876 171.732 475.432 171.783 474.774C171.859 474.09 171.897 473.368 171.897 472.608H171.859C171.2 473.545 170.364 474.368 169.351 475.078C168.363 475.762 167.172 476.104 165.779 476.104C164.588 476.104 163.473 475.8 162.435 475.192C161.421 474.558 160.598 473.646 159.965 472.456C159.357 471.265 159.053 469.821 159.053 468.124C159.053 466.502 159.331 465.084 159.889 463.868C160.471 462.626 161.231 461.588 162.169 460.752C163.131 459.916 164.183 459.295 165.323 458.89C166.488 458.459 167.653 458.244 168.819 458.244C169.984 458.244 170.985 458.358 171.821 458.586V450.568C171.821 449.858 171.707 449.402 171.479 449.2C171.276 448.997 170.997 448.896 170.643 448.896C170.313 448.896 169.959 448.946 169.579 449.048C169.224 449.149 168.895 449.276 168.591 449.428L168.211 448.554L174.785 445.514L175.013 445.742C174.987 445.944 174.949 446.489 174.899 447.376C174.873 448.262 174.861 449.314 174.861 450.53V471.278C174.861 471.987 174.962 472.443 175.165 472.646C175.393 472.848 175.684 472.95 176.039 472.95C176.571 472.95 177.115 472.836 177.673 472.608ZM166.957 473.824C167.843 473.824 168.692 473.596 169.503 473.14C170.339 472.684 171.111 472.126 171.821 471.468V461.512C171.213 460.853 170.529 460.435 169.769 460.258C169.034 460.055 168.388 459.954 167.831 459.954C166.209 459.954 164.854 460.511 163.765 461.626C162.701 462.715 162.169 464.45 162.169 466.832C162.169 469.01 162.612 470.72 163.499 471.962C164.385 473.203 165.538 473.824 166.957 473.824ZM199.35 472.608L199.73 473.482L193.574 476.332L193.346 476.104C193.397 475.876 193.447 475.432 193.498 474.774C193.574 474.09 193.612 473.368 193.612 472.608H193.536C192.548 473.621 191.522 474.457 190.458 475.116C189.419 475.774 188.241 476.104 186.924 476.104C185.328 476.104 184.213 475.698 183.58 474.888C182.972 474.077 182.668 473.026 182.668 471.734V462.994C182.668 462.335 182.554 461.904 182.326 461.702C182.123 461.499 181.845 461.398 181.49 461.398C180.983 461.398 180.439 461.524 179.856 461.778L179.476 460.904L185.632 458.054L185.86 458.282C185.835 458.484 185.797 459.029 185.746 459.916C185.721 460.777 185.708 461.79 185.708 462.956V470.784C185.708 471.67 185.885 472.367 186.24 472.874C186.62 473.38 187.291 473.634 188.254 473.634C189.065 473.634 189.901 473.469 190.762 473.14C191.649 472.785 192.561 472.228 193.498 471.468V462.994C193.498 462.335 193.397 461.904 193.194 461.702C192.991 461.499 192.7 461.398 192.32 461.398C191.991 461.398 191.649 461.461 191.294 461.588C190.939 461.689 190.623 461.803 190.344 461.93L189.964 461.056L196.462 458.054L196.69 458.282C196.665 458.484 196.627 459.029 196.576 459.916C196.551 460.777 196.538 461.79 196.538 462.956V471.278C196.538 471.987 196.639 472.443 196.842 472.646C197.07 472.848 197.361 472.95 197.716 472.95C198.273 472.95 198.818 472.836 199.35 472.608ZM207.534 471.696C207.534 472.582 207.623 473.228 207.8 473.634C207.978 474.039 208.294 474.305 208.75 474.432C209.232 474.558 209.903 474.634 210.764 474.66V475.534H202.214V474.66C202.772 474.634 203.215 474.558 203.544 474.432C203.874 474.305 204.114 474.039 204.266 473.634C204.418 473.228 204.494 472.582 204.494 471.696V463.108C204.494 462.398 204.38 461.942 204.152 461.74C203.95 461.512 203.671 461.398 203.316 461.398C202.987 461.398 202.632 461.461 202.252 461.588C201.898 461.689 201.568 461.803 201.264 461.93L200.884 461.056L207.458 458.054L207.686 458.282C207.661 458.484 207.623 459.029 207.572 459.916C207.547 460.802 207.534 461.854 207.534 463.07V471.696ZM206.014 454.482C205.457 454.482 204.988 454.292 204.608 453.912C204.228 453.532 204.038 453.063 204.038 452.506C204.038 451.974 204.228 451.518 204.608 451.138C204.988 450.758 205.457 450.568 206.014 450.568C206.572 450.568 207.04 450.758 207.42 451.138C207.8 451.518 207.99 451.974 207.99 452.506C207.99 453.063 207.8 453.532 207.42 453.912C207.04 454.292 206.572 454.482 206.014 454.482ZM223.683 472.228L224.291 472.836C223.683 473.748 222.987 474.52 222.201 475.154C221.416 475.787 220.39 476.104 219.123 476.104C218.11 476.104 217.299 475.901 216.691 475.496C216.109 475.09 215.691 474.558 215.437 473.9C215.184 473.216 215.057 472.481 215.057 471.696V460.372H212.435V458.814H215.057V453.608L218.287 453.038C218.211 454 218.161 454.963 218.135 455.926C218.11 456.888 218.097 457.851 218.097 458.814H223.721V460.372H219.275C218.845 460.372 218.541 460.46 218.363 460.638C218.186 460.815 218.097 461.119 218.097 461.55V470.898C218.097 471.708 218.237 472.405 218.515 472.988C218.819 473.57 219.427 473.862 220.339 473.862C220.871 473.862 221.416 473.735 221.973 473.482C222.531 473.203 223.101 472.785 223.683 472.228ZM134.732 529.21V530.084H125.802V529.21C126.384 529.184 126.84 529.108 127.17 528.982C127.499 528.855 127.727 528.589 127.854 528.184C128.006 527.778 128.082 527.132 128.082 526.246V509.07C128.082 508.386 127.98 507.942 127.778 507.74C127.575 507.512 127.296 507.398 126.942 507.398C126.663 507.398 126.384 507.436 126.106 507.512C125.852 507.562 125.586 507.651 125.308 507.778L124.928 506.904L131.046 504.054L131.274 504.282C131.223 504.51 131.16 504.953 131.084 505.612C131.033 506.27 131.008 506.967 131.008 507.702H131.084V507.74C131.742 506.802 132.566 505.992 133.554 505.308C134.567 504.598 135.77 504.244 137.164 504.244C138.354 504.244 139.456 504.56 140.47 505.194C141.508 505.802 142.332 506.701 142.94 507.892C143.573 509.057 143.89 510.501 143.89 512.224C143.89 513.845 143.598 515.276 143.016 516.518C142.458 517.734 141.698 518.76 140.736 519.596C139.798 520.432 138.747 521.065 137.582 521.496C136.442 521.901 135.289 522.104 134.124 522.104C133.541 522.104 132.996 522.066 132.49 521.99C132.008 521.939 131.552 521.863 131.122 521.762V526.246C131.122 527.132 131.21 527.778 131.388 528.184C131.565 528.589 131.907 528.855 132.414 528.982C132.946 529.108 133.718 529.184 134.732 529.21ZM135.112 520.394C136.758 520.394 138.114 519.849 139.178 518.76C140.242 517.645 140.774 515.897 140.774 513.516C140.774 511.337 140.33 509.627 139.444 508.386C138.557 507.144 137.404 506.524 135.986 506.524C135.124 506.524 134.276 506.752 133.44 507.208C132.604 507.664 131.831 508.221 131.122 508.88V518.836C131.73 519.469 132.401 519.887 133.136 520.09C133.896 520.292 134.554 520.394 135.112 520.394ZM156.064 504.244C157.534 504.244 158.876 504.611 160.092 505.346C161.334 506.055 162.334 507.056 163.094 508.348C163.854 509.64 164.234 511.147 164.234 512.87C164.234 514.39 163.968 515.732 163.436 516.898C162.93 518.038 162.246 519 161.384 519.786C160.523 520.546 159.573 521.128 158.534 521.534C157.521 521.914 156.52 522.104 155.532 522.104C154.088 522.104 152.746 521.749 151.504 521.04C150.263 520.305 149.262 519.292 148.502 518C147.768 516.708 147.4 515.2 147.4 513.478C147.4 511.958 147.654 510.628 148.16 509.488C148.692 508.322 149.389 507.36 150.25 506.6C151.112 505.814 152.049 505.232 153.062 504.852C154.076 504.446 155.076 504.244 156.064 504.244ZM156.178 520.584C157.673 520.584 158.851 520.052 159.712 518.988C160.574 517.898 161.004 516.226 161.004 513.972C161.004 512.426 160.764 511.033 160.282 509.792C159.826 508.55 159.18 507.575 158.344 506.866C157.508 506.131 156.533 505.764 155.418 505.764C153.949 505.764 152.784 506.308 151.922 507.398C151.061 508.462 150.63 510.121 150.63 512.376C150.63 513.896 150.858 515.276 151.314 516.518C151.796 517.759 152.454 518.747 153.29 519.482C154.126 520.216 155.089 520.584 156.178 520.584ZM186.584 518.608L186.964 519.482L180.808 522.332L180.58 522.104C180.631 521.876 180.682 521.432 180.732 520.774C180.808 520.09 180.846 519.368 180.846 518.608H180.77C179.782 519.621 178.756 520.457 177.692 521.116C176.654 521.774 175.476 522.104 174.158 522.104C172.562 522.104 171.448 521.698 170.814 520.888C170.206 520.077 169.902 519.026 169.902 517.734V508.994C169.902 508.335 169.788 507.904 169.56 507.702C169.358 507.499 169.079 507.398 168.724 507.398C168.218 507.398 167.673 507.524 167.09 507.778L166.71 506.904L172.866 504.054L173.094 504.282C173.069 504.484 173.031 505.029 172.98 505.916C172.955 506.777 172.942 507.79 172.942 508.956V516.784C172.942 517.67 173.12 518.367 173.474 518.874C173.854 519.38 174.526 519.634 175.488 519.634C176.299 519.634 177.135 519.469 177.996 519.14C178.883 518.785 179.795 518.228 180.732 517.468V508.994C180.732 508.335 180.631 507.904 180.428 507.702C180.226 507.499 179.934 507.398 179.554 507.398C179.225 507.398 178.883 507.461 178.528 507.588C178.174 507.689 177.857 507.803 177.578 507.93L177.198 507.056L183.696 504.054L183.924 504.282C183.899 504.484 183.861 505.029 183.81 505.916C183.785 506.777 183.772 507.79 183.772 508.956V517.278C183.772 517.987 183.874 518.443 184.076 518.646C184.304 518.848 184.596 518.95 184.95 518.95C185.508 518.95 186.052 518.836 186.584 518.608ZM189.411 521.534V520.66C189.993 520.634 190.449 520.558 190.779 520.432C191.108 520.305 191.336 520.039 191.463 519.634C191.615 519.228 191.691 518.582 191.691 517.696V508.994C191.691 508.335 191.589 507.904 191.387 507.702C191.184 507.499 190.905 507.398 190.551 507.398C190.272 507.398 189.993 507.436 189.715 507.512C189.461 507.562 189.195 507.651 188.917 507.778L188.537 506.904L194.655 504.054L194.883 504.282C194.832 504.51 194.769 505.004 194.693 505.764C194.642 506.498 194.617 507.309 194.617 508.196H194.693C195.731 506.65 196.871 505.612 198.113 505.08C199.379 504.548 200.697 504.332 202.065 504.434C202.267 506.308 202.267 508.183 202.065 510.058H201.191C201.089 509.019 200.849 508.297 200.469 507.892C200.114 507.461 199.607 507.246 198.949 507.246C198.113 507.246 197.365 507.423 196.707 507.778C196.048 508.132 195.389 508.715 194.731 509.526V517.696C194.731 518.582 194.819 519.228 194.997 519.634C195.174 520.039 195.516 520.305 196.023 520.432C196.555 520.558 197.327 520.634 198.341 520.66V521.534H189.411ZM126.044 567.914C125.867 567.255 125.69 566.685 125.512 566.204C125.36 565.722 125.145 565.165 124.866 564.532L120.61 554.538C120.256 553.676 119.926 553.056 119.622 552.676C119.344 552.296 119.04 552.042 118.71 551.916C118.406 551.789 118.026 551.713 117.57 551.688V550.814H125.588V551.688C124.727 551.713 124.119 551.802 123.764 551.954C123.41 552.08 123.258 552.346 123.308 552.752C123.359 553.132 123.549 553.727 123.878 554.538L127.564 563.278H127.64L131.25 554.538C131.757 553.347 131.846 552.587 131.516 552.258C131.212 551.928 130.389 551.738 129.046 551.688V550.814H135.772V551.688C135.392 551.713 135.05 551.802 134.746 551.954C134.442 552.08 134.151 552.346 133.872 552.752C133.619 553.132 133.315 553.727 132.96 554.538L128.742 564.532C128.464 565.216 128.261 565.786 128.134 566.242C128.008 566.698 127.868 567.255 127.716 567.914H126.044ZM142.797 563.696C142.797 564.582 142.886 565.228 143.063 565.634C143.24 566.039 143.557 566.305 144.013 566.432C144.494 566.558 145.166 566.634 146.027 566.66V567.534H137.477V566.66C138.034 566.634 138.478 566.558 138.807 566.432C139.136 566.305 139.377 566.039 139.529 565.634C139.681 565.228 139.757 564.582 139.757 563.696V555.108C139.757 554.398 139.643 553.942 139.415 553.74C139.212 553.512 138.934 553.398 138.579 553.398C138.25 553.398 137.895 553.461 137.515 553.588C137.16 553.689 136.831 553.803 136.527 553.93L136.147 553.056L142.721 550.054L142.949 550.282C142.924 550.484 142.886 551.029 142.835 551.916C142.81 552.802 142.797 553.854 142.797 555.07V563.696ZM141.277 546.482C140.72 546.482 140.251 546.292 139.871 545.912C139.491 545.532 139.301 545.063 139.301 544.506C139.301 543.974 139.491 543.518 139.871 543.138C140.251 542.758 140.72 542.568 141.277 542.568C141.834 542.568 142.303 542.758 142.683 543.138C143.063 543.518 143.253 543.974 143.253 544.506C143.253 545.063 143.063 545.532 142.683 545.912C142.303 546.292 141.834 546.482 141.277 546.482ZM158.946 564.228L159.554 564.836C158.946 565.748 158.249 566.52 157.464 567.154C156.679 567.787 155.653 568.104 154.386 568.104C153.373 568.104 152.562 567.901 151.954 567.496C151.371 567.09 150.953 566.558 150.7 565.9C150.447 565.216 150.32 564.481 150.32 563.696V552.372H147.698V550.814H150.32V545.608L153.55 545.038C153.474 546 153.423 546.963 153.398 547.926C153.373 548.888 153.36 549.851 153.36 550.814H158.984V552.372H154.538C154.107 552.372 153.803 552.46 153.626 552.638C153.449 552.815 153.36 553.119 153.36 553.55V562.898C153.36 563.708 153.499 564.405 153.778 564.988C154.082 565.57 154.69 565.862 155.602 565.862C156.134 565.862 156.679 565.735 157.236 565.482C157.793 565.203 158.363 564.785 158.946 564.228ZM162.377 567.534V566.66C162.959 566.634 163.415 566.558 163.745 566.432C164.074 566.305 164.302 566.039 164.429 565.634C164.581 565.228 164.657 564.582 164.657 563.696V554.994C164.657 554.335 164.555 553.904 164.353 553.702C164.15 553.499 163.871 553.398 163.517 553.398C163.238 553.398 162.959 553.436 162.681 553.512C162.427 553.562 162.161 553.651 161.883 553.778L161.503 552.904L167.621 550.054L167.849 550.282C167.798 550.51 167.735 551.004 167.659 551.764C167.608 552.498 167.583 553.309 167.583 554.196H167.659C168.697 552.65 169.837 551.612 171.079 551.08C172.345 550.548 173.663 550.332 175.031 550.434C175.233 552.308 175.233 554.183 175.031 556.058H174.157C174.055 555.019 173.815 554.297 173.435 553.892C173.08 553.461 172.573 553.246 171.915 553.246C171.079 553.246 170.331 553.423 169.673 553.778C169.014 554.132 168.355 554.715 167.697 555.526V563.696C167.697 564.582 167.785 565.228 167.963 565.634C168.14 566.039 168.482 566.305 168.989 566.432C169.521 566.558 170.293 566.634 171.307 566.66V567.534H162.377ZM184.82 568.104C183.528 568.104 182.287 567.8 181.096 567.192C179.931 566.584 178.968 565.672 178.208 564.456C177.474 563.214 177.106 561.644 177.106 559.744C177.106 557.818 177.486 556.146 178.246 554.728C179.006 553.309 180.02 552.207 181.286 551.422C182.553 550.636 183.934 550.244 185.428 550.244C186.518 550.244 187.518 550.459 188.43 550.89C189.368 551.32 190.115 551.979 190.672 552.866C191.255 553.752 191.546 554.88 191.546 556.248L180.146 557.73C180.146 557.856 180.146 557.996 180.146 558.148C180.146 560.478 180.678 562.302 181.742 563.62C182.806 564.937 184.225 565.596 185.998 565.596C187.012 565.596 187.949 565.393 188.81 564.988C189.672 564.557 190.444 564.025 191.128 563.392L191.736 564C191.027 565.216 190.077 566.204 188.886 566.964C187.721 567.724 186.366 568.104 184.82 568.104ZM184.63 551.65C183.313 551.65 182.3 552.118 181.59 553.056C180.881 553.993 180.438 555.146 180.26 556.514L188.126 555.488C187.974 554.398 187.645 553.486 187.138 552.752C186.632 552.017 185.796 551.65 184.63 551.65ZM200.169 568.104C198.37 568.104 196.99 567.762 196.027 567.078C195.064 566.394 194.583 565.52 194.583 564.456C194.583 564.076 194.659 563.658 194.811 563.202C194.963 562.72 195.229 562.252 195.609 561.796H196.483C196.508 563.417 196.85 564.658 197.509 565.52C198.168 566.381 199.206 566.812 200.625 566.812C201.892 566.812 202.829 566.508 203.437 565.9C204.045 565.292 204.349 564.595 204.349 563.81C204.349 563.1 204.121 562.518 203.665 562.062C203.234 561.606 202.664 561.213 201.955 560.884C201.271 560.529 200.536 560.2 199.751 559.896C198.966 559.566 198.218 559.212 197.509 558.832C196.825 558.426 196.255 557.932 195.799 557.35C195.368 556.767 195.153 556.032 195.153 555.146C195.153 553.752 195.71 552.587 196.825 551.65C197.94 550.712 199.498 550.244 201.499 550.244C202.284 550.244 203.082 550.32 203.893 550.472C204.704 550.598 205.464 550.864 206.173 551.27V555.64H205.299C205.122 554.145 204.64 553.094 203.855 552.486C203.07 551.852 202.145 551.536 201.081 551.536C200.042 551.536 199.257 551.764 198.725 552.22C198.193 552.676 197.927 553.271 197.927 554.006C197.927 554.69 198.142 555.26 198.573 555.716C199.029 556.146 199.599 556.526 200.283 556.856C200.992 557.185 201.727 557.514 202.487 557.844C203.272 558.148 204.007 558.515 204.691 558.946C205.4 559.351 205.97 559.87 206.401 560.504C206.857 561.112 207.085 561.884 207.085 562.822C207.085 564.519 206.426 565.824 205.109 566.736C203.792 567.648 202.145 568.104 200.169 568.104Z" fill="black"/>
</svg>
