<svg width="228" height="729" viewBox="0 0 228 729" fill="none" xmlns="http://www.w3.org/2000/svg">
<path d="M215.541 681.225C213.695 702.761 198.364 721.476 190.929 728.142L8.6464 728.142C-6.73611 728.142 1.72432 200.522 8.64644 189.754C15.5686 178.986 26.3363 171.295 53.2557 160.527C74.7912 151.913 103.762 124.122 115.555 111.303L175.547 62.8486C180.674 75.411 195.851 109.919 215.541 147.452C240.153 194.369 217.848 654.306 215.541 681.225Z" fill="#D9DBDA"/>
<path d="M54.4564 350.304C54.0764 349.721 53.6584 349.139 53.2024 348.556C52.7464 347.948 52.1258 347.213 51.3404 346.352L37.4704 330.658L37.3944 330.658L37.3944 346.2C37.3944 347.137 37.6224 347.847 38.0784 348.328C38.5598 348.809 39.5478 349.075 41.0424 349.126L41.0424 350L33.0244 350L33.0244 349.126C34.0631 349.075 34.7598 348.809 35.1144 348.328C35.4944 347.847 35.6844 347.137 35.6844 346.2L35.6844 328.53C35.6844 327.542 35.3931 326.82 34.8104 326.364C34.2531 325.908 33.3411 325.655 32.0744 325.604L32.0744 324.73L37.2424 324.73C37.6224 325.363 38.0278 325.984 38.4584 326.592C38.9144 327.2 39.4084 327.795 39.9404 328.378L53.9624 344.072L54.0384 344.072L54.0384 328.53C54.0384 327.593 53.7978 326.883 53.3164 326.402C52.8604 325.921 51.8851 325.655 50.3904 325.604L50.3904 324.73L58.4084 324.73L58.4084 325.604C57.3951 325.655 56.6984 325.921 56.3184 326.402C55.9384 326.883 55.7484 327.593 55.7484 328.53L55.7484 346.2C55.7484 346.909 55.7484 347.593 55.7484 348.252C55.7738 348.885 55.7991 349.569 55.8244 350.304L54.4564 350.304ZM69.4786 350.57C68.1866 350.57 66.9453 350.266 65.7546 349.658C64.5893 349.05 63.6266 348.138 62.8666 346.922C62.1319 345.681 61.7646 344.11 61.7646 342.21C61.7646 340.285 62.1446 338.613 62.9046 337.194C63.6646 335.775 64.6779 334.673 65.9446 333.888C67.2113 333.103 68.5919 332.71 70.0866 332.71C71.1759 332.71 72.1766 332.925 73.0886 333.356C74.0259 333.787 74.7733 334.445 75.3306 335.332C75.9133 336.219 76.2046 337.346 76.2046 338.714L64.8046 340.196C64.8046 340.323 64.8046 340.462 64.8046 340.614C64.8046 342.945 65.3366 344.769 66.4006 346.086C67.4646 347.403 68.8833 348.062 70.6566 348.062C71.6699 348.062 72.6073 347.859 73.4686 347.454C74.3299 347.023 75.1026 346.491 75.7866 345.858L76.3946 346.466C75.6853 347.682 74.7353 348.67 73.5446 349.43C72.3793 350.19 71.0239 350.57 69.4786 350.57ZM69.2886 334.116C67.9713 334.116 66.9579 334.585 66.2486 335.522C65.5393 336.459 65.0959 337.612 64.9186 338.98L72.7846 337.954C72.6326 336.865 72.3033 335.953 71.7966 335.218C71.2899 334.483 70.4539 334.116 69.2886 334.116ZM89.8053 346.694L90.4133 347.302C89.8053 348.214 89.1087 348.987 88.3233 349.62C87.538 350.253 86.512 350.57 85.2453 350.57C84.232 350.57 83.4213 350.367 82.8133 349.962C82.2307 349.557 81.8127 349.025 81.5593 348.366C81.306 347.682 81.1793 346.947 81.1793 346.162L81.1793 334.838L78.5573 334.838L78.5573 333.28L81.1793 333.28L81.1793 328.074L84.4093 327.504C84.3333 328.467 84.2827 329.429 84.2573 330.392C84.232 331.355 84.2193 332.317 84.2193 333.28L89.8433 333.28L89.8433 334.838L85.3973 334.838C84.9667 334.838 84.6627 334.927 84.4853 335.104C84.308 335.281 84.2193 335.585 84.2193 336.016L84.2193 345.364C84.2193 346.175 84.3587 346.871 84.6373 347.454C84.9413 348.037 85.5493 348.328 86.4613 348.328C86.9933 348.328 87.538 348.201 88.0953 347.948C88.6527 347.669 89.2227 347.251 89.8053 346.694ZM103.61 346.694L104.218 347.302C103.61 348.214 102.913 348.987 102.128 349.62C101.343 350.253 100.317 350.57 99.05 350.57C98.0367 350.57 97.226 350.367 96.618 349.962C96.0354 349.557 95.6174 349.025 95.364 348.366C95.1107 347.682 94.984 346.947 94.984 346.162L94.984 334.838L92.362 334.838L92.362 333.28L94.984 333.28L94.984 328.074L98.214 327.504C98.138 328.467 98.0874 329.429 98.062 330.392C98.0367 331.355 98.024 332.317 98.024 333.28L103.648 333.28L103.648 334.838L99.202 334.838C98.7714 334.838 98.4674 334.927 98.29 335.104C98.1127 335.281 98.024 335.585 98.024 336.016L98.024 345.364C98.024 346.175 98.1634 346.871 98.442 347.454C98.746 348.037 99.354 348.328 100.266 348.328C100.798 348.328 101.343 348.201 101.9 347.948C102.457 347.669 103.027 347.251 103.61 346.694ZM115.591 332.71C117.06 332.71 118.403 333.077 119.619 333.812C120.86 334.521 121.861 335.522 122.621 336.814C123.381 338.106 123.761 339.613 123.761 341.336C123.761 342.856 123.495 344.199 122.963 345.364C122.456 346.504 121.772 347.467 120.911 348.252C120.049 349.012 119.099 349.595 118.061 350C117.047 350.38 116.047 350.57 115.059 350.57C113.615 350.57 112.272 350.215 111.031 349.506C109.789 348.771 108.789 347.758 108.029 346.466C107.294 345.174 106.927 343.667 106.927 341.944C106.927 340.424 107.18 339.094 107.687 337.954C108.219 336.789 108.915 335.826 109.777 335.066C110.638 334.281 111.575 333.698 112.589 333.318C113.602 332.913 114.603 332.71 115.591 332.71ZM115.705 349.05C117.199 349.05 118.377 348.518 119.239 347.454C120.1 346.365 120.531 344.693 120.531 342.438C120.531 340.893 120.29 339.499 119.809 338.258C119.353 337.017 118.707 336.041 117.871 335.332C117.035 334.597 116.059 334.23 114.945 334.23C113.475 334.23 112.31 334.775 111.449 335.864C110.587 336.928 110.157 338.587 110.157 340.842C110.157 342.362 110.385 343.743 110.841 344.984C111.322 346.225 111.981 347.213 112.817 347.948C113.653 348.683 114.615 349.05 115.705 349.05ZM128.137 358.93C127.275 358.93 126.591 358.651 126.085 358.094C125.578 357.562 125.325 356.815 125.325 355.852C125.325 355.421 125.375 354.991 125.477 354.56C125.578 354.129 125.717 353.686 125.895 353.23L126.769 353.23C126.845 354.319 127.035 355.13 127.339 355.662C127.643 356.194 128.137 356.46 128.821 356.46C129.581 356.46 130.366 355.877 131.177 354.712C132.013 353.572 132.975 351.9 134.065 349.696L128.403 337.004C128.023 336.143 127.681 335.522 127.377 335.142C127.098 334.762 126.794 334.509 126.465 334.382C126.161 334.255 125.781 334.179 125.325 334.154L125.325 333.28L133.419 333.28L133.419 334.154C132.583 334.179 131.987 334.268 131.633 334.42C131.303 334.547 131.164 334.813 131.215 335.218C131.265 335.598 131.455 336.193 131.785 337.004L135.585 345.744L135.661 345.744L139.195 337.004C139.701 335.813 139.777 335.053 139.423 334.724C139.068 334.395 138.219 334.205 136.877 334.154L136.877 333.28L143.641 333.28L143.641 334.154C143.261 334.179 142.919 334.268 142.615 334.42C142.311 334.547 142.019 334.813 141.741 335.218C141.487 335.598 141.196 336.193 140.867 337.004L136.801 346.998C135.737 349.633 134.774 351.837 133.913 353.61C133.077 355.383 132.203 356.713 131.291 357.6C130.404 358.487 129.353 358.93 128.137 358.93ZM149.442 350.57C148.252 350.57 147.276 350.266 146.516 349.658C145.782 349.025 145.414 348.125 145.414 346.96C145.414 346.023 145.706 345.161 146.288 344.376C146.871 343.591 147.834 342.869 149.176 342.21C150.519 341.551 152.343 340.943 154.648 340.386L154.648 337.916C154.648 336.877 154.42 336.016 153.964 335.332C153.534 334.648 152.698 334.306 151.456 334.306C150.266 334.306 149.316 334.686 148.606 335.446C147.922 336.181 147.441 337.333 147.162 338.904L146.288 338.904L146.288 334.154C147.175 333.723 148.112 333.381 149.1 333.128C150.114 332.849 151.228 332.71 152.444 332.71C153.838 332.71 154.902 332.9 155.636 333.28C156.396 333.635 156.928 334.141 157.232 334.8C157.536 335.459 157.688 336.231 157.688 337.118L157.688 346.314C157.688 347.657 158.106 348.328 158.942 348.328C159.246 348.328 159.588 348.227 159.968 348.024C160.374 347.821 160.842 347.403 161.374 346.77L161.982 347.378C160.817 349.379 159.424 350.38 157.802 350.38C156.13 350.38 155.104 349.531 154.724 347.834L154.648 347.834C153.255 349.658 151.52 350.57 149.442 350.57ZM150.848 348.328C152.064 348.328 153.331 347.771 154.648 346.656L154.648 341.564C152.824 342.02 151.482 342.527 150.62 343.084C149.759 343.616 149.189 344.161 148.91 344.718C148.657 345.25 148.53 345.744 148.53 346.2C148.53 346.935 148.758 347.479 149.214 347.834C149.67 348.163 150.215 348.328 150.848 348.328ZM179.974 346.162C179.974 347.049 180.05 347.695 180.202 348.1C180.38 348.505 180.696 348.771 181.152 348.898C181.634 349.025 182.318 349.101 183.204 349.126L183.204 350L174.654 350L174.654 349.126C175.212 349.101 175.655 349.025 175.984 348.898C176.314 348.771 176.554 348.505 176.706 348.1C176.858 347.695 176.934 347.049 176.934 346.162L176.934 337.992C176.934 337.105 176.732 336.409 176.326 335.902C175.946 335.395 175.275 335.142 174.312 335.142C173.476 335.142 172.602 335.319 171.69 335.674C170.778 336.029 169.841 336.586 168.878 337.346L168.878 346.162C168.878 347.049 168.954 347.695 169.106 348.1C169.284 348.505 169.6 348.771 170.056 348.898C170.538 349.025 171.222 349.101 172.108 349.126L172.108 350L163.558 350L163.558 349.126C164.141 349.101 164.597 349.025 164.926 348.898C165.256 348.771 165.484 348.505 165.61 348.1C165.762 347.695 165.838 347.049 165.838 346.162L165.838 337.536C165.838 336.852 165.737 336.409 165.534 336.206C165.332 335.978 165.053 335.864 164.698 335.864C164.42 335.864 164.141 335.902 163.862 335.978C163.609 336.029 163.343 336.117 163.064 336.244L162.684 335.37L168.802 332.52L169.03 332.748C168.98 332.976 168.916 333.419 168.84 334.078C168.79 334.737 168.764 335.433 168.764 336.168L168.84 336.168C169.803 335.155 170.842 334.331 171.956 333.698C173.096 333.039 174.325 332.71 175.642 332.71C177.264 332.71 178.391 333.115 179.024 333.926C179.658 334.711 179.974 335.763 179.974 337.08L179.974 346.162ZM196.012 346.694L196.62 347.302C196.012 348.214 195.316 348.987 194.53 349.62C193.745 350.253 192.719 350.57 191.452 350.57C190.439 350.57 189.628 350.367 189.02 349.962C188.438 349.557 188.02 349.025 187.766 348.366C187.513 347.682 187.386 346.947 187.386 346.162L187.386 334.838L184.764 334.838L184.764 333.28L187.386 333.28L187.386 328.074L190.616 327.504C190.54 328.467 190.49 329.429 190.464 330.392C190.439 331.355 190.426 332.317 190.426 333.28L196.05 333.28L196.05 334.838L191.604 334.838C191.174 334.838 190.87 334.927 190.692 335.104C190.515 335.281 190.426 335.585 190.426 336.016L190.426 345.364C190.426 346.175 190.566 346.871 190.844 347.454C191.148 348.037 191.756 348.328 192.668 348.328C193.2 348.328 193.745 348.201 194.302 347.948C194.86 347.669 195.43 347.251 196.012 346.694ZM85.5004 403.676L85.5004 404.55L76.5704 404.55L76.5704 403.676C77.153 403.651 77.609 403.575 77.9384 403.448C78.2677 403.321 78.4957 403.055 78.6224 402.65C78.7744 402.245 78.8504 401.599 78.8504 400.712L78.8504 383.536C78.8504 382.852 78.749 382.409 78.5464 382.206C78.3437 381.978 78.065 381.864 77.7104 381.864C77.4317 381.864 77.153 381.902 76.8744 381.978C76.621 382.029 76.355 382.117 76.0764 382.244L75.6964 381.37L81.8144 378.52L82.0424 378.748C81.9917 378.976 81.9284 379.419 81.8524 380.078C81.8017 380.737 81.7764 381.433 81.7764 382.168L81.8524 382.168L81.8524 382.206C82.511 381.269 83.3344 380.458 84.3224 379.774C85.3357 379.065 86.539 378.71 87.9324 378.71C89.123 378.71 90.225 379.027 91.2384 379.66C92.277 380.268 93.1004 381.167 93.7084 382.358C94.3417 383.523 94.6584 384.967 94.6584 386.69C94.6584 388.311 94.367 389.743 93.7844 390.984C93.227 392.2 92.467 393.226 91.5044 394.062C90.567 394.898 89.5157 395.531 88.3504 395.962C87.2104 396.367 86.0577 396.57 84.8924 396.57C84.3097 396.57 83.765 396.532 83.2584 396.456C82.777 396.405 82.321 396.329 81.8904 396.228L81.8904 400.712C81.8904 401.599 81.979 402.245 82.1564 402.65C82.3337 403.055 82.6757 403.321 83.1824 403.448C83.7144 403.575 84.487 403.651 85.5004 403.676ZM85.8804 394.86C87.527 394.86 88.8824 394.315 89.9464 393.226C91.0104 392.111 91.5424 390.363 91.5424 387.982C91.5424 385.803 91.099 384.093 90.2124 382.852C89.3257 381.611 88.173 380.99 86.7544 380.99C85.893 380.99 85.0444 381.218 84.2084 381.674C83.3724 382.13 82.5997 382.687 81.8904 383.346L81.8904 393.302C82.4984 393.935 83.1697 394.353 83.9044 394.556C84.6644 394.759 85.323 394.86 85.8804 394.86ZM106.833 378.71C108.302 378.71 109.645 379.077 110.861 379.812C112.102 380.521 113.103 381.522 113.863 382.814C114.623 384.106 115.003 385.613 115.003 387.336C115.003 388.856 114.737 390.199 114.205 391.364C113.698 392.504 113.014 393.467 112.153 394.252C111.292 395.012 110.342 395.595 109.303 396C108.29 396.38 107.289 396.57 106.301 396.57C104.857 396.57 103.514 396.215 102.273 395.506C101.032 394.771 100.031 393.758 99.2709 392.466C98.5362 391.174 98.1689 389.667 98.1689 387.944C98.1689 386.424 98.4222 385.094 98.9289 383.954C99.4609 382.789 100.158 381.826 101.019 381.066C101.88 380.281 102.818 379.698 103.831 379.318C104.844 378.913 105.845 378.71 106.833 378.71ZM106.947 395.05C108.442 395.05 109.62 394.518 110.481 393.454C111.342 392.365 111.773 390.693 111.773 388.438C111.773 386.893 111.532 385.499 111.051 384.258C110.595 383.017 109.949 382.041 109.113 381.332C108.277 380.597 107.302 380.23 106.187 380.23C104.718 380.23 103.552 380.775 102.691 381.864C101.83 382.928 101.399 384.587 101.399 386.842C101.399 388.362 101.627 389.743 102.083 390.984C102.564 392.225 103.223 393.213 104.059 393.948C104.895 394.683 105.858 395.05 106.947 395.05ZM137.353 393.074L137.733 393.948L131.577 396.798L131.349 396.57C131.4 396.342 131.45 395.899 131.501 395.24C131.577 394.556 131.615 393.834 131.615 393.074L131.539 393.074C130.551 394.087 129.525 394.923 128.461 395.582C127.422 396.241 126.244 396.57 124.927 396.57C123.331 396.57 122.216 396.165 121.583 395.354C120.975 394.543 120.671 393.492 120.671 392.2L120.671 383.46C120.671 382.801 120.557 382.371 120.329 382.168C120.126 381.965 119.848 381.864 119.493 381.864C118.986 381.864 118.442 381.991 117.859 382.244L117.479 381.37L123.635 378.52L123.863 378.748C123.838 378.951 123.8 379.495 123.749 380.382C123.724 381.243 123.711 382.257 123.711 383.422L123.711 391.25C123.711 392.137 123.888 392.833 124.243 393.34C124.623 393.847 125.294 394.1 126.257 394.1C127.068 394.1 127.904 393.935 128.765 393.606C129.652 393.251 130.564 392.694 131.501 391.934L131.501 383.46C131.501 382.801 131.4 382.371 131.197 382.168C130.994 381.965 130.703 381.864 130.323 381.864C129.994 381.864 129.652 381.927 129.297 382.054C128.942 382.155 128.626 382.269 128.347 382.396L127.967 381.522L134.465 378.52L134.693 378.748C134.668 378.951 134.63 379.495 134.579 380.382C134.554 381.243 134.541 382.257 134.541 383.422L134.541 391.744C134.541 392.453 134.642 392.909 134.845 393.112C135.073 393.315 135.364 393.416 135.719 393.416C136.276 393.416 136.821 393.302 137.353 393.074ZM140.179 396L140.179 395.126C140.762 395.101 141.218 395.025 141.547 394.898C141.877 394.771 142.105 394.505 142.231 394.1C142.383 393.695 142.459 393.049 142.459 392.162L142.459 383.46C142.459 382.801 142.358 382.371 142.155 382.168C141.953 381.965 141.674 381.864 141.319 381.864C141.041 381.864 140.762 381.902 140.483 381.978C140.23 382.029 139.964 382.117 139.685 382.244L139.305 381.37L145.423 378.52L145.651 378.748C145.601 378.976 145.537 379.47 145.461 380.23C145.411 380.965 145.385 381.775 145.385 382.662L145.461 382.662C146.5 381.117 147.64 380.078 148.881 379.546C150.148 379.014 151.465 378.799 152.833 378.9C153.036 380.775 153.036 382.649 152.833 384.524L151.959 384.524C151.858 383.485 151.617 382.763 151.237 382.358C150.883 381.927 150.376 381.712 149.717 381.712C148.881 381.712 148.134 381.889 147.475 382.244C146.817 382.599 146.158 383.181 145.499 383.992L145.499 392.162C145.499 393.049 145.588 393.695 145.765 394.1C145.943 394.505 146.285 394.771 146.791 394.898C147.323 395.025 148.096 395.101 149.109 395.126L149.109 396L140.179 396ZM59.0046 438.694L59.6126 439.302C59.0046 440.214 58.3079 440.987 57.5226 441.62C56.7372 442.253 55.7112 442.57 54.4446 442.57C53.4312 442.57 52.6206 442.367 52.0126 441.962C51.4299 441.557 51.0119 441.025 50.7586 440.366C50.5052 439.682 50.3786 438.947 50.3786 438.162L50.3786 426.838L47.7566 426.838L47.7566 425.28L50.3786 425.28L50.3786 420.074L53.6086 419.504C53.5326 420.467 53.4819 421.429 53.4566 422.392C53.4312 423.355 53.4186 424.317 53.4186 425.28L59.0426 425.28L59.0426 426.838L54.5966 426.838C54.1659 426.838 53.8619 426.927 53.6846 427.104C53.5072 427.281 53.4186 427.585 53.4186 428.016L53.4186 437.364C53.4186 438.175 53.5579 438.871 53.8366 439.454C54.1406 440.037 54.7486 440.328 55.6606 440.328C56.1926 440.328 56.7372 440.201 57.2946 439.948C57.8519 439.669 58.4219 439.251 59.0046 438.694ZM70.9852 424.71C72.4546 424.71 73.7972 425.077 75.0132 425.812C76.2546 426.521 77.2552 427.522 78.0152 428.814C78.7752 430.106 79.1552 431.613 79.1552 433.336C79.1552 434.856 78.8892 436.199 78.3572 437.364C77.8506 438.504 77.1666 439.467 76.3052 440.252C75.4439 441.012 74.4939 441.595 73.4552 442C72.4419 442.38 71.4412 442.57 70.4532 442.57C69.0092 442.57 67.6666 442.215 66.4252 441.506C65.1839 440.771 64.1832 439.758 63.4232 438.466C62.6886 437.174 62.3212 435.667 62.3212 433.944C62.3212 432.424 62.5746 431.094 63.0812 429.954C63.6132 428.789 64.3099 427.826 65.1712 427.066C66.0326 426.281 66.9699 425.698 67.9832 425.318C68.9966 424.913 69.9972 424.71 70.9852 424.71ZM71.0992 441.05C72.5939 441.05 73.7719 440.518 74.6332 439.454C75.4946 438.365 75.9252 436.693 75.9252 434.438C75.9252 432.893 75.6846 431.499 75.2032 430.258C74.7472 429.017 74.1012 428.041 73.2652 427.332C72.4292 426.597 71.4539 426.23 70.3392 426.23C68.8699 426.23 67.7046 426.775 66.8432 427.864C65.9819 428.928 65.5512 430.587 65.5512 432.842C65.5512 434.362 65.7792 435.743 66.2352 436.984C66.7166 438.225 67.3752 439.213 68.2112 439.948C69.0472 440.683 70.0099 441.05 71.0992 441.05ZM88.1292 438.162C88.1292 439.049 88.2178 439.695 88.3952 440.1C88.5725 440.505 88.8892 440.771 89.3452 440.898C89.8265 441.025 90.4978 441.101 91.3592 441.126L91.3592 442L82.8092 442L82.8092 441.126C83.3665 441.101 83.8098 441.025 84.1392 440.898C84.4685 440.771 84.7092 440.505 84.8612 440.1C85.0132 439.695 85.0892 439.049 85.0892 438.162L85.0892 429.574C85.0892 428.865 84.9752 428.409 84.7472 428.206C84.5445 427.978 84.2658 427.864 83.9112 427.864C83.5818 427.864 83.2272 427.927 82.8472 428.054C82.4925 428.155 82.1632 428.269 81.8592 428.396L81.4792 427.522L88.0532 424.52L88.2812 424.748C88.2558 424.951 88.2178 425.495 88.1672 426.382C88.1418 427.269 88.1292 428.32 88.1292 429.536L88.1292 438.162ZM86.6092 420.948C86.0518 420.948 85.5832 420.758 85.2032 420.378C84.8232 419.998 84.6332 419.529 84.6332 418.972C84.6332 418.44 84.8232 417.984 85.2032 417.604C85.5832 417.224 86.0518 417.034 86.6092 417.034C87.1665 417.034 87.6352 417.224 88.0152 417.604C88.3952 417.984 88.5852 418.44 88.5852 418.972C88.5852 419.529 88.3952 419.998 88.0152 420.378C87.6352 420.758 87.1665 420.948 86.6092 420.948ZM98.996 438.162C98.996 439.049 99.0847 439.695 99.262 440.1C99.4393 440.505 99.756 440.771 100.212 440.898C100.693 441.025 101.365 441.101 102.226 441.126L102.226 442L93.676 442L93.676 441.126C94.2333 441.101 94.6767 441.025 95.006 440.898C95.3353 440.771 95.576 440.505 95.728 440.1C95.88 439.695 95.956 439.049 95.956 438.162L95.956 417.034C95.956 416.325 95.842 415.869 95.614 415.666C95.4113 415.463 95.1327 415.362 94.778 415.362C94.4487 415.362 94.094 415.413 93.714 415.514C93.3593 415.615 93.03 415.742 92.726 415.894L92.346 415.02L98.92 411.98L99.148 412.208C99.1227 412.411 99.0847 412.955 99.034 413.842C99.0087 414.729 98.996 415.78 98.996 416.996L98.996 438.162ZM112.377 442.57C111.085 442.57 109.844 442.266 108.653 441.658C107.488 441.05 106.525 440.138 105.765 438.922C105.03 437.681 104.663 436.11 104.663 434.21C104.663 432.285 105.043 430.613 105.803 429.194C106.563 427.775 107.576 426.673 108.843 425.888C110.11 425.103 111.49 424.71 112.985 424.71C114.074 424.71 115.075 424.925 115.987 425.356C116.924 425.787 117.672 426.445 118.229 427.332C118.812 428.219 119.103 429.346 119.103 430.714L107.703 432.196C107.703 432.323 107.703 432.462 107.703 432.614C107.703 434.945 108.235 436.769 109.299 438.086C110.363 439.403 111.782 440.062 113.555 440.062C114.568 440.062 115.506 439.859 116.367 439.454C117.228 439.023 118.001 438.491 118.685 437.858L119.293 438.466C118.584 439.682 117.634 440.67 116.443 441.43C115.278 442.19 113.922 442.57 112.377 442.57ZM112.187 426.116C110.87 426.116 109.856 426.585 109.147 427.522C108.438 428.459 107.994 429.612 107.817 430.98L115.683 429.954C115.531 428.865 115.202 427.953 114.695 427.218C114.188 426.483 113.352 426.116 112.187 426.116ZM132.704 438.694L133.312 439.302C132.704 440.214 132.007 440.987 131.222 441.62C130.436 442.253 129.41 442.57 128.144 442.57C127.13 442.57 126.32 442.367 125.712 441.962C125.129 441.557 124.711 441.025 124.458 440.366C124.204 439.682 124.078 438.947 124.078 438.162L124.078 426.838L121.456 426.838L121.456 425.28L124.078 425.28L124.078 420.074L127.308 419.504C127.232 420.467 127.181 421.429 127.156 422.392C127.13 423.355 127.118 424.317 127.118 425.28L132.742 425.28L132.742 426.838L128.296 426.838C127.865 426.838 127.561 426.927 127.384 427.104C127.206 427.281 127.118 427.585 127.118 428.016L127.118 437.364C127.118 438.175 127.257 438.871 127.536 439.454C127.84 440.037 128.448 440.328 129.36 440.328C129.892 440.328 130.436 440.201 130.994 439.948C131.551 439.669 132.121 439.251 132.704 438.694ZM146.508 438.694L147.116 439.302C146.508 440.214 145.812 440.987 145.026 441.62C144.241 442.253 143.215 442.57 141.948 442.57C140.935 442.57 140.124 442.367 139.516 441.962C138.934 441.557 138.516 441.025 138.262 440.366C138.009 439.682 137.882 438.947 137.882 438.162L137.882 426.838L135.26 426.838L135.26 425.28L137.882 425.28L137.882 420.074L141.112 419.504C141.036 420.467 140.986 421.429 140.96 422.392C140.935 423.355 140.922 424.317 140.922 425.28L146.546 425.28L146.546 426.838L142.1 426.838C141.67 426.838 141.366 426.927 141.188 427.104C141.011 427.281 140.922 427.585 140.922 428.016L140.922 437.364C140.922 438.175 141.062 438.871 141.34 439.454C141.644 440.037 142.252 440.328 143.164 440.328C143.696 440.328 144.241 440.201 144.798 439.948C145.356 439.669 145.926 439.251 146.508 438.694ZM157.539 442.57C156.247 442.57 155.006 442.266 153.815 441.658C152.65 441.05 151.687 440.138 150.927 438.922C150.192 437.681 149.825 436.11 149.825 434.21C149.825 432.285 150.205 430.613 150.965 429.194C151.725 427.775 152.738 426.673 154.005 425.888C155.272 425.103 156.652 424.71 158.147 424.71C159.236 424.71 160.237 424.925 161.149 425.356C162.086 425.787 162.834 426.445 163.391 427.332C163.974 428.219 164.265 429.346 164.265 430.714L152.865 432.196C152.865 432.323 152.865 432.462 152.865 432.614C152.865 434.945 153.397 436.769 154.461 438.086C155.525 439.403 156.944 440.062 158.717 440.062C159.73 440.062 160.668 439.859 161.529 439.454C162.39 439.023 163.163 438.491 163.847 437.858L164.455 438.466C163.746 439.682 162.796 440.67 161.605 441.43C160.44 442.19 159.084 442.57 157.539 442.57ZM157.349 426.116C156.032 426.116 155.018 426.585 154.309 427.522C153.6 428.459 153.156 429.612 152.979 430.98L160.845 429.954C160.693 428.865 160.364 427.953 159.857 427.218C159.35 426.483 158.514 426.116 157.349 426.116ZM172.888 442.57C171.089 442.57 169.709 442.228 168.746 441.544C167.783 440.86 167.302 439.986 167.302 438.922C167.302 438.542 167.378 438.124 167.53 437.668C167.682 437.187 167.948 436.718 168.328 436.262L169.202 436.262C169.227 437.883 169.569 439.125 170.228 439.986C170.887 440.847 171.925 441.278 173.344 441.278C174.611 441.278 175.548 440.974 176.156 440.366C176.764 439.758 177.068 439.061 177.068 438.276C177.068 437.567 176.84 436.984 176.384 436.528C175.953 436.072 175.383 435.679 174.674 435.35C173.99 434.995 173.255 434.666 172.47 434.362C171.685 434.033 170.937 433.678 170.228 433.298C169.544 432.893 168.974 432.399 168.518 431.816C168.087 431.233 167.872 430.499 167.872 429.612C167.872 428.219 168.429 427.053 169.544 426.116C170.659 425.179 172.217 424.71 174.218 424.71C175.003 424.71 175.801 424.786 176.612 424.938C177.423 425.065 178.183 425.331 178.892 425.736L178.892 430.106L178.018 430.106C177.841 428.611 177.359 427.56 176.574 426.952C175.789 426.319 174.864 426.002 173.8 426.002C172.761 426.002 171.976 426.23 171.444 426.686C170.912 427.142 170.646 427.737 170.646 428.472C170.646 429.156 170.861 429.726 171.292 430.182C171.748 430.613 172.318 430.993 173.002 431.322C173.711 431.651 174.446 431.981 175.206 432.31C175.991 432.614 176.726 432.981 177.41 433.412C178.119 433.817 178.689 434.337 179.12 434.97C179.576 435.578 179.804 436.351 179.804 437.288C179.804 438.985 179.145 440.29 177.828 441.202C176.511 442.114 174.864 442.57 172.888 442.57Z" fill="black"/>
<path d="M107.854 -2.55508e-06C114.52 3.58925 129.697 13.5366 137.081 24.612L94.0096 46.9166C96.4708 40.1483 88.3693 21.5355 84.0109 13.0751L107.854 -2.55508e-06Z" fill="#EC1D16"/>
<path d="M151.165 18.4702L184.006 70.5398L110.17 113.611L81.7127 54.3882C81.7127 54.3882 100.867 34.3882 115.439 26.4292C130.011 18.4702 151.165 18.4702 151.165 18.4702Z" fill="#D41811"/>
</svg>
