<svg width="405" height="446" viewBox="0 0 405 446" fill="none" xmlns="http://www.w3.org/2000/svg">
<path d="M239.946 52.927C201.797 54.0562 64.0865 62.3363 0 66.3353C12.1108 79.7435 228.592 81.1549 262.654 82.5663C296.715 83.9777 392.845 75.5093 401.171 66.3353C409.498 57.1612 287.632 51.5157 239.946 52.927Z" fill="#283857"/>
<path d="M346.502 27.875C352.578 24.9248 364.698 25.8633 369.998 26.7014L383.446 37.964C389.49 43.0258 389.829 50.4553 389.243 53.5372C387.613 64.0817 374.565 78.7055 358.48 96.2603C343.745 112.342 321.915 136.91 311.937 138.494C304.777 141.203 287.929 128.747 286.231 127.624C286.588 127.253 284.307 126.264 278.641 121.519C270.937 115.067 273.098 106.577 277.382 99.6135C281.666 92.6504 323.771 47.273 326.985 43.9363C330.2 40.5997 338.907 31.5628 346.502 27.875Z" fill="white"/>
<path d="M334.27 17.6306C340.346 14.6804 352.466 15.6189 357.766 16.457L371.214 27.7196C377.258 32.7814 377.597 40.2109 377.011 43.2929C375.381 53.8373 362.333 68.4611 346.248 86.0159C331.513 102.098 309.683 126.665 299.705 128.25C292.545 130.958 275.697 118.503 273.999 117.38C274.356 117.009 272.075 116.02 266.409 111.274C258.705 104.822 260.866 96.3323 265.15 89.3691C269.434 82.406 311.539 37.0286 314.753 33.6919C317.968 30.3553 326.675 21.3184 334.27 17.6306Z" fill="#2D74A9"/>
<path d="M329.233 13.4126C335.309 10.4624 347.428 11.4009 352.729 12.239L366.177 23.5015C372.221 28.5634 372.56 35.9929 371.974 39.0748C370.344 49.6193 357.296 64.2431 341.211 81.7979C326.476 97.8795 304.646 122.447 294.668 124.032C287.508 126.74 270.66 114.285 268.962 113.162C269.319 112.791 267.038 111.802 261.372 107.056C253.668 100.604 255.829 92.1143 260.113 85.1511C264.397 78.188 306.501 32.8106 309.716 29.4739C312.931 26.1372 321.638 17.1004 329.233 13.4126Z" fill="#66A6D6"/>
<path d="M76.6227 74.6488C73.5029 68.9626 63.0408 63.1828 58.1998 61.0036L40.2402 62.9218C32.1684 63.7839 27.276 69.6568 25.8388 72.4855C20.6159 81.961 22.1661 100.928 24.3711 123.925C26.3911 144.991 28.922 176.807 36.0709 183.487C40.2247 189.561 61.6969 188.507 63.779 188.508C63.7182 188.013 66.1916 188.439 73.7593 187.631C84.0478 186.532 87.5609 178.444 88.395 170.455C89.2292 162.465 83.1006 102.737 82.553 98.2812C82.0055 93.8251 80.5226 81.7565 76.6227 74.6488Z" fill="white"/>
<path d="M92.9587 72.9039C89.8388 67.2177 79.3767 61.4379 74.5357 59.2587L56.5762 61.1769C48.5044 62.0391 43.612 67.912 42.1747 70.7406C36.9519 80.2161 38.5021 99.1831 40.7071 122.18C42.727 143.246 45.258 175.062 52.4068 181.742C56.5606 187.816 78.0328 186.762 80.1149 186.764C80.0541 186.268 82.5275 186.694 90.0952 185.886C100.384 184.787 103.897 176.699 104.731 168.71C105.565 160.72 99.4365 100.992 98.889 96.5363C98.3414 92.0802 96.8585 80.0117 92.9587 72.9039Z" fill="#2D74A9"/>
<path d="M99.6847 72.1857C96.5649 66.4995 86.1028 60.7196 81.2618 58.5405L63.3022 60.4587C55.2305 61.3208 50.338 67.1937 48.9008 70.0224C43.6779 79.4978 45.2281 98.4648 47.4331 121.461C49.4531 142.528 51.984 174.344 59.1329 181.024C63.2867 187.098 84.7589 186.044 86.841 186.045C86.7802 185.55 89.2536 185.976 96.8213 185.168C107.11 184.069 110.623 175.981 111.457 167.991C112.291 160.002 106.163 100.274 105.615 95.818C105.068 91.362 103.585 79.2934 99.6847 72.1857Z" fill="#66A6D6"/>
<path d="M162.471 94.3665C156.057 96.6091 148.707 105.642 145.834 109.878L145.834 126.731C145.834 134.306 151.535 139.506 154.386 141.159C163.889 147.076 184.277 147.798 209.034 148.373C231.713 148.9 265.905 150.177 273.837 144.315C280.783 141.159 282.103 121.151 282.342 119.222C281.807 119.222 282.542 116.98 282.542 109.878C282.542 100.223 274.323 96.0485 265.905 94.3665C257.486 92.6845 193.141 91.5632 188.33 91.5632C183.519 91.5632 170.49 91.5632 162.471 94.3665Z" fill="white"/>
<path d="M162.471 79.0369C156.057 81.2795 148.707 90.3123 145.834 94.5483L145.834 111.402C145.834 118.977 151.535 124.177 154.386 125.83C163.889 131.746 184.277 132.469 209.034 133.044C231.713 133.57 265.905 134.847 273.837 128.986C280.783 125.83 282.103 105.821 282.342 103.893C281.807 103.893 282.542 101.65 282.542 94.5483C282.542 84.8934 274.323 80.7189 265.905 79.0369C257.486 77.355 193.141 76.2336 188.33 76.2337C183.519 76.2337 170.49 76.2337 162.471 79.0369Z" fill="#2D74A9"/>
<path d="M162.471 72.7244C156.057 74.967 148.707 83.9998 145.834 88.2358L145.834 105.089C145.834 112.664 151.535 117.864 154.386 119.517C163.889 125.433 184.277 126.156 209.034 126.731C231.713 127.258 265.905 128.535 273.837 122.673C280.783 119.517 282.103 99.5085 282.342 97.58C281.807 97.58 282.542 95.3374 282.542 88.2358C282.542 78.5809 274.323 74.4064 265.905 72.7244C257.486 71.0425 193.141 69.9211 188.33 69.9212C183.519 69.9212 170.49 69.9212 162.471 72.7244Z" fill="#66A6D6"/>
<path d="M405 255.01V64.9238C405 64.9238 374.12 77.5002 229.349 77.5002C124.136 77.5002 0 64.9238 0 64.9238C2.97458 123.036 8.92373 245.016 8.92373 268.044V435.319C55.1441 439.664 159.254 447.811 205.932 445.638C252.61 443.466 350.771 437.854 394.017 435.319C393.331 430.613 392.369 413.704 394.017 383.725C396.076 346.251 405 291.397 405 255.01Z" fill="#49669F"/>
<path d="M111.271 224.73H131.753V230.658H130.879C130.828 229.771 130.689 228.986 130.461 228.302C130.233 227.618 129.802 227.086 129.169 226.706C128.536 226.301 127.573 226.098 126.281 226.098H123.127V246.2C123.127 247.061 123.216 247.695 123.393 248.1C123.596 248.505 123.95 248.771 124.457 248.898C124.989 249.025 125.749 249.101 126.737 249.126V250H117.237V249.126C117.921 249.101 118.453 249.025 118.833 248.898C119.238 248.771 119.517 248.505 119.669 248.1C119.821 247.695 119.897 247.061 119.897 246.2V226.098H116.705C115.438 226.098 114.488 226.301 113.855 226.706C113.222 227.086 112.791 227.618 112.563 228.302C112.335 228.986 112.196 229.771 112.145 230.658H111.271V224.73ZM136.313 250.57C135.122 250.57 134.147 250.266 133.387 249.658C132.652 249.025 132.285 248.125 132.285 246.96C132.285 246.023 132.576 245.161 133.159 244.376C133.741 243.591 134.704 242.869 136.047 242.21C137.389 241.551 139.213 240.943 141.519 240.386V237.916C141.519 236.877 141.291 236.016 140.835 235.332C140.404 234.648 139.568 234.306 138.327 234.306C137.136 234.306 136.186 234.686 135.477 235.446C134.793 236.181 134.311 237.333 134.033 238.904H133.159V234.154C134.045 233.723 134.983 233.381 135.971 233.128C136.984 232.849 138.099 232.71 139.315 232.71C140.708 232.71 141.772 232.9 142.507 233.28C143.267 233.635 143.799 234.141 144.103 234.8C144.407 235.459 144.559 236.231 144.559 237.118V246.314C144.559 247.657 144.977 248.328 145.813 248.328C146.117 248.328 146.459 248.227 146.839 248.024C147.244 247.821 147.713 247.403 148.245 246.77L148.853 247.378C147.687 249.379 146.294 250.38 144.673 250.38C143.001 250.38 141.975 249.531 141.595 247.834H141.519C140.125 249.658 138.39 250.57 136.313 250.57ZM137.719 248.328C138.935 248.328 140.201 247.771 141.519 246.656V241.564C139.695 242.02 138.352 242.527 137.491 243.084C136.629 243.616 136.059 244.161 135.781 244.718C135.527 245.25 135.401 245.744 135.401 246.2C135.401 246.935 135.629 247.479 136.085 247.834C136.541 248.163 137.085 248.328 137.719 248.328ZM161.372 232.634C162.563 232.634 163.665 232.951 164.678 233.584C165.717 234.192 166.54 235.091 167.148 236.282C167.782 237.447 168.098 238.891 168.098 240.614C168.098 242.235 167.807 243.667 167.224 244.908C166.667 246.124 165.907 247.15 164.944 247.986C164.007 248.822 162.956 249.455 161.79 249.886C160.65 250.291 159.498 250.494 158.332 250.494C157.496 250.494 156.749 250.431 156.09 250.304C155.432 250.177 154.849 250.013 154.342 249.81L152.29 250.38V225.034C152.29 224.325 152.176 223.869 151.948 223.666C151.746 223.463 151.467 223.362 151.112 223.362C150.783 223.362 150.428 223.413 150.048 223.514C149.694 223.615 149.364 223.742 149.06 223.894L148.68 223.02L155.254 219.98L155.482 220.208C155.457 220.411 155.419 220.955 155.368 221.842C155.343 222.729 155.33 223.78 155.33 224.996V236.092C155.989 235.155 156.812 234.344 157.8 233.66C158.814 232.976 160.004 232.634 161.372 232.634ZM159.32 248.784C160.967 248.784 162.322 248.239 163.386 247.15C164.45 246.035 164.982 244.287 164.982 241.906C164.982 239.727 164.539 238.017 163.652 236.776C162.766 235.535 161.613 234.914 160.194 234.914C159.333 234.914 158.484 235.142 157.648 235.598C156.812 236.054 156.04 236.611 155.33 237.27V247.226C155.938 247.859 156.61 248.277 157.344 248.48C158.104 248.683 158.763 248.784 159.32 248.784ZM176.784 246.162C176.784 247.049 176.873 247.695 177.05 248.1C177.227 248.505 177.544 248.771 178 248.898C178.481 249.025 179.153 249.101 180.014 249.126V250H171.464V249.126C172.021 249.101 172.465 249.025 172.794 248.898C173.123 248.771 173.364 248.505 173.516 248.1C173.668 247.695 173.744 247.049 173.744 246.162V225.034C173.744 224.325 173.63 223.869 173.402 223.666C173.199 223.463 172.921 223.362 172.566 223.362C172.237 223.362 171.882 223.413 171.502 223.514C171.147 223.615 170.818 223.742 170.514 223.894L170.134 223.02L176.708 219.98L176.936 220.208C176.911 220.411 176.873 220.955 176.822 221.842C176.797 222.729 176.784 223.78 176.784 224.996V246.162ZM190.165 250.57C188.873 250.57 187.632 250.266 186.441 249.658C185.276 249.05 184.313 248.138 183.553 246.922C182.818 245.681 182.451 244.11 182.451 242.21C182.451 240.285 182.831 238.613 183.591 237.194C184.351 235.775 185.364 234.673 186.631 233.888C187.898 233.103 189.278 232.71 190.773 232.71C191.862 232.71 192.863 232.925 193.775 233.356C194.712 233.787 195.46 234.445 196.017 235.332C196.6 236.219 196.891 237.346 196.891 238.714L185.491 240.196C185.491 240.323 185.491 240.462 185.491 240.614C185.491 242.945 186.023 244.769 187.087 246.086C188.151 247.403 189.57 248.062 191.343 248.062C192.356 248.062 193.294 247.859 194.155 247.454C195.016 247.023 195.789 246.491 196.473 245.858L197.081 246.466C196.372 247.682 195.422 248.67 194.231 249.43C193.066 250.19 191.71 250.57 190.165 250.57ZM189.975 234.116C188.658 234.116 187.644 234.585 186.935 235.522C186.226 236.459 185.782 237.612 185.605 238.98L193.471 237.954C193.319 236.865 192.99 235.953 192.483 235.218C191.976 234.483 191.14 234.116 189.975 234.116ZM210.492 246.694L211.1 247.302C210.492 248.214 209.795 248.987 209.01 249.62C208.225 250.253 207.199 250.57 205.932 250.57C204.919 250.57 204.108 250.367 203.5 249.962C202.917 249.557 202.499 249.025 202.246 248.366C201.993 247.682 201.866 246.947 201.866 246.162V234.838H199.244V233.28H201.866V228.074L205.096 227.504C205.02 228.467 204.969 229.429 204.944 230.392C204.919 231.355 204.906 232.317 204.906 233.28H210.53V234.838H206.084C205.653 234.838 205.349 234.927 205.172 235.104C204.995 235.281 204.906 235.585 204.906 236.016V245.364C204.906 246.175 205.045 246.871 205.324 247.454C205.628 248.037 206.236 248.328 207.148 248.328C207.68 248.328 208.225 248.201 208.782 247.948C209.339 247.669 209.909 247.251 210.492 246.694ZM224.297 246.694L224.905 247.302C224.297 248.214 223.6 248.987 222.815 249.62C222.029 250.253 221.003 250.57 219.737 250.57C218.723 250.57 217.913 250.367 217.305 249.962C216.722 249.557 216.304 249.025 216.051 248.366C215.797 247.682 215.671 246.947 215.671 246.162V234.838H213.049V233.28H215.671V228.074L218.901 227.504C218.825 228.467 218.774 229.429 218.749 230.392C218.723 231.355 218.711 232.317 218.711 233.28H224.335V234.838H219.889C219.458 234.838 219.154 234.927 218.977 235.104C218.799 235.281 218.711 235.585 218.711 236.016V245.364C218.711 246.175 218.85 246.871 219.129 247.454C219.433 248.037 220.041 248.328 220.953 248.328C221.485 248.328 222.029 248.201 222.587 247.948C223.144 247.669 223.714 247.251 224.297 246.694ZM235.327 250.57C234.035 250.57 232.794 250.266 231.603 249.658C230.438 249.05 229.475 248.138 228.715 246.922C227.981 245.681 227.613 244.11 227.613 242.21C227.613 240.285 227.993 238.613 228.753 237.194C229.513 235.775 230.527 234.673 231.793 233.888C233.06 233.103 234.441 232.71 235.935 232.71C237.025 232.71 238.025 232.925 238.937 233.356C239.875 233.787 240.622 234.445 241.179 235.332C241.762 236.219 242.053 237.346 242.053 238.714L230.653 240.196C230.653 240.323 230.653 240.462 230.653 240.614C230.653 242.945 231.185 244.769 232.249 246.086C233.313 247.403 234.732 248.062 236.505 248.062C237.519 248.062 238.456 247.859 239.317 247.454C240.179 247.023 240.951 246.491 241.635 245.858L242.243 246.466C241.534 247.682 240.584 248.67 239.393 249.43C238.228 250.19 236.873 250.57 235.327 250.57ZM235.137 234.116C233.82 234.116 232.807 234.585 232.097 235.522C231.388 236.459 230.945 237.612 230.767 238.98L238.633 237.954C238.481 236.865 238.152 235.953 237.645 235.218C237.139 234.483 236.303 234.116 235.137 234.116ZM250.676 250.57C248.877 250.57 247.497 250.228 246.534 249.544C245.571 248.86 245.09 247.986 245.09 246.922C245.09 246.542 245.166 246.124 245.318 245.668C245.47 245.187 245.736 244.718 246.116 244.262H246.99C247.015 245.883 247.357 247.125 248.016 247.986C248.675 248.847 249.713 249.278 251.132 249.278C252.399 249.278 253.336 248.974 253.944 248.366C254.552 247.758 254.856 247.061 254.856 246.276C254.856 245.567 254.628 244.984 254.172 244.528C253.741 244.072 253.171 243.679 252.462 243.35C251.778 242.995 251.043 242.666 250.258 242.362C249.473 242.033 248.725 241.678 248.016 241.298C247.332 240.893 246.762 240.399 246.306 239.816C245.875 239.233 245.66 238.499 245.66 237.612C245.66 236.219 246.217 235.053 247.332 234.116C248.447 233.179 250.005 232.71 252.006 232.71C252.791 232.71 253.589 232.786 254.4 232.938C255.211 233.065 255.971 233.331 256.68 233.736V238.106H255.806C255.629 236.611 255.147 235.56 254.362 234.952C253.577 234.319 252.652 234.002 251.588 234.002C250.549 234.002 249.764 234.23 249.232 234.686C248.7 235.142 248.434 235.737 248.434 236.472C248.434 237.156 248.649 237.726 249.08 238.182C249.536 238.613 250.106 238.993 250.79 239.322C251.499 239.651 252.234 239.981 252.994 240.31C253.779 240.614 254.514 240.981 255.198 241.412C255.907 241.817 256.477 242.337 256.908 242.97C257.364 243.578 257.592 244.351 257.592 245.288C257.592 246.985 256.933 248.29 255.616 249.202C254.299 250.114 252.652 250.57 250.676 250.57ZM290.653 247.074L291.033 247.948L284.839 250.798L284.611 250.57C284.662 250.342 284.712 249.899 284.763 249.24C284.839 248.556 284.877 247.834 284.877 247.074H284.839C284.18 248.011 283.344 248.835 282.331 249.544C281.343 250.228 280.152 250.57 278.759 250.57C277.568 250.57 276.454 250.266 275.415 249.658C274.402 249.025 273.578 248.113 272.945 246.922C272.337 245.731 272.033 244.287 272.033 242.59C272.033 240.969 272.312 239.55 272.869 238.334C273.452 237.093 274.212 236.054 275.149 235.218C276.112 234.382 277.163 233.761 278.303 233.356C279.468 232.925 280.634 232.71 281.799 232.71C282.964 232.71 283.965 232.824 284.801 233.052V225.034C284.801 224.325 284.687 223.869 284.459 223.666C284.256 223.463 283.978 223.362 283.623 223.362C283.294 223.362 282.939 223.413 282.559 223.514C282.204 223.615 281.875 223.742 281.571 223.894L281.191 223.02L287.765 219.98L287.993 220.208C287.968 220.411 287.93 220.955 287.879 221.842C287.854 222.729 287.841 223.78 287.841 224.996V245.744C287.841 246.453 287.942 246.909 288.145 247.112C288.373 247.315 288.664 247.416 289.019 247.416C289.551 247.416 290.096 247.302 290.653 247.074ZM279.937 248.29C280.824 248.29 281.672 248.062 282.483 247.606C283.319 247.15 284.092 246.593 284.801 245.934V235.978C284.193 235.319 283.509 234.901 282.749 234.724C282.014 234.521 281.368 234.42 280.811 234.42C279.19 234.42 277.834 234.977 276.745 236.092C275.681 237.181 275.149 238.917 275.149 241.298C275.149 243.477 275.592 245.187 276.479 246.428C277.366 247.669 278.518 248.29 279.937 248.29ZM301.196 250.57C299.904 250.57 298.663 250.266 297.472 249.658C296.307 249.05 295.344 248.138 294.584 246.922C293.85 245.681 293.482 244.11 293.482 242.21C293.482 240.285 293.862 238.613 294.622 237.194C295.382 235.775 296.396 234.673 297.662 233.888C298.929 233.103 300.31 232.71 301.804 232.71C302.894 232.71 303.894 232.925 304.806 233.356C305.744 233.787 306.491 234.445 307.048 235.332C307.631 236.219 307.922 237.346 307.922 238.714L296.522 240.196C296.522 240.323 296.522 240.462 296.522 240.614C296.522 242.945 297.054 244.769 298.118 246.086C299.182 247.403 300.601 248.062 302.374 248.062C303.388 248.062 304.325 247.859 305.186 247.454C306.048 247.023 306.82 246.491 307.504 245.858L308.112 246.466C307.403 247.682 306.453 248.67 305.262 249.43C304.097 250.19 302.742 250.57 301.196 250.57ZM301.006 234.116C299.689 234.116 298.676 234.585 297.966 235.522C297.257 236.459 296.814 237.612 296.636 238.98L304.502 237.954C304.35 236.865 304.021 235.953 303.514 235.218C303.008 234.483 302.172 234.116 301.006 234.116ZM111.082 292.162C111.082 293.049 111.171 293.695 111.348 294.1C111.525 294.505 111.842 294.771 112.298 294.898C112.779 295.025 113.451 295.101 114.312 295.126V296H105.762V295.126C106.319 295.101 106.763 295.025 107.092 294.898C107.421 294.771 107.662 294.505 107.814 294.1C107.966 293.695 108.042 293.049 108.042 292.162V271.034C108.042 270.325 107.928 269.869 107.7 269.666C107.497 269.463 107.219 269.362 106.864 269.362C106.535 269.362 106.18 269.413 105.8 269.514C105.445 269.615 105.116 269.742 104.812 269.894L104.432 269.02L111.006 265.98L111.234 266.208C111.209 266.411 111.171 266.955 111.12 267.842C111.095 268.729 111.082 269.78 111.082 270.996V292.162ZM121.005 296.57C119.814 296.57 118.839 296.266 118.079 295.658C117.344 295.025 116.977 294.125 116.977 292.96C116.977 292.023 117.268 291.161 117.851 290.376C118.434 289.591 119.396 288.869 120.739 288.21C122.082 287.551 123.906 286.943 126.211 286.386V283.916C126.211 282.877 125.983 282.016 125.527 281.332C125.096 280.648 124.26 280.306 123.019 280.306C121.828 280.306 120.878 280.686 120.169 281.446C119.485 282.181 119.004 283.333 118.725 284.904H117.851V280.154C118.738 279.723 119.675 279.381 120.663 279.128C121.676 278.849 122.791 278.71 124.007 278.71C125.4 278.71 126.464 278.9 127.199 279.28C127.959 279.635 128.491 280.141 128.795 280.8C129.099 281.459 129.251 282.231 129.251 283.118V292.314C129.251 293.657 129.669 294.328 130.505 294.328C130.809 294.328 131.151 294.227 131.531 294.024C131.936 293.821 132.405 293.403 132.937 292.77L133.545 293.378C132.38 295.379 130.986 296.38 129.365 296.38C127.693 296.38 126.667 295.531 126.287 293.834H126.211C124.818 295.658 123.082 296.57 121.005 296.57ZM122.411 294.328C123.627 294.328 124.894 293.771 126.211 292.656V287.564C124.387 288.02 123.044 288.527 122.183 289.084C121.322 289.616 120.752 290.161 120.473 290.718C120.22 291.25 120.093 291.744 120.093 292.2C120.093 292.935 120.321 293.479 120.777 293.834C121.233 294.163 121.778 294.328 122.411 294.328ZM141.353 296.38C141.175 295.721 140.998 295.151 140.821 294.67C140.669 294.189 140.453 293.631 140.175 292.998L135.919 283.004C135.564 282.143 135.235 281.522 134.931 281.142C134.652 280.762 134.348 280.509 134.019 280.382C133.715 280.255 133.335 280.179 132.879 280.154V279.28H140.897V280.154C140.035 280.179 139.427 280.268 139.073 280.42C138.718 280.547 138.566 280.813 138.617 281.218C138.667 281.598 138.857 282.193 139.187 283.004L142.873 291.744H142.949L146.559 283.004C147.065 281.813 147.154 281.053 146.825 280.724C146.521 280.395 145.697 280.205 144.355 280.154V279.28H151.081V280.154C150.701 280.179 150.359 280.268 150.055 280.42C149.751 280.547 149.459 280.813 149.181 281.218C148.927 281.598 148.623 282.193 148.269 283.004L144.051 292.998C143.772 293.682 143.569 294.252 143.443 294.708C143.316 295.164 143.177 295.721 143.025 296.38H141.353ZM160.348 296.57C159.056 296.57 157.814 296.266 156.624 295.658C155.458 295.05 154.496 294.138 153.736 292.922C153.001 291.681 152.634 290.11 152.634 288.21C152.634 286.285 153.014 284.613 153.774 283.194C154.534 281.775 155.547 280.673 156.814 279.888C158.08 279.103 159.461 278.71 160.956 278.71C162.045 278.71 163.046 278.925 163.958 279.356C164.895 279.787 165.642 280.445 166.2 281.332C166.782 282.219 167.074 283.346 167.074 284.714L155.674 286.196C155.674 286.323 155.674 286.462 155.674 286.614C155.674 288.945 156.206 290.769 157.27 292.086C158.334 293.403 159.752 294.062 161.526 294.062C162.539 294.062 163.476 293.859 164.338 293.454C165.199 293.023 165.972 292.491 166.656 291.858L167.264 292.466C166.554 293.682 165.604 294.67 164.414 295.43C163.248 296.19 161.893 296.57 160.348 296.57ZM160.158 280.116C158.84 280.116 157.827 280.585 157.118 281.522C156.408 282.459 155.965 283.612 155.788 284.98L163.654 283.954C163.502 282.865 163.172 281.953 162.666 281.218C162.159 280.483 161.323 280.116 160.158 280.116ZM179.23 287.374L169.464 288.248L169.35 286.12L179.078 285.284L179.23 287.374ZM187.851 296.38C187.674 295.721 187.496 295.151 187.319 294.67C187.167 294.189 186.952 293.631 186.673 292.998L182.417 283.004C182.062 282.143 181.733 281.522 181.429 281.142C181.15 280.762 180.846 280.509 180.517 280.382C180.213 280.255 179.833 280.179 179.377 280.154V279.28H187.395V280.154C186.534 280.179 185.926 280.268 185.571 280.42C185.216 280.547 185.064 280.813 185.115 281.218C185.166 281.598 185.356 282.193 185.685 283.004L189.371 291.744H189.447L193.057 283.004C193.564 281.813 193.652 281.053 193.323 280.724C193.019 280.395 192.196 280.205 190.853 280.154V279.28H197.579V280.154C197.199 280.179 196.857 280.268 196.553 280.42C196.249 280.547 195.958 280.813 195.679 281.218C195.426 281.598 195.122 282.193 194.767 283.004L190.549 292.998C190.27 293.682 190.068 294.252 189.941 294.708C189.814 295.164 189.675 295.721 189.523 296.38H187.851ZM203.388 296.57C202.197 296.57 201.222 296.266 200.462 295.658C199.727 295.025 199.36 294.125 199.36 292.96C199.36 292.023 199.651 291.161 200.234 290.376C200.816 289.591 201.779 288.869 203.122 288.21C204.464 287.551 206.288 286.943 208.594 286.386V283.916C208.594 282.877 208.366 282.016 207.91 281.332C207.479 280.648 206.643 280.306 205.402 280.306C204.211 280.306 203.261 280.686 202.552 281.446C201.868 282.181 201.386 283.333 201.108 284.904H200.234V280.154C201.12 279.723 202.058 279.381 203.046 279.128C204.059 278.849 205.174 278.71 206.39 278.71C207.783 278.71 208.847 278.9 209.582 279.28C210.342 279.635 210.874 280.141 211.178 280.8C211.482 281.459 211.634 282.231 211.634 283.118V292.314C211.634 293.657 212.052 294.328 212.888 294.328C213.192 294.328 213.534 294.227 213.914 294.024C214.319 293.821 214.788 293.403 215.32 292.77L215.928 293.378C214.762 295.379 213.369 296.38 211.748 296.38C210.076 296.38 209.05 295.531 208.67 293.834H208.594C207.2 295.658 205.465 296.57 203.388 296.57ZM204.794 294.328C206.01 294.328 207.276 293.771 208.594 292.656V287.564C206.77 288.02 205.427 288.527 204.566 289.084C203.704 289.616 203.134 290.161 202.856 290.718C202.602 291.25 202.476 291.744 202.476 292.2C202.476 292.935 202.704 293.479 203.16 293.834C203.616 294.163 204.16 294.328 204.794 294.328ZM222.862 292.162C222.862 293.049 222.95 293.695 223.128 294.1C223.305 294.505 223.622 294.771 224.078 294.898C224.559 295.025 225.23 295.101 226.092 295.126V296H217.542V295.126C218.099 295.101 218.542 295.025 218.872 294.898C219.201 294.771 219.442 294.505 219.594 294.1C219.746 293.695 219.822 293.049 219.822 292.162V283.574C219.822 282.865 219.708 282.409 219.48 282.206C219.277 281.978 218.998 281.864 218.644 281.864C218.314 281.864 217.96 281.927 217.58 282.054C217.225 282.155 216.896 282.269 216.592 282.396L216.212 281.522L222.786 278.52L223.014 278.748C222.988 278.951 222.95 279.495 222.9 280.382C222.874 281.269 222.862 282.32 222.862 283.536V292.162ZM221.342 274.948C220.784 274.948 220.316 274.758 219.936 274.378C219.556 273.998 219.366 273.529 219.366 272.972C219.366 272.44 219.556 271.984 219.936 271.604C220.316 271.224 220.784 271.034 221.342 271.034C221.899 271.034 222.368 271.224 222.748 271.604C223.128 271.984 223.318 272.44 223.318 272.972C223.318 273.529 223.128 273.998 222.748 274.378C222.368 274.758 221.899 274.948 221.342 274.948ZM234.032 296.57C232.234 296.57 230.853 296.228 229.89 295.544C228.928 294.86 228.446 293.986 228.446 292.922C228.446 292.542 228.522 292.124 228.674 291.668C228.826 291.187 229.092 290.718 229.472 290.262H230.346C230.372 291.883 230.714 293.125 231.372 293.986C232.031 294.847 233.07 295.278 234.488 295.278C235.755 295.278 236.692 294.974 237.3 294.366C237.908 293.758 238.212 293.061 238.212 292.276C238.212 291.567 237.984 290.984 237.528 290.528C237.098 290.072 236.528 289.679 235.818 289.35C235.134 288.995 234.4 288.666 233.614 288.362C232.829 288.033 232.082 287.678 231.372 287.298C230.688 286.893 230.118 286.399 229.662 285.816C229.232 285.233 229.016 284.499 229.016 283.612C229.016 282.219 229.574 281.053 230.688 280.116C231.803 279.179 233.361 278.71 235.362 278.71C236.148 278.71 236.946 278.786 237.756 278.938C238.567 279.065 239.327 279.331 240.036 279.736V284.106H239.162C238.985 282.611 238.504 281.56 237.718 280.952C236.933 280.319 236.008 280.002 234.944 280.002C233.906 280.002 233.12 280.23 232.588 280.686C232.056 281.142 231.79 281.737 231.79 282.472C231.79 283.156 232.006 283.726 232.436 284.182C232.892 284.613 233.462 284.993 234.146 285.322C234.856 285.651 235.59 285.981 236.35 286.31C237.136 286.614 237.87 286.981 238.554 287.412C239.264 287.817 239.834 288.337 240.264 288.97C240.72 289.578 240.948 290.351 240.948 291.288C240.948 292.985 240.29 294.29 238.972 295.202C237.655 296.114 236.008 296.57 234.032 296.57ZM249.655 296.57C247.857 296.57 246.476 296.228 245.513 295.544C244.551 294.86 244.069 293.986 244.069 292.922C244.069 292.542 244.145 292.124 244.297 291.668C244.449 291.187 244.715 290.718 245.095 290.262H245.969C245.995 291.883 246.337 293.125 246.995 293.986C247.654 294.847 248.693 295.278 250.111 295.278C251.378 295.278 252.315 294.974 252.923 294.366C253.531 293.758 253.835 293.061 253.835 292.276C253.835 291.567 253.607 290.984 253.151 290.528C252.721 290.072 252.151 289.679 251.441 289.35C250.757 288.995 250.023 288.666 249.237 288.362C248.452 288.033 247.705 287.678 246.995 287.298C246.311 286.893 245.741 286.399 245.285 285.816C244.855 285.233 244.639 284.499 244.639 283.612C244.639 282.219 245.197 281.053 246.311 280.116C247.426 279.179 248.984 278.71 250.985 278.71C251.771 278.71 252.569 278.786 253.379 278.938C254.19 279.065 254.95 279.331 255.659 279.736V284.106H254.785C254.608 282.611 254.127 281.56 253.341 280.952C252.556 280.319 251.631 280.002 250.567 280.002C249.529 280.002 248.743 280.23 248.211 280.686C247.679 281.142 247.413 281.737 247.413 282.472C247.413 283.156 247.629 283.726 248.059 284.182C248.515 284.613 249.085 284.993 249.769 285.322C250.479 285.651 251.213 285.981 251.973 286.31C252.759 286.614 253.493 286.981 254.177 287.412C254.887 287.817 255.457 288.337 255.887 288.97C256.343 289.578 256.571 290.351 256.571 291.288C256.571 292.985 255.913 294.29 254.595 295.202C253.278 296.114 251.631 296.57 249.655 296.57ZM267.483 296.57C266.191 296.57 264.949 296.266 263.759 295.658C262.593 295.05 261.631 294.138 260.871 292.922C260.136 291.681 259.769 290.11 259.769 288.21C259.769 286.285 260.149 284.613 260.909 283.194C261.669 281.775 262.682 280.673 263.949 279.888C265.215 279.103 266.596 278.71 268.091 278.71C269.18 278.71 270.181 278.925 271.093 279.356C272.03 279.787 272.777 280.445 273.335 281.332C273.917 282.219 274.209 283.346 274.209 284.714L262.809 286.196C262.809 286.323 262.809 286.462 262.809 286.614C262.809 288.945 263.341 290.769 264.405 292.086C265.469 293.403 266.887 294.062 268.661 294.062C269.674 294.062 270.611 293.859 271.473 293.454C272.334 293.023 273.107 292.491 273.791 291.858L274.399 292.466C273.689 293.682 272.739 294.67 271.549 295.43C270.383 296.19 269.028 296.57 267.483 296.57ZM267.293 280.116C265.975 280.116 264.962 280.585 264.253 281.522C263.543 282.459 263.1 283.612 262.923 284.98L270.789 283.954C270.637 282.865 270.307 281.953 269.801 281.218C269.294 280.483 268.458 280.116 267.293 280.116ZM282.527 292.162C282.527 293.049 282.616 293.695 282.793 294.1C282.971 294.505 283.287 294.771 283.743 294.898C284.225 295.025 284.896 295.101 285.757 295.126V296H277.207V295.126C277.765 295.101 278.208 295.025 278.537 294.898C278.867 294.771 279.107 294.505 279.259 294.1C279.411 293.695 279.487 293.049 279.487 292.162V271.034C279.487 270.325 279.373 269.869 279.145 269.666C278.943 269.463 278.664 269.362 278.309 269.362C277.98 269.362 277.625 269.413 277.245 269.514C276.891 269.615 276.561 269.742 276.257 269.894L275.877 269.02L282.451 265.98L282.679 266.208C282.654 266.411 282.616 266.955 282.565 267.842C282.54 268.729 282.527 269.78 282.527 270.996V292.162ZM293.4 292.162C293.4 293.049 293.489 293.695 293.666 294.1C293.844 294.505 294.16 294.771 294.616 294.898C295.098 295.025 295.769 295.101 296.63 295.126V296H288.08V295.126C288.638 295.101 289.081 295.025 289.41 294.898C289.74 294.771 289.98 294.505 290.132 294.1C290.284 293.695 290.36 293.049 290.36 292.162V271.034C290.36 270.325 290.246 269.869 290.018 269.666C289.816 269.463 289.537 269.362 289.182 269.362C288.853 269.362 288.498 269.413 288.118 269.514C287.764 269.615 287.434 269.742 287.13 269.894L286.75 269.02L293.324 265.98L293.552 266.208C293.527 266.411 293.489 266.955 293.438 267.842C293.413 268.729 293.4 269.78 293.4 270.996V292.162ZM306.781 296.57C305.489 296.57 304.248 296.266 303.057 295.658C301.892 295.05 300.929 294.138 300.169 292.922C299.435 291.681 299.067 290.11 299.067 288.21C299.067 286.285 299.447 284.613 300.207 283.194C300.967 281.775 301.981 280.673 303.247 279.888C304.514 279.103 305.895 278.71 307.389 278.71C308.479 278.71 309.479 278.925 310.391 279.356C311.329 279.787 312.076 280.445 312.633 281.332C313.216 282.219 313.507 283.346 313.507 284.714L302.107 286.196C302.107 286.323 302.107 286.462 302.107 286.614C302.107 288.945 302.639 290.769 303.703 292.086C304.767 293.403 306.186 294.062 307.959 294.062C308.973 294.062 309.91 293.859 310.771 293.454C311.633 293.023 312.405 292.491 313.089 291.858L313.697 292.466C312.988 293.682 312.038 294.67 310.847 295.43C309.682 296.19 308.327 296.57 306.781 296.57ZM306.591 280.116C305.274 280.116 304.261 280.585 303.551 281.522C302.842 282.459 302.399 283.612 302.221 284.98L310.087 283.954C309.935 282.865 309.606 281.953 309.099 281.218C308.593 280.483 307.757 280.116 306.591 280.116Z" fill="black"/>
</svg>
