<svg width="224" height="682" viewBox="0 0 224 682" fill="none" xmlns="http://www.w3.org/2000/svg">
<path d="M0 502.579C0 436.686 40.4855 261.062 60.7283 181.487H137.511C145.887 227.092 163.757 323.745 168.224 345.523C173.808 372.746 203.126 387.405 215.69 418.816C228.254 450.227 223.368 626.828 215.69 649.165C208.012 671.501 150.076 681.972 117.268 681.972C84.4611 681.972 38.3914 670.803 23.7329 667.313C9.07434 663.823 0 584.946 0 502.579Z" fill="#EFD6AC"/>
<path d="M59.8604 88.0681V181.487H137.236C135.487 146.164 133.039 72.5913 137.236 60.8791C141.432 49.1669 172.207 40.1969 187.07 37.1759V0.923844C182.48 0.226689 157.825 -0.749326 95.9251 0.923844C34.025 2.59701 15.49 59.7172 13.96 88.0681H59.8604Z" fill="#BE1B1E"/>
<path d="M215.69 1.87451H186.373V36.0778H215.69V1.87451Z" fill="#9C1619"/>
<path d="M168.922 76.085C168.922 67.7087 176.6 43.7431 180.788 38.3916L163.338 42.5798L147.283 50.258C148.447 69.1047 158.172 98.2822 165.432 108.892C179.392 129.296 197.541 147.982 218.482 142.397C201.729 138.874 168.922 92.8376 168.922 76.085Z" fill="#9C1619"/>
<path d="M147.285 85.8567C143.376 83.623 137.28 84.926 134.72 85.8567C134.72 78.8764 135.279 63.799 137.512 59.3317C139.746 54.8643 144.958 51.4207 147.285 50.2573L157.535 92.1389C156.139 90.9755 151.194 88.0904 147.285 85.8567Z" fill="#861315"/>
<path d="M52.6594 450V449.126C53.3434 449.101 53.8754 449.025 54.2554 448.898C54.6607 448.771 54.9394 448.505 55.0914 448.1C55.2434 447.695 55.3194 447.061 55.3194 446.2V428.53C55.3194 427.643 55.218 427.01 55.0154 426.63C54.838 426.225 54.496 425.959 53.9894 425.832C53.4827 425.705 52.7227 425.629 51.7094 425.604V424.73H55.3194C57.042 424.73 58.4354 424.705 59.4994 424.654C60.5887 424.578 61.4627 424.54 62.1214 424.54C64.756 424.54 66.8714 425.059 68.4674 426.098C70.0634 427.111 70.8614 428.568 70.8614 430.468C70.8614 431.38 70.646 432.279 70.2154 433.166C69.81 434.053 69.1514 434.851 68.2394 435.56C67.3274 436.244 66.1367 436.763 64.6674 437.118C63.198 437.447 61.412 437.511 59.3094 437.308V436.168C61.336 436.345 62.9194 436.193 64.0594 435.712C65.2247 435.205 66.048 434.509 66.5294 433.622C67.0107 432.71 67.2514 431.735 67.2514 430.696C67.2514 429.404 66.96 428.416 66.3774 427.732C65.82 427.023 65.0727 426.541 64.1354 426.288C63.2234 426.035 62.2354 425.908 61.1714 425.908C60.31 425.908 59.6514 426.06 59.1954 426.364C58.7647 426.668 58.5494 427.39 58.5494 428.53V446.2C58.5494 447.061 58.638 447.695 58.8154 448.1C59.018 448.505 59.398 448.771 59.9554 448.898C60.538 449.025 61.3867 449.101 62.5014 449.126V450H52.6594ZM72.9059 450V449.126C73.4886 449.101 73.9446 449.025 74.2739 448.898C74.6033 448.771 74.8313 448.505 74.9579 448.1C75.1099 447.695 75.1859 447.049 75.1859 446.162V437.46C75.1859 436.801 75.0846 436.371 74.8819 436.168C74.6793 435.965 74.4006 435.864 74.0459 435.864C73.7673 435.864 73.4886 435.902 73.2099 435.978C72.9566 436.029 72.6906 436.117 72.4119 436.244L72.0319 435.37L78.1499 432.52L78.3779 432.748C78.3273 432.976 78.2639 433.47 78.1879 434.23C78.1373 434.965 78.1119 435.775 78.1119 436.662H78.1879C79.2266 435.117 80.3666 434.078 81.6079 433.546C82.8746 433.014 84.1919 432.799 85.5599 432.9C85.7626 434.775 85.7626 436.649 85.5599 438.524H84.6859C84.5846 437.485 84.3439 436.763 83.9639 436.358C83.6093 435.927 83.1026 435.712 82.4439 435.712C81.6079 435.712 80.8606 435.889 80.2019 436.244C79.5433 436.599 78.8846 437.181 78.2259 437.992V446.162C78.2259 447.049 78.3146 447.695 78.4919 448.1C78.6693 448.505 79.0113 448.771 79.5179 448.898C80.0499 449.025 80.8226 449.101 81.8359 449.126V450H72.9059ZM96.2997 432.71C97.769 432.71 99.1117 433.077 100.328 433.812C101.569 434.521 102.57 435.522 103.33 436.814C104.09 438.106 104.47 439.613 104.47 441.336C104.47 442.856 104.204 444.199 103.672 445.364C103.165 446.504 102.481 447.467 101.62 448.252C100.758 449.012 99.8084 449.595 98.7697 450C97.7564 450.38 96.7557 450.57 95.7677 450.57C94.3237 450.57 92.981 450.215 91.7397 449.506C90.4984 448.771 89.4977 447.758 88.7377 446.466C88.003 445.174 87.6357 443.667 87.6357 441.944C87.6357 440.424 87.889 439.094 88.3957 437.954C88.9277 436.789 89.6244 435.826 90.4857 435.066C91.347 434.281 92.2844 433.698 93.2977 433.318C94.311 432.913 95.3117 432.71 96.2997 432.71ZM96.4137 449.05C97.9084 449.05 99.0864 448.518 99.9477 447.454C100.809 446.365 101.24 444.693 101.24 442.438C101.24 440.893 100.999 439.499 100.518 438.258C100.062 437.017 99.4157 436.041 98.5797 435.332C97.7437 434.597 96.7684 434.23 95.6537 434.23C94.1844 434.23 93.019 434.775 92.1577 435.864C91.2964 436.928 90.8657 438.587 90.8657 440.842C90.8657 442.362 91.0937 443.743 91.5497 444.984C92.031 446.225 92.6897 447.213 93.5257 447.948C94.3617 448.683 95.3244 449.05 96.4137 449.05ZM126.592 447.074L126.972 447.948L120.778 450.798L120.55 450.57C120.6 450.342 120.651 449.899 120.702 449.24C120.778 448.556 120.816 447.834 120.816 447.074H120.778C120.119 448.011 119.283 448.835 118.27 449.544C117.282 450.228 116.091 450.57 114.698 450.57C113.507 450.57 112.392 450.266 111.354 449.658C110.34 449.025 109.517 448.113 108.884 446.922C108.276 445.731 107.972 444.287 107.972 442.59C107.972 440.969 108.25 439.55 108.808 438.334C109.39 437.093 110.15 436.054 111.088 435.218C112.05 434.382 113.102 433.761 114.242 433.356C115.407 432.925 116.572 432.71 117.738 432.71C118.903 432.71 119.904 432.824 120.74 433.052V425.034C120.74 424.325 120.626 423.869 120.398 423.666C120.195 423.463 119.916 423.362 119.562 423.362C119.232 423.362 118.878 423.413 118.498 423.514C118.143 423.615 117.814 423.742 117.51 423.894L117.13 423.02L123.704 419.98L123.932 420.208C123.906 420.411 123.868 420.955 123.818 421.842C123.792 422.729 123.78 423.78 123.78 424.996V445.744C123.78 446.453 123.881 446.909 124.084 447.112C124.312 447.315 124.603 447.416 124.958 447.416C125.49 447.416 126.034 447.302 126.592 447.074ZM115.876 448.29C116.762 448.29 117.611 448.062 118.422 447.606C119.258 447.15 120.03 446.593 120.74 445.934V435.978C120.132 435.319 119.448 434.901 118.688 434.724C117.953 434.521 117.307 434.42 116.75 434.42C115.128 434.42 113.773 434.977 112.684 436.092C111.62 437.181 111.088 438.917 111.088 441.298C111.088 443.477 111.531 445.187 112.418 446.428C113.304 447.669 114.457 448.29 115.876 448.29ZM148.269 447.074L148.649 447.948L142.493 450.798L142.265 450.57C142.316 450.342 142.366 449.899 142.417 449.24C142.493 448.556 142.531 447.834 142.531 447.074H142.455C141.467 448.087 140.441 448.923 139.377 449.582C138.338 450.241 137.16 450.57 135.843 450.57C134.247 450.57 133.132 450.165 132.499 449.354C131.891 448.543 131.587 447.492 131.587 446.2V437.46C131.587 436.801 131.473 436.371 131.245 436.168C131.042 435.965 130.764 435.864 130.409 435.864C129.902 435.864 129.358 435.991 128.775 436.244L128.395 435.37L134.551 432.52L134.779 432.748C134.754 432.951 134.716 433.495 134.665 434.382C134.64 435.243 134.627 436.257 134.627 437.422V445.25C134.627 446.137 134.804 446.833 135.159 447.34C135.539 447.847 136.21 448.1 137.173 448.1C137.984 448.1 138.82 447.935 139.681 447.606C140.568 447.251 141.48 446.694 142.417 445.934V437.46C142.417 436.801 142.316 436.371 142.113 436.168C141.91 435.965 141.619 435.864 141.239 435.864C140.91 435.864 140.568 435.927 140.213 436.054C139.858 436.155 139.542 436.269 139.263 436.396L138.883 435.522L145.381 432.52L145.609 432.748C145.584 432.951 145.546 433.495 145.495 434.382C145.47 435.243 145.457 436.257 145.457 437.422V445.744C145.457 446.453 145.558 446.909 145.761 447.112C145.989 447.315 146.28 447.416 146.635 447.416C147.192 447.416 147.737 447.302 148.269 447.074ZM156.453 446.162C156.453 447.049 156.542 447.695 156.719 448.1C156.897 448.505 157.213 448.771 157.669 448.898C158.151 449.025 158.822 449.101 159.683 449.126V450H151.133V449.126C151.691 449.101 152.134 449.025 152.463 448.898C152.793 448.771 153.033 448.505 153.185 448.1C153.337 447.695 153.413 447.049 153.413 446.162V437.574C153.413 436.865 153.299 436.409 153.071 436.206C152.869 435.978 152.59 435.864 152.235 435.864C151.906 435.864 151.551 435.927 151.171 436.054C150.817 436.155 150.487 436.269 150.183 436.396L149.803 435.522L156.377 432.52L156.605 432.748C156.58 432.951 156.542 433.495 156.491 434.382C156.466 435.269 156.453 436.32 156.453 437.536V446.162ZM154.933 428.948C154.376 428.948 153.907 428.758 153.527 428.378C153.147 427.998 152.957 427.529 152.957 426.972C152.957 426.44 153.147 425.984 153.527 425.604C153.907 425.224 154.376 425.034 154.933 425.034C155.491 425.034 155.959 425.224 156.339 425.604C156.719 425.984 156.909 426.44 156.909 426.972C156.909 427.529 156.719 427.998 156.339 428.378C155.959 428.758 155.491 428.948 154.933 428.948ZM172.602 446.694L173.21 447.302C172.602 448.214 171.906 448.987 171.12 449.62C170.335 450.253 169.309 450.57 168.042 450.57C167.029 450.57 166.218 450.367 165.61 449.962C165.028 449.557 164.61 449.025 164.356 448.366C164.103 447.682 163.976 446.947 163.976 446.162V434.838H161.354V433.28H163.976V428.074L167.206 427.504C167.13 428.467 167.08 429.429 167.054 430.392C167.029 431.355 167.016 432.317 167.016 433.28H172.64V434.838H168.194C167.764 434.838 167.46 434.927 167.282 435.104C167.105 435.281 167.016 435.585 167.016 436.016V445.364C167.016 446.175 167.156 446.871 167.434 447.454C167.738 448.037 168.346 448.328 169.258 448.328C169.79 448.328 170.335 448.201 170.892 447.948C171.45 447.669 172.02 447.251 172.602 446.694ZM17.3718 496V495.126C17.9544 495.101 18.4104 495.025 18.7398 494.898C19.0691 494.771 19.2971 494.505 19.4238 494.1C19.5758 493.695 19.6518 493.049 19.6518 492.162V483.536C19.6518 482.852 19.5504 482.409 19.3478 482.206C19.1451 481.978 18.8664 481.864 18.5118 481.864C18.2331 481.864 17.9544 481.902 17.6758 481.978C17.4224 482.029 17.1564 482.117 16.8778 482.244L16.4978 481.37L22.6158 478.52L22.8438 478.748C22.7931 478.976 22.7298 479.419 22.6538 480.078C22.6031 480.737 22.5778 481.433 22.5778 482.168H22.6538C23.6164 481.155 24.5918 480.331 25.5798 479.698C26.5931 479.039 27.7584 478.71 29.0758 478.71C30.4944 478.71 31.5331 479.027 32.1918 479.66C32.8504 480.293 33.2431 481.142 33.3698 482.206C34.3071 481.142 35.2824 480.293 36.2958 479.66C37.3344 479.027 38.4998 478.71 39.7918 478.71C41.4131 478.71 42.5404 479.115 43.1738 479.926C43.8071 480.711 44.1238 481.763 44.1238 483.08V492.162C44.1238 493.049 44.2124 493.695 44.3898 494.1C44.5671 494.505 44.8838 494.771 45.3398 494.898C45.8211 495.025 46.4924 495.101 47.3538 495.126V496H38.8038V495.126C39.3611 495.101 39.8044 495.025 40.1338 494.898C40.4631 494.771 40.7038 494.505 40.8558 494.1C41.0078 493.695 41.0838 493.049 41.0838 492.162V483.992C41.0838 483.105 40.8811 482.409 40.4758 481.902C40.0958 481.395 39.4244 481.142 38.4618 481.142C36.9418 481.142 35.2571 481.877 33.4078 483.346V492.162C33.4078 493.049 33.4838 493.695 33.6358 494.1C33.8131 494.505 34.1044 494.771 34.5098 494.898C34.9404 495.025 35.5358 495.101 36.2958 495.126V496H28.0878V495.126C28.6451 495.101 29.0884 495.025 29.4178 494.898C29.7471 494.771 29.9878 494.505 30.1398 494.1C30.2918 493.695 30.3678 493.049 30.3678 492.162V483.992C30.3678 483.105 30.1651 482.409 29.7598 481.902C29.3798 481.395 28.7084 481.142 27.7458 481.142C26.1751 481.142 24.4904 481.877 22.6918 483.346V492.162C22.6918 493.049 22.7678 493.695 22.9198 494.1C23.0971 494.505 23.3884 494.771 23.7938 494.898C24.1991 495.025 24.7818 495.101 25.5418 495.126V496H17.3718ZM68.5023 493.074L68.8823 493.948L62.7263 496.798L62.4983 496.57C62.5489 496.342 62.5996 495.899 62.6503 495.24C62.7263 494.556 62.7643 493.834 62.7643 493.074H62.6883C61.7003 494.087 60.6743 494.923 59.6103 495.582C58.5716 496.241 57.3936 496.57 56.0763 496.57C54.4803 496.57 53.3656 496.165 52.7323 495.354C52.1243 494.543 51.8203 493.492 51.8203 492.2V483.46C51.8203 482.801 51.7063 482.371 51.4783 482.168C51.2756 481.965 50.9969 481.864 50.6423 481.864C50.1356 481.864 49.5909 481.991 49.0083 482.244L48.6283 481.37L54.7843 478.52L55.0123 478.748C54.9869 478.951 54.9489 479.495 54.8983 480.382C54.8729 481.243 54.8603 482.257 54.8603 483.422V491.25C54.8603 492.137 55.0376 492.833 55.3923 493.34C55.7723 493.847 56.4436 494.1 57.4062 494.1C58.2169 494.1 59.0529 493.935 59.9143 493.606C60.8009 493.251 61.7129 492.694 62.6503 491.934V483.46C62.6503 482.801 62.5489 482.371 62.3463 482.168C62.1436 481.965 61.8523 481.864 61.4723 481.864C61.1429 481.864 60.8009 481.927 60.4463 482.054C60.0916 482.155 59.7749 482.269 59.4963 482.396L59.1163 481.522L65.6143 478.52L65.8423 478.748C65.8169 478.951 65.7789 479.495 65.7283 480.382C65.7029 481.243 65.6903 482.257 65.6903 483.422V491.744C65.6903 492.453 65.7916 492.909 65.9943 493.112C66.2223 493.315 66.5136 493.416 66.8683 493.416C67.4256 493.416 67.9703 493.302 68.5023 493.074ZM76.4208 492.162C76.4208 493.049 76.5095 493.695 76.6868 494.1C76.8641 494.505 77.1808 494.771 77.6368 494.898C78.1181 495.025 78.7895 495.101 79.6508 495.126V496H71.1008V495.126C71.6581 495.101 72.1015 495.025 72.4308 494.898C72.7601 494.771 73.0008 494.505 73.1528 494.1C73.3048 493.695 73.3808 493.049 73.3808 492.162V471.034C73.3808 470.325 73.2668 469.869 73.0388 469.666C72.8361 469.463 72.5575 469.362 72.2028 469.362C71.8735 469.362 71.5188 469.413 71.1388 469.514C70.7841 469.615 70.4548 469.742 70.1508 469.894L69.7708 469.02L76.3448 465.98L76.5728 466.208C76.5475 466.411 76.5095 466.955 76.4588 467.842C76.4335 468.729 76.4208 469.78 76.4208 470.996V492.162ZM92.5758 492.694L93.1838 493.302C92.5758 494.214 91.8792 494.987 91.0938 495.62C90.3085 496.253 89.2825 496.57 88.0158 496.57C87.0025 496.57 86.1918 496.367 85.5838 495.962C85.0012 495.557 84.5832 495.025 84.3298 494.366C84.0765 493.682 83.9498 492.947 83.9498 492.162V480.838H81.3278V479.28H83.9498V474.074L87.1798 473.504C87.1038 474.467 87.0532 475.429 87.0278 476.392C87.0025 477.355 86.9898 478.317 86.9898 479.28H92.6138V480.838H88.1678C87.7372 480.838 87.4332 480.927 87.2558 481.104C87.0785 481.281 86.9898 481.585 86.9898 482.016V491.364C86.9898 492.175 87.1292 492.871 87.4078 493.454C87.7118 494.037 88.3198 494.328 89.2318 494.328C89.7638 494.328 90.3085 494.201 90.8658 493.948C91.4232 493.669 91.9932 493.251 92.5758 492.694ZM101.365 492.162C101.365 493.049 101.453 493.695 101.631 494.1C101.808 494.505 102.125 494.771 102.581 494.898C103.062 495.025 103.733 495.101 104.595 495.126V496H96.0445V495.126C96.6019 495.101 97.0452 495.025 97.3745 494.898C97.7039 494.771 97.9445 494.505 98.0965 494.1C98.2485 493.695 98.3245 493.049 98.3245 492.162V483.574C98.3245 482.865 98.2105 482.409 97.9825 482.206C97.7799 481.978 97.5012 481.864 97.1465 481.864C96.8172 481.864 96.4625 481.927 96.0825 482.054C95.7279 482.155 95.3985 482.269 95.0945 482.396L94.7145 481.522L101.289 478.52L101.517 478.748C101.491 478.951 101.453 479.495 101.403 480.382C101.377 481.269 101.365 482.32 101.365 483.536V492.162ZM99.8445 474.948C99.2872 474.948 98.8185 474.758 98.4385 474.378C98.0585 473.998 97.8685 473.529 97.8685 472.972C97.8685 472.44 98.0585 471.984 98.4385 471.604C98.8185 471.224 99.2872 471.034 99.8445 471.034C100.402 471.034 100.871 471.224 101.251 471.604C101.631 471.984 101.821 472.44 101.821 472.972C101.821 473.529 101.631 473.998 101.251 474.378C100.871 474.758 100.402 474.948 99.8445 474.948ZM116.069 487.374L106.303 488.248L106.189 486.12L115.917 485.284L116.069 487.374ZM137.563 493.074L137.943 493.948L131.787 496.798L131.559 496.57C131.609 496.342 131.66 495.899 131.711 495.24C131.787 494.556 131.825 493.834 131.825 493.074H131.749C130.761 494.087 129.735 494.923 128.671 495.582C127.632 496.241 126.454 496.57 125.137 496.57C123.541 496.57 122.426 496.165 121.793 495.354C121.185 494.543 120.881 493.492 120.881 492.2V483.46C120.881 482.801 120.767 482.371 120.539 482.168C120.336 481.965 120.057 481.864 119.703 481.864C119.196 481.864 118.651 481.991 118.069 482.244L117.689 481.37L123.845 478.52L124.073 478.748C124.047 478.951 124.009 479.495 123.959 480.382C123.933 481.243 123.921 482.257 123.921 483.422V491.25C123.921 492.137 124.098 492.833 124.453 493.34C124.833 493.847 125.504 494.1 126.467 494.1C127.277 494.1 128.113 493.935 128.975 493.606C129.861 493.251 130.773 492.694 131.711 491.934V483.46C131.711 482.801 131.609 482.371 131.407 482.168C131.204 481.965 130.913 481.864 130.533 481.864C130.203 481.864 129.861 481.927 129.507 482.054C129.152 482.155 128.835 482.269 128.557 482.396L128.177 481.522L134.675 478.52L134.903 478.748C134.877 478.951 134.839 479.495 134.789 480.382C134.763 481.243 134.751 482.257 134.751 483.422V491.744C134.751 492.453 134.852 492.909 135.055 493.112C135.283 493.315 135.574 493.416 135.929 493.416C136.486 493.416 137.031 493.302 137.563 493.074ZM145.785 496.57C143.987 496.57 142.606 496.228 141.643 495.544C140.681 494.86 140.199 493.986 140.199 492.922C140.199 492.542 140.275 492.124 140.427 491.668C140.579 491.187 140.845 490.718 141.225 490.262H142.099C142.125 491.883 142.467 493.125 143.125 493.986C143.784 494.847 144.823 495.278 146.241 495.278C147.508 495.278 148.445 494.974 149.053 494.366C149.661 493.758 149.965 493.061 149.965 492.276C149.965 491.567 149.737 490.984 149.281 490.528C148.851 490.072 148.281 489.679 147.571 489.35C146.887 488.995 146.153 488.666 145.367 488.362C144.582 488.033 143.835 487.678 143.125 487.298C142.441 486.893 141.871 486.399 141.415 485.816C140.985 485.233 140.769 484.499 140.769 483.612C140.769 482.219 141.327 481.053 142.441 480.116C143.556 479.179 145.114 478.71 147.115 478.71C147.901 478.71 148.699 478.786 149.509 478.938C150.32 479.065 151.08 479.331 151.789 479.736V484.106H150.915C150.738 482.611 150.257 481.56 149.471 480.952C148.686 480.319 147.761 480.002 146.697 480.002C145.659 480.002 144.873 480.23 144.341 480.686C143.809 481.142 143.543 481.737 143.543 482.472C143.543 483.156 143.759 483.726 144.189 484.182C144.645 484.613 145.215 484.993 145.899 485.322C146.609 485.651 147.343 485.981 148.103 486.31C148.889 486.614 149.623 486.981 150.307 487.412C151.017 487.817 151.587 488.337 152.017 488.97C152.473 489.578 152.701 490.351 152.701 491.288C152.701 492.985 152.043 494.29 150.725 495.202C149.408 496.114 147.761 496.57 145.785 496.57ZM160.154 496.57C158.964 496.57 157.988 496.266 157.228 495.658C156.494 495.025 156.126 494.125 156.126 492.96C156.126 492.023 156.418 491.161 157 490.376C157.583 489.591 158.546 488.869 159.888 488.21C161.231 487.551 163.055 486.943 165.36 486.386V483.916C165.36 482.877 165.132 482.016 164.676 481.332C164.246 480.648 163.41 480.306 162.168 480.306C160.978 480.306 160.028 480.686 159.318 481.446C158.634 482.181 158.153 483.333 157.874 484.904H157V480.154C157.887 479.723 158.824 479.381 159.812 479.128C160.826 478.849 161.94 478.71 163.156 478.71C164.55 478.71 165.614 478.9 166.348 479.28C167.108 479.635 167.64 480.141 167.944 480.8C168.248 481.459 168.4 482.231 168.4 483.118V492.314C168.4 493.657 168.818 494.328 169.654 494.328C169.958 494.328 170.3 494.227 170.68 494.024C171.086 493.821 171.554 493.403 172.086 492.77L172.694 493.378C171.529 495.379 170.136 496.38 168.514 496.38C166.842 496.38 165.816 495.531 165.436 493.834H165.36C163.967 495.658 162.232 496.57 160.154 496.57ZM161.56 494.328C162.776 494.328 164.043 493.771 165.36 492.656V487.564C163.536 488.02 162.194 488.527 161.332 489.084C160.471 489.616 159.901 490.161 159.622 490.718C159.369 491.25 159.242 491.744 159.242 492.2C159.242 492.935 159.47 493.479 159.926 493.834C160.382 494.163 160.927 494.328 161.56 494.328ZM179.932 504.93C178.894 504.93 177.918 504.803 177.006 504.55C176.094 504.297 175.36 503.891 174.802 503.334C174.245 502.777 173.966 502.042 173.966 501.13C173.966 499.585 174.904 498.255 176.778 497.14L177.652 497.292C177.323 497.773 177.07 498.293 176.892 498.85C176.715 499.433 176.626 499.977 176.626 500.484C176.626 501.447 176.968 502.194 177.652 502.726C178.336 503.283 179.375 503.562 180.768 503.562C182.086 503.562 183.251 503.334 184.264 502.878C185.303 502.422 186.126 501.814 186.734 501.054C187.342 500.294 187.646 499.471 187.646 498.584C187.646 498.001 187.482 497.545 187.152 497.216C186.848 496.887 186.278 496.659 185.442 496.532L177.348 495.164C176.31 494.961 175.79 494.265 175.79 493.074C175.79 492.415 176.006 491.731 176.436 491.022C176.892 490.313 177.564 489.603 178.45 488.894C177.412 488.565 176.525 488.033 175.79 487.298C175.056 486.538 174.688 485.55 174.688 484.334C174.688 483.169 175.03 482.168 175.714 481.332C176.398 480.496 177.285 479.85 178.374 479.394C179.464 478.938 180.616 478.71 181.832 478.71C182.719 478.71 183.606 478.837 184.492 479.09C185.379 479.343 186.139 479.736 186.772 480.268C187.406 480.116 187.938 479.711 188.368 479.052C188.799 478.393 189.078 477.494 189.204 476.354H190.002C190.23 476.633 190.395 477 190.496 477.456C190.623 477.887 190.686 478.279 190.686 478.634C190.686 479.394 190.433 479.989 189.926 480.42C189.445 480.825 188.672 481.066 187.608 481.142C188.14 481.902 188.406 482.763 188.406 483.726C188.406 484.866 188.064 485.867 187.38 486.728C186.696 487.564 185.81 488.21 184.72 488.666C183.631 489.122 182.478 489.35 181.262 489.35C180.654 489.35 180.059 489.287 179.476 489.16C179.122 489.464 178.83 489.806 178.602 490.186C178.4 490.566 178.298 490.946 178.298 491.326C178.298 491.605 178.374 491.858 178.526 492.086C178.704 492.314 178.957 492.453 179.286 492.504L187.19 493.834C188.33 494.011 189.204 494.366 189.812 494.898C190.42 495.405 190.724 496.152 190.724 497.14C190.724 498.027 190.471 498.926 189.964 499.838C189.458 500.75 188.736 501.586 187.798 502.346C186.861 503.131 185.721 503.752 184.378 504.208C183.061 504.689 181.579 504.93 179.932 504.93ZM181.756 488.058C182.896 488.058 183.783 487.691 184.416 486.956C185.05 486.221 185.366 485.309 185.366 484.22C185.366 482.979 184.986 481.965 184.226 481.18C183.492 480.395 182.529 480.002 181.338 480.002C180.198 480.002 179.312 480.369 178.678 481.104C178.045 481.813 177.728 482.725 177.728 483.84C177.728 485.081 178.108 486.095 178.868 486.88C179.628 487.665 180.591 488.058 181.756 488.058ZM200.722 496.57C199.43 496.57 198.188 496.266 196.998 495.658C195.832 495.05 194.87 494.138 194.11 492.922C193.375 491.681 193.008 490.11 193.008 488.21C193.008 486.285 193.388 484.613 194.148 483.194C194.908 481.775 195.921 480.673 197.188 479.888C198.454 479.103 199.835 478.71 201.33 478.71C202.419 478.71 203.42 478.925 204.332 479.356C205.269 479.787 206.016 480.445 206.574 481.332C207.156 482.219 207.448 483.346 207.448 484.714L196.048 486.196C196.048 486.323 196.048 486.462 196.048 486.614C196.048 488.945 196.58 490.769 197.644 492.086C198.708 493.403 200.126 494.062 201.9 494.062C202.913 494.062 203.85 493.859 204.712 493.454C205.573 493.023 206.346 492.491 207.03 491.858L207.638 492.466C206.928 493.682 205.978 494.67 204.788 495.43C203.622 496.19 202.267 496.57 200.722 496.57ZM200.532 480.116C199.214 480.116 198.201 480.585 197.492 481.522C196.782 482.459 196.339 483.612 196.162 484.98L204.028 483.954C203.876 482.865 203.546 481.953 203.04 481.218C202.533 480.483 201.697 480.116 200.532 480.116Z" fill="black"/>
</svg>
