<svg width="259" height="682" viewBox="0 0 259 682" fill="none" xmlns="http://www.w3.org/2000/svg">
<path d="M94.9619 184.023C94.9619 167.539 108.698 152.333 115.566 146.791H180.27C187.62 161.973 204.2 197.036 211.719 215.832C221.117 239.328 243.529 335.481 254.373 417.898C265.217 500.314 254.373 647.435 243.529 662.617C232.684 677.799 183.162 683.221 144.484 681.775C105.806 680.329 46.8856 683.221 23.3897 674.907C-0.106271 666.593 -6.61284 522.364 7.12325 464.528C20.8593 406.692 103.276 267.885 107.252 248.727C111.228 229.569 94.9619 204.627 94.9619 184.023Z" fill="#E4E3C6"/>
<path d="M111.951 89.6772V147.513H182.078V89.6772H148.822H111.951Z" fill="#85898C"/>
<path d="M74.3579 58.9518C87.6602 64.4462 104.722 82.2067 111.59 90.4002H181.716C182.56 85.8214 186.199 75.8687 194.007 72.6878C203.766 68.7115 218.587 76.664 228.347 58.9518C238.107 41.2395 211.719 26.0574 167.98 7.98358C132.989 -6.47546 72.671 1.95898 46.8857 7.98358V56.0599C54.4767 56.0599 61.0556 53.4573 74.3579 58.9518Z" fill="#9FA39E"/>
<path d="M21.9439 29.6721C21.3655 18.3941 38.5718 10.2729 47.2472 7.62207V55.3369C39.0538 51.4812 22.5223 40.9502 21.9439 29.6721Z" fill="#85898C"/>
<path d="M72.3071 90.5503C81.4679 85.4549 90.5045 76.2195 93.8777 72.2387C80.0299 57.5894 65.9158 55.1656 60.5898 55.7848C59.5246 57.9963 57.1279 63.3217 56.0627 66.931C54.7311 71.4425 19.0464 110.72 13.7203 120.008C8.39424 129.297 5.4649 131.154 13.7203 133.543C21.9757 135.931 32.8942 119.477 42.7474 110.72C52.6006 101.962 60.856 96.9195 72.3071 90.5503Z" fill="#B1B5B0"/>
<path d="M150.962 303.013C114.805 302.089 94.1764 349.211 81.4289 373.85C68.6814 398.488 61.3418 410.038 41.6408 465.86C20.0979 526.901 15.3728 607.148 31.9834 636.407C45.2719 659.814 104.993 657.966 138.214 657.966C163.709 657.966 211.61 657.504 220.881 646.416C232.47 632.557 254.488 595.214 244.445 512.828C234.401 430.442 196.158 304.168 150.962 303.013Z" fill="#A1AAB9"/>
<path d="M42.966 511V510.126C43.65 510.101 44.182 510.025 44.562 509.898C44.942 509.771 45.208 509.505 45.36 509.1C45.5373 508.695 45.626 508.061 45.626 507.2V489.53C45.626 488.643 45.5247 488.01 45.322 487.63C45.1447 487.225 44.8027 486.959 44.296 486.832C43.7893 486.705 43.0293 486.629 42.016 486.604V485.73H45.626C47.3487 485.73 48.8687 485.705 50.186 485.654C51.5287 485.578 52.6687 485.54 53.606 485.54C56.342 485.54 58.7233 485.996 60.75 486.908C62.802 487.795 64.398 489.125 65.538 490.898C66.678 492.671 67.248 494.901 67.248 497.586C67.248 499.663 66.868 501.538 66.108 503.21C65.348 504.857 64.3093 506.263 62.992 507.428C61.7 508.593 60.2307 509.48 58.584 510.088C56.9627 510.696 55.2653 511 53.492 511H42.966ZM52.352 509.632C56.2027 509.632 59.0273 508.606 60.826 506.554C62.65 504.477 63.562 501.677 63.562 498.156C63.562 495.445 63.106 493.267 62.194 491.62C61.3073 489.973 60.0407 488.783 58.394 488.048C56.7473 487.288 54.7967 486.908 52.542 486.908C51.1487 486.908 50.186 487.06 49.654 487.364C49.122 487.643 48.856 488.365 48.856 489.53V507.2C48.856 508.289 49.1093 508.973 49.616 509.252C50.148 509.505 51.06 509.632 52.352 509.632ZM78.9766 511.57C77.6846 511.57 76.4433 511.266 75.2526 510.658C74.0873 510.05 73.1246 509.138 72.3646 507.922C71.63 506.681 71.2626 505.11 71.2626 503.21C71.2626 501.285 71.6426 499.613 72.4026 498.194C73.1626 496.775 74.176 495.673 75.4426 494.888C76.7093 494.103 78.09 493.71 79.5846 493.71C80.674 493.71 81.6746 493.925 82.5866 494.356C83.524 494.787 84.2713 495.445 84.8286 496.332C85.4113 497.219 85.7026 498.346 85.7026 499.714L74.3026 501.196C74.3026 501.323 74.3026 501.462 74.3026 501.614C74.3026 503.945 74.8346 505.769 75.8986 507.086C76.9626 508.403 78.3813 509.062 80.1546 509.062C81.168 509.062 82.1053 508.859 82.9666 508.454C83.828 508.023 84.6006 507.491 85.2846 506.858L85.8926 507.466C85.1833 508.682 84.2333 509.67 83.0426 510.43C81.8773 511.19 80.522 511.57 78.9766 511.57ZM78.7866 495.116C77.4693 495.116 76.456 495.585 75.7466 496.522C75.0373 497.459 74.594 498.612 74.4166 499.98L82.2826 498.954C82.1306 497.865 81.8013 496.953 81.2946 496.218C80.788 495.483 79.952 495.116 78.7866 495.116ZM81.0666 483.108C81.5226 483.083 82.0166 483.171 82.5486 483.374C83.106 483.551 83.5493 483.83 83.8786 484.21C83.3213 485.35 82.5106 486.515 81.4466 487.706C80.3826 488.871 79.268 489.821 78.1026 490.556L77.6846 489.834C78.5713 488.871 79.2933 487.795 79.8506 486.604C80.4333 485.388 80.8386 484.223 81.0666 483.108ZM94.5914 519.93C93.5527 519.93 92.5774 519.803 91.6654 519.55C90.7534 519.297 90.0187 518.891 89.4614 518.334C88.904 517.777 88.6254 517.042 88.6254 516.13C88.6254 514.585 89.5627 513.255 91.4374 512.14L92.3114 512.292C91.982 512.773 91.7287 513.293 91.5514 513.85C91.374 514.433 91.2854 514.977 91.2854 515.484C91.2854 516.447 91.6274 517.194 92.3114 517.726C92.9954 518.283 94.034 518.562 95.4274 518.562C96.7447 518.562 97.91 518.334 98.9234 517.878C99.962 517.422 100.785 516.814 101.393 516.054C102.001 515.294 102.305 514.471 102.305 513.584C102.305 513.001 102.141 512.545 101.811 512.216C101.507 511.887 100.937 511.659 100.101 511.532L92.0074 510.164C90.9687 509.961 90.4494 509.265 90.4494 508.074C90.4494 507.415 90.6647 506.731 91.0954 506.022C91.5514 505.313 92.2227 504.603 93.1094 503.894C92.0707 503.565 91.184 503.033 90.4494 502.298C89.7147 501.538 89.3474 500.55 89.3474 499.334C89.3474 498.169 89.6894 497.168 90.3734 496.332C91.0574 495.496 91.944 494.85 93.0334 494.394C94.1227 493.938 95.2754 493.71 96.4914 493.71C97.3781 493.71 98.2647 493.837 99.1514 494.09C100.038 494.343 100.798 494.736 101.431 495.268C102.065 495.116 102.597 494.711 103.027 494.052C103.458 493.393 103.737 492.494 103.863 491.354H104.661C104.889 491.633 105.054 492 105.155 492.456C105.282 492.887 105.345 493.279 105.345 493.634C105.345 494.394 105.092 494.989 104.585 495.42C104.104 495.825 103.331 496.066 102.267 496.142C102.799 496.902 103.065 497.763 103.065 498.726C103.065 499.866 102.723 500.867 102.039 501.728C101.355 502.564 100.469 503.21 99.3794 503.666C98.29 504.122 97.1374 504.35 95.9214 504.35C95.3134 504.35 94.718 504.287 94.1354 504.16C93.7807 504.464 93.4894 504.806 93.2614 505.186C93.0587 505.566 92.9574 505.946 92.9574 506.326C92.9574 506.605 93.0334 506.858 93.1854 507.086C93.3627 507.314 93.616 507.453 93.9454 507.504L101.849 508.834C102.989 509.011 103.863 509.366 104.471 509.898C105.079 510.405 105.383 511.152 105.383 512.14C105.383 513.027 105.13 513.926 104.623 514.838C104.117 515.75 103.395 516.586 102.457 517.346C101.52 518.131 100.38 518.752 99.0374 519.208C97.7201 519.689 96.238 519.93 94.5914 519.93ZM96.4154 503.058C97.5554 503.058 98.442 502.691 99.0754 501.956C99.7087 501.221 100.025 500.309 100.025 499.22C100.025 497.979 99.6454 496.965 98.8854 496.18C98.1507 495.395 97.188 495.002 95.9974 495.002C94.8574 495.002 93.9707 495.369 93.3374 496.104C92.704 496.813 92.3874 497.725 92.3874 498.84C92.3874 500.081 92.7674 501.095 93.5274 501.88C94.2874 502.665 95.25 503.058 96.4154 503.058ZM107.781 511V510.126C108.364 510.101 108.82 510.025 109.149 509.898C109.478 509.771 109.706 509.505 109.833 509.1C109.985 508.695 110.061 508.049 110.061 507.162V498.46C110.061 497.801 109.96 497.371 109.757 497.168C109.554 496.965 109.276 496.864 108.921 496.864C108.642 496.864 108.364 496.902 108.085 496.978C107.832 497.029 107.566 497.117 107.287 497.244L106.907 496.37L113.025 493.52L113.253 493.748C113.202 493.976 113.139 494.47 113.063 495.23C113.012 495.965 112.987 496.775 112.987 497.662H113.063C114.102 496.117 115.242 495.078 116.483 494.546C117.75 494.014 119.067 493.799 120.435 493.9C120.638 495.775 120.638 497.649 120.435 499.524H119.561C119.46 498.485 119.219 497.763 118.839 497.358C118.484 496.927 117.978 496.712 117.319 496.712C116.483 496.712 115.736 496.889 115.077 497.244C114.418 497.599 113.76 498.181 113.101 498.992V507.162C113.101 508.049 113.19 508.695 113.367 509.1C113.544 509.505 113.886 509.771 114.393 509.898C114.925 510.025 115.698 510.101 116.711 510.126V511H107.781ZM126.767 511.57C125.576 511.57 124.601 511.266 123.841 510.658C123.106 510.025 122.739 509.125 122.739 507.96C122.739 507.023 123.03 506.161 123.613 505.376C124.195 504.591 125.158 503.869 126.501 503.21C127.843 502.551 129.667 501.943 131.973 501.386V498.916C131.973 497.877 131.745 497.016 131.289 496.332C130.858 495.648 130.022 495.306 128.781 495.306C127.59 495.306 126.64 495.686 125.931 496.446C125.247 497.181 124.765 498.333 124.487 499.904H123.613V495.154C124.499 494.723 125.437 494.381 126.425 494.128C127.438 493.849 128.553 493.71 129.769 493.71C131.162 493.71 132.226 493.9 132.961 494.28C133.721 494.635 134.253 495.141 134.557 495.8C134.861 496.459 135.013 497.231 135.013 498.118V507.314C135.013 508.657 135.431 509.328 136.267 509.328C136.571 509.328 136.913 509.227 137.293 509.024C137.698 508.821 138.167 508.403 138.699 507.77L139.307 508.378C138.141 510.379 136.748 511.38 135.127 511.38C133.455 511.38 132.429 510.531 132.049 508.834H131.973C130.579 510.658 128.844 511.57 126.767 511.57ZM128.173 509.328C129.389 509.328 130.655 508.771 131.973 507.656V502.564C130.149 503.02 128.806 503.527 127.945 504.084C127.083 504.616 126.513 505.161 126.235 505.718C125.981 506.25 125.855 506.744 125.855 507.2C125.855 507.935 126.083 508.479 126.539 508.834C126.995 509.163 127.539 509.328 128.173 509.328ZM146.241 507.162C146.241 508.049 146.329 508.695 146.507 509.1C146.684 509.505 147.001 509.771 147.457 509.898C147.938 510.025 148.609 510.101 149.471 510.126V511H140.921V510.126C141.478 510.101 141.921 510.025 142.251 509.898C142.58 509.771 142.821 509.505 142.973 509.1C143.125 508.695 143.201 508.049 143.201 507.162V498.574C143.201 497.865 143.087 497.409 142.859 497.206C142.656 496.978 142.377 496.864 142.023 496.864C141.693 496.864 141.339 496.927 140.959 497.054C140.604 497.155 140.275 497.269 139.971 497.396L139.591 496.522L146.165 493.52L146.393 493.748C146.367 493.951 146.329 494.495 146.279 495.382C146.253 496.269 146.241 497.32 146.241 498.536V507.162ZM144.721 489.948C144.163 489.948 143.695 489.758 143.315 489.378C142.935 488.998 142.745 488.529 142.745 487.972C142.745 487.44 142.935 486.984 143.315 486.604C143.695 486.224 144.163 486.034 144.721 486.034C145.278 486.034 145.747 486.224 146.127 486.604C146.507 486.984 146.697 487.44 146.697 487.972C146.697 488.529 146.507 488.998 146.127 489.378C145.747 489.758 145.278 489.948 144.721 489.948ZM157.411 511.57C155.613 511.57 154.232 511.228 153.269 510.544C152.307 509.86 151.825 508.986 151.825 507.922C151.825 507.542 151.901 507.124 152.053 506.668C152.205 506.187 152.471 505.718 152.851 505.262H153.725C153.751 506.883 154.093 508.125 154.751 508.986C155.41 509.847 156.449 510.278 157.867 510.278C159.134 510.278 160.071 509.974 160.679 509.366C161.287 508.758 161.591 508.061 161.591 507.276C161.591 506.567 161.363 505.984 160.907 505.528C160.477 505.072 159.907 504.679 159.197 504.35C158.513 503.995 157.779 503.666 156.993 503.362C156.208 503.033 155.461 502.678 154.751 502.298C154.067 501.893 153.497 501.399 153.041 500.816C152.611 500.233 152.395 499.499 152.395 498.612C152.395 497.219 152.953 496.053 154.067 495.116C155.182 494.179 156.74 493.71 158.741 493.71C159.527 493.71 160.325 493.786 161.135 493.938C161.946 494.065 162.706 494.331 163.415 494.736V499.106H162.541C162.364 497.611 161.883 496.56 161.097 495.952C160.312 495.319 159.387 495.002 158.323 495.002C157.285 495.002 156.499 495.23 155.967 495.686C155.435 496.142 155.169 496.737 155.169 497.472C155.169 498.156 155.385 498.726 155.815 499.182C156.271 499.613 156.841 499.993 157.525 500.322C158.235 500.651 158.969 500.981 159.729 501.31C160.515 501.614 161.249 501.981 161.933 502.412C162.643 502.817 163.213 503.337 163.643 503.97C164.099 504.578 164.327 505.351 164.327 506.288C164.327 507.985 163.669 509.29 162.351 510.202C161.034 511.114 159.387 511.57 157.411 511.57ZM173.034 511.57C171.236 511.57 169.855 511.228 168.892 510.544C167.93 509.86 167.448 508.986 167.448 507.922C167.448 507.542 167.524 507.124 167.676 506.668C167.828 506.187 168.094 505.718 168.474 505.262H169.348C169.374 506.883 169.716 508.125 170.374 508.986C171.033 509.847 172.072 510.278 173.49 510.278C174.757 510.278 175.694 509.974 176.302 509.366C176.91 508.758 177.214 508.061 177.214 507.276C177.214 506.567 176.986 505.984 176.53 505.528C176.1 505.072 175.53 504.679 174.82 504.35C174.136 503.995 173.402 503.666 172.616 503.362C171.831 503.033 171.084 502.678 170.374 502.298C169.69 501.893 169.12 501.399 168.664 500.816C168.234 500.233 168.018 499.499 168.018 498.612C168.018 497.219 168.576 496.053 169.69 495.116C170.805 494.179 172.363 493.71 174.364 493.71C175.15 493.71 175.948 493.786 176.758 493.938C177.569 494.065 178.329 494.331 179.038 494.736V499.106H178.164C177.987 497.611 177.506 496.56 176.72 495.952C175.935 495.319 175.01 495.002 173.946 495.002C172.908 495.002 172.122 495.23 171.59 495.686C171.058 496.142 170.792 496.737 170.792 497.472C170.792 498.156 171.008 498.726 171.438 499.182C171.894 499.613 172.464 499.993 173.148 500.322C173.858 500.651 174.592 500.981 175.352 501.31C176.138 501.614 176.872 501.981 177.556 502.412C178.266 502.817 178.836 503.337 179.266 503.97C179.722 504.578 179.95 505.351 179.95 506.288C179.95 507.985 179.292 509.29 177.974 510.202C176.657 511.114 175.01 511.57 173.034 511.57ZM187.403 511.57C186.213 511.57 185.237 511.266 184.477 510.658C183.743 510.025 183.375 509.125 183.375 507.96C183.375 507.023 183.667 506.161 184.249 505.376C184.832 504.591 185.795 503.869 187.137 503.21C188.48 502.551 190.304 501.943 192.609 501.386V498.916C192.609 497.877 192.381 497.016 191.925 496.332C191.495 495.648 190.659 495.306 189.417 495.306C188.227 495.306 187.277 495.686 186.567 496.446C185.883 497.181 185.402 498.333 185.123 499.904H184.249V495.154C185.136 494.723 186.073 494.381 187.061 494.128C188.075 493.849 189.189 493.71 190.405 493.71C191.799 493.71 192.863 493.9 193.597 494.28C194.357 494.635 194.889 495.141 195.193 495.8C195.497 496.459 195.649 497.231 195.649 498.118V507.314C195.649 508.657 196.067 509.328 196.903 509.328C197.207 509.328 197.549 509.227 197.929 509.024C198.335 508.821 198.803 508.403 199.335 507.77L199.943 508.378C198.778 510.379 197.385 511.38 195.763 511.38C194.091 511.38 193.065 510.531 192.685 508.834H192.609C191.216 510.658 189.481 511.57 187.403 511.57ZM188.809 509.328C190.025 509.328 191.292 508.771 192.609 507.656V502.564C190.785 503.02 189.443 503.527 188.581 504.084C187.72 504.616 187.15 505.161 186.871 505.718C186.618 506.25 186.491 506.744 186.491 507.2C186.491 507.935 186.719 508.479 187.175 508.834C187.631 509.163 188.176 509.328 188.809 509.328ZM217.935 507.162C217.935 508.049 218.011 508.695 218.163 509.1C218.341 509.505 218.657 509.771 219.113 509.898C219.595 510.025 220.279 510.101 221.165 510.126V511H212.615V510.126C213.173 510.101 213.616 510.025 213.945 509.898C214.275 509.771 214.515 509.505 214.667 509.1C214.819 508.695 214.895 508.049 214.895 507.162V498.992C214.895 498.105 214.693 497.409 214.287 496.902C213.907 496.395 213.236 496.142 212.273 496.142C211.437 496.142 210.563 496.319 209.651 496.674C208.739 497.029 207.802 497.586 206.839 498.346V507.162C206.839 508.049 206.915 508.695 207.067 509.1C207.245 509.505 207.561 509.771 208.017 509.898C208.499 510.025 209.183 510.101 210.069 510.126V511H201.519V510.126C202.102 510.101 202.558 510.025 202.887 509.898C203.217 509.771 203.445 509.505 203.571 509.1C203.723 508.695 203.799 508.049 203.799 507.162V498.536C203.799 497.852 203.698 497.409 203.495 497.206C203.293 496.978 203.014 496.864 202.659 496.864C202.381 496.864 202.102 496.902 201.823 496.978C201.57 497.029 201.304 497.117 201.025 497.244L200.645 496.37L206.763 493.52L206.991 493.748C206.941 493.976 206.877 494.419 206.801 495.078C206.751 495.737 206.725 496.433 206.725 497.168H206.801C207.764 496.155 208.803 495.331 209.917 494.698C211.057 494.039 212.286 493.71 213.603 493.71C215.225 493.71 216.352 494.115 216.985 494.926C217.619 495.711 217.935 496.763 217.935 498.08V507.162ZM233.973 507.694L234.581 508.302C233.973 509.214 233.277 509.987 232.491 510.62C231.706 511.253 230.68 511.57 229.413 511.57C228.4 511.57 227.589 511.367 226.981 510.962C226.399 510.557 225.981 510.025 225.727 509.366C225.474 508.682 225.347 507.947 225.347 507.162V495.838H222.725V494.28H225.347V489.074L228.577 488.504C228.501 489.467 228.451 490.429 228.425 491.392C228.4 492.355 228.387 493.317 228.387 494.28H234.011V495.838H229.565C229.135 495.838 228.831 495.927 228.653 496.104C228.476 496.281 228.387 496.585 228.387 497.016V506.364C228.387 507.175 228.527 507.871 228.805 508.454C229.109 509.037 229.717 509.328 230.629 509.328C231.161 509.328 231.706 509.201 232.263 508.948C232.821 508.669 233.391 508.251 233.973 507.694Z" fill="black"/>
</svg>
