<svg width="169" height="664" viewBox="0 0 169 664" fill="none" xmlns="http://www.w3.org/2000/svg">
<path d="M0.544464 117.186V649.048C14.9618 653.731 52.2952 663.097 86.2898 663.097C120.284 663.097 155.594 653.731 169 649.048V117.186L86.2898 89.7563L0.544464 117.186Z" fill="#BF66CE"/>
<path d="M154.583 30.2143C159.439 40.9184 165.712 94.4391 169 118.523C155.341 115.178 120.588 106.08 84.7722 107.15C48.9565 108.221 13.1913 114.732 0.544464 117.185C-1.73196 97.7842 2.21384 52.1578 30.138 30.2143C58.0622 8.27079 116.642 1.0009 142.442 0.108887C144.465 5.68396 149.726 19.5101 154.583 30.2143Z" fill="#AF3EC1"/>
<ellipse rx="9.1057" ry="13.3802" transform="matrix(-1 0 0 1 147.753 55.637)" fill="#585858"/>
<ellipse rx="4.55285" ry="6.69009" transform="matrix(-1 0 0 1 147.754 55.6364)" fill="#404040"/>
<path d="M86.8667 229.343C57 230.536 17.1778 258.662 1 272.576V406C5.72889 397.055 18.7707 376.035 33.1067 363.513C51.0267 347.86 112.253 320.28 135.4 291.956C153.917 269.296 165.516 223.877 169 204C154.067 211.951 116.733 228.151 86.8667 229.343Z" fill="#CF8BDA"/>
<path d="M8.59011 297V296.379C9.07611 296.361 9.45411 296.307 9.72411 296.217C9.99411 296.127 10.1831 295.938 10.2911 295.65C10.4171 295.362 10.4801 294.912 10.4801 294.3L10.4801 281.745C10.4801 281.115 10.4081 280.665 10.2641 280.395C10.1381 280.107 9.89511 279.918 9.53511 279.828C9.17511 279.738 8.63511 279.684 7.91511 279.666V279.045H10.4801C11.7041 279.045 12.7841 279.027 13.7201 278.991C14.6741 278.937 15.4841 278.91 16.1501 278.91C18.0941 278.91 19.7861 279.234 21.2261 279.882C22.6841 280.512 23.8181 281.457 24.6281 282.717C25.4381 283.977 25.8431 285.561 25.8431 287.469C25.8431 288.945 25.5731 290.277 25.0331 291.465C24.4931 292.635 23.7551 293.634 22.8191 294.462C21.9011 295.29 20.8571 295.92 19.6871 296.352C18.5351 296.784 17.3291 297 16.0691 297H8.59011ZM15.2591 296.028C17.9951 296.028 20.0021 295.299 21.2801 293.841C22.5761 292.365 23.2241 290.376 23.2241 287.874C23.2241 285.948 22.9001 284.4 22.2521 283.23C21.6221 282.06 20.7221 281.214 19.5521 280.692C18.3821 280.152 16.9961 279.882 15.3941 279.882C14.4041 279.882 13.7201 279.99 13.3421 280.206C12.9641 280.404 12.7751 280.917 12.7751 281.745L12.7751 294.3C12.7751 295.074 12.9551 295.56 13.3151 295.758C13.6931 295.938 14.3411 296.028 15.2591 296.028ZM34.1766 297.405C33.2586 297.405 32.3766 297.189 31.5306 296.757C30.7026 296.325 30.0186 295.677 29.4786 294.813C28.9566 293.931 28.6956 292.815 28.6956 291.465C28.6956 290.097 28.9656 288.909 29.5056 287.901C30.0456 286.893 30.7656 286.11 31.6656 285.552C32.5656 284.994 33.5466 284.715 34.6086 284.715C35.3826 284.715 36.0936 284.868 36.7416 285.174C37.4076 285.48 37.9386 285.948 38.3346 286.578C38.7486 287.208 38.9556 288.009 38.9556 288.981L30.8556 290.034C30.8556 290.124 30.8556 290.223 30.8556 290.331C30.8556 291.987 31.2336 293.283 31.9896 294.219C32.7456 295.155 33.7536 295.623 35.0136 295.623C35.7336 295.623 36.3996 295.479 37.0116 295.191C37.6236 294.885 38.1726 294.507 38.6586 294.057L39.0906 294.489C38.5866 295.353 37.9116 296.055 37.0656 296.595C36.2376 297.135 35.2746 297.405 34.1766 297.405ZM34.0416 285.714C33.1056 285.714 32.3856 286.047 31.8816 286.713C31.3776 287.379 31.0626 288.198 30.9366 289.17L36.5256 288.441C36.4176 287.667 36.1836 287.019 35.8236 286.497C35.4636 285.975 34.8696 285.714 34.0416 285.714ZM35.6616 277.182C35.9856 277.164 36.3366 277.227 36.7146 277.371C37.1106 277.497 37.4256 277.695 37.6596 277.965C37.2636 278.775 36.6876 279.603 35.9316 280.449C35.1756 281.277 34.3836 281.952 33.5556 282.474L33.2586 281.961C33.8886 281.277 34.4016 280.512 34.7976 279.666C35.2116 278.802 35.4996 277.974 35.6616 277.182ZM45.0823 297.405C43.8043 297.405 42.8233 297.162 42.1393 296.676C41.4553 296.19 41.1133 295.569 41.1133 294.813C41.1133 294.543 41.1673 294.246 41.2753 293.922C41.3833 293.58 41.5723 293.247 41.8423 292.923H42.4633C42.4813 294.075 42.7243 294.957 43.1923 295.569C43.6603 296.181 44.3983 296.487 45.4063 296.487C46.3063 296.487 46.9723 296.271 47.4043 295.839C47.8363 295.407 48.0523 294.912 48.0523 294.354C48.0523 293.85 47.8903 293.436 47.5663 293.112C47.2603 292.788 46.8553 292.509 46.3513 292.275C45.8653 292.023 45.3433 291.789 44.7853 291.573C44.2273 291.339 43.6963 291.087 43.1923 290.817C42.7063 290.529 42.3013 290.178 41.9773 289.764C41.6713 289.35 41.5183 288.828 41.5183 288.198C41.5183 287.208 41.9143 286.38 42.7063 285.714C43.4983 285.048 44.6053 284.715 46.0273 284.715C46.5853 284.715 47.1523 284.769 47.7283 284.877C48.3043 284.967 48.8443 285.156 49.3483 285.444V288.549H48.7273C48.6013 287.487 48.2593 286.74 47.7013 286.308C47.1433 285.858 46.4863 285.633 45.7303 285.633C44.9923 285.633 44.4343 285.795 44.0563 286.119C43.6783 286.443 43.4893 286.866 43.4893 287.388C43.4893 287.874 43.6423 288.279 43.9483 288.603C44.2723 288.909 44.6773 289.179 45.1633 289.413C45.6673 289.647 46.1893 289.881 46.7293 290.115C47.2873 290.331 47.8093 290.592 48.2953 290.898C48.7993 291.186 49.2043 291.555 49.5103 292.005C49.8343 292.437 49.9963 292.986 49.9963 293.652C49.9963 294.858 49.5283 295.785 48.5923 296.433C47.6563 297.081 46.4863 297.405 45.0823 297.405ZM58.4239 284.715C59.4679 284.715 60.4219 284.976 61.2859 285.498C62.1679 286.002 62.8789 286.713 63.4189 287.631C63.9589 288.549 64.2289 289.62 64.2289 290.844C64.2289 291.924 64.0399 292.878 63.6619 293.706C63.3019 294.516 62.8159 295.2 62.2039 295.758C61.5919 296.298 60.9169 296.712 60.1789 297C59.4589 297.27 58.7479 297.405 58.0459 297.405C57.0199 297.405 56.0659 297.153 55.1839 296.649C54.3019 296.127 53.5909 295.407 53.0509 294.489C52.5289 293.571 52.2679 292.5 52.2679 291.276C52.2679 290.196 52.4479 289.251 52.8079 288.441C53.1859 287.613 53.6809 286.929 54.2929 286.389C54.9049 285.831 55.5709 285.417 56.2909 285.147C57.0109 284.859 57.7219 284.715 58.4239 284.715ZM58.5049 296.325C59.5669 296.325 60.4039 295.947 61.0159 295.191C61.6279 294.417 61.9339 293.229 61.9339 291.627C61.9339 290.529 61.7629 289.539 61.4209 288.657C61.0969 287.775 60.6379 287.082 60.0439 286.578C59.4499 286.056 58.7569 285.795 57.9649 285.795C56.9209 285.795 56.0929 286.182 55.4809 286.956C54.8689 287.712 54.5629 288.891 54.5629 290.493C54.5629 291.573 54.7249 292.554 55.0489 293.436C55.3909 294.318 55.8589 295.02 56.4529 295.542C57.0469 296.064 57.7309 296.325 58.5049 296.325ZM79.9471 294.921L80.2171 295.542L75.8161 297.567L75.6541 297.405C75.6901 297.243 75.7261 296.928 75.7621 296.46C75.8161 295.974 75.8431 295.461 75.8431 294.921H75.8161C75.3481 295.587 74.7541 296.172 74.0341 296.676C73.3321 297.162 72.4861 297.405 71.4961 297.405C70.6501 297.405 69.8581 297.189 69.1201 296.757C68.4001 296.307 67.8151 295.659 67.3651 294.813C66.9331 293.967 66.7171 292.941 66.7171 291.735C66.7171 290.583 66.9151 289.575 67.3111 288.711C67.7251 287.829 68.2651 287.091 68.9311 286.497C69.6151 285.903 70.3621 285.462 71.1721 285.174C72.0001 284.868 72.8281 284.715 73.6561 284.715C74.4841 284.715 75.1951 284.796 75.7891 284.958V279.261C75.7891 278.757 75.7081 278.433 75.5461 278.289C75.4021 278.145 75.2041 278.073 74.9521 278.073C74.7181 278.073 74.4661 278.109 74.1961 278.181C73.9441 278.253 73.7101 278.343 73.4941 278.451L73.2241 277.83L77.8951 275.67L78.0571 275.832C78.0391 275.976 78.0121 276.363 77.9761 276.993C77.9581 277.623 77.9491 278.37 77.9491 279.234V293.976C77.9491 294.48 78.0211 294.804 78.1651 294.948C78.3271 295.092 78.5341 295.164 78.7861 295.164C79.1641 295.164 79.5511 295.083 79.9471 294.921ZM72.3331 295.785C72.9631 295.785 73.5661 295.623 74.1421 295.299C74.7361 294.975 75.2851 294.579 75.7891 294.111V287.037C75.3571 286.569 74.8711 286.272 74.3311 286.146C73.8091 286.002 73.3501 285.93 72.9541 285.93C71.8021 285.93 70.8391 286.326 70.0651 287.118C69.3091 287.892 68.9311 289.125 68.9311 290.817C68.9311 292.365 69.2461 293.58 69.8761 294.462C70.5061 295.344 71.3251 295.785 72.3331 295.785ZM88.1133 284.715C89.1573 284.715 90.1113 284.976 90.9753 285.498C91.8573 286.002 92.5683 286.713 93.1083 287.631C93.6483 288.549 93.9183 289.62 93.9183 290.844C93.9183 291.924 93.7293 292.878 93.3513 293.706C92.9913 294.516 92.5053 295.2 91.8933 295.758C91.2813 296.298 90.6063 296.712 89.8683 297C89.1483 297.27 88.4373 297.405 87.7353 297.405C86.7093 297.405 85.7553 297.153 84.8733 296.649C83.9913 296.127 83.2803 295.407 82.7403 294.489C82.2183 293.571 81.9573 292.5 81.9573 291.276C81.9573 290.196 82.1373 289.251 82.4973 288.441C82.8753 287.613 83.3703 286.929 83.9823 286.389C84.5943 285.831 85.2603 285.417 85.9803 285.147C86.7003 284.859 87.4113 284.715 88.1133 284.715ZM88.1943 296.325C89.2563 296.325 90.0933 295.947 90.7053 295.191C91.3173 294.417 91.6233 293.229 91.6233 291.627C91.6233 290.529 91.4523 289.539 91.1103 288.657C90.7863 287.775 90.3273 287.082 89.7333 286.578C89.1393 286.056 88.4463 285.795 87.6543 285.795C86.6103 285.795 85.7823 286.182 85.1703 286.956C84.5583 287.712 84.2523 288.891 84.2523 290.493C84.2523 291.573 84.4143 292.554 84.7383 293.436C85.0803 294.318 85.5483 295.02 86.1423 295.542C86.7363 296.064 87.4203 296.325 88.1943 296.325ZM96.4876 297V296.379C96.9016 296.361 97.2256 296.307 97.4596 296.217C97.6936 296.127 97.8556 295.938 97.9456 295.65C98.0536 295.362 98.1076 294.903 98.1076 294.273V288.09C98.1076 287.622 98.0356 287.316 97.8916 287.172C97.7476 287.028 97.5496 286.956 97.2976 286.956C97.0996 286.956 96.9016 286.983 96.7036 287.037C96.5236 287.073 96.3346 287.136 96.1366 287.226L95.8666 286.605L100.214 284.58L100.376 284.742C100.34 284.904 100.295 285.255 100.241 285.795C100.205 286.317 100.187 286.893 100.187 287.523H100.241C100.979 286.425 101.789 285.687 102.671 285.309C103.571 284.931 104.507 284.778 105.479 284.85C105.623 286.182 105.623 287.514 105.479 288.846H104.858C104.786 288.108 104.615 287.595 104.345 287.307C104.093 287.001 103.733 286.848 103.265 286.848C102.671 286.848 102.14 286.974 101.672 287.226C101.204 287.478 100.736 287.892 100.268 288.468V294.273C100.268 294.903 100.331 295.362 100.457 295.65C100.583 295.938 100.826 296.127 101.186 296.217C101.564 296.307 102.113 296.361 102.833 296.379V297H96.4876ZM110.841 294.273C110.841 294.903 110.904 295.362 111.03 295.65C111.156 295.938 111.381 296.127 111.705 296.217C112.047 296.307 112.524 296.361 113.136 296.379V297H107.061V296.379C107.457 296.361 107.772 296.307 108.006 296.217C108.24 296.127 108.411 295.938 108.519 295.65C108.627 295.362 108.681 294.903 108.681 294.273V288.171C108.681 287.667 108.6 287.343 108.438 287.199C108.294 287.037 108.096 286.956 107.844 286.956C107.61 286.956 107.358 287.001 107.088 287.091C106.836 287.163 106.602 287.244 106.386 287.334L106.116 286.713L110.787 284.58L110.949 284.742C110.931 284.886 110.904 285.273 110.868 285.903C110.85 286.533 110.841 287.28 110.841 288.144V294.273ZM109.761 282.042C109.365 282.042 109.032 281.907 108.762 281.637C108.492 281.367 108.357 281.034 108.357 280.638C108.357 280.26 108.492 279.936 108.762 279.666C109.032 279.396 109.365 279.261 109.761 279.261C110.157 279.261 110.49 279.396 110.76 279.666C111.03 279.936 111.165 280.26 111.165 280.638C111.165 281.034 111.03 281.367 110.76 281.637C110.49 281.907 110.157 282.042 109.761 282.042ZM118.779 297.405C117.501 297.405 116.52 297.162 115.836 296.676C115.152 296.19 114.81 295.569 114.81 294.813C114.81 294.543 114.864 294.246 114.972 293.922C115.08 293.58 115.269 293.247 115.539 292.923H116.16C116.178 294.075 116.421 294.957 116.889 295.569C117.357 296.181 118.095 296.487 119.103 296.487C120.003 296.487 120.669 296.271 121.101 295.839C121.533 295.407 121.749 294.912 121.749 294.354C121.749 293.85 121.587 293.436 121.263 293.112C120.957 292.788 120.552 292.509 120.048 292.275C119.562 292.023 119.04 291.789 118.482 291.573C117.924 291.339 117.393 291.087 116.889 290.817C116.403 290.529 115.998 290.178 115.674 289.764C115.368 289.35 115.215 288.828 115.215 288.198C115.215 287.208 115.611 286.38 116.403 285.714C117.195 285.048 118.302 284.715 119.724 284.715C120.282 284.715 120.849 284.769 121.425 284.877C122.001 284.967 122.541 285.156 123.045 285.444V288.549H122.424C122.298 287.487 121.956 286.74 121.398 286.308C120.84 285.858 120.183 285.633 119.427 285.633C118.689 285.633 118.131 285.795 117.753 286.119C117.375 286.443 117.186 286.866 117.186 287.388C117.186 287.874 117.339 288.279 117.645 288.603C117.969 288.909 118.374 289.179 118.86 289.413C119.364 289.647 119.886 289.881 120.426 290.115C120.984 290.331 121.506 290.592 121.992 290.898C122.496 291.186 122.901 291.555 123.207 292.005C123.531 292.437 123.693 292.986 123.693 293.652C123.693 294.858 123.225 295.785 122.289 296.433C121.353 297.081 120.183 297.405 118.779 297.405ZM128.988 297.405C128.142 297.405 127.449 297.189 126.909 296.757C126.387 296.307 126.126 295.668 126.126 294.84C126.126 294.174 126.333 293.562 126.747 293.004C127.161 292.446 127.845 291.933 128.799 291.465C129.753 290.997 131.049 290.565 132.687 290.169V288.414C132.687 287.676 132.525 287.064 132.201 286.578C131.895 286.092 131.301 285.849 130.419 285.849C129.573 285.849 128.898 286.119 128.394 286.659C127.908 287.181 127.566 288 127.368 289.116H126.747V285.741C127.377 285.435 128.043 285.192 128.745 285.012C129.465 284.814 130.257 284.715 131.121 284.715C132.111 284.715 132.867 284.85 133.389 285.12C133.929 285.372 134.307 285.732 134.523 286.2C134.739 286.668 134.847 287.217 134.847 287.847V294.381C134.847 295.335 135.144 295.812 135.738 295.812C135.954 295.812 136.197 295.74 136.467 295.596C136.755 295.452 137.088 295.155 137.466 294.705L137.898 295.137C137.07 296.559 136.08 297.27 134.928 297.27C133.74 297.27 133.011 296.667 132.741 295.461H132.687C131.697 296.757 130.464 297.405 128.988 297.405ZM129.987 295.812C130.851 295.812 131.751 295.416 132.687 294.624V291.006C131.391 291.33 130.437 291.69 129.825 292.086C129.213 292.464 128.808 292.851 128.61 293.247C128.43 293.625 128.34 293.976 128.34 294.3C128.34 294.822 128.502 295.209 128.826 295.461C129.15 295.695 129.537 295.812 129.987 295.812ZM150.682 294.273C150.682 294.903 150.736 295.362 150.844 295.65C150.97 295.938 151.195 296.127 151.519 296.217C151.861 296.307 152.347 296.361 152.977 296.379V297H146.902V296.379C147.298 296.361 147.613 296.307 147.847 296.217C148.081 296.127 148.252 295.938 148.36 295.65C148.468 295.362 148.522 294.903 148.522 294.273V288.468C148.522 287.838 148.378 287.343 148.09 286.983C147.82 286.623 147.343 286.443 146.659 286.443C146.065 286.443 145.444 286.569 144.796 286.821C144.148 287.073 143.482 287.469 142.798 288.009V294.273C142.798 294.903 142.852 295.362 142.96 295.65C143.086 295.938 143.311 296.127 143.635 296.217C143.977 296.307 144.463 296.361 145.093 296.379V297H139.018V296.379C139.432 296.361 139.756 296.307 139.99 296.217C140.224 296.127 140.386 295.938 140.476 295.65C140.584 295.362 140.638 294.903 140.638 294.273V288.144C140.638 287.658 140.566 287.343 140.422 287.199C140.278 287.037 140.08 286.956 139.828 286.956C139.63 286.956 139.432 286.983 139.234 287.037C139.054 287.073 138.865 287.136 138.667 287.226L138.397 286.605L142.744 284.58L142.906 284.742C142.87 284.904 142.825 285.219 142.771 285.687C142.735 286.155 142.717 286.65 142.717 287.172H142.771C143.455 286.452 144.193 285.867 144.985 285.417C145.795 284.949 146.668 284.715 147.604 284.715C148.756 284.715 149.557 285.003 150.007 285.579C150.457 286.137 150.682 286.884 150.682 287.82V294.273ZM162.077 294.651L162.509 295.083C162.077 295.731 161.582 296.28 161.024 296.73C160.466 297.18 159.737 297.405 158.837 297.405C158.117 297.405 157.541 297.261 157.109 296.973C156.695 296.685 156.398 296.307 156.218 295.839C156.038 295.353 155.948 294.831 155.948 294.273V286.227H154.085V285.12H155.948V281.421L158.243 281.016C158.189 281.7 158.153 282.384 158.135 283.068C158.117 283.752 158.108 284.436 158.108 285.12H162.104V286.227H158.945C158.639 286.227 158.423 286.29 158.297 286.416C158.171 286.542 158.108 286.758 158.108 287.064V293.706C158.108 294.282 158.207 294.777 158.405 295.191C158.621 295.605 159.053 295.812 159.701 295.812C160.079 295.812 160.466 295.722 160.862 295.542C161.258 295.344 161.663 295.047 162.077 294.651Z" fill="black"/>
</svg>
