<svg width="228" height="729" viewBox="0 0 228 729" fill="none" xmlns="http://www.w3.org/2000/svg">
<path d="M215.541 681.225C213.695 702.761 198.364 721.476 190.929 728.142L8.6464 728.142C-6.73611 728.142 1.72432 200.522 8.64644 189.754C15.5686 178.986 26.3363 171.295 53.2557 160.527C74.7912 151.913 103.762 124.122 115.555 111.303L175.547 62.8486C180.674 75.411 195.851 109.919 215.541 147.452C240.153 194.369 217.848 654.306 215.541 681.225Z" fill="#DACAE7"/>
<path d="M28.3654 396L28.3654 395.126C29.0494 395.101 29.5814 395.025 29.9614 394.898C30.3414 394.771 30.6074 394.505 30.7594 394.1C30.9368 393.695 31.0254 393.061 31.0254 392.2L31.0254 374.53C31.0254 373.643 30.9241 373.01 30.7214 372.63C30.5441 372.225 30.2021 371.959 29.6954 371.832C29.1888 371.705 28.4288 371.629 27.4154 371.604L27.4154 370.73L31.0254 370.73C32.7481 370.73 34.2681 370.705 35.5854 370.654C36.9281 370.578 38.0681 370.54 39.0054 370.54C41.7414 370.54 44.1228 370.996 46.1494 371.908C48.2014 372.795 49.7974 374.125 50.9374 375.898C52.0774 377.671 52.6474 379.901 52.6474 382.586C52.6474 384.663 52.2674 386.538 51.5074 388.21C50.7474 389.857 49.7088 391.263 48.3914 392.428C47.0994 393.593 45.6301 394.48 43.9834 395.088C42.3621 395.696 40.6648 396 38.8914 396L28.3654 396ZM37.7514 394.632C41.6021 394.632 44.4268 393.606 46.2254 391.554C48.0494 389.477 48.9614 386.677 48.9614 383.156C48.9614 380.445 48.5054 378.267 47.5934 376.62C46.7068 374.973 45.4401 373.783 43.7934 373.048C42.1468 372.288 40.1961 371.908 37.9414 371.908C36.5481 371.908 35.5854 372.06 35.0534 372.364C34.5214 372.643 34.2554 373.365 34.2554 374.53L34.2554 392.2C34.2554 393.289 34.5088 393.973 35.0154 394.252C35.5474 394.505 36.4594 394.632 37.7514 394.632ZM64.3761 396.57C63.0841 396.57 61.8427 396.266 60.6521 395.658C59.4867 395.05 58.5241 394.138 57.7641 392.922C57.0294 391.681 56.6621 390.11 56.6621 388.21C56.6621 386.285 57.0421 384.613 57.8021 383.194C58.5621 381.775 59.5754 380.673 60.8421 379.888C62.1087 379.103 63.4894 378.71 64.9841 378.71C66.0734 378.71 67.0741 378.925 67.9861 379.356C68.9234 379.787 69.6707 380.445 70.2281 381.332C70.8107 382.219 71.1021 383.346 71.1021 384.714L59.7021 386.196C59.7021 386.323 59.7021 386.462 59.7021 386.614C59.7021 388.945 60.2341 390.769 61.2981 392.086C62.3621 393.403 63.7807 394.062 65.5541 394.062C66.5674 394.062 67.5047 393.859 68.3661 393.454C69.2274 393.023 70.0001 392.491 70.6841 391.858L71.2921 392.466C70.5827 393.682 69.6327 394.67 68.4421 395.43C67.2767 396.19 65.9214 396.57 64.3761 396.57ZM64.1861 380.116C62.8687 380.116 61.8554 380.585 61.1461 381.522C60.4367 382.459 59.9934 383.612 59.8161 384.98L67.6821 383.954C67.5301 382.865 67.2007 381.953 66.6941 381.218C66.1874 380.483 65.3514 380.116 64.1861 380.116ZM66.4661 368.108C66.9221 368.083 67.4161 368.171 67.9481 368.374C68.5054 368.551 68.9487 368.83 69.2781 369.21C68.7207 370.35 67.9101 371.515 66.8461 372.706C65.7821 373.871 64.6674 374.821 63.5021 375.556L63.0841 374.834C63.9707 373.871 64.6927 372.795 65.2501 371.604C65.8327 370.388 66.2381 369.223 66.4661 368.108ZM84.7028 392.694L85.3108 393.302C84.7028 394.214 84.0061 394.987 83.2208 395.62C82.4355 396.253 81.4095 396.57 80.1428 396.57C79.1295 396.57 78.3188 396.367 77.7108 395.962C77.1281 395.557 76.7101 395.025 76.4568 394.366C76.2035 393.682 76.0768 392.947 76.0768 392.162L76.0768 380.838L73.4548 380.838L73.4548 379.28L76.0768 379.28L76.0768 374.074L79.3068 373.504C79.2308 374.467 79.1801 375.429 79.1548 376.392C79.1295 377.355 79.1168 378.317 79.1168 379.28L84.7408 379.28L84.7408 380.838L80.2948 380.838C79.8641 380.838 79.5601 380.927 79.3828 381.104C79.2055 381.281 79.1168 381.585 79.1168 382.016L79.1168 391.364C79.1168 392.175 79.2561 392.871 79.5348 393.454C79.8388 394.037 80.4468 394.328 81.3588 394.328C81.8908 394.328 82.4355 394.201 82.9928 393.948C83.5501 393.669 84.1201 393.251 84.7028 392.694ZM92.2755 396.57C91.0848 396.57 90.1095 396.266 89.3495 395.658C88.6148 395.025 88.2475 394.125 88.2475 392.96C88.2475 392.023 88.5388 391.161 89.1215 390.376C89.7042 389.591 90.6668 388.869 92.0095 388.21C93.3522 387.551 95.1762 386.943 97.4815 386.386L97.4815 383.916C97.4815 382.877 97.2535 382.016 96.7975 381.332C96.3668 380.648 95.5308 380.306 94.2895 380.306C93.0988 380.306 92.1488 380.686 91.4395 381.446C90.7555 382.181 90.2742 383.333 89.9955 384.904L89.1215 384.904L89.1215 380.154C90.0082 379.723 90.9455 379.381 91.9335 379.128C92.9468 378.849 94.0615 378.71 95.2775 378.71C96.6708 378.71 97.7348 378.9 98.4695 379.28C99.2295 379.635 99.7615 380.141 100.065 380.8C100.369 381.459 100.521 382.231 100.521 383.118L100.521 392.314C100.521 393.657 100.939 394.328 101.775 394.328C102.079 394.328 102.421 394.227 102.801 394.024C103.207 393.821 103.675 393.403 104.207 392.77L104.815 393.378C103.65 395.379 102.257 396.38 100.635 396.38C98.9635 396.38 97.9375 395.531 97.5575 393.834L97.4815 393.834C96.0882 395.658 94.3528 396.57 92.2755 396.57ZM93.6815 394.328C94.8975 394.328 96.1642 393.771 97.4815 392.656L97.4815 387.564C95.6575 388.02 94.3148 388.527 93.4535 389.084C92.5922 389.616 92.0222 390.161 91.7435 390.718C91.4902 391.25 91.3635 391.744 91.3635 392.2C91.3635 392.935 91.5915 393.479 92.0475 393.834C92.5035 394.163 93.0482 394.328 93.6815 394.328ZM106.391 396L106.391 395.126C106.974 395.101 107.43 395.025 107.759 394.898C108.089 394.771 108.317 394.505 108.443 394.1C108.595 393.695 108.671 393.049 108.671 392.162L108.671 383.46C108.671 382.801 108.57 382.371 108.367 382.168C108.165 381.965 107.886 381.864 107.531 381.864C107.253 381.864 106.974 381.902 106.695 381.978C106.442 382.029 106.176 382.117 105.897 382.244L105.517 381.37L111.635 378.52L111.863 378.748C111.813 378.976 111.749 379.47 111.673 380.23C111.623 380.965 111.597 381.775 111.597 382.662L111.673 382.662C112.712 381.117 113.852 380.078 115.093 379.546C116.36 379.014 117.677 378.799 119.045 378.9C119.248 380.775 119.248 382.649 119.045 384.524L118.171 384.524C118.07 383.485 117.829 382.763 117.449 382.358C117.095 381.927 116.588 381.712 115.929 381.712C115.093 381.712 114.346 381.889 113.687 382.244C113.029 382.599 112.37 383.181 111.711 383.992L111.711 392.162C111.711 393.049 111.8 393.695 111.977 394.1C112.155 394.505 112.497 394.771 113.003 394.898C113.535 395.025 114.308 395.101 115.321 395.126L115.321 396L106.391 396ZM131.609 392.694L132.217 393.302C131.609 394.214 130.912 394.987 130.127 395.62C129.342 396.253 128.316 396.57 127.049 396.57C126.036 396.57 125.225 396.367 124.617 395.962C124.034 395.557 123.616 395.025 123.363 394.366C123.11 393.682 122.983 392.947 122.983 392.162L122.983 380.838L120.361 380.838L120.361 379.28L122.983 379.28L122.983 374.074L126.213 373.504C126.137 374.467 126.086 375.429 126.061 376.392C126.036 377.355 126.023 378.317 126.023 379.28L131.647 379.28L131.647 380.838L127.201 380.838C126.77 380.838 126.466 380.927 126.289 381.104C126.112 381.281 126.023 381.585 126.023 382.016L126.023 391.364C126.023 392.175 126.162 392.871 126.441 393.454C126.745 394.037 127.353 394.328 128.265 394.328C128.797 394.328 129.342 394.201 129.899 393.948C130.456 393.669 131.026 393.251 131.609 392.694ZM135.04 396L135.04 395.126C135.622 395.101 136.078 395.025 136.408 394.898C136.737 394.771 136.965 394.505 137.092 394.1C137.244 393.695 137.32 393.049 137.32 392.162L137.32 383.46C137.32 382.801 137.218 382.371 137.016 382.168C136.813 381.965 136.534 381.864 136.18 381.864C135.901 381.864 135.622 381.902 135.344 381.978C135.09 382.029 134.824 382.117 134.546 382.244L134.166 381.37L140.284 378.52L140.512 378.748C140.461 378.976 140.398 379.47 140.322 380.23C140.271 380.965 140.246 381.775 140.246 382.662L140.322 382.662C141.36 381.117 142.5 380.078 143.742 379.546C145.008 379.014 146.326 378.799 147.694 378.9C147.896 380.775 147.896 382.649 147.694 384.524L146.82 384.524C146.718 383.485 146.478 382.763 146.098 382.358C145.743 381.927 145.236 381.712 144.578 381.712C143.742 381.712 142.994 381.889 142.336 382.244C141.677 382.599 141.018 383.181 140.36 383.992L140.36 392.162C140.36 393.049 140.448 393.695 140.626 394.1C140.803 394.505 141.145 394.771 141.652 394.898C142.184 395.025 142.956 395.101 143.97 395.126L143.97 396L135.04 396ZM154.025 396.57C152.835 396.57 151.859 396.266 151.099 395.658C150.365 395.025 149.997 394.125 149.997 392.96C149.997 392.023 150.289 391.161 150.871 390.376C151.454 389.591 152.417 388.869 153.759 388.21C155.102 387.551 156.926 386.943 159.231 386.386L159.231 383.916C159.231 382.877 159.003 382.016 158.547 381.332C158.117 380.648 157.281 380.306 156.039 380.306C154.849 380.306 153.899 380.686 153.189 381.446C152.505 382.181 152.024 383.333 151.745 384.904L150.871 384.904L150.871 380.154C151.758 379.723 152.695 379.381 153.683 379.128C154.697 378.849 155.811 378.71 157.027 378.71C158.421 378.71 159.485 378.9 160.219 379.28C160.979 379.635 161.511 380.141 161.815 380.8C162.119 381.459 162.271 382.231 162.271 383.118L162.271 392.314C162.271 393.657 162.689 394.328 163.525 394.328C163.829 394.328 164.171 394.227 164.551 394.024C164.957 393.821 165.425 393.403 165.957 392.77L166.565 393.378C165.4 395.379 164.007 396.38 162.385 396.38C160.713 396.38 159.687 395.531 159.307 393.834L159.231 393.834C157.838 395.658 156.103 396.57 154.025 396.57ZM155.431 394.328C156.647 394.328 157.914 393.771 159.231 392.656L159.231 387.564C157.407 388.02 156.065 388.527 155.203 389.084C154.342 389.616 153.772 390.161 153.493 390.718C153.24 391.25 153.113 391.744 153.113 392.2C153.113 392.935 153.341 393.479 153.797 393.834C154.253 394.163 154.798 394.328 155.431 394.328ZM184.557 392.162C184.557 393.049 184.633 393.695 184.785 394.1C184.963 394.505 185.279 394.771 185.735 394.898C186.217 395.025 186.901 395.101 187.787 395.126L187.787 396L179.237 396L179.237 395.126C179.795 395.101 180.238 395.025 180.567 394.898C180.897 394.771 181.137 394.505 181.289 394.1C181.441 393.695 181.517 393.049 181.517 392.162L181.517 383.992C181.517 383.105 181.315 382.409 180.909 381.902C180.529 381.395 179.858 381.142 178.895 381.142C178.059 381.142 177.185 381.319 176.273 381.674C175.361 382.029 174.424 382.586 173.461 383.346L173.461 392.162C173.461 393.049 173.537 393.695 173.689 394.1C173.867 394.505 174.183 394.771 174.639 394.898C175.121 395.025 175.805 395.101 176.691 395.126L176.691 396L168.141 396L168.141 395.126C168.724 395.101 169.18 395.025 169.509 394.898C169.839 394.771 170.067 394.505 170.193 394.1C170.345 393.695 170.421 393.049 170.421 392.162L170.421 383.536C170.421 382.852 170.32 382.409 170.117 382.206C169.915 381.978 169.636 381.864 169.281 381.864C169.003 381.864 168.724 381.902 168.445 381.978C168.192 382.029 167.926 382.117 167.647 382.244L167.267 381.37L173.385 378.52L173.613 378.748C173.563 378.976 173.499 379.419 173.423 380.078C173.373 380.737 173.347 381.433 173.347 382.168L173.423 382.168C174.386 381.155 175.425 380.331 176.539 379.698C177.679 379.039 178.908 378.71 180.225 378.71C181.847 378.71 182.974 379.115 183.607 379.926C184.241 380.711 184.557 381.763 184.557 383.08L184.557 392.162ZM200.595 392.694L201.203 393.302C200.595 394.214 199.899 394.987 199.113 395.62C198.328 396.253 197.302 396.57 196.035 396.57C195.022 396.57 194.211 396.367 193.603 395.962C193.021 395.557 192.603 395.025 192.349 394.366C192.096 393.682 191.969 392.947 191.969 392.162L191.969 380.838L189.347 380.838L189.347 379.28L191.969 379.28L191.969 374.074L195.199 373.504C195.123 374.467 195.073 375.429 195.047 376.392C195.022 377.355 195.009 378.317 195.009 379.28L200.633 379.28L200.633 380.838L196.187 380.838C195.757 380.838 195.453 380.927 195.275 381.104C195.098 381.281 195.009 381.585 195.009 382.016L195.009 391.364C195.009 392.175 195.149 392.871 195.427 393.454C195.731 394.037 196.339 394.328 197.251 394.328C197.783 394.328 198.328 394.201 198.885 393.948C199.443 393.669 200.013 393.251 200.595 392.694Z" fill="black"/>
<path d="M107.854 -2.55508e-06C114.52 3.58925 129.697 13.5366 137.081 24.612L94.0096 46.9166C96.4708 40.1483 88.3693 21.5355 84.0109 13.0751L107.854 -2.55508e-06Z" fill="#FE4A0C"/>
<path d="M151.165 18.4702L184.006 70.5398L110.17 113.611L81.7127 54.3882C81.7127 54.3882 100.867 34.3882 115.439 26.4292C130.011 18.4702 151.165 18.4702 151.165 18.4702Z" fill="#CB3501"/>
</svg>
